G04 (created by PCBNEW-RS274X (2012-apr-16-27)-stable) date Sun 05 Jan 2014 06:44:37 PM EST*
G01*
G70*
G90*
%MOIN*%
G04 Gerber Fmt 3.4, Leading zero omitted, Abs format*
%FSLAX34Y34*%
G04 APERTURE LIST*
%ADD10C,0.006000*%
%ADD11C,0.007500*%
%ADD12C,0.015000*%
%ADD13C,0.005000*%
%ADD14C,0.002600*%
%ADD15C,0.004000*%
%ADD16C,0.004500*%
G04 APERTURE END LIST*
G54D10*
G54D11*
X67990Y-25586D02*
X67990Y-25815D01*
X67838Y-25701D02*
X68143Y-25701D01*
X67838Y-26115D02*
X67838Y-25943D01*
X67838Y-26029D02*
X68238Y-26029D01*
X68181Y-26000D01*
X68143Y-25972D01*
X68124Y-25943D01*
X68200Y-26229D02*
X68219Y-26243D01*
X68238Y-26272D01*
X68238Y-26343D01*
X68219Y-26372D01*
X68200Y-26386D01*
X68162Y-26401D01*
X68124Y-26401D01*
X68067Y-26386D01*
X67838Y-26215D01*
X67838Y-26401D01*
X68238Y-26487D02*
X67838Y-26587D01*
X68238Y-26687D01*
X67857Y-27144D02*
X67838Y-27115D01*
X67838Y-27058D01*
X67857Y-27030D01*
X67876Y-27015D01*
X67914Y-27001D01*
X68029Y-27001D01*
X68067Y-27015D01*
X68086Y-27030D01*
X68105Y-27058D01*
X68105Y-27115D01*
X68086Y-27144D01*
X68105Y-27272D02*
X67705Y-27272D01*
X68086Y-27272D02*
X68105Y-27301D01*
X68105Y-27358D01*
X68086Y-27387D01*
X68067Y-27401D01*
X68029Y-27415D01*
X67914Y-27415D01*
X67876Y-27401D01*
X67857Y-27387D01*
X67838Y-27358D01*
X67838Y-27301D01*
X67857Y-27272D01*
X67838Y-27586D02*
X67857Y-27558D01*
X67876Y-27543D01*
X67914Y-27529D01*
X68029Y-27529D01*
X68067Y-27543D01*
X68086Y-27558D01*
X68105Y-27586D01*
X68105Y-27629D01*
X68086Y-27658D01*
X68067Y-27672D01*
X68029Y-27686D01*
X67914Y-27686D01*
X67876Y-27672D01*
X67857Y-27658D01*
X67838Y-27629D01*
X67838Y-27586D01*
X67857Y-27800D02*
X67838Y-27829D01*
X67838Y-27886D01*
X67857Y-27914D01*
X67895Y-27929D01*
X67914Y-27929D01*
X67952Y-27914D01*
X67971Y-27886D01*
X67971Y-27843D01*
X67990Y-27814D01*
X68029Y-27800D01*
X68048Y-27800D01*
X68086Y-27814D01*
X68105Y-27843D01*
X68105Y-27886D01*
X68086Y-27914D01*
G54D12*
X68950Y-24800D02*
X68650Y-24800D01*
X68650Y-24800D02*
X68650Y-28200D01*
X68650Y-28200D02*
X68950Y-28200D01*
X70150Y-24800D02*
X70150Y-28200D01*
X73950Y-24800D02*
X73950Y-28200D01*
X68950Y-28200D02*
X73950Y-28200D01*
X68950Y-24800D02*
X73950Y-24800D01*
G54D13*
X65991Y-29300D02*
X65988Y-29327D01*
X65980Y-29353D01*
X65967Y-29378D01*
X65950Y-29399D01*
X65928Y-29416D01*
X65904Y-29429D01*
X65878Y-29438D01*
X65850Y-29440D01*
X65824Y-29438D01*
X65798Y-29430D01*
X65773Y-29417D01*
X65752Y-29400D01*
X65734Y-29379D01*
X65721Y-29355D01*
X65713Y-29329D01*
X65710Y-29301D01*
X65712Y-29275D01*
X65719Y-29249D01*
X65732Y-29224D01*
X65749Y-29203D01*
X65770Y-29185D01*
X65794Y-29171D01*
X65820Y-29163D01*
X65848Y-29160D01*
X65874Y-29162D01*
X65900Y-29169D01*
X65925Y-29181D01*
X65947Y-29198D01*
X65965Y-29219D01*
X65978Y-29243D01*
X65987Y-29269D01*
X65990Y-29297D01*
X65991Y-29300D01*
X64750Y-29500D02*
X64750Y-29200D01*
X64750Y-29200D02*
X65250Y-29200D01*
X65250Y-29200D02*
X65250Y-29500D01*
X66050Y-25450D02*
X66050Y-29500D01*
X63950Y-29500D02*
X63950Y-25450D01*
X63950Y-29500D02*
X66050Y-29500D01*
X63950Y-25450D02*
X66050Y-25450D01*
X67450Y-24700D02*
X67750Y-24900D01*
X66750Y-24700D02*
X67775Y-24700D01*
X67775Y-24700D02*
X67775Y-25300D01*
X67775Y-25300D02*
X66750Y-25300D01*
X66750Y-25300D02*
X66750Y-24700D01*
X75250Y-27600D02*
X75249Y-27609D01*
X75246Y-27619D01*
X75241Y-27627D01*
X75235Y-27635D01*
X75227Y-27641D01*
X75219Y-27646D01*
X75210Y-27648D01*
X75200Y-27649D01*
X75191Y-27649D01*
X75182Y-27646D01*
X75173Y-27641D01*
X75166Y-27635D01*
X75159Y-27628D01*
X75155Y-27619D01*
X75152Y-27610D01*
X75151Y-27600D01*
X75151Y-27591D01*
X75154Y-27582D01*
X75158Y-27573D01*
X75165Y-27566D01*
X75172Y-27559D01*
X75180Y-27555D01*
X75190Y-27552D01*
X75199Y-27551D01*
X75208Y-27551D01*
X75218Y-27554D01*
X75226Y-27558D01*
X75234Y-27564D01*
X75240Y-27572D01*
X75245Y-27580D01*
X75248Y-27589D01*
X75249Y-27599D01*
X75250Y-27600D01*
X75200Y-28050D02*
X75200Y-27650D01*
X75200Y-27650D02*
X75800Y-27650D01*
X75800Y-27650D02*
X75800Y-28050D01*
X75800Y-28450D02*
X75800Y-28850D01*
X75800Y-28850D02*
X75200Y-28850D01*
X75200Y-28850D02*
X75200Y-28450D01*
X65700Y-25000D02*
X64800Y-25000D01*
X64800Y-25000D02*
X64800Y-24500D01*
X64800Y-24500D02*
X65700Y-24500D01*
X65700Y-24500D02*
X65700Y-25000D01*
X63500Y-24300D02*
X63500Y-25200D01*
X63500Y-25200D02*
X63000Y-25200D01*
X63000Y-25200D02*
X63000Y-24300D01*
X63000Y-24300D02*
X63500Y-24300D01*
X61450Y-24850D02*
X60550Y-24850D01*
X60550Y-24850D02*
X60550Y-24350D01*
X60550Y-24350D02*
X61450Y-24350D01*
X61450Y-24350D02*
X61450Y-24850D01*
X60550Y-25750D02*
X61450Y-25750D01*
X61450Y-25750D02*
X61450Y-26250D01*
X61450Y-26250D02*
X60550Y-26250D01*
X60550Y-26250D02*
X60550Y-25750D01*
X61450Y-27650D02*
X60550Y-27650D01*
X60550Y-27650D02*
X60550Y-27150D01*
X60550Y-27150D02*
X61450Y-27150D01*
X61450Y-27150D02*
X61450Y-27650D01*
X61450Y-29050D02*
X60550Y-29050D01*
X60550Y-29050D02*
X60550Y-28550D01*
X60550Y-28550D02*
X61450Y-28550D01*
X61450Y-28550D02*
X61450Y-29050D01*
G54D14*
X61177Y-27823D02*
X61177Y-28177D01*
X61177Y-28177D02*
X61334Y-28177D01*
X61334Y-27823D02*
X61334Y-28177D01*
X61177Y-27823D02*
X61334Y-27823D01*
X60666Y-27823D02*
X60666Y-28177D01*
X60666Y-28177D02*
X60823Y-28177D01*
X60823Y-27823D02*
X60823Y-28177D01*
X60666Y-27823D02*
X60823Y-27823D01*
X61000Y-27823D02*
X61000Y-27882D01*
X61000Y-27882D02*
X61118Y-27882D01*
X61118Y-27823D02*
X61118Y-27882D01*
X61000Y-27823D02*
X61118Y-27823D01*
X61000Y-28118D02*
X61000Y-28177D01*
X61000Y-28177D02*
X61118Y-28177D01*
X61118Y-28118D02*
X61118Y-28177D01*
X61000Y-28118D02*
X61118Y-28118D01*
X61000Y-27941D02*
X61000Y-28059D01*
X61000Y-28059D02*
X61118Y-28059D01*
X61118Y-27941D02*
X61118Y-28059D01*
X61000Y-27941D02*
X61118Y-27941D01*
G54D15*
X61177Y-27843D02*
X60823Y-27843D01*
X61177Y-28157D02*
X60823Y-28157D01*
G54D14*
X61177Y-29223D02*
X61177Y-29577D01*
X61177Y-29577D02*
X61334Y-29577D01*
X61334Y-29223D02*
X61334Y-29577D01*
X61177Y-29223D02*
X61334Y-29223D01*
X60666Y-29223D02*
X60666Y-29577D01*
X60666Y-29577D02*
X60823Y-29577D01*
X60823Y-29223D02*
X60823Y-29577D01*
X60666Y-29223D02*
X60823Y-29223D01*
X61000Y-29223D02*
X61000Y-29282D01*
X61000Y-29282D02*
X61118Y-29282D01*
X61118Y-29223D02*
X61118Y-29282D01*
X61000Y-29223D02*
X61118Y-29223D01*
X61000Y-29518D02*
X61000Y-29577D01*
X61000Y-29577D02*
X61118Y-29577D01*
X61118Y-29518D02*
X61118Y-29577D01*
X61000Y-29518D02*
X61118Y-29518D01*
X61000Y-29341D02*
X61000Y-29459D01*
X61000Y-29459D02*
X61118Y-29459D01*
X61118Y-29341D02*
X61118Y-29459D01*
X61000Y-29341D02*
X61118Y-29341D01*
G54D15*
X61177Y-29243D02*
X60823Y-29243D01*
X61177Y-29557D02*
X60823Y-29557D01*
G54D14*
X61177Y-25023D02*
X61177Y-25377D01*
X61177Y-25377D02*
X61334Y-25377D01*
X61334Y-25023D02*
X61334Y-25377D01*
X61177Y-25023D02*
X61334Y-25023D01*
X60666Y-25023D02*
X60666Y-25377D01*
X60666Y-25377D02*
X60823Y-25377D01*
X60823Y-25023D02*
X60823Y-25377D01*
X60666Y-25023D02*
X60823Y-25023D01*
X61000Y-25023D02*
X61000Y-25082D01*
X61000Y-25082D02*
X61118Y-25082D01*
X61118Y-25023D02*
X61118Y-25082D01*
X61000Y-25023D02*
X61118Y-25023D01*
X61000Y-25318D02*
X61000Y-25377D01*
X61000Y-25377D02*
X61118Y-25377D01*
X61118Y-25318D02*
X61118Y-25377D01*
X61000Y-25318D02*
X61118Y-25318D01*
X61000Y-25141D02*
X61000Y-25259D01*
X61000Y-25259D02*
X61118Y-25259D01*
X61118Y-25141D02*
X61118Y-25259D01*
X61000Y-25141D02*
X61118Y-25141D01*
G54D15*
X61177Y-25043D02*
X60823Y-25043D01*
X61177Y-25357D02*
X60823Y-25357D01*
G54D14*
X61177Y-26423D02*
X61177Y-26777D01*
X61177Y-26777D02*
X61334Y-26777D01*
X61334Y-26423D02*
X61334Y-26777D01*
X61177Y-26423D02*
X61334Y-26423D01*
X60666Y-26423D02*
X60666Y-26777D01*
X60666Y-26777D02*
X60823Y-26777D01*
X60823Y-26423D02*
X60823Y-26777D01*
X60666Y-26423D02*
X60823Y-26423D01*
X61000Y-26423D02*
X61000Y-26482D01*
X61000Y-26482D02*
X61118Y-26482D01*
X61118Y-26423D02*
X61118Y-26482D01*
X61000Y-26423D02*
X61118Y-26423D01*
X61000Y-26718D02*
X61000Y-26777D01*
X61000Y-26777D02*
X61118Y-26777D01*
X61118Y-26718D02*
X61118Y-26777D01*
X61000Y-26718D02*
X61118Y-26718D01*
X61000Y-26541D02*
X61000Y-26659D01*
X61000Y-26659D02*
X61118Y-26659D01*
X61118Y-26541D02*
X61118Y-26659D01*
X61000Y-26541D02*
X61118Y-26541D01*
G54D15*
X61177Y-26443D02*
X60823Y-26443D01*
X61177Y-26757D02*
X60823Y-26757D01*
G54D13*
X74877Y-28242D02*
X74889Y-28254D01*
X74901Y-28289D01*
X74901Y-28313D01*
X74889Y-28349D01*
X74865Y-28373D01*
X74842Y-28384D01*
X74794Y-28396D01*
X74758Y-28396D01*
X74711Y-28384D01*
X74687Y-28373D01*
X74663Y-28349D01*
X74651Y-28313D01*
X74651Y-28289D01*
X74663Y-28254D01*
X74675Y-28242D01*
X74758Y-28099D02*
X74746Y-28123D01*
X74735Y-28134D01*
X74711Y-28146D01*
X74699Y-28146D01*
X74675Y-28134D01*
X74663Y-28123D01*
X74651Y-28099D01*
X74651Y-28051D01*
X74663Y-28027D01*
X74675Y-28015D01*
X74699Y-28004D01*
X74711Y-28004D01*
X74735Y-28015D01*
X74746Y-28027D01*
X74758Y-28051D01*
X74758Y-28099D01*
X74770Y-28123D01*
X74782Y-28134D01*
X74806Y-28146D01*
X74854Y-28146D01*
X74877Y-28134D01*
X74889Y-28123D01*
X74901Y-28099D01*
X74901Y-28051D01*
X74889Y-28027D01*
X74877Y-28015D01*
X74854Y-28004D01*
X74806Y-28004D01*
X74782Y-28015D01*
X74770Y-28027D01*
X74758Y-28051D01*
G54D16*
X64662Y-24629D02*
X64671Y-24638D01*
X64681Y-24664D01*
X64681Y-24681D01*
X64671Y-24706D01*
X64652Y-24724D01*
X64633Y-24732D01*
X64595Y-24741D01*
X64567Y-24741D01*
X64529Y-24732D01*
X64510Y-24724D01*
X64490Y-24706D01*
X64481Y-24681D01*
X64481Y-24664D01*
X64490Y-24638D01*
X64500Y-24629D01*
X64481Y-24569D02*
X64481Y-24449D01*
X64681Y-24526D01*
X63862Y-24629D02*
X63871Y-24638D01*
X63881Y-24664D01*
X63881Y-24681D01*
X63871Y-24706D01*
X63852Y-24724D01*
X63833Y-24732D01*
X63795Y-24741D01*
X63767Y-24741D01*
X63729Y-24732D01*
X63710Y-24724D01*
X63690Y-24706D01*
X63681Y-24681D01*
X63681Y-24664D01*
X63690Y-24638D01*
X63700Y-24629D01*
X63700Y-24561D02*
X63690Y-24552D01*
X63681Y-24535D01*
X63681Y-24492D01*
X63690Y-24475D01*
X63700Y-24466D01*
X63719Y-24458D01*
X63738Y-24458D01*
X63767Y-24466D01*
X63881Y-24569D01*
X63881Y-24458D01*
G54D13*
X61981Y-28033D02*
X61886Y-28100D01*
X61981Y-28147D02*
X61781Y-28147D01*
X61781Y-28071D01*
X61790Y-28052D01*
X61800Y-28043D01*
X61819Y-28033D01*
X61848Y-28033D01*
X61867Y-28043D01*
X61876Y-28052D01*
X61886Y-28071D01*
X61886Y-28147D01*
X61781Y-27966D02*
X61981Y-27833D01*
X61781Y-27833D02*
X61981Y-27966D01*
X61781Y-29552D02*
X61781Y-29438D01*
X61981Y-29495D02*
X61781Y-29495D01*
X61781Y-29390D02*
X61981Y-29257D01*
X61781Y-29257D02*
X61981Y-29390D01*
X61981Y-25323D02*
X61981Y-25437D01*
X61981Y-25380D02*
X61781Y-25380D01*
X61810Y-25399D01*
X61829Y-25418D01*
X61838Y-25437D01*
X61800Y-25247D02*
X61790Y-25237D01*
X61781Y-25218D01*
X61781Y-25171D01*
X61790Y-25152D01*
X61800Y-25142D01*
X61819Y-25133D01*
X61838Y-25133D01*
X61867Y-25142D01*
X61981Y-25256D01*
X61981Y-25133D01*
X61781Y-25076D02*
X61981Y-25009D01*
X61781Y-24943D01*
X61981Y-26866D02*
X61781Y-26866D01*
X61781Y-26790D01*
X61790Y-26771D01*
X61800Y-26762D01*
X61819Y-26752D01*
X61848Y-26752D01*
X61867Y-26762D01*
X61876Y-26771D01*
X61886Y-26790D01*
X61886Y-26866D01*
X61781Y-26685D02*
X61981Y-26638D01*
X61838Y-26600D01*
X61981Y-26562D01*
X61781Y-26514D01*
X61981Y-26323D02*
X61886Y-26390D01*
X61981Y-26437D02*
X61781Y-26437D01*
X61781Y-26361D01*
X61790Y-26342D01*
X61800Y-26333D01*
X61819Y-26323D01*
X61848Y-26323D01*
X61867Y-26333D01*
X61876Y-26342D01*
X61886Y-26361D01*
X61886Y-26437D01*
M02*
