M48
;DRILL file {Pcbnew (2014-01-30 BZR 4648)-product} date Thu 31 Jul 2014 12:10:26 PM EDT
;FORMAT={-:-/ absolute / inch / decimal}
FMAT,2
INCH,TZ
T1C0.025
T2C0.032
T3C0.040
%
G90
G05
M72
T1
X6.0375Y-2.665
X6.06Y-2.45
X6.1Y-2.9695
X6.11Y-2.605
X6.115Y-2.71
X6.16Y-2.67
X6.17Y-2.48
X6.175Y-2.715
X6.175Y-2.847
X6.2Y-2.555
X6.205Y-2.68
X6.213Y-2.513
X6.24Y-2.785
X6.275Y-2.4975
X6.3246Y-2.84
X6.3275Y-2.545
X6.385Y-2.645
X6.43Y-2.56
X6.505Y-2.65
X6.575Y-2.72
X6.58Y-2.77
X6.66Y-2.58
X6.68Y-2.86
T2
X6.4Y-2.45
X6.4Y-2.95
X6.5Y-2.45
X6.5Y-2.95
X6.6Y-2.45
X6.6Y-2.95
X6.7Y-2.45
X6.7Y-2.95
X6.8Y-2.45
X6.8Y-2.95
X6.9Y-2.45
X6.9Y-2.95
X7.Y-2.45
X7.Y-2.95
X7.1Y-2.45
X7.1Y-2.95
T3
X6.81Y-2.6075G85X6.81Y-2.6925
G05
X6.8575Y-2.85G85X6.9425Y-2.85
G05
X7.05Y-2.6075G85X7.05Y-2.6925
G05
T0
M30
