M48
;DRILL file {Pcbnew (2012-apr-16-27)-stable} date Sun 05 Jan 2014 06:41:10 PM EST
;FORMAT={-:-/ absolute / inch / decimal}
FMAT,2
INCH,TZ
T1C0.025
T2C0.032
T3C0.040
%
G90
G05
M72
T1
X6.230Y-2.485
X6.240Y-2.800
X6.243Y-2.752
X6.285Y-2.565
X6.285Y-2.615
X6.385Y-2.535
X6.440Y-2.620
X6.440Y-2.710
X6.470Y-2.500
X6.520Y-2.800
X6.520Y-2.865
X6.540Y-2.670
X6.580Y-2.570
X6.625Y-2.470
X6.710Y-2.610
X6.730Y-2.890
X6.900Y-2.525
X6.900Y-2.810
T2
X6.850Y-2.450
X6.850Y-2.950
X6.950Y-2.450
X6.950Y-2.950
X7.050Y-2.450
X7.050Y-2.950
X7.150Y-2.450
X7.150Y-2.950
X7.250Y-2.450
X7.250Y-2.950
X7.350Y-2.450
X7.350Y-2.950
X7.450Y-2.450
X7.450Y-2.950
X7.550Y-2.450
X7.550Y-2.950
T3
X7.175Y-2.620G85X7.175Y-2.680
G05
X7.235Y-2.850G85X7.295Y-2.850
G05
X7.415Y-2.620G85X7.415Y-2.680
G05
T0
M30
