G04 (created by PCBNEW-RS274X (2012-apr-16-27)-stable) date Sun 05 Jan 2014 06:44:37 PM EST*
G01*
G70*
G90*
%MOIN*%
G04 Gerber Fmt 3.4, Leading zero omitted, Abs format*
%FSLAX34Y34*%
G04 APERTURE LIST*
%ADD10C,0.006000*%
%ADD11C,0.209000*%
%ADD12R,0.209000X0.209000*%
%ADD13R,0.070000X0.036000*%
%ADD14R,0.047600X0.059400*%
%ADD15R,0.075000X0.055000*%
%ADD16R,0.045000X0.065000*%
%ADD17R,0.065000X0.045000*%
%ADD18R,0.050000X0.040000*%
%ADD19R,0.051400X0.051400*%
%ADD20C,0.075000*%
G04 APERTURE END LIST*
G54D10*
G54D11*
X71750Y-26500D03*
G54D12*
X74150Y-26500D03*
G54D11*
X72650Y-28500D03*
G54D13*
X66400Y-29150D03*
X66400Y-28900D03*
X66400Y-28640D03*
X66400Y-28380D03*
X66400Y-28130D03*
X66400Y-27870D03*
X66400Y-27610D03*
X66400Y-27360D03*
X66400Y-27100D03*
X66400Y-26850D03*
X66400Y-26590D03*
X66400Y-26330D03*
X66400Y-26080D03*
X66400Y-25820D03*
X63600Y-25820D03*
X63600Y-26080D03*
X63600Y-26320D03*
X63600Y-26590D03*
X63600Y-26850D03*
X63600Y-27100D03*
X63600Y-27360D03*
X63600Y-27610D03*
X63600Y-27870D03*
X63600Y-28130D03*
X63600Y-28380D03*
X63600Y-28640D03*
X63600Y-28900D03*
X63600Y-29150D03*
G54D14*
X67250Y-25500D03*
X66875Y-24500D03*
X67625Y-24500D03*
G54D15*
X75500Y-27875D03*
X75500Y-28625D03*
G54D16*
X65550Y-24750D03*
X64950Y-24750D03*
G54D17*
X63250Y-24450D03*
X63250Y-25050D03*
G54D18*
X62800Y-26900D03*
X62800Y-27180D03*
X62800Y-26620D03*
G54D16*
X61300Y-24600D03*
X60700Y-24600D03*
X60700Y-26000D03*
X61300Y-26000D03*
X61300Y-27400D03*
X60700Y-27400D03*
X61300Y-28800D03*
X60700Y-28800D03*
G54D19*
X60705Y-28000D03*
X61295Y-28000D03*
X60705Y-29400D03*
X61295Y-29400D03*
X60705Y-25200D03*
X61295Y-25200D03*
X60705Y-26600D03*
X61295Y-26600D03*
G54D20*
X68500Y-29500D03*
X69500Y-29500D03*
X70500Y-29500D03*
X71500Y-29500D03*
X72500Y-29500D03*
X73500Y-29500D03*
X74500Y-29500D03*
X75500Y-29500D03*
X75500Y-24500D03*
X74500Y-24500D03*
X73500Y-24500D03*
X72500Y-24500D03*
X71500Y-24500D03*
X70500Y-24500D03*
X69500Y-24500D03*
X68500Y-24500D03*
M02*
