G04 (created by PCBNEW-RS274X (2012-apr-16-27)-stable) date Sun 05 Jan 2014 06:44:37 PM EST*
G01*
G70*
G90*
%MOIN*%
G04 Gerber Fmt 3.4, Leading zero omitted, Abs format*
%FSLAX34Y34*%
G04 APERTURE LIST*
%ADD10C,0.006000*%
%ADD11C,0.189000*%
%ADD12R,0.189000X0.189000*%
%ADD13R,0.050000X0.016000*%
%ADD14R,0.027600X0.039400*%
%ADD15R,0.055000X0.035000*%
%ADD16R,0.025000X0.045000*%
%ADD17R,0.045000X0.025000*%
%ADD18R,0.030000X0.020000*%
%ADD19R,0.031400X0.031400*%
%ADD20C,0.055000*%
%ADD21C,0.035000*%
%ADD22C,0.008000*%
%ADD23C,0.020000*%
%ADD24C,0.012000*%
%ADD25C,0.010000*%
G04 APERTURE END LIST*
G54D10*
G54D11*
X71750Y-26500D03*
G54D12*
X74150Y-26500D03*
G54D11*
X72650Y-28500D03*
G54D13*
X66400Y-29150D03*
X66400Y-28900D03*
X66400Y-28640D03*
X66400Y-28380D03*
X66400Y-28130D03*
X66400Y-27870D03*
X66400Y-27610D03*
X66400Y-27360D03*
X66400Y-27100D03*
X66400Y-26850D03*
X66400Y-26590D03*
X66400Y-26330D03*
X66400Y-26080D03*
X66400Y-25820D03*
X63600Y-25820D03*
X63600Y-26080D03*
X63600Y-26320D03*
X63600Y-26590D03*
X63600Y-26850D03*
X63600Y-27100D03*
X63600Y-27360D03*
X63600Y-27610D03*
X63600Y-27870D03*
X63600Y-28130D03*
X63600Y-28380D03*
X63600Y-28640D03*
X63600Y-28900D03*
X63600Y-29150D03*
G54D14*
X67250Y-25500D03*
X66875Y-24500D03*
X67625Y-24500D03*
G54D15*
X75500Y-27875D03*
X75500Y-28625D03*
G54D16*
X65550Y-24750D03*
X64950Y-24750D03*
G54D17*
X63250Y-24450D03*
X63250Y-25050D03*
G54D18*
X62800Y-26900D03*
X62800Y-27180D03*
X62800Y-26620D03*
G54D16*
X61300Y-24600D03*
X60700Y-24600D03*
X60700Y-26000D03*
X61300Y-26000D03*
X61300Y-27400D03*
X60700Y-27400D03*
X61300Y-28800D03*
X60700Y-28800D03*
G54D19*
X60705Y-28000D03*
X61295Y-28000D03*
X60705Y-29400D03*
X61295Y-29400D03*
X60705Y-25200D03*
X61295Y-25200D03*
X60705Y-26600D03*
X61295Y-26600D03*
G54D20*
X68500Y-29500D03*
X69500Y-29500D03*
X70500Y-29500D03*
X71500Y-29500D03*
X72500Y-29500D03*
X73500Y-29500D03*
X74500Y-29500D03*
X75500Y-29500D03*
X75500Y-24500D03*
X74500Y-24500D03*
X73500Y-24500D03*
X72500Y-24500D03*
X71500Y-24500D03*
X70500Y-24500D03*
X69500Y-24500D03*
X68500Y-24500D03*
G54D21*
X67100Y-26100D03*
X66250Y-24700D03*
X63850Y-25350D03*
X69000Y-25250D03*
X69000Y-28100D03*
X67300Y-28900D03*
X62300Y-24850D03*
X64700Y-25000D03*
X65400Y-26700D03*
X65200Y-28000D03*
X62400Y-28000D03*
X65200Y-28650D03*
X62850Y-25650D03*
X62850Y-26150D03*
X65800Y-25700D03*
X64400Y-26200D03*
X62425Y-27525D03*
X64400Y-27100D03*
G54D22*
X63600Y-24400D02*
X64300Y-24400D01*
X64300Y-24400D02*
X64400Y-24500D01*
X66900Y-25700D02*
X66500Y-25300D01*
X66900Y-25900D02*
X66900Y-25700D01*
X64400Y-25200D02*
X64700Y-25500D01*
X67100Y-26100D02*
X66900Y-25900D01*
X64700Y-25500D02*
X65300Y-25500D01*
X65300Y-25500D02*
X65500Y-25300D01*
X65500Y-25300D02*
X66500Y-25300D01*
X63300Y-24400D02*
X63250Y-24450D01*
X74150Y-24850D02*
X74500Y-24500D01*
X74150Y-26500D02*
X74150Y-24850D01*
X73500Y-24500D02*
X72500Y-24500D01*
X74500Y-24500D02*
X73500Y-24500D01*
X75500Y-24500D02*
X74500Y-24500D01*
X61300Y-24600D02*
X61450Y-24450D01*
X61450Y-24450D02*
X63250Y-24450D01*
G54D23*
X75500Y-27850D02*
X74150Y-26500D01*
X75500Y-27875D02*
X75500Y-27850D01*
G54D22*
X64400Y-24500D02*
X64400Y-25200D01*
X63600Y-24400D02*
X63300Y-24400D01*
X60700Y-26000D02*
X60700Y-25600D01*
G54D23*
X65800Y-24500D02*
X66200Y-24500D01*
G54D22*
X66250Y-24700D02*
X66350Y-24600D01*
X66350Y-24600D02*
X66350Y-24500D01*
X62600Y-25350D02*
X63850Y-25350D01*
X62450Y-25500D02*
X62600Y-25350D01*
X60800Y-25500D02*
X62450Y-25500D01*
X60700Y-25600D02*
X60800Y-25500D01*
G54D24*
X69500Y-24500D02*
X69200Y-24500D01*
X68600Y-25100D02*
X67700Y-25100D01*
X67000Y-25000D02*
X66875Y-24875D01*
X69200Y-24500D02*
X68600Y-25100D01*
X67600Y-25000D02*
X67000Y-25000D01*
G54D23*
X66350Y-24500D02*
X66875Y-24500D01*
G54D24*
X66875Y-24875D02*
X66875Y-24500D01*
X67700Y-25100D02*
X67600Y-25000D01*
G54D22*
X60700Y-27400D02*
X60400Y-27400D01*
X60700Y-28800D02*
X60400Y-28500D01*
X60400Y-26300D02*
X60700Y-26000D01*
G54D23*
X66200Y-24500D02*
X66350Y-24500D01*
G54D22*
X60400Y-27400D02*
X60400Y-26300D01*
X60400Y-28500D02*
X60400Y-27400D01*
G54D23*
X65550Y-24750D02*
X65800Y-24500D01*
G54D22*
X70500Y-24500D02*
X71500Y-24500D01*
G54D23*
X69000Y-25250D02*
X69000Y-25500D01*
X67250Y-25500D02*
X69000Y-25500D01*
X69000Y-25500D02*
X69500Y-25500D01*
X69500Y-25500D02*
X70500Y-24500D01*
X69000Y-25250D02*
X69000Y-28100D01*
G54D22*
X66400Y-28640D02*
X67040Y-28640D01*
X67040Y-28640D02*
X67300Y-28900D01*
X68238Y-28838D02*
X69838Y-28838D01*
X67530Y-28130D02*
X68238Y-28838D01*
X66400Y-28130D02*
X67530Y-28130D01*
X69838Y-28838D02*
X70500Y-29500D01*
X66400Y-29150D02*
X66400Y-29400D01*
X69000Y-29000D02*
X69500Y-29500D01*
X68200Y-29000D02*
X69000Y-29000D01*
X67600Y-29600D02*
X68200Y-29000D01*
X66600Y-29600D02*
X67600Y-29600D01*
X66400Y-29400D02*
X66600Y-29600D01*
G54D24*
X61295Y-25200D02*
X61800Y-25200D01*
X61800Y-25200D02*
X61950Y-25200D01*
X63250Y-25050D02*
X62900Y-25050D01*
G54D22*
X62150Y-28338D02*
X62632Y-28338D01*
X61588Y-26893D02*
X61588Y-27868D01*
X62738Y-28232D02*
X62738Y-27832D01*
X63210Y-27360D02*
X63600Y-27360D01*
X61295Y-26600D02*
X61588Y-26893D01*
X62058Y-28338D02*
X62150Y-28338D01*
X62738Y-27832D02*
X63210Y-27360D01*
X61588Y-27868D02*
X62058Y-28338D01*
X62632Y-28338D02*
X62738Y-28232D01*
G54D24*
X61950Y-25200D02*
X62300Y-24850D01*
X62700Y-24850D02*
X62300Y-24850D01*
X62900Y-25050D02*
X62700Y-24850D01*
X64496Y-25554D02*
X64692Y-25750D01*
G54D22*
X72650Y-28500D02*
X72650Y-29350D01*
G54D24*
X64850Y-25750D02*
X65400Y-26300D01*
G54D22*
X65390Y-26690D02*
X65400Y-26700D01*
G54D24*
X64692Y-25750D02*
X64850Y-25750D01*
X63600Y-25050D02*
X63250Y-25050D01*
X64218Y-25276D02*
X64496Y-25554D01*
X64218Y-25118D02*
X64218Y-25276D01*
X63600Y-25050D02*
X63750Y-24900D01*
X63750Y-24900D02*
X64000Y-24900D01*
X64000Y-24900D02*
X64218Y-25118D01*
X65400Y-26700D02*
X65400Y-26300D01*
G54D22*
X72650Y-27400D02*
X71750Y-26500D01*
G54D23*
X64700Y-25000D02*
X64950Y-24750D01*
G54D22*
X64100Y-27400D02*
X64100Y-28360D01*
X74500Y-29500D02*
X73500Y-29500D01*
X73500Y-29500D02*
X72500Y-29500D01*
X64100Y-26690D02*
X64000Y-26590D01*
X63600Y-26590D02*
X64000Y-26590D01*
X64840Y-28360D02*
X64100Y-28360D01*
X75500Y-29500D02*
X74500Y-29500D01*
X64100Y-26690D02*
X65390Y-26690D01*
X66390Y-27600D02*
X66400Y-27610D01*
X64060Y-28640D02*
X63600Y-28640D01*
X64040Y-27360D02*
X64100Y-27400D01*
X64080Y-28380D02*
X64100Y-28400D01*
G54D23*
X75500Y-28625D02*
X75500Y-29500D01*
G54D22*
X64100Y-28600D02*
X64060Y-28640D01*
X63600Y-28380D02*
X64080Y-28380D01*
X65200Y-28000D02*
X64840Y-28360D01*
G54D23*
X67625Y-24500D02*
X68500Y-24500D01*
G54D22*
X72650Y-29350D02*
X72650Y-27400D01*
X72650Y-29350D02*
X72500Y-29500D01*
X64100Y-28400D02*
X64100Y-28600D01*
X65600Y-27600D02*
X66390Y-27600D01*
X63600Y-27360D02*
X64040Y-27360D01*
X72500Y-29500D02*
X72650Y-29350D01*
X65200Y-28000D02*
X65600Y-27600D01*
X64100Y-28360D02*
X64080Y-28380D01*
X61750Y-27800D02*
X62050Y-28100D01*
X62300Y-28100D02*
X62400Y-28000D01*
X62300Y-26900D02*
X62800Y-26900D01*
X62300Y-26900D02*
X61750Y-27450D01*
X61750Y-27450D02*
X61750Y-27800D01*
X66400Y-28380D02*
X65470Y-28380D01*
X65200Y-28650D02*
X65470Y-28380D01*
X62050Y-28100D02*
X62300Y-28100D01*
X62850Y-25650D02*
X63020Y-25820D01*
X63020Y-25820D02*
X63600Y-25820D01*
X62850Y-26150D02*
X62920Y-26080D01*
X62920Y-26080D02*
X63600Y-26080D01*
X63090Y-28172D02*
X63090Y-28340D01*
X63090Y-28340D02*
X62768Y-28662D01*
X61850Y-29180D02*
X61630Y-29400D01*
X63160Y-27870D02*
X63090Y-27940D01*
X63600Y-27870D02*
X63160Y-27870D01*
X62768Y-28662D02*
X61938Y-28662D01*
X63090Y-27940D02*
X63090Y-28172D01*
X61938Y-28662D02*
X61850Y-28750D01*
X61850Y-28750D02*
X61850Y-29180D01*
X61630Y-29400D02*
X61295Y-29400D01*
X62700Y-28500D02*
X62900Y-28300D01*
X62300Y-28500D02*
X62700Y-28500D01*
X63600Y-27610D02*
X63190Y-27610D01*
X61795Y-28500D02*
X61295Y-28000D01*
X62900Y-27900D02*
X63190Y-27610D01*
X62900Y-28300D02*
X62900Y-27900D01*
X61795Y-28500D02*
X62300Y-28500D01*
X65800Y-26500D02*
X65800Y-25700D01*
X65890Y-26590D02*
X65800Y-26500D01*
X66400Y-26590D02*
X65890Y-26590D01*
X63600Y-26320D02*
X64280Y-26320D01*
X64280Y-26320D02*
X64400Y-26200D01*
G54D24*
X63280Y-26320D02*
X63600Y-26320D01*
X62800Y-26620D02*
X62980Y-26620D01*
X62980Y-26620D02*
X63280Y-26320D01*
G54D22*
X61300Y-27400D02*
X60705Y-27995D01*
X60705Y-27995D02*
X60705Y-28000D01*
X60700Y-24600D02*
X60700Y-25195D01*
X60700Y-25195D02*
X60705Y-25200D01*
X60705Y-26595D02*
X60705Y-26600D01*
X61300Y-26000D02*
X60705Y-26595D01*
X60705Y-29400D02*
X61300Y-28805D01*
X61300Y-28805D02*
X61300Y-28800D01*
G54D24*
X62770Y-27180D02*
X62800Y-27180D01*
X62425Y-27525D02*
X62770Y-27180D01*
X63600Y-27100D02*
X64300Y-27100D01*
X64300Y-27100D02*
X64400Y-27100D01*
X63120Y-27180D02*
X62800Y-27180D01*
X63200Y-27100D02*
X63120Y-27180D01*
X63600Y-27100D02*
X63200Y-27100D01*
G54D10*
G36*
X75675Y-28200D02*
X75027Y-28200D01*
X74527Y-27450D01*
X73300Y-27450D01*
X73300Y-25466D01*
X72050Y-24966D01*
X72050Y-24325D01*
X75675Y-24325D01*
X75675Y-28200D01*
X75675Y-28200D01*
G37*
G54D25*
X75675Y-28200D02*
X75027Y-28200D01*
X74527Y-27450D01*
X73300Y-27450D01*
X73300Y-25466D01*
X72050Y-24966D01*
X72050Y-24325D01*
X75675Y-24325D01*
X75675Y-28200D01*
G54D10*
G36*
X62499Y-25900D02*
X62490Y-25909D01*
X62425Y-26065D01*
X62425Y-26234D01*
X62471Y-26346D01*
X62439Y-26379D01*
X62401Y-26470D01*
X62401Y-26569D01*
X62401Y-26610D01*
X62300Y-26610D01*
X62189Y-26632D01*
X62095Y-26695D01*
X62094Y-26695D01*
X62094Y-26696D01*
X61671Y-27118D01*
X61636Y-27034D01*
X61566Y-26964D01*
X61475Y-26926D01*
X61376Y-26926D01*
X61126Y-26926D01*
X61034Y-26964D01*
X61000Y-26998D01*
X60979Y-26977D01*
X61003Y-26968D01*
X61073Y-26898D01*
X61111Y-26807D01*
X61111Y-26708D01*
X61111Y-26599D01*
X61236Y-26474D01*
X61474Y-26474D01*
X61566Y-26436D01*
X61636Y-26366D01*
X61674Y-26275D01*
X61674Y-26176D01*
X61674Y-25790D01*
X62447Y-25790D01*
X62489Y-25890D01*
X62499Y-25900D01*
X62499Y-25900D01*
G37*
G54D25*
X62499Y-25900D02*
X62490Y-25909D01*
X62425Y-26065D01*
X62425Y-26234D01*
X62471Y-26346D01*
X62439Y-26379D01*
X62401Y-26470D01*
X62401Y-26569D01*
X62401Y-26610D01*
X62300Y-26610D01*
X62189Y-26632D01*
X62095Y-26695D01*
X62094Y-26695D01*
X62094Y-26696D01*
X61671Y-27118D01*
X61636Y-27034D01*
X61566Y-26964D01*
X61475Y-26926D01*
X61376Y-26926D01*
X61126Y-26926D01*
X61034Y-26964D01*
X61000Y-26998D01*
X60979Y-26977D01*
X61003Y-26968D01*
X61073Y-26898D01*
X61111Y-26807D01*
X61111Y-26708D01*
X61111Y-26599D01*
X61236Y-26474D01*
X61474Y-26474D01*
X61566Y-26436D01*
X61636Y-26366D01*
X61674Y-26275D01*
X61674Y-26176D01*
X61674Y-25790D01*
X62447Y-25790D01*
X62489Y-25890D01*
X62499Y-25900D01*
G54D10*
G36*
X64110Y-25009D02*
X64091Y-24990D01*
X63935Y-24925D01*
X63766Y-24925D01*
X63610Y-24989D01*
X63539Y-25060D01*
X62600Y-25060D01*
X62489Y-25082D01*
X62395Y-25145D01*
X62330Y-25210D01*
X61111Y-25210D01*
X61111Y-25068D01*
X61125Y-25074D01*
X61224Y-25074D01*
X61474Y-25074D01*
X61566Y-25036D01*
X61636Y-24966D01*
X61674Y-24875D01*
X61674Y-24776D01*
X61674Y-24740D01*
X62838Y-24740D01*
X62884Y-24786D01*
X62975Y-24824D01*
X63074Y-24824D01*
X63524Y-24824D01*
X63616Y-24786D01*
X63686Y-24716D01*
X63696Y-24690D01*
X64110Y-24690D01*
X64110Y-25009D01*
X64110Y-25009D01*
G37*
G54D25*
X64110Y-25009D02*
X64091Y-24990D01*
X63935Y-24925D01*
X63766Y-24925D01*
X63610Y-24989D01*
X63539Y-25060D01*
X62600Y-25060D01*
X62489Y-25082D01*
X62395Y-25145D01*
X62330Y-25210D01*
X61111Y-25210D01*
X61111Y-25068D01*
X61125Y-25074D01*
X61224Y-25074D01*
X61474Y-25074D01*
X61566Y-25036D01*
X61636Y-24966D01*
X61674Y-24875D01*
X61674Y-24776D01*
X61674Y-24740D01*
X62838Y-24740D01*
X62884Y-24786D01*
X62975Y-24824D01*
X63074Y-24824D01*
X63524Y-24824D01*
X63616Y-24786D01*
X63686Y-24716D01*
X63696Y-24690D01*
X64110Y-24690D01*
X64110Y-25009D01*
G54D10*
G36*
X65273Y-24325D02*
X65214Y-24384D01*
X65176Y-24475D01*
X65176Y-24574D01*
X65176Y-25024D01*
X65214Y-25116D01*
X65244Y-25146D01*
X65180Y-25210D01*
X64820Y-25210D01*
X64690Y-25080D01*
X64690Y-24500D01*
X64668Y-24389D01*
X64625Y-24325D01*
X65273Y-24325D01*
X65273Y-24325D01*
G37*
G54D25*
X65273Y-24325D02*
X65214Y-24384D01*
X65176Y-24475D01*
X65176Y-24574D01*
X65176Y-25024D01*
X65214Y-25116D01*
X65244Y-25146D01*
X65180Y-25210D01*
X64820Y-25210D01*
X64690Y-25080D01*
X64690Y-24500D01*
X64668Y-24389D01*
X64625Y-24325D01*
X65273Y-24325D01*
G54D10*
G36*
X66265Y-29675D02*
X61705Y-29675D01*
X61741Y-29668D01*
X61835Y-29605D01*
X62055Y-29385D01*
X62118Y-29291D01*
X62140Y-29180D01*
X62140Y-28952D01*
X62768Y-28952D01*
X62879Y-28930D01*
X62973Y-28867D01*
X63123Y-28716D01*
X63101Y-28770D01*
X63101Y-28869D01*
X63101Y-29020D01*
X63101Y-29029D01*
X63101Y-29119D01*
X63101Y-29279D01*
X63139Y-29371D01*
X63209Y-29441D01*
X63300Y-29479D01*
X63399Y-29479D01*
X63899Y-29479D01*
X63991Y-29441D01*
X64061Y-29371D01*
X64099Y-29280D01*
X64099Y-29181D01*
X64099Y-29030D01*
X64099Y-29021D01*
X64099Y-28931D01*
X64099Y-28771D01*
X64061Y-28679D01*
X63991Y-28609D01*
X63900Y-28571D01*
X63801Y-28571D01*
X63301Y-28571D01*
X63246Y-28593D01*
X63295Y-28545D01*
X63352Y-28459D01*
X63399Y-28459D01*
X63899Y-28459D01*
X63991Y-28421D01*
X64061Y-28351D01*
X64099Y-28260D01*
X64099Y-28161D01*
X64099Y-28001D01*
X64098Y-28000D01*
X64099Y-28000D01*
X64099Y-27901D01*
X64099Y-27741D01*
X64098Y-27740D01*
X64099Y-27740D01*
X64099Y-27641D01*
X64099Y-27481D01*
X64069Y-27410D01*
X64109Y-27410D01*
X64159Y-27460D01*
X64315Y-27525D01*
X64484Y-27525D01*
X64640Y-27461D01*
X64760Y-27341D01*
X64825Y-27185D01*
X64825Y-27016D01*
X64761Y-26860D01*
X64641Y-26740D01*
X64485Y-26675D01*
X64316Y-26675D01*
X64160Y-26739D01*
X64109Y-26790D01*
X64099Y-26790D01*
X64099Y-26721D01*
X64061Y-26629D01*
X64042Y-26610D01*
X64279Y-26610D01*
X64280Y-26610D01*
X64315Y-26625D01*
X64484Y-26625D01*
X64640Y-26561D01*
X64760Y-26441D01*
X64825Y-26285D01*
X64825Y-26116D01*
X64761Y-25960D01*
X64641Y-25840D01*
X64485Y-25775D01*
X64316Y-25775D01*
X64160Y-25839D01*
X64099Y-25900D01*
X64099Y-25851D01*
X64099Y-25702D01*
X64210Y-25591D01*
X64260Y-25470D01*
X64495Y-25705D01*
X64589Y-25768D01*
X64700Y-25790D01*
X65300Y-25790D01*
X65375Y-25775D01*
X65375Y-25784D01*
X65439Y-25940D01*
X65510Y-26011D01*
X65510Y-26500D01*
X65532Y-26611D01*
X65595Y-26705D01*
X65685Y-26795D01*
X65779Y-26858D01*
X65890Y-26880D01*
X65901Y-26880D01*
X65901Y-26970D01*
X65901Y-26979D01*
X65901Y-27069D01*
X65901Y-27229D01*
X65901Y-27230D01*
X65901Y-27329D01*
X65901Y-27489D01*
X65939Y-27581D01*
X65973Y-27615D01*
X65939Y-27649D01*
X65901Y-27740D01*
X65901Y-27839D01*
X65901Y-27999D01*
X65901Y-28000D01*
X65901Y-28090D01*
X65470Y-28090D01*
X65359Y-28112D01*
X65265Y-28175D01*
X65264Y-28175D01*
X65264Y-28176D01*
X65215Y-28225D01*
X65116Y-28225D01*
X64960Y-28289D01*
X64840Y-28409D01*
X64775Y-28565D01*
X64775Y-28734D01*
X64839Y-28890D01*
X64959Y-29010D01*
X65115Y-29075D01*
X65284Y-29075D01*
X65440Y-29011D01*
X65560Y-28891D01*
X65625Y-28735D01*
X65625Y-28670D01*
X65901Y-28670D01*
X65901Y-28769D01*
X65901Y-28770D01*
X65901Y-28869D01*
X65901Y-29020D01*
X65901Y-29029D01*
X65901Y-29119D01*
X65901Y-29279D01*
X65939Y-29371D01*
X66009Y-29441D01*
X66100Y-29479D01*
X66125Y-29479D01*
X66132Y-29511D01*
X66195Y-29605D01*
X66265Y-29675D01*
X66265Y-29675D01*
G37*
G54D25*
X66265Y-29675D02*
X61705Y-29675D01*
X61741Y-29668D01*
X61835Y-29605D01*
X62055Y-29385D01*
X62118Y-29291D01*
X62140Y-29180D01*
X62140Y-28952D01*
X62768Y-28952D01*
X62879Y-28930D01*
X62973Y-28867D01*
X63123Y-28716D01*
X63101Y-28770D01*
X63101Y-28869D01*
X63101Y-29020D01*
X63101Y-29029D01*
X63101Y-29119D01*
X63101Y-29279D01*
X63139Y-29371D01*
X63209Y-29441D01*
X63300Y-29479D01*
X63399Y-29479D01*
X63899Y-29479D01*
X63991Y-29441D01*
X64061Y-29371D01*
X64099Y-29280D01*
X64099Y-29181D01*
X64099Y-29030D01*
X64099Y-29021D01*
X64099Y-28931D01*
X64099Y-28771D01*
X64061Y-28679D01*
X63991Y-28609D01*
X63900Y-28571D01*
X63801Y-28571D01*
X63301Y-28571D01*
X63246Y-28593D01*
X63295Y-28545D01*
X63352Y-28459D01*
X63399Y-28459D01*
X63899Y-28459D01*
X63991Y-28421D01*
X64061Y-28351D01*
X64099Y-28260D01*
X64099Y-28161D01*
X64099Y-28001D01*
X64098Y-28000D01*
X64099Y-28000D01*
X64099Y-27901D01*
X64099Y-27741D01*
X64098Y-27740D01*
X64099Y-27740D01*
X64099Y-27641D01*
X64099Y-27481D01*
X64069Y-27410D01*
X64109Y-27410D01*
X64159Y-27460D01*
X64315Y-27525D01*
X64484Y-27525D01*
X64640Y-27461D01*
X64760Y-27341D01*
X64825Y-27185D01*
X64825Y-27016D01*
X64761Y-26860D01*
X64641Y-26740D01*
X64485Y-26675D01*
X64316Y-26675D01*
X64160Y-26739D01*
X64109Y-26790D01*
X64099Y-26790D01*
X64099Y-26721D01*
X64061Y-26629D01*
X64042Y-26610D01*
X64279Y-26610D01*
X64280Y-26610D01*
X64315Y-26625D01*
X64484Y-26625D01*
X64640Y-26561D01*
X64760Y-26441D01*
X64825Y-26285D01*
X64825Y-26116D01*
X64761Y-25960D01*
X64641Y-25840D01*
X64485Y-25775D01*
X64316Y-25775D01*
X64160Y-25839D01*
X64099Y-25900D01*
X64099Y-25851D01*
X64099Y-25702D01*
X64210Y-25591D01*
X64260Y-25470D01*
X64495Y-25705D01*
X64589Y-25768D01*
X64700Y-25790D01*
X65300Y-25790D01*
X65375Y-25775D01*
X65375Y-25784D01*
X65439Y-25940D01*
X65510Y-26011D01*
X65510Y-26500D01*
X65532Y-26611D01*
X65595Y-26705D01*
X65685Y-26795D01*
X65779Y-26858D01*
X65890Y-26880D01*
X65901Y-26880D01*
X65901Y-26970D01*
X65901Y-26979D01*
X65901Y-27069D01*
X65901Y-27229D01*
X65901Y-27230D01*
X65901Y-27329D01*
X65901Y-27489D01*
X65939Y-27581D01*
X65973Y-27615D01*
X65939Y-27649D01*
X65901Y-27740D01*
X65901Y-27839D01*
X65901Y-27999D01*
X65901Y-28000D01*
X65901Y-28090D01*
X65470Y-28090D01*
X65359Y-28112D01*
X65265Y-28175D01*
X65264Y-28175D01*
X65264Y-28176D01*
X65215Y-28225D01*
X65116Y-28225D01*
X64960Y-28289D01*
X64840Y-28409D01*
X64775Y-28565D01*
X64775Y-28734D01*
X64839Y-28890D01*
X64959Y-29010D01*
X65115Y-29075D01*
X65284Y-29075D01*
X65440Y-29011D01*
X65560Y-28891D01*
X65625Y-28735D01*
X65625Y-28670D01*
X65901Y-28670D01*
X65901Y-28769D01*
X65901Y-28770D01*
X65901Y-28869D01*
X65901Y-29020D01*
X65901Y-29029D01*
X65901Y-29119D01*
X65901Y-29279D01*
X65939Y-29371D01*
X66009Y-29441D01*
X66100Y-29479D01*
X66125Y-29479D01*
X66132Y-29511D01*
X66195Y-29605D01*
X66265Y-29675D01*
G54D10*
G36*
X68936Y-24325D02*
X68471Y-24790D01*
X67828Y-24790D01*
X67819Y-24781D01*
X67719Y-24714D01*
X67600Y-24690D01*
X67262Y-24690D01*
X67262Y-24648D01*
X67262Y-24325D01*
X68936Y-24325D01*
X68936Y-24325D01*
G37*
G54D25*
X68936Y-24325D02*
X68471Y-24790D01*
X67828Y-24790D01*
X67819Y-24781D01*
X67719Y-24714D01*
X67600Y-24690D01*
X67262Y-24690D01*
X67262Y-24648D01*
X67262Y-24325D01*
X68936Y-24325D01*
G54D10*
G36*
X69004Y-29675D02*
X67935Y-29675D01*
X68320Y-29290D01*
X68880Y-29290D01*
X68977Y-29387D01*
X68975Y-29395D01*
X68975Y-29604D01*
X69004Y-29675D01*
X69004Y-29675D01*
G37*
G54D25*
X69004Y-29675D02*
X67935Y-29675D01*
X68320Y-29290D01*
X68880Y-29290D01*
X68977Y-29387D01*
X68975Y-29395D01*
X68975Y-29604D01*
X69004Y-29675D01*
G54D10*
G36*
X75675Y-29675D02*
X71995Y-29675D01*
X72025Y-29605D01*
X72025Y-29396D01*
X71945Y-29203D01*
X71798Y-29055D01*
X71605Y-28975D01*
X71396Y-28975D01*
X71203Y-29055D01*
X71055Y-29202D01*
X70999Y-29335D01*
X70945Y-29203D01*
X70798Y-29055D01*
X70605Y-28975D01*
X70396Y-28975D01*
X70388Y-28978D01*
X70043Y-28633D01*
X69949Y-28570D01*
X69838Y-28548D01*
X68358Y-28548D01*
X67735Y-27925D01*
X67641Y-27862D01*
X67530Y-27840D01*
X66899Y-27840D01*
X66899Y-27741D01*
X66861Y-27649D01*
X66827Y-27615D01*
X66861Y-27581D01*
X66899Y-27490D01*
X66899Y-27391D01*
X66899Y-27231D01*
X66898Y-27230D01*
X66899Y-27230D01*
X66899Y-27131D01*
X66899Y-26980D01*
X66899Y-26971D01*
X66899Y-26881D01*
X66899Y-26721D01*
X66898Y-26720D01*
X66899Y-26720D01*
X66899Y-26621D01*
X66899Y-26476D01*
X67015Y-26525D01*
X67184Y-26525D01*
X67340Y-26461D01*
X67460Y-26341D01*
X67525Y-26185D01*
X67525Y-26016D01*
X67487Y-25925D01*
X67529Y-25908D01*
X67587Y-25850D01*
X68650Y-25850D01*
X68650Y-27849D01*
X68640Y-27859D01*
X68575Y-28015D01*
X68575Y-28184D01*
X68639Y-28340D01*
X68759Y-28460D01*
X68915Y-28525D01*
X69084Y-28525D01*
X69240Y-28461D01*
X69360Y-28341D01*
X69425Y-28185D01*
X69425Y-28016D01*
X69361Y-27860D01*
X69350Y-27849D01*
X69350Y-25850D01*
X69500Y-25850D01*
X69500Y-25849D01*
X69634Y-25823D01*
X69747Y-25747D01*
X70469Y-25025D01*
X70604Y-25025D01*
X70797Y-24945D01*
X70945Y-24798D01*
X70948Y-24790D01*
X71052Y-24790D01*
X71055Y-24797D01*
X71202Y-24945D01*
X71395Y-25025D01*
X71604Y-25025D01*
X71700Y-24985D01*
X71700Y-25284D01*
X72950Y-25784D01*
X72950Y-27800D01*
X74223Y-27800D01*
X74723Y-28550D01*
X75675Y-28550D01*
X75675Y-29675D01*
X75675Y-29675D01*
G37*
G54D25*
X75675Y-29675D02*
X71995Y-29675D01*
X72025Y-29605D01*
X72025Y-29396D01*
X71945Y-29203D01*
X71798Y-29055D01*
X71605Y-28975D01*
X71396Y-28975D01*
X71203Y-29055D01*
X71055Y-29202D01*
X70999Y-29335D01*
X70945Y-29203D01*
X70798Y-29055D01*
X70605Y-28975D01*
X70396Y-28975D01*
X70388Y-28978D01*
X70043Y-28633D01*
X69949Y-28570D01*
X69838Y-28548D01*
X68358Y-28548D01*
X67735Y-27925D01*
X67641Y-27862D01*
X67530Y-27840D01*
X66899Y-27840D01*
X66899Y-27741D01*
X66861Y-27649D01*
X66827Y-27615D01*
X66861Y-27581D01*
X66899Y-27490D01*
X66899Y-27391D01*
X66899Y-27231D01*
X66898Y-27230D01*
X66899Y-27230D01*
X66899Y-27131D01*
X66899Y-26980D01*
X66899Y-26971D01*
X66899Y-26881D01*
X66899Y-26721D01*
X66898Y-26720D01*
X66899Y-26720D01*
X66899Y-26621D01*
X66899Y-26476D01*
X67015Y-26525D01*
X67184Y-26525D01*
X67340Y-26461D01*
X67460Y-26341D01*
X67525Y-26185D01*
X67525Y-26016D01*
X67487Y-25925D01*
X67529Y-25908D01*
X67587Y-25850D01*
X68650Y-25850D01*
X68650Y-27849D01*
X68640Y-27859D01*
X68575Y-28015D01*
X68575Y-28184D01*
X68639Y-28340D01*
X68759Y-28460D01*
X68915Y-28525D01*
X69084Y-28525D01*
X69240Y-28461D01*
X69360Y-28341D01*
X69425Y-28185D01*
X69425Y-28016D01*
X69361Y-27860D01*
X69350Y-27849D01*
X69350Y-25850D01*
X69500Y-25850D01*
X69500Y-25849D01*
X69634Y-25823D01*
X69747Y-25747D01*
X70469Y-25025D01*
X70604Y-25025D01*
X70797Y-24945D01*
X70945Y-24798D01*
X70948Y-24790D01*
X71052Y-24790D01*
X71055Y-24797D01*
X71202Y-24945D01*
X71395Y-25025D01*
X71604Y-25025D01*
X71700Y-24985D01*
X71700Y-25284D01*
X72950Y-25784D01*
X72950Y-27800D01*
X74223Y-27800D01*
X74723Y-28550D01*
X75675Y-28550D01*
X75675Y-29675D01*
M02*
