G04 (created by PCBNEW-RS274X (2012-apr-16-27)-stable) date Sun 05 Jan 2014 06:44:37 PM EST*
G01*
G70*
G90*
%MOIN*%
G04 Gerber Fmt 3.4, Leading zero omitted, Abs format*
%FSLAX34Y34*%
G04 APERTURE LIST*
%ADD10C,0.006000*%
%ADD11R,0.074700X0.074700*%
%ADD12R,0.074700X0.074800*%
%ADD13R,0.074700X0.070700*%
%ADD14R,0.062900X0.082500*%
%ADD15R,0.053000X0.015700*%
%ADD16C,0.189000*%
%ADD17R,0.189000X0.189000*%
%ADD18R,0.144000X0.080000*%
%ADD19R,0.040000X0.080000*%
%ADD20R,0.060000X0.080000*%
%ADD21R,0.035000X0.055000*%
%ADD22R,0.025000X0.045000*%
%ADD23R,0.045000X0.025000*%
%ADD24R,0.050000X0.050000*%
%ADD25C,0.055000*%
%ADD26C,0.035000*%
%ADD27C,0.008000*%
%ADD28C,0.020000*%
%ADD29C,0.012000*%
%ADD30C,0.010000*%
G04 APERTURE END LIST*
G54D10*
G54D11*
X60670Y-27222D03*
G54D12*
X60670Y-26278D03*
G54D13*
X60670Y-25254D03*
G54D14*
X61674Y-27970D03*
G54D15*
X61724Y-27261D03*
X61724Y-27005D03*
X61724Y-26750D03*
X61724Y-26495D03*
X61724Y-26239D03*
G54D14*
X61674Y-25530D03*
G54D13*
X60670Y-28246D03*
G54D16*
X71750Y-26500D03*
G54D17*
X74150Y-26500D03*
G54D16*
X72650Y-28500D03*
G54D18*
X69000Y-28300D03*
G54D19*
X69000Y-25700D03*
X69900Y-25700D03*
X68100Y-25700D03*
G54D20*
X75400Y-28250D03*
X74100Y-28250D03*
G54D21*
X64625Y-27250D03*
X65375Y-27250D03*
G54D22*
X64700Y-26250D03*
X65300Y-26250D03*
G54D23*
X67000Y-27300D03*
X67000Y-26700D03*
G54D24*
X65500Y-25000D03*
G54D25*
X68500Y-29500D03*
X69500Y-29500D03*
X70500Y-29500D03*
X71500Y-29500D03*
X72500Y-29500D03*
X73500Y-29500D03*
X74500Y-29500D03*
X75500Y-29500D03*
X75500Y-24500D03*
X74500Y-24500D03*
X73500Y-24500D03*
X72500Y-24500D03*
X71500Y-24500D03*
X70500Y-24500D03*
X69500Y-24500D03*
X68500Y-24500D03*
G54D26*
X67100Y-26100D03*
X66250Y-24700D03*
X63850Y-25350D03*
X69000Y-25250D03*
X69000Y-28100D03*
X67300Y-28900D03*
X62300Y-24850D03*
X64700Y-25000D03*
X65400Y-26700D03*
X65200Y-28000D03*
X62400Y-28000D03*
X65200Y-28650D03*
X62850Y-25650D03*
X62850Y-26150D03*
X65800Y-25700D03*
X64400Y-26200D03*
X62425Y-27525D03*
X64400Y-27100D03*
G54D27*
X69900Y-25700D02*
X69900Y-26200D01*
G54D28*
X70500Y-25100D02*
X71900Y-25100D01*
X69900Y-25700D02*
X70500Y-25100D01*
G54D27*
X69900Y-26200D02*
X69700Y-26400D01*
X67400Y-26400D02*
X67100Y-26100D01*
X69700Y-26400D02*
X67400Y-26400D01*
G54D28*
X71900Y-25100D02*
X72500Y-24500D01*
X75400Y-27750D02*
X74150Y-26500D01*
X75400Y-28250D02*
X75400Y-27750D01*
G54D27*
X65950Y-24400D02*
X66250Y-24700D01*
X64450Y-24400D02*
X65950Y-24400D01*
X64150Y-25050D02*
X64150Y-24700D01*
X63850Y-25350D02*
X64150Y-25050D01*
X64150Y-24700D02*
X64450Y-24400D01*
G54D28*
X69000Y-28100D02*
X69000Y-28300D01*
X69000Y-25700D02*
X69000Y-25250D01*
X68000Y-28300D02*
X69000Y-28300D01*
X67000Y-27300D02*
X68000Y-28300D01*
G54D27*
X67300Y-28900D02*
X67400Y-29000D01*
X67400Y-29000D02*
X71000Y-29000D01*
X71000Y-29000D02*
X71500Y-29500D01*
G54D29*
X62300Y-26100D02*
X62300Y-24850D01*
X62161Y-26239D02*
X62300Y-26100D01*
X62161Y-26239D02*
X61724Y-26239D01*
G54D28*
X68100Y-26700D02*
X71550Y-26700D01*
X68100Y-24900D02*
X68500Y-24500D01*
X67900Y-25500D02*
X66700Y-25500D01*
X68500Y-29500D02*
X67000Y-29500D01*
X68100Y-25700D02*
X67900Y-25500D01*
X65375Y-26700D02*
X66700Y-26700D01*
X65375Y-26325D02*
X65300Y-26250D01*
X66700Y-26700D02*
X67000Y-26700D01*
X72900Y-28250D02*
X72650Y-28500D01*
X68100Y-25700D02*
X68100Y-24900D01*
X65375Y-27250D02*
X65375Y-26700D01*
X67000Y-26700D02*
X68100Y-26700D01*
X71550Y-26700D02*
X71750Y-26500D01*
G54D27*
X65375Y-27875D02*
X65325Y-27875D01*
G54D28*
X64700Y-25300D02*
X64700Y-25000D01*
X74100Y-28250D02*
X72900Y-28250D01*
X66700Y-25500D02*
X66700Y-26700D01*
X67000Y-29500D02*
X65375Y-27875D01*
G54D27*
X65400Y-26700D02*
X65375Y-26700D01*
G54D28*
X65375Y-27875D02*
X65375Y-27250D01*
X65375Y-26700D02*
X65375Y-26325D01*
X65300Y-25900D02*
X64700Y-25300D01*
X65300Y-26250D02*
X65300Y-25900D01*
G54D27*
X65325Y-27875D02*
X65200Y-28000D01*
X62400Y-28000D02*
X63050Y-28650D01*
X63050Y-28650D02*
X63400Y-28650D01*
X63400Y-28650D02*
X65200Y-28650D01*
X61724Y-26750D02*
X62020Y-26750D01*
X62500Y-26270D02*
X62500Y-26000D01*
X62500Y-26000D02*
X62850Y-25650D01*
X62020Y-26750D02*
X62500Y-26270D01*
X61724Y-27005D02*
X61995Y-27005D01*
X61995Y-27005D02*
X62850Y-26150D01*
X65500Y-25400D02*
X65500Y-25000D01*
X65800Y-25700D02*
X65500Y-25400D01*
X64450Y-26250D02*
X64700Y-26250D01*
X64400Y-26200D02*
X64450Y-26250D01*
G54D29*
X61724Y-27261D02*
X62311Y-27261D01*
X62425Y-27375D02*
X62425Y-27525D01*
X62311Y-27261D02*
X62425Y-27375D01*
X64400Y-27100D02*
X64550Y-27250D01*
X64550Y-27250D02*
X64625Y-27250D01*
G54D10*
G36*
X75675Y-28200D02*
X75027Y-28200D01*
X74527Y-27450D01*
X73300Y-27450D01*
X73300Y-25466D01*
X72050Y-24966D01*
X72050Y-24325D01*
X75675Y-24325D01*
X75675Y-28200D01*
X75675Y-28200D01*
G37*
G54D30*
X75675Y-28200D02*
X75027Y-28200D01*
X74527Y-27450D01*
X73300Y-27450D01*
X73300Y-25466D01*
X72050Y-24966D01*
X72050Y-24325D01*
X75675Y-24325D01*
X75675Y-28200D01*
G54D10*
G36*
X75675Y-29675D02*
X71995Y-29675D01*
X72025Y-29605D01*
X72025Y-29396D01*
X71945Y-29203D01*
X71798Y-29055D01*
X71605Y-28975D01*
X71396Y-28975D01*
X71388Y-28978D01*
X71205Y-28795D01*
X71111Y-28732D01*
X71000Y-28710D01*
X69969Y-28710D01*
X69969Y-28651D01*
X69969Y-27851D01*
X69931Y-27759D01*
X69861Y-27689D01*
X69770Y-27651D01*
X69671Y-27651D01*
X68231Y-27651D01*
X68139Y-27689D01*
X68069Y-27759D01*
X68035Y-27840D01*
X67474Y-27279D01*
X67474Y-27126D01*
X67436Y-27034D01*
X67366Y-26964D01*
X67275Y-26926D01*
X67176Y-26926D01*
X66726Y-26926D01*
X66634Y-26964D01*
X66564Y-27034D01*
X66526Y-27125D01*
X66526Y-27224D01*
X66526Y-27474D01*
X66564Y-27566D01*
X66634Y-27636D01*
X66725Y-27674D01*
X66824Y-27674D01*
X66879Y-27674D01*
X67752Y-28547D01*
X67753Y-28547D01*
X67866Y-28623D01*
X68000Y-28650D01*
X68031Y-28650D01*
X68031Y-28710D01*
X67681Y-28710D01*
X67661Y-28660D01*
X67541Y-28540D01*
X67385Y-28475D01*
X67216Y-28475D01*
X67060Y-28539D01*
X66940Y-28659D01*
X66875Y-28815D01*
X66875Y-28984D01*
X66939Y-29140D01*
X67059Y-29260D01*
X67215Y-29325D01*
X67384Y-29325D01*
X67469Y-29290D01*
X69018Y-29290D01*
X68975Y-29395D01*
X68975Y-29604D01*
X69004Y-29675D01*
X60325Y-29675D01*
X60325Y-28848D01*
X60346Y-28848D01*
X61092Y-28848D01*
X61184Y-28810D01*
X61254Y-28740D01*
X61292Y-28649D01*
X61292Y-28623D01*
X61310Y-28631D01*
X61409Y-28631D01*
X62037Y-28631D01*
X62129Y-28593D01*
X62199Y-28523D01*
X62237Y-28432D01*
X62237Y-28392D01*
X62315Y-28425D01*
X62415Y-28425D01*
X62845Y-28855D01*
X62939Y-28918D01*
X63050Y-28940D01*
X63400Y-28940D01*
X64889Y-28940D01*
X64959Y-29010D01*
X65115Y-29075D01*
X65284Y-29075D01*
X65440Y-29011D01*
X65560Y-28891D01*
X65625Y-28735D01*
X65625Y-28566D01*
X65561Y-28410D01*
X65441Y-28290D01*
X65285Y-28225D01*
X65116Y-28225D01*
X65074Y-28242D01*
X65074Y-26525D01*
X65074Y-26426D01*
X65074Y-25976D01*
X65036Y-25884D01*
X64966Y-25814D01*
X64875Y-25776D01*
X64776Y-25776D01*
X64526Y-25776D01*
X64506Y-25784D01*
X64485Y-25775D01*
X64316Y-25775D01*
X64160Y-25839D01*
X64040Y-25959D01*
X63975Y-26115D01*
X63975Y-26284D01*
X64039Y-26440D01*
X64159Y-26560D01*
X64315Y-26625D01*
X64373Y-26625D01*
X64423Y-26675D01*
X64316Y-26675D01*
X64160Y-26739D01*
X64040Y-26859D01*
X63975Y-27015D01*
X63975Y-27184D01*
X64039Y-27340D01*
X64159Y-27460D01*
X64201Y-27477D01*
X64201Y-27574D01*
X64239Y-27666D01*
X64309Y-27736D01*
X64400Y-27774D01*
X64499Y-27774D01*
X64849Y-27774D01*
X64941Y-27736D01*
X65011Y-27666D01*
X65049Y-27575D01*
X65049Y-27476D01*
X65049Y-26926D01*
X65011Y-26834D01*
X64941Y-26764D01*
X64850Y-26726D01*
X64751Y-26726D01*
X64607Y-26726D01*
X64602Y-26724D01*
X64624Y-26724D01*
X64874Y-26724D01*
X64966Y-26686D01*
X65036Y-26616D01*
X65074Y-26525D01*
X65074Y-28242D01*
X64960Y-28289D01*
X64889Y-28360D01*
X63400Y-28360D01*
X63170Y-28360D01*
X62825Y-28015D01*
X62825Y-27916D01*
X62769Y-27781D01*
X62785Y-27766D01*
X62850Y-27610D01*
X62850Y-27441D01*
X62786Y-27285D01*
X62666Y-27165D01*
X62644Y-27156D01*
X62643Y-27155D01*
X62530Y-27042D01*
X62432Y-26977D01*
X62835Y-26575D01*
X62934Y-26575D01*
X63090Y-26511D01*
X63210Y-26391D01*
X63275Y-26235D01*
X63275Y-26066D01*
X63211Y-25910D01*
X63201Y-25900D01*
X63210Y-25891D01*
X63275Y-25735D01*
X63275Y-25566D01*
X63211Y-25410D01*
X63091Y-25290D01*
X62935Y-25225D01*
X62766Y-25225D01*
X62610Y-25289D01*
X62490Y-25409D01*
X62425Y-25565D01*
X62425Y-25665D01*
X62295Y-25795D01*
X62237Y-25881D01*
X62237Y-25069D01*
X62199Y-24977D01*
X62129Y-24907D01*
X62038Y-24869D01*
X61939Y-24869D01*
X61311Y-24869D01*
X61292Y-24876D01*
X61292Y-24852D01*
X61254Y-24760D01*
X61184Y-24690D01*
X61093Y-24652D01*
X60994Y-24652D01*
X60325Y-24652D01*
X60325Y-24325D01*
X64115Y-24325D01*
X63945Y-24495D01*
X63882Y-24589D01*
X63860Y-24700D01*
X63860Y-24925D01*
X63766Y-24925D01*
X63610Y-24989D01*
X63490Y-25109D01*
X63425Y-25265D01*
X63425Y-25434D01*
X63489Y-25590D01*
X63609Y-25710D01*
X63765Y-25775D01*
X63934Y-25775D01*
X64090Y-25711D01*
X64210Y-25591D01*
X64275Y-25435D01*
X64275Y-25335D01*
X64355Y-25255D01*
X64418Y-25161D01*
X64440Y-25050D01*
X64440Y-24820D01*
X64570Y-24690D01*
X65005Y-24690D01*
X65001Y-24700D01*
X65001Y-24799D01*
X65001Y-25299D01*
X65039Y-25391D01*
X65109Y-25461D01*
X65200Y-25499D01*
X65229Y-25499D01*
X65232Y-25511D01*
X65295Y-25605D01*
X65375Y-25685D01*
X65375Y-25784D01*
X65439Y-25940D01*
X65559Y-26060D01*
X65715Y-26125D01*
X65884Y-26125D01*
X66040Y-26061D01*
X66160Y-25941D01*
X66225Y-25785D01*
X66225Y-25616D01*
X66161Y-25460D01*
X66041Y-25340D01*
X65990Y-25319D01*
X65999Y-25300D01*
X65999Y-25201D01*
X65999Y-25050D01*
X66009Y-25060D01*
X66165Y-25125D01*
X66334Y-25125D01*
X66490Y-25061D01*
X66610Y-24941D01*
X66675Y-24785D01*
X66675Y-24616D01*
X66611Y-24460D01*
X66491Y-24340D01*
X66455Y-24325D01*
X69004Y-24325D01*
X68975Y-24395D01*
X68975Y-24604D01*
X69055Y-24797D01*
X69082Y-24825D01*
X68916Y-24825D01*
X68760Y-24889D01*
X68640Y-25009D01*
X68575Y-25165D01*
X68575Y-25192D01*
X68551Y-25250D01*
X68551Y-25349D01*
X68551Y-26110D01*
X67525Y-26110D01*
X67525Y-26016D01*
X67461Y-25860D01*
X67341Y-25740D01*
X67185Y-25675D01*
X67016Y-25675D01*
X66860Y-25739D01*
X66740Y-25859D01*
X66675Y-26015D01*
X66675Y-26184D01*
X66739Y-26340D01*
X66859Y-26460D01*
X67015Y-26525D01*
X67115Y-26525D01*
X67195Y-26605D01*
X67289Y-26668D01*
X67400Y-26690D01*
X69700Y-26690D01*
X69811Y-26668D01*
X69905Y-26605D01*
X70104Y-26406D01*
X70104Y-26405D01*
X70105Y-26405D01*
X70142Y-26349D01*
X70149Y-26349D01*
X70241Y-26311D01*
X70311Y-26241D01*
X70349Y-26150D01*
X70349Y-26051D01*
X70349Y-25745D01*
X70644Y-25450D01*
X71900Y-25450D01*
X71900Y-25449D01*
X72034Y-25423D01*
X72039Y-25419D01*
X72950Y-25784D01*
X72950Y-27800D01*
X74223Y-27800D01*
X74723Y-28550D01*
X74851Y-28550D01*
X74851Y-28699D01*
X74889Y-28791D01*
X74959Y-28861D01*
X75050Y-28899D01*
X75149Y-28899D01*
X75675Y-28899D01*
X75675Y-29675D01*
X75675Y-29675D01*
G37*
G54D30*
X75675Y-29675D02*
X71995Y-29675D01*
X72025Y-29605D01*
X72025Y-29396D01*
X71945Y-29203D01*
X71798Y-29055D01*
X71605Y-28975D01*
X71396Y-28975D01*
X71388Y-28978D01*
X71205Y-28795D01*
X71111Y-28732D01*
X71000Y-28710D01*
X69969Y-28710D01*
X69969Y-28651D01*
X69969Y-27851D01*
X69931Y-27759D01*
X69861Y-27689D01*
X69770Y-27651D01*
X69671Y-27651D01*
X68231Y-27651D01*
X68139Y-27689D01*
X68069Y-27759D01*
X68035Y-27840D01*
X67474Y-27279D01*
X67474Y-27126D01*
X67436Y-27034D01*
X67366Y-26964D01*
X67275Y-26926D01*
X67176Y-26926D01*
X66726Y-26926D01*
X66634Y-26964D01*
X66564Y-27034D01*
X66526Y-27125D01*
X66526Y-27224D01*
X66526Y-27474D01*
X66564Y-27566D01*
X66634Y-27636D01*
X66725Y-27674D01*
X66824Y-27674D01*
X66879Y-27674D01*
X67752Y-28547D01*
X67753Y-28547D01*
X67866Y-28623D01*
X68000Y-28650D01*
X68031Y-28650D01*
X68031Y-28710D01*
X67681Y-28710D01*
X67661Y-28660D01*
X67541Y-28540D01*
X67385Y-28475D01*
X67216Y-28475D01*
X67060Y-28539D01*
X66940Y-28659D01*
X66875Y-28815D01*
X66875Y-28984D01*
X66939Y-29140D01*
X67059Y-29260D01*
X67215Y-29325D01*
X67384Y-29325D01*
X67469Y-29290D01*
X69018Y-29290D01*
X68975Y-29395D01*
X68975Y-29604D01*
X69004Y-29675D01*
X60325Y-29675D01*
X60325Y-28848D01*
X60346Y-28848D01*
X61092Y-28848D01*
X61184Y-28810D01*
X61254Y-28740D01*
X61292Y-28649D01*
X61292Y-28623D01*
X61310Y-28631D01*
X61409Y-28631D01*
X62037Y-28631D01*
X62129Y-28593D01*
X62199Y-28523D01*
X62237Y-28432D01*
X62237Y-28392D01*
X62315Y-28425D01*
X62415Y-28425D01*
X62845Y-28855D01*
X62939Y-28918D01*
X63050Y-28940D01*
X63400Y-28940D01*
X64889Y-28940D01*
X64959Y-29010D01*
X65115Y-29075D01*
X65284Y-29075D01*
X65440Y-29011D01*
X65560Y-28891D01*
X65625Y-28735D01*
X65625Y-28566D01*
X65561Y-28410D01*
X65441Y-28290D01*
X65285Y-28225D01*
X65116Y-28225D01*
X65074Y-28242D01*
X65074Y-26525D01*
X65074Y-26426D01*
X65074Y-25976D01*
X65036Y-25884D01*
X64966Y-25814D01*
X64875Y-25776D01*
X64776Y-25776D01*
X64526Y-25776D01*
X64506Y-25784D01*
X64485Y-25775D01*
X64316Y-25775D01*
X64160Y-25839D01*
X64040Y-25959D01*
X63975Y-26115D01*
X63975Y-26284D01*
X64039Y-26440D01*
X64159Y-26560D01*
X64315Y-26625D01*
X64373Y-26625D01*
X64423Y-26675D01*
X64316Y-26675D01*
X64160Y-26739D01*
X64040Y-26859D01*
X63975Y-27015D01*
X63975Y-27184D01*
X64039Y-27340D01*
X64159Y-27460D01*
X64201Y-27477D01*
X64201Y-27574D01*
X64239Y-27666D01*
X64309Y-27736D01*
X64400Y-27774D01*
X64499Y-27774D01*
X64849Y-27774D01*
X64941Y-27736D01*
X65011Y-27666D01*
X65049Y-27575D01*
X65049Y-27476D01*
X65049Y-26926D01*
X65011Y-26834D01*
X64941Y-26764D01*
X64850Y-26726D01*
X64751Y-26726D01*
X64607Y-26726D01*
X64602Y-26724D01*
X64624Y-26724D01*
X64874Y-26724D01*
X64966Y-26686D01*
X65036Y-26616D01*
X65074Y-26525D01*
X65074Y-28242D01*
X64960Y-28289D01*
X64889Y-28360D01*
X63400Y-28360D01*
X63170Y-28360D01*
X62825Y-28015D01*
X62825Y-27916D01*
X62769Y-27781D01*
X62785Y-27766D01*
X62850Y-27610D01*
X62850Y-27441D01*
X62786Y-27285D01*
X62666Y-27165D01*
X62644Y-27156D01*
X62643Y-27155D01*
X62530Y-27042D01*
X62432Y-26977D01*
X62835Y-26575D01*
X62934Y-26575D01*
X63090Y-26511D01*
X63210Y-26391D01*
X63275Y-26235D01*
X63275Y-26066D01*
X63211Y-25910D01*
X63201Y-25900D01*
X63210Y-25891D01*
X63275Y-25735D01*
X63275Y-25566D01*
X63211Y-25410D01*
X63091Y-25290D01*
X62935Y-25225D01*
X62766Y-25225D01*
X62610Y-25289D01*
X62490Y-25409D01*
X62425Y-25565D01*
X62425Y-25665D01*
X62295Y-25795D01*
X62237Y-25881D01*
X62237Y-25069D01*
X62199Y-24977D01*
X62129Y-24907D01*
X62038Y-24869D01*
X61939Y-24869D01*
X61311Y-24869D01*
X61292Y-24876D01*
X61292Y-24852D01*
X61254Y-24760D01*
X61184Y-24690D01*
X61093Y-24652D01*
X60994Y-24652D01*
X60325Y-24652D01*
X60325Y-24325D01*
X64115Y-24325D01*
X63945Y-24495D01*
X63882Y-24589D01*
X63860Y-24700D01*
X63860Y-24925D01*
X63766Y-24925D01*
X63610Y-24989D01*
X63490Y-25109D01*
X63425Y-25265D01*
X63425Y-25434D01*
X63489Y-25590D01*
X63609Y-25710D01*
X63765Y-25775D01*
X63934Y-25775D01*
X64090Y-25711D01*
X64210Y-25591D01*
X64275Y-25435D01*
X64275Y-25335D01*
X64355Y-25255D01*
X64418Y-25161D01*
X64440Y-25050D01*
X64440Y-24820D01*
X64570Y-24690D01*
X65005Y-24690D01*
X65001Y-24700D01*
X65001Y-24799D01*
X65001Y-25299D01*
X65039Y-25391D01*
X65109Y-25461D01*
X65200Y-25499D01*
X65229Y-25499D01*
X65232Y-25511D01*
X65295Y-25605D01*
X65375Y-25685D01*
X65375Y-25784D01*
X65439Y-25940D01*
X65559Y-26060D01*
X65715Y-26125D01*
X65884Y-26125D01*
X66040Y-26061D01*
X66160Y-25941D01*
X66225Y-25785D01*
X66225Y-25616D01*
X66161Y-25460D01*
X66041Y-25340D01*
X65990Y-25319D01*
X65999Y-25300D01*
X65999Y-25201D01*
X65999Y-25050D01*
X66009Y-25060D01*
X66165Y-25125D01*
X66334Y-25125D01*
X66490Y-25061D01*
X66610Y-24941D01*
X66675Y-24785D01*
X66675Y-24616D01*
X66611Y-24460D01*
X66491Y-24340D01*
X66455Y-24325D01*
X69004Y-24325D01*
X68975Y-24395D01*
X68975Y-24604D01*
X69055Y-24797D01*
X69082Y-24825D01*
X68916Y-24825D01*
X68760Y-24889D01*
X68640Y-25009D01*
X68575Y-25165D01*
X68575Y-25192D01*
X68551Y-25250D01*
X68551Y-25349D01*
X68551Y-26110D01*
X67525Y-26110D01*
X67525Y-26016D01*
X67461Y-25860D01*
X67341Y-25740D01*
X67185Y-25675D01*
X67016Y-25675D01*
X66860Y-25739D01*
X66740Y-25859D01*
X66675Y-26015D01*
X66675Y-26184D01*
X66739Y-26340D01*
X66859Y-26460D01*
X67015Y-26525D01*
X67115Y-26525D01*
X67195Y-26605D01*
X67289Y-26668D01*
X67400Y-26690D01*
X69700Y-26690D01*
X69811Y-26668D01*
X69905Y-26605D01*
X70104Y-26406D01*
X70104Y-26405D01*
X70105Y-26405D01*
X70142Y-26349D01*
X70149Y-26349D01*
X70241Y-26311D01*
X70311Y-26241D01*
X70349Y-26150D01*
X70349Y-26051D01*
X70349Y-25745D01*
X70644Y-25450D01*
X71900Y-25450D01*
X71900Y-25449D01*
X72034Y-25423D01*
X72039Y-25419D01*
X72950Y-25784D01*
X72950Y-27800D01*
X74223Y-27800D01*
X74723Y-28550D01*
X74851Y-28550D01*
X74851Y-28699D01*
X74889Y-28791D01*
X74959Y-28861D01*
X75050Y-28899D01*
X75149Y-28899D01*
X75675Y-28899D01*
X75675Y-29675D01*
M02*
