G04 (created by PCBNEW-RS274X (2012-apr-16-27)-stable) date Sun 05 Jan 2014 06:44:37 PM EST*
G01*
G70*
G90*
%MOIN*%
G04 Gerber Fmt 3.4, Leading zero omitted, Abs format*
%FSLAX34Y34*%
G04 APERTURE LIST*
%ADD10C,0.006000*%
%ADD11C,0.007500*%
%ADD12C,0.012000*%
%ADD13C,0.003900*%
%ADD14C,0.008000*%
%ADD15C,0.005000*%
%ADD16C,0.004500*%
G04 APERTURE END LIST*
G54D10*
G54D11*
X62278Y-29412D02*
X62278Y-29202D01*
X62292Y-29164D01*
X62321Y-29145D01*
X62378Y-29145D01*
X62407Y-29164D01*
X62278Y-29393D02*
X62307Y-29412D01*
X62378Y-29412D01*
X62407Y-29393D01*
X62421Y-29355D01*
X62421Y-29317D01*
X62407Y-29279D01*
X62378Y-29260D01*
X62307Y-29260D01*
X62278Y-29240D01*
X62007Y-29145D02*
X62007Y-29412D01*
X62136Y-29145D02*
X62136Y-29355D01*
X62121Y-29393D01*
X62093Y-29412D01*
X62050Y-29412D01*
X62021Y-29393D01*
X62007Y-29374D01*
X61865Y-29412D02*
X61865Y-29145D01*
X61865Y-29221D02*
X61850Y-29183D01*
X61836Y-29164D01*
X61807Y-29145D01*
X61779Y-29145D01*
X61636Y-29412D02*
X61664Y-29393D01*
X61679Y-29374D01*
X61693Y-29336D01*
X61693Y-29221D01*
X61679Y-29183D01*
X61664Y-29164D01*
X61636Y-29145D01*
X61593Y-29145D01*
X61564Y-29164D01*
X61550Y-29183D01*
X61536Y-29221D01*
X61536Y-29336D01*
X61550Y-29374D01*
X61564Y-29393D01*
X61593Y-29412D01*
X61636Y-29412D01*
X61408Y-29412D02*
X61408Y-29145D01*
X61408Y-29221D02*
X61393Y-29183D01*
X61379Y-29164D01*
X61350Y-29145D01*
X61322Y-29145D01*
X61093Y-29412D02*
X61093Y-29202D01*
X61107Y-29164D01*
X61136Y-29145D01*
X61193Y-29145D01*
X61222Y-29164D01*
X61093Y-29393D02*
X61122Y-29412D01*
X61193Y-29412D01*
X61222Y-29393D01*
X61236Y-29355D01*
X61236Y-29317D01*
X61222Y-29279D01*
X61193Y-29260D01*
X61122Y-29260D01*
X61093Y-29240D01*
G54D12*
X75324Y-25172D02*
X74790Y-25172D01*
X74943Y-25172D02*
X74867Y-25200D01*
X74829Y-25229D01*
X74790Y-25286D01*
X74790Y-25343D01*
X75324Y-25857D02*
X75324Y-25514D01*
X75324Y-25686D02*
X74524Y-25686D01*
X74638Y-25629D01*
X74714Y-25571D01*
X74752Y-25514D01*
G54D11*
X66749Y-29145D02*
X66592Y-29145D01*
X66749Y-29412D01*
X66592Y-29412D01*
X66478Y-29412D02*
X66478Y-29012D01*
X66478Y-29164D02*
X66449Y-29145D01*
X66392Y-29145D01*
X66363Y-29164D01*
X66349Y-29183D01*
X66335Y-29221D01*
X66335Y-29336D01*
X66349Y-29374D01*
X66363Y-29393D01*
X66392Y-29412D01*
X66449Y-29412D01*
X66478Y-29393D01*
X66078Y-29412D02*
X66078Y-29202D01*
X66092Y-29164D01*
X66121Y-29145D01*
X66178Y-29145D01*
X66207Y-29164D01*
X66078Y-29393D02*
X66107Y-29412D01*
X66178Y-29412D01*
X66207Y-29393D01*
X66221Y-29355D01*
X66221Y-29317D01*
X66207Y-29279D01*
X66178Y-29260D01*
X66107Y-29260D01*
X66078Y-29240D01*
X65936Y-29145D02*
X65936Y-29412D01*
X65936Y-29183D02*
X65921Y-29164D01*
X65893Y-29145D01*
X65850Y-29145D01*
X65821Y-29164D01*
X65807Y-29202D01*
X65807Y-29412D01*
X65665Y-29412D02*
X65665Y-29012D01*
X65636Y-29260D02*
X65550Y-29412D01*
X65550Y-29145D02*
X65665Y-29298D01*
X65436Y-29393D02*
X65407Y-29412D01*
X65350Y-29412D01*
X65322Y-29393D01*
X65307Y-29355D01*
X65307Y-29336D01*
X65322Y-29298D01*
X65350Y-29279D01*
X65393Y-29279D01*
X65422Y-29260D01*
X65436Y-29221D01*
X65436Y-29202D01*
X65422Y-29164D01*
X65393Y-29145D01*
X65350Y-29145D01*
X65322Y-29164D01*
X64993Y-29221D02*
X65007Y-29202D01*
X65036Y-29183D01*
X65064Y-29183D01*
X65093Y-29202D01*
X65107Y-29221D01*
X65121Y-29260D01*
X65121Y-29298D01*
X65107Y-29336D01*
X65093Y-29355D01*
X65064Y-29374D01*
X65036Y-29374D01*
X65007Y-29355D01*
X64993Y-29336D01*
X64993Y-29183D02*
X64993Y-29336D01*
X64979Y-29355D01*
X64964Y-29355D01*
X64936Y-29336D01*
X64921Y-29298D01*
X64921Y-29202D01*
X64950Y-29145D01*
X64993Y-29107D01*
X65050Y-29088D01*
X65107Y-29107D01*
X65150Y-29145D01*
X65179Y-29202D01*
X65193Y-29279D01*
X65179Y-29355D01*
X65150Y-29412D01*
X65107Y-29450D01*
X65050Y-29469D01*
X64993Y-29450D01*
X64950Y-29412D01*
X64793Y-29412D02*
X64793Y-29145D01*
X64793Y-29183D02*
X64778Y-29164D01*
X64750Y-29145D01*
X64707Y-29145D01*
X64678Y-29164D01*
X64664Y-29202D01*
X64664Y-29412D01*
X64664Y-29202D02*
X64650Y-29164D01*
X64621Y-29145D01*
X64578Y-29145D01*
X64550Y-29164D01*
X64535Y-29202D01*
X64535Y-29412D01*
X64393Y-29412D02*
X64393Y-29145D01*
X64393Y-29012D02*
X64407Y-29031D01*
X64393Y-29050D01*
X64378Y-29031D01*
X64393Y-29012D01*
X64393Y-29050D01*
X64292Y-29145D02*
X64178Y-29145D01*
X64250Y-29012D02*
X64250Y-29355D01*
X64235Y-29393D01*
X64207Y-29412D01*
X64178Y-29412D01*
X64079Y-29374D02*
X64064Y-29393D01*
X64079Y-29412D01*
X64093Y-29393D01*
X64079Y-29374D01*
X64079Y-29412D01*
X63821Y-29393D02*
X63850Y-29412D01*
X63907Y-29412D01*
X63936Y-29393D01*
X63950Y-29355D01*
X63950Y-29202D01*
X63936Y-29164D01*
X63907Y-29145D01*
X63850Y-29145D01*
X63821Y-29164D01*
X63807Y-29202D01*
X63807Y-29240D01*
X63950Y-29279D01*
X63550Y-29412D02*
X63550Y-29012D01*
X63550Y-29393D02*
X63579Y-29412D01*
X63636Y-29412D01*
X63664Y-29393D01*
X63679Y-29374D01*
X63693Y-29336D01*
X63693Y-29221D01*
X63679Y-29183D01*
X63664Y-29164D01*
X63636Y-29145D01*
X63579Y-29145D01*
X63550Y-29164D01*
X63279Y-29145D02*
X63279Y-29412D01*
X63408Y-29145D02*
X63408Y-29355D01*
X63393Y-29393D01*
X63365Y-29412D01*
X63322Y-29412D01*
X63293Y-29393D01*
X63279Y-29374D01*
G54D13*
X60206Y-28325D02*
X60128Y-28325D01*
X60206Y-25175D02*
X60128Y-25175D01*
X61832Y-28325D02*
X61832Y-25175D01*
G54D14*
X67600Y-26400D02*
X67600Y-25200D01*
X67600Y-25200D02*
X70400Y-25200D01*
X70400Y-25200D02*
X70400Y-26400D01*
X67600Y-27600D02*
X67600Y-27900D01*
X67600Y-27900D02*
X68200Y-28800D01*
X68200Y-28800D02*
X69800Y-28800D01*
X69800Y-28800D02*
X70400Y-27900D01*
X70400Y-27900D02*
X70400Y-27600D01*
G54D15*
X75750Y-27800D02*
X75750Y-28700D01*
X75750Y-28700D02*
X75100Y-28700D01*
X74400Y-27800D02*
X73750Y-27800D01*
X73750Y-27800D02*
X73750Y-28700D01*
X73750Y-28700D02*
X74400Y-28700D01*
X75100Y-27800D02*
X75750Y-27800D01*
X64400Y-26950D02*
X64399Y-26959D01*
X64396Y-26969D01*
X64391Y-26977D01*
X64385Y-26985D01*
X64377Y-26991D01*
X64369Y-26996D01*
X64360Y-26998D01*
X64350Y-26999D01*
X64341Y-26999D01*
X64332Y-26996D01*
X64323Y-26991D01*
X64316Y-26985D01*
X64309Y-26978D01*
X64305Y-26969D01*
X64302Y-26960D01*
X64301Y-26950D01*
X64301Y-26941D01*
X64304Y-26932D01*
X64308Y-26923D01*
X64315Y-26916D01*
X64322Y-26909D01*
X64330Y-26905D01*
X64340Y-26902D01*
X64349Y-26901D01*
X64358Y-26901D01*
X64368Y-26904D01*
X64376Y-26908D01*
X64384Y-26914D01*
X64390Y-26922D01*
X64395Y-26930D01*
X64398Y-26939D01*
X64399Y-26949D01*
X64400Y-26950D01*
X64800Y-26950D02*
X64400Y-26950D01*
X64400Y-26950D02*
X64400Y-27550D01*
X64400Y-27550D02*
X64800Y-27550D01*
X65200Y-27550D02*
X65600Y-27550D01*
X65600Y-27550D02*
X65600Y-26950D01*
X65600Y-26950D02*
X65200Y-26950D01*
X64550Y-26500D02*
X65450Y-26500D01*
X65450Y-26500D02*
X65450Y-26000D01*
X65450Y-26000D02*
X64550Y-26000D01*
X64550Y-26000D02*
X64550Y-26500D01*
X67250Y-27450D02*
X67250Y-26550D01*
X67250Y-26550D02*
X66750Y-26550D01*
X66750Y-26550D02*
X66750Y-27450D01*
X66750Y-27450D02*
X67250Y-27450D01*
X74150Y-29093D02*
X74164Y-29107D01*
X74207Y-29121D01*
X74236Y-29121D01*
X74279Y-29107D01*
X74307Y-29079D01*
X74322Y-29050D01*
X74336Y-28993D01*
X74336Y-28950D01*
X74322Y-28893D01*
X74307Y-28864D01*
X74279Y-28836D01*
X74236Y-28821D01*
X74207Y-28821D01*
X74164Y-28836D01*
X74150Y-28850D01*
X73864Y-29121D02*
X74036Y-29121D01*
X73950Y-29121D02*
X73950Y-28821D01*
X73979Y-28864D01*
X74007Y-28893D01*
X74036Y-28907D01*
X65042Y-27977D02*
X65054Y-27989D01*
X65089Y-28001D01*
X65113Y-28001D01*
X65149Y-27989D01*
X65173Y-27965D01*
X65184Y-27942D01*
X65196Y-27894D01*
X65196Y-27858D01*
X65184Y-27811D01*
X65173Y-27787D01*
X65149Y-27763D01*
X65113Y-27751D01*
X65089Y-27751D01*
X65054Y-27763D01*
X65042Y-27775D01*
X64958Y-27751D02*
X64804Y-27751D01*
X64887Y-27846D01*
X64851Y-27846D01*
X64827Y-27858D01*
X64815Y-27870D01*
X64804Y-27894D01*
X64804Y-27954D01*
X64815Y-27977D01*
X64827Y-27989D01*
X64851Y-28001D01*
X64923Y-28001D01*
X64946Y-27989D01*
X64958Y-27977D01*
G54D16*
X65029Y-25862D02*
X65038Y-25871D01*
X65064Y-25881D01*
X65081Y-25881D01*
X65106Y-25871D01*
X65124Y-25852D01*
X65132Y-25833D01*
X65141Y-25795D01*
X65141Y-25767D01*
X65132Y-25729D01*
X65124Y-25710D01*
X65106Y-25690D01*
X65081Y-25681D01*
X65064Y-25681D01*
X65038Y-25690D01*
X65029Y-25700D01*
X64866Y-25681D02*
X64952Y-25681D01*
X64961Y-25776D01*
X64952Y-25767D01*
X64935Y-25757D01*
X64892Y-25757D01*
X64875Y-25767D01*
X64866Y-25776D01*
X64858Y-25795D01*
X64858Y-25843D01*
X64866Y-25862D01*
X64875Y-25871D01*
X64892Y-25881D01*
X64935Y-25881D01*
X64952Y-25871D01*
X64961Y-25862D01*
X67562Y-26971D02*
X67571Y-26962D01*
X67581Y-26936D01*
X67581Y-26919D01*
X67571Y-26894D01*
X67552Y-26876D01*
X67533Y-26868D01*
X67495Y-26859D01*
X67467Y-26859D01*
X67429Y-26868D01*
X67410Y-26876D01*
X67390Y-26894D01*
X67381Y-26919D01*
X67381Y-26936D01*
X67390Y-26962D01*
X67400Y-26971D01*
X67381Y-27125D02*
X67381Y-27091D01*
X67390Y-27074D01*
X67400Y-27065D01*
X67429Y-27048D01*
X67467Y-27039D01*
X67543Y-27039D01*
X67562Y-27048D01*
X67571Y-27056D01*
X67581Y-27074D01*
X67581Y-27108D01*
X67571Y-27125D01*
X67562Y-27134D01*
X67543Y-27142D01*
X67495Y-27142D01*
X67476Y-27134D01*
X67467Y-27125D01*
X67457Y-27108D01*
X67457Y-27074D01*
X67467Y-27056D01*
X67476Y-27048D01*
X67495Y-27039D01*
M02*
