G04 (created by PCBNEW (2013-jul-07)-stable) date Thu 09 Jan 2014 04:18:05 AM EST*
%MOIN*%
G04 Gerber Fmt 3.4, Leading zero omitted, Abs format*
%FSLAX34Y34*%
G01*
G70*
G90*
G04 APERTURE LIST*
%ADD10C,0.00590551*%
%ADD11R,0.0708661X0.0708661*%
%ADD12C,0.0708661*%
%ADD13R,0.0551181X0.0826772*%
%ADD14C,0.055*%
%ADD15R,0.0433071X0.0866142*%
%ADD16R,0.0314X0.0314*%
%ADD17C,0.03*%
%ADD18C,0.006*%
%ADD19C,0.012*%
%ADD20C,0.00787402*%
G04 APERTURE END LIST*
G54D10*
G54D11*
X92500Y-57000D03*
G54D12*
X92500Y-58000D03*
X92500Y-59000D03*
X92500Y-60000D03*
G54D13*
X86800Y-60100D03*
X86800Y-56900D03*
X85000Y-60100D03*
X85000Y-56900D03*
G54D14*
X85500Y-61000D03*
X86500Y-61000D03*
X87500Y-61000D03*
X88500Y-61000D03*
X89500Y-61000D03*
X90500Y-61000D03*
X91500Y-61000D03*
X92500Y-61000D03*
X92500Y-56000D03*
X91500Y-56000D03*
X90500Y-56000D03*
X89500Y-56000D03*
X88500Y-56000D03*
X87500Y-56000D03*
X86500Y-56000D03*
X85500Y-56000D03*
G54D15*
X88742Y-57240D03*
X88742Y-59759D03*
X87757Y-59759D03*
X87757Y-57240D03*
G54D16*
X84250Y-56645D03*
X84250Y-56055D03*
X84250Y-60355D03*
X84250Y-60945D03*
G54D17*
X87350Y-56700D03*
X90500Y-57300D03*
X90750Y-58300D03*
X90700Y-59850D03*
X85600Y-57000D03*
X86750Y-59450D03*
X89200Y-57550D03*
X91100Y-58200D03*
X91100Y-59850D03*
X89950Y-58900D03*
X86700Y-58500D03*
X91450Y-60200D03*
X89300Y-57200D03*
X88250Y-57250D03*
X88000Y-60650D03*
X85550Y-58000D03*
X89450Y-59750D03*
X85800Y-59550D03*
X89300Y-60100D03*
X85350Y-57400D03*
X85600Y-60050D03*
X84750Y-60750D03*
X84800Y-56250D03*
G54D18*
X89350Y-56950D02*
X90150Y-56950D01*
X87350Y-56700D02*
X89100Y-56700D01*
X89100Y-56700D02*
X89350Y-56950D01*
X90150Y-56950D02*
X90500Y-57300D01*
G54D19*
X90750Y-59800D02*
X90750Y-58300D01*
X90750Y-59800D02*
X90700Y-59850D01*
X88500Y-56000D02*
X88850Y-56000D01*
X91100Y-57050D02*
X91100Y-58200D01*
X91100Y-57050D02*
X90450Y-56400D01*
X90450Y-56400D02*
X89250Y-56400D01*
X88850Y-56000D02*
X89250Y-56400D01*
X91100Y-58200D02*
X91100Y-59850D01*
X88500Y-56000D02*
X87500Y-56000D01*
X86700Y-58500D02*
X89550Y-58500D01*
X89550Y-58500D02*
X89950Y-58900D01*
X92500Y-59000D02*
X91450Y-60050D01*
X91450Y-60050D02*
X91450Y-60200D01*
X88742Y-57240D02*
X89259Y-57240D01*
X89259Y-57240D02*
X89300Y-57200D01*
X88250Y-57250D02*
X88250Y-57650D01*
X87757Y-59957D02*
X87757Y-59759D01*
X88350Y-60550D02*
X87757Y-59957D01*
X89700Y-60550D02*
X88350Y-60550D01*
X90400Y-59850D02*
X89700Y-60550D01*
X90400Y-58550D02*
X90400Y-59850D01*
X89900Y-58050D02*
X90400Y-58550D01*
X88650Y-58050D02*
X89900Y-58050D01*
X88250Y-57650D02*
X88650Y-58050D01*
X86850Y-61000D02*
X86500Y-61000D01*
X87300Y-60550D02*
X86850Y-61000D01*
X87900Y-60550D02*
X87300Y-60550D01*
X88000Y-60650D02*
X87900Y-60550D01*
G54D18*
X89450Y-59400D02*
X89450Y-59750D01*
X89450Y-59400D02*
X88850Y-58800D01*
X88850Y-58800D02*
X86350Y-58800D01*
X86350Y-58800D02*
X85550Y-58000D01*
X89300Y-60100D02*
X89150Y-59950D01*
X86350Y-59050D02*
X85800Y-59550D01*
X88900Y-59050D02*
X86350Y-59050D01*
X89150Y-59300D02*
X88900Y-59050D01*
X89150Y-59950D02*
X89150Y-59300D01*
G54D19*
X85000Y-57050D02*
X85000Y-56900D01*
X85350Y-57400D02*
X85000Y-57050D01*
X84250Y-60945D02*
X84355Y-61050D01*
X85450Y-61050D02*
X85500Y-61000D01*
X84355Y-61050D02*
X85450Y-61050D01*
X85400Y-55900D02*
X85500Y-56000D01*
X84405Y-55950D02*
X85400Y-55950D01*
X85600Y-60050D02*
X85650Y-60100D01*
X85650Y-60100D02*
X86800Y-60100D01*
X84250Y-60355D02*
X84355Y-60355D01*
X84355Y-60355D02*
X84750Y-60750D01*
X84750Y-60750D02*
X84750Y-60737D01*
X84250Y-56645D02*
X84645Y-56250D01*
X84645Y-56250D02*
X84800Y-56250D01*
X84800Y-56250D02*
X84763Y-56250D01*
G54D10*
G36*
X90921Y-57998D02*
X90872Y-58047D01*
X90868Y-58058D01*
X90803Y-58031D01*
X90696Y-58031D01*
X90598Y-58072D01*
X90522Y-58147D01*
X90481Y-58246D01*
X90481Y-58353D01*
X90500Y-58398D01*
X90025Y-57924D01*
X89968Y-57885D01*
X89900Y-57871D01*
X88723Y-57871D01*
X88643Y-57791D01*
X88982Y-57791D01*
X89025Y-57773D01*
X89058Y-57740D01*
X89076Y-57696D01*
X89076Y-57649D01*
X89076Y-57418D01*
X89139Y-57418D01*
X89147Y-57427D01*
X89246Y-57468D01*
X89353Y-57468D01*
X89451Y-57427D01*
X89527Y-57352D01*
X89568Y-57253D01*
X89568Y-57146D01*
X89547Y-57098D01*
X90088Y-57098D01*
X90233Y-57242D01*
X90231Y-57246D01*
X90231Y-57353D01*
X90272Y-57451D01*
X90347Y-57527D01*
X90446Y-57568D01*
X90553Y-57568D01*
X90651Y-57527D01*
X90727Y-57452D01*
X90768Y-57353D01*
X90768Y-57246D01*
X90727Y-57148D01*
X90652Y-57072D01*
X90553Y-57031D01*
X90446Y-57031D01*
X90442Y-57033D01*
X90254Y-56845D01*
X90206Y-56813D01*
X90197Y-56811D01*
X90150Y-56801D01*
X90149Y-56801D01*
X89411Y-56801D01*
X89204Y-56595D01*
X89156Y-56563D01*
X89147Y-56561D01*
X89100Y-56551D01*
X89099Y-56551D01*
X87578Y-56551D01*
X87577Y-56548D01*
X87502Y-56472D01*
X87403Y-56431D01*
X87296Y-56431D01*
X87198Y-56472D01*
X87193Y-56477D01*
X87193Y-56463D01*
X87175Y-56419D01*
X87142Y-56386D01*
X87099Y-56368D01*
X87052Y-56368D01*
X86937Y-56368D01*
X86937Y-56082D01*
X86935Y-55909D01*
X86872Y-55756D01*
X86801Y-55729D01*
X86530Y-56000D01*
X86801Y-56270D01*
X86872Y-56243D01*
X86937Y-56082D01*
X86937Y-56368D01*
X86745Y-56368D01*
X86770Y-56301D01*
X86500Y-56030D01*
X86469Y-56061D01*
X86469Y-56000D01*
X86198Y-55729D01*
X86127Y-55756D01*
X86062Y-55917D01*
X86064Y-56090D01*
X86127Y-56243D01*
X86198Y-56270D01*
X86469Y-56000D01*
X86469Y-56061D01*
X86229Y-56301D01*
X86256Y-56372D01*
X86417Y-56437D01*
X86406Y-56463D01*
X86406Y-56510D01*
X86406Y-57336D01*
X86424Y-57380D01*
X86457Y-57413D01*
X86500Y-57431D01*
X86547Y-57431D01*
X87098Y-57431D01*
X87142Y-57413D01*
X87175Y-57380D01*
X87193Y-57336D01*
X87193Y-57289D01*
X87193Y-56922D01*
X87197Y-56927D01*
X87296Y-56968D01*
X87403Y-56968D01*
X87423Y-56959D01*
X87423Y-57696D01*
X87441Y-57740D01*
X87474Y-57773D01*
X87517Y-57791D01*
X87564Y-57791D01*
X87997Y-57791D01*
X88041Y-57773D01*
X88074Y-57740D01*
X88084Y-57715D01*
X88085Y-57718D01*
X88124Y-57775D01*
X88524Y-58175D01*
X88524Y-58175D01*
X88581Y-58214D01*
X88581Y-58214D01*
X88649Y-58228D01*
X88650Y-58228D01*
X89826Y-58228D01*
X90221Y-58623D01*
X90221Y-59776D01*
X90218Y-59779D01*
X90218Y-58846D01*
X90177Y-58748D01*
X90102Y-58672D01*
X90003Y-58631D01*
X89933Y-58631D01*
X89675Y-58374D01*
X89618Y-58335D01*
X89550Y-58321D01*
X86901Y-58321D01*
X86852Y-58272D01*
X86753Y-58231D01*
X86646Y-58231D01*
X86548Y-58272D01*
X86472Y-58347D01*
X86431Y-58446D01*
X86431Y-58553D01*
X86472Y-58651D01*
X86472Y-58651D01*
X86411Y-58651D01*
X85816Y-58057D01*
X85818Y-58053D01*
X85818Y-57946D01*
X85777Y-57848D01*
X85702Y-57772D01*
X85603Y-57731D01*
X85496Y-57731D01*
X85398Y-57772D01*
X85322Y-57847D01*
X85281Y-57946D01*
X85281Y-58053D01*
X85322Y-58151D01*
X85397Y-58227D01*
X85496Y-58268D01*
X85603Y-58268D01*
X85607Y-58266D01*
X86245Y-58904D01*
X86245Y-58904D01*
X86275Y-58924D01*
X86250Y-58940D01*
X85867Y-59287D01*
X85853Y-59281D01*
X85746Y-59281D01*
X85648Y-59322D01*
X85572Y-59397D01*
X85531Y-59496D01*
X85531Y-59603D01*
X85572Y-59701D01*
X85647Y-59777D01*
X85746Y-59818D01*
X85853Y-59818D01*
X85951Y-59777D01*
X86027Y-59702D01*
X86068Y-59603D01*
X86068Y-59506D01*
X86406Y-59198D01*
X88838Y-59198D01*
X88849Y-59208D01*
X88502Y-59208D01*
X88458Y-59226D01*
X88425Y-59259D01*
X88407Y-59303D01*
X88407Y-59350D01*
X88407Y-60216D01*
X88425Y-60259D01*
X88458Y-60292D01*
X88501Y-60311D01*
X88548Y-60311D01*
X88982Y-60311D01*
X89025Y-60293D01*
X89058Y-60259D01*
X89067Y-60239D01*
X89072Y-60251D01*
X89147Y-60327D01*
X89246Y-60368D01*
X89353Y-60368D01*
X89451Y-60327D01*
X89527Y-60252D01*
X89568Y-60153D01*
X89568Y-60046D01*
X89548Y-59999D01*
X89601Y-59977D01*
X89677Y-59902D01*
X89718Y-59803D01*
X89718Y-59696D01*
X89677Y-59598D01*
X89602Y-59522D01*
X89598Y-59521D01*
X89598Y-59400D01*
X89586Y-59343D01*
X89586Y-59343D01*
X89554Y-59295D01*
X89554Y-59295D01*
X88954Y-58695D01*
X88929Y-58678D01*
X89476Y-58678D01*
X89681Y-58883D01*
X89681Y-58953D01*
X89722Y-59051D01*
X89797Y-59127D01*
X89896Y-59168D01*
X90003Y-59168D01*
X90101Y-59127D01*
X90177Y-59052D01*
X90218Y-58953D01*
X90218Y-58846D01*
X90218Y-59779D01*
X89626Y-60371D01*
X88423Y-60371D01*
X88092Y-60040D01*
X88092Y-59303D01*
X88074Y-59259D01*
X88041Y-59226D01*
X87998Y-59208D01*
X87951Y-59208D01*
X87517Y-59208D01*
X87474Y-59226D01*
X87441Y-59259D01*
X87423Y-59303D01*
X87423Y-59350D01*
X87423Y-60216D01*
X87441Y-60259D01*
X87474Y-60292D01*
X87517Y-60311D01*
X87564Y-60311D01*
X87859Y-60311D01*
X87924Y-60376D01*
X87900Y-60371D01*
X87300Y-60371D01*
X87231Y-60385D01*
X87193Y-60410D01*
X87193Y-59663D01*
X87175Y-59619D01*
X87142Y-59586D01*
X87099Y-59568D01*
X87052Y-59568D01*
X86501Y-59568D01*
X86457Y-59586D01*
X86424Y-59619D01*
X86406Y-59663D01*
X86406Y-59710D01*
X86406Y-59921D01*
X85837Y-59921D01*
X85827Y-59898D01*
X85752Y-59822D01*
X85653Y-59781D01*
X85546Y-59781D01*
X85448Y-59822D01*
X85393Y-59877D01*
X85393Y-59663D01*
X85375Y-59619D01*
X85342Y-59586D01*
X85299Y-59568D01*
X85252Y-59568D01*
X84701Y-59568D01*
X84686Y-59574D01*
X84687Y-59414D01*
X84621Y-59255D01*
X84499Y-59133D01*
X84340Y-59067D01*
X84168Y-59066D01*
X84008Y-59132D01*
X83897Y-59243D01*
X83897Y-57756D01*
X84008Y-57866D01*
X84167Y-57932D01*
X84339Y-57933D01*
X84498Y-57867D01*
X84620Y-57745D01*
X84686Y-57586D01*
X84687Y-57425D01*
X84700Y-57431D01*
X84747Y-57431D01*
X85081Y-57431D01*
X85081Y-57453D01*
X85122Y-57551D01*
X85197Y-57627D01*
X85296Y-57668D01*
X85403Y-57668D01*
X85501Y-57627D01*
X85577Y-57552D01*
X85618Y-57453D01*
X85618Y-57346D01*
X85577Y-57248D01*
X85502Y-57172D01*
X85403Y-57131D01*
X85393Y-57131D01*
X85393Y-56463D01*
X85375Y-56419D01*
X85342Y-56386D01*
X85299Y-56368D01*
X85252Y-56368D01*
X85041Y-56368D01*
X85068Y-56303D01*
X85068Y-56196D01*
X85039Y-56128D01*
X85127Y-56128D01*
X85166Y-56222D01*
X85277Y-56333D01*
X85421Y-56393D01*
X85577Y-56393D01*
X85722Y-56333D01*
X85833Y-56222D01*
X85893Y-56078D01*
X85893Y-55922D01*
X85833Y-55777D01*
X85722Y-55666D01*
X85676Y-55647D01*
X86248Y-55647D01*
X86229Y-55698D01*
X86500Y-55969D01*
X86770Y-55698D01*
X86751Y-55647D01*
X87323Y-55647D01*
X87277Y-55666D01*
X87166Y-55777D01*
X87106Y-55921D01*
X87106Y-56077D01*
X87166Y-56222D01*
X87277Y-56333D01*
X87421Y-56393D01*
X87577Y-56393D01*
X87722Y-56333D01*
X87833Y-56222D01*
X87851Y-56178D01*
X88148Y-56178D01*
X88166Y-56222D01*
X88277Y-56333D01*
X88421Y-56393D01*
X88577Y-56393D01*
X88722Y-56333D01*
X88827Y-56228D01*
X89124Y-56525D01*
X89124Y-56525D01*
X89181Y-56564D01*
X89181Y-56564D01*
X89249Y-56578D01*
X89250Y-56578D01*
X90376Y-56578D01*
X90921Y-57123D01*
X90921Y-57998D01*
X90921Y-57998D01*
G37*
G54D20*
X90921Y-57998D02*
X90872Y-58047D01*
X90868Y-58058D01*
X90803Y-58031D01*
X90696Y-58031D01*
X90598Y-58072D01*
X90522Y-58147D01*
X90481Y-58246D01*
X90481Y-58353D01*
X90500Y-58398D01*
X90025Y-57924D01*
X89968Y-57885D01*
X89900Y-57871D01*
X88723Y-57871D01*
X88643Y-57791D01*
X88982Y-57791D01*
X89025Y-57773D01*
X89058Y-57740D01*
X89076Y-57696D01*
X89076Y-57649D01*
X89076Y-57418D01*
X89139Y-57418D01*
X89147Y-57427D01*
X89246Y-57468D01*
X89353Y-57468D01*
X89451Y-57427D01*
X89527Y-57352D01*
X89568Y-57253D01*
X89568Y-57146D01*
X89547Y-57098D01*
X90088Y-57098D01*
X90233Y-57242D01*
X90231Y-57246D01*
X90231Y-57353D01*
X90272Y-57451D01*
X90347Y-57527D01*
X90446Y-57568D01*
X90553Y-57568D01*
X90651Y-57527D01*
X90727Y-57452D01*
X90768Y-57353D01*
X90768Y-57246D01*
X90727Y-57148D01*
X90652Y-57072D01*
X90553Y-57031D01*
X90446Y-57031D01*
X90442Y-57033D01*
X90254Y-56845D01*
X90206Y-56813D01*
X90197Y-56811D01*
X90150Y-56801D01*
X90149Y-56801D01*
X89411Y-56801D01*
X89204Y-56595D01*
X89156Y-56563D01*
X89147Y-56561D01*
X89100Y-56551D01*
X89099Y-56551D01*
X87578Y-56551D01*
X87577Y-56548D01*
X87502Y-56472D01*
X87403Y-56431D01*
X87296Y-56431D01*
X87198Y-56472D01*
X87193Y-56477D01*
X87193Y-56463D01*
X87175Y-56419D01*
X87142Y-56386D01*
X87099Y-56368D01*
X87052Y-56368D01*
X86937Y-56368D01*
X86937Y-56082D01*
X86935Y-55909D01*
X86872Y-55756D01*
X86801Y-55729D01*
X86530Y-56000D01*
X86801Y-56270D01*
X86872Y-56243D01*
X86937Y-56082D01*
X86937Y-56368D01*
X86745Y-56368D01*
X86770Y-56301D01*
X86500Y-56030D01*
X86469Y-56061D01*
X86469Y-56000D01*
X86198Y-55729D01*
X86127Y-55756D01*
X86062Y-55917D01*
X86064Y-56090D01*
X86127Y-56243D01*
X86198Y-56270D01*
X86469Y-56000D01*
X86469Y-56061D01*
X86229Y-56301D01*
X86256Y-56372D01*
X86417Y-56437D01*
X86406Y-56463D01*
X86406Y-56510D01*
X86406Y-57336D01*
X86424Y-57380D01*
X86457Y-57413D01*
X86500Y-57431D01*
X86547Y-57431D01*
X87098Y-57431D01*
X87142Y-57413D01*
X87175Y-57380D01*
X87193Y-57336D01*
X87193Y-57289D01*
X87193Y-56922D01*
X87197Y-56927D01*
X87296Y-56968D01*
X87403Y-56968D01*
X87423Y-56959D01*
X87423Y-57696D01*
X87441Y-57740D01*
X87474Y-57773D01*
X87517Y-57791D01*
X87564Y-57791D01*
X87997Y-57791D01*
X88041Y-57773D01*
X88074Y-57740D01*
X88084Y-57715D01*
X88085Y-57718D01*
X88124Y-57775D01*
X88524Y-58175D01*
X88524Y-58175D01*
X88581Y-58214D01*
X88581Y-58214D01*
X88649Y-58228D01*
X88650Y-58228D01*
X89826Y-58228D01*
X90221Y-58623D01*
X90221Y-59776D01*
X90218Y-59779D01*
X90218Y-58846D01*
X90177Y-58748D01*
X90102Y-58672D01*
X90003Y-58631D01*
X89933Y-58631D01*
X89675Y-58374D01*
X89618Y-58335D01*
X89550Y-58321D01*
X86901Y-58321D01*
X86852Y-58272D01*
X86753Y-58231D01*
X86646Y-58231D01*
X86548Y-58272D01*
X86472Y-58347D01*
X86431Y-58446D01*
X86431Y-58553D01*
X86472Y-58651D01*
X86472Y-58651D01*
X86411Y-58651D01*
X85816Y-58057D01*
X85818Y-58053D01*
X85818Y-57946D01*
X85777Y-57848D01*
X85702Y-57772D01*
X85603Y-57731D01*
X85496Y-57731D01*
X85398Y-57772D01*
X85322Y-57847D01*
X85281Y-57946D01*
X85281Y-58053D01*
X85322Y-58151D01*
X85397Y-58227D01*
X85496Y-58268D01*
X85603Y-58268D01*
X85607Y-58266D01*
X86245Y-58904D01*
X86245Y-58904D01*
X86275Y-58924D01*
X86250Y-58940D01*
X85867Y-59287D01*
X85853Y-59281D01*
X85746Y-59281D01*
X85648Y-59322D01*
X85572Y-59397D01*
X85531Y-59496D01*
X85531Y-59603D01*
X85572Y-59701D01*
X85647Y-59777D01*
X85746Y-59818D01*
X85853Y-59818D01*
X85951Y-59777D01*
X86027Y-59702D01*
X86068Y-59603D01*
X86068Y-59506D01*
X86406Y-59198D01*
X88838Y-59198D01*
X88849Y-59208D01*
X88502Y-59208D01*
X88458Y-59226D01*
X88425Y-59259D01*
X88407Y-59303D01*
X88407Y-59350D01*
X88407Y-60216D01*
X88425Y-60259D01*
X88458Y-60292D01*
X88501Y-60311D01*
X88548Y-60311D01*
X88982Y-60311D01*
X89025Y-60293D01*
X89058Y-60259D01*
X89067Y-60239D01*
X89072Y-60251D01*
X89147Y-60327D01*
X89246Y-60368D01*
X89353Y-60368D01*
X89451Y-60327D01*
X89527Y-60252D01*
X89568Y-60153D01*
X89568Y-60046D01*
X89548Y-59999D01*
X89601Y-59977D01*
X89677Y-59902D01*
X89718Y-59803D01*
X89718Y-59696D01*
X89677Y-59598D01*
X89602Y-59522D01*
X89598Y-59521D01*
X89598Y-59400D01*
X89586Y-59343D01*
X89586Y-59343D01*
X89554Y-59295D01*
X89554Y-59295D01*
X88954Y-58695D01*
X88929Y-58678D01*
X89476Y-58678D01*
X89681Y-58883D01*
X89681Y-58953D01*
X89722Y-59051D01*
X89797Y-59127D01*
X89896Y-59168D01*
X90003Y-59168D01*
X90101Y-59127D01*
X90177Y-59052D01*
X90218Y-58953D01*
X90218Y-58846D01*
X90218Y-59779D01*
X89626Y-60371D01*
X88423Y-60371D01*
X88092Y-60040D01*
X88092Y-59303D01*
X88074Y-59259D01*
X88041Y-59226D01*
X87998Y-59208D01*
X87951Y-59208D01*
X87517Y-59208D01*
X87474Y-59226D01*
X87441Y-59259D01*
X87423Y-59303D01*
X87423Y-59350D01*
X87423Y-60216D01*
X87441Y-60259D01*
X87474Y-60292D01*
X87517Y-60311D01*
X87564Y-60311D01*
X87859Y-60311D01*
X87924Y-60376D01*
X87900Y-60371D01*
X87300Y-60371D01*
X87231Y-60385D01*
X87193Y-60410D01*
X87193Y-59663D01*
X87175Y-59619D01*
X87142Y-59586D01*
X87099Y-59568D01*
X87052Y-59568D01*
X86501Y-59568D01*
X86457Y-59586D01*
X86424Y-59619D01*
X86406Y-59663D01*
X86406Y-59710D01*
X86406Y-59921D01*
X85837Y-59921D01*
X85827Y-59898D01*
X85752Y-59822D01*
X85653Y-59781D01*
X85546Y-59781D01*
X85448Y-59822D01*
X85393Y-59877D01*
X85393Y-59663D01*
X85375Y-59619D01*
X85342Y-59586D01*
X85299Y-59568D01*
X85252Y-59568D01*
X84701Y-59568D01*
X84686Y-59574D01*
X84687Y-59414D01*
X84621Y-59255D01*
X84499Y-59133D01*
X84340Y-59067D01*
X84168Y-59066D01*
X84008Y-59132D01*
X83897Y-59243D01*
X83897Y-57756D01*
X84008Y-57866D01*
X84167Y-57932D01*
X84339Y-57933D01*
X84498Y-57867D01*
X84620Y-57745D01*
X84686Y-57586D01*
X84687Y-57425D01*
X84700Y-57431D01*
X84747Y-57431D01*
X85081Y-57431D01*
X85081Y-57453D01*
X85122Y-57551D01*
X85197Y-57627D01*
X85296Y-57668D01*
X85403Y-57668D01*
X85501Y-57627D01*
X85577Y-57552D01*
X85618Y-57453D01*
X85618Y-57346D01*
X85577Y-57248D01*
X85502Y-57172D01*
X85403Y-57131D01*
X85393Y-57131D01*
X85393Y-56463D01*
X85375Y-56419D01*
X85342Y-56386D01*
X85299Y-56368D01*
X85252Y-56368D01*
X85041Y-56368D01*
X85068Y-56303D01*
X85068Y-56196D01*
X85039Y-56128D01*
X85127Y-56128D01*
X85166Y-56222D01*
X85277Y-56333D01*
X85421Y-56393D01*
X85577Y-56393D01*
X85722Y-56333D01*
X85833Y-56222D01*
X85893Y-56078D01*
X85893Y-55922D01*
X85833Y-55777D01*
X85722Y-55666D01*
X85676Y-55647D01*
X86248Y-55647D01*
X86229Y-55698D01*
X86500Y-55969D01*
X86770Y-55698D01*
X86751Y-55647D01*
X87323Y-55647D01*
X87277Y-55666D01*
X87166Y-55777D01*
X87106Y-55921D01*
X87106Y-56077D01*
X87166Y-56222D01*
X87277Y-56333D01*
X87421Y-56393D01*
X87577Y-56393D01*
X87722Y-56333D01*
X87833Y-56222D01*
X87851Y-56178D01*
X88148Y-56178D01*
X88166Y-56222D01*
X88277Y-56333D01*
X88421Y-56393D01*
X88577Y-56393D01*
X88722Y-56333D01*
X88827Y-56228D01*
X89124Y-56525D01*
X89124Y-56525D01*
X89181Y-56564D01*
X89181Y-56564D01*
X89249Y-56578D01*
X89250Y-56578D01*
X90376Y-56578D01*
X90921Y-57123D01*
X90921Y-57998D01*
M02*
