G04 (created by PCBNEW (2013-jul-07)-stable) date Thu 09 Jan 2014 04:18:05 AM EST*
%MOIN*%
G04 Gerber Fmt 3.4, Leading zero omitted, Abs format*
%FSLAX34Y34*%
G01*
G70*
G90*
G04 APERTURE LIST*
%ADD10C,0.00590551*%
%ADD11R,0.025548X0.039348*%
%ADD12R,0.039348X0.025548*%
%ADD13R,0.141732X0.141732*%
%ADD14R,0.0866142X0.0866142*%
%ADD15C,0.0866142*%
%ADD16R,0.035748X0.045748*%
%ADD17R,0.075748X0.095748*%
%ADD18R,0.031448X0.039348*%
%ADD19R,0.039348X0.031448*%
%ADD20C,0.070748*%
%ADD21R,0.0944882X0.065748*%
%ADD22C,0.0787402*%
G04 APERTURE END LIST*
G54D10*
G54D11*
X88688Y-57556D03*
X88491Y-57556D03*
X88294Y-57556D03*
X88097Y-57556D03*
X87901Y-57556D03*
X87704Y-57556D03*
X87507Y-57556D03*
X87310Y-57556D03*
G54D12*
X87054Y-58598D03*
X87054Y-58794D03*
X87054Y-58991D03*
X87054Y-59188D03*
G54D13*
X88000Y-58500D03*
G54D12*
X87054Y-57811D03*
X87054Y-58008D03*
X87054Y-58205D03*
X87054Y-58401D03*
G54D11*
X87312Y-59444D03*
X87509Y-59445D03*
X87705Y-59445D03*
X87902Y-59445D03*
X88099Y-59445D03*
X88296Y-59445D03*
X88493Y-59445D03*
X88690Y-59445D03*
G54D12*
X88945Y-59189D03*
X88945Y-58992D03*
X88945Y-58795D03*
X88945Y-58599D03*
X88945Y-58402D03*
X88945Y-58205D03*
X88945Y-58008D03*
X88945Y-57811D03*
G54D14*
X92500Y-57000D03*
G54D15*
X92500Y-58000D03*
X92500Y-59000D03*
X92500Y-60000D03*
G54D16*
X90375Y-58750D03*
X91125Y-58750D03*
X90375Y-57750D03*
X90750Y-58750D03*
X91125Y-57750D03*
G54D17*
X90100Y-57000D03*
X91400Y-57000D03*
G54D18*
X89573Y-58550D03*
X89927Y-58550D03*
G54D19*
X88100Y-56927D03*
X88100Y-56573D03*
X87700Y-56823D03*
X87700Y-57177D03*
G54D18*
X89927Y-57750D03*
X89573Y-57750D03*
X89573Y-58150D03*
X89927Y-58150D03*
G54D19*
X88500Y-56927D03*
X88500Y-56573D03*
X91600Y-58123D03*
X91600Y-58477D03*
G54D18*
X86873Y-59850D03*
X87227Y-59850D03*
G54D19*
X89300Y-56927D03*
X89300Y-56573D03*
G54D18*
X86873Y-60300D03*
X87227Y-60300D03*
G54D19*
X86900Y-56773D03*
X86900Y-57127D03*
X88900Y-56927D03*
X88900Y-56573D03*
G54D20*
X85500Y-61000D03*
X86500Y-61000D03*
X87500Y-61000D03*
X88500Y-61000D03*
X89500Y-61000D03*
X90500Y-61000D03*
X91500Y-61000D03*
X92500Y-61000D03*
X92500Y-56000D03*
X91500Y-56000D03*
X90500Y-56000D03*
X89500Y-56000D03*
X88500Y-56000D03*
X87500Y-56000D03*
X86500Y-56000D03*
X85500Y-56000D03*
G54D19*
X90700Y-59323D03*
X90700Y-59677D03*
X90300Y-60377D03*
X90300Y-60023D03*
X90300Y-59323D03*
X90300Y-59677D03*
X91100Y-59323D03*
X91100Y-59677D03*
X91100Y-60377D03*
X91100Y-60023D03*
X90700Y-60023D03*
X90700Y-60377D03*
G54D21*
X86250Y-57000D03*
X86250Y-58000D03*
X86250Y-59000D03*
X86250Y-60000D03*
G54D22*
X84253Y-57500D03*
X84253Y-59500D03*
M02*
