G04 (created by PCBNEW (2013-jul-07)-stable) date Mon 06 Jan 2014 05:23:51 AM EST*
%MOIN*%
G04 Gerber Fmt 3.4, Leading zero omitted, Abs format*
%FSLAX34Y34*%
G01*
G70*
G90*
G04 APERTURE LIST*
%ADD10C,0.00590551*%
%ADD11C,0.011811*%
%ADD12C,0.0026*%
%ADD13C,0.004*%
%ADD14C,0.00511811*%
G04 APERTURE END LIST*
G54D10*
G54D11*
X91551Y-59232D02*
X91579Y-59260D01*
X91664Y-59289D01*
X91720Y-59289D01*
X91804Y-59260D01*
X91860Y-59204D01*
X91888Y-59148D01*
X91917Y-59035D01*
X91917Y-58951D01*
X91888Y-58839D01*
X91860Y-58782D01*
X91804Y-58726D01*
X91720Y-58698D01*
X91664Y-58698D01*
X91579Y-58726D01*
X91551Y-58754D01*
X91017Y-59289D02*
X91298Y-59289D01*
X91298Y-58698D01*
X90820Y-59289D02*
X90820Y-58698D01*
X90482Y-59289D02*
X90735Y-58951D01*
X90482Y-58698D02*
X90820Y-59035D01*
X91932Y-58289D02*
X91932Y-57698D01*
X91792Y-57698D01*
X91707Y-57726D01*
X91651Y-57782D01*
X91623Y-57839D01*
X91595Y-57951D01*
X91595Y-58035D01*
X91623Y-58148D01*
X91651Y-58204D01*
X91707Y-58260D01*
X91792Y-58289D01*
X91932Y-58289D01*
X91370Y-58120D02*
X91089Y-58120D01*
X91426Y-58289D02*
X91229Y-57698D01*
X91032Y-58289D01*
X90920Y-57698D02*
X90582Y-57698D01*
X90751Y-58289D02*
X90751Y-57698D01*
X91599Y-59726D02*
X91656Y-59698D01*
X91740Y-59698D01*
X91824Y-59726D01*
X91881Y-59782D01*
X91909Y-59839D01*
X91937Y-59951D01*
X91937Y-60035D01*
X91909Y-60148D01*
X91881Y-60204D01*
X91824Y-60260D01*
X91740Y-60289D01*
X91684Y-60289D01*
X91599Y-60260D01*
X91571Y-60232D01*
X91571Y-60035D01*
X91684Y-60035D01*
X91318Y-60289D02*
X91318Y-59698D01*
X90981Y-60289D01*
X90981Y-59698D01*
X90700Y-60289D02*
X90700Y-59698D01*
X90559Y-59698D01*
X90475Y-59726D01*
X90418Y-59782D01*
X90390Y-59839D01*
X90362Y-59951D01*
X90362Y-60035D01*
X90390Y-60148D01*
X90418Y-60204D01*
X90475Y-60260D01*
X90559Y-60289D01*
X90700Y-60289D01*
X91937Y-57289D02*
X91937Y-56698D01*
X91712Y-56698D01*
X91656Y-56726D01*
X91628Y-56754D01*
X91599Y-56810D01*
X91599Y-56895D01*
X91628Y-56951D01*
X91656Y-56979D01*
X91712Y-57007D01*
X91937Y-57007D01*
X91403Y-56698D02*
X91262Y-57289D01*
X91150Y-56867D01*
X91037Y-57289D01*
X90896Y-56698D01*
X90334Y-57289D02*
X90531Y-57007D01*
X90671Y-57289D02*
X90671Y-56698D01*
X90446Y-56698D01*
X90390Y-56726D01*
X90362Y-56754D01*
X90334Y-56810D01*
X90334Y-56895D01*
X90362Y-56951D01*
X90390Y-56979D01*
X90446Y-57007D01*
X90671Y-57007D01*
G54D10*
X84718Y-59681D02*
X87081Y-59681D01*
X87081Y-59681D02*
X87081Y-57318D01*
X87081Y-57318D02*
X84718Y-57318D01*
X84718Y-57318D02*
X84718Y-59681D01*
X86588Y-58500D02*
G75*
G03X86588Y-58500I-688J0D01*
G74*
G01*
X87226Y-57082D02*
X87226Y-59917D01*
X87226Y-59917D02*
X89273Y-59917D01*
X89273Y-59917D02*
X89273Y-57082D01*
X89273Y-57082D02*
X87226Y-57082D01*
G54D12*
X84427Y-56173D02*
X84073Y-56173D01*
X84073Y-56173D02*
X84073Y-56016D01*
X84427Y-56016D02*
X84073Y-56016D01*
X84427Y-56173D02*
X84427Y-56016D01*
X84427Y-56684D02*
X84073Y-56684D01*
X84073Y-56684D02*
X84073Y-56527D01*
X84427Y-56527D02*
X84073Y-56527D01*
X84427Y-56684D02*
X84427Y-56527D01*
X84427Y-56350D02*
X84368Y-56350D01*
X84368Y-56350D02*
X84368Y-56232D01*
X84427Y-56232D02*
X84368Y-56232D01*
X84427Y-56350D02*
X84427Y-56232D01*
X84132Y-56350D02*
X84073Y-56350D01*
X84073Y-56350D02*
X84073Y-56232D01*
X84132Y-56232D02*
X84073Y-56232D01*
X84132Y-56350D02*
X84132Y-56232D01*
X84309Y-56350D02*
X84191Y-56350D01*
X84191Y-56350D02*
X84191Y-56232D01*
X84309Y-56232D02*
X84191Y-56232D01*
X84309Y-56350D02*
X84309Y-56232D01*
G54D13*
X84407Y-56173D02*
X84407Y-56527D01*
X84093Y-56173D02*
X84093Y-56527D01*
G54D12*
X84073Y-60827D02*
X84427Y-60827D01*
X84427Y-60827D02*
X84427Y-60984D01*
X84073Y-60984D02*
X84427Y-60984D01*
X84073Y-60827D02*
X84073Y-60984D01*
X84073Y-60316D02*
X84427Y-60316D01*
X84427Y-60316D02*
X84427Y-60473D01*
X84073Y-60473D02*
X84427Y-60473D01*
X84073Y-60316D02*
X84073Y-60473D01*
X84073Y-60650D02*
X84132Y-60650D01*
X84132Y-60650D02*
X84132Y-60768D01*
X84073Y-60768D02*
X84132Y-60768D01*
X84073Y-60650D02*
X84073Y-60768D01*
X84368Y-60650D02*
X84427Y-60650D01*
X84427Y-60650D02*
X84427Y-60768D01*
X84368Y-60768D02*
X84427Y-60768D01*
X84368Y-60650D02*
X84368Y-60768D01*
X84191Y-60650D02*
X84309Y-60650D01*
X84309Y-60650D02*
X84309Y-60768D01*
X84191Y-60768D02*
X84309Y-60768D01*
X84191Y-60650D02*
X84191Y-60768D01*
G54D13*
X84093Y-60827D02*
X84093Y-60473D01*
X84407Y-60827D02*
X84407Y-60473D01*
G54D14*
X86349Y-57207D02*
X86307Y-57221D01*
X86235Y-57221D01*
X86207Y-57207D01*
X86192Y-57192D01*
X86178Y-57164D01*
X86178Y-57135D01*
X86192Y-57107D01*
X86207Y-57092D01*
X86235Y-57078D01*
X86292Y-57064D01*
X86321Y-57050D01*
X86335Y-57035D01*
X86349Y-57007D01*
X86349Y-56978D01*
X86335Y-56950D01*
X86321Y-56935D01*
X86292Y-56921D01*
X86221Y-56921D01*
X86178Y-56935D01*
X86078Y-56921D02*
X86007Y-57221D01*
X85949Y-57007D01*
X85892Y-57221D01*
X85821Y-56921D01*
X85550Y-57221D02*
X85721Y-57221D01*
X85635Y-57221D02*
X85635Y-56921D01*
X85664Y-56964D01*
X85692Y-56992D01*
X85721Y-57007D01*
X89371Y-57807D02*
X89671Y-58007D01*
X89371Y-58007D02*
X89671Y-57807D01*
X89671Y-58278D02*
X89671Y-58107D01*
X89671Y-58192D02*
X89371Y-58192D01*
X89414Y-58164D01*
X89442Y-58135D01*
X89457Y-58107D01*
X89500Y-58700D02*
X89485Y-58671D01*
X89471Y-58657D01*
X89442Y-58642D01*
X89428Y-58642D01*
X89400Y-58657D01*
X89385Y-58671D01*
X89371Y-58700D01*
X89371Y-58757D01*
X89385Y-58785D01*
X89400Y-58800D01*
X89428Y-58814D01*
X89442Y-58814D01*
X89471Y-58800D01*
X89485Y-58785D01*
X89500Y-58757D01*
X89500Y-58700D01*
X89514Y-58671D01*
X89528Y-58657D01*
X89557Y-58642D01*
X89614Y-58642D01*
X89642Y-58657D01*
X89657Y-58671D01*
X89671Y-58700D01*
X89671Y-58757D01*
X89657Y-58785D01*
X89642Y-58800D01*
X89614Y-58814D01*
X89557Y-58814D01*
X89528Y-58800D01*
X89514Y-58785D01*
X89500Y-58757D01*
X89671Y-58942D02*
X89371Y-58942D01*
X89585Y-59042D01*
X89371Y-59142D01*
X89671Y-59142D01*
X85171Y-55628D02*
X84871Y-55628D01*
X84871Y-55700D01*
X84885Y-55742D01*
X84914Y-55771D01*
X84942Y-55785D01*
X85000Y-55800D01*
X85042Y-55800D01*
X85100Y-55785D01*
X85128Y-55771D01*
X85157Y-55742D01*
X85171Y-55700D01*
X85171Y-55628D01*
X84900Y-55914D02*
X84885Y-55928D01*
X84871Y-55957D01*
X84871Y-56028D01*
X84885Y-56057D01*
X84900Y-56071D01*
X84928Y-56085D01*
X84957Y-56085D01*
X85000Y-56071D01*
X85171Y-55900D01*
X85171Y-56085D01*
X84471Y-55621D02*
X84714Y-55621D01*
X84742Y-55635D01*
X84757Y-55650D01*
X84771Y-55678D01*
X84771Y-55735D01*
X84757Y-55764D01*
X84742Y-55778D01*
X84714Y-55792D01*
X84471Y-55792D01*
X84757Y-55921D02*
X84771Y-55964D01*
X84771Y-56035D01*
X84757Y-56064D01*
X84742Y-56078D01*
X84714Y-56092D01*
X84685Y-56092D01*
X84657Y-56078D01*
X84642Y-56064D01*
X84628Y-56035D01*
X84614Y-55978D01*
X84600Y-55950D01*
X84585Y-55935D01*
X84557Y-55921D01*
X84528Y-55921D01*
X84500Y-55935D01*
X84485Y-55950D01*
X84471Y-55978D01*
X84471Y-56050D01*
X84485Y-56092D01*
X84771Y-56392D02*
X84628Y-56292D01*
X84771Y-56221D02*
X84471Y-56221D01*
X84471Y-56335D01*
X84485Y-56364D01*
X84500Y-56378D01*
X84528Y-56392D01*
X84571Y-56392D01*
X84600Y-56378D01*
X84614Y-56364D01*
X84628Y-56335D01*
X84628Y-56221D01*
X85171Y-60578D02*
X84871Y-60578D01*
X84871Y-60650D01*
X84885Y-60692D01*
X84914Y-60721D01*
X84942Y-60735D01*
X85000Y-60750D01*
X85042Y-60750D01*
X85100Y-60735D01*
X85128Y-60721D01*
X85157Y-60692D01*
X85171Y-60650D01*
X85171Y-60578D01*
X85171Y-61035D02*
X85171Y-60864D01*
X85171Y-60950D02*
X84871Y-60950D01*
X84914Y-60921D01*
X84942Y-60892D01*
X84957Y-60864D01*
X84771Y-60600D02*
X84471Y-60600D01*
X84471Y-60714D01*
X84485Y-60742D01*
X84500Y-60757D01*
X84528Y-60771D01*
X84571Y-60771D01*
X84600Y-60757D01*
X84614Y-60742D01*
X84628Y-60714D01*
X84628Y-60600D01*
X84471Y-60871D02*
X84771Y-60942D01*
X84557Y-61000D01*
X84771Y-61057D01*
X84471Y-61128D01*
X84771Y-61414D02*
X84628Y-61314D01*
X84771Y-61242D02*
X84471Y-61242D01*
X84471Y-61357D01*
X84485Y-61385D01*
X84500Y-61400D01*
X84528Y-61414D01*
X84571Y-61414D01*
X84600Y-61400D01*
X84614Y-61385D01*
X84628Y-61357D01*
X84628Y-61242D01*
M02*
