M48
;DRILL file {Pcbnew (2013-jul-07)-stable} date Thu 09 Jan 2014 04:18:06 AM EST
;FORMAT={-:-/ absolute / inch / decimal}
;FMAT,2
INCH,TZ
T1C0.015
T2C0.032
T3C0.047
%
G90
G05
M72
T1
X8.475Y-6.075
X8.48Y-5.625
X8.535Y-5.74
X8.555Y-5.8
X8.56Y-5.7
X8.56Y-6.005
X8.58Y-5.955
X8.67Y-5.85
X8.675Y-5.945
X8.735Y-5.67
X8.8Y-6.065
X8.825Y-5.725
X8.92Y-5.755
X8.93Y-5.72
X8.93Y-6.01
X8.945Y-5.975
X8.995Y-5.89
X9.05Y-5.73
X9.07Y-5.985
X9.075Y-5.83
X9.11Y-5.82
X9.11Y-5.985
X9.145Y-6.02
T2
X8.55Y-5.6
X8.55Y-6.1
X8.65Y-5.6
X8.65Y-6.1
X8.75Y-5.6
X8.75Y-6.1
X8.85Y-5.6
X8.85Y-6.1
X8.95Y-5.6
X8.95Y-6.1
X9.05Y-5.6
X9.05Y-6.1
X9.15Y-5.6
X9.15Y-6.1
X9.25Y-5.6
X9.25Y-6.1
T3
X9.25Y-5.7
X9.25Y-5.8
X9.25Y-5.9
X9.25Y-6.
T0
M30
