G04 (created by PCBNEW (2013-jul-07)-stable) date Thu 09 Jan 2014 05:36:01 AM EST*
%MOIN*%
G04 Gerber Fmt 3.4, Leading zero omitted, Abs format*
%FSLAX34Y34*%
G01*
G70*
G90*
G04 APERTURE LIST*
%ADD10C,0.00590551*%
%ADD11C,0.141732*%
%ADD12C,0.0866142*%
%ADD13R,0.070848X0.039348*%
%ADD14R,0.125948X0.173248*%
%ADD15R,0.039348X0.031448*%
%ADD16R,0.031448X0.039348*%
%ADD17R,0.133858X0.232283*%
%ADD18C,0.070748*%
%ADD19R,0.025548X0.039348*%
%ADD20R,0.039348X0.025548*%
%ADD21R,0.141732X0.141732*%
%ADD22R,0.0866142X0.0866142*%
%ADD23R,0.035748X0.045748*%
%ADD24R,0.075748X0.095748*%
%ADD25R,0.0944882X0.065748*%
%ADD26C,0.0787402*%
%ADD27C,0.204748*%
%ADD28R,0.204748X0.204748*%
%ADD29R,0.065748X0.031748*%
%ADD30R,0.043348X0.055148*%
%ADD31R,0.070748X0.050748*%
%ADD32R,0.040748X0.060748*%
%ADD33R,0.060748X0.040748*%
%ADD34R,0.045748X0.035748*%
%ADD35R,0.047148X0.047148*%
G04 APERTURE END LIST*
G54D10*
G54D11*
X65321Y-58710D03*
X65321Y-62710D03*
G54D12*
X67821Y-59960D03*
X68821Y-60460D03*
X67821Y-60960D03*
X68821Y-61460D03*
G54D13*
X72171Y-59760D03*
X70071Y-59760D03*
X72171Y-60260D03*
X72171Y-60760D03*
X72171Y-61260D03*
X70071Y-60260D03*
X70071Y-60760D03*
X70071Y-61260D03*
G54D14*
X71121Y-60510D03*
G54D15*
X71721Y-61833D03*
X71721Y-62187D03*
X72121Y-62187D03*
X72121Y-61833D03*
X70121Y-61833D03*
X70121Y-62187D03*
X71321Y-61833D03*
X71321Y-62187D03*
X70521Y-61833D03*
X70521Y-62187D03*
X70921Y-61833D03*
X70921Y-62187D03*
G54D16*
X70944Y-59210D03*
X71298Y-59210D03*
G54D17*
X73351Y-60710D03*
X77091Y-60710D03*
G54D18*
X70321Y-63210D03*
X71321Y-63210D03*
X72321Y-63210D03*
X73321Y-63210D03*
X74321Y-63210D03*
X75321Y-63210D03*
X76321Y-63210D03*
X77321Y-63210D03*
X77321Y-58210D03*
X76321Y-58210D03*
X75321Y-58210D03*
X74321Y-58210D03*
X73321Y-58210D03*
X72321Y-58210D03*
X71321Y-58210D03*
X70321Y-58210D03*
G54D19*
X73488Y-52959D03*
X73291Y-52959D03*
X73094Y-52959D03*
X72897Y-52959D03*
X72701Y-52959D03*
X72504Y-52959D03*
X72307Y-52959D03*
X72110Y-52959D03*
G54D20*
X71854Y-54001D03*
X71854Y-54197D03*
X71854Y-54394D03*
X71854Y-54591D03*
G54D21*
X72800Y-53903D03*
G54D20*
X71854Y-53214D03*
X71854Y-53411D03*
X71854Y-53608D03*
X71854Y-53804D03*
G54D19*
X72112Y-54847D03*
X72309Y-54848D03*
X72505Y-54848D03*
X72702Y-54848D03*
X72899Y-54848D03*
X73096Y-54848D03*
X73293Y-54848D03*
X73490Y-54848D03*
G54D20*
X73745Y-54592D03*
X73745Y-54395D03*
X73745Y-54198D03*
X73745Y-54002D03*
X73745Y-53805D03*
X73745Y-53608D03*
X73745Y-53411D03*
X73745Y-53214D03*
G54D22*
X77300Y-52403D03*
G54D12*
X77300Y-53403D03*
X77300Y-54403D03*
X77300Y-55403D03*
G54D23*
X75175Y-54153D03*
X75925Y-54153D03*
X75175Y-53153D03*
X75550Y-54153D03*
X75925Y-53153D03*
G54D24*
X74900Y-52403D03*
X76200Y-52403D03*
G54D16*
X74373Y-53953D03*
X74727Y-53953D03*
G54D15*
X72900Y-52330D03*
X72900Y-51976D03*
X72500Y-52226D03*
X72500Y-52580D03*
G54D16*
X74727Y-53153D03*
X74373Y-53153D03*
X74373Y-53553D03*
X74727Y-53553D03*
G54D15*
X73300Y-52330D03*
X73300Y-51976D03*
X76400Y-53526D03*
X76400Y-53880D03*
G54D16*
X71673Y-55253D03*
X72027Y-55253D03*
G54D15*
X74100Y-52330D03*
X74100Y-51976D03*
G54D16*
X71673Y-55703D03*
X72027Y-55703D03*
G54D15*
X71700Y-52176D03*
X71700Y-52530D03*
X73700Y-52330D03*
X73700Y-51976D03*
G54D18*
X70300Y-56403D03*
X71300Y-56403D03*
X72300Y-56403D03*
X73300Y-56403D03*
X74300Y-56403D03*
X75300Y-56403D03*
X76300Y-56403D03*
X77300Y-56403D03*
X77300Y-51403D03*
X76300Y-51403D03*
X75300Y-51403D03*
X74300Y-51403D03*
X73300Y-51403D03*
X72300Y-51403D03*
X71300Y-51403D03*
X70300Y-51403D03*
G54D15*
X75500Y-54726D03*
X75500Y-55080D03*
X75100Y-55780D03*
X75100Y-55426D03*
X75100Y-54726D03*
X75100Y-55080D03*
X75900Y-54726D03*
X75900Y-55080D03*
X75900Y-55780D03*
X75900Y-55426D03*
X75500Y-55426D03*
X75500Y-55780D03*
G54D25*
X71050Y-52403D03*
X71050Y-53403D03*
X71050Y-54403D03*
X71050Y-55403D03*
G54D26*
X69053Y-52903D03*
X69053Y-54903D03*
G54D19*
X62482Y-54839D03*
X62679Y-54839D03*
X62876Y-54839D03*
X63073Y-54839D03*
X63269Y-54839D03*
X63466Y-54839D03*
X63663Y-54839D03*
X63860Y-54839D03*
G54D20*
X64116Y-53797D03*
X64116Y-53601D03*
X64116Y-53404D03*
X64116Y-53207D03*
G54D21*
X63170Y-53895D03*
G54D20*
X64116Y-54584D03*
X64116Y-54387D03*
X64116Y-54190D03*
X64116Y-53994D03*
G54D19*
X63858Y-52951D03*
X63661Y-52950D03*
X63465Y-52950D03*
X63268Y-52950D03*
X63071Y-52950D03*
X62874Y-52950D03*
X62677Y-52950D03*
X62480Y-52950D03*
G54D20*
X62225Y-53206D03*
X62225Y-53403D03*
X62225Y-53600D03*
X62225Y-53796D03*
X62225Y-53993D03*
X62225Y-54190D03*
X62225Y-54387D03*
X62225Y-54584D03*
G54D22*
X58670Y-55395D03*
G54D12*
X58670Y-54395D03*
X58670Y-53395D03*
X58670Y-52395D03*
G54D23*
X60795Y-53645D03*
X60045Y-53645D03*
X60795Y-54645D03*
X60420Y-53645D03*
X60045Y-54645D03*
G54D24*
X61070Y-55395D03*
X59770Y-55395D03*
G54D16*
X61597Y-53845D03*
X61243Y-53845D03*
G54D15*
X63070Y-55468D03*
X63070Y-55822D03*
X63470Y-55572D03*
X63470Y-55218D03*
G54D16*
X61243Y-54645D03*
X61597Y-54645D03*
X61597Y-54245D03*
X61243Y-54245D03*
G54D15*
X62670Y-55468D03*
X62670Y-55822D03*
X59570Y-54272D03*
X59570Y-53918D03*
G54D16*
X64297Y-52545D03*
X63943Y-52545D03*
G54D15*
X61870Y-55468D03*
X61870Y-55822D03*
G54D16*
X64297Y-52095D03*
X63943Y-52095D03*
G54D15*
X64270Y-55622D03*
X64270Y-55268D03*
X62270Y-55468D03*
X62270Y-55822D03*
G54D18*
X65670Y-51395D03*
X64670Y-51395D03*
X63670Y-51395D03*
X62670Y-51395D03*
X61670Y-51395D03*
X60670Y-51395D03*
X59670Y-51395D03*
X58670Y-51395D03*
X58670Y-56395D03*
X59670Y-56395D03*
X60670Y-56395D03*
X61670Y-56395D03*
X62670Y-56395D03*
X63670Y-56395D03*
X64670Y-56395D03*
X65670Y-56395D03*
G54D15*
X60470Y-53072D03*
X60470Y-52718D03*
X60870Y-52018D03*
X60870Y-52372D03*
X60870Y-53072D03*
X60870Y-52718D03*
X60070Y-53072D03*
X60070Y-52718D03*
X60070Y-52018D03*
X60070Y-52372D03*
X60470Y-52372D03*
X60470Y-52018D03*
G54D25*
X64920Y-55395D03*
X64920Y-54395D03*
X64920Y-53395D03*
X64920Y-52395D03*
G54D26*
X66916Y-54895D03*
X66916Y-52895D03*
G54D27*
X69906Y-46548D03*
G54D28*
X72306Y-46548D03*
G54D27*
X70806Y-48548D03*
G54D29*
X64556Y-49198D03*
X64556Y-48948D03*
X64556Y-48688D03*
X64556Y-48428D03*
X64556Y-48178D03*
X64556Y-47918D03*
X64556Y-47658D03*
X64556Y-47408D03*
X64556Y-47148D03*
X64556Y-46898D03*
X64556Y-46638D03*
X64556Y-46378D03*
X64556Y-46128D03*
X64556Y-45868D03*
X61756Y-45868D03*
X61756Y-46128D03*
X61756Y-46368D03*
X61756Y-46638D03*
X61756Y-46898D03*
X61756Y-47148D03*
X61756Y-47408D03*
X61756Y-47658D03*
X61756Y-47918D03*
X61756Y-48178D03*
X61756Y-48428D03*
X61756Y-48688D03*
X61756Y-48948D03*
X61756Y-49198D03*
G54D30*
X65406Y-45548D03*
X65031Y-44548D03*
X65781Y-44548D03*
G54D31*
X73656Y-47923D03*
X73656Y-48673D03*
G54D32*
X63706Y-44798D03*
X63106Y-44798D03*
G54D33*
X61406Y-44498D03*
X61406Y-45098D03*
G54D34*
X60956Y-46948D03*
X60956Y-47228D03*
X60956Y-46668D03*
G54D32*
X59456Y-44648D03*
X58856Y-44648D03*
X58856Y-46048D03*
X59456Y-46048D03*
X59456Y-47448D03*
X58856Y-47448D03*
X59456Y-48848D03*
X58856Y-48848D03*
G54D35*
X58861Y-48048D03*
X59451Y-48048D03*
X58861Y-49448D03*
X59451Y-49448D03*
X58861Y-45248D03*
X59451Y-45248D03*
X58861Y-46648D03*
X59451Y-46648D03*
G54D18*
X66656Y-49548D03*
X67656Y-49548D03*
X68656Y-49548D03*
X69656Y-49548D03*
X70656Y-49548D03*
X71656Y-49548D03*
X72656Y-49548D03*
X73656Y-49548D03*
X73656Y-44548D03*
X72656Y-44548D03*
X71656Y-44548D03*
X70656Y-44548D03*
X69656Y-44548D03*
X68656Y-44548D03*
X67656Y-44548D03*
X66656Y-44548D03*
M02*
