M48
;DRILL file {Pcbnew (2013-jul-07)-stable} date Thu 09 Jan 2014 05:41:32 AM EST
;FORMAT={-:-/ absolute / inch / decimal}
FMAT,2
INCH,TZ
T1C0.025
T2C0.032
T3C0.035
T4C0.040
T5C0.047
%
G90
G05
M72
T1
X5.972Y-5.2195
X6.007Y-5.2545
X6.007Y-5.4195
X6.042Y-5.4095
X6.0456Y-4.4899
X6.047Y-5.2545
X6.0556Y-4.8049
X6.0581Y-4.7574
X6.067Y-5.5095
X6.1006Y-4.5699
X6.1006Y-4.6199
X6.122Y-5.3495
X6.172Y-5.2645
X6.187Y-5.2295
X6.187Y-5.5195
X6.197Y-5.4845
X6.2006Y-4.5399
X6.2556Y-4.6249
X6.2556Y-4.7149
X6.2856Y-4.5049
X6.292Y-5.5145
X6.317Y-5.1745
X6.3356Y-4.8049
X6.3356Y-4.8699
X6.3556Y-4.6749
X6.382Y-5.5695
X6.3956Y-4.5749
X6.4406Y-4.4749
X6.442Y-5.2945
X6.447Y-5.3895
X6.4771Y-6.0711
X6.5256Y-4.6149
X6.537Y-5.2845
X6.5456Y-4.8949
X6.557Y-5.2345
X6.557Y-5.5395
X6.562Y-5.4395
X6.582Y-5.4995
X6.5821Y-6.1011
X6.5821Y-6.1461
X6.637Y-5.6145
X6.642Y-5.1645
X6.7156Y-4.5299
X6.7156Y-4.8149
X6.7346Y-6.1711
X6.9521Y-5.9261
X6.955Y-5.6153
X6.9571Y-6.2186
X6.96Y-5.1653
X7.015Y-5.2803
X7.035Y-5.3403
X7.04Y-5.2403
X7.04Y-5.5453
X7.06Y-5.4953
X7.0721Y-5.9711
X7.15Y-5.3903
X7.155Y-5.4853
X7.215Y-5.2103
X7.28Y-5.6053
X7.2896Y-6.1261
X7.305Y-5.2653
X7.3196Y-6.1086
X7.3196Y-6.1461
X7.3496Y-6.1261
X7.4Y-5.2953
X7.41Y-5.2603
X7.41Y-5.5503
X7.425Y-5.5153
X7.475Y-5.4303
X7.53Y-5.2703
X7.55Y-5.5253
X7.555Y-5.3703
X7.5646Y-6.1011
X7.5771Y-6.1886
X7.59Y-5.3603
X7.59Y-5.5253
X7.5921Y-6.1411
X7.5921Y-6.2361
X7.6071Y-6.1886
X7.6196Y-6.1011
X7.625Y-5.5603
T2
X5.867Y-5.1395
X5.867Y-5.6395
X5.967Y-5.1395
X5.967Y-5.6395
X6.067Y-5.1395
X6.067Y-5.6395
X6.167Y-5.1395
X6.167Y-5.6395
X6.267Y-5.1395
X6.267Y-5.6395
X6.367Y-5.1395
X6.367Y-5.6395
X6.467Y-5.1395
X6.467Y-5.6395
X6.567Y-5.1395
X6.567Y-5.6395
X6.6656Y-4.4549
X6.6656Y-4.9549
X6.7656Y-4.4549
X6.7656Y-4.9549
X6.8656Y-4.4549
X6.8656Y-4.9549
X6.9656Y-4.4549
X6.9656Y-4.9549
X7.03Y-5.1403
X7.03Y-5.6403
X7.0321Y-5.8211
X7.0321Y-6.3211
X7.0656Y-4.4549
X7.0656Y-4.9549
X7.13Y-5.1403
X7.13Y-5.6403
X7.1321Y-5.8211
X7.1321Y-6.3211
X7.1656Y-4.4549
X7.1656Y-4.9549
X7.23Y-5.1403
X7.23Y-5.6403
X7.2321Y-5.8211
X7.2321Y-6.3211
X7.2656Y-4.4549
X7.2656Y-4.9549
X7.33Y-5.1403
X7.33Y-5.6403
X7.3321Y-5.8211
X7.3321Y-6.3211
X7.3656Y-4.4549
X7.3656Y-4.9549
X7.43Y-5.1403
X7.43Y-5.6403
X7.4321Y-5.8211
X7.4321Y-6.3211
X7.53Y-5.1403
X7.53Y-5.6403
X7.5321Y-5.8211
X7.5321Y-6.3211
X7.63Y-5.1403
X7.63Y-5.6403
X7.6321Y-5.8211
X7.6321Y-6.3211
X7.73Y-5.1403
X7.73Y-5.6403
X7.7321Y-5.8211
X7.7321Y-6.3211
T3
X6.7821Y-5.9961
X6.7821Y-6.0961
X6.8821Y-6.0461
X6.8821Y-6.1461
T5
X5.867Y-5.2395
X5.867Y-5.3395
X5.867Y-5.4395
X5.867Y-5.5395
X7.73Y-5.2403
X7.73Y-5.3403
X7.73Y-5.4403
X7.73Y-5.5403
T4
X6.9906Y-4.6249G85X6.9906Y-4.6849
G05
X7.0506Y-4.8549G85X7.1106Y-4.8549
G05
X7.2306Y-4.6249G85X7.2306Y-4.6849
G05
T0
M30
