G04 (created by PCBNEW (2013-jul-07)-stable) date Thu 09 Jan 2014 05:36:01 AM EST*
%MOIN*%
G04 Gerber Fmt 3.4, Leading zero omitted, Abs format*
%FSLAX34Y34*%
G01*
G70*
G90*
G04 APERTURE LIST*
%ADD10C,0.00590551*%
%ADD11C,0.141732*%
%ADD12C,0.0866142*%
%ADD13R,0.135748X0.080748*%
%ADD14R,0.255748X0.255748*%
%ADD15R,0.055148X0.047248*%
%ADD16R,0.070848X0.039348*%
%ADD17R,0.065748X0.115748*%
%ADD18R,0.075748X0.095748*%
%ADD19R,0.060748X0.040748*%
%ADD20C,0.070748*%
%ADD21R,0.078748X0.043348*%
%ADD22R,0.098448X0.043348*%
%ADD23R,0.124048X0.094448*%
%ADD24R,0.0866142X0.0866142*%
%ADD25R,0.0708661X0.0984252*%
%ADD26R,0.0590551X0.102362*%
%ADD27C,0.0787402*%
%ADD28R,0.047148X0.047148*%
%ADD29R,0.090448X0.090448*%
%ADD30R,0.090448X0.090548*%
%ADD31R,0.090448X0.086448*%
%ADD32R,0.078648X0.098248*%
%ADD33R,0.068748X0.031448*%
%ADD34C,0.204748*%
%ADD35R,0.204748X0.204748*%
%ADD36R,0.159748X0.095748*%
%ADD37R,0.055748X0.095748*%
%ADD38R,0.050748X0.070748*%
%ADD39R,0.040748X0.060748*%
%ADD40R,0.065748X0.065748*%
G04 APERTURE END LIST*
G54D10*
G54D11*
X65321Y-58710D03*
X65321Y-62710D03*
G54D12*
X67821Y-59960D03*
X68821Y-60460D03*
X67821Y-60960D03*
X68821Y-61460D03*
G54D13*
X73521Y-60360D03*
G54D14*
X71021Y-61260D03*
G54D13*
X73521Y-62160D03*
G54D15*
X73404Y-59210D03*
X72538Y-58835D03*
X72538Y-59585D03*
G54D16*
X66871Y-61460D03*
X64771Y-61460D03*
X66871Y-60960D03*
X66871Y-60460D03*
X66871Y-59960D03*
X64771Y-60960D03*
X64771Y-60460D03*
X64771Y-59960D03*
G54D17*
X70071Y-59260D03*
X71271Y-59260D03*
G54D18*
X67421Y-62710D03*
X68721Y-62710D03*
X75921Y-62360D03*
X74621Y-62360D03*
X75921Y-61410D03*
X74621Y-61410D03*
G54D19*
X74021Y-58910D03*
X74021Y-59510D03*
X71971Y-58910D03*
X71971Y-59510D03*
G54D20*
X70321Y-63210D03*
X71321Y-63210D03*
X72321Y-63210D03*
X73321Y-63210D03*
X74321Y-63210D03*
X75321Y-63210D03*
X76321Y-63210D03*
X77321Y-63210D03*
X77321Y-58210D03*
X76321Y-58210D03*
X75321Y-58210D03*
X74321Y-58210D03*
X73321Y-58210D03*
X72321Y-58210D03*
X71321Y-58210D03*
X70321Y-58210D03*
G54D21*
X74973Y-60151D03*
G54D22*
X75071Y-59560D03*
G54D21*
X74973Y-58969D03*
G54D23*
X76016Y-59560D03*
G54D24*
X77300Y-52403D03*
G54D12*
X77300Y-53403D03*
X77300Y-54403D03*
X77300Y-55403D03*
G54D25*
X71600Y-55503D03*
X71600Y-52303D03*
X69800Y-55503D03*
X69800Y-52303D03*
G54D20*
X70300Y-56403D03*
X71300Y-56403D03*
X72300Y-56403D03*
X73300Y-56403D03*
X74300Y-56403D03*
X75300Y-56403D03*
X76300Y-56403D03*
X77300Y-56403D03*
X77300Y-51403D03*
X76300Y-51403D03*
X75300Y-51403D03*
X74300Y-51403D03*
X73300Y-51403D03*
X72300Y-51403D03*
X71300Y-51403D03*
X70300Y-51403D03*
G54D26*
X73542Y-52643D03*
X73542Y-55162D03*
X72557Y-55162D03*
X72557Y-52643D03*
G54D27*
X69053Y-52903D03*
X69053Y-54903D03*
G54D28*
X69050Y-52048D03*
X69050Y-51458D03*
X69050Y-55758D03*
X69050Y-56348D03*
G54D24*
X58670Y-55395D03*
G54D12*
X58670Y-54395D03*
X58670Y-53395D03*
X58670Y-52395D03*
G54D25*
X64370Y-52295D03*
X64370Y-55495D03*
X66170Y-52295D03*
X66170Y-55495D03*
G54D20*
X65670Y-51395D03*
X64670Y-51395D03*
X63670Y-51395D03*
X62670Y-51395D03*
X61670Y-51395D03*
X60670Y-51395D03*
X59670Y-51395D03*
X58670Y-51395D03*
X58670Y-56395D03*
X59670Y-56395D03*
X60670Y-56395D03*
X61670Y-56395D03*
X62670Y-56395D03*
X63670Y-56395D03*
X64670Y-56395D03*
X65670Y-56395D03*
G54D26*
X62428Y-55155D03*
X62428Y-52635D03*
X63412Y-52635D03*
X63412Y-55155D03*
G54D27*
X66916Y-54895D03*
X66916Y-52895D03*
G54D28*
X66920Y-55750D03*
X66920Y-56340D03*
X66920Y-52040D03*
X66920Y-51450D03*
G54D29*
X58826Y-47270D03*
G54D30*
X58826Y-46326D03*
G54D31*
X58826Y-45302D03*
G54D32*
X59830Y-48018D03*
G54D33*
X59880Y-47309D03*
X59880Y-47053D03*
X59880Y-46798D03*
X59880Y-46543D03*
X59880Y-46287D03*
G54D32*
X59830Y-45578D03*
G54D31*
X58826Y-48294D03*
G54D34*
X69906Y-46548D03*
G54D35*
X72306Y-46548D03*
G54D34*
X70806Y-48548D03*
G54D36*
X67156Y-48348D03*
G54D37*
X67156Y-45748D03*
X68056Y-45748D03*
X66256Y-45748D03*
G54D18*
X73556Y-48298D03*
X72256Y-48298D03*
G54D38*
X62781Y-47298D03*
X63531Y-47298D03*
G54D39*
X62856Y-46298D03*
X63456Y-46298D03*
G54D19*
X65156Y-47348D03*
X65156Y-46748D03*
G54D40*
X63656Y-45048D03*
G54D20*
X66656Y-49548D03*
X67656Y-49548D03*
X68656Y-49548D03*
X69656Y-49548D03*
X70656Y-49548D03*
X71656Y-49548D03*
X72656Y-49548D03*
X73656Y-49548D03*
X73656Y-44548D03*
X72656Y-44548D03*
X71656Y-44548D03*
X70656Y-44548D03*
X69656Y-44548D03*
X68656Y-44548D03*
X67656Y-44548D03*
X66656Y-44548D03*
M02*
