G04 (created by PCBNEW (2013-jul-07)-stable) date Thu 09 Jan 2014 05:36:01 AM EST*
%MOIN*%
G04 Gerber Fmt 3.4, Leading zero omitted, Abs format*
%FSLAX34Y34*%
G01*
G70*
G90*
G04 APERTURE LIST*
%ADD10C,0.00590551*%
%ADD11C,0.00787402*%
%ADD12C,0.011811*%
%ADD13C,0.0075*%
%ADD14C,0.005*%
%ADD15C,0.0028*%
%ADD16C,0.006*%
%ADD17C,0.012*%
%ADD18C,0.015*%
%ADD19C,0.0026*%
%ADD20C,0.004*%
%ADD21C,0.00511811*%
%ADD22C,0.0045*%
G04 APERTURE END LIST*
G54D10*
G54D11*
X74173Y-50078D02*
X58188Y-50078D01*
X74173Y-44055D02*
X74173Y-50078D01*
X58149Y-50866D02*
X77795Y-50866D01*
X58149Y-56929D02*
X77795Y-56929D01*
X63818Y-57716D02*
X77795Y-57716D01*
X63818Y-63740D02*
X63818Y-57716D01*
G54D12*
X69218Y-51742D02*
X68881Y-51742D01*
X69050Y-51742D02*
X69050Y-51151D01*
X68993Y-51235D01*
X68937Y-51292D01*
X68881Y-51320D01*
X66751Y-56056D02*
X67089Y-56056D01*
X66920Y-56056D02*
X66920Y-56646D01*
X66976Y-56562D01*
X67032Y-56506D01*
X67089Y-56478D01*
G54D13*
X66146Y-45634D02*
X66146Y-45863D01*
X65994Y-45748D02*
X66299Y-45748D01*
X65994Y-46163D02*
X65994Y-45991D01*
X65994Y-46077D02*
X66394Y-46077D01*
X66337Y-46048D01*
X66299Y-46020D01*
X66280Y-45991D01*
X66356Y-46277D02*
X66375Y-46291D01*
X66394Y-46320D01*
X66394Y-46391D01*
X66375Y-46420D01*
X66356Y-46434D01*
X66318Y-46448D01*
X66280Y-46448D01*
X66222Y-46434D01*
X65994Y-46263D01*
X65994Y-46448D01*
X66394Y-46534D02*
X65994Y-46634D01*
X66394Y-46734D01*
X66013Y-47191D02*
X65994Y-47163D01*
X65994Y-47105D01*
X66013Y-47077D01*
X66032Y-47063D01*
X66070Y-47048D01*
X66184Y-47048D01*
X66222Y-47063D01*
X66242Y-47077D01*
X66261Y-47105D01*
X66261Y-47163D01*
X66242Y-47191D01*
X66261Y-47320D02*
X65861Y-47320D01*
X66242Y-47320D02*
X66261Y-47348D01*
X66261Y-47405D01*
X66242Y-47434D01*
X66222Y-47448D01*
X66184Y-47463D01*
X66070Y-47463D01*
X66032Y-47448D01*
X66013Y-47434D01*
X65994Y-47405D01*
X65994Y-47348D01*
X66013Y-47320D01*
X65994Y-47634D02*
X66013Y-47605D01*
X66032Y-47591D01*
X66070Y-47577D01*
X66184Y-47577D01*
X66222Y-47591D01*
X66242Y-47605D01*
X66261Y-47634D01*
X66261Y-47677D01*
X66242Y-47705D01*
X66222Y-47720D01*
X66184Y-47734D01*
X66070Y-47734D01*
X66032Y-47720D01*
X66013Y-47705D01*
X65994Y-47677D01*
X65994Y-47634D01*
X66013Y-47848D02*
X65994Y-47877D01*
X65994Y-47934D01*
X66013Y-47963D01*
X66051Y-47977D01*
X66070Y-47977D01*
X66108Y-47963D01*
X66127Y-47934D01*
X66127Y-47891D01*
X66146Y-47863D01*
X66184Y-47848D01*
X66203Y-47848D01*
X66242Y-47863D01*
X66261Y-47891D01*
X66261Y-47934D01*
X66242Y-47963D01*
G54D10*
X69321Y-58112D02*
X69321Y-63309D01*
X69321Y-63309D02*
X63830Y-63309D01*
X63830Y-58112D02*
X69321Y-58112D01*
G54D14*
X70471Y-61573D02*
X70471Y-59467D01*
X71771Y-59467D02*
X71771Y-61573D01*
X71771Y-61573D02*
X70471Y-61573D01*
X71771Y-59467D02*
X70471Y-59467D01*
X71321Y-59460D02*
X71321Y-59660D01*
X71321Y-59660D02*
X70921Y-59660D01*
X70921Y-59660D02*
X70921Y-59460D01*
G54D15*
X71871Y-61910D02*
X71871Y-61710D01*
X71871Y-61710D02*
X71571Y-61710D01*
X71571Y-61710D02*
X71571Y-61910D01*
X71871Y-62110D02*
X71871Y-62310D01*
X71871Y-62310D02*
X71571Y-62310D01*
X71571Y-62310D02*
X71571Y-62110D01*
X71971Y-62110D02*
X71971Y-62310D01*
X71971Y-62310D02*
X72271Y-62310D01*
X72271Y-62310D02*
X72271Y-62110D01*
X71971Y-61910D02*
X71971Y-61710D01*
X71971Y-61710D02*
X72271Y-61710D01*
X72271Y-61710D02*
X72271Y-61910D01*
X70271Y-61910D02*
X70271Y-61710D01*
X70271Y-61710D02*
X69971Y-61710D01*
X69971Y-61710D02*
X69971Y-61910D01*
X70271Y-62110D02*
X70271Y-62310D01*
X70271Y-62310D02*
X69971Y-62310D01*
X69971Y-62310D02*
X69971Y-62110D01*
X71471Y-61910D02*
X71471Y-61710D01*
X71471Y-61710D02*
X71171Y-61710D01*
X71171Y-61710D02*
X71171Y-61910D01*
X71471Y-62110D02*
X71471Y-62310D01*
X71471Y-62310D02*
X71171Y-62310D01*
X71171Y-62310D02*
X71171Y-62110D01*
X70671Y-61910D02*
X70671Y-61710D01*
X70671Y-61710D02*
X70371Y-61710D01*
X70371Y-61710D02*
X70371Y-61910D01*
X70671Y-62110D02*
X70671Y-62310D01*
X70671Y-62310D02*
X70371Y-62310D01*
X70371Y-62310D02*
X70371Y-62110D01*
X71071Y-61910D02*
X71071Y-61710D01*
X71071Y-61710D02*
X70771Y-61710D01*
X70771Y-61710D02*
X70771Y-61910D01*
X71071Y-62110D02*
X71071Y-62310D01*
X71071Y-62310D02*
X70771Y-62310D01*
X70771Y-62310D02*
X70771Y-62110D01*
X71021Y-59060D02*
X70821Y-59060D01*
X70821Y-59060D02*
X70821Y-59360D01*
X70821Y-59360D02*
X71021Y-59360D01*
X71221Y-59060D02*
X71421Y-59060D01*
X71421Y-59060D02*
X71421Y-59360D01*
X71421Y-59360D02*
X71221Y-59360D01*
G54D10*
X77248Y-58683D02*
X77248Y-62738D01*
X77248Y-62738D02*
X73193Y-62738D01*
X73193Y-62738D02*
X73193Y-58683D01*
X73193Y-58683D02*
X77248Y-58683D01*
G54D14*
X71700Y-55003D02*
X71700Y-52803D01*
X71700Y-52803D02*
X71750Y-52803D01*
X73900Y-53003D02*
X73900Y-55003D01*
X73900Y-55003D02*
X71700Y-55003D01*
X71750Y-52803D02*
X73700Y-52803D01*
X73700Y-52803D02*
X73900Y-53003D01*
G54D16*
X73786Y-53016D02*
G75*
G03X73786Y-53016I-99J0D01*
G74*
G01*
G54D17*
X77800Y-51903D02*
X77800Y-51903D01*
X76800Y-51903D02*
X77800Y-51903D01*
X77800Y-51903D02*
X77800Y-51903D01*
X77800Y-51903D02*
X77800Y-55903D01*
X77800Y-55903D02*
X76800Y-55903D01*
X76800Y-55903D02*
X76800Y-51903D01*
X76800Y-52903D02*
X77800Y-52903D01*
G54D14*
X76150Y-53303D02*
X76150Y-54003D01*
X76150Y-54003D02*
X74950Y-54003D01*
X74950Y-54003D02*
X74950Y-53303D01*
X74950Y-53303D02*
X76150Y-53303D01*
X74550Y-51953D02*
X74550Y-52853D01*
X74550Y-52853D02*
X75200Y-52853D01*
X75900Y-51953D02*
X76550Y-51953D01*
X76550Y-51953D02*
X76550Y-52853D01*
X76550Y-52853D02*
X75900Y-52853D01*
X75200Y-51953D02*
X74550Y-51953D01*
G54D15*
X74450Y-53803D02*
X74250Y-53803D01*
X74250Y-53803D02*
X74250Y-54103D01*
X74250Y-54103D02*
X74450Y-54103D01*
X74650Y-53803D02*
X74850Y-53803D01*
X74850Y-53803D02*
X74850Y-54103D01*
X74850Y-54103D02*
X74650Y-54103D01*
X72750Y-52253D02*
X72750Y-52453D01*
X72750Y-52453D02*
X73050Y-52453D01*
X73050Y-52453D02*
X73050Y-52253D01*
X72750Y-52053D02*
X72750Y-51853D01*
X72750Y-51853D02*
X73050Y-51853D01*
X73050Y-51853D02*
X73050Y-52053D01*
X72650Y-52303D02*
X72650Y-52103D01*
X72650Y-52103D02*
X72350Y-52103D01*
X72350Y-52103D02*
X72350Y-52303D01*
X72650Y-52503D02*
X72650Y-52703D01*
X72650Y-52703D02*
X72350Y-52703D01*
X72350Y-52703D02*
X72350Y-52503D01*
X74650Y-53303D02*
X74850Y-53303D01*
X74850Y-53303D02*
X74850Y-53003D01*
X74850Y-53003D02*
X74650Y-53003D01*
X74450Y-53303D02*
X74250Y-53303D01*
X74250Y-53303D02*
X74250Y-53003D01*
X74250Y-53003D02*
X74450Y-53003D01*
X74450Y-53403D02*
X74250Y-53403D01*
X74250Y-53403D02*
X74250Y-53703D01*
X74250Y-53703D02*
X74450Y-53703D01*
X74650Y-53403D02*
X74850Y-53403D01*
X74850Y-53403D02*
X74850Y-53703D01*
X74850Y-53703D02*
X74650Y-53703D01*
X73150Y-52253D02*
X73150Y-52453D01*
X73150Y-52453D02*
X73450Y-52453D01*
X73450Y-52453D02*
X73450Y-52253D01*
X73150Y-52053D02*
X73150Y-51853D01*
X73150Y-51853D02*
X73450Y-51853D01*
X73450Y-51853D02*
X73450Y-52053D01*
X76550Y-53603D02*
X76550Y-53403D01*
X76550Y-53403D02*
X76250Y-53403D01*
X76250Y-53403D02*
X76250Y-53603D01*
X76550Y-53803D02*
X76550Y-54003D01*
X76550Y-54003D02*
X76250Y-54003D01*
X76250Y-54003D02*
X76250Y-53803D01*
X71750Y-55103D02*
X71550Y-55103D01*
X71550Y-55103D02*
X71550Y-55403D01*
X71550Y-55403D02*
X71750Y-55403D01*
X71950Y-55103D02*
X72150Y-55103D01*
X72150Y-55103D02*
X72150Y-55403D01*
X72150Y-55403D02*
X71950Y-55403D01*
X73950Y-52253D02*
X73950Y-52453D01*
X73950Y-52453D02*
X74250Y-52453D01*
X74250Y-52453D02*
X74250Y-52253D01*
X73950Y-52053D02*
X73950Y-51853D01*
X73950Y-51853D02*
X74250Y-51853D01*
X74250Y-51853D02*
X74250Y-52053D01*
X71750Y-55553D02*
X71550Y-55553D01*
X71550Y-55553D02*
X71550Y-55853D01*
X71550Y-55853D02*
X71750Y-55853D01*
X71950Y-55553D02*
X72150Y-55553D01*
X72150Y-55553D02*
X72150Y-55853D01*
X72150Y-55853D02*
X71950Y-55853D01*
X71850Y-52253D02*
X71850Y-52053D01*
X71850Y-52053D02*
X71550Y-52053D01*
X71550Y-52053D02*
X71550Y-52253D01*
X71850Y-52453D02*
X71850Y-52653D01*
X71850Y-52653D02*
X71550Y-52653D01*
X71550Y-52653D02*
X71550Y-52453D01*
X73550Y-52253D02*
X73550Y-52453D01*
X73550Y-52453D02*
X73850Y-52453D01*
X73850Y-52453D02*
X73850Y-52253D01*
X73550Y-52053D02*
X73550Y-51853D01*
X73550Y-51853D02*
X73850Y-51853D01*
X73850Y-51853D02*
X73850Y-52053D01*
X75650Y-54803D02*
X75650Y-54603D01*
X75650Y-54603D02*
X75350Y-54603D01*
X75350Y-54603D02*
X75350Y-54803D01*
X75650Y-55003D02*
X75650Y-55203D01*
X75650Y-55203D02*
X75350Y-55203D01*
X75350Y-55203D02*
X75350Y-55003D01*
X74950Y-55703D02*
X74950Y-55903D01*
X74950Y-55903D02*
X75250Y-55903D01*
X75250Y-55903D02*
X75250Y-55703D01*
X74950Y-55503D02*
X74950Y-55303D01*
X74950Y-55303D02*
X75250Y-55303D01*
X75250Y-55303D02*
X75250Y-55503D01*
X75250Y-54803D02*
X75250Y-54603D01*
X75250Y-54603D02*
X74950Y-54603D01*
X74950Y-54603D02*
X74950Y-54803D01*
X75250Y-55003D02*
X75250Y-55203D01*
X75250Y-55203D02*
X74950Y-55203D01*
X74950Y-55203D02*
X74950Y-55003D01*
X76050Y-54803D02*
X76050Y-54603D01*
X76050Y-54603D02*
X75750Y-54603D01*
X75750Y-54603D02*
X75750Y-54803D01*
X76050Y-55003D02*
X76050Y-55203D01*
X76050Y-55203D02*
X75750Y-55203D01*
X75750Y-55203D02*
X75750Y-55003D01*
X75750Y-55703D02*
X75750Y-55903D01*
X75750Y-55903D02*
X76050Y-55903D01*
X76050Y-55903D02*
X76050Y-55703D01*
X75750Y-55503D02*
X75750Y-55303D01*
X75750Y-55303D02*
X76050Y-55303D01*
X76050Y-55303D02*
X76050Y-55503D01*
X75650Y-55503D02*
X75650Y-55303D01*
X75650Y-55303D02*
X75350Y-55303D01*
X75350Y-55303D02*
X75350Y-55503D01*
X75650Y-55703D02*
X75650Y-55903D01*
X75650Y-55903D02*
X75350Y-55903D01*
X75350Y-55903D02*
X75350Y-55703D01*
G54D10*
X71050Y-55403D02*
X69550Y-55403D01*
X71050Y-54403D02*
X69550Y-54403D01*
X71050Y-53403D02*
X69550Y-53403D01*
X71050Y-52403D02*
X69550Y-52403D01*
X69550Y-54903D02*
X68550Y-54903D01*
X69550Y-53903D02*
X68550Y-53903D01*
X69550Y-52903D02*
X68550Y-52903D01*
X69550Y-51903D02*
X69550Y-55903D01*
X69550Y-55903D02*
X68550Y-55903D01*
X68550Y-55903D02*
X68550Y-51903D01*
X68550Y-51903D02*
X69550Y-51903D01*
G54D14*
X64270Y-52795D02*
X64270Y-54995D01*
X64270Y-54995D02*
X64220Y-54995D01*
X62070Y-54795D02*
X62070Y-52795D01*
X62070Y-52795D02*
X64270Y-52795D01*
X64220Y-54995D02*
X62270Y-54995D01*
X62270Y-54995D02*
X62070Y-54795D01*
G54D16*
X62382Y-54782D02*
G75*
G03X62382Y-54782I-99J0D01*
G74*
G01*
G54D17*
X58170Y-55895D02*
X58170Y-55895D01*
X59170Y-55895D02*
X58170Y-55895D01*
X58170Y-55895D02*
X58170Y-55895D01*
X58170Y-55895D02*
X58170Y-51895D01*
X58170Y-51895D02*
X59170Y-51895D01*
X59170Y-51895D02*
X59170Y-55895D01*
X59170Y-54895D02*
X58170Y-54895D01*
G54D14*
X59820Y-54495D02*
X59820Y-53795D01*
X59820Y-53795D02*
X61020Y-53795D01*
X61020Y-53795D02*
X61020Y-54495D01*
X61020Y-54495D02*
X59820Y-54495D01*
X61420Y-55845D02*
X61420Y-54945D01*
X61420Y-54945D02*
X60770Y-54945D01*
X60070Y-55845D02*
X59420Y-55845D01*
X59420Y-55845D02*
X59420Y-54945D01*
X59420Y-54945D02*
X60070Y-54945D01*
X60770Y-55845D02*
X61420Y-55845D01*
G54D15*
X61520Y-53995D02*
X61720Y-53995D01*
X61720Y-53995D02*
X61720Y-53695D01*
X61720Y-53695D02*
X61520Y-53695D01*
X61320Y-53995D02*
X61120Y-53995D01*
X61120Y-53995D02*
X61120Y-53695D01*
X61120Y-53695D02*
X61320Y-53695D01*
X63220Y-55545D02*
X63220Y-55345D01*
X63220Y-55345D02*
X62920Y-55345D01*
X62920Y-55345D02*
X62920Y-55545D01*
X63220Y-55745D02*
X63220Y-55945D01*
X63220Y-55945D02*
X62920Y-55945D01*
X62920Y-55945D02*
X62920Y-55745D01*
X63320Y-55495D02*
X63320Y-55695D01*
X63320Y-55695D02*
X63620Y-55695D01*
X63620Y-55695D02*
X63620Y-55495D01*
X63320Y-55295D02*
X63320Y-55095D01*
X63320Y-55095D02*
X63620Y-55095D01*
X63620Y-55095D02*
X63620Y-55295D01*
X61320Y-54495D02*
X61120Y-54495D01*
X61120Y-54495D02*
X61120Y-54795D01*
X61120Y-54795D02*
X61320Y-54795D01*
X61520Y-54495D02*
X61720Y-54495D01*
X61720Y-54495D02*
X61720Y-54795D01*
X61720Y-54795D02*
X61520Y-54795D01*
X61520Y-54395D02*
X61720Y-54395D01*
X61720Y-54395D02*
X61720Y-54095D01*
X61720Y-54095D02*
X61520Y-54095D01*
X61320Y-54395D02*
X61120Y-54395D01*
X61120Y-54395D02*
X61120Y-54095D01*
X61120Y-54095D02*
X61320Y-54095D01*
X62820Y-55545D02*
X62820Y-55345D01*
X62820Y-55345D02*
X62520Y-55345D01*
X62520Y-55345D02*
X62520Y-55545D01*
X62820Y-55745D02*
X62820Y-55945D01*
X62820Y-55945D02*
X62520Y-55945D01*
X62520Y-55945D02*
X62520Y-55745D01*
X59420Y-54195D02*
X59420Y-54395D01*
X59420Y-54395D02*
X59720Y-54395D01*
X59720Y-54395D02*
X59720Y-54195D01*
X59420Y-53995D02*
X59420Y-53795D01*
X59420Y-53795D02*
X59720Y-53795D01*
X59720Y-53795D02*
X59720Y-53995D01*
X64220Y-52695D02*
X64420Y-52695D01*
X64420Y-52695D02*
X64420Y-52395D01*
X64420Y-52395D02*
X64220Y-52395D01*
X64020Y-52695D02*
X63820Y-52695D01*
X63820Y-52695D02*
X63820Y-52395D01*
X63820Y-52395D02*
X64020Y-52395D01*
X62020Y-55545D02*
X62020Y-55345D01*
X62020Y-55345D02*
X61720Y-55345D01*
X61720Y-55345D02*
X61720Y-55545D01*
X62020Y-55745D02*
X62020Y-55945D01*
X62020Y-55945D02*
X61720Y-55945D01*
X61720Y-55945D02*
X61720Y-55745D01*
X64220Y-52245D02*
X64420Y-52245D01*
X64420Y-52245D02*
X64420Y-51945D01*
X64420Y-51945D02*
X64220Y-51945D01*
X64020Y-52245D02*
X63820Y-52245D01*
X63820Y-52245D02*
X63820Y-51945D01*
X63820Y-51945D02*
X64020Y-51945D01*
X64120Y-55545D02*
X64120Y-55745D01*
X64120Y-55745D02*
X64420Y-55745D01*
X64420Y-55745D02*
X64420Y-55545D01*
X64120Y-55345D02*
X64120Y-55145D01*
X64120Y-55145D02*
X64420Y-55145D01*
X64420Y-55145D02*
X64420Y-55345D01*
X62420Y-55545D02*
X62420Y-55345D01*
X62420Y-55345D02*
X62120Y-55345D01*
X62120Y-55345D02*
X62120Y-55545D01*
X62420Y-55745D02*
X62420Y-55945D01*
X62420Y-55945D02*
X62120Y-55945D01*
X62120Y-55945D02*
X62120Y-55745D01*
X60320Y-52995D02*
X60320Y-53195D01*
X60320Y-53195D02*
X60620Y-53195D01*
X60620Y-53195D02*
X60620Y-52995D01*
X60320Y-52795D02*
X60320Y-52595D01*
X60320Y-52595D02*
X60620Y-52595D01*
X60620Y-52595D02*
X60620Y-52795D01*
X61020Y-52095D02*
X61020Y-51895D01*
X61020Y-51895D02*
X60720Y-51895D01*
X60720Y-51895D02*
X60720Y-52095D01*
X61020Y-52295D02*
X61020Y-52495D01*
X61020Y-52495D02*
X60720Y-52495D01*
X60720Y-52495D02*
X60720Y-52295D01*
X60720Y-52995D02*
X60720Y-53195D01*
X60720Y-53195D02*
X61020Y-53195D01*
X61020Y-53195D02*
X61020Y-52995D01*
X60720Y-52795D02*
X60720Y-52595D01*
X60720Y-52595D02*
X61020Y-52595D01*
X61020Y-52595D02*
X61020Y-52795D01*
X59920Y-52995D02*
X59920Y-53195D01*
X59920Y-53195D02*
X60220Y-53195D01*
X60220Y-53195D02*
X60220Y-52995D01*
X59920Y-52795D02*
X59920Y-52595D01*
X59920Y-52595D02*
X60220Y-52595D01*
X60220Y-52595D02*
X60220Y-52795D01*
X60220Y-52095D02*
X60220Y-51895D01*
X60220Y-51895D02*
X59920Y-51895D01*
X59920Y-51895D02*
X59920Y-52095D01*
X60220Y-52295D02*
X60220Y-52495D01*
X60220Y-52495D02*
X59920Y-52495D01*
X59920Y-52495D02*
X59920Y-52295D01*
X60320Y-52295D02*
X60320Y-52495D01*
X60320Y-52495D02*
X60620Y-52495D01*
X60620Y-52495D02*
X60620Y-52295D01*
X60320Y-52095D02*
X60320Y-51895D01*
X60320Y-51895D02*
X60620Y-51895D01*
X60620Y-51895D02*
X60620Y-52095D01*
G54D10*
X64920Y-52395D02*
X66420Y-52395D01*
X64920Y-53395D02*
X66420Y-53395D01*
X64920Y-54395D02*
X66420Y-54395D01*
X64920Y-55395D02*
X66420Y-55395D01*
X66420Y-52895D02*
X67420Y-52895D01*
X66420Y-53895D02*
X67420Y-53895D01*
X66420Y-54895D02*
X67420Y-54895D01*
X66420Y-55895D02*
X66420Y-51895D01*
X66420Y-51895D02*
X67420Y-51895D01*
X67420Y-51895D02*
X67420Y-55895D01*
X67420Y-55895D02*
X66420Y-55895D01*
G54D18*
X67106Y-44848D02*
X66806Y-44848D01*
X66806Y-44848D02*
X66806Y-48248D01*
X66806Y-48248D02*
X67106Y-48248D01*
X68306Y-44848D02*
X68306Y-48248D01*
X72106Y-44848D02*
X72106Y-48248D01*
X67106Y-48248D02*
X72106Y-48248D01*
X67106Y-44848D02*
X72106Y-44848D01*
G54D14*
X64147Y-49348D02*
G75*
G03X64147Y-49348I-141J0D01*
G74*
G01*
X62906Y-49548D02*
X62906Y-49248D01*
X62906Y-49248D02*
X63406Y-49248D01*
X63406Y-49248D02*
X63406Y-49548D01*
X64206Y-45498D02*
X64206Y-49548D01*
X62106Y-49548D02*
X62106Y-45498D01*
X62106Y-49548D02*
X64206Y-49548D01*
X62106Y-45498D02*
X64206Y-45498D01*
X65606Y-44748D02*
X65906Y-44948D01*
X64906Y-44748D02*
X65931Y-44748D01*
X65931Y-44748D02*
X65931Y-45348D01*
X65931Y-45348D02*
X64906Y-45348D01*
X64906Y-45348D02*
X64906Y-44748D01*
X73406Y-47648D02*
G75*
G03X73406Y-47648I-50J0D01*
G74*
G01*
X73356Y-48098D02*
X73356Y-47698D01*
X73356Y-47698D02*
X73956Y-47698D01*
X73956Y-47698D02*
X73956Y-48098D01*
X73956Y-48498D02*
X73956Y-48898D01*
X73956Y-48898D02*
X73356Y-48898D01*
X73356Y-48898D02*
X73356Y-48498D01*
X63856Y-45048D02*
X62956Y-45048D01*
X62956Y-45048D02*
X62956Y-44548D01*
X62956Y-44548D02*
X63856Y-44548D01*
X63856Y-44548D02*
X63856Y-45048D01*
X61656Y-44348D02*
X61656Y-45248D01*
X61656Y-45248D02*
X61156Y-45248D01*
X61156Y-45248D02*
X61156Y-44348D01*
X61156Y-44348D02*
X61656Y-44348D01*
X59606Y-44898D02*
X58706Y-44898D01*
X58706Y-44898D02*
X58706Y-44398D01*
X58706Y-44398D02*
X59606Y-44398D01*
X59606Y-44398D02*
X59606Y-44898D01*
X58706Y-45798D02*
X59606Y-45798D01*
X59606Y-45798D02*
X59606Y-46298D01*
X59606Y-46298D02*
X58706Y-46298D01*
X58706Y-46298D02*
X58706Y-45798D01*
X59606Y-47698D02*
X58706Y-47698D01*
X58706Y-47698D02*
X58706Y-47198D01*
X58706Y-47198D02*
X59606Y-47198D01*
X59606Y-47198D02*
X59606Y-47698D01*
X59606Y-49098D02*
X58706Y-49098D01*
X58706Y-49098D02*
X58706Y-48598D01*
X58706Y-48598D02*
X59606Y-48598D01*
X59606Y-48598D02*
X59606Y-49098D01*
G54D19*
X59333Y-47871D02*
X59333Y-48225D01*
X59333Y-48225D02*
X59490Y-48225D01*
X59490Y-47871D02*
X59490Y-48225D01*
X59333Y-47871D02*
X59490Y-47871D01*
X58822Y-47871D02*
X58822Y-48225D01*
X58822Y-48225D02*
X58979Y-48225D01*
X58979Y-47871D02*
X58979Y-48225D01*
X58822Y-47871D02*
X58979Y-47871D01*
X59156Y-47871D02*
X59156Y-47930D01*
X59156Y-47930D02*
X59274Y-47930D01*
X59274Y-47871D02*
X59274Y-47930D01*
X59156Y-47871D02*
X59274Y-47871D01*
X59156Y-48166D02*
X59156Y-48225D01*
X59156Y-48225D02*
X59274Y-48225D01*
X59274Y-48166D02*
X59274Y-48225D01*
X59156Y-48166D02*
X59274Y-48166D01*
X59156Y-47989D02*
X59156Y-48107D01*
X59156Y-48107D02*
X59274Y-48107D01*
X59274Y-47989D02*
X59274Y-48107D01*
X59156Y-47989D02*
X59274Y-47989D01*
G54D20*
X59333Y-47891D02*
X58979Y-47891D01*
X59333Y-48205D02*
X58979Y-48205D01*
G54D19*
X59333Y-49271D02*
X59333Y-49625D01*
X59333Y-49625D02*
X59490Y-49625D01*
X59490Y-49271D02*
X59490Y-49625D01*
X59333Y-49271D02*
X59490Y-49271D01*
X58822Y-49271D02*
X58822Y-49625D01*
X58822Y-49625D02*
X58979Y-49625D01*
X58979Y-49271D02*
X58979Y-49625D01*
X58822Y-49271D02*
X58979Y-49271D01*
X59156Y-49271D02*
X59156Y-49330D01*
X59156Y-49330D02*
X59274Y-49330D01*
X59274Y-49271D02*
X59274Y-49330D01*
X59156Y-49271D02*
X59274Y-49271D01*
X59156Y-49566D02*
X59156Y-49625D01*
X59156Y-49625D02*
X59274Y-49625D01*
X59274Y-49566D02*
X59274Y-49625D01*
X59156Y-49566D02*
X59274Y-49566D01*
X59156Y-49389D02*
X59156Y-49507D01*
X59156Y-49507D02*
X59274Y-49507D01*
X59274Y-49389D02*
X59274Y-49507D01*
X59156Y-49389D02*
X59274Y-49389D01*
G54D20*
X59333Y-49291D02*
X58979Y-49291D01*
X59333Y-49605D02*
X58979Y-49605D01*
G54D19*
X59333Y-45071D02*
X59333Y-45425D01*
X59333Y-45425D02*
X59490Y-45425D01*
X59490Y-45071D02*
X59490Y-45425D01*
X59333Y-45071D02*
X59490Y-45071D01*
X58822Y-45071D02*
X58822Y-45425D01*
X58822Y-45425D02*
X58979Y-45425D01*
X58979Y-45071D02*
X58979Y-45425D01*
X58822Y-45071D02*
X58979Y-45071D01*
X59156Y-45071D02*
X59156Y-45130D01*
X59156Y-45130D02*
X59274Y-45130D01*
X59274Y-45071D02*
X59274Y-45130D01*
X59156Y-45071D02*
X59274Y-45071D01*
X59156Y-45366D02*
X59156Y-45425D01*
X59156Y-45425D02*
X59274Y-45425D01*
X59274Y-45366D02*
X59274Y-45425D01*
X59156Y-45366D02*
X59274Y-45366D01*
X59156Y-45189D02*
X59156Y-45307D01*
X59156Y-45307D02*
X59274Y-45307D01*
X59274Y-45189D02*
X59274Y-45307D01*
X59156Y-45189D02*
X59274Y-45189D01*
G54D20*
X59333Y-45091D02*
X58979Y-45091D01*
X59333Y-45405D02*
X58979Y-45405D01*
G54D19*
X59333Y-46471D02*
X59333Y-46825D01*
X59333Y-46825D02*
X59490Y-46825D01*
X59490Y-46471D02*
X59490Y-46825D01*
X59333Y-46471D02*
X59490Y-46471D01*
X58822Y-46471D02*
X58822Y-46825D01*
X58822Y-46825D02*
X58979Y-46825D01*
X58979Y-46471D02*
X58979Y-46825D01*
X58822Y-46471D02*
X58979Y-46471D01*
X59156Y-46471D02*
X59156Y-46530D01*
X59156Y-46530D02*
X59274Y-46530D01*
X59274Y-46471D02*
X59274Y-46530D01*
X59156Y-46471D02*
X59274Y-46471D01*
X59156Y-46766D02*
X59156Y-46825D01*
X59156Y-46825D02*
X59274Y-46825D01*
X59274Y-46766D02*
X59274Y-46825D01*
X59156Y-46766D02*
X59274Y-46766D01*
X59156Y-46589D02*
X59156Y-46707D01*
X59156Y-46707D02*
X59274Y-46707D01*
X59274Y-46589D02*
X59274Y-46707D01*
X59156Y-46589D02*
X59274Y-46589D01*
G54D20*
X59333Y-46491D02*
X58979Y-46491D01*
X59333Y-46805D02*
X58979Y-46805D01*
G54D21*
X69742Y-58832D02*
X69442Y-58832D01*
X69442Y-58717D01*
X69456Y-58689D01*
X69471Y-58674D01*
X69499Y-58660D01*
X69542Y-58660D01*
X69571Y-58674D01*
X69585Y-58689D01*
X69599Y-58717D01*
X69599Y-58832D01*
X69742Y-58374D02*
X69742Y-58546D01*
X69742Y-58460D02*
X69442Y-58460D01*
X69485Y-58489D01*
X69514Y-58517D01*
X69528Y-58546D01*
X70092Y-59032D02*
X70092Y-59274D01*
X70106Y-59303D01*
X70121Y-59317D01*
X70149Y-59332D01*
X70206Y-59332D01*
X70235Y-59317D01*
X70249Y-59303D01*
X70264Y-59274D01*
X70264Y-59032D01*
X70535Y-59132D02*
X70535Y-59332D01*
X70464Y-59017D02*
X70392Y-59232D01*
X70578Y-59232D01*
X71842Y-62660D02*
X71699Y-62760D01*
X71842Y-62832D02*
X71542Y-62832D01*
X71542Y-62717D01*
X71556Y-62689D01*
X71571Y-62674D01*
X71599Y-62660D01*
X71642Y-62660D01*
X71671Y-62674D01*
X71685Y-62689D01*
X71699Y-62717D01*
X71699Y-62832D01*
X71542Y-62389D02*
X71542Y-62532D01*
X71685Y-62546D01*
X71671Y-62532D01*
X71656Y-62503D01*
X71656Y-62432D01*
X71671Y-62403D01*
X71685Y-62389D01*
X71714Y-62374D01*
X71785Y-62374D01*
X71814Y-62389D01*
X71828Y-62403D01*
X71842Y-62432D01*
X71842Y-62503D01*
X71828Y-62532D01*
X71814Y-62546D01*
X72242Y-62660D02*
X72099Y-62760D01*
X72242Y-62832D02*
X71942Y-62832D01*
X71942Y-62717D01*
X71956Y-62689D01*
X71971Y-62674D01*
X71999Y-62660D01*
X72042Y-62660D01*
X72071Y-62674D01*
X72085Y-62689D01*
X72099Y-62717D01*
X72099Y-62832D01*
X72042Y-62403D02*
X72242Y-62403D01*
X71928Y-62474D02*
X72142Y-62546D01*
X72142Y-62360D01*
X70242Y-62660D02*
X70099Y-62760D01*
X70242Y-62832D02*
X69942Y-62832D01*
X69942Y-62717D01*
X69956Y-62689D01*
X69971Y-62674D01*
X69999Y-62660D01*
X70042Y-62660D01*
X70071Y-62674D01*
X70085Y-62689D01*
X70099Y-62717D01*
X70099Y-62832D01*
X69971Y-62546D02*
X69956Y-62532D01*
X69942Y-62503D01*
X69942Y-62432D01*
X69956Y-62403D01*
X69971Y-62389D01*
X69999Y-62374D01*
X70028Y-62374D01*
X70071Y-62389D01*
X70242Y-62560D01*
X70242Y-62374D01*
X71414Y-62660D02*
X71428Y-62674D01*
X71442Y-62717D01*
X71442Y-62746D01*
X71428Y-62789D01*
X71399Y-62817D01*
X71371Y-62832D01*
X71314Y-62846D01*
X71271Y-62846D01*
X71214Y-62832D01*
X71185Y-62817D01*
X71156Y-62789D01*
X71142Y-62746D01*
X71142Y-62717D01*
X71156Y-62674D01*
X71171Y-62660D01*
X71142Y-62403D02*
X71142Y-62460D01*
X71156Y-62489D01*
X71171Y-62503D01*
X71214Y-62532D01*
X71271Y-62546D01*
X71385Y-62546D01*
X71414Y-62532D01*
X71428Y-62517D01*
X71442Y-62489D01*
X71442Y-62432D01*
X71428Y-62403D01*
X71414Y-62389D01*
X71385Y-62374D01*
X71314Y-62374D01*
X71285Y-62389D01*
X71271Y-62403D01*
X71256Y-62432D01*
X71256Y-62489D01*
X71271Y-62517D01*
X71285Y-62532D01*
X71314Y-62546D01*
X70614Y-62660D02*
X70628Y-62674D01*
X70642Y-62717D01*
X70642Y-62746D01*
X70628Y-62789D01*
X70599Y-62817D01*
X70571Y-62832D01*
X70514Y-62846D01*
X70471Y-62846D01*
X70414Y-62832D01*
X70385Y-62817D01*
X70356Y-62789D01*
X70342Y-62746D01*
X70342Y-62717D01*
X70356Y-62674D01*
X70371Y-62660D01*
X70342Y-62389D02*
X70342Y-62532D01*
X70485Y-62546D01*
X70471Y-62532D01*
X70456Y-62503D01*
X70456Y-62432D01*
X70471Y-62403D01*
X70485Y-62389D01*
X70514Y-62374D01*
X70585Y-62374D01*
X70614Y-62389D01*
X70628Y-62403D01*
X70642Y-62432D01*
X70642Y-62503D01*
X70628Y-62532D01*
X70614Y-62546D01*
X71042Y-62660D02*
X70899Y-62760D01*
X71042Y-62832D02*
X70742Y-62832D01*
X70742Y-62717D01*
X70756Y-62689D01*
X70771Y-62674D01*
X70799Y-62660D01*
X70842Y-62660D01*
X70871Y-62674D01*
X70885Y-62689D01*
X70899Y-62717D01*
X70899Y-62832D01*
X70742Y-62560D02*
X70742Y-62374D01*
X70856Y-62474D01*
X70856Y-62432D01*
X70871Y-62403D01*
X70885Y-62389D01*
X70914Y-62374D01*
X70985Y-62374D01*
X71014Y-62389D01*
X71028Y-62403D01*
X71042Y-62432D01*
X71042Y-62517D01*
X71028Y-62546D01*
X71014Y-62560D01*
X71071Y-58903D02*
X71056Y-58917D01*
X71014Y-58932D01*
X70985Y-58932D01*
X70942Y-58917D01*
X70914Y-58889D01*
X70899Y-58860D01*
X70885Y-58803D01*
X70885Y-58760D01*
X70899Y-58703D01*
X70914Y-58674D01*
X70942Y-58646D01*
X70985Y-58632D01*
X71014Y-58632D01*
X71056Y-58646D01*
X71071Y-58660D01*
X71328Y-58732D02*
X71328Y-58932D01*
X71256Y-58617D02*
X71185Y-58832D01*
X71371Y-58832D01*
X72692Y-59060D02*
X72692Y-59203D01*
X72392Y-59203D01*
X72692Y-58803D02*
X72692Y-58974D01*
X72692Y-58889D02*
X72392Y-58889D01*
X72435Y-58917D01*
X72464Y-58946D01*
X72478Y-58974D01*
X75101Y-61108D02*
X75101Y-60923D01*
X75216Y-61023D01*
X75216Y-60980D01*
X75230Y-60951D01*
X75244Y-60937D01*
X75273Y-60923D01*
X75344Y-60923D01*
X75373Y-60937D01*
X75387Y-60951D01*
X75401Y-60980D01*
X75401Y-61066D01*
X75387Y-61094D01*
X75373Y-61108D01*
X75101Y-60823D02*
X75101Y-60637D01*
X75216Y-60737D01*
X75216Y-60694D01*
X75230Y-60666D01*
X75244Y-60651D01*
X75273Y-60637D01*
X75344Y-60637D01*
X75373Y-60651D01*
X75387Y-60666D01*
X75401Y-60694D01*
X75401Y-60780D01*
X75387Y-60808D01*
X75373Y-60823D01*
X75201Y-60380D02*
X75401Y-60380D01*
X75201Y-60508D02*
X75358Y-60508D01*
X75387Y-60494D01*
X75401Y-60466D01*
X75401Y-60423D01*
X75387Y-60394D01*
X75373Y-60380D01*
X73171Y-55074D02*
X73171Y-55317D01*
X73185Y-55346D01*
X73200Y-55360D01*
X73228Y-55374D01*
X73285Y-55374D01*
X73314Y-55360D01*
X73328Y-55346D01*
X73342Y-55317D01*
X73342Y-55074D01*
X73642Y-55374D02*
X73471Y-55374D01*
X73557Y-55374D02*
X73557Y-55074D01*
X73528Y-55117D01*
X73500Y-55146D01*
X73471Y-55160D01*
X75321Y-52974D02*
X75321Y-53217D01*
X75335Y-53246D01*
X75350Y-53260D01*
X75378Y-53274D01*
X75435Y-53274D01*
X75464Y-53260D01*
X75478Y-53246D01*
X75492Y-53217D01*
X75492Y-52974D01*
X75621Y-53003D02*
X75635Y-52988D01*
X75664Y-52974D01*
X75735Y-52974D01*
X75764Y-52988D01*
X75778Y-53003D01*
X75792Y-53031D01*
X75792Y-53060D01*
X75778Y-53103D01*
X75607Y-53274D01*
X75792Y-53274D01*
X74707Y-51924D02*
X74607Y-51781D01*
X74535Y-51924D02*
X74535Y-51624D01*
X74650Y-51624D01*
X74678Y-51638D01*
X74692Y-51653D01*
X74707Y-51681D01*
X74707Y-51724D01*
X74692Y-51753D01*
X74678Y-51767D01*
X74650Y-51781D01*
X74535Y-51781D01*
X74992Y-51924D02*
X74821Y-51924D01*
X74907Y-51924D02*
X74907Y-51624D01*
X74878Y-51667D01*
X74850Y-51696D01*
X74821Y-51710D01*
X75178Y-51624D02*
X75207Y-51624D01*
X75235Y-51638D01*
X75250Y-51653D01*
X75264Y-51681D01*
X75278Y-51738D01*
X75278Y-51810D01*
X75264Y-51867D01*
X75250Y-51896D01*
X75235Y-51910D01*
X75207Y-51924D01*
X75178Y-51924D01*
X75150Y-51910D01*
X75135Y-51896D01*
X75121Y-51867D01*
X75107Y-51810D01*
X75107Y-51738D01*
X75121Y-51681D01*
X75135Y-51653D01*
X75150Y-51638D01*
X75178Y-51624D01*
X74200Y-54424D02*
X74100Y-54281D01*
X74028Y-54424D02*
X74028Y-54124D01*
X74142Y-54124D01*
X74171Y-54138D01*
X74185Y-54153D01*
X74200Y-54181D01*
X74200Y-54224D01*
X74185Y-54253D01*
X74171Y-54267D01*
X74142Y-54281D01*
X74028Y-54281D01*
X74342Y-54424D02*
X74400Y-54424D01*
X74428Y-54410D01*
X74442Y-54396D01*
X74471Y-54353D01*
X74485Y-54296D01*
X74485Y-54181D01*
X74471Y-54153D01*
X74457Y-54138D01*
X74428Y-54124D01*
X74371Y-54124D01*
X74342Y-54138D01*
X74328Y-54153D01*
X74314Y-54181D01*
X74314Y-54253D01*
X74328Y-54281D01*
X74342Y-54296D01*
X74371Y-54310D01*
X74428Y-54310D01*
X74457Y-54296D01*
X74471Y-54281D01*
X74485Y-54253D01*
X72921Y-51646D02*
X72778Y-51746D01*
X72921Y-51817D02*
X72621Y-51817D01*
X72621Y-51703D01*
X72635Y-51674D01*
X72650Y-51660D01*
X72678Y-51646D01*
X72721Y-51646D01*
X72750Y-51660D01*
X72764Y-51674D01*
X72778Y-51703D01*
X72778Y-51817D01*
X72921Y-51360D02*
X72921Y-51531D01*
X72921Y-51446D02*
X72621Y-51446D01*
X72664Y-51474D01*
X72692Y-51503D01*
X72707Y-51531D01*
X72650Y-51246D02*
X72635Y-51231D01*
X72621Y-51203D01*
X72621Y-51131D01*
X72635Y-51103D01*
X72650Y-51088D01*
X72678Y-51074D01*
X72707Y-51074D01*
X72750Y-51088D01*
X72921Y-51260D01*
X72921Y-51074D01*
X72271Y-52596D02*
X72128Y-52696D01*
X72271Y-52767D02*
X71971Y-52767D01*
X71971Y-52653D01*
X71985Y-52624D01*
X72000Y-52610D01*
X72028Y-52596D01*
X72071Y-52596D01*
X72100Y-52610D01*
X72114Y-52624D01*
X72128Y-52653D01*
X72128Y-52767D01*
X72271Y-52310D02*
X72271Y-52481D01*
X72271Y-52396D02*
X71971Y-52396D01*
X72014Y-52424D01*
X72042Y-52453D01*
X72057Y-52481D01*
X72271Y-52024D02*
X72271Y-52196D01*
X72271Y-52110D02*
X71971Y-52110D01*
X72014Y-52138D01*
X72042Y-52167D01*
X72057Y-52196D01*
X74192Y-53253D02*
X74207Y-53267D01*
X74221Y-53310D01*
X74221Y-53338D01*
X74207Y-53381D01*
X74178Y-53410D01*
X74150Y-53424D01*
X74092Y-53438D01*
X74050Y-53438D01*
X73992Y-53424D01*
X73964Y-53410D01*
X73935Y-53381D01*
X73921Y-53338D01*
X73921Y-53310D01*
X73935Y-53267D01*
X73950Y-53253D01*
X73921Y-53153D02*
X73921Y-52953D01*
X74221Y-53081D01*
X74192Y-53803D02*
X74207Y-53817D01*
X74221Y-53860D01*
X74221Y-53888D01*
X74207Y-53931D01*
X74178Y-53960D01*
X74150Y-53974D01*
X74092Y-53988D01*
X74050Y-53988D01*
X73992Y-53974D01*
X73964Y-53960D01*
X73935Y-53931D01*
X73921Y-53888D01*
X73921Y-53860D01*
X73935Y-53817D01*
X73950Y-53803D01*
X73921Y-53531D02*
X73921Y-53674D01*
X74064Y-53688D01*
X74050Y-53674D01*
X74035Y-53646D01*
X74035Y-53574D01*
X74050Y-53546D01*
X74064Y-53531D01*
X74092Y-53517D01*
X74164Y-53517D01*
X74192Y-53531D01*
X74207Y-53546D01*
X74221Y-53574D01*
X74221Y-53646D01*
X74207Y-53674D01*
X74192Y-53688D01*
X73250Y-52746D02*
X73235Y-52760D01*
X73192Y-52774D01*
X73164Y-52774D01*
X73121Y-52760D01*
X73092Y-52731D01*
X73078Y-52703D01*
X73064Y-52646D01*
X73064Y-52603D01*
X73078Y-52546D01*
X73092Y-52517D01*
X73121Y-52488D01*
X73164Y-52474D01*
X73192Y-52474D01*
X73235Y-52488D01*
X73250Y-52503D01*
X73507Y-52474D02*
X73450Y-52474D01*
X73421Y-52488D01*
X73407Y-52503D01*
X73378Y-52546D01*
X73364Y-52603D01*
X73364Y-52717D01*
X73378Y-52746D01*
X73392Y-52760D01*
X73421Y-52774D01*
X73478Y-52774D01*
X73507Y-52760D01*
X73521Y-52746D01*
X73535Y-52717D01*
X73535Y-52646D01*
X73521Y-52617D01*
X73507Y-52603D01*
X73478Y-52588D01*
X73421Y-52588D01*
X73392Y-52603D01*
X73378Y-52617D01*
X73364Y-52646D01*
X76350Y-54346D02*
X76335Y-54360D01*
X76292Y-54374D01*
X76264Y-54374D01*
X76221Y-54360D01*
X76192Y-54331D01*
X76178Y-54303D01*
X76164Y-54246D01*
X76164Y-54203D01*
X76178Y-54146D01*
X76192Y-54117D01*
X76221Y-54088D01*
X76264Y-54074D01*
X76292Y-54074D01*
X76335Y-54088D01*
X76350Y-54103D01*
X76607Y-54174D02*
X76607Y-54374D01*
X76535Y-54060D02*
X76464Y-54274D01*
X76650Y-54274D01*
X72400Y-55346D02*
X72385Y-55360D01*
X72342Y-55374D01*
X72314Y-55374D01*
X72271Y-55360D01*
X72242Y-55331D01*
X72228Y-55303D01*
X72214Y-55246D01*
X72214Y-55203D01*
X72228Y-55146D01*
X72242Y-55117D01*
X72271Y-55088D01*
X72314Y-55074D01*
X72342Y-55074D01*
X72385Y-55088D01*
X72400Y-55103D01*
X72500Y-55074D02*
X72685Y-55074D01*
X72585Y-55188D01*
X72628Y-55188D01*
X72657Y-55203D01*
X72671Y-55217D01*
X72685Y-55246D01*
X72685Y-55317D01*
X72671Y-55346D01*
X72657Y-55360D01*
X72628Y-55374D01*
X72542Y-55374D01*
X72514Y-55360D01*
X72500Y-55346D01*
X74100Y-52746D02*
X74085Y-52760D01*
X74042Y-52774D01*
X74014Y-52774D01*
X73971Y-52760D01*
X73942Y-52731D01*
X73928Y-52703D01*
X73914Y-52646D01*
X73914Y-52603D01*
X73928Y-52546D01*
X73942Y-52517D01*
X73971Y-52488D01*
X74014Y-52474D01*
X74042Y-52474D01*
X74085Y-52488D01*
X74100Y-52503D01*
X74385Y-52774D02*
X74214Y-52774D01*
X74300Y-52774D02*
X74300Y-52474D01*
X74271Y-52517D01*
X74242Y-52546D01*
X74214Y-52560D01*
X72400Y-55824D02*
X72300Y-55681D01*
X72228Y-55824D02*
X72228Y-55524D01*
X72342Y-55524D01*
X72371Y-55538D01*
X72385Y-55553D01*
X72400Y-55581D01*
X72400Y-55624D01*
X72385Y-55653D01*
X72371Y-55667D01*
X72342Y-55681D01*
X72228Y-55681D01*
X72500Y-55524D02*
X72700Y-55524D01*
X72571Y-55824D01*
X71650Y-52024D02*
X71550Y-51881D01*
X71478Y-52024D02*
X71478Y-51724D01*
X71592Y-51724D01*
X71621Y-51738D01*
X71635Y-51753D01*
X71650Y-51781D01*
X71650Y-51824D01*
X71635Y-51853D01*
X71621Y-51867D01*
X71592Y-51881D01*
X71478Y-51881D01*
X71821Y-51853D02*
X71792Y-51838D01*
X71778Y-51824D01*
X71764Y-51796D01*
X71764Y-51781D01*
X71778Y-51753D01*
X71792Y-51738D01*
X71821Y-51724D01*
X71878Y-51724D01*
X71907Y-51738D01*
X71921Y-51753D01*
X71935Y-51781D01*
X71935Y-51796D01*
X71921Y-51824D01*
X71907Y-51838D01*
X71878Y-51853D01*
X71821Y-51853D01*
X71792Y-51867D01*
X71778Y-51881D01*
X71764Y-51910D01*
X71764Y-51967D01*
X71778Y-51996D01*
X71792Y-52010D01*
X71821Y-52024D01*
X71878Y-52024D01*
X71907Y-52010D01*
X71921Y-51996D01*
X71935Y-51967D01*
X71935Y-51910D01*
X71921Y-51881D01*
X71907Y-51867D01*
X71878Y-51853D01*
X73892Y-51603D02*
X73907Y-51617D01*
X73921Y-51660D01*
X73921Y-51688D01*
X73907Y-51731D01*
X73878Y-51760D01*
X73850Y-51774D01*
X73792Y-51788D01*
X73750Y-51788D01*
X73692Y-51774D01*
X73664Y-51760D01*
X73635Y-51731D01*
X73621Y-51688D01*
X73621Y-51660D01*
X73635Y-51617D01*
X73650Y-51603D01*
X73650Y-51488D02*
X73635Y-51474D01*
X73621Y-51446D01*
X73621Y-51374D01*
X73635Y-51346D01*
X73650Y-51331D01*
X73678Y-51317D01*
X73707Y-51317D01*
X73750Y-51331D01*
X73921Y-51503D01*
X73921Y-51317D01*
X75450Y-54624D02*
X75350Y-54481D01*
X75278Y-54624D02*
X75278Y-54324D01*
X75392Y-54324D01*
X75421Y-54338D01*
X75435Y-54353D01*
X75450Y-54381D01*
X75450Y-54424D01*
X75435Y-54453D01*
X75421Y-54467D01*
X75392Y-54481D01*
X75278Y-54481D01*
X75735Y-54624D02*
X75564Y-54624D01*
X75650Y-54624D02*
X75650Y-54324D01*
X75621Y-54367D01*
X75592Y-54396D01*
X75564Y-54410D01*
X74871Y-55653D02*
X74728Y-55753D01*
X74871Y-55824D02*
X74571Y-55824D01*
X74571Y-55710D01*
X74585Y-55681D01*
X74600Y-55667D01*
X74628Y-55653D01*
X74671Y-55653D01*
X74700Y-55667D01*
X74714Y-55681D01*
X74728Y-55710D01*
X74728Y-55824D01*
X74671Y-55396D02*
X74871Y-55396D01*
X74557Y-55467D02*
X74771Y-55538D01*
X74771Y-55353D01*
X74871Y-54953D02*
X74728Y-55053D01*
X74871Y-55124D02*
X74571Y-55124D01*
X74571Y-55010D01*
X74585Y-54981D01*
X74600Y-54967D01*
X74628Y-54953D01*
X74671Y-54953D01*
X74700Y-54967D01*
X74714Y-54981D01*
X74728Y-55010D01*
X74728Y-55124D01*
X74571Y-54853D02*
X74571Y-54667D01*
X74685Y-54767D01*
X74685Y-54724D01*
X74700Y-54696D01*
X74714Y-54681D01*
X74742Y-54667D01*
X74814Y-54667D01*
X74842Y-54681D01*
X74857Y-54696D01*
X74871Y-54724D01*
X74871Y-54810D01*
X74857Y-54838D01*
X74842Y-54853D01*
X76421Y-54953D02*
X76278Y-55053D01*
X76421Y-55124D02*
X76121Y-55124D01*
X76121Y-55010D01*
X76135Y-54981D01*
X76150Y-54967D01*
X76178Y-54953D01*
X76221Y-54953D01*
X76250Y-54967D01*
X76264Y-54981D01*
X76278Y-55010D01*
X76278Y-55124D01*
X76150Y-54838D02*
X76135Y-54824D01*
X76121Y-54796D01*
X76121Y-54724D01*
X76135Y-54696D01*
X76150Y-54681D01*
X76178Y-54667D01*
X76207Y-54667D01*
X76250Y-54681D01*
X76421Y-54853D01*
X76421Y-54667D01*
X76571Y-55653D02*
X76428Y-55753D01*
X76571Y-55824D02*
X76271Y-55824D01*
X76271Y-55710D01*
X76285Y-55681D01*
X76300Y-55667D01*
X76328Y-55653D01*
X76371Y-55653D01*
X76400Y-55667D01*
X76414Y-55681D01*
X76428Y-55710D01*
X76428Y-55824D01*
X76271Y-55396D02*
X76271Y-55453D01*
X76285Y-55481D01*
X76300Y-55496D01*
X76342Y-55524D01*
X76400Y-55538D01*
X76514Y-55538D01*
X76542Y-55524D01*
X76557Y-55510D01*
X76571Y-55481D01*
X76571Y-55424D01*
X76557Y-55396D01*
X76542Y-55381D01*
X76514Y-55367D01*
X76442Y-55367D01*
X76414Y-55381D01*
X76400Y-55396D01*
X76385Y-55424D01*
X76385Y-55481D01*
X76400Y-55510D01*
X76414Y-55524D01*
X76442Y-55538D01*
X75500Y-56224D02*
X75400Y-56081D01*
X75328Y-56224D02*
X75328Y-55924D01*
X75442Y-55924D01*
X75471Y-55938D01*
X75485Y-55953D01*
X75500Y-55981D01*
X75500Y-56024D01*
X75485Y-56053D01*
X75471Y-56067D01*
X75442Y-56081D01*
X75328Y-56081D01*
X75771Y-55924D02*
X75628Y-55924D01*
X75614Y-56067D01*
X75628Y-56053D01*
X75657Y-56038D01*
X75728Y-56038D01*
X75757Y-56053D01*
X75771Y-56067D01*
X75785Y-56096D01*
X75785Y-56167D01*
X75771Y-56196D01*
X75757Y-56210D01*
X75728Y-56224D01*
X75657Y-56224D01*
X75628Y-56210D01*
X75614Y-56196D01*
X69742Y-52160D02*
X69785Y-52174D01*
X69857Y-52174D01*
X69885Y-52160D01*
X69900Y-52146D01*
X69914Y-52117D01*
X69914Y-52088D01*
X69900Y-52060D01*
X69885Y-52046D01*
X69857Y-52031D01*
X69800Y-52017D01*
X69771Y-52003D01*
X69757Y-51988D01*
X69742Y-51960D01*
X69742Y-51931D01*
X69757Y-51903D01*
X69771Y-51888D01*
X69800Y-51874D01*
X69871Y-51874D01*
X69914Y-51888D01*
X70014Y-51874D02*
X70085Y-52174D01*
X70142Y-51960D01*
X70200Y-52174D01*
X70271Y-51874D01*
X70385Y-52174D02*
X70385Y-51874D01*
X70457Y-51874D01*
X70500Y-51888D01*
X70528Y-51917D01*
X70542Y-51946D01*
X70557Y-52003D01*
X70557Y-52046D01*
X70542Y-52103D01*
X70528Y-52131D01*
X70500Y-52160D01*
X70457Y-52174D01*
X70385Y-52174D01*
X62341Y-52366D02*
X62341Y-52609D01*
X62356Y-52638D01*
X62370Y-52652D01*
X62399Y-52666D01*
X62456Y-52666D01*
X62484Y-52652D01*
X62499Y-52638D01*
X62513Y-52609D01*
X62513Y-52366D01*
X62813Y-52666D02*
X62641Y-52666D01*
X62727Y-52666D02*
X62727Y-52366D01*
X62699Y-52409D01*
X62670Y-52438D01*
X62641Y-52452D01*
X60191Y-54466D02*
X60191Y-54709D01*
X60206Y-54738D01*
X60220Y-54752D01*
X60249Y-54766D01*
X60306Y-54766D01*
X60334Y-54752D01*
X60349Y-54738D01*
X60363Y-54709D01*
X60363Y-54466D01*
X60491Y-54495D02*
X60506Y-54480D01*
X60534Y-54466D01*
X60606Y-54466D01*
X60634Y-54480D01*
X60649Y-54495D01*
X60663Y-54523D01*
X60663Y-54552D01*
X60649Y-54595D01*
X60477Y-54766D01*
X60663Y-54766D01*
X60877Y-56116D02*
X60777Y-55973D01*
X60706Y-56116D02*
X60706Y-55816D01*
X60820Y-55816D01*
X60849Y-55830D01*
X60863Y-55845D01*
X60877Y-55873D01*
X60877Y-55916D01*
X60863Y-55945D01*
X60849Y-55959D01*
X60820Y-55973D01*
X60706Y-55973D01*
X61163Y-56116D02*
X60991Y-56116D01*
X61077Y-56116D02*
X61077Y-55816D01*
X61049Y-55859D01*
X61020Y-55888D01*
X60991Y-55902D01*
X61349Y-55816D02*
X61377Y-55816D01*
X61406Y-55830D01*
X61420Y-55845D01*
X61434Y-55873D01*
X61449Y-55930D01*
X61449Y-56002D01*
X61434Y-56059D01*
X61420Y-56088D01*
X61406Y-56102D01*
X61377Y-56116D01*
X61349Y-56116D01*
X61320Y-56102D01*
X61306Y-56088D01*
X61291Y-56059D01*
X61277Y-56002D01*
X61277Y-55930D01*
X61291Y-55873D01*
X61306Y-55845D01*
X61320Y-55830D01*
X61349Y-55816D01*
X61670Y-53616D02*
X61570Y-53473D01*
X61499Y-53616D02*
X61499Y-53316D01*
X61613Y-53316D01*
X61641Y-53330D01*
X61656Y-53345D01*
X61670Y-53373D01*
X61670Y-53416D01*
X61656Y-53445D01*
X61641Y-53459D01*
X61613Y-53473D01*
X61499Y-53473D01*
X61813Y-53616D02*
X61870Y-53616D01*
X61899Y-53602D01*
X61913Y-53588D01*
X61941Y-53545D01*
X61956Y-53488D01*
X61956Y-53373D01*
X61941Y-53345D01*
X61927Y-53330D01*
X61899Y-53316D01*
X61841Y-53316D01*
X61813Y-53330D01*
X61799Y-53345D01*
X61784Y-53373D01*
X61784Y-53445D01*
X61799Y-53473D01*
X61813Y-53488D01*
X61841Y-53502D01*
X61899Y-53502D01*
X61927Y-53488D01*
X61941Y-53473D01*
X61956Y-53445D01*
X63291Y-56538D02*
X63149Y-56638D01*
X63291Y-56709D02*
X62991Y-56709D01*
X62991Y-56595D01*
X63006Y-56566D01*
X63020Y-56552D01*
X63049Y-56538D01*
X63091Y-56538D01*
X63120Y-56552D01*
X63134Y-56566D01*
X63149Y-56595D01*
X63149Y-56709D01*
X63291Y-56252D02*
X63291Y-56423D01*
X63291Y-56338D02*
X62991Y-56338D01*
X63034Y-56366D01*
X63063Y-56395D01*
X63077Y-56423D01*
X63020Y-56138D02*
X63006Y-56123D01*
X62991Y-56095D01*
X62991Y-56023D01*
X63006Y-55995D01*
X63020Y-55980D01*
X63049Y-55966D01*
X63077Y-55966D01*
X63120Y-55980D01*
X63291Y-56152D01*
X63291Y-55966D01*
X63941Y-55588D02*
X63799Y-55688D01*
X63941Y-55759D02*
X63641Y-55759D01*
X63641Y-55645D01*
X63656Y-55616D01*
X63670Y-55602D01*
X63699Y-55588D01*
X63741Y-55588D01*
X63770Y-55602D01*
X63784Y-55616D01*
X63799Y-55645D01*
X63799Y-55759D01*
X63941Y-55302D02*
X63941Y-55473D01*
X63941Y-55388D02*
X63641Y-55388D01*
X63684Y-55416D01*
X63713Y-55445D01*
X63727Y-55473D01*
X63941Y-55016D02*
X63941Y-55188D01*
X63941Y-55102D02*
X63641Y-55102D01*
X63684Y-55130D01*
X63713Y-55159D01*
X63727Y-55188D01*
X61963Y-54645D02*
X61977Y-54659D01*
X61991Y-54702D01*
X61991Y-54730D01*
X61977Y-54773D01*
X61949Y-54802D01*
X61920Y-54816D01*
X61863Y-54830D01*
X61820Y-54830D01*
X61763Y-54816D01*
X61734Y-54802D01*
X61706Y-54773D01*
X61691Y-54730D01*
X61691Y-54702D01*
X61706Y-54659D01*
X61720Y-54645D01*
X61691Y-54545D02*
X61691Y-54345D01*
X61991Y-54473D01*
X61963Y-54095D02*
X61977Y-54109D01*
X61991Y-54152D01*
X61991Y-54180D01*
X61977Y-54223D01*
X61949Y-54252D01*
X61920Y-54266D01*
X61863Y-54280D01*
X61820Y-54280D01*
X61763Y-54266D01*
X61734Y-54252D01*
X61706Y-54223D01*
X61691Y-54180D01*
X61691Y-54152D01*
X61706Y-54109D01*
X61720Y-54095D01*
X61691Y-53823D02*
X61691Y-53966D01*
X61834Y-53980D01*
X61820Y-53966D01*
X61806Y-53938D01*
X61806Y-53866D01*
X61820Y-53838D01*
X61834Y-53823D01*
X61863Y-53809D01*
X61934Y-53809D01*
X61963Y-53823D01*
X61977Y-53838D01*
X61991Y-53866D01*
X61991Y-53938D01*
X61977Y-53966D01*
X61963Y-53980D01*
X62620Y-55238D02*
X62606Y-55252D01*
X62563Y-55266D01*
X62534Y-55266D01*
X62491Y-55252D01*
X62463Y-55223D01*
X62449Y-55195D01*
X62434Y-55138D01*
X62434Y-55095D01*
X62449Y-55038D01*
X62463Y-55009D01*
X62491Y-54980D01*
X62534Y-54966D01*
X62563Y-54966D01*
X62606Y-54980D01*
X62620Y-54995D01*
X62877Y-54966D02*
X62820Y-54966D01*
X62791Y-54980D01*
X62777Y-54995D01*
X62749Y-55038D01*
X62734Y-55095D01*
X62734Y-55209D01*
X62749Y-55238D01*
X62763Y-55252D01*
X62791Y-55266D01*
X62849Y-55266D01*
X62877Y-55252D01*
X62891Y-55238D01*
X62906Y-55209D01*
X62906Y-55138D01*
X62891Y-55109D01*
X62877Y-55095D01*
X62849Y-55080D01*
X62791Y-55080D01*
X62763Y-55095D01*
X62749Y-55109D01*
X62734Y-55138D01*
X59520Y-53638D02*
X59506Y-53652D01*
X59463Y-53666D01*
X59434Y-53666D01*
X59391Y-53652D01*
X59363Y-53623D01*
X59349Y-53595D01*
X59334Y-53538D01*
X59334Y-53495D01*
X59349Y-53438D01*
X59363Y-53409D01*
X59391Y-53380D01*
X59434Y-53366D01*
X59463Y-53366D01*
X59506Y-53380D01*
X59520Y-53395D01*
X59777Y-53466D02*
X59777Y-53666D01*
X59706Y-53352D02*
X59634Y-53566D01*
X59820Y-53566D01*
X63470Y-52638D02*
X63456Y-52652D01*
X63413Y-52666D01*
X63384Y-52666D01*
X63341Y-52652D01*
X63313Y-52623D01*
X63299Y-52595D01*
X63284Y-52538D01*
X63284Y-52495D01*
X63299Y-52438D01*
X63313Y-52409D01*
X63341Y-52380D01*
X63384Y-52366D01*
X63413Y-52366D01*
X63456Y-52380D01*
X63470Y-52395D01*
X63570Y-52366D02*
X63756Y-52366D01*
X63656Y-52480D01*
X63699Y-52480D01*
X63727Y-52495D01*
X63741Y-52509D01*
X63756Y-52538D01*
X63756Y-52609D01*
X63741Y-52638D01*
X63727Y-52652D01*
X63699Y-52666D01*
X63613Y-52666D01*
X63584Y-52652D01*
X63570Y-52638D01*
X61770Y-55238D02*
X61756Y-55252D01*
X61713Y-55266D01*
X61684Y-55266D01*
X61641Y-55252D01*
X61613Y-55223D01*
X61599Y-55195D01*
X61584Y-55138D01*
X61584Y-55095D01*
X61599Y-55038D01*
X61613Y-55009D01*
X61641Y-54980D01*
X61684Y-54966D01*
X61713Y-54966D01*
X61756Y-54980D01*
X61770Y-54995D01*
X62056Y-55266D02*
X61884Y-55266D01*
X61970Y-55266D02*
X61970Y-54966D01*
X61941Y-55009D01*
X61913Y-55038D01*
X61884Y-55052D01*
X63470Y-52216D02*
X63370Y-52073D01*
X63299Y-52216D02*
X63299Y-51916D01*
X63413Y-51916D01*
X63441Y-51930D01*
X63456Y-51945D01*
X63470Y-51973D01*
X63470Y-52016D01*
X63456Y-52045D01*
X63441Y-52059D01*
X63413Y-52073D01*
X63299Y-52073D01*
X63570Y-51916D02*
X63770Y-51916D01*
X63641Y-52216D01*
X64220Y-56016D02*
X64120Y-55873D01*
X64049Y-56016D02*
X64049Y-55716D01*
X64163Y-55716D01*
X64191Y-55730D01*
X64206Y-55745D01*
X64220Y-55773D01*
X64220Y-55816D01*
X64206Y-55845D01*
X64191Y-55859D01*
X64163Y-55873D01*
X64049Y-55873D01*
X64391Y-55845D02*
X64363Y-55830D01*
X64349Y-55816D01*
X64334Y-55788D01*
X64334Y-55773D01*
X64349Y-55745D01*
X64363Y-55730D01*
X64391Y-55716D01*
X64449Y-55716D01*
X64477Y-55730D01*
X64491Y-55745D01*
X64506Y-55773D01*
X64506Y-55788D01*
X64491Y-55816D01*
X64477Y-55830D01*
X64449Y-55845D01*
X64391Y-55845D01*
X64363Y-55859D01*
X64349Y-55873D01*
X64334Y-55902D01*
X64334Y-55959D01*
X64349Y-55988D01*
X64363Y-56002D01*
X64391Y-56016D01*
X64449Y-56016D01*
X64477Y-56002D01*
X64491Y-55988D01*
X64506Y-55959D01*
X64506Y-55902D01*
X64491Y-55873D01*
X64477Y-55859D01*
X64449Y-55845D01*
X62263Y-56295D02*
X62277Y-56309D01*
X62291Y-56352D01*
X62291Y-56380D01*
X62277Y-56423D01*
X62249Y-56452D01*
X62220Y-56466D01*
X62163Y-56480D01*
X62120Y-56480D01*
X62063Y-56466D01*
X62034Y-56452D01*
X62006Y-56423D01*
X61991Y-56380D01*
X61991Y-56352D01*
X62006Y-56309D01*
X62020Y-56295D01*
X62020Y-56180D02*
X62006Y-56166D01*
X61991Y-56138D01*
X61991Y-56066D01*
X62006Y-56038D01*
X62020Y-56023D01*
X62049Y-56009D01*
X62077Y-56009D01*
X62120Y-56023D01*
X62291Y-56195D01*
X62291Y-56009D01*
X60420Y-53416D02*
X60320Y-53273D01*
X60249Y-53416D02*
X60249Y-53116D01*
X60363Y-53116D01*
X60391Y-53130D01*
X60406Y-53145D01*
X60420Y-53173D01*
X60420Y-53216D01*
X60406Y-53245D01*
X60391Y-53259D01*
X60363Y-53273D01*
X60249Y-53273D01*
X60706Y-53416D02*
X60534Y-53416D01*
X60620Y-53416D02*
X60620Y-53116D01*
X60591Y-53159D01*
X60563Y-53188D01*
X60534Y-53202D01*
X61341Y-52245D02*
X61199Y-52345D01*
X61341Y-52416D02*
X61041Y-52416D01*
X61041Y-52302D01*
X61056Y-52273D01*
X61070Y-52259D01*
X61099Y-52245D01*
X61141Y-52245D01*
X61170Y-52259D01*
X61184Y-52273D01*
X61199Y-52302D01*
X61199Y-52416D01*
X61141Y-51988D02*
X61341Y-51988D01*
X61027Y-52059D02*
X61241Y-52130D01*
X61241Y-51945D01*
X61341Y-52945D02*
X61199Y-53045D01*
X61341Y-53116D02*
X61041Y-53116D01*
X61041Y-53002D01*
X61056Y-52973D01*
X61070Y-52959D01*
X61099Y-52945D01*
X61141Y-52945D01*
X61170Y-52959D01*
X61184Y-52973D01*
X61199Y-53002D01*
X61199Y-53116D01*
X61041Y-52845D02*
X61041Y-52659D01*
X61156Y-52759D01*
X61156Y-52716D01*
X61170Y-52688D01*
X61184Y-52673D01*
X61213Y-52659D01*
X61284Y-52659D01*
X61313Y-52673D01*
X61327Y-52688D01*
X61341Y-52716D01*
X61341Y-52802D01*
X61327Y-52830D01*
X61313Y-52845D01*
X59791Y-52945D02*
X59649Y-53045D01*
X59791Y-53116D02*
X59491Y-53116D01*
X59491Y-53002D01*
X59506Y-52973D01*
X59520Y-52959D01*
X59549Y-52945D01*
X59591Y-52945D01*
X59620Y-52959D01*
X59634Y-52973D01*
X59649Y-53002D01*
X59649Y-53116D01*
X59520Y-52830D02*
X59506Y-52816D01*
X59491Y-52788D01*
X59491Y-52716D01*
X59506Y-52688D01*
X59520Y-52673D01*
X59549Y-52659D01*
X59577Y-52659D01*
X59620Y-52673D01*
X59791Y-52845D01*
X59791Y-52659D01*
X59641Y-52245D02*
X59499Y-52345D01*
X59641Y-52416D02*
X59341Y-52416D01*
X59341Y-52302D01*
X59356Y-52273D01*
X59370Y-52259D01*
X59399Y-52245D01*
X59441Y-52245D01*
X59470Y-52259D01*
X59484Y-52273D01*
X59499Y-52302D01*
X59499Y-52416D01*
X59341Y-51988D02*
X59341Y-52045D01*
X59356Y-52073D01*
X59370Y-52088D01*
X59413Y-52116D01*
X59470Y-52130D01*
X59584Y-52130D01*
X59613Y-52116D01*
X59627Y-52102D01*
X59641Y-52073D01*
X59641Y-52016D01*
X59627Y-51988D01*
X59613Y-51973D01*
X59584Y-51959D01*
X59513Y-51959D01*
X59484Y-51973D01*
X59470Y-51988D01*
X59456Y-52016D01*
X59456Y-52073D01*
X59470Y-52102D01*
X59484Y-52116D01*
X59513Y-52130D01*
X60370Y-51816D02*
X60270Y-51673D01*
X60199Y-51816D02*
X60199Y-51516D01*
X60313Y-51516D01*
X60341Y-51530D01*
X60356Y-51545D01*
X60370Y-51573D01*
X60370Y-51616D01*
X60356Y-51645D01*
X60341Y-51659D01*
X60313Y-51673D01*
X60199Y-51673D01*
X60641Y-51516D02*
X60499Y-51516D01*
X60484Y-51659D01*
X60499Y-51645D01*
X60527Y-51630D01*
X60599Y-51630D01*
X60627Y-51645D01*
X60641Y-51659D01*
X60656Y-51688D01*
X60656Y-51759D01*
X60641Y-51788D01*
X60627Y-51802D01*
X60599Y-51816D01*
X60527Y-51816D01*
X60499Y-51802D01*
X60484Y-51788D01*
X65413Y-55852D02*
X65456Y-55866D01*
X65527Y-55866D01*
X65556Y-55852D01*
X65570Y-55838D01*
X65584Y-55809D01*
X65584Y-55780D01*
X65570Y-55752D01*
X65556Y-55738D01*
X65527Y-55723D01*
X65470Y-55709D01*
X65441Y-55695D01*
X65427Y-55680D01*
X65413Y-55652D01*
X65413Y-55623D01*
X65427Y-55595D01*
X65441Y-55580D01*
X65470Y-55566D01*
X65541Y-55566D01*
X65584Y-55580D01*
X65684Y-55566D02*
X65756Y-55866D01*
X65813Y-55652D01*
X65870Y-55866D01*
X65941Y-55566D01*
X66056Y-55866D02*
X66056Y-55566D01*
X66127Y-55566D01*
X66170Y-55580D01*
X66199Y-55609D01*
X66213Y-55638D01*
X66227Y-55695D01*
X66227Y-55738D01*
X66213Y-55795D01*
X66199Y-55823D01*
X66170Y-55852D01*
X66127Y-55866D01*
X66056Y-55866D01*
G54D14*
X73033Y-48290D02*
X73045Y-48302D01*
X73057Y-48338D01*
X73057Y-48361D01*
X73045Y-48397D01*
X73021Y-48421D01*
X72997Y-48433D01*
X72950Y-48445D01*
X72914Y-48445D01*
X72867Y-48433D01*
X72843Y-48421D01*
X72819Y-48397D01*
X72807Y-48361D01*
X72807Y-48338D01*
X72819Y-48302D01*
X72831Y-48290D01*
X72914Y-48147D02*
X72902Y-48171D01*
X72890Y-48183D01*
X72867Y-48195D01*
X72855Y-48195D01*
X72831Y-48183D01*
X72819Y-48171D01*
X72807Y-48147D01*
X72807Y-48100D01*
X72819Y-48076D01*
X72831Y-48064D01*
X72855Y-48052D01*
X72867Y-48052D01*
X72890Y-48064D01*
X72902Y-48076D01*
X72914Y-48100D01*
X72914Y-48147D01*
X72926Y-48171D01*
X72938Y-48183D01*
X72962Y-48195D01*
X73009Y-48195D01*
X73033Y-48183D01*
X73045Y-48171D01*
X73057Y-48147D01*
X73057Y-48100D01*
X73045Y-48076D01*
X73033Y-48064D01*
X73009Y-48052D01*
X72962Y-48052D01*
X72938Y-48064D01*
X72926Y-48076D01*
X72914Y-48100D01*
G54D22*
X62818Y-44678D02*
X62827Y-44687D01*
X62837Y-44713D01*
X62837Y-44730D01*
X62827Y-44755D01*
X62808Y-44773D01*
X62789Y-44781D01*
X62751Y-44790D01*
X62722Y-44790D01*
X62684Y-44781D01*
X62665Y-44773D01*
X62646Y-44755D01*
X62637Y-44730D01*
X62637Y-44713D01*
X62646Y-44687D01*
X62656Y-44678D01*
X62637Y-44618D02*
X62637Y-44498D01*
X62837Y-44575D01*
X62018Y-44678D02*
X62027Y-44687D01*
X62037Y-44713D01*
X62037Y-44730D01*
X62027Y-44755D01*
X62008Y-44773D01*
X61989Y-44781D01*
X61951Y-44790D01*
X61922Y-44790D01*
X61884Y-44781D01*
X61865Y-44773D01*
X61846Y-44755D01*
X61837Y-44730D01*
X61837Y-44713D01*
X61846Y-44687D01*
X61856Y-44678D01*
X61856Y-44610D02*
X61846Y-44601D01*
X61837Y-44584D01*
X61837Y-44541D01*
X61846Y-44524D01*
X61856Y-44515D01*
X61875Y-44507D01*
X61894Y-44507D01*
X61922Y-44515D01*
X62037Y-44618D01*
X62037Y-44507D01*
G54D14*
X60137Y-48082D02*
X60042Y-48148D01*
X60137Y-48196D02*
X59937Y-48196D01*
X59937Y-48120D01*
X59946Y-48101D01*
X59956Y-48091D01*
X59975Y-48082D01*
X60003Y-48082D01*
X60022Y-48091D01*
X60032Y-48101D01*
X60042Y-48120D01*
X60042Y-48196D01*
X59937Y-48015D02*
X60137Y-47882D01*
X59937Y-47882D02*
X60137Y-48015D01*
X59937Y-49601D02*
X59937Y-49486D01*
X60137Y-49544D02*
X59937Y-49544D01*
X59937Y-49439D02*
X60137Y-49305D01*
X59937Y-49305D02*
X60137Y-49439D01*
X60137Y-45372D02*
X60137Y-45486D01*
X60137Y-45429D02*
X59937Y-45429D01*
X59965Y-45448D01*
X59984Y-45467D01*
X59994Y-45486D01*
X59956Y-45296D02*
X59946Y-45286D01*
X59937Y-45267D01*
X59937Y-45220D01*
X59946Y-45201D01*
X59956Y-45191D01*
X59975Y-45182D01*
X59994Y-45182D01*
X60022Y-45191D01*
X60137Y-45305D01*
X60137Y-45182D01*
X59937Y-45125D02*
X60137Y-45058D01*
X59937Y-44991D01*
X60137Y-46915D02*
X59937Y-46915D01*
X59937Y-46839D01*
X59946Y-46820D01*
X59956Y-46810D01*
X59975Y-46801D01*
X60003Y-46801D01*
X60022Y-46810D01*
X60032Y-46820D01*
X60042Y-46839D01*
X60042Y-46915D01*
X59937Y-46734D02*
X60137Y-46686D01*
X59994Y-46648D01*
X60137Y-46610D01*
X59937Y-46563D01*
X60137Y-46372D02*
X60042Y-46439D01*
X60137Y-46486D02*
X59937Y-46486D01*
X59937Y-46410D01*
X59946Y-46391D01*
X59956Y-46382D01*
X59975Y-46372D01*
X60003Y-46372D01*
X60022Y-46382D01*
X60032Y-46391D01*
X60042Y-46410D01*
X60042Y-46486D01*
M02*
