G04 (created by PCBNEW (2013-jul-07)-stable) date Thu 09 Jan 2014 05:47:14 AM EST*
%MOIN*%
G04 Gerber Fmt 3.4, Leading zero omitted, Abs format*
%FSLAX34Y34*%
G01*
G70*
G90*
G04 APERTURE LIST*
%ADD10C,0.00590551*%
%ADD11C,0.189*%
%ADD12R,0.189X0.189*%
%ADD13C,0.0708661*%
%ADD14R,0.12X0.065*%
%ADD15R,0.24X0.24*%
%ADD16R,0.0394X0.0315*%
%ADD17R,0.0551X0.0236*%
%ADD18R,0.05X0.1*%
%ADD19R,0.06X0.08*%
%ADD20R,0.045X0.025*%
%ADD21C,0.055*%
%ADD22R,0.063X0.0276*%
%ADD23R,0.0827X0.0276*%
%ADD24R,0.1083X0.0787*%
%ADD25R,0.0708661X0.0708661*%
%ADD26R,0.0551181X0.0826772*%
%ADD27R,0.0433071X0.0866142*%
%ADD28R,0.0314X0.0314*%
%ADD29R,0.0747X0.0747*%
%ADD30R,0.0747X0.0748*%
%ADD31R,0.0747X0.0707*%
%ADD32R,0.0629X0.0825*%
%ADD33R,0.053X0.0157*%
%ADD34R,0.144X0.08*%
%ADD35R,0.04X0.08*%
%ADD36R,0.035X0.055*%
%ADD37R,0.025X0.045*%
%ADD38R,0.05X0.05*%
%ADD39C,0.03*%
%ADD40C,0.035*%
%ADD41C,0.0240157*%
%ADD42C,0.006*%
%ADD43C,0.012*%
%ADD44C,0.02*%
%ADD45C,0.008*%
%ADD46C,0.0120079*%
%ADD47C,0.0787402*%
%ADD48C,0.00787402*%
%ADD49C,0.01*%
G04 APERTURE END LIST*
G54D10*
G54D11*
X69906Y-46548D03*
G54D12*
X72306Y-46548D03*
G54D11*
X70806Y-48548D03*
G54D13*
X67821Y-59960D03*
X68821Y-60460D03*
X67821Y-60960D03*
X68821Y-61460D03*
G54D14*
X73521Y-60360D03*
G54D15*
X71021Y-61260D03*
G54D14*
X73521Y-62160D03*
G54D16*
X73404Y-59210D03*
X72538Y-58835D03*
X72538Y-59585D03*
G54D17*
X66871Y-61460D03*
X64771Y-61460D03*
X66871Y-60960D03*
X66871Y-60460D03*
X66871Y-59960D03*
X64771Y-60960D03*
X64771Y-60460D03*
X64771Y-59960D03*
G54D18*
X70071Y-59260D03*
X71271Y-59260D03*
G54D19*
X67421Y-62710D03*
X68721Y-62710D03*
X75921Y-62360D03*
X74621Y-62360D03*
X75921Y-61410D03*
X74621Y-61410D03*
G54D20*
X74021Y-58910D03*
X74021Y-59510D03*
X71971Y-58910D03*
X71971Y-59510D03*
G54D21*
X70321Y-63210D03*
X71321Y-63210D03*
X72321Y-63210D03*
X73321Y-63210D03*
X74321Y-63210D03*
X75321Y-63210D03*
X76321Y-63210D03*
X77321Y-63210D03*
X77321Y-58210D03*
X76321Y-58210D03*
X75321Y-58210D03*
X74321Y-58210D03*
X73321Y-58210D03*
X72321Y-58210D03*
X71321Y-58210D03*
X70321Y-58210D03*
G54D22*
X74973Y-60151D03*
G54D23*
X75071Y-59560D03*
G54D22*
X74973Y-58969D03*
G54D24*
X76016Y-59560D03*
G54D25*
X77300Y-52403D03*
G54D13*
X77300Y-53403D03*
X77300Y-54403D03*
X77300Y-55403D03*
G54D26*
X71600Y-55503D03*
X71600Y-52303D03*
X69800Y-55503D03*
X69800Y-52303D03*
G54D21*
X70300Y-56403D03*
X71300Y-56403D03*
X72300Y-56403D03*
X73300Y-56403D03*
X74300Y-56403D03*
X75300Y-56403D03*
X76300Y-56403D03*
X77300Y-56403D03*
X77300Y-51403D03*
X76300Y-51403D03*
X75300Y-51403D03*
X74300Y-51403D03*
X73300Y-51403D03*
X72300Y-51403D03*
X71300Y-51403D03*
X70300Y-51403D03*
G54D27*
X73542Y-52643D03*
X73542Y-55162D03*
X72557Y-55162D03*
X72557Y-52643D03*
G54D28*
X69050Y-52048D03*
X69050Y-51458D03*
X69050Y-55758D03*
X69050Y-56348D03*
G54D25*
X58670Y-55395D03*
G54D13*
X58670Y-54395D03*
X58670Y-53395D03*
X58670Y-52395D03*
G54D26*
X64370Y-52295D03*
X64370Y-55495D03*
X66170Y-52295D03*
X66170Y-55495D03*
G54D21*
X65670Y-51395D03*
X64670Y-51395D03*
X63670Y-51395D03*
X62670Y-51395D03*
X61670Y-51395D03*
X60670Y-51395D03*
X59670Y-51395D03*
X58670Y-51395D03*
X58670Y-56395D03*
X59670Y-56395D03*
X60670Y-56395D03*
X61670Y-56395D03*
X62670Y-56395D03*
X63670Y-56395D03*
X64670Y-56395D03*
X65670Y-56395D03*
G54D27*
X62428Y-55155D03*
X62428Y-52635D03*
X63412Y-52635D03*
X63412Y-55155D03*
G54D28*
X66920Y-55750D03*
X66920Y-56340D03*
X66920Y-52040D03*
X66920Y-51450D03*
G54D29*
X58826Y-47270D03*
G54D30*
X58826Y-46326D03*
G54D31*
X58826Y-45302D03*
G54D32*
X59830Y-48018D03*
G54D33*
X59880Y-47309D03*
X59880Y-47053D03*
X59880Y-46798D03*
X59880Y-46543D03*
X59880Y-46287D03*
G54D32*
X59830Y-45578D03*
G54D31*
X58826Y-48294D03*
G54D34*
X67156Y-48348D03*
G54D35*
X67156Y-45748D03*
X68056Y-45748D03*
X66256Y-45748D03*
G54D19*
X73556Y-48298D03*
X72256Y-48298D03*
G54D36*
X62781Y-47298D03*
X63531Y-47298D03*
G54D37*
X62856Y-46298D03*
X63456Y-46298D03*
G54D20*
X65156Y-47348D03*
X65156Y-46748D03*
G54D38*
X63656Y-45048D03*
G54D21*
X66656Y-49548D03*
X67656Y-49548D03*
X68656Y-49548D03*
X69656Y-49548D03*
X70656Y-49548D03*
X71656Y-49548D03*
X72656Y-49548D03*
X73656Y-49548D03*
X73656Y-44548D03*
X72656Y-44548D03*
X71656Y-44548D03*
X70656Y-44548D03*
X69656Y-44548D03*
X68656Y-44548D03*
X67656Y-44548D03*
X66656Y-44548D03*
G54D39*
X75921Y-62360D03*
X75646Y-61010D03*
X75921Y-61410D03*
X76196Y-61010D03*
X76071Y-61885D03*
X75771Y-61885D03*
X72150Y-52103D03*
X75300Y-52703D03*
X75550Y-53703D03*
X75500Y-55253D03*
X63820Y-55695D03*
X60670Y-55095D03*
X60420Y-54095D03*
X60470Y-52545D03*
G54D40*
X65256Y-46148D03*
G54D39*
X70400Y-52403D03*
X71550Y-54853D03*
X74000Y-52953D03*
X65570Y-55395D03*
X64420Y-52945D03*
X61970Y-54845D03*
G54D40*
X64406Y-44748D03*
X62006Y-45398D03*
G54D39*
X67346Y-61710D03*
X75900Y-53603D03*
X75900Y-55253D03*
X60070Y-54195D03*
X60070Y-52545D03*
G54D40*
X67156Y-48148D03*
X67156Y-45298D03*
G54D39*
X69521Y-59260D03*
X74750Y-54303D03*
X71500Y-53903D03*
X61220Y-53495D03*
X64470Y-53895D03*
X76250Y-55603D03*
X59720Y-52195D03*
X74100Y-52603D03*
X61870Y-55195D03*
X73050Y-52653D03*
X62920Y-55145D03*
G54D40*
X65456Y-48948D03*
G54D39*
X72800Y-56053D03*
X63170Y-51745D03*
X70350Y-53403D03*
X74250Y-55153D03*
X65620Y-54395D03*
X61720Y-52645D03*
X70600Y-54953D03*
X74100Y-55503D03*
X65370Y-52845D03*
X61870Y-52295D03*
X70150Y-52803D03*
X65820Y-54995D03*
X70400Y-55453D03*
X70721Y-59710D03*
X69571Y-62185D03*
X65570Y-52345D03*
G54D40*
X62856Y-45048D03*
X63356Y-48048D03*
X63556Y-46748D03*
X60456Y-44898D03*
G54D39*
X72896Y-61260D03*
X73496Y-61260D03*
X73196Y-61460D03*
X73196Y-61085D03*
X65821Y-61460D03*
X69550Y-56153D03*
X66420Y-51645D03*
X69600Y-51653D03*
X66370Y-56145D03*
X64771Y-60710D03*
X65821Y-61010D03*
G54D40*
X60556Y-48048D03*
X63356Y-48698D03*
X61006Y-45698D03*
X61006Y-46198D03*
X63956Y-45748D03*
X62556Y-46248D03*
X62556Y-47148D03*
X60581Y-47573D03*
G54D41*
X75921Y-61410D02*
X75921Y-61285D01*
X75921Y-61410D02*
X75921Y-61310D01*
X75771Y-61885D02*
X76071Y-61885D01*
X75921Y-61560D02*
X76071Y-61885D01*
X75921Y-61410D02*
X75921Y-61560D01*
X75921Y-61635D02*
X75771Y-61885D01*
X75921Y-61410D02*
X75921Y-61635D01*
X75921Y-61410D02*
X75921Y-61260D01*
X75321Y-58210D02*
X75321Y-58621D01*
X75321Y-58621D02*
X74973Y-58969D01*
G54D42*
X74150Y-52353D02*
X74950Y-52353D01*
X72150Y-52103D02*
X73900Y-52103D01*
X73900Y-52103D02*
X74150Y-52353D01*
X74950Y-52353D02*
X75300Y-52703D01*
G54D43*
X75550Y-55203D02*
X75550Y-53703D01*
X75550Y-55203D02*
X75500Y-55253D01*
G54D42*
X61820Y-55445D02*
X61020Y-55445D01*
X63820Y-55695D02*
X62070Y-55695D01*
X62070Y-55695D02*
X61820Y-55445D01*
X61020Y-55445D02*
X60670Y-55095D01*
G54D43*
X60420Y-52595D02*
X60420Y-54095D01*
X60420Y-52595D02*
X60470Y-52545D01*
G54D44*
X70056Y-45148D02*
X70656Y-44548D01*
G54D45*
X68056Y-45748D02*
X68056Y-46248D01*
G54D44*
X73556Y-48298D02*
X73556Y-47798D01*
X73556Y-47798D02*
X72306Y-46548D01*
G54D45*
X67856Y-46448D02*
X65556Y-46448D01*
X65556Y-46448D02*
X65256Y-46148D01*
X68056Y-46248D02*
X67856Y-46448D01*
G54D44*
X68056Y-45748D02*
X68656Y-45148D01*
X68656Y-45148D02*
X70056Y-45148D01*
G54D41*
X72538Y-58835D02*
X72046Y-58835D01*
X72046Y-58835D02*
X71971Y-58910D01*
X71321Y-58210D02*
X71321Y-58260D01*
X71321Y-58260D02*
X71971Y-58910D01*
G54D45*
X62306Y-44748D02*
X62606Y-44448D01*
X64106Y-44448D02*
X64406Y-44748D01*
X62606Y-44448D02*
X64106Y-44448D01*
X62306Y-45098D02*
X62306Y-44748D01*
X62006Y-45398D02*
X62306Y-45098D01*
G54D41*
X74021Y-58910D02*
X73796Y-58910D01*
X73496Y-59210D02*
X73404Y-59210D01*
X73796Y-58910D02*
X73496Y-59210D01*
X75071Y-59560D02*
X76016Y-59560D01*
X66871Y-61460D02*
X67096Y-61460D01*
X67096Y-61460D02*
X67346Y-61710D01*
X74021Y-58910D02*
X74121Y-58910D01*
X74771Y-59560D02*
X75071Y-59560D01*
X74121Y-58910D02*
X74771Y-59560D01*
X72321Y-58210D02*
X73321Y-58210D01*
X73321Y-58210D02*
X73321Y-59127D01*
X73321Y-59127D02*
X73404Y-59210D01*
G54D43*
X73300Y-51403D02*
X73650Y-51403D01*
X75900Y-52453D02*
X75900Y-53603D01*
X75900Y-52453D02*
X75250Y-51803D01*
X75250Y-51803D02*
X74050Y-51803D01*
X73650Y-51403D02*
X74050Y-51803D01*
X75900Y-53603D02*
X75900Y-55253D01*
X73300Y-51403D02*
X72300Y-51403D01*
X62670Y-56395D02*
X62320Y-56395D01*
X60070Y-55345D02*
X60070Y-54195D01*
X60070Y-55345D02*
X60720Y-55995D01*
X60720Y-55995D02*
X61920Y-55995D01*
X62320Y-56395D02*
X61920Y-55995D01*
X60070Y-54195D02*
X60070Y-52545D01*
X62670Y-56395D02*
X63670Y-56395D01*
G54D44*
X67156Y-48148D02*
X67156Y-48348D01*
X65156Y-47348D02*
X66156Y-48348D01*
X66156Y-48348D02*
X67156Y-48348D01*
X67156Y-45748D02*
X67156Y-45298D01*
G54D41*
X69521Y-59260D02*
X70071Y-59260D01*
G54D43*
X71500Y-53903D02*
X74350Y-53903D01*
X74350Y-53903D02*
X74750Y-54303D01*
X64470Y-53895D02*
X61620Y-53895D01*
X61620Y-53895D02*
X61220Y-53495D01*
X77300Y-54403D02*
X76250Y-55453D01*
X76250Y-55453D02*
X76250Y-55603D01*
X58670Y-53395D02*
X59720Y-52345D01*
X59720Y-52345D02*
X59720Y-52195D01*
X73542Y-52643D02*
X74059Y-52643D01*
X74059Y-52643D02*
X74100Y-52603D01*
X62428Y-55155D02*
X61910Y-55155D01*
X61910Y-55155D02*
X61870Y-55195D01*
X73050Y-52653D02*
X73050Y-53053D01*
X72557Y-55361D02*
X72557Y-55162D01*
X73150Y-55953D02*
X72557Y-55361D01*
X74500Y-55953D02*
X73150Y-55953D01*
X75200Y-55253D02*
X74500Y-55953D01*
X75200Y-53953D02*
X75200Y-55253D01*
X74700Y-53453D02*
X75200Y-53953D01*
X73450Y-53453D02*
X74700Y-53453D01*
X73050Y-53053D02*
X73450Y-53453D01*
X62920Y-55145D02*
X62920Y-54745D01*
X63412Y-52437D02*
X63412Y-52635D01*
X62820Y-51845D02*
X63412Y-52437D01*
X61470Y-51845D02*
X62820Y-51845D01*
X60770Y-52545D02*
X61470Y-51845D01*
X60770Y-53845D02*
X60770Y-52545D01*
X61270Y-54345D02*
X60770Y-53845D01*
X62520Y-54345D02*
X61270Y-54345D01*
X62920Y-54745D02*
X62520Y-54345D01*
G54D45*
X65556Y-49048D02*
X69156Y-49048D01*
X65456Y-48948D02*
X65556Y-49048D01*
X69156Y-49048D02*
X69656Y-49548D01*
G54D43*
X71650Y-56403D02*
X71300Y-56403D01*
X72100Y-55953D02*
X71650Y-56403D01*
X72700Y-55953D02*
X72100Y-55953D01*
X72800Y-56053D02*
X72700Y-55953D01*
X64320Y-51395D02*
X64670Y-51395D01*
X63870Y-51845D02*
X64320Y-51395D01*
X63270Y-51845D02*
X63870Y-51845D01*
X63170Y-51745D02*
X63270Y-51845D01*
G54D42*
X74250Y-54803D02*
X74250Y-55153D01*
X74250Y-54803D02*
X73650Y-54203D01*
X73650Y-54203D02*
X71150Y-54203D01*
X71150Y-54203D02*
X70350Y-53403D01*
X61720Y-52995D02*
X61720Y-52645D01*
X61720Y-52995D02*
X62320Y-53595D01*
X62320Y-53595D02*
X64820Y-53595D01*
X64820Y-53595D02*
X65620Y-54395D01*
X74100Y-55503D02*
X73950Y-55353D01*
X71150Y-54453D02*
X70600Y-54953D01*
X73700Y-54453D02*
X71150Y-54453D01*
X73950Y-54703D02*
X73700Y-54453D01*
X73950Y-55353D02*
X73950Y-54703D01*
X61870Y-52295D02*
X62020Y-52445D01*
X64820Y-53345D02*
X65370Y-52845D01*
X62270Y-53345D02*
X64820Y-53345D01*
X62020Y-53095D02*
X62270Y-53345D01*
X62020Y-52445D02*
X62020Y-53095D01*
G54D43*
X69800Y-52453D02*
X69800Y-52303D01*
X70150Y-52803D02*
X69800Y-52453D01*
X66170Y-55345D02*
X66170Y-55495D01*
X65820Y-54995D02*
X66170Y-55345D01*
X70400Y-55453D02*
X70450Y-55503D01*
X70450Y-55503D02*
X71600Y-55503D01*
G54D41*
X73521Y-62160D02*
X73671Y-62160D01*
X73671Y-62160D02*
X74021Y-61810D01*
X74021Y-61810D02*
X74021Y-61710D01*
X74021Y-62510D02*
X74021Y-62710D01*
X73671Y-62160D02*
X74021Y-62510D01*
X73521Y-62160D02*
X74421Y-62160D01*
X74421Y-62160D02*
X74621Y-62360D01*
X71971Y-59510D02*
X72463Y-59510D01*
X72463Y-59510D02*
X72538Y-59585D01*
X71271Y-59260D02*
X71546Y-59535D01*
X71946Y-59535D02*
X71971Y-59510D01*
X71546Y-59535D02*
X71946Y-59535D01*
G54D46*
X69571Y-62460D02*
X70321Y-63210D01*
X69571Y-62185D02*
X69571Y-62460D01*
G54D41*
X67821Y-59960D02*
X67821Y-59310D01*
X68921Y-58210D02*
X70321Y-58210D01*
X67821Y-59310D02*
X68921Y-58210D01*
X66871Y-59960D02*
X66471Y-59960D01*
X66471Y-59960D02*
X66321Y-60110D01*
X66321Y-60110D02*
X66321Y-62710D01*
X70071Y-63460D02*
X70321Y-63210D01*
X67071Y-63460D02*
X70071Y-63460D01*
X66321Y-62710D02*
X67071Y-63460D01*
X67821Y-59960D02*
X66871Y-59960D01*
G54D43*
X69050Y-56348D02*
X69155Y-56453D01*
X70250Y-56453D02*
X70300Y-56403D01*
X69155Y-56453D02*
X70250Y-56453D01*
X70200Y-51303D02*
X70300Y-51403D01*
X69205Y-51353D02*
X70200Y-51353D01*
X66920Y-51450D02*
X66815Y-51345D01*
X65720Y-51345D02*
X65670Y-51395D01*
X66815Y-51345D02*
X65720Y-51345D01*
X65770Y-56495D02*
X65670Y-56395D01*
X66765Y-56445D02*
X65770Y-56445D01*
X65570Y-52345D02*
X65520Y-52295D01*
X65520Y-52295D02*
X64370Y-52295D01*
G54D44*
X69706Y-46748D02*
X69906Y-46548D01*
G54D45*
X63531Y-47923D02*
X63481Y-47923D01*
G54D44*
X62856Y-45348D02*
X62856Y-45048D01*
X72256Y-48298D02*
X71056Y-48298D01*
X64856Y-45548D02*
X64856Y-46748D01*
X65156Y-49548D02*
X63531Y-47923D01*
X65156Y-46748D02*
X66256Y-46748D01*
X63531Y-47298D02*
X63531Y-46748D01*
G54D45*
X63481Y-47923D02*
X63356Y-48048D01*
G54D44*
X63456Y-46298D02*
X63456Y-45948D01*
X63456Y-45948D02*
X62856Y-45348D01*
X63531Y-46748D02*
X63531Y-46373D01*
X63531Y-47923D02*
X63531Y-47298D01*
G54D45*
X63556Y-46748D02*
X63531Y-46748D01*
G54D43*
X60317Y-46287D02*
X59880Y-46287D01*
X60317Y-46287D02*
X60456Y-46148D01*
X60456Y-46148D02*
X60456Y-44898D01*
G54D44*
X66256Y-45748D02*
X66256Y-44948D01*
X71056Y-48298D02*
X70806Y-48548D01*
X64856Y-46748D02*
X65156Y-46748D01*
X63531Y-46373D02*
X63456Y-46298D01*
X63531Y-46748D02*
X64856Y-46748D01*
X66256Y-45748D02*
X66056Y-45548D01*
X66656Y-49548D02*
X65156Y-49548D01*
X66056Y-45548D02*
X64856Y-45548D01*
X66256Y-44948D02*
X66656Y-44548D01*
X66256Y-46748D02*
X69706Y-46748D01*
G54D47*
X71021Y-61260D02*
X73496Y-61260D01*
G54D41*
X73496Y-61260D02*
X73474Y-61282D01*
G54D46*
X68221Y-61310D02*
X68221Y-62110D01*
X68821Y-60710D02*
X68221Y-61310D01*
X68821Y-60460D02*
X68821Y-60710D01*
X68721Y-62610D02*
X68721Y-62710D01*
X68221Y-62110D02*
X68721Y-62610D01*
X68821Y-60460D02*
X66871Y-60460D01*
G54D42*
X64771Y-61460D02*
X65821Y-61460D01*
G54D43*
X69050Y-55758D02*
X69155Y-55758D01*
X69155Y-55758D02*
X69550Y-56153D01*
X69550Y-56153D02*
X69550Y-56140D01*
X66920Y-52040D02*
X66815Y-52040D01*
X66815Y-52040D02*
X66420Y-51645D01*
X66420Y-51645D02*
X66420Y-51658D01*
X69050Y-52048D02*
X69445Y-51653D01*
X69445Y-51653D02*
X69600Y-51653D01*
X69600Y-51653D02*
X69563Y-51653D01*
X66920Y-55750D02*
X66525Y-56145D01*
X66525Y-56145D02*
X66370Y-56145D01*
X66370Y-56145D02*
X66407Y-56145D01*
G54D42*
X64771Y-60710D02*
X64771Y-60960D01*
X64771Y-60460D02*
X64771Y-60710D01*
G54D46*
X67821Y-60960D02*
X67821Y-62210D01*
X67421Y-62610D02*
X67421Y-62710D01*
X67821Y-62210D02*
X67421Y-62610D01*
X67821Y-60960D02*
X66871Y-60960D01*
G54D42*
X65821Y-61010D02*
X65821Y-60810D01*
X65821Y-60810D02*
X64971Y-59960D01*
X64771Y-59960D02*
X64971Y-59960D01*
G54D45*
X60556Y-48048D02*
X61206Y-48698D01*
X61206Y-48698D02*
X61556Y-48698D01*
X61556Y-48698D02*
X63356Y-48698D01*
X60656Y-46048D02*
X61006Y-45698D01*
X60656Y-46318D02*
X60656Y-46048D01*
X60176Y-46798D02*
X60656Y-46318D01*
X59880Y-46798D02*
X60176Y-46798D01*
X59880Y-47053D02*
X60151Y-47053D01*
X60151Y-47053D02*
X61006Y-46198D01*
X63956Y-45748D02*
X63656Y-45448D01*
X63656Y-45448D02*
X63656Y-45048D01*
X62606Y-46298D02*
X62856Y-46298D01*
X62556Y-46248D02*
X62606Y-46298D01*
G54D43*
X62706Y-47298D02*
X62781Y-47298D01*
X62556Y-47148D02*
X62706Y-47298D01*
X60467Y-47309D02*
X60581Y-47423D01*
X60581Y-47423D02*
X60581Y-47573D01*
X59880Y-47309D02*
X60467Y-47309D01*
G54D10*
G36*
X74159Y-62323D02*
X73777Y-62323D01*
X73777Y-62421D01*
X73265Y-62421D01*
X73265Y-62323D01*
X72800Y-62323D01*
X72759Y-62363D01*
X72759Y-62421D01*
X72339Y-62421D01*
X72339Y-61772D01*
X72772Y-61772D01*
X72759Y-61803D01*
X72759Y-61957D01*
X72800Y-61998D01*
X73265Y-61998D01*
X73265Y-61896D01*
X73777Y-61896D01*
X73777Y-61998D01*
X74159Y-61998D01*
X74159Y-62120D01*
X74159Y-62323D01*
X74159Y-62323D01*
G37*
G54D48*
X74159Y-62323D02*
X73777Y-62323D01*
X73777Y-62421D01*
X73265Y-62421D01*
X73265Y-62323D01*
X72800Y-62323D01*
X72759Y-62363D01*
X72759Y-62421D01*
X72339Y-62421D01*
X72339Y-61772D01*
X72772Y-61772D01*
X72759Y-61803D01*
X72759Y-61957D01*
X72800Y-61998D01*
X73265Y-61998D01*
X73265Y-61896D01*
X73777Y-61896D01*
X73777Y-61998D01*
X74159Y-61998D01*
X74159Y-62120D01*
X74159Y-62323D01*
G54D10*
G36*
X77683Y-63572D02*
X77493Y-63572D01*
X77493Y-62844D01*
X77458Y-62787D01*
X77286Y-62767D01*
X77183Y-62787D01*
X77149Y-62844D01*
X77321Y-63016D01*
X77493Y-62844D01*
X77493Y-63572D01*
X77489Y-63572D01*
X77321Y-63405D01*
X77153Y-63572D01*
X77126Y-63572D01*
X77126Y-63210D01*
X76954Y-63038D01*
X76898Y-63073D01*
X76877Y-63245D01*
X76898Y-63348D01*
X76954Y-63382D01*
X77126Y-63210D01*
X77126Y-63572D01*
X76764Y-63572D01*
X76764Y-63175D01*
X76744Y-63073D01*
X76687Y-63038D01*
X76515Y-63210D01*
X76687Y-63382D01*
X76744Y-63348D01*
X76764Y-63175D01*
X76764Y-63572D01*
X76493Y-63572D01*
X76493Y-62844D01*
X76458Y-62787D01*
X76339Y-62773D01*
X76339Y-62737D01*
X76339Y-61937D01*
X76339Y-61937D01*
X76339Y-61832D01*
X76339Y-61832D01*
X76339Y-61787D01*
X76339Y-61241D01*
X76347Y-61238D01*
X76423Y-61162D01*
X76464Y-61064D01*
X76464Y-60957D01*
X76423Y-60858D01*
X76348Y-60783D01*
X76249Y-60742D01*
X76143Y-60742D01*
X76044Y-60783D01*
X75969Y-60858D01*
X75955Y-60892D01*
X75887Y-60892D01*
X75873Y-60858D01*
X75798Y-60783D01*
X75699Y-60742D01*
X75593Y-60742D01*
X75494Y-60783D01*
X75449Y-60828D01*
X75449Y-60321D01*
X75449Y-60260D01*
X75409Y-60220D01*
X75130Y-60220D01*
X75130Y-60410D01*
X75171Y-60451D01*
X75256Y-60451D01*
X75320Y-60451D01*
X75379Y-60426D01*
X75425Y-60380D01*
X75449Y-60321D01*
X75449Y-60828D01*
X75419Y-60858D01*
X75378Y-60957D01*
X75378Y-61063D01*
X75418Y-61162D01*
X75494Y-61237D01*
X75503Y-61241D01*
X75503Y-61834D01*
X75503Y-61834D01*
X75503Y-61938D01*
X75503Y-61938D01*
X75503Y-61984D01*
X75503Y-62784D01*
X75521Y-62827D01*
X75554Y-62860D01*
X75597Y-62878D01*
X75644Y-62878D01*
X76183Y-62878D01*
X76321Y-63016D01*
X76493Y-62844D01*
X76493Y-63572D01*
X76489Y-63572D01*
X76321Y-63405D01*
X76153Y-63572D01*
X76126Y-63572D01*
X76126Y-63210D01*
X75954Y-63038D01*
X75898Y-63073D01*
X75877Y-63245D01*
X75898Y-63348D01*
X75954Y-63382D01*
X76126Y-63210D01*
X76126Y-63572D01*
X75764Y-63572D01*
X75764Y-63175D01*
X75744Y-63073D01*
X75687Y-63038D01*
X75515Y-63210D01*
X75687Y-63382D01*
X75744Y-63348D01*
X75764Y-63175D01*
X75764Y-63572D01*
X75493Y-63572D01*
X75493Y-62844D01*
X75458Y-62787D01*
X75286Y-62767D01*
X75247Y-62774D01*
X75188Y-62715D01*
X75082Y-62820D01*
X75062Y-62841D01*
X75082Y-62792D01*
X75082Y-62728D01*
X75082Y-61992D01*
X75082Y-61928D01*
X75064Y-61885D01*
X75082Y-61842D01*
X75082Y-61778D01*
X75082Y-61042D01*
X75082Y-60978D01*
X75058Y-60919D01*
X75012Y-60873D01*
X74953Y-60849D01*
X74815Y-60849D01*
X74815Y-60410D01*
X74815Y-60220D01*
X74815Y-60082D01*
X74815Y-59892D01*
X74775Y-59852D01*
X74690Y-59852D01*
X74626Y-59852D01*
X74566Y-59876D01*
X74521Y-59922D01*
X74496Y-59981D01*
X74496Y-60042D01*
X74537Y-60082D01*
X74815Y-60082D01*
X74815Y-60220D01*
X74537Y-60220D01*
X74496Y-60260D01*
X74496Y-60321D01*
X74521Y-60380D01*
X74566Y-60426D01*
X74626Y-60451D01*
X74690Y-60451D01*
X74775Y-60451D01*
X74815Y-60410D01*
X74815Y-60849D01*
X74811Y-60849D01*
X74771Y-60889D01*
X74771Y-61210D01*
X75042Y-61210D01*
X75082Y-61170D01*
X75082Y-61042D01*
X75082Y-61778D01*
X75082Y-61650D01*
X75042Y-61610D01*
X74771Y-61610D01*
X74771Y-61839D01*
X74771Y-61931D01*
X74771Y-62160D01*
X75042Y-62160D01*
X75082Y-62120D01*
X75082Y-61992D01*
X75082Y-62728D01*
X75082Y-62600D01*
X75042Y-62560D01*
X74771Y-62560D01*
X74771Y-62881D01*
X74811Y-62922D01*
X74953Y-62922D01*
X75001Y-62902D01*
X74826Y-63077D01*
X74890Y-63141D01*
X74877Y-63245D01*
X74898Y-63348D01*
X74954Y-63382D01*
X75126Y-63210D01*
X75082Y-63166D01*
X75037Y-63121D01*
X75082Y-63076D01*
X75231Y-62926D01*
X75321Y-63016D01*
X75493Y-62844D01*
X75493Y-63572D01*
X75489Y-63572D01*
X75321Y-63405D01*
X75153Y-63572D01*
X75126Y-63572D01*
X74764Y-63572D01*
X74764Y-63175D01*
X74744Y-63073D01*
X74687Y-63038D01*
X74515Y-63210D01*
X74687Y-63382D01*
X74744Y-63348D01*
X74764Y-63175D01*
X74764Y-63572D01*
X74489Y-63572D01*
X74321Y-63405D01*
X74153Y-63572D01*
X74126Y-63572D01*
X74126Y-63210D01*
X73954Y-63038D01*
X73898Y-63073D01*
X73877Y-63245D01*
X73898Y-63348D01*
X73954Y-63382D01*
X74126Y-63210D01*
X74126Y-63572D01*
X73860Y-63572D01*
X73860Y-62647D01*
X74089Y-62647D01*
X74153Y-62647D01*
X74159Y-62644D01*
X74159Y-62728D01*
X74159Y-62792D01*
X74168Y-62813D01*
X74149Y-62844D01*
X74321Y-63016D01*
X74415Y-62922D01*
X74430Y-62922D01*
X74471Y-62881D01*
X74471Y-62866D01*
X74493Y-62844D01*
X74471Y-62808D01*
X74471Y-62560D01*
X74357Y-62560D01*
X74357Y-62160D01*
X74471Y-62160D01*
X74471Y-61931D01*
X74471Y-61839D01*
X74471Y-61610D01*
X74471Y-61210D01*
X74471Y-60889D01*
X74430Y-60849D01*
X74407Y-60849D01*
X74289Y-60849D01*
X74282Y-60851D01*
X74229Y-60873D01*
X74184Y-60919D01*
X74159Y-60978D01*
X74159Y-61042D01*
X74159Y-61170D01*
X74200Y-61210D01*
X74471Y-61210D01*
X74471Y-61610D01*
X74200Y-61610D01*
X74159Y-61650D01*
X74159Y-61676D01*
X74153Y-61674D01*
X74089Y-61674D01*
X73817Y-61674D01*
X73777Y-61714D01*
X73777Y-61676D01*
X73858Y-61622D01*
X73969Y-61456D01*
X74008Y-61260D01*
X73969Y-61064D01*
X73858Y-60898D01*
X73777Y-60844D01*
X73777Y-60806D01*
X73817Y-60847D01*
X74089Y-60847D01*
X74153Y-60847D01*
X74212Y-60822D01*
X74258Y-60776D01*
X74282Y-60717D01*
X74282Y-60003D01*
X74258Y-59944D01*
X74212Y-59898D01*
X74153Y-59874D01*
X74089Y-59874D01*
X73908Y-59874D01*
X73908Y-59756D01*
X73908Y-59573D01*
X73675Y-59573D01*
X73634Y-59613D01*
X73634Y-59667D01*
X73659Y-59726D01*
X73704Y-59772D01*
X73764Y-59797D01*
X73828Y-59797D01*
X73868Y-59797D01*
X73908Y-59756D01*
X73908Y-59874D01*
X73817Y-59874D01*
X73777Y-59914D01*
X73777Y-60198D01*
X74242Y-60198D01*
X74282Y-60157D01*
X74282Y-60003D01*
X74282Y-60717D01*
X74282Y-60563D01*
X74242Y-60523D01*
X73777Y-60523D01*
X73777Y-60624D01*
X73265Y-60624D01*
X73265Y-60523D01*
X73265Y-60198D01*
X73265Y-59914D01*
X73225Y-59874D01*
X72953Y-59874D01*
X72896Y-59874D01*
X72896Y-59775D01*
X72896Y-59396D01*
X72872Y-59336D01*
X72826Y-59291D01*
X72767Y-59266D01*
X72703Y-59266D01*
X72677Y-59266D01*
X72636Y-59307D01*
X72636Y-59506D01*
X72856Y-59506D01*
X72896Y-59466D01*
X72896Y-59396D01*
X72896Y-59775D01*
X72896Y-59704D01*
X72856Y-59664D01*
X72636Y-59664D01*
X72636Y-59864D01*
X72677Y-59904D01*
X72703Y-59904D01*
X72767Y-59904D01*
X72826Y-59879D01*
X72872Y-59834D01*
X72896Y-59775D01*
X72896Y-59874D01*
X72889Y-59874D01*
X72829Y-59898D01*
X72784Y-59944D01*
X72759Y-60003D01*
X72759Y-60157D01*
X72800Y-60198D01*
X73265Y-60198D01*
X73265Y-60523D01*
X72800Y-60523D01*
X72759Y-60563D01*
X72759Y-60717D01*
X72772Y-60748D01*
X72439Y-60748D01*
X72439Y-59864D01*
X72439Y-59664D01*
X72357Y-59664D01*
X72357Y-59613D01*
X72341Y-59597D01*
X72341Y-59506D01*
X72439Y-59506D01*
X72439Y-59307D01*
X72399Y-59266D01*
X72373Y-59266D01*
X72309Y-59266D01*
X72306Y-59267D01*
X72287Y-59248D01*
X72228Y-59224D01*
X72164Y-59224D01*
X72124Y-59224D01*
X72083Y-59264D01*
X72083Y-59448D01*
X72179Y-59448D01*
X72179Y-59466D01*
X72179Y-59573D01*
X72083Y-59573D01*
X72083Y-59756D01*
X72124Y-59797D01*
X72164Y-59797D01*
X72179Y-59797D01*
X72179Y-59841D01*
X72211Y-59841D01*
X72249Y-59879D01*
X72309Y-59904D01*
X72373Y-59904D01*
X72399Y-59904D01*
X72439Y-59864D01*
X72439Y-60748D01*
X72339Y-60748D01*
X72339Y-60037D01*
X72321Y-59993D01*
X72288Y-59960D01*
X72244Y-59942D01*
X72197Y-59942D01*
X71858Y-59942D01*
X71146Y-59942D01*
X71146Y-59881D01*
X71146Y-59510D01*
X70900Y-59510D01*
X70859Y-59550D01*
X70859Y-59728D01*
X70859Y-59792D01*
X70884Y-59852D01*
X70929Y-59897D01*
X70989Y-59922D01*
X71105Y-59922D01*
X71146Y-59881D01*
X71146Y-59942D01*
X70764Y-59942D01*
X70764Y-58175D01*
X70744Y-58073D01*
X70687Y-58038D01*
X70515Y-58210D01*
X70687Y-58382D01*
X70744Y-58348D01*
X70764Y-58175D01*
X70764Y-59942D01*
X69797Y-59942D01*
X69754Y-59960D01*
X69721Y-59993D01*
X69703Y-60037D01*
X69703Y-60084D01*
X69703Y-60921D01*
X69610Y-60921D01*
X69610Y-59513D01*
X69646Y-59498D01*
X69703Y-59498D01*
X69703Y-59784D01*
X69721Y-59827D01*
X69754Y-59860D01*
X69797Y-59878D01*
X69844Y-59878D01*
X70344Y-59878D01*
X70388Y-59860D01*
X70421Y-59827D01*
X70439Y-59784D01*
X70439Y-59737D01*
X70439Y-58737D01*
X70421Y-58693D01*
X70388Y-58660D01*
X70367Y-58651D01*
X70458Y-58633D01*
X70493Y-58576D01*
X70321Y-58405D01*
X70149Y-58576D01*
X70183Y-58633D01*
X70257Y-58642D01*
X70126Y-58642D01*
X70126Y-58210D01*
X69954Y-58038D01*
X69898Y-58073D01*
X69877Y-58245D01*
X69898Y-58348D01*
X69954Y-58382D01*
X70126Y-58210D01*
X70126Y-58642D01*
X69797Y-58642D01*
X69754Y-58660D01*
X69721Y-58693D01*
X69703Y-58737D01*
X69703Y-58784D01*
X69703Y-59022D01*
X69646Y-59022D01*
X69610Y-59007D01*
X69610Y-57848D01*
X70153Y-57848D01*
X70321Y-58016D01*
X70489Y-57848D01*
X71168Y-57848D01*
X71098Y-57877D01*
X70988Y-57987D01*
X70928Y-58132D01*
X70928Y-58288D01*
X70987Y-58433D01*
X71098Y-58543D01*
X71231Y-58599D01*
X71105Y-58599D01*
X70989Y-58599D01*
X70929Y-58623D01*
X70884Y-58669D01*
X70859Y-58728D01*
X70859Y-58792D01*
X70859Y-58970D01*
X70900Y-59010D01*
X71146Y-59010D01*
X71146Y-58996D01*
X71396Y-58996D01*
X71396Y-59010D01*
X71521Y-59010D01*
X71521Y-59510D01*
X71396Y-59510D01*
X71396Y-59881D01*
X71436Y-59922D01*
X71553Y-59922D01*
X71612Y-59897D01*
X71658Y-59852D01*
X71682Y-59792D01*
X71682Y-59783D01*
X71714Y-59797D01*
X71778Y-59797D01*
X71818Y-59797D01*
X71858Y-59756D01*
X71858Y-59573D01*
X71746Y-59573D01*
X71746Y-59448D01*
X71858Y-59448D01*
X71858Y-59264D01*
X71818Y-59224D01*
X71778Y-59224D01*
X71714Y-59224D01*
X71682Y-59237D01*
X71682Y-59137D01*
X71722Y-59153D01*
X71769Y-59153D01*
X72219Y-59153D01*
X72263Y-59135D01*
X72296Y-59102D01*
X72296Y-59102D01*
X72317Y-59111D01*
X72364Y-59111D01*
X72758Y-59111D01*
X72802Y-59093D01*
X72835Y-59060D01*
X72853Y-59016D01*
X72853Y-58969D01*
X72853Y-58654D01*
X72835Y-58611D01*
X72802Y-58578D01*
X72758Y-58560D01*
X72711Y-58559D01*
X72505Y-58559D01*
X72543Y-58544D01*
X72639Y-58448D01*
X73003Y-58448D01*
X73083Y-58528D01*
X73083Y-59127D01*
X73083Y-59127D01*
X73089Y-59158D01*
X73089Y-59391D01*
X73107Y-59434D01*
X73140Y-59468D01*
X73183Y-59486D01*
X73230Y-59486D01*
X73624Y-59486D01*
X73668Y-59468D01*
X73688Y-59448D01*
X73908Y-59448D01*
X73908Y-59264D01*
X73868Y-59224D01*
X73828Y-59224D01*
X73819Y-59224D01*
X73889Y-59153D01*
X74027Y-59153D01*
X74136Y-59262D01*
X74133Y-59264D01*
X74133Y-59448D01*
X74246Y-59448D01*
X74246Y-59573D01*
X74133Y-59573D01*
X74133Y-59756D01*
X74174Y-59797D01*
X74214Y-59797D01*
X74278Y-59797D01*
X74337Y-59772D01*
X74343Y-59766D01*
X74407Y-59766D01*
X74407Y-59667D01*
X74407Y-59667D01*
X74407Y-59613D01*
X74407Y-59533D01*
X74539Y-59665D01*
X74539Y-59722D01*
X74557Y-59765D01*
X74590Y-59798D01*
X74634Y-59816D01*
X74681Y-59816D01*
X75356Y-59816D01*
X75356Y-59867D01*
X75320Y-59852D01*
X75256Y-59852D01*
X75171Y-59852D01*
X75130Y-59892D01*
X75130Y-60082D01*
X75409Y-60082D01*
X75428Y-60062D01*
X75451Y-60072D01*
X75498Y-60072D01*
X76581Y-60072D01*
X76624Y-60054D01*
X76657Y-60021D01*
X76675Y-59977D01*
X76675Y-59930D01*
X76675Y-59143D01*
X76657Y-59100D01*
X76624Y-59067D01*
X76581Y-59049D01*
X76534Y-59048D01*
X75451Y-59048D01*
X75407Y-59066D01*
X75406Y-59068D01*
X75406Y-58873D01*
X75489Y-58790D01*
X75489Y-58790D01*
X75489Y-58790D01*
X75541Y-58712D01*
X75541Y-58712D01*
X75559Y-58621D01*
X75559Y-58528D01*
X75654Y-58433D01*
X75714Y-58289D01*
X75714Y-58132D01*
X75654Y-57988D01*
X75544Y-57877D01*
X75474Y-57848D01*
X76168Y-57848D01*
X76098Y-57877D01*
X75988Y-57987D01*
X75928Y-58132D01*
X75928Y-58288D01*
X75987Y-58433D01*
X76098Y-58543D01*
X76242Y-58603D01*
X76399Y-58603D01*
X76543Y-58544D01*
X76654Y-58433D01*
X76714Y-58289D01*
X76714Y-58132D01*
X76654Y-57988D01*
X76544Y-57877D01*
X76474Y-57848D01*
X77168Y-57848D01*
X77098Y-57877D01*
X76988Y-57987D01*
X76928Y-58132D01*
X76928Y-58288D01*
X76987Y-58433D01*
X77098Y-58543D01*
X77242Y-58603D01*
X77399Y-58603D01*
X77543Y-58544D01*
X77654Y-58433D01*
X77683Y-58363D01*
X77683Y-63042D01*
X77515Y-63210D01*
X77683Y-63378D01*
X77683Y-63572D01*
X77683Y-63572D01*
G37*
G54D48*
X77683Y-63572D02*
X77493Y-63572D01*
X77493Y-62844D01*
X77458Y-62787D01*
X77286Y-62767D01*
X77183Y-62787D01*
X77149Y-62844D01*
X77321Y-63016D01*
X77493Y-62844D01*
X77493Y-63572D01*
X77489Y-63572D01*
X77321Y-63405D01*
X77153Y-63572D01*
X77126Y-63572D01*
X77126Y-63210D01*
X76954Y-63038D01*
X76898Y-63073D01*
X76877Y-63245D01*
X76898Y-63348D01*
X76954Y-63382D01*
X77126Y-63210D01*
X77126Y-63572D01*
X76764Y-63572D01*
X76764Y-63175D01*
X76744Y-63073D01*
X76687Y-63038D01*
X76515Y-63210D01*
X76687Y-63382D01*
X76744Y-63348D01*
X76764Y-63175D01*
X76764Y-63572D01*
X76493Y-63572D01*
X76493Y-62844D01*
X76458Y-62787D01*
X76339Y-62773D01*
X76339Y-62737D01*
X76339Y-61937D01*
X76339Y-61937D01*
X76339Y-61832D01*
X76339Y-61832D01*
X76339Y-61787D01*
X76339Y-61241D01*
X76347Y-61238D01*
X76423Y-61162D01*
X76464Y-61064D01*
X76464Y-60957D01*
X76423Y-60858D01*
X76348Y-60783D01*
X76249Y-60742D01*
X76143Y-60742D01*
X76044Y-60783D01*
X75969Y-60858D01*
X75955Y-60892D01*
X75887Y-60892D01*
X75873Y-60858D01*
X75798Y-60783D01*
X75699Y-60742D01*
X75593Y-60742D01*
X75494Y-60783D01*
X75449Y-60828D01*
X75449Y-60321D01*
X75449Y-60260D01*
X75409Y-60220D01*
X75130Y-60220D01*
X75130Y-60410D01*
X75171Y-60451D01*
X75256Y-60451D01*
X75320Y-60451D01*
X75379Y-60426D01*
X75425Y-60380D01*
X75449Y-60321D01*
X75449Y-60828D01*
X75419Y-60858D01*
X75378Y-60957D01*
X75378Y-61063D01*
X75418Y-61162D01*
X75494Y-61237D01*
X75503Y-61241D01*
X75503Y-61834D01*
X75503Y-61834D01*
X75503Y-61938D01*
X75503Y-61938D01*
X75503Y-61984D01*
X75503Y-62784D01*
X75521Y-62827D01*
X75554Y-62860D01*
X75597Y-62878D01*
X75644Y-62878D01*
X76183Y-62878D01*
X76321Y-63016D01*
X76493Y-62844D01*
X76493Y-63572D01*
X76489Y-63572D01*
X76321Y-63405D01*
X76153Y-63572D01*
X76126Y-63572D01*
X76126Y-63210D01*
X75954Y-63038D01*
X75898Y-63073D01*
X75877Y-63245D01*
X75898Y-63348D01*
X75954Y-63382D01*
X76126Y-63210D01*
X76126Y-63572D01*
X75764Y-63572D01*
X75764Y-63175D01*
X75744Y-63073D01*
X75687Y-63038D01*
X75515Y-63210D01*
X75687Y-63382D01*
X75744Y-63348D01*
X75764Y-63175D01*
X75764Y-63572D01*
X75493Y-63572D01*
X75493Y-62844D01*
X75458Y-62787D01*
X75286Y-62767D01*
X75247Y-62774D01*
X75188Y-62715D01*
X75082Y-62820D01*
X75062Y-62841D01*
X75082Y-62792D01*
X75082Y-62728D01*
X75082Y-61992D01*
X75082Y-61928D01*
X75064Y-61885D01*
X75082Y-61842D01*
X75082Y-61778D01*
X75082Y-61042D01*
X75082Y-60978D01*
X75058Y-60919D01*
X75012Y-60873D01*
X74953Y-60849D01*
X74815Y-60849D01*
X74815Y-60410D01*
X74815Y-60220D01*
X74815Y-60082D01*
X74815Y-59892D01*
X74775Y-59852D01*
X74690Y-59852D01*
X74626Y-59852D01*
X74566Y-59876D01*
X74521Y-59922D01*
X74496Y-59981D01*
X74496Y-60042D01*
X74537Y-60082D01*
X74815Y-60082D01*
X74815Y-60220D01*
X74537Y-60220D01*
X74496Y-60260D01*
X74496Y-60321D01*
X74521Y-60380D01*
X74566Y-60426D01*
X74626Y-60451D01*
X74690Y-60451D01*
X74775Y-60451D01*
X74815Y-60410D01*
X74815Y-60849D01*
X74811Y-60849D01*
X74771Y-60889D01*
X74771Y-61210D01*
X75042Y-61210D01*
X75082Y-61170D01*
X75082Y-61042D01*
X75082Y-61778D01*
X75082Y-61650D01*
X75042Y-61610D01*
X74771Y-61610D01*
X74771Y-61839D01*
X74771Y-61931D01*
X74771Y-62160D01*
X75042Y-62160D01*
X75082Y-62120D01*
X75082Y-61992D01*
X75082Y-62728D01*
X75082Y-62600D01*
X75042Y-62560D01*
X74771Y-62560D01*
X74771Y-62881D01*
X74811Y-62922D01*
X74953Y-62922D01*
X75001Y-62902D01*
X74826Y-63077D01*
X74890Y-63141D01*
X74877Y-63245D01*
X74898Y-63348D01*
X74954Y-63382D01*
X75126Y-63210D01*
X75082Y-63166D01*
X75037Y-63121D01*
X75082Y-63076D01*
X75231Y-62926D01*
X75321Y-63016D01*
X75493Y-62844D01*
X75493Y-63572D01*
X75489Y-63572D01*
X75321Y-63405D01*
X75153Y-63572D01*
X75126Y-63572D01*
X74764Y-63572D01*
X74764Y-63175D01*
X74744Y-63073D01*
X74687Y-63038D01*
X74515Y-63210D01*
X74687Y-63382D01*
X74744Y-63348D01*
X74764Y-63175D01*
X74764Y-63572D01*
X74489Y-63572D01*
X74321Y-63405D01*
X74153Y-63572D01*
X74126Y-63572D01*
X74126Y-63210D01*
X73954Y-63038D01*
X73898Y-63073D01*
X73877Y-63245D01*
X73898Y-63348D01*
X73954Y-63382D01*
X74126Y-63210D01*
X74126Y-63572D01*
X73860Y-63572D01*
X73860Y-62647D01*
X74089Y-62647D01*
X74153Y-62647D01*
X74159Y-62644D01*
X74159Y-62728D01*
X74159Y-62792D01*
X74168Y-62813D01*
X74149Y-62844D01*
X74321Y-63016D01*
X74415Y-62922D01*
X74430Y-62922D01*
X74471Y-62881D01*
X74471Y-62866D01*
X74493Y-62844D01*
X74471Y-62808D01*
X74471Y-62560D01*
X74357Y-62560D01*
X74357Y-62160D01*
X74471Y-62160D01*
X74471Y-61931D01*
X74471Y-61839D01*
X74471Y-61610D01*
X74471Y-61210D01*
X74471Y-60889D01*
X74430Y-60849D01*
X74407Y-60849D01*
X74289Y-60849D01*
X74282Y-60851D01*
X74229Y-60873D01*
X74184Y-60919D01*
X74159Y-60978D01*
X74159Y-61042D01*
X74159Y-61170D01*
X74200Y-61210D01*
X74471Y-61210D01*
X74471Y-61610D01*
X74200Y-61610D01*
X74159Y-61650D01*
X74159Y-61676D01*
X74153Y-61674D01*
X74089Y-61674D01*
X73817Y-61674D01*
X73777Y-61714D01*
X73777Y-61676D01*
X73858Y-61622D01*
X73969Y-61456D01*
X74008Y-61260D01*
X73969Y-61064D01*
X73858Y-60898D01*
X73777Y-60844D01*
X73777Y-60806D01*
X73817Y-60847D01*
X74089Y-60847D01*
X74153Y-60847D01*
X74212Y-60822D01*
X74258Y-60776D01*
X74282Y-60717D01*
X74282Y-60003D01*
X74258Y-59944D01*
X74212Y-59898D01*
X74153Y-59874D01*
X74089Y-59874D01*
X73908Y-59874D01*
X73908Y-59756D01*
X73908Y-59573D01*
X73675Y-59573D01*
X73634Y-59613D01*
X73634Y-59667D01*
X73659Y-59726D01*
X73704Y-59772D01*
X73764Y-59797D01*
X73828Y-59797D01*
X73868Y-59797D01*
X73908Y-59756D01*
X73908Y-59874D01*
X73817Y-59874D01*
X73777Y-59914D01*
X73777Y-60198D01*
X74242Y-60198D01*
X74282Y-60157D01*
X74282Y-60003D01*
X74282Y-60717D01*
X74282Y-60563D01*
X74242Y-60523D01*
X73777Y-60523D01*
X73777Y-60624D01*
X73265Y-60624D01*
X73265Y-60523D01*
X73265Y-60198D01*
X73265Y-59914D01*
X73225Y-59874D01*
X72953Y-59874D01*
X72896Y-59874D01*
X72896Y-59775D01*
X72896Y-59396D01*
X72872Y-59336D01*
X72826Y-59291D01*
X72767Y-59266D01*
X72703Y-59266D01*
X72677Y-59266D01*
X72636Y-59307D01*
X72636Y-59506D01*
X72856Y-59506D01*
X72896Y-59466D01*
X72896Y-59396D01*
X72896Y-59775D01*
X72896Y-59704D01*
X72856Y-59664D01*
X72636Y-59664D01*
X72636Y-59864D01*
X72677Y-59904D01*
X72703Y-59904D01*
X72767Y-59904D01*
X72826Y-59879D01*
X72872Y-59834D01*
X72896Y-59775D01*
X72896Y-59874D01*
X72889Y-59874D01*
X72829Y-59898D01*
X72784Y-59944D01*
X72759Y-60003D01*
X72759Y-60157D01*
X72800Y-60198D01*
X73265Y-60198D01*
X73265Y-60523D01*
X72800Y-60523D01*
X72759Y-60563D01*
X72759Y-60717D01*
X72772Y-60748D01*
X72439Y-60748D01*
X72439Y-59864D01*
X72439Y-59664D01*
X72357Y-59664D01*
X72357Y-59613D01*
X72341Y-59597D01*
X72341Y-59506D01*
X72439Y-59506D01*
X72439Y-59307D01*
X72399Y-59266D01*
X72373Y-59266D01*
X72309Y-59266D01*
X72306Y-59267D01*
X72287Y-59248D01*
X72228Y-59224D01*
X72164Y-59224D01*
X72124Y-59224D01*
X72083Y-59264D01*
X72083Y-59448D01*
X72179Y-59448D01*
X72179Y-59466D01*
X72179Y-59573D01*
X72083Y-59573D01*
X72083Y-59756D01*
X72124Y-59797D01*
X72164Y-59797D01*
X72179Y-59797D01*
X72179Y-59841D01*
X72211Y-59841D01*
X72249Y-59879D01*
X72309Y-59904D01*
X72373Y-59904D01*
X72399Y-59904D01*
X72439Y-59864D01*
X72439Y-60748D01*
X72339Y-60748D01*
X72339Y-60037D01*
X72321Y-59993D01*
X72288Y-59960D01*
X72244Y-59942D01*
X72197Y-59942D01*
X71858Y-59942D01*
X71146Y-59942D01*
X71146Y-59881D01*
X71146Y-59510D01*
X70900Y-59510D01*
X70859Y-59550D01*
X70859Y-59728D01*
X70859Y-59792D01*
X70884Y-59852D01*
X70929Y-59897D01*
X70989Y-59922D01*
X71105Y-59922D01*
X71146Y-59881D01*
X71146Y-59942D01*
X70764Y-59942D01*
X70764Y-58175D01*
X70744Y-58073D01*
X70687Y-58038D01*
X70515Y-58210D01*
X70687Y-58382D01*
X70744Y-58348D01*
X70764Y-58175D01*
X70764Y-59942D01*
X69797Y-59942D01*
X69754Y-59960D01*
X69721Y-59993D01*
X69703Y-60037D01*
X69703Y-60084D01*
X69703Y-60921D01*
X69610Y-60921D01*
X69610Y-59513D01*
X69646Y-59498D01*
X69703Y-59498D01*
X69703Y-59784D01*
X69721Y-59827D01*
X69754Y-59860D01*
X69797Y-59878D01*
X69844Y-59878D01*
X70344Y-59878D01*
X70388Y-59860D01*
X70421Y-59827D01*
X70439Y-59784D01*
X70439Y-59737D01*
X70439Y-58737D01*
X70421Y-58693D01*
X70388Y-58660D01*
X70367Y-58651D01*
X70458Y-58633D01*
X70493Y-58576D01*
X70321Y-58405D01*
X70149Y-58576D01*
X70183Y-58633D01*
X70257Y-58642D01*
X70126Y-58642D01*
X70126Y-58210D01*
X69954Y-58038D01*
X69898Y-58073D01*
X69877Y-58245D01*
X69898Y-58348D01*
X69954Y-58382D01*
X70126Y-58210D01*
X70126Y-58642D01*
X69797Y-58642D01*
X69754Y-58660D01*
X69721Y-58693D01*
X69703Y-58737D01*
X69703Y-58784D01*
X69703Y-59022D01*
X69646Y-59022D01*
X69610Y-59007D01*
X69610Y-57848D01*
X70153Y-57848D01*
X70321Y-58016D01*
X70489Y-57848D01*
X71168Y-57848D01*
X71098Y-57877D01*
X70988Y-57987D01*
X70928Y-58132D01*
X70928Y-58288D01*
X70987Y-58433D01*
X71098Y-58543D01*
X71231Y-58599D01*
X71105Y-58599D01*
X70989Y-58599D01*
X70929Y-58623D01*
X70884Y-58669D01*
X70859Y-58728D01*
X70859Y-58792D01*
X70859Y-58970D01*
X70900Y-59010D01*
X71146Y-59010D01*
X71146Y-58996D01*
X71396Y-58996D01*
X71396Y-59010D01*
X71521Y-59010D01*
X71521Y-59510D01*
X71396Y-59510D01*
X71396Y-59881D01*
X71436Y-59922D01*
X71553Y-59922D01*
X71612Y-59897D01*
X71658Y-59852D01*
X71682Y-59792D01*
X71682Y-59783D01*
X71714Y-59797D01*
X71778Y-59797D01*
X71818Y-59797D01*
X71858Y-59756D01*
X71858Y-59573D01*
X71746Y-59573D01*
X71746Y-59448D01*
X71858Y-59448D01*
X71858Y-59264D01*
X71818Y-59224D01*
X71778Y-59224D01*
X71714Y-59224D01*
X71682Y-59237D01*
X71682Y-59137D01*
X71722Y-59153D01*
X71769Y-59153D01*
X72219Y-59153D01*
X72263Y-59135D01*
X72296Y-59102D01*
X72296Y-59102D01*
X72317Y-59111D01*
X72364Y-59111D01*
X72758Y-59111D01*
X72802Y-59093D01*
X72835Y-59060D01*
X72853Y-59016D01*
X72853Y-58969D01*
X72853Y-58654D01*
X72835Y-58611D01*
X72802Y-58578D01*
X72758Y-58560D01*
X72711Y-58559D01*
X72505Y-58559D01*
X72543Y-58544D01*
X72639Y-58448D01*
X73003Y-58448D01*
X73083Y-58528D01*
X73083Y-59127D01*
X73083Y-59127D01*
X73089Y-59158D01*
X73089Y-59391D01*
X73107Y-59434D01*
X73140Y-59468D01*
X73183Y-59486D01*
X73230Y-59486D01*
X73624Y-59486D01*
X73668Y-59468D01*
X73688Y-59448D01*
X73908Y-59448D01*
X73908Y-59264D01*
X73868Y-59224D01*
X73828Y-59224D01*
X73819Y-59224D01*
X73889Y-59153D01*
X74027Y-59153D01*
X74136Y-59262D01*
X74133Y-59264D01*
X74133Y-59448D01*
X74246Y-59448D01*
X74246Y-59573D01*
X74133Y-59573D01*
X74133Y-59756D01*
X74174Y-59797D01*
X74214Y-59797D01*
X74278Y-59797D01*
X74337Y-59772D01*
X74343Y-59766D01*
X74407Y-59766D01*
X74407Y-59667D01*
X74407Y-59667D01*
X74407Y-59613D01*
X74407Y-59533D01*
X74539Y-59665D01*
X74539Y-59722D01*
X74557Y-59765D01*
X74590Y-59798D01*
X74634Y-59816D01*
X74681Y-59816D01*
X75356Y-59816D01*
X75356Y-59867D01*
X75320Y-59852D01*
X75256Y-59852D01*
X75171Y-59852D01*
X75130Y-59892D01*
X75130Y-60082D01*
X75409Y-60082D01*
X75428Y-60062D01*
X75451Y-60072D01*
X75498Y-60072D01*
X76581Y-60072D01*
X76624Y-60054D01*
X76657Y-60021D01*
X76675Y-59977D01*
X76675Y-59930D01*
X76675Y-59143D01*
X76657Y-59100D01*
X76624Y-59067D01*
X76581Y-59049D01*
X76534Y-59048D01*
X75451Y-59048D01*
X75407Y-59066D01*
X75406Y-59068D01*
X75406Y-58873D01*
X75489Y-58790D01*
X75489Y-58790D01*
X75489Y-58790D01*
X75541Y-58712D01*
X75541Y-58712D01*
X75559Y-58621D01*
X75559Y-58528D01*
X75654Y-58433D01*
X75714Y-58289D01*
X75714Y-58132D01*
X75654Y-57988D01*
X75544Y-57877D01*
X75474Y-57848D01*
X76168Y-57848D01*
X76098Y-57877D01*
X75988Y-57987D01*
X75928Y-58132D01*
X75928Y-58288D01*
X75987Y-58433D01*
X76098Y-58543D01*
X76242Y-58603D01*
X76399Y-58603D01*
X76543Y-58544D01*
X76654Y-58433D01*
X76714Y-58289D01*
X76714Y-58132D01*
X76654Y-57988D01*
X76544Y-57877D01*
X76474Y-57848D01*
X77168Y-57848D01*
X77098Y-57877D01*
X76988Y-57987D01*
X76928Y-58132D01*
X76928Y-58288D01*
X76987Y-58433D01*
X77098Y-58543D01*
X77242Y-58603D01*
X77399Y-58603D01*
X77543Y-58544D01*
X77654Y-58433D01*
X77683Y-58363D01*
X77683Y-63042D01*
X77515Y-63210D01*
X77683Y-63378D01*
X77683Y-63572D01*
G54D10*
G36*
X75721Y-53402D02*
X75672Y-53451D01*
X75668Y-53461D01*
X75603Y-53435D01*
X75496Y-53434D01*
X75398Y-53475D01*
X75322Y-53551D01*
X75281Y-53649D01*
X75281Y-53756D01*
X75300Y-53802D01*
X74825Y-53327D01*
X74768Y-53288D01*
X74700Y-53275D01*
X73523Y-53275D01*
X73443Y-53194D01*
X73782Y-53194D01*
X73825Y-53176D01*
X73858Y-53143D01*
X73876Y-53099D01*
X73876Y-53052D01*
X73876Y-52821D01*
X73939Y-52821D01*
X73947Y-52830D01*
X74046Y-52871D01*
X74153Y-52871D01*
X74251Y-52830D01*
X74327Y-52755D01*
X74368Y-52656D01*
X74368Y-52550D01*
X74347Y-52501D01*
X74888Y-52501D01*
X75033Y-52646D01*
X75031Y-52649D01*
X75031Y-52756D01*
X75072Y-52854D01*
X75147Y-52930D01*
X75246Y-52971D01*
X75353Y-52971D01*
X75451Y-52930D01*
X75527Y-52855D01*
X75568Y-52756D01*
X75568Y-52650D01*
X75527Y-52551D01*
X75452Y-52475D01*
X75353Y-52435D01*
X75246Y-52434D01*
X75242Y-52436D01*
X75054Y-52248D01*
X75006Y-52216D01*
X74997Y-52214D01*
X74950Y-52205D01*
X74949Y-52205D01*
X74211Y-52205D01*
X74004Y-51998D01*
X73956Y-51966D01*
X73947Y-51964D01*
X73900Y-51955D01*
X73899Y-51955D01*
X72378Y-51955D01*
X72377Y-51951D01*
X72302Y-51875D01*
X72203Y-51835D01*
X72096Y-51834D01*
X71998Y-51875D01*
X71993Y-51880D01*
X71993Y-51866D01*
X71975Y-51822D01*
X71942Y-51789D01*
X71899Y-51771D01*
X71852Y-51771D01*
X71737Y-51771D01*
X71737Y-51485D01*
X71735Y-51312D01*
X71672Y-51159D01*
X71601Y-51132D01*
X71330Y-51403D01*
X71601Y-51673D01*
X71672Y-51646D01*
X71737Y-51485D01*
X71737Y-51771D01*
X71545Y-51771D01*
X71570Y-51704D01*
X71300Y-51433D01*
X71269Y-51464D01*
X71269Y-51403D01*
X70998Y-51132D01*
X70927Y-51159D01*
X70862Y-51320D01*
X70864Y-51494D01*
X70927Y-51646D01*
X70998Y-51673D01*
X71269Y-51403D01*
X71269Y-51464D01*
X71029Y-51704D01*
X71056Y-51775D01*
X71217Y-51840D01*
X71206Y-51866D01*
X71206Y-51913D01*
X71206Y-52739D01*
X71224Y-52783D01*
X71257Y-52816D01*
X71300Y-52834D01*
X71347Y-52834D01*
X71898Y-52834D01*
X71942Y-52816D01*
X71975Y-52783D01*
X71993Y-52740D01*
X71993Y-52693D01*
X71993Y-52326D01*
X71997Y-52330D01*
X72096Y-52371D01*
X72203Y-52371D01*
X72223Y-52362D01*
X72223Y-53099D01*
X72241Y-53143D01*
X72274Y-53176D01*
X72317Y-53194D01*
X72364Y-53194D01*
X72797Y-53194D01*
X72841Y-53176D01*
X72874Y-53143D01*
X72884Y-53118D01*
X72885Y-53121D01*
X72924Y-53179D01*
X73324Y-53579D01*
X73324Y-53579D01*
X73381Y-53617D01*
X73381Y-53617D01*
X73449Y-53631D01*
X73450Y-53631D01*
X74626Y-53631D01*
X75021Y-54026D01*
X75021Y-55179D01*
X75018Y-55183D01*
X75018Y-54250D01*
X74977Y-54151D01*
X74902Y-54075D01*
X74803Y-54035D01*
X74733Y-54035D01*
X74475Y-53777D01*
X74418Y-53738D01*
X74350Y-53725D01*
X71701Y-53725D01*
X71652Y-53675D01*
X71553Y-53635D01*
X71446Y-53634D01*
X71348Y-53675D01*
X71272Y-53751D01*
X71231Y-53849D01*
X71231Y-53956D01*
X71272Y-54054D01*
X71272Y-54055D01*
X71211Y-54055D01*
X70616Y-53460D01*
X70618Y-53456D01*
X70618Y-53350D01*
X70577Y-53251D01*
X70502Y-53175D01*
X70403Y-53135D01*
X70296Y-53134D01*
X70198Y-53175D01*
X70122Y-53251D01*
X70081Y-53349D01*
X70081Y-53456D01*
X70122Y-53554D01*
X70197Y-53630D01*
X70296Y-53671D01*
X70403Y-53671D01*
X70407Y-53669D01*
X71045Y-54307D01*
X71045Y-54307D01*
X71075Y-54328D01*
X71050Y-54343D01*
X70667Y-54691D01*
X70653Y-54685D01*
X70546Y-54684D01*
X70448Y-54725D01*
X70372Y-54801D01*
X70331Y-54899D01*
X70331Y-55006D01*
X70372Y-55104D01*
X70447Y-55180D01*
X70546Y-55221D01*
X70653Y-55221D01*
X70751Y-55180D01*
X70827Y-55105D01*
X70868Y-55006D01*
X70868Y-54909D01*
X71206Y-54601D01*
X73638Y-54601D01*
X73649Y-54611D01*
X73302Y-54611D01*
X73258Y-54629D01*
X73225Y-54662D01*
X73207Y-54706D01*
X73207Y-54753D01*
X73207Y-55619D01*
X73225Y-55662D01*
X73258Y-55696D01*
X73301Y-55714D01*
X73348Y-55714D01*
X73782Y-55714D01*
X73825Y-55696D01*
X73858Y-55663D01*
X73867Y-55642D01*
X73872Y-55654D01*
X73947Y-55730D01*
X74046Y-55771D01*
X74153Y-55771D01*
X74251Y-55730D01*
X74327Y-55655D01*
X74368Y-55556D01*
X74368Y-55450D01*
X74348Y-55402D01*
X74401Y-55380D01*
X74477Y-55305D01*
X74518Y-55206D01*
X74518Y-55100D01*
X74477Y-55001D01*
X74402Y-54925D01*
X74398Y-54924D01*
X74398Y-54803D01*
X74386Y-54746D01*
X74386Y-54746D01*
X74354Y-54698D01*
X74354Y-54698D01*
X73754Y-54098D01*
X73729Y-54081D01*
X74276Y-54081D01*
X74481Y-54286D01*
X74481Y-54356D01*
X74522Y-54454D01*
X74597Y-54530D01*
X74696Y-54571D01*
X74803Y-54571D01*
X74901Y-54530D01*
X74977Y-54455D01*
X75018Y-54356D01*
X75018Y-54250D01*
X75018Y-55183D01*
X74426Y-55775D01*
X73223Y-55775D01*
X72892Y-55443D01*
X72892Y-54706D01*
X72874Y-54663D01*
X72841Y-54629D01*
X72798Y-54611D01*
X72751Y-54611D01*
X72317Y-54611D01*
X72274Y-54629D01*
X72241Y-54662D01*
X72223Y-54706D01*
X72223Y-54753D01*
X72223Y-55619D01*
X72241Y-55662D01*
X72274Y-55696D01*
X72317Y-55714D01*
X72364Y-55714D01*
X72659Y-55714D01*
X72724Y-55780D01*
X72700Y-55775D01*
X72100Y-55775D01*
X72031Y-55788D01*
X71993Y-55814D01*
X71993Y-55066D01*
X71975Y-55022D01*
X71942Y-54989D01*
X71899Y-54971D01*
X71852Y-54971D01*
X71301Y-54971D01*
X71257Y-54989D01*
X71224Y-55022D01*
X71206Y-55066D01*
X71206Y-55113D01*
X71206Y-55325D01*
X70637Y-55325D01*
X70627Y-55301D01*
X70552Y-55225D01*
X70453Y-55185D01*
X70346Y-55184D01*
X70248Y-55225D01*
X70193Y-55280D01*
X70193Y-55066D01*
X70175Y-55022D01*
X70142Y-54989D01*
X70099Y-54971D01*
X70052Y-54971D01*
X69501Y-54971D01*
X69486Y-54977D01*
X69487Y-54817D01*
X69421Y-54658D01*
X69299Y-54536D01*
X69140Y-54470D01*
X68968Y-54470D01*
X68808Y-54535D01*
X68697Y-54646D01*
X68697Y-53159D01*
X68808Y-53270D01*
X68967Y-53336D01*
X69139Y-53336D01*
X69298Y-53270D01*
X69420Y-53148D01*
X69486Y-52989D01*
X69487Y-52828D01*
X69500Y-52834D01*
X69547Y-52834D01*
X69881Y-52834D01*
X69881Y-52856D01*
X69922Y-52954D01*
X69997Y-53030D01*
X70096Y-53071D01*
X70203Y-53071D01*
X70301Y-53030D01*
X70377Y-52955D01*
X70418Y-52856D01*
X70418Y-52750D01*
X70377Y-52651D01*
X70302Y-52575D01*
X70203Y-52535D01*
X70193Y-52535D01*
X70193Y-51866D01*
X70175Y-51822D01*
X70142Y-51789D01*
X70099Y-51771D01*
X70052Y-51771D01*
X69841Y-51771D01*
X69868Y-51706D01*
X69868Y-51600D01*
X69839Y-51531D01*
X69927Y-51531D01*
X69966Y-51625D01*
X70077Y-51736D01*
X70221Y-51796D01*
X70377Y-51796D01*
X70522Y-51736D01*
X70633Y-51626D01*
X70693Y-51481D01*
X70693Y-51325D01*
X70633Y-51180D01*
X70522Y-51070D01*
X70476Y-51050D01*
X71048Y-51050D01*
X71029Y-51102D01*
X71300Y-51372D01*
X71570Y-51102D01*
X71551Y-51050D01*
X72123Y-51050D01*
X72077Y-51069D01*
X71966Y-51180D01*
X71906Y-51324D01*
X71906Y-51481D01*
X71966Y-51625D01*
X72077Y-51736D01*
X72221Y-51796D01*
X72377Y-51796D01*
X72522Y-51736D01*
X72633Y-51626D01*
X72651Y-51581D01*
X72948Y-51581D01*
X72966Y-51625D01*
X73077Y-51736D01*
X73221Y-51796D01*
X73377Y-51796D01*
X73522Y-51736D01*
X73627Y-51632D01*
X73924Y-51929D01*
X73924Y-51929D01*
X73981Y-51967D01*
X73981Y-51967D01*
X74049Y-51981D01*
X74050Y-51981D01*
X75176Y-51981D01*
X75721Y-52526D01*
X75721Y-53402D01*
X75721Y-53402D01*
G37*
G54D48*
X75721Y-53402D02*
X75672Y-53451D01*
X75668Y-53461D01*
X75603Y-53435D01*
X75496Y-53434D01*
X75398Y-53475D01*
X75322Y-53551D01*
X75281Y-53649D01*
X75281Y-53756D01*
X75300Y-53802D01*
X74825Y-53327D01*
X74768Y-53288D01*
X74700Y-53275D01*
X73523Y-53275D01*
X73443Y-53194D01*
X73782Y-53194D01*
X73825Y-53176D01*
X73858Y-53143D01*
X73876Y-53099D01*
X73876Y-53052D01*
X73876Y-52821D01*
X73939Y-52821D01*
X73947Y-52830D01*
X74046Y-52871D01*
X74153Y-52871D01*
X74251Y-52830D01*
X74327Y-52755D01*
X74368Y-52656D01*
X74368Y-52550D01*
X74347Y-52501D01*
X74888Y-52501D01*
X75033Y-52646D01*
X75031Y-52649D01*
X75031Y-52756D01*
X75072Y-52854D01*
X75147Y-52930D01*
X75246Y-52971D01*
X75353Y-52971D01*
X75451Y-52930D01*
X75527Y-52855D01*
X75568Y-52756D01*
X75568Y-52650D01*
X75527Y-52551D01*
X75452Y-52475D01*
X75353Y-52435D01*
X75246Y-52434D01*
X75242Y-52436D01*
X75054Y-52248D01*
X75006Y-52216D01*
X74997Y-52214D01*
X74950Y-52205D01*
X74949Y-52205D01*
X74211Y-52205D01*
X74004Y-51998D01*
X73956Y-51966D01*
X73947Y-51964D01*
X73900Y-51955D01*
X73899Y-51955D01*
X72378Y-51955D01*
X72377Y-51951D01*
X72302Y-51875D01*
X72203Y-51835D01*
X72096Y-51834D01*
X71998Y-51875D01*
X71993Y-51880D01*
X71993Y-51866D01*
X71975Y-51822D01*
X71942Y-51789D01*
X71899Y-51771D01*
X71852Y-51771D01*
X71737Y-51771D01*
X71737Y-51485D01*
X71735Y-51312D01*
X71672Y-51159D01*
X71601Y-51132D01*
X71330Y-51403D01*
X71601Y-51673D01*
X71672Y-51646D01*
X71737Y-51485D01*
X71737Y-51771D01*
X71545Y-51771D01*
X71570Y-51704D01*
X71300Y-51433D01*
X71269Y-51464D01*
X71269Y-51403D01*
X70998Y-51132D01*
X70927Y-51159D01*
X70862Y-51320D01*
X70864Y-51494D01*
X70927Y-51646D01*
X70998Y-51673D01*
X71269Y-51403D01*
X71269Y-51464D01*
X71029Y-51704D01*
X71056Y-51775D01*
X71217Y-51840D01*
X71206Y-51866D01*
X71206Y-51913D01*
X71206Y-52739D01*
X71224Y-52783D01*
X71257Y-52816D01*
X71300Y-52834D01*
X71347Y-52834D01*
X71898Y-52834D01*
X71942Y-52816D01*
X71975Y-52783D01*
X71993Y-52740D01*
X71993Y-52693D01*
X71993Y-52326D01*
X71997Y-52330D01*
X72096Y-52371D01*
X72203Y-52371D01*
X72223Y-52362D01*
X72223Y-53099D01*
X72241Y-53143D01*
X72274Y-53176D01*
X72317Y-53194D01*
X72364Y-53194D01*
X72797Y-53194D01*
X72841Y-53176D01*
X72874Y-53143D01*
X72884Y-53118D01*
X72885Y-53121D01*
X72924Y-53179D01*
X73324Y-53579D01*
X73324Y-53579D01*
X73381Y-53617D01*
X73381Y-53617D01*
X73449Y-53631D01*
X73450Y-53631D01*
X74626Y-53631D01*
X75021Y-54026D01*
X75021Y-55179D01*
X75018Y-55183D01*
X75018Y-54250D01*
X74977Y-54151D01*
X74902Y-54075D01*
X74803Y-54035D01*
X74733Y-54035D01*
X74475Y-53777D01*
X74418Y-53738D01*
X74350Y-53725D01*
X71701Y-53725D01*
X71652Y-53675D01*
X71553Y-53635D01*
X71446Y-53634D01*
X71348Y-53675D01*
X71272Y-53751D01*
X71231Y-53849D01*
X71231Y-53956D01*
X71272Y-54054D01*
X71272Y-54055D01*
X71211Y-54055D01*
X70616Y-53460D01*
X70618Y-53456D01*
X70618Y-53350D01*
X70577Y-53251D01*
X70502Y-53175D01*
X70403Y-53135D01*
X70296Y-53134D01*
X70198Y-53175D01*
X70122Y-53251D01*
X70081Y-53349D01*
X70081Y-53456D01*
X70122Y-53554D01*
X70197Y-53630D01*
X70296Y-53671D01*
X70403Y-53671D01*
X70407Y-53669D01*
X71045Y-54307D01*
X71045Y-54307D01*
X71075Y-54328D01*
X71050Y-54343D01*
X70667Y-54691D01*
X70653Y-54685D01*
X70546Y-54684D01*
X70448Y-54725D01*
X70372Y-54801D01*
X70331Y-54899D01*
X70331Y-55006D01*
X70372Y-55104D01*
X70447Y-55180D01*
X70546Y-55221D01*
X70653Y-55221D01*
X70751Y-55180D01*
X70827Y-55105D01*
X70868Y-55006D01*
X70868Y-54909D01*
X71206Y-54601D01*
X73638Y-54601D01*
X73649Y-54611D01*
X73302Y-54611D01*
X73258Y-54629D01*
X73225Y-54662D01*
X73207Y-54706D01*
X73207Y-54753D01*
X73207Y-55619D01*
X73225Y-55662D01*
X73258Y-55696D01*
X73301Y-55714D01*
X73348Y-55714D01*
X73782Y-55714D01*
X73825Y-55696D01*
X73858Y-55663D01*
X73867Y-55642D01*
X73872Y-55654D01*
X73947Y-55730D01*
X74046Y-55771D01*
X74153Y-55771D01*
X74251Y-55730D01*
X74327Y-55655D01*
X74368Y-55556D01*
X74368Y-55450D01*
X74348Y-55402D01*
X74401Y-55380D01*
X74477Y-55305D01*
X74518Y-55206D01*
X74518Y-55100D01*
X74477Y-55001D01*
X74402Y-54925D01*
X74398Y-54924D01*
X74398Y-54803D01*
X74386Y-54746D01*
X74386Y-54746D01*
X74354Y-54698D01*
X74354Y-54698D01*
X73754Y-54098D01*
X73729Y-54081D01*
X74276Y-54081D01*
X74481Y-54286D01*
X74481Y-54356D01*
X74522Y-54454D01*
X74597Y-54530D01*
X74696Y-54571D01*
X74803Y-54571D01*
X74901Y-54530D01*
X74977Y-54455D01*
X75018Y-54356D01*
X75018Y-54250D01*
X75018Y-55183D01*
X74426Y-55775D01*
X73223Y-55775D01*
X72892Y-55443D01*
X72892Y-54706D01*
X72874Y-54663D01*
X72841Y-54629D01*
X72798Y-54611D01*
X72751Y-54611D01*
X72317Y-54611D01*
X72274Y-54629D01*
X72241Y-54662D01*
X72223Y-54706D01*
X72223Y-54753D01*
X72223Y-55619D01*
X72241Y-55662D01*
X72274Y-55696D01*
X72317Y-55714D01*
X72364Y-55714D01*
X72659Y-55714D01*
X72724Y-55780D01*
X72700Y-55775D01*
X72100Y-55775D01*
X72031Y-55788D01*
X71993Y-55814D01*
X71993Y-55066D01*
X71975Y-55022D01*
X71942Y-54989D01*
X71899Y-54971D01*
X71852Y-54971D01*
X71301Y-54971D01*
X71257Y-54989D01*
X71224Y-55022D01*
X71206Y-55066D01*
X71206Y-55113D01*
X71206Y-55325D01*
X70637Y-55325D01*
X70627Y-55301D01*
X70552Y-55225D01*
X70453Y-55185D01*
X70346Y-55184D01*
X70248Y-55225D01*
X70193Y-55280D01*
X70193Y-55066D01*
X70175Y-55022D01*
X70142Y-54989D01*
X70099Y-54971D01*
X70052Y-54971D01*
X69501Y-54971D01*
X69486Y-54977D01*
X69487Y-54817D01*
X69421Y-54658D01*
X69299Y-54536D01*
X69140Y-54470D01*
X68968Y-54470D01*
X68808Y-54535D01*
X68697Y-54646D01*
X68697Y-53159D01*
X68808Y-53270D01*
X68967Y-53336D01*
X69139Y-53336D01*
X69298Y-53270D01*
X69420Y-53148D01*
X69486Y-52989D01*
X69487Y-52828D01*
X69500Y-52834D01*
X69547Y-52834D01*
X69881Y-52834D01*
X69881Y-52856D01*
X69922Y-52954D01*
X69997Y-53030D01*
X70096Y-53071D01*
X70203Y-53071D01*
X70301Y-53030D01*
X70377Y-52955D01*
X70418Y-52856D01*
X70418Y-52750D01*
X70377Y-52651D01*
X70302Y-52575D01*
X70203Y-52535D01*
X70193Y-52535D01*
X70193Y-51866D01*
X70175Y-51822D01*
X70142Y-51789D01*
X70099Y-51771D01*
X70052Y-51771D01*
X69841Y-51771D01*
X69868Y-51706D01*
X69868Y-51600D01*
X69839Y-51531D01*
X69927Y-51531D01*
X69966Y-51625D01*
X70077Y-51736D01*
X70221Y-51796D01*
X70377Y-51796D01*
X70522Y-51736D01*
X70633Y-51626D01*
X70693Y-51481D01*
X70693Y-51325D01*
X70633Y-51180D01*
X70522Y-51070D01*
X70476Y-51050D01*
X71048Y-51050D01*
X71029Y-51102D01*
X71300Y-51372D01*
X71570Y-51102D01*
X71551Y-51050D01*
X72123Y-51050D01*
X72077Y-51069D01*
X71966Y-51180D01*
X71906Y-51324D01*
X71906Y-51481D01*
X71966Y-51625D01*
X72077Y-51736D01*
X72221Y-51796D01*
X72377Y-51796D01*
X72522Y-51736D01*
X72633Y-51626D01*
X72651Y-51581D01*
X72948Y-51581D01*
X72966Y-51625D01*
X73077Y-51736D01*
X73221Y-51796D01*
X73377Y-51796D01*
X73522Y-51736D01*
X73627Y-51632D01*
X73924Y-51929D01*
X73924Y-51929D01*
X73981Y-51967D01*
X73981Y-51967D01*
X74049Y-51981D01*
X74050Y-51981D01*
X75176Y-51981D01*
X75721Y-52526D01*
X75721Y-53402D01*
G54D10*
G36*
X60248Y-54396D02*
X60297Y-54347D01*
X60302Y-54336D01*
X60366Y-54363D01*
X60473Y-54363D01*
X60572Y-54322D01*
X60647Y-54247D01*
X60688Y-54148D01*
X60688Y-54042D01*
X60669Y-53996D01*
X61144Y-54471D01*
X61202Y-54509D01*
X61270Y-54523D01*
X62446Y-54523D01*
X62527Y-54603D01*
X62188Y-54603D01*
X62144Y-54621D01*
X62111Y-54655D01*
X62093Y-54698D01*
X62093Y-54745D01*
X62093Y-54977D01*
X62031Y-54977D01*
X62022Y-54968D01*
X61924Y-54927D01*
X61817Y-54927D01*
X61718Y-54967D01*
X61643Y-55043D01*
X61602Y-55141D01*
X61602Y-55248D01*
X61622Y-55297D01*
X61081Y-55297D01*
X60937Y-55152D01*
X60938Y-55148D01*
X60938Y-55042D01*
X60897Y-54943D01*
X60822Y-54868D01*
X60724Y-54827D01*
X60617Y-54827D01*
X60518Y-54867D01*
X60443Y-54943D01*
X60402Y-55041D01*
X60402Y-55148D01*
X60443Y-55246D01*
X60518Y-55322D01*
X60616Y-55363D01*
X60723Y-55363D01*
X60727Y-55361D01*
X60915Y-55550D01*
X60963Y-55582D01*
X60973Y-55583D01*
X61020Y-55593D01*
X61020Y-55593D01*
X61759Y-55593D01*
X61965Y-55800D01*
X62013Y-55832D01*
X62023Y-55833D01*
X62070Y-55843D01*
X62070Y-55843D01*
X63591Y-55843D01*
X63593Y-55846D01*
X63668Y-55922D01*
X63766Y-55963D01*
X63873Y-55963D01*
X63972Y-55922D01*
X63976Y-55918D01*
X63976Y-55932D01*
X63994Y-55975D01*
X64027Y-56008D01*
X64071Y-56026D01*
X64118Y-56026D01*
X64233Y-56026D01*
X64233Y-56312D01*
X64234Y-56486D01*
X64298Y-56638D01*
X64369Y-56665D01*
X64639Y-56395D01*
X64369Y-56124D01*
X64298Y-56151D01*
X64233Y-56312D01*
X64233Y-56026D01*
X64425Y-56026D01*
X64400Y-56094D01*
X64670Y-56364D01*
X64701Y-56334D01*
X64701Y-56395D01*
X64971Y-56665D01*
X65042Y-56638D01*
X65107Y-56477D01*
X65106Y-56304D01*
X65042Y-56151D01*
X64971Y-56124D01*
X64701Y-56395D01*
X64701Y-56334D01*
X64940Y-56094D01*
X64914Y-56022D01*
X64753Y-55958D01*
X64764Y-55932D01*
X64764Y-55885D01*
X64764Y-55058D01*
X64746Y-55015D01*
X64713Y-54981D01*
X64669Y-54963D01*
X64622Y-54963D01*
X64071Y-54963D01*
X64028Y-54981D01*
X63994Y-55014D01*
X63976Y-55058D01*
X63976Y-55105D01*
X63976Y-55472D01*
X63972Y-55468D01*
X63874Y-55427D01*
X63767Y-55427D01*
X63747Y-55435D01*
X63747Y-54698D01*
X63729Y-54655D01*
X63696Y-54621D01*
X63652Y-54603D01*
X63605Y-54603D01*
X63172Y-54603D01*
X63129Y-54621D01*
X63095Y-54655D01*
X63085Y-54680D01*
X63085Y-54677D01*
X63046Y-54619D01*
X62646Y-54219D01*
X62646Y-54219D01*
X62588Y-54180D01*
X62588Y-54180D01*
X62520Y-54167D01*
X62520Y-54167D01*
X61344Y-54167D01*
X60948Y-53771D01*
X60948Y-52619D01*
X60952Y-52615D01*
X60952Y-53548D01*
X60993Y-53646D01*
X61068Y-53722D01*
X61166Y-53763D01*
X61236Y-53763D01*
X61494Y-54021D01*
X61552Y-54059D01*
X61620Y-54073D01*
X64269Y-54073D01*
X64318Y-54122D01*
X64416Y-54163D01*
X64523Y-54163D01*
X64622Y-54122D01*
X64697Y-54047D01*
X64738Y-53948D01*
X64738Y-53842D01*
X64697Y-53743D01*
X64697Y-53743D01*
X64759Y-53743D01*
X65353Y-54338D01*
X65352Y-54341D01*
X65352Y-54448D01*
X65393Y-54546D01*
X65468Y-54622D01*
X65566Y-54663D01*
X65673Y-54663D01*
X65772Y-54622D01*
X65847Y-54547D01*
X65888Y-54448D01*
X65888Y-54342D01*
X65847Y-54243D01*
X65772Y-54168D01*
X65674Y-54127D01*
X65567Y-54127D01*
X65563Y-54128D01*
X64925Y-53490D01*
X64925Y-53490D01*
X64894Y-53470D01*
X64920Y-53455D01*
X65302Y-53107D01*
X65316Y-53113D01*
X65423Y-53113D01*
X65522Y-53072D01*
X65597Y-52997D01*
X65638Y-52898D01*
X65638Y-52792D01*
X65597Y-52693D01*
X65522Y-52618D01*
X65424Y-52577D01*
X65317Y-52577D01*
X65218Y-52617D01*
X65143Y-52693D01*
X65102Y-52791D01*
X65102Y-52889D01*
X64763Y-53197D01*
X62331Y-53197D01*
X62321Y-53186D01*
X62668Y-53186D01*
X62711Y-53168D01*
X62744Y-53135D01*
X62762Y-53092D01*
X62763Y-53045D01*
X62763Y-52178D01*
X62745Y-52135D01*
X62711Y-52102D01*
X62668Y-52084D01*
X62621Y-52084D01*
X62188Y-52084D01*
X62144Y-52102D01*
X62111Y-52135D01*
X62103Y-52156D01*
X62097Y-52143D01*
X62022Y-52068D01*
X61924Y-52027D01*
X61817Y-52027D01*
X61718Y-52067D01*
X61643Y-52143D01*
X61602Y-52241D01*
X61602Y-52348D01*
X61621Y-52395D01*
X61568Y-52417D01*
X61493Y-52493D01*
X61452Y-52591D01*
X61452Y-52698D01*
X61493Y-52796D01*
X61568Y-52872D01*
X61572Y-52874D01*
X61572Y-52995D01*
X61583Y-53051D01*
X61583Y-53051D01*
X61615Y-53100D01*
X61615Y-53100D01*
X62215Y-53700D01*
X62241Y-53717D01*
X61694Y-53717D01*
X61488Y-53511D01*
X61488Y-53442D01*
X61447Y-53343D01*
X61372Y-53268D01*
X61274Y-53227D01*
X61167Y-53227D01*
X61068Y-53267D01*
X60993Y-53343D01*
X60952Y-53441D01*
X60952Y-53548D01*
X60952Y-52615D01*
X61544Y-52023D01*
X62746Y-52023D01*
X63077Y-52354D01*
X63077Y-53091D01*
X63095Y-53135D01*
X63129Y-53168D01*
X63172Y-53186D01*
X63219Y-53186D01*
X63652Y-53186D01*
X63695Y-53168D01*
X63729Y-53135D01*
X63747Y-53092D01*
X63747Y-53045D01*
X63747Y-52178D01*
X63729Y-52135D01*
X63696Y-52102D01*
X63652Y-52084D01*
X63605Y-52084D01*
X63311Y-52084D01*
X63245Y-52018D01*
X63270Y-52023D01*
X63870Y-52023D01*
X63938Y-52009D01*
X63976Y-51984D01*
X63976Y-52732D01*
X63994Y-52775D01*
X64027Y-52808D01*
X64071Y-52826D01*
X64118Y-52826D01*
X64669Y-52826D01*
X64712Y-52808D01*
X64746Y-52775D01*
X64764Y-52732D01*
X64764Y-52685D01*
X64764Y-52473D01*
X65333Y-52473D01*
X65343Y-52496D01*
X65418Y-52572D01*
X65516Y-52613D01*
X65623Y-52613D01*
X65722Y-52572D01*
X65776Y-52518D01*
X65776Y-52732D01*
X65794Y-52775D01*
X65827Y-52808D01*
X65871Y-52826D01*
X65918Y-52826D01*
X66469Y-52826D01*
X66483Y-52820D01*
X66483Y-52981D01*
X66549Y-53140D01*
X66670Y-53262D01*
X66830Y-53328D01*
X67002Y-53328D01*
X67161Y-53262D01*
X67272Y-53151D01*
X67272Y-54639D01*
X67162Y-54528D01*
X67003Y-54462D01*
X66830Y-54462D01*
X66671Y-54527D01*
X66549Y-54649D01*
X66483Y-54808D01*
X66483Y-54969D01*
X66469Y-54963D01*
X66422Y-54963D01*
X66088Y-54963D01*
X66088Y-54942D01*
X66047Y-54843D01*
X65972Y-54768D01*
X65874Y-54727D01*
X65767Y-54727D01*
X65668Y-54767D01*
X65593Y-54843D01*
X65552Y-54941D01*
X65552Y-55048D01*
X65593Y-55146D01*
X65668Y-55222D01*
X65766Y-55263D01*
X65776Y-55263D01*
X65776Y-55932D01*
X65794Y-55975D01*
X65827Y-56008D01*
X65871Y-56026D01*
X65918Y-56026D01*
X66129Y-56026D01*
X66102Y-56091D01*
X66102Y-56198D01*
X66130Y-56267D01*
X66042Y-56267D01*
X66003Y-56172D01*
X65893Y-56062D01*
X65749Y-56002D01*
X65592Y-56002D01*
X65448Y-56061D01*
X65337Y-56172D01*
X65277Y-56316D01*
X65277Y-56473D01*
X65337Y-56617D01*
X65447Y-56728D01*
X65493Y-56747D01*
X64921Y-56747D01*
X64940Y-56696D01*
X64670Y-56425D01*
X64400Y-56696D01*
X64419Y-56747D01*
X63847Y-56747D01*
X63892Y-56728D01*
X64003Y-56618D01*
X64063Y-56473D01*
X64063Y-56317D01*
X64003Y-56172D01*
X63893Y-56062D01*
X63749Y-56002D01*
X63592Y-56002D01*
X63448Y-56061D01*
X63337Y-56172D01*
X63318Y-56217D01*
X63022Y-56217D01*
X63003Y-56172D01*
X62893Y-56062D01*
X62749Y-56002D01*
X62592Y-56002D01*
X62448Y-56061D01*
X62343Y-56166D01*
X62046Y-55869D01*
X62046Y-55869D01*
X61988Y-55830D01*
X61988Y-55830D01*
X61920Y-55817D01*
X61920Y-55817D01*
X60794Y-55817D01*
X60248Y-55271D01*
X60248Y-54396D01*
X60248Y-54396D01*
G37*
G54D48*
X60248Y-54396D02*
X60297Y-54347D01*
X60302Y-54336D01*
X60366Y-54363D01*
X60473Y-54363D01*
X60572Y-54322D01*
X60647Y-54247D01*
X60688Y-54148D01*
X60688Y-54042D01*
X60669Y-53996D01*
X61144Y-54471D01*
X61202Y-54509D01*
X61270Y-54523D01*
X62446Y-54523D01*
X62527Y-54603D01*
X62188Y-54603D01*
X62144Y-54621D01*
X62111Y-54655D01*
X62093Y-54698D01*
X62093Y-54745D01*
X62093Y-54977D01*
X62031Y-54977D01*
X62022Y-54968D01*
X61924Y-54927D01*
X61817Y-54927D01*
X61718Y-54967D01*
X61643Y-55043D01*
X61602Y-55141D01*
X61602Y-55248D01*
X61622Y-55297D01*
X61081Y-55297D01*
X60937Y-55152D01*
X60938Y-55148D01*
X60938Y-55042D01*
X60897Y-54943D01*
X60822Y-54868D01*
X60724Y-54827D01*
X60617Y-54827D01*
X60518Y-54867D01*
X60443Y-54943D01*
X60402Y-55041D01*
X60402Y-55148D01*
X60443Y-55246D01*
X60518Y-55322D01*
X60616Y-55363D01*
X60723Y-55363D01*
X60727Y-55361D01*
X60915Y-55550D01*
X60963Y-55582D01*
X60973Y-55583D01*
X61020Y-55593D01*
X61020Y-55593D01*
X61759Y-55593D01*
X61965Y-55800D01*
X62013Y-55832D01*
X62023Y-55833D01*
X62070Y-55843D01*
X62070Y-55843D01*
X63591Y-55843D01*
X63593Y-55846D01*
X63668Y-55922D01*
X63766Y-55963D01*
X63873Y-55963D01*
X63972Y-55922D01*
X63976Y-55918D01*
X63976Y-55932D01*
X63994Y-55975D01*
X64027Y-56008D01*
X64071Y-56026D01*
X64118Y-56026D01*
X64233Y-56026D01*
X64233Y-56312D01*
X64234Y-56486D01*
X64298Y-56638D01*
X64369Y-56665D01*
X64639Y-56395D01*
X64369Y-56124D01*
X64298Y-56151D01*
X64233Y-56312D01*
X64233Y-56026D01*
X64425Y-56026D01*
X64400Y-56094D01*
X64670Y-56364D01*
X64701Y-56334D01*
X64701Y-56395D01*
X64971Y-56665D01*
X65042Y-56638D01*
X65107Y-56477D01*
X65106Y-56304D01*
X65042Y-56151D01*
X64971Y-56124D01*
X64701Y-56395D01*
X64701Y-56334D01*
X64940Y-56094D01*
X64914Y-56022D01*
X64753Y-55958D01*
X64764Y-55932D01*
X64764Y-55885D01*
X64764Y-55058D01*
X64746Y-55015D01*
X64713Y-54981D01*
X64669Y-54963D01*
X64622Y-54963D01*
X64071Y-54963D01*
X64028Y-54981D01*
X63994Y-55014D01*
X63976Y-55058D01*
X63976Y-55105D01*
X63976Y-55472D01*
X63972Y-55468D01*
X63874Y-55427D01*
X63767Y-55427D01*
X63747Y-55435D01*
X63747Y-54698D01*
X63729Y-54655D01*
X63696Y-54621D01*
X63652Y-54603D01*
X63605Y-54603D01*
X63172Y-54603D01*
X63129Y-54621D01*
X63095Y-54655D01*
X63085Y-54680D01*
X63085Y-54677D01*
X63046Y-54619D01*
X62646Y-54219D01*
X62646Y-54219D01*
X62588Y-54180D01*
X62588Y-54180D01*
X62520Y-54167D01*
X62520Y-54167D01*
X61344Y-54167D01*
X60948Y-53771D01*
X60948Y-52619D01*
X60952Y-52615D01*
X60952Y-53548D01*
X60993Y-53646D01*
X61068Y-53722D01*
X61166Y-53763D01*
X61236Y-53763D01*
X61494Y-54021D01*
X61552Y-54059D01*
X61620Y-54073D01*
X64269Y-54073D01*
X64318Y-54122D01*
X64416Y-54163D01*
X64523Y-54163D01*
X64622Y-54122D01*
X64697Y-54047D01*
X64738Y-53948D01*
X64738Y-53842D01*
X64697Y-53743D01*
X64697Y-53743D01*
X64759Y-53743D01*
X65353Y-54338D01*
X65352Y-54341D01*
X65352Y-54448D01*
X65393Y-54546D01*
X65468Y-54622D01*
X65566Y-54663D01*
X65673Y-54663D01*
X65772Y-54622D01*
X65847Y-54547D01*
X65888Y-54448D01*
X65888Y-54342D01*
X65847Y-54243D01*
X65772Y-54168D01*
X65674Y-54127D01*
X65567Y-54127D01*
X65563Y-54128D01*
X64925Y-53490D01*
X64925Y-53490D01*
X64894Y-53470D01*
X64920Y-53455D01*
X65302Y-53107D01*
X65316Y-53113D01*
X65423Y-53113D01*
X65522Y-53072D01*
X65597Y-52997D01*
X65638Y-52898D01*
X65638Y-52792D01*
X65597Y-52693D01*
X65522Y-52618D01*
X65424Y-52577D01*
X65317Y-52577D01*
X65218Y-52617D01*
X65143Y-52693D01*
X65102Y-52791D01*
X65102Y-52889D01*
X64763Y-53197D01*
X62331Y-53197D01*
X62321Y-53186D01*
X62668Y-53186D01*
X62711Y-53168D01*
X62744Y-53135D01*
X62762Y-53092D01*
X62763Y-53045D01*
X62763Y-52178D01*
X62745Y-52135D01*
X62711Y-52102D01*
X62668Y-52084D01*
X62621Y-52084D01*
X62188Y-52084D01*
X62144Y-52102D01*
X62111Y-52135D01*
X62103Y-52156D01*
X62097Y-52143D01*
X62022Y-52068D01*
X61924Y-52027D01*
X61817Y-52027D01*
X61718Y-52067D01*
X61643Y-52143D01*
X61602Y-52241D01*
X61602Y-52348D01*
X61621Y-52395D01*
X61568Y-52417D01*
X61493Y-52493D01*
X61452Y-52591D01*
X61452Y-52698D01*
X61493Y-52796D01*
X61568Y-52872D01*
X61572Y-52874D01*
X61572Y-52995D01*
X61583Y-53051D01*
X61583Y-53051D01*
X61615Y-53100D01*
X61615Y-53100D01*
X62215Y-53700D01*
X62241Y-53717D01*
X61694Y-53717D01*
X61488Y-53511D01*
X61488Y-53442D01*
X61447Y-53343D01*
X61372Y-53268D01*
X61274Y-53227D01*
X61167Y-53227D01*
X61068Y-53267D01*
X60993Y-53343D01*
X60952Y-53441D01*
X60952Y-53548D01*
X60952Y-52615D01*
X61544Y-52023D01*
X62746Y-52023D01*
X63077Y-52354D01*
X63077Y-53091D01*
X63095Y-53135D01*
X63129Y-53168D01*
X63172Y-53186D01*
X63219Y-53186D01*
X63652Y-53186D01*
X63695Y-53168D01*
X63729Y-53135D01*
X63747Y-53092D01*
X63747Y-53045D01*
X63747Y-52178D01*
X63729Y-52135D01*
X63696Y-52102D01*
X63652Y-52084D01*
X63605Y-52084D01*
X63311Y-52084D01*
X63245Y-52018D01*
X63270Y-52023D01*
X63870Y-52023D01*
X63938Y-52009D01*
X63976Y-51984D01*
X63976Y-52732D01*
X63994Y-52775D01*
X64027Y-52808D01*
X64071Y-52826D01*
X64118Y-52826D01*
X64669Y-52826D01*
X64712Y-52808D01*
X64746Y-52775D01*
X64764Y-52732D01*
X64764Y-52685D01*
X64764Y-52473D01*
X65333Y-52473D01*
X65343Y-52496D01*
X65418Y-52572D01*
X65516Y-52613D01*
X65623Y-52613D01*
X65722Y-52572D01*
X65776Y-52518D01*
X65776Y-52732D01*
X65794Y-52775D01*
X65827Y-52808D01*
X65871Y-52826D01*
X65918Y-52826D01*
X66469Y-52826D01*
X66483Y-52820D01*
X66483Y-52981D01*
X66549Y-53140D01*
X66670Y-53262D01*
X66830Y-53328D01*
X67002Y-53328D01*
X67161Y-53262D01*
X67272Y-53151D01*
X67272Y-54639D01*
X67162Y-54528D01*
X67003Y-54462D01*
X66830Y-54462D01*
X66671Y-54527D01*
X66549Y-54649D01*
X66483Y-54808D01*
X66483Y-54969D01*
X66469Y-54963D01*
X66422Y-54963D01*
X66088Y-54963D01*
X66088Y-54942D01*
X66047Y-54843D01*
X65972Y-54768D01*
X65874Y-54727D01*
X65767Y-54727D01*
X65668Y-54767D01*
X65593Y-54843D01*
X65552Y-54941D01*
X65552Y-55048D01*
X65593Y-55146D01*
X65668Y-55222D01*
X65766Y-55263D01*
X65776Y-55263D01*
X65776Y-55932D01*
X65794Y-55975D01*
X65827Y-56008D01*
X65871Y-56026D01*
X65918Y-56026D01*
X66129Y-56026D01*
X66102Y-56091D01*
X66102Y-56198D01*
X66130Y-56267D01*
X66042Y-56267D01*
X66003Y-56172D01*
X65893Y-56062D01*
X65749Y-56002D01*
X65592Y-56002D01*
X65448Y-56061D01*
X65337Y-56172D01*
X65277Y-56316D01*
X65277Y-56473D01*
X65337Y-56617D01*
X65447Y-56728D01*
X65493Y-56747D01*
X64921Y-56747D01*
X64940Y-56696D01*
X64670Y-56425D01*
X64400Y-56696D01*
X64419Y-56747D01*
X63847Y-56747D01*
X63892Y-56728D01*
X64003Y-56618D01*
X64063Y-56473D01*
X64063Y-56317D01*
X64003Y-56172D01*
X63893Y-56062D01*
X63749Y-56002D01*
X63592Y-56002D01*
X63448Y-56061D01*
X63337Y-56172D01*
X63318Y-56217D01*
X63022Y-56217D01*
X63003Y-56172D01*
X62893Y-56062D01*
X62749Y-56002D01*
X62592Y-56002D01*
X62448Y-56061D01*
X62343Y-56166D01*
X62046Y-55869D01*
X62046Y-55869D01*
X61988Y-55830D01*
X61988Y-55830D01*
X61920Y-55817D01*
X61920Y-55817D01*
X60794Y-55817D01*
X60248Y-55271D01*
X60248Y-54396D01*
G54D10*
G36*
X73831Y-48248D02*
X73183Y-48248D01*
X72683Y-47498D01*
X71456Y-47498D01*
X71456Y-45514D01*
X70206Y-45014D01*
X70206Y-44373D01*
X73831Y-44373D01*
X73831Y-48248D01*
X73831Y-48248D01*
G37*
G54D49*
X73831Y-48248D02*
X73183Y-48248D01*
X72683Y-47498D01*
X71456Y-47498D01*
X71456Y-45514D01*
X70206Y-45014D01*
X70206Y-44373D01*
X73831Y-44373D01*
X73831Y-48248D01*
G54D10*
G36*
X73831Y-49723D02*
X70151Y-49723D01*
X70181Y-49653D01*
X70181Y-49444D01*
X70101Y-49251D01*
X69954Y-49103D01*
X69761Y-49023D01*
X69552Y-49023D01*
X69544Y-49026D01*
X69361Y-48843D01*
X69267Y-48780D01*
X69156Y-48758D01*
X68125Y-48758D01*
X68125Y-48699D01*
X68125Y-47899D01*
X68087Y-47807D01*
X68017Y-47737D01*
X67926Y-47699D01*
X67827Y-47699D01*
X66387Y-47699D01*
X66295Y-47737D01*
X66225Y-47807D01*
X66191Y-47888D01*
X65630Y-47327D01*
X65630Y-47174D01*
X65592Y-47082D01*
X65522Y-47012D01*
X65431Y-46974D01*
X65332Y-46974D01*
X64882Y-46974D01*
X64790Y-47012D01*
X64720Y-47082D01*
X64682Y-47173D01*
X64682Y-47272D01*
X64682Y-47522D01*
X64720Y-47614D01*
X64790Y-47684D01*
X64881Y-47722D01*
X64980Y-47722D01*
X65035Y-47722D01*
X65908Y-48595D01*
X65909Y-48595D01*
X66022Y-48671D01*
X66156Y-48698D01*
X66187Y-48698D01*
X66187Y-48758D01*
X65837Y-48758D01*
X65817Y-48708D01*
X65697Y-48588D01*
X65541Y-48523D01*
X65372Y-48523D01*
X65216Y-48587D01*
X65096Y-48707D01*
X65031Y-48863D01*
X65031Y-49032D01*
X65095Y-49188D01*
X65215Y-49308D01*
X65371Y-49373D01*
X65540Y-49373D01*
X65625Y-49338D01*
X67174Y-49338D01*
X67131Y-49443D01*
X67131Y-49652D01*
X67160Y-49723D01*
X58481Y-49723D01*
X58481Y-48896D01*
X58502Y-48896D01*
X59248Y-48896D01*
X59340Y-48858D01*
X59410Y-48788D01*
X59448Y-48697D01*
X59448Y-48671D01*
X59466Y-48679D01*
X59565Y-48679D01*
X60193Y-48679D01*
X60285Y-48641D01*
X60355Y-48571D01*
X60393Y-48480D01*
X60393Y-48440D01*
X60471Y-48473D01*
X60571Y-48473D01*
X61001Y-48903D01*
X61095Y-48966D01*
X61206Y-48988D01*
X61556Y-48988D01*
X63045Y-48988D01*
X63115Y-49058D01*
X63271Y-49123D01*
X63440Y-49123D01*
X63596Y-49059D01*
X63716Y-48939D01*
X63781Y-48783D01*
X63781Y-48614D01*
X63717Y-48458D01*
X63597Y-48338D01*
X63441Y-48273D01*
X63272Y-48273D01*
X63230Y-48290D01*
X63230Y-46573D01*
X63230Y-46474D01*
X63230Y-46024D01*
X63192Y-45932D01*
X63122Y-45862D01*
X63031Y-45824D01*
X62932Y-45824D01*
X62682Y-45824D01*
X62662Y-45832D01*
X62641Y-45823D01*
X62472Y-45823D01*
X62316Y-45887D01*
X62196Y-46007D01*
X62131Y-46163D01*
X62131Y-46332D01*
X62195Y-46488D01*
X62315Y-46608D01*
X62471Y-46673D01*
X62529Y-46673D01*
X62579Y-46723D01*
X62472Y-46723D01*
X62316Y-46787D01*
X62196Y-46907D01*
X62131Y-47063D01*
X62131Y-47232D01*
X62195Y-47388D01*
X62315Y-47508D01*
X62357Y-47525D01*
X62357Y-47622D01*
X62395Y-47714D01*
X62465Y-47784D01*
X62556Y-47822D01*
X62655Y-47822D01*
X63005Y-47822D01*
X63097Y-47784D01*
X63167Y-47714D01*
X63205Y-47623D01*
X63205Y-47524D01*
X63205Y-46974D01*
X63167Y-46882D01*
X63097Y-46812D01*
X63006Y-46774D01*
X62907Y-46774D01*
X62763Y-46774D01*
X62758Y-46772D01*
X62780Y-46772D01*
X63030Y-46772D01*
X63122Y-46734D01*
X63192Y-46664D01*
X63230Y-46573D01*
X63230Y-48290D01*
X63116Y-48337D01*
X63045Y-48408D01*
X61556Y-48408D01*
X61326Y-48408D01*
X60981Y-48063D01*
X60981Y-47964D01*
X60925Y-47829D01*
X60941Y-47814D01*
X61006Y-47658D01*
X61006Y-47489D01*
X60942Y-47333D01*
X60822Y-47213D01*
X60800Y-47204D01*
X60799Y-47203D01*
X60686Y-47090D01*
X60588Y-47025D01*
X60991Y-46623D01*
X61090Y-46623D01*
X61246Y-46559D01*
X61366Y-46439D01*
X61431Y-46283D01*
X61431Y-46114D01*
X61367Y-45958D01*
X61357Y-45948D01*
X61366Y-45939D01*
X61431Y-45783D01*
X61431Y-45614D01*
X61367Y-45458D01*
X61247Y-45338D01*
X61091Y-45273D01*
X60922Y-45273D01*
X60766Y-45337D01*
X60646Y-45457D01*
X60581Y-45613D01*
X60581Y-45713D01*
X60451Y-45843D01*
X60393Y-45929D01*
X60393Y-45117D01*
X60355Y-45025D01*
X60285Y-44955D01*
X60194Y-44917D01*
X60095Y-44917D01*
X59467Y-44917D01*
X59448Y-44924D01*
X59448Y-44900D01*
X59410Y-44808D01*
X59340Y-44738D01*
X59249Y-44700D01*
X59150Y-44700D01*
X58481Y-44700D01*
X58481Y-44373D01*
X62271Y-44373D01*
X62101Y-44543D01*
X62038Y-44637D01*
X62016Y-44748D01*
X62016Y-44973D01*
X61922Y-44973D01*
X61766Y-45037D01*
X61646Y-45157D01*
X61581Y-45313D01*
X61581Y-45482D01*
X61645Y-45638D01*
X61765Y-45758D01*
X61921Y-45823D01*
X62090Y-45823D01*
X62246Y-45759D01*
X62366Y-45639D01*
X62431Y-45483D01*
X62431Y-45383D01*
X62511Y-45303D01*
X62574Y-45209D01*
X62596Y-45098D01*
X62596Y-44868D01*
X62726Y-44738D01*
X63161Y-44738D01*
X63157Y-44748D01*
X63157Y-44847D01*
X63157Y-45347D01*
X63195Y-45439D01*
X63265Y-45509D01*
X63356Y-45547D01*
X63385Y-45547D01*
X63388Y-45559D01*
X63451Y-45653D01*
X63531Y-45733D01*
X63531Y-45832D01*
X63595Y-45988D01*
X63715Y-46108D01*
X63871Y-46173D01*
X64040Y-46173D01*
X64196Y-46109D01*
X64316Y-45989D01*
X64381Y-45833D01*
X64381Y-45664D01*
X64317Y-45508D01*
X64197Y-45388D01*
X64146Y-45367D01*
X64155Y-45348D01*
X64155Y-45249D01*
X64155Y-45098D01*
X64165Y-45108D01*
X64321Y-45173D01*
X64490Y-45173D01*
X64646Y-45109D01*
X64766Y-44989D01*
X64831Y-44833D01*
X64831Y-44664D01*
X64767Y-44508D01*
X64647Y-44388D01*
X64611Y-44373D01*
X67160Y-44373D01*
X67131Y-44443D01*
X67131Y-44652D01*
X67211Y-44845D01*
X67238Y-44873D01*
X67072Y-44873D01*
X66916Y-44937D01*
X66796Y-45057D01*
X66731Y-45213D01*
X66731Y-45240D01*
X66707Y-45298D01*
X66707Y-45397D01*
X66707Y-46158D01*
X65681Y-46158D01*
X65681Y-46064D01*
X65617Y-45908D01*
X65497Y-45788D01*
X65341Y-45723D01*
X65172Y-45723D01*
X65016Y-45787D01*
X64896Y-45907D01*
X64831Y-46063D01*
X64831Y-46232D01*
X64895Y-46388D01*
X65015Y-46508D01*
X65171Y-46573D01*
X65271Y-46573D01*
X65351Y-46653D01*
X65445Y-46716D01*
X65556Y-46738D01*
X67856Y-46738D01*
X67967Y-46716D01*
X68061Y-46653D01*
X68260Y-46454D01*
X68260Y-46453D01*
X68261Y-46453D01*
X68298Y-46397D01*
X68305Y-46397D01*
X68397Y-46359D01*
X68467Y-46289D01*
X68505Y-46198D01*
X68505Y-46099D01*
X68505Y-45793D01*
X68800Y-45498D01*
X70056Y-45498D01*
X70056Y-45497D01*
X70190Y-45471D01*
X70195Y-45467D01*
X71106Y-45832D01*
X71106Y-47848D01*
X72379Y-47848D01*
X72879Y-48598D01*
X73007Y-48598D01*
X73007Y-48747D01*
X73045Y-48839D01*
X73115Y-48909D01*
X73206Y-48947D01*
X73305Y-48947D01*
X73831Y-48947D01*
X73831Y-49723D01*
X73831Y-49723D01*
G37*
G54D49*
X73831Y-49723D02*
X70151Y-49723D01*
X70181Y-49653D01*
X70181Y-49444D01*
X70101Y-49251D01*
X69954Y-49103D01*
X69761Y-49023D01*
X69552Y-49023D01*
X69544Y-49026D01*
X69361Y-48843D01*
X69267Y-48780D01*
X69156Y-48758D01*
X68125Y-48758D01*
X68125Y-48699D01*
X68125Y-47899D01*
X68087Y-47807D01*
X68017Y-47737D01*
X67926Y-47699D01*
X67827Y-47699D01*
X66387Y-47699D01*
X66295Y-47737D01*
X66225Y-47807D01*
X66191Y-47888D01*
X65630Y-47327D01*
X65630Y-47174D01*
X65592Y-47082D01*
X65522Y-47012D01*
X65431Y-46974D01*
X65332Y-46974D01*
X64882Y-46974D01*
X64790Y-47012D01*
X64720Y-47082D01*
X64682Y-47173D01*
X64682Y-47272D01*
X64682Y-47522D01*
X64720Y-47614D01*
X64790Y-47684D01*
X64881Y-47722D01*
X64980Y-47722D01*
X65035Y-47722D01*
X65908Y-48595D01*
X65909Y-48595D01*
X66022Y-48671D01*
X66156Y-48698D01*
X66187Y-48698D01*
X66187Y-48758D01*
X65837Y-48758D01*
X65817Y-48708D01*
X65697Y-48588D01*
X65541Y-48523D01*
X65372Y-48523D01*
X65216Y-48587D01*
X65096Y-48707D01*
X65031Y-48863D01*
X65031Y-49032D01*
X65095Y-49188D01*
X65215Y-49308D01*
X65371Y-49373D01*
X65540Y-49373D01*
X65625Y-49338D01*
X67174Y-49338D01*
X67131Y-49443D01*
X67131Y-49652D01*
X67160Y-49723D01*
X58481Y-49723D01*
X58481Y-48896D01*
X58502Y-48896D01*
X59248Y-48896D01*
X59340Y-48858D01*
X59410Y-48788D01*
X59448Y-48697D01*
X59448Y-48671D01*
X59466Y-48679D01*
X59565Y-48679D01*
X60193Y-48679D01*
X60285Y-48641D01*
X60355Y-48571D01*
X60393Y-48480D01*
X60393Y-48440D01*
X60471Y-48473D01*
X60571Y-48473D01*
X61001Y-48903D01*
X61095Y-48966D01*
X61206Y-48988D01*
X61556Y-48988D01*
X63045Y-48988D01*
X63115Y-49058D01*
X63271Y-49123D01*
X63440Y-49123D01*
X63596Y-49059D01*
X63716Y-48939D01*
X63781Y-48783D01*
X63781Y-48614D01*
X63717Y-48458D01*
X63597Y-48338D01*
X63441Y-48273D01*
X63272Y-48273D01*
X63230Y-48290D01*
X63230Y-46573D01*
X63230Y-46474D01*
X63230Y-46024D01*
X63192Y-45932D01*
X63122Y-45862D01*
X63031Y-45824D01*
X62932Y-45824D01*
X62682Y-45824D01*
X62662Y-45832D01*
X62641Y-45823D01*
X62472Y-45823D01*
X62316Y-45887D01*
X62196Y-46007D01*
X62131Y-46163D01*
X62131Y-46332D01*
X62195Y-46488D01*
X62315Y-46608D01*
X62471Y-46673D01*
X62529Y-46673D01*
X62579Y-46723D01*
X62472Y-46723D01*
X62316Y-46787D01*
X62196Y-46907D01*
X62131Y-47063D01*
X62131Y-47232D01*
X62195Y-47388D01*
X62315Y-47508D01*
X62357Y-47525D01*
X62357Y-47622D01*
X62395Y-47714D01*
X62465Y-47784D01*
X62556Y-47822D01*
X62655Y-47822D01*
X63005Y-47822D01*
X63097Y-47784D01*
X63167Y-47714D01*
X63205Y-47623D01*
X63205Y-47524D01*
X63205Y-46974D01*
X63167Y-46882D01*
X63097Y-46812D01*
X63006Y-46774D01*
X62907Y-46774D01*
X62763Y-46774D01*
X62758Y-46772D01*
X62780Y-46772D01*
X63030Y-46772D01*
X63122Y-46734D01*
X63192Y-46664D01*
X63230Y-46573D01*
X63230Y-48290D01*
X63116Y-48337D01*
X63045Y-48408D01*
X61556Y-48408D01*
X61326Y-48408D01*
X60981Y-48063D01*
X60981Y-47964D01*
X60925Y-47829D01*
X60941Y-47814D01*
X61006Y-47658D01*
X61006Y-47489D01*
X60942Y-47333D01*
X60822Y-47213D01*
X60800Y-47204D01*
X60799Y-47203D01*
X60686Y-47090D01*
X60588Y-47025D01*
X60991Y-46623D01*
X61090Y-46623D01*
X61246Y-46559D01*
X61366Y-46439D01*
X61431Y-46283D01*
X61431Y-46114D01*
X61367Y-45958D01*
X61357Y-45948D01*
X61366Y-45939D01*
X61431Y-45783D01*
X61431Y-45614D01*
X61367Y-45458D01*
X61247Y-45338D01*
X61091Y-45273D01*
X60922Y-45273D01*
X60766Y-45337D01*
X60646Y-45457D01*
X60581Y-45613D01*
X60581Y-45713D01*
X60451Y-45843D01*
X60393Y-45929D01*
X60393Y-45117D01*
X60355Y-45025D01*
X60285Y-44955D01*
X60194Y-44917D01*
X60095Y-44917D01*
X59467Y-44917D01*
X59448Y-44924D01*
X59448Y-44900D01*
X59410Y-44808D01*
X59340Y-44738D01*
X59249Y-44700D01*
X59150Y-44700D01*
X58481Y-44700D01*
X58481Y-44373D01*
X62271Y-44373D01*
X62101Y-44543D01*
X62038Y-44637D01*
X62016Y-44748D01*
X62016Y-44973D01*
X61922Y-44973D01*
X61766Y-45037D01*
X61646Y-45157D01*
X61581Y-45313D01*
X61581Y-45482D01*
X61645Y-45638D01*
X61765Y-45758D01*
X61921Y-45823D01*
X62090Y-45823D01*
X62246Y-45759D01*
X62366Y-45639D01*
X62431Y-45483D01*
X62431Y-45383D01*
X62511Y-45303D01*
X62574Y-45209D01*
X62596Y-45098D01*
X62596Y-44868D01*
X62726Y-44738D01*
X63161Y-44738D01*
X63157Y-44748D01*
X63157Y-44847D01*
X63157Y-45347D01*
X63195Y-45439D01*
X63265Y-45509D01*
X63356Y-45547D01*
X63385Y-45547D01*
X63388Y-45559D01*
X63451Y-45653D01*
X63531Y-45733D01*
X63531Y-45832D01*
X63595Y-45988D01*
X63715Y-46108D01*
X63871Y-46173D01*
X64040Y-46173D01*
X64196Y-46109D01*
X64316Y-45989D01*
X64381Y-45833D01*
X64381Y-45664D01*
X64317Y-45508D01*
X64197Y-45388D01*
X64146Y-45367D01*
X64155Y-45348D01*
X64155Y-45249D01*
X64155Y-45098D01*
X64165Y-45108D01*
X64321Y-45173D01*
X64490Y-45173D01*
X64646Y-45109D01*
X64766Y-44989D01*
X64831Y-44833D01*
X64831Y-44664D01*
X64767Y-44508D01*
X64647Y-44388D01*
X64611Y-44373D01*
X67160Y-44373D01*
X67131Y-44443D01*
X67131Y-44652D01*
X67211Y-44845D01*
X67238Y-44873D01*
X67072Y-44873D01*
X66916Y-44937D01*
X66796Y-45057D01*
X66731Y-45213D01*
X66731Y-45240D01*
X66707Y-45298D01*
X66707Y-45397D01*
X66707Y-46158D01*
X65681Y-46158D01*
X65681Y-46064D01*
X65617Y-45908D01*
X65497Y-45788D01*
X65341Y-45723D01*
X65172Y-45723D01*
X65016Y-45787D01*
X64896Y-45907D01*
X64831Y-46063D01*
X64831Y-46232D01*
X64895Y-46388D01*
X65015Y-46508D01*
X65171Y-46573D01*
X65271Y-46573D01*
X65351Y-46653D01*
X65445Y-46716D01*
X65556Y-46738D01*
X67856Y-46738D01*
X67967Y-46716D01*
X68061Y-46653D01*
X68260Y-46454D01*
X68260Y-46453D01*
X68261Y-46453D01*
X68298Y-46397D01*
X68305Y-46397D01*
X68397Y-46359D01*
X68467Y-46289D01*
X68505Y-46198D01*
X68505Y-46099D01*
X68505Y-45793D01*
X68800Y-45498D01*
X70056Y-45498D01*
X70056Y-45497D01*
X70190Y-45471D01*
X70195Y-45467D01*
X71106Y-45832D01*
X71106Y-47848D01*
X72379Y-47848D01*
X72879Y-48598D01*
X73007Y-48598D01*
X73007Y-48747D01*
X73045Y-48839D01*
X73115Y-48909D01*
X73206Y-48947D01*
X73305Y-48947D01*
X73831Y-48947D01*
X73831Y-49723D01*
M02*
