M48
;DRILL file {Pcbnew (2013-jul-07)-stable} date Thu 09 Jan 2014 04:23:33 AM EST
;FORMAT={-:-/ absolute / inch / decimal}
;FMAT,2
INCH,TZ
T1C0.015
T2C0.032
T3C0.035
%
G90
G05
M72
T1
X7.495Y-5.95
X7.6Y-5.98
X7.6Y-6.025
X7.7525Y-6.05
X7.97Y-5.805
X7.975Y-6.0975
X8.09Y-5.85
X8.3075Y-6.005
X8.3375Y-5.9875
X8.3375Y-6.025
X8.3675Y-6.005
X8.5825Y-5.98
X8.595Y-6.0675
X8.61Y-6.02
X8.61Y-6.115
X8.625Y-6.0675
X8.6375Y-5.98
T2
X8.05Y-5.7
X8.05Y-6.2
X8.15Y-5.7
X8.15Y-6.2
X8.25Y-5.7
X8.25Y-6.2
X8.35Y-5.7
X8.35Y-6.2
X8.45Y-5.7
X8.45Y-6.2
X8.55Y-5.7
X8.55Y-6.2
X8.65Y-5.7
X8.65Y-6.2
X8.75Y-5.7
X8.75Y-6.2
T3
X7.8Y-5.875
X7.8Y-5.975
X7.9Y-5.925
X7.9Y-6.025
T0
M30
