G04 (created by PCBNEW (2013-jul-07)-stable) date Thu 09 Jan 2014 04:23:31 AM EST*
%MOIN*%
G04 Gerber Fmt 3.4, Leading zero omitted, Abs format*
%FSLAX34Y34*%
G01*
G70*
G90*
G04 APERTURE LIST*
%ADD10C,0.00590551*%
%ADD11C,0.00511811*%
%ADD12C,0.005*%
%ADD13C,0.0031*%
G04 APERTURE END LIST*
G54D10*
G54D11*
X79221Y-58171D02*
X79221Y-57971D01*
X79221Y-58028D02*
X79207Y-58000D01*
X79192Y-57985D01*
X79164Y-57971D01*
X79135Y-57971D01*
X78921Y-58157D02*
X78949Y-58171D01*
X79007Y-58171D01*
X79035Y-58157D01*
X79049Y-58128D01*
X79049Y-58014D01*
X79035Y-57985D01*
X79007Y-57971D01*
X78949Y-57971D01*
X78921Y-57985D01*
X78907Y-58014D01*
X78907Y-58042D01*
X79049Y-58071D01*
X78807Y-57971D02*
X78735Y-58171D01*
X78664Y-57971D01*
X78164Y-58171D02*
X78335Y-58171D01*
X78250Y-58171D02*
X78250Y-57871D01*
X78278Y-57914D01*
X78307Y-57942D01*
X78335Y-57957D01*
X79621Y-57185D02*
X79478Y-57185D01*
X79650Y-57271D02*
X79550Y-56971D01*
X79450Y-57271D01*
X79221Y-57071D02*
X79221Y-57271D01*
X79350Y-57071D02*
X79350Y-57228D01*
X79335Y-57257D01*
X79307Y-57271D01*
X79264Y-57271D01*
X79235Y-57257D01*
X79221Y-57242D01*
X79078Y-57271D02*
X79078Y-57071D01*
X79078Y-57128D02*
X79064Y-57100D01*
X79050Y-57085D01*
X79021Y-57071D01*
X78992Y-57071D01*
X78850Y-57271D02*
X78878Y-57257D01*
X78892Y-57242D01*
X78907Y-57214D01*
X78907Y-57128D01*
X78892Y-57100D01*
X78878Y-57085D01*
X78850Y-57071D01*
X78807Y-57071D01*
X78778Y-57085D01*
X78764Y-57100D01*
X78750Y-57128D01*
X78750Y-57214D01*
X78764Y-57242D01*
X78778Y-57257D01*
X78807Y-57271D01*
X78850Y-57271D01*
X78621Y-57271D02*
X78621Y-57071D01*
X78621Y-57128D02*
X78607Y-57100D01*
X78592Y-57085D01*
X78564Y-57071D01*
X78535Y-57071D01*
X78307Y-57271D02*
X78307Y-57114D01*
X78321Y-57085D01*
X78350Y-57071D01*
X78407Y-57071D01*
X78435Y-57085D01*
X78307Y-57257D02*
X78335Y-57271D01*
X78407Y-57271D01*
X78435Y-57257D01*
X78450Y-57228D01*
X78450Y-57200D01*
X78435Y-57171D01*
X78407Y-57157D01*
X78335Y-57157D01*
X78307Y-57142D01*
X77935Y-57271D02*
X77935Y-56971D01*
X77821Y-56971D01*
X77792Y-56985D01*
X77778Y-57000D01*
X77764Y-57028D01*
X77764Y-57071D01*
X77778Y-57100D01*
X77792Y-57114D01*
X77821Y-57128D01*
X77935Y-57128D01*
X77635Y-57271D02*
X77635Y-57071D01*
X77635Y-57128D02*
X77621Y-57100D01*
X77607Y-57085D01*
X77578Y-57071D01*
X77550Y-57071D01*
X77407Y-57271D02*
X77435Y-57257D01*
X77450Y-57242D01*
X77464Y-57214D01*
X77464Y-57128D01*
X77450Y-57100D01*
X77435Y-57085D01*
X77407Y-57071D01*
X77364Y-57071D01*
X77335Y-57085D01*
X77321Y-57100D01*
X77307Y-57128D01*
X77307Y-57214D01*
X77321Y-57242D01*
X77335Y-57257D01*
X77364Y-57271D01*
X77407Y-57271D01*
X77178Y-57071D02*
X77178Y-57328D01*
X77192Y-57357D01*
X77221Y-57371D01*
X77235Y-57371D01*
X77178Y-56971D02*
X77192Y-56985D01*
X77178Y-57000D01*
X77164Y-56985D01*
X77178Y-56971D01*
X77178Y-57000D01*
X76921Y-57257D02*
X76950Y-57271D01*
X77007Y-57271D01*
X77035Y-57257D01*
X77050Y-57228D01*
X77050Y-57114D01*
X77035Y-57085D01*
X77007Y-57071D01*
X76950Y-57071D01*
X76921Y-57085D01*
X76907Y-57114D01*
X76907Y-57142D01*
X77050Y-57171D01*
X76650Y-57257D02*
X76678Y-57271D01*
X76735Y-57271D01*
X76764Y-57257D01*
X76778Y-57242D01*
X76792Y-57214D01*
X76792Y-57128D01*
X76778Y-57100D01*
X76764Y-57085D01*
X76735Y-57071D01*
X76678Y-57071D01*
X76650Y-57085D01*
X76564Y-57071D02*
X76450Y-57071D01*
X76521Y-56971D02*
X76521Y-57228D01*
X76507Y-57257D01*
X76478Y-57271D01*
X76450Y-57271D01*
X79364Y-57742D02*
X79507Y-57742D01*
X79507Y-57442D01*
X79264Y-57442D02*
X79264Y-57685D01*
X79250Y-57714D01*
X79235Y-57728D01*
X79207Y-57742D01*
X79150Y-57742D01*
X79121Y-57728D01*
X79107Y-57714D01*
X79092Y-57685D01*
X79092Y-57442D01*
X78978Y-57442D02*
X78778Y-57742D01*
X78778Y-57442D02*
X78978Y-57742D01*
X78435Y-57742D02*
X78435Y-57442D01*
X78292Y-57542D02*
X78292Y-57742D01*
X78292Y-57571D02*
X78278Y-57556D01*
X78250Y-57542D01*
X78207Y-57542D01*
X78178Y-57556D01*
X78164Y-57585D01*
X78164Y-57742D01*
X78064Y-57542D02*
X77950Y-57542D01*
X78021Y-57442D02*
X78021Y-57699D01*
X78007Y-57728D01*
X77978Y-57742D01*
X77950Y-57742D01*
X77735Y-57728D02*
X77764Y-57742D01*
X77821Y-57742D01*
X77850Y-57728D01*
X77864Y-57699D01*
X77864Y-57585D01*
X77850Y-57556D01*
X77821Y-57542D01*
X77764Y-57542D01*
X77735Y-57556D01*
X77721Y-57585D01*
X77721Y-57614D01*
X77864Y-57642D01*
X77592Y-57742D02*
X77592Y-57542D01*
X77592Y-57599D02*
X77578Y-57571D01*
X77564Y-57556D01*
X77535Y-57542D01*
X77507Y-57542D01*
X77450Y-57542D02*
X77335Y-57542D01*
X77407Y-57742D02*
X77407Y-57485D01*
X77392Y-57456D01*
X77364Y-57442D01*
X77335Y-57442D01*
X77107Y-57742D02*
X77107Y-57585D01*
X77121Y-57556D01*
X77150Y-57542D01*
X77207Y-57542D01*
X77235Y-57556D01*
X77107Y-57728D02*
X77135Y-57742D01*
X77207Y-57742D01*
X77235Y-57728D01*
X77250Y-57699D01*
X77250Y-57671D01*
X77235Y-57642D01*
X77207Y-57628D01*
X77135Y-57628D01*
X77107Y-57614D01*
X76835Y-57728D02*
X76864Y-57742D01*
X76921Y-57742D01*
X76950Y-57728D01*
X76964Y-57714D01*
X76978Y-57685D01*
X76978Y-57599D01*
X76964Y-57571D01*
X76950Y-57556D01*
X76921Y-57542D01*
X76864Y-57542D01*
X76835Y-57556D01*
X76592Y-57728D02*
X76621Y-57742D01*
X76678Y-57742D01*
X76707Y-57728D01*
X76721Y-57699D01*
X76721Y-57585D01*
X76707Y-57556D01*
X76678Y-57542D01*
X76621Y-57542D01*
X76592Y-57556D01*
X76578Y-57585D01*
X76578Y-57614D01*
X76721Y-57642D01*
G54D12*
X83100Y-60600D02*
X84350Y-60600D01*
X84350Y-60600D02*
X84350Y-61300D01*
X84350Y-61300D02*
X83100Y-61300D01*
X83100Y-58800D02*
X84350Y-58800D01*
X84350Y-58800D02*
X84350Y-59500D01*
X84350Y-59500D02*
X83100Y-59500D01*
X80700Y-61400D02*
X83100Y-61400D01*
X83100Y-61400D02*
X83100Y-58700D01*
X83100Y-58700D02*
X80000Y-58700D01*
X79950Y-58700D02*
X79950Y-61400D01*
X80000Y-61400D02*
X80700Y-61400D01*
G54D13*
X83074Y-58463D02*
G75*
G03X83074Y-58463I-62J0D01*
G74*
G01*
X83350Y-57500D02*
X82950Y-57500D01*
X83350Y-58525D02*
X82950Y-58525D01*
X82950Y-57500D02*
X82950Y-58525D01*
X83350Y-58525D02*
X83350Y-57500D01*
G54D12*
X75300Y-60550D02*
X75250Y-60550D01*
X75250Y-60550D02*
X75250Y-58450D01*
X76750Y-58450D02*
X76750Y-60550D01*
X76750Y-60550D02*
X75300Y-60550D01*
X76200Y-60550D02*
X76200Y-60350D01*
X76200Y-60350D02*
X75800Y-60350D01*
X75800Y-60350D02*
X75800Y-60550D01*
X76750Y-58450D02*
X75250Y-58450D01*
X79970Y-57450D02*
G75*
G03X79970Y-57450I-70J0D01*
G74*
G01*
X80550Y-58600D02*
X79950Y-58600D01*
X79950Y-58600D02*
X79950Y-57500D01*
X79950Y-57500D02*
X80550Y-57500D01*
X81150Y-57500D02*
X81750Y-57500D01*
X81750Y-57500D02*
X81750Y-58600D01*
X81750Y-58600D02*
X81150Y-58600D01*
X77250Y-61950D02*
X77250Y-61050D01*
X77250Y-61050D02*
X77900Y-61050D01*
X78600Y-61950D02*
X79250Y-61950D01*
X79250Y-61950D02*
X79250Y-61050D01*
X79250Y-61050D02*
X78600Y-61050D01*
X77900Y-61950D02*
X77250Y-61950D01*
X86450Y-60700D02*
X86450Y-61600D01*
X86450Y-61600D02*
X85800Y-61600D01*
X85100Y-60700D02*
X84450Y-60700D01*
X84450Y-60700D02*
X84450Y-61600D01*
X84450Y-61600D02*
X85100Y-61600D01*
X85800Y-60700D02*
X86450Y-60700D01*
X86450Y-59750D02*
X86450Y-60650D01*
X86450Y-60650D02*
X85800Y-60650D01*
X85100Y-59750D02*
X84450Y-59750D01*
X84450Y-59750D02*
X84450Y-60650D01*
X84450Y-60650D02*
X85100Y-60650D01*
X85800Y-59750D02*
X86450Y-59750D01*
X83950Y-57550D02*
X83950Y-58450D01*
X83950Y-58450D02*
X84450Y-58450D01*
X84450Y-58450D02*
X84450Y-57550D01*
X84450Y-57550D02*
X83950Y-57550D01*
X81900Y-57550D02*
X81900Y-58450D01*
X81900Y-58450D02*
X82400Y-58450D01*
X82400Y-58450D02*
X82400Y-57550D01*
X82400Y-57550D02*
X81900Y-57550D01*
X84915Y-57860D02*
X84915Y-57660D01*
X84915Y-57660D02*
X85385Y-57660D01*
X84915Y-57860D02*
X85385Y-57860D01*
X84915Y-58450D02*
X85385Y-58450D01*
X84915Y-58250D02*
X85385Y-58250D01*
X84915Y-58450D02*
X84915Y-58250D01*
X84915Y-59040D02*
X84915Y-58840D01*
X84915Y-58840D02*
X85385Y-58840D01*
X84915Y-59040D02*
X85385Y-59040D01*
X86610Y-58705D02*
X86610Y-57995D01*
X86610Y-57995D02*
X86415Y-57995D01*
X86610Y-58705D02*
X86415Y-58705D01*
X85385Y-59255D02*
X86415Y-59255D01*
X86415Y-59255D02*
X86415Y-57445D01*
X86415Y-57445D02*
X85385Y-57445D01*
X85385Y-57445D02*
X85385Y-59255D01*
G54D11*
X79821Y-59778D02*
X79521Y-59778D01*
X79521Y-59850D01*
X79535Y-59892D01*
X79564Y-59921D01*
X79592Y-59935D01*
X79650Y-59950D01*
X79692Y-59950D01*
X79750Y-59935D01*
X79778Y-59921D01*
X79807Y-59892D01*
X79821Y-59850D01*
X79821Y-59778D01*
X79821Y-60235D02*
X79821Y-60064D01*
X79821Y-60150D02*
X79521Y-60150D01*
X79564Y-60121D01*
X79592Y-60092D01*
X79607Y-60064D01*
X82521Y-59028D02*
X82521Y-58885D01*
X82664Y-58871D01*
X82650Y-58885D01*
X82635Y-58914D01*
X82635Y-58985D01*
X82650Y-59014D01*
X82664Y-59028D01*
X82692Y-59042D01*
X82764Y-59042D01*
X82792Y-59028D01*
X82807Y-59014D01*
X82821Y-58985D01*
X82821Y-58914D01*
X82807Y-58885D01*
X82792Y-58871D01*
X82521Y-59228D02*
X82521Y-59257D01*
X82535Y-59285D01*
X82550Y-59300D01*
X82578Y-59314D01*
X82635Y-59328D01*
X82707Y-59328D01*
X82764Y-59314D01*
X82792Y-59300D01*
X82807Y-59285D01*
X82821Y-59257D01*
X82821Y-59228D01*
X82807Y-59200D01*
X82792Y-59185D01*
X82764Y-59171D01*
X82707Y-59157D01*
X82635Y-59157D01*
X82578Y-59171D01*
X82550Y-59185D01*
X82535Y-59200D01*
X82521Y-59228D01*
X82521Y-59428D02*
X82821Y-59500D01*
X82607Y-59557D01*
X82821Y-59614D01*
X82521Y-59685D01*
X82850Y-60000D02*
X82835Y-59971D01*
X82807Y-59942D01*
X82764Y-59900D01*
X82750Y-59871D01*
X82750Y-59842D01*
X82821Y-59857D02*
X82807Y-59828D01*
X82778Y-59800D01*
X82721Y-59785D01*
X82621Y-59785D01*
X82564Y-59800D01*
X82535Y-59828D01*
X82521Y-59857D01*
X82521Y-59914D01*
X82535Y-59942D01*
X82564Y-59971D01*
X82621Y-59985D01*
X82721Y-59985D01*
X82778Y-59971D01*
X82807Y-59942D01*
X82821Y-59914D01*
X82821Y-59857D01*
X82821Y-60271D02*
X82821Y-60100D01*
X82821Y-60185D02*
X82521Y-60185D01*
X82564Y-60157D01*
X82592Y-60128D01*
X82607Y-60100D01*
X82521Y-60457D02*
X82521Y-60485D01*
X82535Y-60514D01*
X82550Y-60528D01*
X82578Y-60542D01*
X82635Y-60557D01*
X82707Y-60557D01*
X82764Y-60542D01*
X82792Y-60528D01*
X82807Y-60514D01*
X82821Y-60485D01*
X82821Y-60457D01*
X82807Y-60428D01*
X82792Y-60414D01*
X82764Y-60400D01*
X82707Y-60385D01*
X82635Y-60385D01*
X82578Y-60400D01*
X82550Y-60414D01*
X82535Y-60428D01*
X82521Y-60457D01*
X82664Y-60785D02*
X82664Y-60685D01*
X82821Y-60685D02*
X82521Y-60685D01*
X82521Y-60828D01*
X82821Y-60942D02*
X82521Y-60942D01*
X82821Y-61114D01*
X82521Y-61114D01*
X83828Y-58321D02*
X83828Y-58564D01*
X83814Y-58592D01*
X83800Y-58607D01*
X83771Y-58621D01*
X83714Y-58621D01*
X83685Y-58607D01*
X83671Y-58592D01*
X83657Y-58564D01*
X83657Y-58321D01*
X83528Y-58350D02*
X83514Y-58335D01*
X83485Y-58321D01*
X83414Y-58321D01*
X83385Y-58335D01*
X83371Y-58350D01*
X83357Y-58378D01*
X83357Y-58407D01*
X83371Y-58450D01*
X83542Y-58621D01*
X83357Y-58621D01*
X76828Y-60721D02*
X76828Y-60964D01*
X76814Y-60992D01*
X76800Y-61007D01*
X76771Y-61021D01*
X76714Y-61021D01*
X76685Y-61007D01*
X76671Y-60992D01*
X76657Y-60964D01*
X76657Y-60721D01*
X76542Y-60721D02*
X76357Y-60721D01*
X76457Y-60835D01*
X76414Y-60835D01*
X76385Y-60850D01*
X76371Y-60864D01*
X76357Y-60892D01*
X76357Y-60964D01*
X76371Y-60992D01*
X76385Y-61007D01*
X76414Y-61021D01*
X76500Y-61021D01*
X76528Y-61007D01*
X76542Y-60992D01*
X75707Y-58735D02*
X75721Y-58778D01*
X75721Y-58850D01*
X75707Y-58878D01*
X75692Y-58892D01*
X75664Y-58907D01*
X75635Y-58907D01*
X75607Y-58892D01*
X75592Y-58878D01*
X75578Y-58850D01*
X75564Y-58792D01*
X75550Y-58764D01*
X75535Y-58750D01*
X75507Y-58735D01*
X75478Y-58735D01*
X75450Y-58750D01*
X75435Y-58764D01*
X75421Y-58792D01*
X75421Y-58864D01*
X75435Y-58907D01*
X75421Y-58992D02*
X75421Y-59164D01*
X75721Y-59078D02*
X75421Y-59078D01*
X75521Y-59392D02*
X75721Y-59392D01*
X75407Y-59321D02*
X75621Y-59250D01*
X75621Y-59435D01*
X75550Y-59592D02*
X75535Y-59564D01*
X75521Y-59550D01*
X75492Y-59535D01*
X75478Y-59535D01*
X75450Y-59550D01*
X75435Y-59564D01*
X75421Y-59592D01*
X75421Y-59650D01*
X75435Y-59678D01*
X75450Y-59692D01*
X75478Y-59707D01*
X75492Y-59707D01*
X75521Y-59692D01*
X75535Y-59678D01*
X75550Y-59650D01*
X75550Y-59592D01*
X75564Y-59564D01*
X75578Y-59550D01*
X75607Y-59535D01*
X75664Y-59535D01*
X75692Y-59550D01*
X75707Y-59564D01*
X75721Y-59592D01*
X75721Y-59650D01*
X75707Y-59678D01*
X75692Y-59692D01*
X75664Y-59707D01*
X75607Y-59707D01*
X75578Y-59692D01*
X75564Y-59678D01*
X75550Y-59650D01*
X75421Y-59978D02*
X75421Y-59835D01*
X75564Y-59821D01*
X75550Y-59835D01*
X75535Y-59864D01*
X75535Y-59935D01*
X75550Y-59964D01*
X75564Y-59978D01*
X75592Y-59992D01*
X75664Y-59992D01*
X75692Y-59978D01*
X75707Y-59964D01*
X75721Y-59935D01*
X75721Y-59864D01*
X75707Y-59835D01*
X75692Y-59821D01*
X75564Y-60121D02*
X75564Y-60221D01*
X75721Y-60264D02*
X75721Y-60121D01*
X75421Y-60121D01*
X75421Y-60264D01*
X81050Y-57442D02*
X81064Y-57457D01*
X81107Y-57471D01*
X81135Y-57471D01*
X81178Y-57457D01*
X81207Y-57428D01*
X81221Y-57400D01*
X81235Y-57342D01*
X81235Y-57300D01*
X81221Y-57242D01*
X81207Y-57214D01*
X81178Y-57185D01*
X81135Y-57171D01*
X81107Y-57171D01*
X81064Y-57185D01*
X81050Y-57200D01*
X80764Y-57471D02*
X80935Y-57471D01*
X80850Y-57471D02*
X80850Y-57171D01*
X80878Y-57214D01*
X80907Y-57242D01*
X80935Y-57257D01*
X77121Y-61350D02*
X76978Y-61250D01*
X77121Y-61178D02*
X76821Y-61178D01*
X76821Y-61292D01*
X76835Y-61321D01*
X76850Y-61335D01*
X76878Y-61350D01*
X76921Y-61350D01*
X76950Y-61335D01*
X76964Y-61321D01*
X76978Y-61292D01*
X76978Y-61178D01*
X77121Y-61635D02*
X77121Y-61464D01*
X77121Y-61550D02*
X76821Y-61550D01*
X76864Y-61521D01*
X76892Y-61492D01*
X76907Y-61464D01*
X86892Y-61050D02*
X86907Y-61035D01*
X86921Y-60992D01*
X86921Y-60964D01*
X86907Y-60921D01*
X86878Y-60892D01*
X86850Y-60878D01*
X86792Y-60864D01*
X86750Y-60864D01*
X86692Y-60878D01*
X86664Y-60892D01*
X86635Y-60921D01*
X86621Y-60964D01*
X86621Y-60992D01*
X86635Y-61035D01*
X86650Y-61050D01*
X86750Y-61221D02*
X86735Y-61192D01*
X86721Y-61178D01*
X86692Y-61164D01*
X86678Y-61164D01*
X86650Y-61178D01*
X86635Y-61192D01*
X86621Y-61221D01*
X86621Y-61278D01*
X86635Y-61307D01*
X86650Y-61321D01*
X86678Y-61335D01*
X86692Y-61335D01*
X86721Y-61321D01*
X86735Y-61307D01*
X86750Y-61278D01*
X86750Y-61221D01*
X86764Y-61192D01*
X86778Y-61178D01*
X86807Y-61164D01*
X86864Y-61164D01*
X86892Y-61178D01*
X86907Y-61192D01*
X86921Y-61221D01*
X86921Y-61278D01*
X86907Y-61307D01*
X86892Y-61321D01*
X86864Y-61335D01*
X86807Y-61335D01*
X86778Y-61321D01*
X86764Y-61307D01*
X86750Y-61278D01*
X86892Y-60150D02*
X86907Y-60135D01*
X86921Y-60092D01*
X86921Y-60064D01*
X86907Y-60021D01*
X86878Y-59992D01*
X86850Y-59978D01*
X86792Y-59964D01*
X86750Y-59964D01*
X86692Y-59978D01*
X86664Y-59992D01*
X86635Y-60021D01*
X86621Y-60064D01*
X86621Y-60092D01*
X86635Y-60135D01*
X86650Y-60150D01*
X86621Y-60250D02*
X86621Y-60450D01*
X86921Y-60321D01*
X84050Y-57392D02*
X84064Y-57407D01*
X84107Y-57421D01*
X84135Y-57421D01*
X84178Y-57407D01*
X84207Y-57378D01*
X84221Y-57350D01*
X84235Y-57292D01*
X84235Y-57250D01*
X84221Y-57192D01*
X84207Y-57164D01*
X84178Y-57135D01*
X84135Y-57121D01*
X84107Y-57121D01*
X84064Y-57135D01*
X84050Y-57150D01*
X83935Y-57150D02*
X83921Y-57135D01*
X83892Y-57121D01*
X83821Y-57121D01*
X83792Y-57135D01*
X83778Y-57150D01*
X83764Y-57178D01*
X83764Y-57207D01*
X83778Y-57250D01*
X83950Y-57421D01*
X83764Y-57421D01*
X82050Y-57392D02*
X82064Y-57407D01*
X82107Y-57421D01*
X82135Y-57421D01*
X82178Y-57407D01*
X82207Y-57378D01*
X82221Y-57350D01*
X82235Y-57292D01*
X82235Y-57250D01*
X82221Y-57192D01*
X82207Y-57164D01*
X82178Y-57135D01*
X82135Y-57121D01*
X82107Y-57121D01*
X82064Y-57135D01*
X82050Y-57150D01*
X81950Y-57121D02*
X81764Y-57121D01*
X81864Y-57235D01*
X81821Y-57235D01*
X81792Y-57250D01*
X81778Y-57264D01*
X81764Y-57292D01*
X81764Y-57364D01*
X81778Y-57392D01*
X81792Y-57407D01*
X81821Y-57421D01*
X81907Y-57421D01*
X81935Y-57407D01*
X81950Y-57392D01*
X86521Y-58871D02*
X86764Y-58871D01*
X86792Y-58885D01*
X86807Y-58900D01*
X86821Y-58928D01*
X86821Y-58985D01*
X86807Y-59014D01*
X86792Y-59028D01*
X86764Y-59042D01*
X86521Y-59042D01*
X86821Y-59342D02*
X86821Y-59171D01*
X86821Y-59257D02*
X86521Y-59257D01*
X86564Y-59228D01*
X86592Y-59200D01*
X86607Y-59171D01*
M02*
