G04 (created by PCBNEW (2013-jul-07)-stable) date Mon 06 Jan 2014 12:31:09 PM EST*
%MOIN*%
G04 Gerber Fmt 3.4, Leading zero omitted, Abs format*
%FSLAX34Y34*%
G01*
G70*
G90*
G04 APERTURE LIST*
%ADD10C,0.00590551*%
%ADD11R,0.0394X0.0315*%
%ADD12R,0.0551X0.0236*%
%ADD13R,0.05X0.1*%
%ADD14R,0.06X0.08*%
%ADD15R,0.045X0.025*%
%ADD16R,0.12X0.065*%
%ADD17R,0.24X0.24*%
%ADD18C,0.055*%
%ADD19C,0.0708661*%
%ADD20R,0.063X0.0276*%
%ADD21R,0.0827X0.0276*%
%ADD22R,0.1083X0.0787*%
%ADD23C,0.03*%
%ADD24C,0.0240157*%
%ADD25C,0.0120079*%
%ADD26C,0.0787402*%
%ADD27C,0.006*%
%ADD28C,0.00787402*%
G04 APERTURE END LIST*
G54D10*
G54D11*
X83583Y-58000D03*
X82717Y-57625D03*
X82717Y-58375D03*
G54D12*
X77050Y-60250D03*
X74950Y-60250D03*
X77050Y-59750D03*
X77050Y-59250D03*
X77050Y-58750D03*
X74950Y-59750D03*
X74950Y-59250D03*
X74950Y-58750D03*
G54D13*
X80250Y-58050D03*
X81450Y-58050D03*
G54D14*
X77600Y-61500D03*
X78900Y-61500D03*
X86100Y-61150D03*
X84800Y-61150D03*
X86100Y-60200D03*
X84800Y-60200D03*
G54D15*
X84200Y-57700D03*
X84200Y-58300D03*
X82150Y-57700D03*
X82150Y-58300D03*
G54D16*
X83700Y-59150D03*
G54D17*
X81200Y-60050D03*
G54D16*
X83700Y-60950D03*
G54D18*
X80500Y-62000D03*
X81500Y-62000D03*
X82500Y-62000D03*
X83500Y-62000D03*
X84500Y-62000D03*
X85500Y-62000D03*
X86500Y-62000D03*
X87500Y-62000D03*
X87500Y-57000D03*
X86500Y-57000D03*
X85500Y-57000D03*
X84500Y-57000D03*
X83500Y-57000D03*
X82500Y-57000D03*
X81500Y-57000D03*
X80500Y-57000D03*
G54D19*
X78000Y-58750D03*
X79000Y-59250D03*
X78000Y-59750D03*
X79000Y-60250D03*
G54D20*
X85152Y-58941D03*
G54D21*
X85250Y-58350D03*
G54D20*
X85152Y-57759D03*
G54D22*
X86195Y-58350D03*
G54D23*
X86100Y-61150D03*
X85825Y-59800D03*
X86100Y-60200D03*
X86375Y-59800D03*
X86250Y-60675D03*
X85950Y-60675D03*
X77525Y-60500D03*
X79700Y-58050D03*
X79750Y-60975D03*
X80900Y-58500D03*
X83675Y-60050D03*
X83375Y-60250D03*
X83375Y-59875D03*
X83075Y-60050D03*
X76000Y-60250D03*
X74950Y-59500D03*
X76000Y-59800D03*
G54D24*
X86100Y-60200D02*
X86100Y-60075D01*
X86100Y-60200D02*
X86100Y-60100D01*
X85950Y-60675D02*
X86250Y-60675D01*
X86100Y-60350D02*
X86250Y-60675D01*
X86100Y-60200D02*
X86100Y-60350D01*
X86100Y-60425D02*
X85950Y-60675D01*
X86100Y-60200D02*
X86100Y-60425D01*
X86100Y-60200D02*
X86100Y-60050D01*
X85500Y-57000D02*
X85500Y-57411D01*
X85500Y-57411D02*
X85152Y-57759D01*
X82717Y-57625D02*
X82225Y-57625D01*
X82225Y-57625D02*
X82150Y-57700D01*
X81500Y-57000D02*
X81500Y-57050D01*
X81500Y-57050D02*
X82150Y-57700D01*
X84200Y-57700D02*
X83975Y-57700D01*
X83675Y-58000D02*
X83583Y-58000D01*
X83975Y-57700D02*
X83675Y-58000D01*
X85250Y-58350D02*
X86195Y-58350D01*
X77050Y-60250D02*
X77275Y-60250D01*
X77275Y-60250D02*
X77525Y-60500D01*
X84200Y-57700D02*
X84300Y-57700D01*
X84950Y-58350D02*
X85250Y-58350D01*
X84300Y-57700D02*
X84950Y-58350D01*
X82500Y-57000D02*
X83500Y-57000D01*
X83500Y-57000D02*
X83500Y-57917D01*
X83500Y-57917D02*
X83583Y-58000D01*
X79700Y-58050D02*
X80250Y-58050D01*
X82150Y-58300D02*
X82642Y-58300D01*
X82642Y-58300D02*
X82717Y-58375D01*
X81450Y-58050D02*
X81725Y-58325D01*
X82125Y-58325D02*
X82150Y-58300D01*
X81725Y-58325D02*
X82125Y-58325D01*
G54D25*
X79750Y-61250D02*
X80500Y-62000D01*
X79750Y-60975D02*
X79750Y-61250D01*
G54D24*
X78000Y-58750D02*
X78000Y-58100D01*
X79100Y-57000D02*
X80500Y-57000D01*
X78000Y-58100D02*
X79100Y-57000D01*
X77050Y-58750D02*
X76650Y-58750D01*
X76650Y-58750D02*
X76500Y-58900D01*
X76500Y-58900D02*
X76500Y-61500D01*
X80250Y-62250D02*
X80500Y-62000D01*
X77250Y-62250D02*
X80250Y-62250D01*
X76500Y-61500D02*
X77250Y-62250D01*
X78000Y-58750D02*
X77050Y-58750D01*
G54D26*
X81200Y-60050D02*
X83675Y-60050D01*
G54D24*
X83675Y-60050D02*
X83653Y-60071D01*
G54D25*
X78400Y-60100D02*
X78400Y-60900D01*
X79000Y-59500D02*
X78400Y-60100D01*
X79000Y-59250D02*
X79000Y-59500D01*
X78900Y-61400D02*
X78900Y-61500D01*
X78400Y-60900D02*
X78900Y-61400D01*
X79000Y-59250D02*
X77050Y-59250D01*
G54D27*
X74950Y-60250D02*
X76000Y-60250D01*
X74950Y-59500D02*
X74950Y-59750D01*
X74950Y-59250D02*
X74950Y-59500D01*
G54D25*
X78000Y-59750D02*
X78000Y-61000D01*
X77600Y-61400D02*
X77600Y-61500D01*
X78000Y-61000D02*
X77600Y-61400D01*
X78000Y-59750D02*
X77050Y-59750D01*
G54D27*
X76000Y-59800D02*
X76000Y-59600D01*
X76000Y-59600D02*
X75150Y-58750D01*
X74950Y-58750D02*
X75150Y-58750D01*
G54D10*
G36*
X87862Y-62362D02*
X87671Y-62362D01*
X87671Y-61633D01*
X87637Y-61576D01*
X87465Y-61556D01*
X87362Y-61576D01*
X87328Y-61633D01*
X87500Y-61805D01*
X87671Y-61633D01*
X87671Y-62362D01*
X87667Y-62362D01*
X87500Y-62194D01*
X87332Y-62362D01*
X87305Y-62362D01*
X87305Y-62000D01*
X87133Y-61828D01*
X87076Y-61862D01*
X87056Y-62034D01*
X87076Y-62137D01*
X87133Y-62171D01*
X87305Y-62000D01*
X87305Y-62362D01*
X86943Y-62362D01*
X86943Y-61965D01*
X86923Y-61862D01*
X86866Y-61828D01*
X86694Y-62000D01*
X86866Y-62171D01*
X86923Y-62137D01*
X86943Y-61965D01*
X86943Y-62362D01*
X86671Y-62362D01*
X86671Y-61633D01*
X86637Y-61576D01*
X86518Y-61562D01*
X86518Y-61526D01*
X86518Y-60726D01*
X86518Y-60726D01*
X86518Y-60621D01*
X86518Y-60621D01*
X86518Y-60576D01*
X86518Y-60030D01*
X86526Y-60027D01*
X86602Y-59952D01*
X86643Y-59853D01*
X86643Y-59746D01*
X86602Y-59648D01*
X86527Y-59572D01*
X86428Y-59531D01*
X86321Y-59531D01*
X86223Y-59572D01*
X86147Y-59647D01*
X86133Y-59681D01*
X86066Y-59681D01*
X86052Y-59648D01*
X85977Y-59572D01*
X85878Y-59531D01*
X85771Y-59531D01*
X85673Y-59572D01*
X85628Y-59617D01*
X85628Y-59110D01*
X85628Y-59050D01*
X85588Y-59010D01*
X85309Y-59010D01*
X85309Y-59200D01*
X85349Y-59240D01*
X85435Y-59240D01*
X85499Y-59240D01*
X85558Y-59215D01*
X85603Y-59170D01*
X85628Y-59110D01*
X85628Y-59617D01*
X85597Y-59647D01*
X85556Y-59746D01*
X85556Y-59853D01*
X85597Y-59951D01*
X85672Y-60027D01*
X85681Y-60030D01*
X85681Y-60623D01*
X85681Y-60623D01*
X85681Y-60728D01*
X85681Y-60728D01*
X85681Y-60773D01*
X85681Y-61573D01*
X85699Y-61616D01*
X85733Y-61650D01*
X85776Y-61668D01*
X85823Y-61668D01*
X86362Y-61668D01*
X86500Y-61805D01*
X86671Y-61633D01*
X86671Y-62362D01*
X86667Y-62362D01*
X86500Y-62194D01*
X86332Y-62362D01*
X86305Y-62362D01*
X86305Y-62000D01*
X86133Y-61828D01*
X86076Y-61862D01*
X86056Y-62034D01*
X86076Y-62137D01*
X86133Y-62171D01*
X86305Y-62000D01*
X86305Y-62362D01*
X85943Y-62362D01*
X85943Y-61965D01*
X85923Y-61862D01*
X85866Y-61828D01*
X85694Y-62000D01*
X85866Y-62171D01*
X85923Y-62137D01*
X85943Y-61965D01*
X85943Y-62362D01*
X85671Y-62362D01*
X85671Y-61633D01*
X85637Y-61576D01*
X85465Y-61556D01*
X85426Y-61564D01*
X85366Y-61504D01*
X85261Y-61610D01*
X85241Y-61630D01*
X85261Y-61582D01*
X85261Y-61518D01*
X85261Y-60781D01*
X85261Y-60717D01*
X85243Y-60675D01*
X85261Y-60632D01*
X85261Y-60568D01*
X85261Y-59831D01*
X85261Y-59767D01*
X85236Y-59708D01*
X85191Y-59663D01*
X85131Y-59638D01*
X84994Y-59638D01*
X84994Y-59200D01*
X84994Y-59010D01*
X84994Y-58872D01*
X84994Y-58681D01*
X84954Y-58641D01*
X84868Y-58641D01*
X84804Y-58641D01*
X84745Y-58666D01*
X84700Y-58711D01*
X84675Y-58771D01*
X84675Y-58831D01*
X84715Y-58872D01*
X84994Y-58872D01*
X84994Y-59010D01*
X84715Y-59010D01*
X84675Y-59050D01*
X84675Y-59110D01*
X84700Y-59170D01*
X84745Y-59215D01*
X84804Y-59240D01*
X84868Y-59240D01*
X84954Y-59240D01*
X84994Y-59200D01*
X84994Y-59638D01*
X84990Y-59638D01*
X84950Y-59678D01*
X84950Y-60000D01*
X85221Y-60000D01*
X85261Y-59959D01*
X85261Y-59831D01*
X85261Y-60568D01*
X85261Y-60440D01*
X85221Y-60400D01*
X84950Y-60400D01*
X84950Y-60628D01*
X84950Y-60721D01*
X84950Y-60950D01*
X85221Y-60950D01*
X85261Y-60909D01*
X85261Y-60781D01*
X85261Y-61518D01*
X85261Y-61390D01*
X85221Y-61350D01*
X84950Y-61350D01*
X84950Y-61671D01*
X84990Y-61711D01*
X85131Y-61711D01*
X85180Y-61691D01*
X85004Y-61866D01*
X85068Y-61930D01*
X85056Y-62034D01*
X85076Y-62137D01*
X85133Y-62171D01*
X85305Y-62000D01*
X85261Y-61955D01*
X85216Y-61910D01*
X85261Y-61865D01*
X85410Y-61716D01*
X85500Y-61805D01*
X85671Y-61633D01*
X85671Y-62362D01*
X85667Y-62362D01*
X85500Y-62194D01*
X85332Y-62362D01*
X85305Y-62362D01*
X84943Y-62362D01*
X84943Y-61965D01*
X84923Y-61862D01*
X84866Y-61828D01*
X84694Y-62000D01*
X84866Y-62171D01*
X84923Y-62137D01*
X84943Y-61965D01*
X84943Y-62362D01*
X84667Y-62362D01*
X84500Y-62194D01*
X84332Y-62362D01*
X84305Y-62362D01*
X84305Y-62000D01*
X84133Y-61828D01*
X84076Y-61862D01*
X84056Y-62034D01*
X84076Y-62137D01*
X84133Y-62171D01*
X84305Y-62000D01*
X84305Y-62362D01*
X84039Y-62362D01*
X84039Y-61393D01*
X84323Y-61393D01*
X84338Y-61386D01*
X84338Y-61390D01*
X84338Y-61518D01*
X84338Y-61582D01*
X84347Y-61602D01*
X84328Y-61633D01*
X84500Y-61805D01*
X84594Y-61711D01*
X84609Y-61711D01*
X84650Y-61671D01*
X84650Y-61655D01*
X84671Y-61633D01*
X84650Y-61597D01*
X84650Y-61350D01*
X84536Y-61350D01*
X84536Y-60950D01*
X84650Y-60950D01*
X84650Y-60721D01*
X84650Y-60628D01*
X84650Y-60400D01*
X84650Y-60000D01*
X84650Y-59678D01*
X84609Y-59638D01*
X84586Y-59638D01*
X84468Y-59638D01*
X84461Y-59641D01*
X84408Y-59663D01*
X84363Y-59708D01*
X84338Y-59767D01*
X84338Y-59831D01*
X84338Y-59959D01*
X84378Y-60000D01*
X84650Y-60000D01*
X84650Y-60400D01*
X84378Y-60400D01*
X84338Y-60440D01*
X84338Y-60513D01*
X84323Y-60506D01*
X84276Y-60506D01*
X83894Y-60506D01*
X84036Y-60411D01*
X84147Y-60245D01*
X84186Y-60050D01*
X84147Y-59854D01*
X84036Y-59688D01*
X83955Y-59633D01*
X83955Y-59596D01*
X83996Y-59636D01*
X84268Y-59636D01*
X84332Y-59636D01*
X84391Y-59611D01*
X84436Y-59566D01*
X84461Y-59506D01*
X84461Y-58793D01*
X84436Y-58733D01*
X84391Y-58688D01*
X84332Y-58663D01*
X84268Y-58663D01*
X84087Y-58663D01*
X84087Y-58546D01*
X84087Y-58362D01*
X83853Y-58362D01*
X83813Y-58402D01*
X83813Y-58456D01*
X83838Y-58516D01*
X83883Y-58561D01*
X83942Y-58586D01*
X84006Y-58586D01*
X84047Y-58586D01*
X84087Y-58546D01*
X84087Y-58663D01*
X83996Y-58663D01*
X83955Y-58703D01*
X83955Y-58987D01*
X84421Y-58987D01*
X84461Y-58947D01*
X84461Y-58793D01*
X84461Y-59506D01*
X84461Y-59352D01*
X84421Y-59312D01*
X83955Y-59312D01*
X83955Y-59413D01*
X83444Y-59413D01*
X83444Y-59312D01*
X83444Y-58987D01*
X83444Y-58703D01*
X83403Y-58663D01*
X83131Y-58663D01*
X83075Y-58663D01*
X83075Y-58564D01*
X83075Y-58185D01*
X83050Y-58126D01*
X83005Y-58080D01*
X82946Y-58056D01*
X82882Y-58056D01*
X82855Y-58056D01*
X82815Y-58096D01*
X82815Y-58296D01*
X83035Y-58296D01*
X83075Y-58255D01*
X83075Y-58185D01*
X83075Y-58564D01*
X83075Y-58494D01*
X83035Y-58453D01*
X82815Y-58453D01*
X82815Y-58653D01*
X82855Y-58693D01*
X82882Y-58693D01*
X82946Y-58693D01*
X83005Y-58669D01*
X83050Y-58623D01*
X83075Y-58564D01*
X83075Y-58663D01*
X83067Y-58663D01*
X83008Y-58688D01*
X82963Y-58733D01*
X82938Y-58793D01*
X82938Y-58947D01*
X82978Y-58987D01*
X83444Y-58987D01*
X83444Y-59312D01*
X82978Y-59312D01*
X82938Y-59352D01*
X82938Y-59506D01*
X82951Y-59538D01*
X82618Y-59538D01*
X82618Y-58653D01*
X82618Y-58453D01*
X82536Y-58453D01*
X82536Y-58402D01*
X82520Y-58386D01*
X82520Y-58296D01*
X82618Y-58296D01*
X82618Y-58096D01*
X82578Y-58056D01*
X82551Y-58056D01*
X82487Y-58056D01*
X82485Y-58057D01*
X82466Y-58038D01*
X82407Y-58013D01*
X82343Y-58013D01*
X82302Y-58013D01*
X82262Y-58053D01*
X82262Y-58237D01*
X82358Y-58237D01*
X82358Y-58255D01*
X82358Y-58362D01*
X82262Y-58362D01*
X82262Y-58546D01*
X82302Y-58586D01*
X82343Y-58586D01*
X82358Y-58586D01*
X82358Y-58630D01*
X82390Y-58630D01*
X82428Y-58669D01*
X82487Y-58693D01*
X82551Y-58693D01*
X82578Y-58693D01*
X82618Y-58653D01*
X82618Y-59538D01*
X82518Y-59538D01*
X82518Y-58826D01*
X82500Y-58783D01*
X82466Y-58749D01*
X82423Y-58731D01*
X82376Y-58731D01*
X82037Y-58731D01*
X81325Y-58731D01*
X81325Y-58671D01*
X81325Y-58300D01*
X81078Y-58300D01*
X81038Y-58340D01*
X81038Y-58518D01*
X81038Y-58582D01*
X81063Y-58641D01*
X81108Y-58686D01*
X81168Y-58711D01*
X81284Y-58711D01*
X81325Y-58671D01*
X81325Y-58731D01*
X80943Y-58731D01*
X80943Y-56965D01*
X80923Y-56862D01*
X80866Y-56828D01*
X80694Y-57000D01*
X80866Y-57171D01*
X80923Y-57137D01*
X80943Y-56965D01*
X80943Y-58731D01*
X79976Y-58731D01*
X79933Y-58749D01*
X79899Y-58783D01*
X79881Y-58826D01*
X79881Y-58873D01*
X79881Y-59710D01*
X79789Y-59710D01*
X79789Y-58303D01*
X79825Y-58288D01*
X79881Y-58288D01*
X79881Y-58573D01*
X79899Y-58616D01*
X79933Y-58650D01*
X79976Y-58668D01*
X80023Y-58668D01*
X80523Y-58668D01*
X80566Y-58650D01*
X80600Y-58616D01*
X80618Y-58573D01*
X80618Y-58526D01*
X80618Y-57526D01*
X80600Y-57483D01*
X80566Y-57449D01*
X80546Y-57441D01*
X80637Y-57423D01*
X80671Y-57366D01*
X80500Y-57194D01*
X80328Y-57366D01*
X80362Y-57423D01*
X80435Y-57431D01*
X80305Y-57431D01*
X80305Y-57000D01*
X80133Y-56828D01*
X80076Y-56862D01*
X80056Y-57034D01*
X80076Y-57137D01*
X80133Y-57171D01*
X80305Y-57000D01*
X80305Y-57431D01*
X79976Y-57431D01*
X79933Y-57449D01*
X79899Y-57483D01*
X79881Y-57526D01*
X79881Y-57573D01*
X79881Y-57811D01*
X79825Y-57811D01*
X79789Y-57796D01*
X79789Y-56637D01*
X80332Y-56637D01*
X80500Y-56805D01*
X80667Y-56637D01*
X81347Y-56637D01*
X81277Y-56666D01*
X81166Y-56777D01*
X81106Y-56921D01*
X81106Y-57077D01*
X81166Y-57222D01*
X81277Y-57333D01*
X81410Y-57388D01*
X81284Y-57388D01*
X81168Y-57388D01*
X81108Y-57413D01*
X81063Y-57458D01*
X81038Y-57517D01*
X81038Y-57581D01*
X81038Y-57759D01*
X81078Y-57800D01*
X81325Y-57800D01*
X81325Y-57786D01*
X81575Y-57786D01*
X81575Y-57800D01*
X81700Y-57800D01*
X81700Y-58300D01*
X81575Y-58300D01*
X81575Y-58671D01*
X81615Y-58711D01*
X81731Y-58711D01*
X81791Y-58686D01*
X81836Y-58641D01*
X81861Y-58582D01*
X81861Y-58573D01*
X81892Y-58586D01*
X81956Y-58586D01*
X81997Y-58586D01*
X82037Y-58546D01*
X82037Y-58362D01*
X81925Y-58362D01*
X81925Y-58237D01*
X82037Y-58237D01*
X82037Y-58053D01*
X81997Y-58013D01*
X81956Y-58013D01*
X81892Y-58013D01*
X81861Y-58026D01*
X81861Y-57926D01*
X81901Y-57943D01*
X81948Y-57943D01*
X82398Y-57943D01*
X82441Y-57925D01*
X82475Y-57891D01*
X82475Y-57891D01*
X82496Y-57900D01*
X82543Y-57900D01*
X82937Y-57900D01*
X82980Y-57882D01*
X83014Y-57849D01*
X83032Y-57806D01*
X83032Y-57759D01*
X83032Y-57444D01*
X83014Y-57400D01*
X82980Y-57367D01*
X82937Y-57349D01*
X82890Y-57349D01*
X82683Y-57349D01*
X82722Y-57333D01*
X82817Y-57238D01*
X83182Y-57238D01*
X83261Y-57317D01*
X83261Y-57916D01*
X83261Y-57917D01*
X83267Y-57947D01*
X83267Y-58180D01*
X83285Y-58224D01*
X83319Y-58257D01*
X83362Y-58275D01*
X83409Y-58275D01*
X83803Y-58275D01*
X83846Y-58257D01*
X83867Y-58237D01*
X84087Y-58237D01*
X84087Y-58053D01*
X84047Y-58013D01*
X84006Y-58013D01*
X83998Y-58013D01*
X84068Y-57943D01*
X84206Y-57943D01*
X84314Y-58051D01*
X84312Y-58053D01*
X84312Y-58237D01*
X84425Y-58237D01*
X84425Y-58362D01*
X84312Y-58362D01*
X84312Y-58546D01*
X84352Y-58586D01*
X84393Y-58586D01*
X84457Y-58586D01*
X84516Y-58561D01*
X84522Y-58555D01*
X84586Y-58555D01*
X84586Y-58457D01*
X84586Y-58456D01*
X84586Y-58402D01*
X84586Y-58323D01*
X84718Y-58455D01*
X84718Y-58511D01*
X84736Y-58554D01*
X84769Y-58588D01*
X84812Y-58606D01*
X84859Y-58606D01*
X85535Y-58606D01*
X85535Y-58656D01*
X85499Y-58641D01*
X85435Y-58641D01*
X85349Y-58641D01*
X85309Y-58681D01*
X85309Y-58872D01*
X85588Y-58872D01*
X85607Y-58852D01*
X85629Y-58861D01*
X85676Y-58861D01*
X86759Y-58861D01*
X86803Y-58843D01*
X86836Y-58810D01*
X86854Y-58767D01*
X86854Y-58720D01*
X86854Y-57933D01*
X86836Y-57889D01*
X86803Y-57856D01*
X86760Y-57838D01*
X86713Y-57838D01*
X85630Y-57838D01*
X85586Y-57856D01*
X85585Y-57857D01*
X85585Y-57662D01*
X85668Y-57579D01*
X85668Y-57579D01*
X85668Y-57579D01*
X85720Y-57502D01*
X85720Y-57502D01*
X85738Y-57411D01*
X85738Y-57317D01*
X85833Y-57222D01*
X85893Y-57078D01*
X85893Y-56922D01*
X85833Y-56777D01*
X85722Y-56666D01*
X85652Y-56637D01*
X86347Y-56637D01*
X86277Y-56666D01*
X86166Y-56777D01*
X86106Y-56921D01*
X86106Y-57077D01*
X86166Y-57222D01*
X86277Y-57333D01*
X86421Y-57393D01*
X86577Y-57393D01*
X86722Y-57333D01*
X86833Y-57222D01*
X86893Y-57078D01*
X86893Y-56922D01*
X86833Y-56777D01*
X86722Y-56666D01*
X86652Y-56637D01*
X87347Y-56637D01*
X87277Y-56666D01*
X87166Y-56777D01*
X87106Y-56921D01*
X87106Y-57077D01*
X87166Y-57222D01*
X87277Y-57333D01*
X87421Y-57393D01*
X87577Y-57393D01*
X87722Y-57333D01*
X87833Y-57222D01*
X87862Y-57152D01*
X87862Y-61832D01*
X87694Y-62000D01*
X87862Y-62167D01*
X87862Y-62362D01*
X87862Y-62362D01*
G37*
G54D28*
X87862Y-62362D02*
X87671Y-62362D01*
X87671Y-61633D01*
X87637Y-61576D01*
X87465Y-61556D01*
X87362Y-61576D01*
X87328Y-61633D01*
X87500Y-61805D01*
X87671Y-61633D01*
X87671Y-62362D01*
X87667Y-62362D01*
X87500Y-62194D01*
X87332Y-62362D01*
X87305Y-62362D01*
X87305Y-62000D01*
X87133Y-61828D01*
X87076Y-61862D01*
X87056Y-62034D01*
X87076Y-62137D01*
X87133Y-62171D01*
X87305Y-62000D01*
X87305Y-62362D01*
X86943Y-62362D01*
X86943Y-61965D01*
X86923Y-61862D01*
X86866Y-61828D01*
X86694Y-62000D01*
X86866Y-62171D01*
X86923Y-62137D01*
X86943Y-61965D01*
X86943Y-62362D01*
X86671Y-62362D01*
X86671Y-61633D01*
X86637Y-61576D01*
X86518Y-61562D01*
X86518Y-61526D01*
X86518Y-60726D01*
X86518Y-60726D01*
X86518Y-60621D01*
X86518Y-60621D01*
X86518Y-60576D01*
X86518Y-60030D01*
X86526Y-60027D01*
X86602Y-59952D01*
X86643Y-59853D01*
X86643Y-59746D01*
X86602Y-59648D01*
X86527Y-59572D01*
X86428Y-59531D01*
X86321Y-59531D01*
X86223Y-59572D01*
X86147Y-59647D01*
X86133Y-59681D01*
X86066Y-59681D01*
X86052Y-59648D01*
X85977Y-59572D01*
X85878Y-59531D01*
X85771Y-59531D01*
X85673Y-59572D01*
X85628Y-59617D01*
X85628Y-59110D01*
X85628Y-59050D01*
X85588Y-59010D01*
X85309Y-59010D01*
X85309Y-59200D01*
X85349Y-59240D01*
X85435Y-59240D01*
X85499Y-59240D01*
X85558Y-59215D01*
X85603Y-59170D01*
X85628Y-59110D01*
X85628Y-59617D01*
X85597Y-59647D01*
X85556Y-59746D01*
X85556Y-59853D01*
X85597Y-59951D01*
X85672Y-60027D01*
X85681Y-60030D01*
X85681Y-60623D01*
X85681Y-60623D01*
X85681Y-60728D01*
X85681Y-60728D01*
X85681Y-60773D01*
X85681Y-61573D01*
X85699Y-61616D01*
X85733Y-61650D01*
X85776Y-61668D01*
X85823Y-61668D01*
X86362Y-61668D01*
X86500Y-61805D01*
X86671Y-61633D01*
X86671Y-62362D01*
X86667Y-62362D01*
X86500Y-62194D01*
X86332Y-62362D01*
X86305Y-62362D01*
X86305Y-62000D01*
X86133Y-61828D01*
X86076Y-61862D01*
X86056Y-62034D01*
X86076Y-62137D01*
X86133Y-62171D01*
X86305Y-62000D01*
X86305Y-62362D01*
X85943Y-62362D01*
X85943Y-61965D01*
X85923Y-61862D01*
X85866Y-61828D01*
X85694Y-62000D01*
X85866Y-62171D01*
X85923Y-62137D01*
X85943Y-61965D01*
X85943Y-62362D01*
X85671Y-62362D01*
X85671Y-61633D01*
X85637Y-61576D01*
X85465Y-61556D01*
X85426Y-61564D01*
X85366Y-61504D01*
X85261Y-61610D01*
X85241Y-61630D01*
X85261Y-61582D01*
X85261Y-61518D01*
X85261Y-60781D01*
X85261Y-60717D01*
X85243Y-60675D01*
X85261Y-60632D01*
X85261Y-60568D01*
X85261Y-59831D01*
X85261Y-59767D01*
X85236Y-59708D01*
X85191Y-59663D01*
X85131Y-59638D01*
X84994Y-59638D01*
X84994Y-59200D01*
X84994Y-59010D01*
X84994Y-58872D01*
X84994Y-58681D01*
X84954Y-58641D01*
X84868Y-58641D01*
X84804Y-58641D01*
X84745Y-58666D01*
X84700Y-58711D01*
X84675Y-58771D01*
X84675Y-58831D01*
X84715Y-58872D01*
X84994Y-58872D01*
X84994Y-59010D01*
X84715Y-59010D01*
X84675Y-59050D01*
X84675Y-59110D01*
X84700Y-59170D01*
X84745Y-59215D01*
X84804Y-59240D01*
X84868Y-59240D01*
X84954Y-59240D01*
X84994Y-59200D01*
X84994Y-59638D01*
X84990Y-59638D01*
X84950Y-59678D01*
X84950Y-60000D01*
X85221Y-60000D01*
X85261Y-59959D01*
X85261Y-59831D01*
X85261Y-60568D01*
X85261Y-60440D01*
X85221Y-60400D01*
X84950Y-60400D01*
X84950Y-60628D01*
X84950Y-60721D01*
X84950Y-60950D01*
X85221Y-60950D01*
X85261Y-60909D01*
X85261Y-60781D01*
X85261Y-61518D01*
X85261Y-61390D01*
X85221Y-61350D01*
X84950Y-61350D01*
X84950Y-61671D01*
X84990Y-61711D01*
X85131Y-61711D01*
X85180Y-61691D01*
X85004Y-61866D01*
X85068Y-61930D01*
X85056Y-62034D01*
X85076Y-62137D01*
X85133Y-62171D01*
X85305Y-62000D01*
X85261Y-61955D01*
X85216Y-61910D01*
X85261Y-61865D01*
X85410Y-61716D01*
X85500Y-61805D01*
X85671Y-61633D01*
X85671Y-62362D01*
X85667Y-62362D01*
X85500Y-62194D01*
X85332Y-62362D01*
X85305Y-62362D01*
X84943Y-62362D01*
X84943Y-61965D01*
X84923Y-61862D01*
X84866Y-61828D01*
X84694Y-62000D01*
X84866Y-62171D01*
X84923Y-62137D01*
X84943Y-61965D01*
X84943Y-62362D01*
X84667Y-62362D01*
X84500Y-62194D01*
X84332Y-62362D01*
X84305Y-62362D01*
X84305Y-62000D01*
X84133Y-61828D01*
X84076Y-61862D01*
X84056Y-62034D01*
X84076Y-62137D01*
X84133Y-62171D01*
X84305Y-62000D01*
X84305Y-62362D01*
X84039Y-62362D01*
X84039Y-61393D01*
X84323Y-61393D01*
X84338Y-61386D01*
X84338Y-61390D01*
X84338Y-61518D01*
X84338Y-61582D01*
X84347Y-61602D01*
X84328Y-61633D01*
X84500Y-61805D01*
X84594Y-61711D01*
X84609Y-61711D01*
X84650Y-61671D01*
X84650Y-61655D01*
X84671Y-61633D01*
X84650Y-61597D01*
X84650Y-61350D01*
X84536Y-61350D01*
X84536Y-60950D01*
X84650Y-60950D01*
X84650Y-60721D01*
X84650Y-60628D01*
X84650Y-60400D01*
X84650Y-60000D01*
X84650Y-59678D01*
X84609Y-59638D01*
X84586Y-59638D01*
X84468Y-59638D01*
X84461Y-59641D01*
X84408Y-59663D01*
X84363Y-59708D01*
X84338Y-59767D01*
X84338Y-59831D01*
X84338Y-59959D01*
X84378Y-60000D01*
X84650Y-60000D01*
X84650Y-60400D01*
X84378Y-60400D01*
X84338Y-60440D01*
X84338Y-60513D01*
X84323Y-60506D01*
X84276Y-60506D01*
X83894Y-60506D01*
X84036Y-60411D01*
X84147Y-60245D01*
X84186Y-60050D01*
X84147Y-59854D01*
X84036Y-59688D01*
X83955Y-59633D01*
X83955Y-59596D01*
X83996Y-59636D01*
X84268Y-59636D01*
X84332Y-59636D01*
X84391Y-59611D01*
X84436Y-59566D01*
X84461Y-59506D01*
X84461Y-58793D01*
X84436Y-58733D01*
X84391Y-58688D01*
X84332Y-58663D01*
X84268Y-58663D01*
X84087Y-58663D01*
X84087Y-58546D01*
X84087Y-58362D01*
X83853Y-58362D01*
X83813Y-58402D01*
X83813Y-58456D01*
X83838Y-58516D01*
X83883Y-58561D01*
X83942Y-58586D01*
X84006Y-58586D01*
X84047Y-58586D01*
X84087Y-58546D01*
X84087Y-58663D01*
X83996Y-58663D01*
X83955Y-58703D01*
X83955Y-58987D01*
X84421Y-58987D01*
X84461Y-58947D01*
X84461Y-58793D01*
X84461Y-59506D01*
X84461Y-59352D01*
X84421Y-59312D01*
X83955Y-59312D01*
X83955Y-59413D01*
X83444Y-59413D01*
X83444Y-59312D01*
X83444Y-58987D01*
X83444Y-58703D01*
X83403Y-58663D01*
X83131Y-58663D01*
X83075Y-58663D01*
X83075Y-58564D01*
X83075Y-58185D01*
X83050Y-58126D01*
X83005Y-58080D01*
X82946Y-58056D01*
X82882Y-58056D01*
X82855Y-58056D01*
X82815Y-58096D01*
X82815Y-58296D01*
X83035Y-58296D01*
X83075Y-58255D01*
X83075Y-58185D01*
X83075Y-58564D01*
X83075Y-58494D01*
X83035Y-58453D01*
X82815Y-58453D01*
X82815Y-58653D01*
X82855Y-58693D01*
X82882Y-58693D01*
X82946Y-58693D01*
X83005Y-58669D01*
X83050Y-58623D01*
X83075Y-58564D01*
X83075Y-58663D01*
X83067Y-58663D01*
X83008Y-58688D01*
X82963Y-58733D01*
X82938Y-58793D01*
X82938Y-58947D01*
X82978Y-58987D01*
X83444Y-58987D01*
X83444Y-59312D01*
X82978Y-59312D01*
X82938Y-59352D01*
X82938Y-59506D01*
X82951Y-59538D01*
X82618Y-59538D01*
X82618Y-58653D01*
X82618Y-58453D01*
X82536Y-58453D01*
X82536Y-58402D01*
X82520Y-58386D01*
X82520Y-58296D01*
X82618Y-58296D01*
X82618Y-58096D01*
X82578Y-58056D01*
X82551Y-58056D01*
X82487Y-58056D01*
X82485Y-58057D01*
X82466Y-58038D01*
X82407Y-58013D01*
X82343Y-58013D01*
X82302Y-58013D01*
X82262Y-58053D01*
X82262Y-58237D01*
X82358Y-58237D01*
X82358Y-58255D01*
X82358Y-58362D01*
X82262Y-58362D01*
X82262Y-58546D01*
X82302Y-58586D01*
X82343Y-58586D01*
X82358Y-58586D01*
X82358Y-58630D01*
X82390Y-58630D01*
X82428Y-58669D01*
X82487Y-58693D01*
X82551Y-58693D01*
X82578Y-58693D01*
X82618Y-58653D01*
X82618Y-59538D01*
X82518Y-59538D01*
X82518Y-58826D01*
X82500Y-58783D01*
X82466Y-58749D01*
X82423Y-58731D01*
X82376Y-58731D01*
X82037Y-58731D01*
X81325Y-58731D01*
X81325Y-58671D01*
X81325Y-58300D01*
X81078Y-58300D01*
X81038Y-58340D01*
X81038Y-58518D01*
X81038Y-58582D01*
X81063Y-58641D01*
X81108Y-58686D01*
X81168Y-58711D01*
X81284Y-58711D01*
X81325Y-58671D01*
X81325Y-58731D01*
X80943Y-58731D01*
X80943Y-56965D01*
X80923Y-56862D01*
X80866Y-56828D01*
X80694Y-57000D01*
X80866Y-57171D01*
X80923Y-57137D01*
X80943Y-56965D01*
X80943Y-58731D01*
X79976Y-58731D01*
X79933Y-58749D01*
X79899Y-58783D01*
X79881Y-58826D01*
X79881Y-58873D01*
X79881Y-59710D01*
X79789Y-59710D01*
X79789Y-58303D01*
X79825Y-58288D01*
X79881Y-58288D01*
X79881Y-58573D01*
X79899Y-58616D01*
X79933Y-58650D01*
X79976Y-58668D01*
X80023Y-58668D01*
X80523Y-58668D01*
X80566Y-58650D01*
X80600Y-58616D01*
X80618Y-58573D01*
X80618Y-58526D01*
X80618Y-57526D01*
X80600Y-57483D01*
X80566Y-57449D01*
X80546Y-57441D01*
X80637Y-57423D01*
X80671Y-57366D01*
X80500Y-57194D01*
X80328Y-57366D01*
X80362Y-57423D01*
X80435Y-57431D01*
X80305Y-57431D01*
X80305Y-57000D01*
X80133Y-56828D01*
X80076Y-56862D01*
X80056Y-57034D01*
X80076Y-57137D01*
X80133Y-57171D01*
X80305Y-57000D01*
X80305Y-57431D01*
X79976Y-57431D01*
X79933Y-57449D01*
X79899Y-57483D01*
X79881Y-57526D01*
X79881Y-57573D01*
X79881Y-57811D01*
X79825Y-57811D01*
X79789Y-57796D01*
X79789Y-56637D01*
X80332Y-56637D01*
X80500Y-56805D01*
X80667Y-56637D01*
X81347Y-56637D01*
X81277Y-56666D01*
X81166Y-56777D01*
X81106Y-56921D01*
X81106Y-57077D01*
X81166Y-57222D01*
X81277Y-57333D01*
X81410Y-57388D01*
X81284Y-57388D01*
X81168Y-57388D01*
X81108Y-57413D01*
X81063Y-57458D01*
X81038Y-57517D01*
X81038Y-57581D01*
X81038Y-57759D01*
X81078Y-57800D01*
X81325Y-57800D01*
X81325Y-57786D01*
X81575Y-57786D01*
X81575Y-57800D01*
X81700Y-57800D01*
X81700Y-58300D01*
X81575Y-58300D01*
X81575Y-58671D01*
X81615Y-58711D01*
X81731Y-58711D01*
X81791Y-58686D01*
X81836Y-58641D01*
X81861Y-58582D01*
X81861Y-58573D01*
X81892Y-58586D01*
X81956Y-58586D01*
X81997Y-58586D01*
X82037Y-58546D01*
X82037Y-58362D01*
X81925Y-58362D01*
X81925Y-58237D01*
X82037Y-58237D01*
X82037Y-58053D01*
X81997Y-58013D01*
X81956Y-58013D01*
X81892Y-58013D01*
X81861Y-58026D01*
X81861Y-57926D01*
X81901Y-57943D01*
X81948Y-57943D01*
X82398Y-57943D01*
X82441Y-57925D01*
X82475Y-57891D01*
X82475Y-57891D01*
X82496Y-57900D01*
X82543Y-57900D01*
X82937Y-57900D01*
X82980Y-57882D01*
X83014Y-57849D01*
X83032Y-57806D01*
X83032Y-57759D01*
X83032Y-57444D01*
X83014Y-57400D01*
X82980Y-57367D01*
X82937Y-57349D01*
X82890Y-57349D01*
X82683Y-57349D01*
X82722Y-57333D01*
X82817Y-57238D01*
X83182Y-57238D01*
X83261Y-57317D01*
X83261Y-57916D01*
X83261Y-57917D01*
X83267Y-57947D01*
X83267Y-58180D01*
X83285Y-58224D01*
X83319Y-58257D01*
X83362Y-58275D01*
X83409Y-58275D01*
X83803Y-58275D01*
X83846Y-58257D01*
X83867Y-58237D01*
X84087Y-58237D01*
X84087Y-58053D01*
X84047Y-58013D01*
X84006Y-58013D01*
X83998Y-58013D01*
X84068Y-57943D01*
X84206Y-57943D01*
X84314Y-58051D01*
X84312Y-58053D01*
X84312Y-58237D01*
X84425Y-58237D01*
X84425Y-58362D01*
X84312Y-58362D01*
X84312Y-58546D01*
X84352Y-58586D01*
X84393Y-58586D01*
X84457Y-58586D01*
X84516Y-58561D01*
X84522Y-58555D01*
X84586Y-58555D01*
X84586Y-58457D01*
X84586Y-58456D01*
X84586Y-58402D01*
X84586Y-58323D01*
X84718Y-58455D01*
X84718Y-58511D01*
X84736Y-58554D01*
X84769Y-58588D01*
X84812Y-58606D01*
X84859Y-58606D01*
X85535Y-58606D01*
X85535Y-58656D01*
X85499Y-58641D01*
X85435Y-58641D01*
X85349Y-58641D01*
X85309Y-58681D01*
X85309Y-58872D01*
X85588Y-58872D01*
X85607Y-58852D01*
X85629Y-58861D01*
X85676Y-58861D01*
X86759Y-58861D01*
X86803Y-58843D01*
X86836Y-58810D01*
X86854Y-58767D01*
X86854Y-58720D01*
X86854Y-57933D01*
X86836Y-57889D01*
X86803Y-57856D01*
X86760Y-57838D01*
X86713Y-57838D01*
X85630Y-57838D01*
X85586Y-57856D01*
X85585Y-57857D01*
X85585Y-57662D01*
X85668Y-57579D01*
X85668Y-57579D01*
X85668Y-57579D01*
X85720Y-57502D01*
X85720Y-57502D01*
X85738Y-57411D01*
X85738Y-57317D01*
X85833Y-57222D01*
X85893Y-57078D01*
X85893Y-56922D01*
X85833Y-56777D01*
X85722Y-56666D01*
X85652Y-56637D01*
X86347Y-56637D01*
X86277Y-56666D01*
X86166Y-56777D01*
X86106Y-56921D01*
X86106Y-57077D01*
X86166Y-57222D01*
X86277Y-57333D01*
X86421Y-57393D01*
X86577Y-57393D01*
X86722Y-57333D01*
X86833Y-57222D01*
X86893Y-57078D01*
X86893Y-56922D01*
X86833Y-56777D01*
X86722Y-56666D01*
X86652Y-56637D01*
X87347Y-56637D01*
X87277Y-56666D01*
X87166Y-56777D01*
X87106Y-56921D01*
X87106Y-57077D01*
X87166Y-57222D01*
X87277Y-57333D01*
X87421Y-57393D01*
X87577Y-57393D01*
X87722Y-57333D01*
X87833Y-57222D01*
X87862Y-57152D01*
X87862Y-61832D01*
X87694Y-62000D01*
X87862Y-62167D01*
X87862Y-62362D01*
M02*
