G04 (created by PCBNEW (2013-jul-07)-stable) date Thu 09 Jan 2014 05:17:47 AM EST*
%MOIN*%
G04 Gerber Fmt 3.4, Leading zero omitted, Abs format*
%FSLAX34Y34*%
G01*
G70*
G90*
G04 APERTURE LIST*
%ADD10C,0.00590551*%
%ADD11C,0.125984*%
%ADD12C,0.0708661*%
%ADD13R,0.0551X0.0236*%
%ADD14R,0.1102X0.1575*%
%ADD15R,0.0236X0.0157*%
%ADD16R,0.0157X0.0236*%
%ADD17R,0.11811X0.216535*%
%ADD18C,0.055*%
G04 APERTURE END LIST*
G54D10*
G54D11*
X75500Y-57500D03*
X75500Y-61500D03*
G54D12*
X78000Y-58750D03*
X79000Y-59250D03*
X78000Y-59750D03*
X79000Y-60250D03*
G54D13*
X82350Y-58550D03*
X80250Y-58550D03*
X82350Y-59050D03*
X82350Y-59550D03*
X82350Y-60050D03*
X80250Y-59050D03*
X80250Y-59550D03*
X80250Y-60050D03*
G54D14*
X81300Y-59300D03*
G54D15*
X81900Y-60623D03*
X81900Y-60977D03*
X82300Y-60977D03*
X82300Y-60623D03*
X80300Y-60623D03*
X80300Y-60977D03*
X81500Y-60623D03*
X81500Y-60977D03*
X80700Y-60623D03*
X80700Y-60977D03*
X81100Y-60623D03*
X81100Y-60977D03*
G54D16*
X81123Y-58000D03*
X81477Y-58000D03*
G54D17*
X83529Y-59500D03*
X87270Y-59500D03*
G54D18*
X80500Y-62000D03*
X81500Y-62000D03*
X82500Y-62000D03*
X83500Y-62000D03*
X84500Y-62000D03*
X85500Y-62000D03*
X86500Y-62000D03*
X87500Y-62000D03*
X87500Y-57000D03*
X86500Y-57000D03*
X85500Y-57000D03*
X84500Y-57000D03*
X83500Y-57000D03*
X82500Y-57000D03*
X81500Y-57000D03*
X80500Y-57000D03*
M02*
