G04 (created by PCBNEW (2013-jul-07)-stable) date Thu 09 Jan 2014 05:17:47 AM EST*
%MOIN*%
G04 Gerber Fmt 3.4, Leading zero omitted, Abs format*
%FSLAX34Y34*%
G01*
G70*
G90*
G04 APERTURE LIST*
%ADD10C,0.00590551*%
%ADD11C,0.005*%
%ADD12C,0.0028*%
%ADD13C,0.00511811*%
G04 APERTURE END LIST*
G54D10*
X79500Y-56901D02*
X79500Y-62098D01*
X79500Y-62098D02*
X74009Y-62098D01*
X74009Y-56901D02*
X79500Y-56901D01*
G54D11*
X80650Y-60363D02*
X80650Y-58257D01*
X81950Y-58257D02*
X81950Y-60363D01*
X81950Y-60363D02*
X80650Y-60363D01*
X81950Y-58257D02*
X80650Y-58257D01*
X81500Y-58250D02*
X81500Y-58450D01*
X81500Y-58450D02*
X81100Y-58450D01*
X81100Y-58450D02*
X81100Y-58250D01*
G54D12*
X82050Y-60700D02*
X82050Y-60500D01*
X82050Y-60500D02*
X81750Y-60500D01*
X81750Y-60500D02*
X81750Y-60700D01*
X82050Y-60900D02*
X82050Y-61100D01*
X82050Y-61100D02*
X81750Y-61100D01*
X81750Y-61100D02*
X81750Y-60900D01*
X82150Y-60900D02*
X82150Y-61100D01*
X82150Y-61100D02*
X82450Y-61100D01*
X82450Y-61100D02*
X82450Y-60900D01*
X82150Y-60700D02*
X82150Y-60500D01*
X82150Y-60500D02*
X82450Y-60500D01*
X82450Y-60500D02*
X82450Y-60700D01*
X80450Y-60700D02*
X80450Y-60500D01*
X80450Y-60500D02*
X80150Y-60500D01*
X80150Y-60500D02*
X80150Y-60700D01*
X80450Y-60900D02*
X80450Y-61100D01*
X80450Y-61100D02*
X80150Y-61100D01*
X80150Y-61100D02*
X80150Y-60900D01*
X81650Y-60700D02*
X81650Y-60500D01*
X81650Y-60500D02*
X81350Y-60500D01*
X81350Y-60500D02*
X81350Y-60700D01*
X81650Y-60900D02*
X81650Y-61100D01*
X81650Y-61100D02*
X81350Y-61100D01*
X81350Y-61100D02*
X81350Y-60900D01*
X80850Y-60700D02*
X80850Y-60500D01*
X80850Y-60500D02*
X80550Y-60500D01*
X80550Y-60500D02*
X80550Y-60700D01*
X80850Y-60900D02*
X80850Y-61100D01*
X80850Y-61100D02*
X80550Y-61100D01*
X80550Y-61100D02*
X80550Y-60900D01*
X81250Y-60700D02*
X81250Y-60500D01*
X81250Y-60500D02*
X80950Y-60500D01*
X80950Y-60500D02*
X80950Y-60700D01*
X81250Y-60900D02*
X81250Y-61100D01*
X81250Y-61100D02*
X80950Y-61100D01*
X80950Y-61100D02*
X80950Y-60900D01*
X81200Y-57850D02*
X81000Y-57850D01*
X81000Y-57850D02*
X81000Y-58150D01*
X81000Y-58150D02*
X81200Y-58150D01*
X81400Y-57850D02*
X81600Y-57850D01*
X81600Y-57850D02*
X81600Y-58150D01*
X81600Y-58150D02*
X81400Y-58150D01*
G54D10*
X87427Y-57472D02*
X87427Y-61527D01*
X87427Y-61527D02*
X83372Y-61527D01*
X83372Y-61527D02*
X83372Y-57472D01*
X83372Y-57472D02*
X87427Y-57472D01*
G54D13*
X79921Y-57621D02*
X79621Y-57621D01*
X79621Y-57507D01*
X79635Y-57478D01*
X79650Y-57464D01*
X79678Y-57450D01*
X79721Y-57450D01*
X79750Y-57464D01*
X79764Y-57478D01*
X79778Y-57507D01*
X79778Y-57621D01*
X79921Y-57164D02*
X79921Y-57335D01*
X79921Y-57250D02*
X79621Y-57250D01*
X79664Y-57278D01*
X79692Y-57307D01*
X79707Y-57335D01*
X80271Y-57821D02*
X80271Y-58064D01*
X80285Y-58092D01*
X80300Y-58107D01*
X80328Y-58121D01*
X80385Y-58121D01*
X80414Y-58107D01*
X80428Y-58092D01*
X80442Y-58064D01*
X80442Y-57821D01*
X80714Y-57921D02*
X80714Y-58121D01*
X80642Y-57807D02*
X80571Y-58021D01*
X80757Y-58021D01*
X82021Y-61450D02*
X81878Y-61550D01*
X82021Y-61621D02*
X81721Y-61621D01*
X81721Y-61507D01*
X81735Y-61478D01*
X81750Y-61464D01*
X81778Y-61450D01*
X81821Y-61450D01*
X81850Y-61464D01*
X81864Y-61478D01*
X81878Y-61507D01*
X81878Y-61621D01*
X81721Y-61178D02*
X81721Y-61321D01*
X81864Y-61335D01*
X81850Y-61321D01*
X81835Y-61292D01*
X81835Y-61221D01*
X81850Y-61192D01*
X81864Y-61178D01*
X81892Y-61164D01*
X81964Y-61164D01*
X81992Y-61178D01*
X82007Y-61192D01*
X82021Y-61221D01*
X82021Y-61292D01*
X82007Y-61321D01*
X81992Y-61335D01*
X82421Y-61450D02*
X82278Y-61550D01*
X82421Y-61621D02*
X82121Y-61621D01*
X82121Y-61507D01*
X82135Y-61478D01*
X82150Y-61464D01*
X82178Y-61450D01*
X82221Y-61450D01*
X82250Y-61464D01*
X82264Y-61478D01*
X82278Y-61507D01*
X82278Y-61621D01*
X82221Y-61192D02*
X82421Y-61192D01*
X82107Y-61264D02*
X82321Y-61335D01*
X82321Y-61150D01*
X80421Y-61450D02*
X80278Y-61550D01*
X80421Y-61621D02*
X80121Y-61621D01*
X80121Y-61507D01*
X80135Y-61478D01*
X80150Y-61464D01*
X80178Y-61450D01*
X80221Y-61450D01*
X80250Y-61464D01*
X80264Y-61478D01*
X80278Y-61507D01*
X80278Y-61621D01*
X80150Y-61335D02*
X80135Y-61321D01*
X80121Y-61292D01*
X80121Y-61221D01*
X80135Y-61192D01*
X80150Y-61178D01*
X80178Y-61164D01*
X80207Y-61164D01*
X80250Y-61178D01*
X80421Y-61350D01*
X80421Y-61164D01*
X81592Y-61450D02*
X81607Y-61464D01*
X81621Y-61507D01*
X81621Y-61535D01*
X81607Y-61578D01*
X81578Y-61607D01*
X81550Y-61621D01*
X81492Y-61635D01*
X81450Y-61635D01*
X81392Y-61621D01*
X81364Y-61607D01*
X81335Y-61578D01*
X81321Y-61535D01*
X81321Y-61507D01*
X81335Y-61464D01*
X81350Y-61450D01*
X81321Y-61192D02*
X81321Y-61250D01*
X81335Y-61278D01*
X81350Y-61292D01*
X81392Y-61321D01*
X81450Y-61335D01*
X81564Y-61335D01*
X81592Y-61321D01*
X81607Y-61307D01*
X81621Y-61278D01*
X81621Y-61221D01*
X81607Y-61192D01*
X81592Y-61178D01*
X81564Y-61164D01*
X81492Y-61164D01*
X81464Y-61178D01*
X81450Y-61192D01*
X81435Y-61221D01*
X81435Y-61278D01*
X81450Y-61307D01*
X81464Y-61321D01*
X81492Y-61335D01*
X80792Y-61450D02*
X80807Y-61464D01*
X80821Y-61507D01*
X80821Y-61535D01*
X80807Y-61578D01*
X80778Y-61607D01*
X80750Y-61621D01*
X80692Y-61635D01*
X80650Y-61635D01*
X80592Y-61621D01*
X80564Y-61607D01*
X80535Y-61578D01*
X80521Y-61535D01*
X80521Y-61507D01*
X80535Y-61464D01*
X80550Y-61450D01*
X80521Y-61178D02*
X80521Y-61321D01*
X80664Y-61335D01*
X80650Y-61321D01*
X80635Y-61292D01*
X80635Y-61221D01*
X80650Y-61192D01*
X80664Y-61178D01*
X80692Y-61164D01*
X80764Y-61164D01*
X80792Y-61178D01*
X80807Y-61192D01*
X80821Y-61221D01*
X80821Y-61292D01*
X80807Y-61321D01*
X80792Y-61335D01*
X81221Y-61450D02*
X81078Y-61550D01*
X81221Y-61621D02*
X80921Y-61621D01*
X80921Y-61507D01*
X80935Y-61478D01*
X80950Y-61464D01*
X80978Y-61450D01*
X81021Y-61450D01*
X81050Y-61464D01*
X81064Y-61478D01*
X81078Y-61507D01*
X81078Y-61621D01*
X80921Y-61350D02*
X80921Y-61164D01*
X81035Y-61264D01*
X81035Y-61221D01*
X81050Y-61192D01*
X81064Y-61178D01*
X81092Y-61164D01*
X81164Y-61164D01*
X81192Y-61178D01*
X81207Y-61192D01*
X81221Y-61221D01*
X81221Y-61307D01*
X81207Y-61335D01*
X81192Y-61350D01*
X81250Y-57692D02*
X81235Y-57707D01*
X81192Y-57721D01*
X81164Y-57721D01*
X81121Y-57707D01*
X81092Y-57678D01*
X81078Y-57650D01*
X81064Y-57592D01*
X81064Y-57550D01*
X81078Y-57492D01*
X81092Y-57464D01*
X81121Y-57435D01*
X81164Y-57421D01*
X81192Y-57421D01*
X81235Y-57435D01*
X81250Y-57450D01*
X81507Y-57521D02*
X81507Y-57721D01*
X81435Y-57407D02*
X81364Y-57621D01*
X81550Y-57621D01*
X82871Y-57849D02*
X82871Y-57992D01*
X82571Y-57992D01*
X82871Y-57592D02*
X82871Y-57764D01*
X82871Y-57678D02*
X82571Y-57678D01*
X82614Y-57707D01*
X82642Y-57735D01*
X82657Y-57764D01*
X85280Y-59898D02*
X85280Y-59712D01*
X85394Y-59812D01*
X85394Y-59769D01*
X85409Y-59741D01*
X85423Y-59726D01*
X85451Y-59712D01*
X85523Y-59712D01*
X85551Y-59726D01*
X85566Y-59741D01*
X85580Y-59769D01*
X85580Y-59855D01*
X85566Y-59883D01*
X85551Y-59898D01*
X85280Y-59612D02*
X85280Y-59426D01*
X85394Y-59526D01*
X85394Y-59483D01*
X85409Y-59455D01*
X85423Y-59441D01*
X85451Y-59426D01*
X85523Y-59426D01*
X85551Y-59441D01*
X85566Y-59455D01*
X85580Y-59483D01*
X85580Y-59569D01*
X85566Y-59598D01*
X85551Y-59612D01*
X85380Y-59169D02*
X85580Y-59169D01*
X85380Y-59298D02*
X85537Y-59298D01*
X85566Y-59283D01*
X85580Y-59255D01*
X85580Y-59212D01*
X85566Y-59183D01*
X85551Y-59169D01*
M02*
