G04 (created by PCBNEW (2013-jul-07)-stable) date Mon 06 Jan 2014 12:31:09 PM EST*
%MOIN*%
G04 Gerber Fmt 3.4, Leading zero omitted, Abs format*
%FSLAX34Y34*%
G01*
G70*
G90*
G04 APERTURE LIST*
%ADD10C,0.00590551*%
%ADD11C,0.0031*%
%ADD12C,0.005*%
%ADD13C,0.0047*%
%ADD14C,0.0039*%
%ADD15C,0.006*%
%ADD16C,0.0045*%
%ADD17C,0.008*%
%ADD18C,0.0079*%
G04 APERTURE END LIST*
G54D10*
G54D11*
X83074Y-58463D02*
G75*
G03X83074Y-58463I-62J0D01*
G74*
G01*
X83350Y-57500D02*
X82950Y-57500D01*
X83350Y-58525D02*
X82950Y-58525D01*
X82950Y-57500D02*
X82950Y-58525D01*
X83350Y-58525D02*
X83350Y-57500D01*
G54D12*
X75300Y-60550D02*
X75250Y-60550D01*
X75250Y-60550D02*
X75250Y-58450D01*
X76750Y-58450D02*
X76750Y-60550D01*
X76750Y-60550D02*
X75300Y-60550D01*
X76200Y-60550D02*
X76200Y-60350D01*
X76200Y-60350D02*
X75800Y-60350D01*
X75800Y-60350D02*
X75800Y-60550D01*
X76750Y-58450D02*
X75250Y-58450D01*
X79970Y-57450D02*
G75*
G03X79970Y-57450I-70J0D01*
G74*
G01*
X80550Y-58600D02*
X79950Y-58600D01*
X79950Y-58600D02*
X79950Y-57500D01*
X79950Y-57500D02*
X80550Y-57500D01*
X81150Y-57500D02*
X81750Y-57500D01*
X81750Y-57500D02*
X81750Y-58600D01*
X81750Y-58600D02*
X81150Y-58600D01*
X77250Y-61950D02*
X77250Y-61050D01*
X77250Y-61050D02*
X77900Y-61050D01*
X78600Y-61950D02*
X79250Y-61950D01*
X79250Y-61950D02*
X79250Y-61050D01*
X79250Y-61050D02*
X78600Y-61050D01*
X77900Y-61950D02*
X77250Y-61950D01*
X86450Y-60700D02*
X86450Y-61600D01*
X86450Y-61600D02*
X85800Y-61600D01*
X85100Y-60700D02*
X84450Y-60700D01*
X84450Y-60700D02*
X84450Y-61600D01*
X84450Y-61600D02*
X85100Y-61600D01*
X85800Y-60700D02*
X86450Y-60700D01*
X86450Y-59750D02*
X86450Y-60650D01*
X86450Y-60650D02*
X85800Y-60650D01*
X85100Y-59750D02*
X84450Y-59750D01*
X84450Y-59750D02*
X84450Y-60650D01*
X84450Y-60650D02*
X85100Y-60650D01*
X85800Y-59750D02*
X86450Y-59750D01*
X83950Y-57550D02*
X83950Y-58450D01*
X83950Y-58450D02*
X84450Y-58450D01*
X84450Y-58450D02*
X84450Y-57550D01*
X84450Y-57550D02*
X83950Y-57550D01*
X81900Y-57550D02*
X81900Y-58450D01*
X81900Y-58450D02*
X82400Y-58450D01*
X82400Y-58450D02*
X82400Y-57550D01*
X82400Y-57550D02*
X81900Y-57550D01*
X83100Y-60600D02*
X84350Y-60600D01*
X84350Y-60600D02*
X84350Y-61300D01*
X84350Y-61300D02*
X83100Y-61300D01*
X83100Y-58800D02*
X84350Y-58800D01*
X84350Y-58800D02*
X84350Y-59500D01*
X84350Y-59500D02*
X83100Y-59500D01*
X80700Y-61400D02*
X83100Y-61400D01*
X83100Y-61400D02*
X83100Y-58700D01*
X83100Y-58700D02*
X80000Y-58700D01*
X79950Y-58700D02*
X79950Y-61400D01*
X80000Y-61400D02*
X80700Y-61400D01*
X84915Y-57860D02*
X84915Y-57660D01*
X84915Y-57660D02*
X85385Y-57660D01*
X84915Y-57860D02*
X85385Y-57860D01*
X84915Y-58450D02*
X85385Y-58450D01*
X84915Y-58250D02*
X85385Y-58250D01*
X84915Y-58450D02*
X84915Y-58250D01*
X84915Y-59040D02*
X84915Y-58840D01*
X84915Y-58840D02*
X85385Y-58840D01*
X84915Y-59040D02*
X85385Y-59040D01*
X86610Y-58705D02*
X86610Y-57995D01*
X86610Y-57995D02*
X86415Y-57995D01*
X86610Y-58705D02*
X86415Y-58705D01*
X85385Y-59255D02*
X86415Y-59255D01*
X86415Y-59255D02*
X86415Y-57445D01*
X86415Y-57445D02*
X85385Y-57445D01*
X85385Y-57445D02*
X85385Y-59255D01*
G54D13*
X83417Y-57034D02*
X83417Y-57277D01*
X83403Y-57305D01*
X83389Y-57320D01*
X83360Y-57334D01*
X83303Y-57334D01*
X83274Y-57320D01*
X83260Y-57305D01*
X83246Y-57277D01*
X83246Y-57034D01*
X83117Y-57063D02*
X83103Y-57048D01*
X83074Y-57034D01*
X83003Y-57034D01*
X82974Y-57048D01*
X82960Y-57063D01*
X82946Y-57091D01*
X82946Y-57120D01*
X82960Y-57163D01*
X83131Y-57334D01*
X82946Y-57334D01*
G54D14*
X83173Y-57360D02*
X83173Y-57454D01*
X83229Y-57341D02*
X83032Y-57407D01*
X83229Y-57473D01*
X83229Y-57538D02*
X83032Y-57538D01*
X83032Y-57613D01*
X83042Y-57632D01*
X83051Y-57641D01*
X83070Y-57651D01*
X83098Y-57651D01*
X83117Y-57641D01*
X83126Y-57632D01*
X83135Y-57613D01*
X83135Y-57538D01*
X83032Y-57717D02*
X83032Y-57848D01*
X83229Y-57763D01*
X83032Y-57904D02*
X83032Y-58026D01*
X83107Y-57960D01*
X83107Y-57989D01*
X83117Y-58007D01*
X83126Y-58017D01*
X83145Y-58026D01*
X83192Y-58026D01*
X83210Y-58017D01*
X83220Y-58007D01*
X83229Y-57989D01*
X83229Y-57932D01*
X83220Y-57914D01*
X83210Y-57904D01*
X83032Y-58092D02*
X83032Y-58214D01*
X83107Y-58148D01*
X83107Y-58176D01*
X83117Y-58195D01*
X83126Y-58204D01*
X83145Y-58214D01*
X83192Y-58214D01*
X83210Y-58204D01*
X83220Y-58195D01*
X83229Y-58176D01*
X83229Y-58120D01*
X83220Y-58101D01*
X83210Y-58092D01*
X83032Y-58279D02*
X83032Y-58401D01*
X83107Y-58336D01*
X83107Y-58364D01*
X83117Y-58383D01*
X83126Y-58392D01*
X83145Y-58401D01*
X83192Y-58401D01*
X83210Y-58392D01*
X83220Y-58383D01*
X83229Y-58364D01*
X83229Y-58308D01*
X83220Y-58289D01*
X83210Y-58279D01*
X83032Y-58467D02*
X83032Y-58589D01*
X83107Y-58523D01*
X83107Y-58551D01*
X83117Y-58570D01*
X83126Y-58580D01*
X83145Y-58589D01*
X83192Y-58589D01*
X83210Y-58580D01*
X83220Y-58570D01*
X83229Y-58551D01*
X83229Y-58495D01*
X83220Y-58476D01*
X83210Y-58467D01*
G54D15*
X76082Y-59157D02*
X76446Y-59157D01*
X76489Y-59178D01*
X76510Y-59200D01*
X76532Y-59242D01*
X76532Y-59328D01*
X76510Y-59371D01*
X76489Y-59392D01*
X76446Y-59414D01*
X76082Y-59414D01*
X76082Y-59585D02*
X76082Y-59864D01*
X76253Y-59714D01*
X76253Y-59778D01*
X76275Y-59821D01*
X76296Y-59842D01*
X76339Y-59864D01*
X76446Y-59864D01*
X76489Y-59842D01*
X76510Y-59821D01*
X76532Y-59778D01*
X76532Y-59650D01*
X76510Y-59607D01*
X76489Y-59585D01*
X75725Y-58608D02*
X75741Y-58658D01*
X75741Y-58741D01*
X75725Y-58775D01*
X75708Y-58791D01*
X75675Y-58808D01*
X75641Y-58808D01*
X75608Y-58791D01*
X75591Y-58775D01*
X75575Y-58741D01*
X75558Y-58675D01*
X75541Y-58641D01*
X75525Y-58625D01*
X75491Y-58608D01*
X75458Y-58608D01*
X75425Y-58625D01*
X75408Y-58641D01*
X75391Y-58675D01*
X75391Y-58758D01*
X75408Y-58808D01*
X75391Y-58908D02*
X75391Y-59108D01*
X75741Y-59008D02*
X75391Y-59008D01*
X75508Y-59375D02*
X75741Y-59375D01*
X75375Y-59291D02*
X75625Y-59208D01*
X75625Y-59425D01*
X75541Y-59608D02*
X75525Y-59575D01*
X75508Y-59558D01*
X75475Y-59541D01*
X75458Y-59541D01*
X75425Y-59558D01*
X75408Y-59575D01*
X75391Y-59608D01*
X75391Y-59675D01*
X75408Y-59708D01*
X75425Y-59725D01*
X75458Y-59741D01*
X75475Y-59741D01*
X75508Y-59725D01*
X75525Y-59708D01*
X75541Y-59675D01*
X75541Y-59608D01*
X75558Y-59575D01*
X75575Y-59558D01*
X75608Y-59541D01*
X75675Y-59541D01*
X75708Y-59558D01*
X75725Y-59575D01*
X75741Y-59608D01*
X75741Y-59675D01*
X75725Y-59708D01*
X75708Y-59725D01*
X75675Y-59741D01*
X75608Y-59741D01*
X75575Y-59725D01*
X75558Y-59708D01*
X75541Y-59675D01*
X75391Y-60058D02*
X75391Y-59891D01*
X75558Y-59875D01*
X75541Y-59891D01*
X75525Y-59925D01*
X75525Y-60008D01*
X75541Y-60041D01*
X75558Y-60058D01*
X75591Y-60075D01*
X75675Y-60075D01*
X75708Y-60058D01*
X75725Y-60041D01*
X75741Y-60008D01*
X75741Y-59925D01*
X75725Y-59891D01*
X75708Y-59875D01*
X75558Y-60225D02*
X75558Y-60341D01*
X75741Y-60391D02*
X75741Y-60225D01*
X75391Y-60225D01*
X75391Y-60391D01*
G54D12*
X80900Y-58342D02*
X80914Y-58357D01*
X80957Y-58371D01*
X80985Y-58371D01*
X81028Y-58357D01*
X81057Y-58328D01*
X81071Y-58300D01*
X81085Y-58242D01*
X81085Y-58200D01*
X81071Y-58142D01*
X81057Y-58114D01*
X81028Y-58085D01*
X80985Y-58071D01*
X80957Y-58071D01*
X80914Y-58085D01*
X80900Y-58100D01*
X80614Y-58371D02*
X80785Y-58371D01*
X80700Y-58371D02*
X80700Y-58071D01*
X80728Y-58114D01*
X80757Y-58142D01*
X80785Y-58157D01*
X81214Y-57700D02*
X81199Y-57685D01*
X81171Y-57671D01*
X81099Y-57671D01*
X81071Y-57685D01*
X81057Y-57700D01*
X81042Y-57728D01*
X81042Y-57757D01*
X81057Y-57800D01*
X81228Y-57971D01*
X81042Y-57971D01*
X80785Y-57771D02*
X80785Y-57971D01*
X80914Y-57771D02*
X80914Y-57928D01*
X80900Y-57957D01*
X80871Y-57971D01*
X80828Y-57971D01*
X80800Y-57957D01*
X80785Y-57942D01*
X80657Y-57700D02*
X80642Y-57685D01*
X80614Y-57671D01*
X80542Y-57671D01*
X80514Y-57685D01*
X80499Y-57700D01*
X80485Y-57728D01*
X80485Y-57757D01*
X80499Y-57800D01*
X80671Y-57971D01*
X80485Y-57971D01*
X78300Y-61621D02*
X78400Y-61478D01*
X78471Y-61621D02*
X78471Y-61321D01*
X78357Y-61321D01*
X78328Y-61335D01*
X78314Y-61350D01*
X78300Y-61378D01*
X78300Y-61421D01*
X78314Y-61450D01*
X78328Y-61464D01*
X78357Y-61478D01*
X78471Y-61478D01*
X78014Y-61621D02*
X78185Y-61621D01*
X78100Y-61621D02*
X78100Y-61321D01*
X78128Y-61364D01*
X78157Y-61392D01*
X78185Y-61407D01*
X85500Y-61242D02*
X85514Y-61257D01*
X85557Y-61271D01*
X85585Y-61271D01*
X85628Y-61257D01*
X85657Y-61228D01*
X85671Y-61200D01*
X85685Y-61142D01*
X85685Y-61100D01*
X85671Y-61042D01*
X85657Y-61014D01*
X85628Y-60985D01*
X85585Y-60971D01*
X85557Y-60971D01*
X85514Y-60985D01*
X85500Y-61000D01*
X85328Y-61100D02*
X85357Y-61085D01*
X85371Y-61071D01*
X85385Y-61042D01*
X85385Y-61028D01*
X85371Y-61000D01*
X85357Y-60985D01*
X85328Y-60971D01*
X85271Y-60971D01*
X85242Y-60985D01*
X85228Y-61000D01*
X85214Y-61028D01*
X85214Y-61042D01*
X85228Y-61071D01*
X85242Y-61085D01*
X85271Y-61100D01*
X85328Y-61100D01*
X85357Y-61114D01*
X85371Y-61128D01*
X85385Y-61157D01*
X85385Y-61214D01*
X85371Y-61242D01*
X85357Y-61257D01*
X85328Y-61271D01*
X85271Y-61271D01*
X85242Y-61257D01*
X85228Y-61242D01*
X85214Y-61214D01*
X85214Y-61157D01*
X85228Y-61128D01*
X85242Y-61114D01*
X85271Y-61100D01*
X85500Y-60292D02*
X85514Y-60307D01*
X85557Y-60321D01*
X85585Y-60321D01*
X85628Y-60307D01*
X85657Y-60278D01*
X85671Y-60250D01*
X85685Y-60192D01*
X85685Y-60150D01*
X85671Y-60092D01*
X85657Y-60064D01*
X85628Y-60035D01*
X85585Y-60021D01*
X85557Y-60021D01*
X85514Y-60035D01*
X85500Y-60050D01*
X85400Y-60021D02*
X85200Y-60021D01*
X85328Y-60321D01*
G54D16*
X84261Y-57970D02*
X84271Y-57961D01*
X84280Y-57935D01*
X84280Y-57918D01*
X84271Y-57892D01*
X84252Y-57875D01*
X84233Y-57867D01*
X84195Y-57858D01*
X84166Y-57858D01*
X84128Y-57867D01*
X84109Y-57875D01*
X84090Y-57892D01*
X84080Y-57918D01*
X84080Y-57935D01*
X84090Y-57961D01*
X84100Y-57970D01*
X84100Y-58038D02*
X84090Y-58047D01*
X84080Y-58064D01*
X84080Y-58107D01*
X84090Y-58124D01*
X84100Y-58132D01*
X84119Y-58141D01*
X84138Y-58141D01*
X84166Y-58132D01*
X84280Y-58030D01*
X84280Y-58141D01*
X82211Y-57970D02*
X82221Y-57961D01*
X82230Y-57935D01*
X82230Y-57918D01*
X82221Y-57892D01*
X82202Y-57875D01*
X82183Y-57867D01*
X82145Y-57858D01*
X82116Y-57858D01*
X82078Y-57867D01*
X82059Y-57875D01*
X82040Y-57892D01*
X82030Y-57918D01*
X82030Y-57935D01*
X82040Y-57961D01*
X82050Y-57970D01*
X82030Y-58030D02*
X82030Y-58141D01*
X82107Y-58081D01*
X82107Y-58107D01*
X82116Y-58124D01*
X82126Y-58132D01*
X82145Y-58141D01*
X82192Y-58141D01*
X82211Y-58132D01*
X82221Y-58124D01*
X82230Y-58107D01*
X82230Y-58055D01*
X82221Y-58038D01*
X82211Y-58030D01*
G54D17*
X79802Y-59754D02*
X79302Y-59754D01*
X79302Y-59850D01*
X79326Y-59907D01*
X79373Y-59945D01*
X79421Y-59964D01*
X79516Y-59983D01*
X79588Y-59983D01*
X79683Y-59964D01*
X79730Y-59945D01*
X79778Y-59907D01*
X79802Y-59850D01*
X79802Y-59754D01*
X79802Y-60364D02*
X79802Y-60135D01*
X79802Y-60250D02*
X79302Y-60250D01*
X79373Y-60211D01*
X79421Y-60173D01*
X79445Y-60135D01*
X82911Y-59259D02*
X82511Y-59259D01*
X82511Y-59354D01*
X82530Y-59411D01*
X82569Y-59450D01*
X82607Y-59469D01*
X82683Y-59488D01*
X82740Y-59488D01*
X82816Y-59469D01*
X82854Y-59450D01*
X82892Y-59411D01*
X82911Y-59354D01*
X82911Y-59259D01*
X82911Y-59659D02*
X82511Y-59659D01*
X82511Y-59926D02*
X82511Y-60002D01*
X82530Y-60040D01*
X82569Y-60078D01*
X82645Y-60097D01*
X82778Y-60097D01*
X82854Y-60078D01*
X82892Y-60040D01*
X82911Y-60002D01*
X82911Y-59926D01*
X82892Y-59888D01*
X82854Y-59850D01*
X82778Y-59830D01*
X82645Y-59830D01*
X82569Y-59850D01*
X82530Y-59888D01*
X82511Y-59926D01*
X82911Y-60269D02*
X82511Y-60269D01*
X82511Y-60364D01*
X82530Y-60421D01*
X82569Y-60459D01*
X82607Y-60478D01*
X82683Y-60497D01*
X82740Y-60497D01*
X82816Y-60478D01*
X82854Y-60459D01*
X82892Y-60421D01*
X82911Y-60364D01*
X82911Y-60269D01*
X82702Y-60669D02*
X82702Y-60802D01*
X82911Y-60859D02*
X82911Y-60669D01*
X82511Y-60669D01*
X82511Y-60859D01*
G54D18*
X86357Y-56895D02*
X86357Y-57214D01*
X86338Y-57251D01*
X86319Y-57270D01*
X86282Y-57289D01*
X86207Y-57289D01*
X86169Y-57270D01*
X86150Y-57251D01*
X86132Y-57214D01*
X86132Y-56895D01*
X85738Y-57289D02*
X85963Y-57289D01*
X85850Y-57289D02*
X85850Y-56895D01*
X85888Y-56951D01*
X85925Y-56989D01*
X85963Y-57008D01*
X86804Y-59690D02*
X86992Y-59690D01*
X86992Y-59296D01*
X86673Y-59690D02*
X86673Y-59296D01*
X86579Y-59296D01*
X86523Y-59315D01*
X86485Y-59352D01*
X86466Y-59390D01*
X86448Y-59465D01*
X86448Y-59521D01*
X86466Y-59596D01*
X86485Y-59634D01*
X86523Y-59671D01*
X86579Y-59690D01*
X86673Y-59690D01*
X86072Y-59690D02*
X86297Y-59690D01*
X86185Y-59690D02*
X86185Y-59296D01*
X86222Y-59352D01*
X86260Y-59390D01*
X86297Y-59409D01*
X85697Y-59690D02*
X85922Y-59690D01*
X85810Y-59690D02*
X85810Y-59296D01*
X85847Y-59352D01*
X85885Y-59390D01*
X85922Y-59409D01*
X85322Y-59690D02*
X85547Y-59690D01*
X85434Y-59690D02*
X85434Y-59296D01*
X85472Y-59352D01*
X85509Y-59390D01*
X85547Y-59409D01*
X85190Y-59296D02*
X84928Y-59296D01*
X85097Y-59690D01*
M02*
