M48
;DRILL file {Pcbnew (2013-mar-13)-testing} date Mon 20 Jan 2014 04:57:47 AM EST
;FORMAT={-:-/ absolute / inch / decimal}
FMAT,2
INCH,TZ
T1C0.025
T2C0.032
T3C0.035
T4C0.055
T5C0.060
T6C0.120
%
G90
G05
M72
T1
X5.1195Y-1.92
X5.1195Y-2.06
X5.12Y-1.78
X5.16Y-2.45
X5.24Y-1.92
X5.25Y-2.06
X5.26Y-1.59
X5.27Y-1.77
X5.3Y-1.14
X5.335Y-1.865
X5.34Y-1.49
X5.385Y-1.91
X5.42Y-1.66
X5.44Y-1.85
X5.49Y-1.305
X5.497Y-3.617
X5.5Y-3.02
X5.5Y-4.22
X5.5Y-4.82
X5.55Y-1.82
X5.55Y-1.94
X5.56Y-2.24
X5.57Y-1.65
X5.57Y-2.18
X5.6Y-1.92
X5.675Y-1.345
X5.68Y-2.33
X5.71Y-1.94
X5.72Y-2.1
X5.72Y-2.18
X5.74Y-1.59
X5.76Y-1.79
X5.77Y-2.75
X5.77Y-2.79
X5.77Y-2.95
X5.77Y-2.99
X5.78Y-1.68
X5.79Y-3.37
X5.79Y-3.55
X5.8075Y-1.3525
X5.82Y-2.14
X5.82Y-2.26
X5.84Y-1.63
X5.84Y-3.37
X5.84Y-3.55
X5.86Y-2.096
X5.872Y-2.164
X5.92Y-1.8
X5.97Y-1.85
X5.98Y-2.32
X6.Y-1.355
X6.015Y-2.045
X6.02Y-2.36
X6.03Y-2.17
X6.04Y-1.66
X6.048Y-1.372
X6.105Y-1.9725
X6.11Y-2.045
X6.12Y-2.25
X6.165Y-2.4825
X6.21Y-1.93
X6.22Y-1.76
X6.23Y-2.26
X6.2425Y-2.065
X6.26Y-1.88
X6.2675Y-2.505
X6.27Y-1.76
X6.33Y-1.94
X6.3425Y-1.8875
X6.365Y-2.5225
X6.37Y-2.36
X6.385Y-1.85
X6.45Y-2.03
X6.52Y-2.27
X6.55Y-2.52
X6.551Y-2.461
X6.61Y-2.46
X6.61Y-2.52
X6.68Y-2.24
X7.01Y-2.25
X7.01Y-2.3
X7.16Y-1.92
X7.18Y-2.3
X7.25Y-2.21
X7.33Y-2.29
X7.3875Y-2.105
X7.4075Y-2.1975
X7.41Y-2.46
X7.41Y-2.52
X7.42Y-2.29
X7.47Y-2.46
X7.47Y-2.52
X7.56Y-1.74
X7.57Y-1.57
X7.73Y-1.61
X8.472Y-3.165
X8.486Y-3.767
X8.49Y-4.374
T2
X5.09Y-1.1
X5.09Y-1.2
X5.09Y-1.3
X5.09Y-1.4
X5.19Y-1.1
X5.19Y-1.2
X5.19Y-1.3
X5.19Y-1.4
X6.72Y-1.1
X6.72Y-1.2
X6.72Y-1.3
X6.72Y-1.4
X6.72Y-1.5
X6.72Y-1.6
X6.72Y-1.7
X6.72Y-1.8
X6.9Y-2.575
X7.1Y-2.575
X7.22Y-1.1
X7.22Y-1.2
X7.22Y-1.3
X7.22Y-1.4
X7.22Y-1.5
X7.22Y-1.6
X7.22Y-1.7
X7.22Y-1.8
T3
X5.45Y-2.725
X5.45Y-2.825
X5.45Y-3.325
X5.45Y-3.425
X5.45Y-3.925
X5.45Y-4.025
X5.45Y-4.525
X5.45Y-4.625
X5.55Y-2.775
X5.55Y-2.875
X5.55Y-3.375
X5.55Y-3.475
X5.55Y-3.975
X5.55Y-4.075
X5.55Y-4.575
X5.55Y-4.675
X8.45Y-3.325
X8.45Y-3.425
X8.45Y-3.925
X8.45Y-4.025
X8.45Y-4.525
X8.45Y-4.625
X8.55Y-3.375
X8.55Y-3.475
X8.55Y-3.975
X8.55Y-4.075
X8.55Y-4.575
X8.55Y-4.675
T4
X6.Y-2.8
X6.Y-3.4
X6.Y-4.
X6.Y-4.6
X6.2Y-2.8
X6.2Y-3.4
X6.2Y-4.
X6.2Y-4.6
X6.6Y-2.8
X6.6Y-3.4
X6.6Y-4.
X6.6Y-4.6
X6.8Y-2.8
X6.8Y-3.4
X6.8Y-4.
X6.8Y-4.6
X7.2Y-2.8
X7.2Y-3.4
X7.2Y-4.
X7.2Y-4.6
X7.4Y-2.8
X7.4Y-3.4
X7.4Y-4.
X7.4Y-4.6
X7.8Y-2.8
X7.8Y-3.4
X7.8Y-4.
X7.8Y-4.6
X8.Y-2.8
X8.Y-3.4
X8.Y-4.
X8.Y-4.6
T5
X8.7Y-1.6
X8.7Y-1.8
X8.7Y-2.1
X8.7Y-2.3
T6
X8.56Y-2.8
X8.71Y-2.6
X8.8Y-2.8
T0
M30
