G04 (created by PCBNEW (2013-mar-13)-testing) date Mon 20 Jan 2014 04:57:44 AM EST*
%MOIN*%
G04 Gerber Fmt 3.4, Leading zero omitted, Abs format*
%FSLAX34Y34*%
G01*
G70*
G90*
G04 APERTURE LIST*
%ADD10C,0.005906*%
%ADD11C,0.189000*%
%ADD12R,0.189000X0.189000*%
%ADD13C,0.070866*%
%ADD14R,0.110200X0.220000*%
%ADD15R,0.057900X0.016500*%
%ADD16R,0.060000X0.010000*%
%ADD17R,0.010000X0.060000*%
%ADD18R,0.045000X0.025000*%
%ADD19R,0.025000X0.045000*%
%ADD20R,0.031400X0.031400*%
%ADD21R,0.100000X0.100000*%
%ADD22C,0.100000*%
%ADD23C,0.055000*%
%ADD24C,0.150000*%
%ADD25R,0.216500X0.078700*%
%ADD26R,0.055000X0.055000*%
%ADD27R,0.080000X0.060000*%
%ADD28R,0.035000X0.055000*%
%ADD29R,0.015748X0.011811*%
%ADD30R,0.173200X0.074800*%
%ADD31R,0.015700X0.023600*%
%ADD32R,0.086600X0.070900*%
%ADD33R,0.118110X0.216535*%
%ADD34R,0.039400X0.023600*%
%ADD35R,0.038000X0.050000*%
%ADD36C,0.035000*%
%ADD37C,0.008000*%
%ADD38C,0.012000*%
%ADD39C,0.020000*%
%ADD40C,0.060000*%
%ADD41C,0.035000*%
%ADD42C,0.010000*%
G04 APERTURE END LIST*
G54D10*
G54D11*
X88000Y-28000D03*
G54D12*
X85600Y-28000D03*
G54D11*
X87100Y-26000D03*
G54D13*
X85500Y-46750D03*
X84500Y-46250D03*
X85500Y-45750D03*
X84500Y-45250D03*
G54D14*
X78900Y-12900D03*
G54D15*
X77798Y-13272D03*
X77798Y-13528D03*
X77798Y-13784D03*
X77798Y-14040D03*
X80000Y-12508D03*
X77798Y-12504D03*
X77798Y-12760D03*
X77798Y-13016D03*
X80002Y-14040D03*
X80002Y-13784D03*
X80002Y-13528D03*
X80002Y-13272D03*
X80002Y-13016D03*
X80000Y-12760D03*
X77798Y-12248D03*
X80002Y-12248D03*
X77798Y-11993D03*
X80002Y-11993D03*
X77798Y-11737D03*
X80002Y-11737D03*
G54D16*
X56700Y-16510D03*
X56700Y-16705D03*
X56700Y-16900D03*
X56700Y-17100D03*
X56700Y-17295D03*
X56700Y-17490D03*
X56700Y-17690D03*
X56700Y-17885D03*
X56700Y-18080D03*
X56700Y-18280D03*
X56700Y-18475D03*
X61300Y-16510D03*
X61300Y-16705D03*
X61300Y-16900D03*
X61300Y-17100D03*
X61300Y-17295D03*
X61300Y-17490D03*
X61300Y-17690D03*
X61300Y-17885D03*
X61300Y-18080D03*
X61300Y-18280D03*
X61300Y-18475D03*
G54D17*
X57525Y-14700D03*
X57720Y-14700D03*
X57920Y-14700D03*
X58115Y-14700D03*
X58310Y-14700D03*
X58510Y-14700D03*
X58705Y-14700D03*
X58900Y-14700D03*
X59100Y-14700D03*
X59295Y-14700D03*
X59490Y-14700D03*
X59490Y-19300D03*
X59295Y-19300D03*
X59100Y-19300D03*
X58900Y-19300D03*
X58705Y-19300D03*
X58510Y-19300D03*
X58310Y-19300D03*
X58115Y-19300D03*
X57920Y-19300D03*
X57720Y-19300D03*
X57525Y-19300D03*
X59690Y-19300D03*
X59885Y-19300D03*
X60080Y-19300D03*
X60280Y-19300D03*
X60475Y-19300D03*
X60475Y-14700D03*
X60280Y-14700D03*
X60080Y-14700D03*
X59885Y-14700D03*
X59690Y-14700D03*
G54D16*
X61300Y-16310D03*
X61300Y-16115D03*
X61300Y-15920D03*
X61300Y-15720D03*
X61300Y-15525D03*
X56700Y-16310D03*
X56700Y-16115D03*
X56700Y-15920D03*
X56700Y-15720D03*
X56700Y-15525D03*
G54D18*
X83000Y-44700D03*
X83000Y-45300D03*
X83000Y-32700D03*
X83000Y-33300D03*
X83000Y-38700D03*
X83000Y-39300D03*
X55700Y-17200D03*
X55700Y-16600D03*
G54D19*
X57200Y-20250D03*
X57800Y-20250D03*
G54D18*
X62675Y-17025D03*
X62675Y-16425D03*
G54D19*
X59550Y-20450D03*
X60150Y-20450D03*
G54D18*
X57000Y-41300D03*
X57000Y-40700D03*
X57000Y-35300D03*
X57000Y-34700D03*
X57000Y-29300D03*
X57000Y-28700D03*
X57000Y-47300D03*
X57000Y-46700D03*
G54D19*
X56000Y-14000D03*
X55400Y-14000D03*
X56000Y-13100D03*
X55400Y-13100D03*
X51200Y-22800D03*
X50600Y-22800D03*
X51200Y-18500D03*
X50600Y-18500D03*
X51200Y-21300D03*
X50600Y-21300D03*
G54D18*
X57000Y-27200D03*
X57000Y-27800D03*
X57000Y-33200D03*
X57000Y-33800D03*
X57000Y-39200D03*
X57000Y-39800D03*
X57000Y-45200D03*
X57000Y-45800D03*
X83000Y-46800D03*
X83000Y-46200D03*
X83000Y-40800D03*
X83000Y-40200D03*
X83000Y-34800D03*
X83000Y-34200D03*
G54D20*
X50605Y-19200D03*
X51195Y-19200D03*
G54D21*
X87000Y-23000D03*
G54D22*
X87000Y-21000D03*
G54D23*
X67200Y-11000D03*
X67200Y-12000D03*
X67200Y-13000D03*
X67200Y-14000D03*
X67200Y-15000D03*
X67200Y-16000D03*
X67200Y-17000D03*
X67200Y-18000D03*
X72200Y-18000D03*
X72200Y-17000D03*
X72200Y-16000D03*
X72200Y-15000D03*
X72200Y-14000D03*
X72200Y-13000D03*
X72200Y-12000D03*
X72200Y-11000D03*
G54D24*
X60000Y-28000D03*
X62000Y-28000D03*
X66000Y-28000D03*
X68000Y-28000D03*
X60000Y-34000D03*
X62000Y-34000D03*
X66000Y-34000D03*
X68000Y-34000D03*
X60000Y-40000D03*
X62000Y-40000D03*
X66000Y-40000D03*
X68000Y-40000D03*
X60000Y-46000D03*
X62000Y-46000D03*
X66000Y-46000D03*
X68000Y-46000D03*
X80000Y-46000D03*
X78000Y-46000D03*
X74000Y-46000D03*
X72000Y-46000D03*
X80000Y-40000D03*
X78000Y-40000D03*
X74000Y-40000D03*
X72000Y-40000D03*
X80000Y-34000D03*
X78000Y-34000D03*
X74000Y-34000D03*
X72000Y-34000D03*
G54D13*
X54500Y-27250D03*
X55500Y-27750D03*
X54500Y-28250D03*
X55500Y-28750D03*
X54500Y-33250D03*
X55500Y-33750D03*
X54500Y-34250D03*
X55500Y-34750D03*
X54500Y-39250D03*
X55500Y-39750D03*
X54500Y-40250D03*
X55500Y-40750D03*
X54500Y-45250D03*
X55500Y-45750D03*
X54500Y-46250D03*
X55500Y-46750D03*
X85500Y-40750D03*
X84500Y-40250D03*
X85500Y-39750D03*
X84500Y-39250D03*
X85500Y-34750D03*
X84500Y-34250D03*
X85500Y-33750D03*
X84500Y-33250D03*
G54D25*
X60850Y-12000D03*
X57150Y-12000D03*
G54D18*
X56200Y-11100D03*
X56200Y-10500D03*
G54D26*
X51900Y-14000D03*
G54D23*
X51900Y-13000D03*
X51900Y-12000D03*
X51900Y-11000D03*
G54D26*
X50900Y-14000D03*
G54D23*
X50900Y-13000D03*
X50900Y-12000D03*
X50900Y-11000D03*
G54D24*
X72000Y-28000D03*
X74000Y-28000D03*
X78000Y-28000D03*
X80000Y-28000D03*
G54D27*
X54000Y-10950D03*
X54000Y-12250D03*
X55100Y-10950D03*
X55100Y-12250D03*
G54D20*
X50605Y-22050D03*
X51195Y-22050D03*
X50605Y-23550D03*
X51195Y-23550D03*
G54D18*
X61700Y-11100D03*
X61700Y-10500D03*
G54D23*
X71000Y-25750D03*
X69000Y-25750D03*
G54D18*
X74800Y-17100D03*
X74800Y-16500D03*
G54D28*
X80925Y-11300D03*
X81675Y-11300D03*
X76575Y-11400D03*
X75825Y-11400D03*
G54D29*
X76000Y-14281D03*
X76000Y-14518D03*
G54D28*
X75825Y-12800D03*
X76575Y-12800D03*
G54D27*
X74500Y-11450D03*
X74500Y-12750D03*
G54D30*
X82232Y-18400D03*
X78807Y-18400D03*
G54D28*
X77825Y-15300D03*
X78575Y-15300D03*
G54D31*
X80077Y-15200D03*
X79723Y-15200D03*
G54D32*
X82900Y-13790D03*
X82900Y-12210D03*
G54D20*
X50605Y-20600D03*
X51195Y-20600D03*
G54D33*
X85129Y-12500D03*
X88870Y-12500D03*
G54D21*
X87000Y-18000D03*
G54D22*
X87000Y-16000D03*
G54D19*
X51200Y-19900D03*
X50600Y-19900D03*
G54D18*
X75300Y-14100D03*
X75300Y-14700D03*
X74300Y-14100D03*
X74300Y-14700D03*
G54D19*
X74300Y-15600D03*
X74900Y-15600D03*
G54D18*
X76800Y-14100D03*
X76800Y-14700D03*
G54D34*
X76226Y-17056D03*
X76226Y-16544D03*
X76974Y-16800D03*
G54D35*
X70100Y-19200D03*
X69600Y-19200D03*
X69100Y-19200D03*
G54D36*
X60400Y-16600D03*
X57800Y-16800D03*
X55500Y-19400D03*
X57200Y-21000D03*
X58075Y-13525D03*
X74100Y-24600D03*
X74700Y-24600D03*
X74700Y-25200D03*
X51200Y-17800D03*
X51600Y-24500D03*
X65510Y-24610D03*
X66100Y-24600D03*
X66100Y-25200D03*
X65500Y-25200D03*
X74100Y-25200D03*
X84720Y-31650D03*
X84860Y-37670D03*
X84900Y-43740D03*
X55000Y-30200D03*
X54970Y-36170D03*
X55000Y-42200D03*
X55000Y-48200D03*
X75700Y-15700D03*
X77300Y-16100D03*
X71600Y-19200D03*
X75600Y-17400D03*
X57100Y-19400D03*
X56000Y-19200D03*
X58200Y-21400D03*
X55600Y-22400D03*
X73875Y-21050D03*
X71800Y-23000D03*
X70100Y-23000D03*
X63425Y-18875D03*
X63850Y-18500D03*
X72500Y-22100D03*
X74075Y-21975D03*
X57600Y-17900D03*
X58400Y-16300D03*
X62425Y-20650D03*
X63650Y-25225D03*
X59200Y-18000D03*
X59700Y-18500D03*
X74200Y-22900D03*
X73300Y-22900D03*
X70100Y-22500D03*
X61050Y-19725D03*
X61100Y-20450D03*
X54400Y-18500D03*
X55500Y-18200D03*
X57400Y-15900D03*
X53350Y-18650D03*
X53850Y-19100D03*
X61650Y-24825D03*
X62200Y-17600D03*
X62600Y-18800D03*
X54900Y-13050D03*
X56750Y-13450D03*
X62675Y-25050D03*
X62700Y-17600D03*
X63300Y-19400D03*
X58720Y-21640D03*
X58600Y-20960D03*
X60150Y-20450D03*
X53000Y-11400D03*
X53400Y-14900D03*
X52600Y-15900D03*
X52700Y-17700D03*
X52400Y-19200D03*
X52500Y-20600D03*
X51195Y-20600D03*
X51195Y-19200D03*
X62100Y-19300D03*
X64500Y-20300D03*
X66800Y-22400D03*
X65200Y-22700D03*
X63700Y-23600D03*
X62300Y-22600D03*
X60300Y-21700D03*
X61200Y-22500D03*
X60200Y-23600D03*
X59800Y-23200D03*
X58200Y-22600D03*
X56800Y-23300D03*
X55700Y-21800D03*
X57200Y-21800D03*
X57700Y-29900D03*
X57700Y-29500D03*
X57700Y-27500D03*
X57700Y-27900D03*
X57900Y-35500D03*
X58400Y-35500D03*
X58400Y-33700D03*
X57900Y-33700D03*
X54200Y-16600D03*
X55700Y-16500D03*
X60480Y-13720D03*
X60000Y-13550D03*
G54D37*
X59490Y-19300D02*
X59490Y-18890D01*
X58700Y-18100D02*
X58000Y-18100D01*
X59490Y-18890D02*
X58700Y-18100D01*
G54D38*
X51900Y-17200D02*
X51900Y-19900D01*
X50900Y-14000D02*
X50900Y-16200D01*
X51900Y-17200D02*
X55700Y-17200D01*
X50900Y-16200D02*
X51900Y-17200D01*
G54D37*
X61300Y-16900D02*
X60700Y-16900D01*
X60700Y-16900D02*
X60400Y-16600D01*
X57325Y-16700D02*
X57400Y-16700D01*
X57800Y-16800D02*
X57700Y-16700D01*
X57700Y-16700D02*
X57400Y-16700D01*
X57720Y-19300D02*
X57720Y-18380D01*
X57720Y-18380D02*
X58000Y-18100D01*
X58000Y-17675D02*
X57225Y-16900D01*
X58000Y-18100D02*
X58000Y-17675D01*
X51200Y-19900D02*
X51900Y-19900D01*
X51900Y-19900D02*
X55000Y-19900D01*
X55000Y-19900D02*
X55500Y-19400D01*
X57200Y-21000D02*
X57200Y-20250D01*
G54D39*
X62675Y-17025D02*
X64925Y-17025D01*
X69600Y-19700D02*
X69600Y-19200D01*
X69200Y-20100D02*
X69600Y-19700D01*
X68000Y-20100D02*
X69200Y-20100D01*
X64925Y-17025D02*
X68000Y-20100D01*
G54D37*
X61300Y-16900D02*
X62180Y-16900D01*
X62200Y-16880D02*
X62200Y-16705D01*
X62180Y-16900D02*
X62200Y-16880D01*
X61300Y-16705D02*
X62200Y-16705D01*
X62200Y-16705D02*
X62565Y-16705D01*
X62675Y-16815D02*
X62675Y-17025D01*
X62565Y-16705D02*
X62675Y-16815D01*
X58705Y-14700D02*
X58705Y-14155D01*
X58705Y-14155D02*
X58075Y-13525D01*
X56700Y-16510D02*
X57235Y-16510D01*
X57235Y-16510D02*
X57325Y-16600D01*
X57325Y-16600D02*
X57325Y-16700D01*
X57325Y-16700D02*
X57325Y-16800D01*
X57325Y-16800D02*
X57225Y-16900D01*
X57225Y-16900D02*
X56700Y-16900D01*
X56700Y-16900D02*
X55750Y-16900D01*
X55700Y-16950D02*
X55700Y-17200D01*
X55750Y-16900D02*
X55700Y-16950D01*
X59490Y-19300D02*
X59490Y-20390D01*
X59490Y-20390D02*
X59550Y-20450D01*
X57720Y-19300D02*
X57720Y-19680D01*
X57400Y-20250D02*
X57200Y-20250D01*
X57500Y-20150D02*
X57400Y-20250D01*
X57500Y-19900D02*
X57500Y-20150D01*
X57720Y-19680D02*
X57500Y-19900D01*
G54D40*
X71000Y-25750D02*
X71000Y-21300D01*
X73750Y-11450D02*
X74500Y-11450D01*
X73300Y-11900D02*
X73750Y-11450D01*
X73300Y-19000D02*
X73300Y-11900D01*
X71000Y-21300D02*
X73300Y-19000D01*
X71000Y-25750D02*
X71000Y-27000D01*
X71000Y-27000D02*
X72000Y-28000D01*
X68000Y-28000D02*
X72000Y-28000D01*
G54D38*
X77200Y-12248D02*
X77200Y-12300D01*
X77200Y-12300D02*
X77404Y-12504D01*
X77404Y-12504D02*
X77798Y-12504D01*
X77798Y-12248D02*
X77200Y-12248D01*
G54D39*
X74650Y-11450D02*
X75300Y-12100D01*
X75300Y-12100D02*
X77000Y-12100D01*
X77000Y-12100D02*
X77200Y-12300D01*
X74650Y-11450D02*
X74500Y-11450D01*
G54D37*
X74100Y-25200D02*
X74100Y-24600D01*
X74700Y-24600D02*
X74700Y-25200D01*
X74700Y-25800D02*
X74100Y-25800D01*
X58100Y-30360D02*
X58100Y-27100D01*
X51200Y-17800D02*
X51200Y-18500D01*
X55500Y-24500D02*
X51600Y-24500D01*
X58100Y-27100D02*
X55500Y-24500D01*
G54D41*
X65800Y-24610D02*
X65800Y-25800D01*
X66090Y-24610D02*
X65800Y-24610D01*
X65800Y-24610D02*
X65510Y-24610D01*
X66100Y-24600D02*
X66090Y-24610D01*
X66100Y-25800D02*
X66100Y-25200D01*
X65500Y-25200D02*
X65500Y-25800D01*
X74700Y-24600D02*
X74100Y-24600D01*
X74400Y-25800D02*
X74400Y-24600D01*
X74100Y-25800D02*
X74400Y-25800D01*
X74400Y-25800D02*
X74700Y-25800D01*
X74700Y-25200D02*
X74700Y-24600D01*
X75200Y-24600D02*
X74700Y-24600D01*
X74700Y-25200D02*
X74700Y-25800D01*
X74100Y-25800D02*
X74100Y-25200D01*
X75200Y-24600D02*
X80400Y-19400D01*
X82232Y-19168D02*
X82232Y-18400D01*
X82000Y-19400D02*
X82232Y-19168D01*
X80400Y-19400D02*
X82000Y-19400D01*
X63780Y-26340D02*
X65510Y-24610D01*
X65510Y-24610D02*
X65520Y-24600D01*
X63780Y-30360D02*
X63780Y-26340D01*
X75200Y-24600D02*
X75960Y-25360D01*
G54D39*
X83000Y-32700D02*
X82980Y-32680D01*
X82980Y-32680D02*
X82980Y-31650D01*
X75980Y-31650D02*
X75960Y-31670D01*
X84720Y-31650D02*
X82980Y-31650D01*
X82980Y-31650D02*
X75980Y-31650D01*
X83000Y-38700D02*
X82980Y-38680D01*
X82980Y-38680D02*
X82980Y-37670D01*
X75960Y-37730D02*
X76020Y-37670D01*
X76020Y-37670D02*
X82980Y-37670D01*
X82980Y-37670D02*
X84860Y-37670D01*
X83000Y-44700D02*
X82930Y-44630D01*
X82930Y-44630D02*
X82930Y-43740D01*
X76760Y-43740D02*
X82930Y-43740D01*
X82930Y-43740D02*
X84900Y-43740D01*
G54D41*
X75960Y-42940D02*
X76760Y-43740D01*
X76760Y-43740D02*
X76780Y-43760D01*
X75960Y-25300D02*
X75960Y-25360D01*
X75960Y-25360D02*
X75960Y-31670D01*
X75960Y-31670D02*
X75960Y-37730D01*
X75960Y-37730D02*
X75960Y-42940D01*
G54D39*
X57000Y-29300D02*
X57000Y-30180D01*
X57000Y-30180D02*
X57180Y-30360D01*
X55160Y-30360D02*
X57180Y-30360D01*
X57180Y-30360D02*
X58100Y-30360D01*
X58100Y-30360D02*
X63780Y-30360D01*
X55000Y-30200D02*
X55160Y-30360D01*
X57000Y-35300D02*
X57000Y-36060D01*
X57000Y-36060D02*
X56860Y-36200D01*
X63780Y-36200D02*
X56860Y-36200D01*
X56860Y-36200D02*
X55000Y-36200D01*
X55000Y-36200D02*
X54970Y-36170D01*
X57000Y-41300D02*
X57000Y-42060D01*
X57000Y-42060D02*
X57140Y-42200D01*
X55000Y-42200D02*
X57140Y-42200D01*
X57140Y-42200D02*
X63780Y-42200D01*
X63780Y-42200D02*
X63800Y-42200D01*
X63800Y-42200D02*
X63780Y-42200D01*
X57000Y-47300D02*
X57000Y-48180D01*
X57000Y-48180D02*
X57000Y-48100D01*
X57000Y-48100D02*
X57000Y-48180D01*
G54D41*
X62840Y-48180D02*
X57000Y-48180D01*
X63780Y-42200D02*
X63780Y-47240D01*
X63780Y-47240D02*
X62840Y-48180D01*
G54D39*
X57000Y-48180D02*
X55020Y-48180D01*
G54D41*
X63780Y-30360D02*
X63780Y-36200D01*
X63780Y-36200D02*
X63780Y-42200D01*
G54D39*
X55020Y-48180D02*
X55000Y-48200D01*
G54D38*
X80002Y-13784D02*
X80584Y-13784D01*
X80900Y-15100D02*
X79200Y-16800D01*
X80900Y-14100D02*
X80900Y-15100D01*
X80584Y-13784D02*
X80900Y-14100D01*
G54D39*
X77800Y-16800D02*
X77800Y-16600D01*
X75600Y-15600D02*
X74900Y-15600D01*
X75700Y-15700D02*
X75600Y-15600D01*
X77800Y-16600D02*
X77300Y-16100D01*
X76974Y-16800D02*
X77800Y-16800D01*
X77800Y-16800D02*
X79200Y-16800D01*
X80800Y-18400D02*
X82232Y-18400D01*
X79200Y-16800D02*
X80800Y-18400D01*
G54D40*
X82232Y-18400D02*
X83600Y-18400D01*
X83600Y-18400D02*
X84000Y-18000D01*
X84000Y-18000D02*
X87000Y-18000D01*
X87000Y-18000D02*
X88300Y-18000D01*
X88870Y-17429D02*
X88870Y-12500D01*
X88300Y-18000D02*
X88870Y-17429D01*
G54D39*
X72200Y-12000D02*
X69100Y-15100D01*
X69100Y-15100D02*
X69100Y-19200D01*
X70600Y-19200D02*
X71100Y-19200D01*
X75600Y-17400D02*
X75600Y-18400D01*
X75600Y-17400D02*
X75600Y-17800D01*
X75600Y-17800D02*
X75600Y-17900D01*
X71100Y-19200D02*
X71600Y-19200D01*
X70100Y-19200D02*
X70600Y-19200D01*
X75600Y-17100D02*
X75600Y-17056D01*
X75600Y-17400D02*
X75600Y-17100D01*
G54D38*
X75600Y-17300D02*
X75600Y-17056D01*
X76226Y-17056D02*
X75600Y-17056D01*
X75600Y-17056D02*
X74844Y-17056D01*
X74844Y-17056D02*
X74800Y-17100D01*
G54D37*
X57100Y-19400D02*
X57200Y-19300D01*
X57525Y-19300D02*
X57200Y-19300D01*
X54400Y-21300D02*
X51200Y-21300D01*
X56000Y-19700D02*
X54400Y-21300D01*
X56000Y-19200D02*
X56000Y-19700D01*
X58115Y-19815D02*
X58200Y-19900D01*
X58200Y-19900D02*
X58200Y-21400D01*
X51200Y-22800D02*
X54800Y-22800D01*
X58115Y-19815D02*
X58115Y-19300D01*
X55200Y-22400D02*
X54800Y-22800D01*
X55600Y-22400D02*
X55200Y-22400D01*
X61300Y-16310D02*
X62090Y-16310D01*
X65200Y-16000D02*
X67200Y-14000D01*
X62400Y-16000D02*
X65200Y-16000D01*
X62090Y-16310D02*
X62400Y-16000D01*
X67200Y-12000D02*
X67860Y-12660D01*
X55960Y-14560D02*
X55400Y-14000D01*
X56520Y-14560D02*
X55960Y-14560D01*
X57595Y-15635D02*
X56520Y-14560D01*
X60499Y-15635D02*
X57595Y-15635D01*
X62954Y-13180D02*
X60499Y-15635D01*
X66280Y-13180D02*
X62954Y-13180D01*
X66599Y-13500D02*
X66280Y-13180D01*
X67520Y-13500D02*
X66599Y-13500D01*
X67860Y-13160D02*
X67520Y-13500D01*
X67860Y-12660D02*
X67860Y-13160D01*
X56000Y-14000D02*
X56000Y-13650D01*
X54000Y-12800D02*
X54000Y-12250D01*
X54750Y-13550D02*
X54000Y-12800D01*
X55900Y-13550D02*
X54750Y-13550D01*
X56000Y-13650D02*
X55900Y-13550D01*
X58115Y-14700D02*
X58115Y-14328D01*
X57390Y-14000D02*
X56000Y-14000D01*
X57640Y-14250D02*
X57390Y-14000D01*
X58036Y-14250D02*
X57640Y-14250D01*
X58115Y-14328D02*
X58036Y-14250D01*
X56000Y-13100D02*
X57200Y-13100D01*
X58510Y-14214D02*
X58510Y-14700D01*
X58145Y-13850D02*
X58510Y-14214D01*
X57750Y-13850D02*
X58145Y-13850D01*
X57600Y-13700D02*
X57750Y-13850D01*
X57600Y-13500D02*
X57600Y-13700D01*
X57200Y-13100D02*
X57600Y-13500D01*
X56000Y-13100D02*
X56000Y-12800D01*
X55450Y-12250D02*
X55100Y-12250D01*
X56000Y-12800D02*
X55450Y-12250D01*
X67200Y-13000D02*
X62880Y-13000D01*
X57920Y-15200D02*
X57920Y-14700D01*
X58175Y-15455D02*
X57920Y-15200D01*
X60424Y-15455D02*
X58175Y-15455D01*
X62880Y-13000D02*
X60424Y-15455D01*
X56700Y-17885D02*
X56274Y-17885D01*
X72750Y-21050D02*
X73875Y-21050D01*
X71900Y-21900D02*
X72750Y-21050D01*
X71900Y-22900D02*
X71900Y-21900D01*
X71800Y-23000D02*
X71900Y-22900D01*
X66400Y-23000D02*
X70100Y-23000D01*
X63699Y-25700D02*
X66400Y-23000D01*
X60105Y-25700D02*
X63699Y-25700D01*
X56519Y-22114D02*
X60105Y-25700D01*
X56519Y-19019D02*
X56519Y-22114D01*
X56100Y-18600D02*
X56519Y-19019D01*
X56100Y-18059D02*
X56100Y-18600D01*
X56274Y-17885D02*
X56100Y-18059D01*
X63025Y-18475D02*
X61300Y-18475D01*
X63425Y-18875D02*
X63025Y-18475D01*
X61300Y-18280D02*
X63630Y-18280D01*
X63630Y-18280D02*
X63850Y-18500D01*
X73950Y-22100D02*
X72500Y-22100D01*
X74075Y-21975D02*
X73950Y-22100D01*
X57220Y-18280D02*
X56700Y-18280D01*
X57600Y-17900D02*
X57220Y-18280D01*
X56700Y-16310D02*
X58390Y-16310D01*
X58390Y-16310D02*
X58400Y-16300D01*
X59295Y-19300D02*
X59295Y-19795D01*
X62425Y-20650D02*
X62125Y-20950D01*
X62125Y-20950D02*
X59350Y-20950D01*
X59350Y-20950D02*
X59200Y-20800D01*
X59200Y-20800D02*
X59200Y-20059D01*
X59200Y-20059D02*
X59300Y-19959D01*
X59300Y-19959D02*
X59300Y-19800D01*
X59295Y-19795D02*
X59300Y-19800D01*
X56700Y-18475D02*
X56700Y-22040D01*
X63355Y-25520D02*
X63650Y-25225D01*
X60180Y-25520D02*
X63355Y-25520D01*
X56700Y-22040D02*
X60180Y-25520D01*
X60080Y-19300D02*
X60080Y-18920D01*
X60000Y-18000D02*
X59200Y-18000D01*
X60300Y-18300D02*
X60000Y-18000D01*
X60300Y-18700D02*
X60300Y-18300D01*
X60080Y-18920D02*
X60300Y-18700D01*
X59885Y-18685D02*
X59885Y-19300D01*
X59700Y-18500D02*
X59885Y-18685D01*
X64140Y-18000D02*
X62100Y-18000D01*
X65620Y-19480D02*
X64140Y-18000D01*
X61790Y-17690D02*
X61300Y-17690D01*
X62100Y-18000D02*
X61790Y-17690D01*
X65620Y-19480D02*
X68640Y-22500D01*
X73300Y-22900D02*
X74200Y-22900D01*
X68640Y-22500D02*
X70100Y-22500D01*
X65620Y-19480D02*
X65640Y-19500D01*
X60625Y-19300D02*
X60475Y-19300D01*
X61050Y-19725D02*
X60625Y-19300D01*
X60280Y-19855D02*
X60280Y-19300D01*
X60375Y-19950D02*
X60280Y-19855D01*
X60600Y-19950D02*
X60375Y-19950D01*
X61100Y-20450D02*
X60600Y-19950D01*
X61300Y-17490D02*
X60790Y-17490D01*
X54400Y-18500D02*
X54700Y-18200D01*
X54700Y-18200D02*
X55500Y-18200D01*
X57400Y-15900D02*
X57484Y-15815D01*
X57484Y-15815D02*
X59115Y-15815D01*
X59115Y-15815D02*
X60500Y-17200D01*
X60790Y-17490D02*
X60500Y-17200D01*
X56160Y-17490D02*
X56700Y-17490D01*
X56000Y-17650D02*
X56160Y-17490D01*
X54350Y-17650D02*
X56000Y-17650D01*
X53350Y-18650D02*
X54350Y-17650D01*
X56214Y-17690D02*
X56074Y-17830D01*
X56074Y-17830D02*
X54424Y-17830D01*
X54424Y-17830D02*
X53750Y-18504D01*
X53750Y-18504D02*
X53750Y-19000D01*
X53750Y-19000D02*
X53850Y-19100D01*
X56700Y-17690D02*
X56214Y-17690D01*
X62820Y-20560D02*
X62820Y-19020D01*
X62820Y-22755D02*
X62820Y-20560D01*
X61650Y-24825D02*
X61650Y-23925D01*
X61650Y-23925D02*
X62820Y-22755D01*
X61895Y-17295D02*
X61300Y-17295D01*
X62200Y-17600D02*
X61895Y-17295D01*
X62820Y-19020D02*
X62600Y-18800D01*
X54950Y-13100D02*
X55400Y-13100D01*
X54900Y-13050D02*
X54950Y-13100D01*
X58310Y-14269D02*
X58090Y-14050D01*
X58090Y-14050D02*
X57695Y-14050D01*
X57695Y-14050D02*
X57095Y-13450D01*
X57095Y-13450D02*
X56750Y-13450D01*
X58310Y-14700D02*
X58310Y-14269D01*
X63000Y-22500D02*
X63000Y-22829D01*
X62675Y-23155D02*
X62900Y-22930D01*
X62675Y-25050D02*
X62675Y-23155D01*
X62200Y-17100D02*
X62700Y-17600D01*
X63300Y-19400D02*
X63000Y-19699D01*
X63000Y-19699D02*
X63000Y-22500D01*
X62200Y-17100D02*
X61300Y-17100D01*
X63000Y-22829D02*
X62900Y-22930D01*
X59100Y-19900D02*
X59019Y-19980D01*
X59100Y-19900D02*
X59100Y-19300D01*
X59019Y-21340D02*
X59019Y-19980D01*
X58720Y-21640D02*
X59019Y-21340D01*
X58839Y-19905D02*
X58839Y-20680D01*
X58900Y-19300D02*
X58900Y-19845D01*
X58900Y-19845D02*
X58839Y-19905D01*
X58600Y-20920D02*
X58600Y-20960D01*
X58839Y-20680D02*
X58600Y-20920D01*
X59950Y-20450D02*
X59850Y-20350D01*
X59850Y-20350D02*
X59850Y-20100D01*
X59850Y-20100D02*
X59690Y-19940D01*
X59690Y-19300D02*
X59690Y-19940D01*
X60150Y-20450D02*
X59950Y-20450D01*
X51195Y-20600D02*
X52500Y-20600D01*
X53400Y-15100D02*
X53400Y-14900D01*
X52600Y-15900D02*
X53400Y-15100D01*
X52700Y-18900D02*
X52700Y-17700D01*
X52400Y-19200D02*
X52700Y-18900D01*
X61200Y-22500D02*
X62200Y-22500D01*
X61900Y-19100D02*
X61700Y-19100D01*
X62100Y-19300D02*
X61900Y-19100D01*
X64700Y-20300D02*
X64500Y-20300D01*
X66800Y-22400D02*
X64700Y-20300D01*
X64600Y-22700D02*
X65200Y-22700D01*
X63700Y-23600D02*
X64600Y-22700D01*
X62200Y-22500D02*
X62300Y-22600D01*
X57800Y-20250D02*
X57800Y-21100D01*
X61200Y-22600D02*
X61200Y-22500D01*
X60200Y-23600D02*
X61200Y-22600D01*
X58800Y-23200D02*
X59800Y-23200D01*
X58200Y-22600D02*
X58800Y-23200D01*
X56800Y-22900D02*
X56800Y-23300D01*
X55700Y-21800D02*
X56800Y-22900D01*
X57200Y-21700D02*
X57200Y-21800D01*
X57800Y-21100D02*
X57200Y-21700D01*
X54500Y-27250D02*
X54500Y-27100D01*
X57700Y-27500D02*
X57700Y-29500D01*
X57700Y-26954D02*
X57700Y-27900D01*
X57245Y-26500D02*
X57700Y-26954D01*
X55100Y-26500D02*
X57245Y-26500D01*
X54500Y-27100D02*
X55100Y-26500D01*
X54500Y-33250D02*
X55450Y-32300D01*
X58400Y-33700D02*
X58400Y-35500D01*
X57900Y-32700D02*
X57900Y-33700D01*
X57500Y-32300D02*
X57900Y-32700D01*
X55450Y-32300D02*
X57500Y-32300D01*
X55700Y-16600D02*
X54200Y-16600D01*
X55700Y-16600D02*
X55600Y-16600D01*
X55600Y-16600D02*
X55700Y-16500D01*
X61300Y-16510D02*
X62590Y-16510D01*
X62590Y-16510D02*
X62675Y-16425D01*
X60080Y-14120D02*
X60080Y-14700D01*
X60480Y-13720D02*
X60080Y-14120D01*
G54D39*
X76800Y-14700D02*
X76800Y-15500D01*
X76200Y-16100D02*
X76200Y-16400D01*
X76800Y-15500D02*
X76200Y-16100D01*
G54D38*
X74800Y-16500D02*
X76182Y-16500D01*
X76182Y-16500D02*
X76226Y-16544D01*
X77798Y-14040D02*
X78140Y-14040D01*
X78575Y-14475D02*
X78575Y-15300D01*
X78140Y-14040D02*
X78575Y-14475D01*
X79723Y-15200D02*
X78675Y-15200D01*
X78675Y-15200D02*
X78575Y-15300D01*
X80002Y-13272D02*
X80572Y-13272D01*
X80030Y-13500D02*
X80002Y-13528D01*
X80600Y-13500D02*
X80030Y-13500D01*
X80700Y-13400D02*
X80600Y-13500D01*
X80572Y-13272D02*
X80700Y-13400D01*
G54D39*
X74500Y-12750D02*
X74500Y-13400D01*
X74500Y-13400D02*
X74300Y-13600D01*
X74300Y-13600D02*
X74300Y-14100D01*
G54D37*
X59295Y-14700D02*
X59295Y-15170D01*
X60080Y-15170D02*
X60080Y-14700D01*
X59975Y-15275D02*
X60080Y-15170D01*
X59400Y-15275D02*
X59975Y-15275D01*
X59295Y-15170D02*
X59400Y-15275D01*
X56700Y-16705D02*
X55805Y-16705D01*
X55805Y-16705D02*
X55700Y-16600D01*
X57920Y-19300D02*
X57920Y-20130D01*
X57920Y-20130D02*
X57800Y-20250D01*
G54D39*
X56200Y-11100D02*
X56250Y-11100D01*
X56250Y-11100D02*
X57150Y-12000D01*
G54D37*
X58900Y-14700D02*
X58900Y-13750D01*
X58900Y-13750D02*
X57150Y-12000D01*
X55500Y-39750D02*
X56950Y-39750D01*
X56950Y-39750D02*
X57000Y-39800D01*
X57000Y-39200D02*
X55300Y-39200D01*
X54500Y-40000D02*
X54500Y-40250D01*
X55300Y-39200D02*
X54500Y-40000D01*
X57000Y-33200D02*
X55300Y-33200D01*
X54500Y-34000D02*
X54500Y-34250D01*
X55300Y-33200D02*
X54500Y-34000D01*
X55500Y-33750D02*
X56950Y-33750D01*
X56950Y-33750D02*
X57000Y-33800D01*
X55500Y-27750D02*
X56950Y-27750D01*
X56950Y-27750D02*
X57000Y-27800D01*
X57000Y-27200D02*
X55300Y-27200D01*
X54500Y-28000D02*
X54500Y-28250D01*
X55300Y-27200D02*
X54500Y-28000D01*
X59490Y-14700D02*
X59490Y-14060D01*
X59490Y-14060D02*
X60000Y-13550D01*
X56700Y-15720D02*
X55665Y-15720D01*
X51945Y-12000D02*
X51900Y-12000D01*
X55665Y-15720D02*
X51945Y-12000D01*
G54D39*
X61700Y-11100D02*
X61700Y-11150D01*
X61700Y-11150D02*
X60850Y-12000D01*
G54D37*
X59100Y-14700D02*
X59100Y-13750D01*
X59100Y-13750D02*
X60850Y-12000D01*
X50600Y-22800D02*
X50605Y-22805D01*
X50605Y-22805D02*
X50605Y-23550D01*
X50600Y-18500D02*
X50605Y-18505D01*
X50605Y-18505D02*
X50605Y-19200D01*
X50600Y-21300D02*
X50625Y-21325D01*
X50625Y-22030D02*
X50605Y-22050D01*
X50625Y-21325D02*
X50625Y-22030D01*
X50605Y-20600D02*
X50605Y-19905D01*
X50605Y-19905D02*
X50600Y-19900D01*
G54D38*
X76000Y-14518D02*
X75718Y-14518D01*
X75700Y-14500D02*
X75300Y-14100D01*
X75718Y-14518D02*
X75700Y-14500D01*
X77798Y-13016D02*
X77316Y-13016D01*
X75825Y-12675D02*
X75825Y-12800D01*
X76139Y-12360D02*
X75825Y-12675D01*
X76860Y-12360D02*
X76139Y-12360D01*
X76966Y-12466D02*
X76860Y-12360D01*
X76966Y-12666D02*
X76966Y-12466D01*
X77316Y-13016D02*
X76966Y-12666D01*
X76000Y-14281D02*
X76000Y-13600D01*
X75825Y-13425D02*
X75825Y-12800D01*
X76000Y-13600D02*
X75825Y-13425D01*
X80077Y-15200D02*
X80077Y-14115D01*
X80077Y-14115D02*
X80002Y-14040D01*
X77798Y-11737D02*
X77337Y-11737D01*
X77000Y-11400D02*
X76575Y-11400D01*
X77337Y-11737D02*
X77000Y-11400D01*
G54D39*
X80925Y-11300D02*
X80100Y-11300D01*
X80100Y-11300D02*
X80000Y-11400D01*
X80000Y-11600D02*
X80002Y-11600D01*
X80000Y-11400D02*
X80000Y-11600D01*
G54D38*
X80002Y-11737D02*
X80002Y-11600D01*
X80002Y-11600D02*
X80002Y-11398D01*
X80002Y-11398D02*
X80100Y-11300D01*
G54D37*
X56700Y-15525D02*
X55725Y-15525D01*
X53200Y-12300D02*
X51900Y-11000D01*
X53200Y-13000D02*
X53200Y-12300D01*
X55725Y-15525D02*
X53200Y-13000D01*
G54D38*
X76800Y-14100D02*
X76800Y-13800D01*
X77072Y-13528D02*
X77798Y-13528D01*
X76800Y-13800D02*
X77072Y-13528D01*
X77825Y-15300D02*
X77825Y-14925D01*
X77416Y-13784D02*
X77798Y-13784D01*
X77300Y-13900D02*
X77416Y-13784D01*
X77300Y-14400D02*
X77300Y-13900D01*
X77825Y-14925D02*
X77300Y-14400D01*
G54D39*
X74300Y-15600D02*
X74300Y-14700D01*
G54D38*
X77798Y-13272D02*
X76575Y-13272D01*
X76575Y-13272D02*
X76575Y-13325D01*
X76575Y-12800D02*
X76575Y-13325D01*
X75300Y-15000D02*
X75300Y-14700D01*
X75500Y-15200D02*
X75300Y-15000D01*
X75800Y-15200D02*
X75500Y-15200D01*
X76300Y-14700D02*
X75800Y-15200D01*
X76300Y-13600D02*
X76300Y-14700D01*
X76575Y-13325D02*
X76300Y-13600D01*
G54D39*
X74300Y-14700D02*
X75300Y-14700D01*
G54D41*
X81400Y-13100D02*
X81300Y-13100D01*
G54D40*
X82090Y-13790D02*
X81400Y-13100D01*
X82900Y-13790D02*
X82090Y-13790D01*
G54D41*
X81100Y-12900D02*
X80600Y-12900D01*
X81300Y-13100D02*
X81100Y-12900D01*
G54D38*
X80000Y-12760D02*
X80660Y-12760D01*
X80584Y-13016D02*
X80002Y-13016D01*
X80700Y-12900D02*
X80584Y-13016D01*
X80700Y-12800D02*
X80700Y-12900D01*
X80660Y-12760D02*
X80700Y-12800D01*
G54D39*
X80700Y-12200D02*
X80600Y-12100D01*
X80700Y-12200D02*
X80700Y-12300D01*
X80700Y-12300D02*
X80600Y-12300D01*
X80600Y-12300D02*
X80500Y-12400D01*
G54D41*
X81650Y-12050D02*
X82740Y-12050D01*
X82740Y-12050D02*
X82900Y-12210D01*
X80700Y-12300D02*
X81400Y-12300D01*
X81400Y-12300D02*
X81650Y-12050D01*
X81650Y-12050D02*
X81675Y-12025D01*
X81675Y-12025D02*
X81675Y-11300D01*
G54D40*
X82900Y-12210D02*
X84839Y-12210D01*
X84839Y-12210D02*
X85129Y-12500D01*
G54D38*
X80000Y-12508D02*
X80692Y-12508D01*
X80700Y-12500D02*
X80700Y-12300D01*
X80700Y-12300D02*
X80700Y-12248D01*
X80692Y-12508D02*
X80700Y-12500D01*
X80002Y-11993D02*
X80693Y-11993D01*
X80700Y-12000D02*
X80700Y-12248D01*
X80693Y-11993D02*
X80700Y-12000D01*
G54D39*
X81675Y-12025D02*
X82715Y-12025D01*
X82715Y-12025D02*
X82900Y-12210D01*
X80002Y-12248D02*
X80700Y-12248D01*
X80700Y-12248D02*
X81452Y-12248D01*
X81452Y-12248D02*
X81675Y-12025D01*
X81675Y-12025D02*
X81675Y-11300D01*
G54D37*
X56700Y-15920D02*
X55610Y-15920D01*
X52690Y-13000D02*
X51900Y-13000D01*
X55610Y-15920D02*
X52690Y-13000D01*
X51400Y-11625D02*
X51400Y-11500D01*
X51400Y-11625D02*
X51400Y-12500D01*
X51900Y-13000D02*
X51400Y-12500D01*
X51400Y-11500D02*
X50900Y-11000D01*
X56700Y-16115D02*
X55551Y-16115D01*
X53436Y-14000D02*
X51900Y-14000D01*
X55551Y-16115D02*
X53436Y-14000D01*
X50900Y-13000D02*
X51900Y-14000D01*
X84500Y-34250D02*
X83050Y-34250D01*
X83050Y-34250D02*
X83000Y-34200D01*
X83000Y-34800D02*
X84700Y-34800D01*
X85500Y-34000D02*
X85500Y-33750D01*
X84700Y-34800D02*
X85500Y-34000D01*
X83000Y-40800D02*
X84700Y-40800D01*
X85500Y-40000D02*
X85500Y-39750D01*
X84700Y-40800D02*
X85500Y-40000D01*
X84500Y-40250D02*
X83050Y-40250D01*
X83050Y-40250D02*
X83000Y-40200D01*
X83000Y-46200D02*
X84450Y-46200D01*
X84450Y-46200D02*
X84500Y-46250D01*
X83000Y-46800D02*
X84700Y-46800D01*
X85500Y-46000D02*
X85500Y-45750D01*
X84700Y-46800D02*
X85500Y-46000D01*
X54500Y-46250D02*
X54500Y-46000D01*
X55300Y-45200D02*
X57000Y-45200D01*
X54500Y-46000D02*
X55300Y-45200D01*
X55500Y-45750D02*
X56950Y-45750D01*
X56950Y-45750D02*
X57000Y-45800D01*
G54D10*
G36*
X74950Y-47700D02*
X70875Y-47700D01*
X70875Y-30826D01*
X70742Y-30505D01*
X70496Y-30258D01*
X70174Y-30125D01*
X69826Y-30124D01*
X69505Y-30257D01*
X69258Y-30503D01*
X69125Y-30825D01*
X69124Y-31173D01*
X69257Y-31495D01*
X69503Y-31741D01*
X69825Y-31874D01*
X70173Y-31875D01*
X70495Y-31742D01*
X70741Y-31496D01*
X70874Y-31174D01*
X70875Y-30826D01*
X70875Y-47700D01*
X70822Y-47700D01*
X70742Y-47505D01*
X70496Y-47258D01*
X70174Y-47125D01*
X69826Y-47124D01*
X69505Y-47257D01*
X69258Y-47503D01*
X69177Y-47700D01*
X65050Y-47700D01*
X65050Y-26550D01*
X74950Y-26550D01*
X74950Y-47700D01*
X74950Y-47700D01*
G37*
G54D42*
X74950Y-47700D02*
X70875Y-47700D01*
X70875Y-30826D01*
X70742Y-30505D01*
X70496Y-30258D01*
X70174Y-30125D01*
X69826Y-30124D01*
X69505Y-30257D01*
X69258Y-30503D01*
X69125Y-30825D01*
X69124Y-31173D01*
X69257Y-31495D01*
X69503Y-31741D01*
X69825Y-31874D01*
X70173Y-31875D01*
X70495Y-31742D01*
X70741Y-31496D01*
X70874Y-31174D01*
X70875Y-30826D01*
X70875Y-47700D01*
X70822Y-47700D01*
X70742Y-47505D01*
X70496Y-47258D01*
X70174Y-47125D01*
X69826Y-47124D01*
X69505Y-47257D01*
X69258Y-47503D01*
X69177Y-47700D01*
X65050Y-47700D01*
X65050Y-26550D01*
X74950Y-26550D01*
X74950Y-47700D01*
G54D10*
G36*
X55635Y-19738D02*
X54304Y-21070D01*
X51515Y-21070D01*
X51515Y-21037D01*
X51486Y-20967D01*
X51481Y-20963D01*
X51487Y-20960D01*
X51555Y-20892D01*
X51592Y-20804D01*
X51592Y-20720D01*
X51532Y-20660D01*
X51255Y-20660D01*
X51255Y-20667D01*
X51135Y-20667D01*
X51135Y-20660D01*
X51127Y-20660D01*
X51127Y-20540D01*
X51135Y-20540D01*
X51135Y-20532D01*
X51255Y-20532D01*
X51255Y-20540D01*
X51532Y-20540D01*
X51592Y-20480D01*
X51592Y-20395D01*
X51555Y-20307D01*
X51487Y-20239D01*
X51481Y-20236D01*
X51486Y-20232D01*
X51515Y-20162D01*
X51515Y-20130D01*
X51802Y-20130D01*
X51804Y-20130D01*
X51900Y-20150D01*
X51995Y-20130D01*
X51997Y-20130D01*
X55000Y-20130D01*
X55088Y-20112D01*
X55088Y-20112D01*
X55162Y-20062D01*
X55460Y-19764D01*
X55572Y-19765D01*
X55635Y-19738D01*
X55635Y-19738D01*
G37*
G54D37*
X55635Y-19738D02*
X54304Y-21070D01*
X51515Y-21070D01*
X51515Y-21037D01*
X51486Y-20967D01*
X51481Y-20963D01*
X51487Y-20960D01*
X51555Y-20892D01*
X51592Y-20804D01*
X51592Y-20720D01*
X51532Y-20660D01*
X51255Y-20660D01*
X51255Y-20667D01*
X51135Y-20667D01*
X51135Y-20660D01*
X51127Y-20660D01*
X51127Y-20540D01*
X51135Y-20540D01*
X51135Y-20532D01*
X51255Y-20532D01*
X51255Y-20540D01*
X51532Y-20540D01*
X51592Y-20480D01*
X51592Y-20395D01*
X51555Y-20307D01*
X51487Y-20239D01*
X51481Y-20236D01*
X51486Y-20232D01*
X51515Y-20162D01*
X51515Y-20130D01*
X51802Y-20130D01*
X51804Y-20130D01*
X51900Y-20150D01*
X51995Y-20130D01*
X51997Y-20130D01*
X55000Y-20130D01*
X55088Y-20112D01*
X55088Y-20112D01*
X55162Y-20062D01*
X55460Y-19764D01*
X55572Y-19765D01*
X55635Y-19738D01*
G54D10*
G36*
X55767Y-16660D02*
X55760Y-16660D01*
X55760Y-16667D01*
X55640Y-16667D01*
X55640Y-16660D01*
X55295Y-16660D01*
X55235Y-16720D01*
X55235Y-16772D01*
X55271Y-16860D01*
X55339Y-16928D01*
X55348Y-16932D01*
X55331Y-16950D01*
X52003Y-16950D01*
X51150Y-16096D01*
X51150Y-14465D01*
X51212Y-14465D01*
X51282Y-14436D01*
X51336Y-14382D01*
X51365Y-14312D01*
X51365Y-14237D01*
X51365Y-13790D01*
X51435Y-13860D01*
X51435Y-14312D01*
X51463Y-14382D01*
X51517Y-14436D01*
X51587Y-14465D01*
X51662Y-14465D01*
X52212Y-14465D01*
X52282Y-14436D01*
X52336Y-14382D01*
X52365Y-14312D01*
X52365Y-14237D01*
X52365Y-14230D01*
X53341Y-14230D01*
X55369Y-16258D01*
X55339Y-16271D01*
X55271Y-16339D01*
X55235Y-16427D01*
X55235Y-16480D01*
X55295Y-16540D01*
X55640Y-16540D01*
X55640Y-16532D01*
X55760Y-16532D01*
X55760Y-16540D01*
X55767Y-16540D01*
X55767Y-16660D01*
X55767Y-16660D01*
G37*
G54D37*
X55767Y-16660D02*
X55760Y-16660D01*
X55760Y-16667D01*
X55640Y-16667D01*
X55640Y-16660D01*
X55295Y-16660D01*
X55235Y-16720D01*
X55235Y-16772D01*
X55271Y-16860D01*
X55339Y-16928D01*
X55348Y-16932D01*
X55331Y-16950D01*
X52003Y-16950D01*
X51150Y-16096D01*
X51150Y-14465D01*
X51212Y-14465D01*
X51282Y-14436D01*
X51336Y-14382D01*
X51365Y-14312D01*
X51365Y-14237D01*
X51365Y-13790D01*
X51435Y-13860D01*
X51435Y-14312D01*
X51463Y-14382D01*
X51517Y-14436D01*
X51587Y-14465D01*
X51662Y-14465D01*
X52212Y-14465D01*
X52282Y-14436D01*
X52336Y-14382D01*
X52365Y-14312D01*
X52365Y-14237D01*
X52365Y-14230D01*
X53341Y-14230D01*
X55369Y-16258D01*
X55339Y-16271D01*
X55271Y-16339D01*
X55235Y-16427D01*
X55235Y-16480D01*
X55295Y-16540D01*
X55640Y-16540D01*
X55640Y-16532D01*
X55760Y-16532D01*
X55760Y-16540D01*
X55767Y-16540D01*
X55767Y-16660D01*
G54D10*
G36*
X56009Y-18835D02*
X55927Y-18834D01*
X55793Y-18890D01*
X55690Y-18992D01*
X55658Y-19070D01*
X55572Y-19035D01*
X55427Y-19034D01*
X55293Y-19090D01*
X55190Y-19192D01*
X55135Y-19327D01*
X55134Y-19439D01*
X54904Y-19670D01*
X52150Y-19670D01*
X52150Y-17450D01*
X54243Y-17450D01*
X54187Y-17487D01*
X54187Y-17487D01*
X53389Y-18285D01*
X53277Y-18284D01*
X53143Y-18340D01*
X53040Y-18442D01*
X52985Y-18577D01*
X52984Y-18722D01*
X53040Y-18856D01*
X53142Y-18959D01*
X53277Y-19014D01*
X53422Y-19015D01*
X53504Y-18981D01*
X53485Y-19027D01*
X53484Y-19172D01*
X53540Y-19306D01*
X53642Y-19409D01*
X53777Y-19464D01*
X53922Y-19465D01*
X54056Y-19409D01*
X54159Y-19307D01*
X54214Y-19172D01*
X54215Y-19027D01*
X54159Y-18893D01*
X54057Y-18790D01*
X53980Y-18758D01*
X53980Y-18599D01*
X54034Y-18544D01*
X54034Y-18572D01*
X54090Y-18706D01*
X54192Y-18809D01*
X54327Y-18864D01*
X54472Y-18865D01*
X54606Y-18809D01*
X54709Y-18707D01*
X54764Y-18572D01*
X54765Y-18460D01*
X54795Y-18430D01*
X55213Y-18430D01*
X55292Y-18509D01*
X55427Y-18564D01*
X55572Y-18565D01*
X55706Y-18509D01*
X55809Y-18407D01*
X55864Y-18272D01*
X55865Y-18127D01*
X55837Y-18060D01*
X55870Y-18060D01*
X55870Y-18600D01*
X55887Y-18688D01*
X55937Y-18762D01*
X56009Y-18835D01*
X56009Y-18835D01*
G37*
G54D37*
X56009Y-18835D02*
X55927Y-18834D01*
X55793Y-18890D01*
X55690Y-18992D01*
X55658Y-19070D01*
X55572Y-19035D01*
X55427Y-19034D01*
X55293Y-19090D01*
X55190Y-19192D01*
X55135Y-19327D01*
X55134Y-19439D01*
X54904Y-19670D01*
X52150Y-19670D01*
X52150Y-17450D01*
X54243Y-17450D01*
X54187Y-17487D01*
X54187Y-17487D01*
X53389Y-18285D01*
X53277Y-18284D01*
X53143Y-18340D01*
X53040Y-18442D01*
X52985Y-18577D01*
X52984Y-18722D01*
X53040Y-18856D01*
X53142Y-18959D01*
X53277Y-19014D01*
X53422Y-19015D01*
X53504Y-18981D01*
X53485Y-19027D01*
X53484Y-19172D01*
X53540Y-19306D01*
X53642Y-19409D01*
X53777Y-19464D01*
X53922Y-19465D01*
X54056Y-19409D01*
X54159Y-19307D01*
X54214Y-19172D01*
X54215Y-19027D01*
X54159Y-18893D01*
X54057Y-18790D01*
X53980Y-18758D01*
X53980Y-18599D01*
X54034Y-18544D01*
X54034Y-18572D01*
X54090Y-18706D01*
X54192Y-18809D01*
X54327Y-18864D01*
X54472Y-18865D01*
X54606Y-18809D01*
X54709Y-18707D01*
X54764Y-18572D01*
X54765Y-18460D01*
X54795Y-18430D01*
X55213Y-18430D01*
X55292Y-18509D01*
X55427Y-18564D01*
X55572Y-18565D01*
X55706Y-18509D01*
X55809Y-18407D01*
X55864Y-18272D01*
X55865Y-18127D01*
X55837Y-18060D01*
X55870Y-18060D01*
X55870Y-18600D01*
X55887Y-18688D01*
X55937Y-18762D01*
X56009Y-18835D01*
G54D10*
G36*
X60853Y-20720D02*
X60515Y-20720D01*
X60515Y-20627D01*
X60515Y-20570D01*
X60455Y-20510D01*
X60210Y-20510D01*
X60210Y-20517D01*
X60090Y-20517D01*
X60090Y-20510D01*
X60082Y-20510D01*
X60082Y-20390D01*
X60090Y-20390D01*
X60090Y-20382D01*
X60210Y-20382D01*
X60210Y-20390D01*
X60455Y-20390D01*
X60515Y-20330D01*
X60515Y-20272D01*
X60515Y-20190D01*
X60735Y-20410D01*
X60734Y-20522D01*
X60790Y-20656D01*
X60853Y-20720D01*
X60853Y-20720D01*
G37*
G54D37*
X60853Y-20720D02*
X60515Y-20720D01*
X60515Y-20627D01*
X60515Y-20570D01*
X60455Y-20510D01*
X60210Y-20510D01*
X60210Y-20517D01*
X60090Y-20517D01*
X60090Y-20510D01*
X60082Y-20510D01*
X60082Y-20390D01*
X60090Y-20390D01*
X60090Y-20382D01*
X60210Y-20382D01*
X60210Y-20390D01*
X60455Y-20390D01*
X60515Y-20330D01*
X60515Y-20272D01*
X60515Y-20190D01*
X60735Y-20410D01*
X60734Y-20522D01*
X60790Y-20656D01*
X60853Y-20720D01*
G54D10*
G36*
X62590Y-20323D02*
X62497Y-20285D01*
X62352Y-20284D01*
X62218Y-20340D01*
X62115Y-20442D01*
X62060Y-20577D01*
X62059Y-20689D01*
X62029Y-20720D01*
X61346Y-20720D01*
X61409Y-20657D01*
X61464Y-20522D01*
X61465Y-20377D01*
X61409Y-20243D01*
X61307Y-20140D01*
X61172Y-20085D01*
X61134Y-20085D01*
X61256Y-20034D01*
X61359Y-19932D01*
X61414Y-19797D01*
X61415Y-19652D01*
X61359Y-19518D01*
X61257Y-19415D01*
X61122Y-19360D01*
X61010Y-19359D01*
X60787Y-19137D01*
X60715Y-19088D01*
X60715Y-19088D01*
X60715Y-18962D01*
X60686Y-18892D01*
X60632Y-18838D01*
X60562Y-18810D01*
X60497Y-18810D01*
X60512Y-18788D01*
X60512Y-18788D01*
X60530Y-18700D01*
X60530Y-18700D01*
X60530Y-18699D01*
X60530Y-18300D01*
X60512Y-18211D01*
X60512Y-18211D01*
X60462Y-18137D01*
X60162Y-17837D01*
X60088Y-17787D01*
X60000Y-17770D01*
X59486Y-17770D01*
X59407Y-17690D01*
X59272Y-17635D01*
X59127Y-17634D01*
X58993Y-17690D01*
X58890Y-17792D01*
X58837Y-17920D01*
X58788Y-17887D01*
X58700Y-17870D01*
X58230Y-17870D01*
X58230Y-17675D01*
X58212Y-17586D01*
X58212Y-17586D01*
X58162Y-17512D01*
X57815Y-17165D01*
X57872Y-17165D01*
X58006Y-17109D01*
X58109Y-17007D01*
X58164Y-16872D01*
X58165Y-16727D01*
X58109Y-16593D01*
X58056Y-16540D01*
X58123Y-16540D01*
X58192Y-16609D01*
X58327Y-16664D01*
X58472Y-16665D01*
X58606Y-16609D01*
X58709Y-16507D01*
X58764Y-16372D01*
X58765Y-16227D01*
X58709Y-16093D01*
X58661Y-16045D01*
X59019Y-16045D01*
X60337Y-17362D01*
X60337Y-17362D01*
X60627Y-17652D01*
X60701Y-17702D01*
X60701Y-17702D01*
X60790Y-17720D01*
X60790Y-17720D01*
X60790Y-17720D01*
X60810Y-17720D01*
X60810Y-17777D01*
X60814Y-17787D01*
X60810Y-17797D01*
X60810Y-17872D01*
X60810Y-17972D01*
X60814Y-17982D01*
X60810Y-17992D01*
X60810Y-18067D01*
X60810Y-18167D01*
X60815Y-18180D01*
X60810Y-18192D01*
X60810Y-18267D01*
X60810Y-18367D01*
X60814Y-18377D01*
X60810Y-18387D01*
X60810Y-18462D01*
X60810Y-18562D01*
X60838Y-18632D01*
X60892Y-18686D01*
X60962Y-18715D01*
X61037Y-18715D01*
X61637Y-18715D01*
X61661Y-18705D01*
X62244Y-18705D01*
X62235Y-18727D01*
X62234Y-18872D01*
X62290Y-19006D01*
X62392Y-19109D01*
X62527Y-19164D01*
X62590Y-19164D01*
X62590Y-20323D01*
X62590Y-20323D01*
G37*
G54D37*
X62590Y-20323D02*
X62497Y-20285D01*
X62352Y-20284D01*
X62218Y-20340D01*
X62115Y-20442D01*
X62060Y-20577D01*
X62059Y-20689D01*
X62029Y-20720D01*
X61346Y-20720D01*
X61409Y-20657D01*
X61464Y-20522D01*
X61465Y-20377D01*
X61409Y-20243D01*
X61307Y-20140D01*
X61172Y-20085D01*
X61134Y-20085D01*
X61256Y-20034D01*
X61359Y-19932D01*
X61414Y-19797D01*
X61415Y-19652D01*
X61359Y-19518D01*
X61257Y-19415D01*
X61122Y-19360D01*
X61010Y-19359D01*
X60787Y-19137D01*
X60715Y-19088D01*
X60715Y-19088D01*
X60715Y-18962D01*
X60686Y-18892D01*
X60632Y-18838D01*
X60562Y-18810D01*
X60497Y-18810D01*
X60512Y-18788D01*
X60512Y-18788D01*
X60530Y-18700D01*
X60530Y-18700D01*
X60530Y-18699D01*
X60530Y-18300D01*
X60512Y-18211D01*
X60512Y-18211D01*
X60462Y-18137D01*
X60162Y-17837D01*
X60088Y-17787D01*
X60000Y-17770D01*
X59486Y-17770D01*
X59407Y-17690D01*
X59272Y-17635D01*
X59127Y-17634D01*
X58993Y-17690D01*
X58890Y-17792D01*
X58837Y-17920D01*
X58788Y-17887D01*
X58700Y-17870D01*
X58230Y-17870D01*
X58230Y-17675D01*
X58212Y-17586D01*
X58212Y-17586D01*
X58162Y-17512D01*
X57815Y-17165D01*
X57872Y-17165D01*
X58006Y-17109D01*
X58109Y-17007D01*
X58164Y-16872D01*
X58165Y-16727D01*
X58109Y-16593D01*
X58056Y-16540D01*
X58123Y-16540D01*
X58192Y-16609D01*
X58327Y-16664D01*
X58472Y-16665D01*
X58606Y-16609D01*
X58709Y-16507D01*
X58764Y-16372D01*
X58765Y-16227D01*
X58709Y-16093D01*
X58661Y-16045D01*
X59019Y-16045D01*
X60337Y-17362D01*
X60337Y-17362D01*
X60627Y-17652D01*
X60701Y-17702D01*
X60701Y-17702D01*
X60790Y-17720D01*
X60790Y-17720D01*
X60790Y-17720D01*
X60810Y-17720D01*
X60810Y-17777D01*
X60814Y-17787D01*
X60810Y-17797D01*
X60810Y-17872D01*
X60810Y-17972D01*
X60814Y-17982D01*
X60810Y-17992D01*
X60810Y-18067D01*
X60810Y-18167D01*
X60815Y-18180D01*
X60810Y-18192D01*
X60810Y-18267D01*
X60810Y-18367D01*
X60814Y-18377D01*
X60810Y-18387D01*
X60810Y-18462D01*
X60810Y-18562D01*
X60838Y-18632D01*
X60892Y-18686D01*
X60962Y-18715D01*
X61037Y-18715D01*
X61637Y-18715D01*
X61661Y-18705D01*
X62244Y-18705D01*
X62235Y-18727D01*
X62234Y-18872D01*
X62290Y-19006D01*
X62392Y-19109D01*
X62527Y-19164D01*
X62590Y-19164D01*
X62590Y-20323D01*
G54D10*
G36*
X62590Y-22660D02*
X61487Y-23762D01*
X61437Y-23837D01*
X61420Y-23925D01*
X61420Y-24538D01*
X61340Y-24617D01*
X61285Y-24752D01*
X61284Y-24897D01*
X61340Y-25031D01*
X61442Y-25134D01*
X61577Y-25189D01*
X61722Y-25190D01*
X61856Y-25134D01*
X61959Y-25032D01*
X62014Y-24897D01*
X62015Y-24752D01*
X61959Y-24618D01*
X61880Y-24538D01*
X61880Y-24020D01*
X62445Y-23455D01*
X62445Y-24763D01*
X62365Y-24842D01*
X62310Y-24977D01*
X62309Y-25122D01*
X62365Y-25256D01*
X62398Y-25290D01*
X60275Y-25290D01*
X56930Y-21944D01*
X56930Y-21246D01*
X56992Y-21309D01*
X57127Y-21364D01*
X57272Y-21365D01*
X57406Y-21309D01*
X57509Y-21207D01*
X57564Y-21072D01*
X57565Y-20927D01*
X57509Y-20793D01*
X57430Y-20713D01*
X57430Y-20637D01*
X57432Y-20636D01*
X57467Y-20601D01*
X57471Y-20610D01*
X57539Y-20678D01*
X57627Y-20715D01*
X57680Y-20715D01*
X57740Y-20655D01*
X57740Y-20310D01*
X57732Y-20310D01*
X57732Y-20190D01*
X57740Y-20190D01*
X57740Y-20182D01*
X57860Y-20182D01*
X57860Y-20190D01*
X57867Y-20190D01*
X57867Y-20310D01*
X57860Y-20310D01*
X57860Y-20655D01*
X57920Y-20715D01*
X57970Y-20715D01*
X57970Y-21113D01*
X57890Y-21192D01*
X57835Y-21327D01*
X57834Y-21472D01*
X57890Y-21606D01*
X57992Y-21709D01*
X58127Y-21764D01*
X58272Y-21765D01*
X58361Y-21728D01*
X58410Y-21846D01*
X58512Y-21949D01*
X58647Y-22004D01*
X58792Y-22005D01*
X58926Y-21949D01*
X59029Y-21847D01*
X59084Y-21712D01*
X59085Y-21600D01*
X59182Y-21502D01*
X59232Y-21428D01*
X59232Y-21428D01*
X59249Y-21340D01*
X59249Y-21154D01*
X59261Y-21162D01*
X59261Y-21162D01*
X59350Y-21180D01*
X62125Y-21180D01*
X62213Y-21162D01*
X62213Y-21162D01*
X62287Y-21112D01*
X62385Y-21014D01*
X62497Y-21015D01*
X62590Y-20976D01*
X62590Y-22660D01*
X62590Y-22660D01*
G37*
G54D37*
X62590Y-22660D02*
X61487Y-23762D01*
X61437Y-23837D01*
X61420Y-23925D01*
X61420Y-24538D01*
X61340Y-24617D01*
X61285Y-24752D01*
X61284Y-24897D01*
X61340Y-25031D01*
X61442Y-25134D01*
X61577Y-25189D01*
X61722Y-25190D01*
X61856Y-25134D01*
X61959Y-25032D01*
X62014Y-24897D01*
X62015Y-24752D01*
X61959Y-24618D01*
X61880Y-24538D01*
X61880Y-24020D01*
X62445Y-23455D01*
X62445Y-24763D01*
X62365Y-24842D01*
X62310Y-24977D01*
X62309Y-25122D01*
X62365Y-25256D01*
X62398Y-25290D01*
X60275Y-25290D01*
X56930Y-21944D01*
X56930Y-21246D01*
X56992Y-21309D01*
X57127Y-21364D01*
X57272Y-21365D01*
X57406Y-21309D01*
X57509Y-21207D01*
X57564Y-21072D01*
X57565Y-20927D01*
X57509Y-20793D01*
X57430Y-20713D01*
X57430Y-20637D01*
X57432Y-20636D01*
X57467Y-20601D01*
X57471Y-20610D01*
X57539Y-20678D01*
X57627Y-20715D01*
X57680Y-20715D01*
X57740Y-20655D01*
X57740Y-20310D01*
X57732Y-20310D01*
X57732Y-20190D01*
X57740Y-20190D01*
X57740Y-20182D01*
X57860Y-20182D01*
X57860Y-20190D01*
X57867Y-20190D01*
X57867Y-20310D01*
X57860Y-20310D01*
X57860Y-20655D01*
X57920Y-20715D01*
X57970Y-20715D01*
X57970Y-21113D01*
X57890Y-21192D01*
X57835Y-21327D01*
X57834Y-21472D01*
X57890Y-21606D01*
X57992Y-21709D01*
X58127Y-21764D01*
X58272Y-21765D01*
X58361Y-21728D01*
X58410Y-21846D01*
X58512Y-21949D01*
X58647Y-22004D01*
X58792Y-22005D01*
X58926Y-21949D01*
X59029Y-21847D01*
X59084Y-21712D01*
X59085Y-21600D01*
X59182Y-21502D01*
X59232Y-21428D01*
X59232Y-21428D01*
X59249Y-21340D01*
X59249Y-21154D01*
X59261Y-21162D01*
X59261Y-21162D01*
X59350Y-21180D01*
X62125Y-21180D01*
X62213Y-21162D01*
X62213Y-21162D01*
X62287Y-21112D01*
X62385Y-21014D01*
X62497Y-21015D01*
X62590Y-20976D01*
X62590Y-22660D01*
G54D10*
G36*
X69833Y-22749D02*
X69813Y-22770D01*
X66400Y-22770D01*
X66311Y-22787D01*
X66237Y-22837D01*
X66237Y-22837D01*
X63987Y-25086D01*
X63959Y-25018D01*
X63857Y-24915D01*
X63722Y-24860D01*
X63577Y-24859D01*
X63443Y-24915D01*
X63340Y-25017D01*
X63285Y-25152D01*
X63284Y-25264D01*
X63259Y-25290D01*
X62951Y-25290D01*
X62984Y-25257D01*
X63039Y-25122D01*
X63040Y-24977D01*
X62984Y-24843D01*
X62905Y-24763D01*
X62905Y-23250D01*
X63062Y-23092D01*
X63162Y-22992D01*
X63212Y-22918D01*
X63212Y-22918D01*
X63230Y-22829D01*
X63230Y-22500D01*
X63230Y-19795D01*
X63260Y-19764D01*
X63372Y-19765D01*
X63506Y-19709D01*
X63609Y-19607D01*
X63664Y-19472D01*
X63665Y-19327D01*
X63609Y-19193D01*
X63631Y-19184D01*
X63734Y-19082D01*
X63789Y-18947D01*
X63790Y-18864D01*
X63922Y-18865D01*
X64056Y-18809D01*
X64159Y-18707D01*
X64214Y-18572D01*
X64215Y-18427D01*
X64195Y-18381D01*
X65457Y-19642D01*
X65477Y-19662D01*
X68477Y-22662D01*
X68551Y-22712D01*
X68551Y-22712D01*
X68640Y-22730D01*
X69813Y-22730D01*
X69833Y-22749D01*
X69833Y-22749D01*
G37*
G54D37*
X69833Y-22749D02*
X69813Y-22770D01*
X66400Y-22770D01*
X66311Y-22787D01*
X66237Y-22837D01*
X66237Y-22837D01*
X63987Y-25086D01*
X63959Y-25018D01*
X63857Y-24915D01*
X63722Y-24860D01*
X63577Y-24859D01*
X63443Y-24915D01*
X63340Y-25017D01*
X63285Y-25152D01*
X63284Y-25264D01*
X63259Y-25290D01*
X62951Y-25290D01*
X62984Y-25257D01*
X63039Y-25122D01*
X63040Y-24977D01*
X62984Y-24843D01*
X62905Y-24763D01*
X62905Y-23250D01*
X63062Y-23092D01*
X63162Y-22992D01*
X63212Y-22918D01*
X63212Y-22918D01*
X63230Y-22829D01*
X63230Y-22500D01*
X63230Y-19795D01*
X63260Y-19764D01*
X63372Y-19765D01*
X63506Y-19709D01*
X63609Y-19607D01*
X63664Y-19472D01*
X63665Y-19327D01*
X63609Y-19193D01*
X63631Y-19184D01*
X63734Y-19082D01*
X63789Y-18947D01*
X63790Y-18864D01*
X63922Y-18865D01*
X64056Y-18809D01*
X64159Y-18707D01*
X64214Y-18572D01*
X64215Y-18427D01*
X64195Y-18381D01*
X65457Y-19642D01*
X65477Y-19662D01*
X68477Y-22662D01*
X68551Y-22712D01*
X68551Y-22712D01*
X68640Y-22730D01*
X69813Y-22730D01*
X69833Y-22749D01*
G54D10*
G36*
X89735Y-49735D02*
X89650Y-49735D01*
X89650Y-13620D01*
X89650Y-13544D01*
X89650Y-11379D01*
X89621Y-11309D01*
X89568Y-11256D01*
X89498Y-11227D01*
X89422Y-11227D01*
X88241Y-11227D01*
X88171Y-11256D01*
X88118Y-11309D01*
X88089Y-11379D01*
X88089Y-11455D01*
X88089Y-13620D01*
X88118Y-13690D01*
X88171Y-13743D01*
X88241Y-13772D01*
X88317Y-13772D01*
X88380Y-13772D01*
X88380Y-17226D01*
X88097Y-17510D01*
X87745Y-17510D01*
X87745Y-16117D01*
X87733Y-15823D01*
X87643Y-15606D01*
X87531Y-15553D01*
X87446Y-15638D01*
X87446Y-15468D01*
X87393Y-15356D01*
X87117Y-15254D01*
X86823Y-15266D01*
X86606Y-15356D01*
X86553Y-15468D01*
X87000Y-15915D01*
X87446Y-15468D01*
X87446Y-15638D01*
X87084Y-16000D01*
X87531Y-16446D01*
X87643Y-16393D01*
X87745Y-16117D01*
X87745Y-17510D01*
X87690Y-17510D01*
X87690Y-17462D01*
X87661Y-17392D01*
X87607Y-17338D01*
X87537Y-17310D01*
X87462Y-17310D01*
X87446Y-17310D01*
X87446Y-16531D01*
X87000Y-16084D01*
X86915Y-16169D01*
X86915Y-16000D01*
X86468Y-15553D01*
X86356Y-15606D01*
X86254Y-15882D01*
X86266Y-16176D01*
X86356Y-16393D01*
X86468Y-16446D01*
X86915Y-16000D01*
X86915Y-16169D01*
X86553Y-16531D01*
X86606Y-16643D01*
X86882Y-16745D01*
X87176Y-16733D01*
X87393Y-16643D01*
X87446Y-16531D01*
X87446Y-17310D01*
X86462Y-17310D01*
X86392Y-17338D01*
X86338Y-17392D01*
X86310Y-17462D01*
X86310Y-17510D01*
X84000Y-17510D01*
X83812Y-17547D01*
X83653Y-17653D01*
X83397Y-17910D01*
X83250Y-17910D01*
X83205Y-17864D01*
X83135Y-17836D01*
X83060Y-17836D01*
X81328Y-17836D01*
X81258Y-17864D01*
X81204Y-17918D01*
X81176Y-17988D01*
X81176Y-18063D01*
X81176Y-18110D01*
X80920Y-18110D01*
X79581Y-16771D01*
X81076Y-15276D01*
X81130Y-15195D01*
X81150Y-15100D01*
X81150Y-14100D01*
X81130Y-14004D01*
X81130Y-14004D01*
X81076Y-13923D01*
X80760Y-13607D01*
X80679Y-13553D01*
X80584Y-13534D01*
X80451Y-13534D01*
X80494Y-13490D01*
X80514Y-13444D01*
X80531Y-13426D01*
X80531Y-13402D01*
X80531Y-13397D01*
X80531Y-13373D01*
X80514Y-13355D01*
X80494Y-13309D01*
X80451Y-13266D01*
X80584Y-13266D01*
X80594Y-13263D01*
X80600Y-13265D01*
X80942Y-13265D01*
X80947Y-13287D01*
X81053Y-13446D01*
X81743Y-14136D01*
X81902Y-14242D01*
X81902Y-14242D01*
X82090Y-14280D01*
X82333Y-14280D01*
X82359Y-14305D01*
X82429Y-14334D01*
X82504Y-14334D01*
X83370Y-14334D01*
X83440Y-14305D01*
X83494Y-14252D01*
X83523Y-14182D01*
X83523Y-14106D01*
X83523Y-13397D01*
X83494Y-13327D01*
X83440Y-13274D01*
X83370Y-13245D01*
X83295Y-13245D01*
X82429Y-13245D01*
X82359Y-13274D01*
X82333Y-13300D01*
X82292Y-13300D01*
X81746Y-12753D01*
X81587Y-12647D01*
X81538Y-12637D01*
X81539Y-12637D01*
X81658Y-12558D01*
X81801Y-12415D01*
X82277Y-12415D01*
X82277Y-12602D01*
X82305Y-12672D01*
X82359Y-12725D01*
X82429Y-12754D01*
X82504Y-12754D01*
X83370Y-12754D01*
X83440Y-12725D01*
X83466Y-12700D01*
X84349Y-12700D01*
X84349Y-13620D01*
X84378Y-13690D01*
X84431Y-13743D01*
X84501Y-13772D01*
X84577Y-13772D01*
X85758Y-13772D01*
X85828Y-13743D01*
X85881Y-13690D01*
X85910Y-13620D01*
X85910Y-13544D01*
X85910Y-11379D01*
X85881Y-11309D01*
X85828Y-11256D01*
X85758Y-11227D01*
X85682Y-11227D01*
X84501Y-11227D01*
X84431Y-11256D01*
X84378Y-11309D01*
X84349Y-11379D01*
X84349Y-11455D01*
X84349Y-11720D01*
X83466Y-11720D01*
X83440Y-11694D01*
X83370Y-11665D01*
X83295Y-11665D01*
X82429Y-11665D01*
X82382Y-11685D01*
X82040Y-11685D01*
X82040Y-11612D01*
X82040Y-11537D01*
X82040Y-11300D01*
X82040Y-10987D01*
X82011Y-10917D01*
X81957Y-10863D01*
X81887Y-10835D01*
X81812Y-10835D01*
X81462Y-10835D01*
X81392Y-10863D01*
X81338Y-10917D01*
X81310Y-10987D01*
X81310Y-11062D01*
X81310Y-11300D01*
X81310Y-11612D01*
X81310Y-11873D01*
X81248Y-11935D01*
X80937Y-11935D01*
X80930Y-11904D01*
X80876Y-11823D01*
X80869Y-11816D01*
X80793Y-11765D01*
X81137Y-11765D01*
X81207Y-11736D01*
X81261Y-11682D01*
X81290Y-11612D01*
X81290Y-11537D01*
X81290Y-10987D01*
X81261Y-10917D01*
X81207Y-10863D01*
X81137Y-10835D01*
X81062Y-10835D01*
X80712Y-10835D01*
X80642Y-10863D01*
X80588Y-10917D01*
X80560Y-10987D01*
X80560Y-11010D01*
X80100Y-11010D01*
X79989Y-11032D01*
X79894Y-11094D01*
X79794Y-11194D01*
X79732Y-11289D01*
X79710Y-11400D01*
X79710Y-11464D01*
X79674Y-11464D01*
X79604Y-11493D01*
X79551Y-11546D01*
X79522Y-11616D01*
X79522Y-11623D01*
X79488Y-11610D01*
X79413Y-11610D01*
X78311Y-11610D01*
X78277Y-11623D01*
X78277Y-11616D01*
X78248Y-11546D01*
X78195Y-11493D01*
X78125Y-11464D01*
X78049Y-11464D01*
X77470Y-11464D01*
X77433Y-11479D01*
X77176Y-11223D01*
X77095Y-11169D01*
X77000Y-11150D01*
X76940Y-11150D01*
X76940Y-11087D01*
X76911Y-11017D01*
X76857Y-10963D01*
X76787Y-10935D01*
X76712Y-10935D01*
X76362Y-10935D01*
X76292Y-10963D01*
X76238Y-11017D01*
X76227Y-11046D01*
X76203Y-10989D01*
X76135Y-10921D01*
X76047Y-10885D01*
X75945Y-10885D01*
X75885Y-10945D01*
X75885Y-11340D01*
X75892Y-11340D01*
X75892Y-11460D01*
X75885Y-11460D01*
X75885Y-11467D01*
X75765Y-11467D01*
X75765Y-11460D01*
X75765Y-11340D01*
X75765Y-10945D01*
X75705Y-10885D01*
X75602Y-10885D01*
X75514Y-10921D01*
X75446Y-10989D01*
X75410Y-11077D01*
X75410Y-11172D01*
X75410Y-11280D01*
X75470Y-11340D01*
X75765Y-11340D01*
X75765Y-11460D01*
X75470Y-11460D01*
X75410Y-11520D01*
X75410Y-11627D01*
X75410Y-11722D01*
X75446Y-11810D01*
X75420Y-11810D01*
X75090Y-11479D01*
X75090Y-11112D01*
X75061Y-11042D01*
X75007Y-10988D01*
X74937Y-10960D01*
X74862Y-10960D01*
X74500Y-10960D01*
X74062Y-10960D01*
X73750Y-10960D01*
X73562Y-10997D01*
X73403Y-11103D01*
X72953Y-11553D01*
X72847Y-11712D01*
X72810Y-11900D01*
X72810Y-18797D01*
X72721Y-18885D01*
X72721Y-11063D01*
X72705Y-10859D01*
X72657Y-10741D01*
X72568Y-10716D01*
X72483Y-10801D01*
X72483Y-10631D01*
X72458Y-10542D01*
X72263Y-10478D01*
X72059Y-10494D01*
X71941Y-10542D01*
X71916Y-10631D01*
X72200Y-10915D01*
X72483Y-10631D01*
X72483Y-10801D01*
X72284Y-11000D01*
X72568Y-11283D01*
X72657Y-11258D01*
X72721Y-11063D01*
X72721Y-18885D01*
X72665Y-18941D01*
X72665Y-17907D01*
X72665Y-16907D01*
X72665Y-15907D01*
X72665Y-14907D01*
X72665Y-13907D01*
X72594Y-13736D01*
X72463Y-13606D01*
X72292Y-13535D01*
X72107Y-13534D01*
X71936Y-13605D01*
X71806Y-13736D01*
X71735Y-13907D01*
X71734Y-14092D01*
X71805Y-14263D01*
X71936Y-14393D01*
X72107Y-14464D01*
X72292Y-14465D01*
X72463Y-14394D01*
X72593Y-14263D01*
X72664Y-14092D01*
X72665Y-13907D01*
X72665Y-14907D01*
X72594Y-14736D01*
X72463Y-14606D01*
X72292Y-14535D01*
X72107Y-14534D01*
X71936Y-14605D01*
X71806Y-14736D01*
X71735Y-14907D01*
X71734Y-15092D01*
X71805Y-15263D01*
X71936Y-15393D01*
X72107Y-15464D01*
X72292Y-15465D01*
X72463Y-15394D01*
X72593Y-15263D01*
X72664Y-15092D01*
X72665Y-14907D01*
X72665Y-15907D01*
X72594Y-15736D01*
X72463Y-15606D01*
X72292Y-15535D01*
X72107Y-15534D01*
X71936Y-15605D01*
X71806Y-15736D01*
X71735Y-15907D01*
X71734Y-16092D01*
X71805Y-16263D01*
X71936Y-16393D01*
X72107Y-16464D01*
X72292Y-16465D01*
X72463Y-16394D01*
X72593Y-16263D01*
X72664Y-16092D01*
X72665Y-15907D01*
X72665Y-16907D01*
X72594Y-16736D01*
X72463Y-16606D01*
X72292Y-16535D01*
X72107Y-16534D01*
X71936Y-16605D01*
X71806Y-16736D01*
X71735Y-16907D01*
X71734Y-17092D01*
X71805Y-17263D01*
X71936Y-17393D01*
X72107Y-17464D01*
X72292Y-17465D01*
X72463Y-17394D01*
X72593Y-17263D01*
X72664Y-17092D01*
X72665Y-16907D01*
X72665Y-17907D01*
X72594Y-17736D01*
X72463Y-17606D01*
X72292Y-17535D01*
X72107Y-17534D01*
X71936Y-17605D01*
X71806Y-17736D01*
X71735Y-17907D01*
X71734Y-18092D01*
X71805Y-18263D01*
X71936Y-18393D01*
X72107Y-18464D01*
X72292Y-18465D01*
X72463Y-18394D01*
X72593Y-18263D01*
X72664Y-18092D01*
X72665Y-17907D01*
X72665Y-18941D01*
X70653Y-20953D01*
X70547Y-21112D01*
X70510Y-21300D01*
X70510Y-25750D01*
X70510Y-26210D01*
X69521Y-26210D01*
X69521Y-25813D01*
X69505Y-25609D01*
X69457Y-25491D01*
X69368Y-25466D01*
X69283Y-25551D01*
X69283Y-25381D01*
X69258Y-25292D01*
X69063Y-25228D01*
X68859Y-25244D01*
X68741Y-25292D01*
X68716Y-25381D01*
X69000Y-25665D01*
X69283Y-25381D01*
X69283Y-25551D01*
X69084Y-25750D01*
X69368Y-26033D01*
X69457Y-26008D01*
X69521Y-25813D01*
X69521Y-26210D01*
X69251Y-26210D01*
X69258Y-26207D01*
X69283Y-26118D01*
X69000Y-25834D01*
X68915Y-25919D01*
X68915Y-25750D01*
X68631Y-25466D01*
X68542Y-25491D01*
X68478Y-25686D01*
X68494Y-25890D01*
X68542Y-26008D01*
X68631Y-26033D01*
X68915Y-25750D01*
X68915Y-25919D01*
X68716Y-26118D01*
X68741Y-26207D01*
X68750Y-26210D01*
X64710Y-26210D01*
X64710Y-48040D01*
X69184Y-48040D01*
X69184Y-48161D01*
X69308Y-48461D01*
X69537Y-48690D01*
X69837Y-48814D01*
X70161Y-48815D01*
X70461Y-48691D01*
X70690Y-48462D01*
X70814Y-48162D01*
X70814Y-48040D01*
X75290Y-48040D01*
X75290Y-26210D01*
X71490Y-26210D01*
X71490Y-25750D01*
X71490Y-23205D01*
X71490Y-23206D01*
X71592Y-23309D01*
X71727Y-23364D01*
X71872Y-23365D01*
X72006Y-23309D01*
X72109Y-23207D01*
X72164Y-23072D01*
X72165Y-22927D01*
X72130Y-22842D01*
X72130Y-21995D01*
X72161Y-21964D01*
X72135Y-22027D01*
X72134Y-22172D01*
X72190Y-22306D01*
X72292Y-22409D01*
X72427Y-22464D01*
X72572Y-22465D01*
X72706Y-22409D01*
X72786Y-22330D01*
X73950Y-22330D01*
X73969Y-22326D01*
X74002Y-22339D01*
X74147Y-22340D01*
X74281Y-22284D01*
X74384Y-22182D01*
X74439Y-22047D01*
X74440Y-21902D01*
X74384Y-21768D01*
X74282Y-21665D01*
X74147Y-21610D01*
X74002Y-21609D01*
X73868Y-21665D01*
X73765Y-21767D01*
X73723Y-21870D01*
X72786Y-21870D01*
X72707Y-21790D01*
X72572Y-21735D01*
X72427Y-21734D01*
X72364Y-21761D01*
X72845Y-21280D01*
X73588Y-21280D01*
X73667Y-21359D01*
X73802Y-21414D01*
X73947Y-21415D01*
X74081Y-21359D01*
X74184Y-21257D01*
X74239Y-21122D01*
X74240Y-20977D01*
X74184Y-20843D01*
X74082Y-20740D01*
X73947Y-20685D01*
X73802Y-20684D01*
X73668Y-20740D01*
X73588Y-20820D01*
X72750Y-20820D01*
X72661Y-20837D01*
X72587Y-20887D01*
X71737Y-21737D01*
X71687Y-21811D01*
X71670Y-21900D01*
X71670Y-22658D01*
X71593Y-22690D01*
X71490Y-22792D01*
X71490Y-22794D01*
X71490Y-21502D01*
X73646Y-19346D01*
X73752Y-19187D01*
X73752Y-19187D01*
X73790Y-19000D01*
X73790Y-12102D01*
X73952Y-11940D01*
X74062Y-11940D01*
X74137Y-11940D01*
X74500Y-11940D01*
X74729Y-11940D01*
X75094Y-12305D01*
X75189Y-12367D01*
X75189Y-12367D01*
X75300Y-12390D01*
X75516Y-12390D01*
X75488Y-12417D01*
X75460Y-12487D01*
X75460Y-12562D01*
X75460Y-13112D01*
X75488Y-13182D01*
X75542Y-13236D01*
X75575Y-13249D01*
X75575Y-13425D01*
X75594Y-13520D01*
X75648Y-13601D01*
X75750Y-13703D01*
X75750Y-14139D01*
X75733Y-14179D01*
X75715Y-14161D01*
X75715Y-13937D01*
X75686Y-13867D01*
X75632Y-13813D01*
X75562Y-13785D01*
X75487Y-13785D01*
X75140Y-13785D01*
X75140Y-13097D01*
X75140Y-12870D01*
X75140Y-12630D01*
X75140Y-12402D01*
X75103Y-12314D01*
X75035Y-12246D01*
X74947Y-12210D01*
X74852Y-12210D01*
X74620Y-12210D01*
X74560Y-12270D01*
X74560Y-12690D01*
X75080Y-12690D01*
X75140Y-12630D01*
X75140Y-12870D01*
X75080Y-12810D01*
X74560Y-12810D01*
X74560Y-13230D01*
X74620Y-13290D01*
X74852Y-13290D01*
X74947Y-13290D01*
X75035Y-13253D01*
X75103Y-13185D01*
X75140Y-13097D01*
X75140Y-13785D01*
X75037Y-13785D01*
X74967Y-13813D01*
X74913Y-13867D01*
X74885Y-13937D01*
X74885Y-14012D01*
X74885Y-14262D01*
X74913Y-14332D01*
X74967Y-14386D01*
X75000Y-14399D01*
X74976Y-14410D01*
X74679Y-14410D01*
X74728Y-14360D01*
X74765Y-14272D01*
X74765Y-14220D01*
X74765Y-13980D01*
X74765Y-13927D01*
X74728Y-13839D01*
X74660Y-13771D01*
X74572Y-13735D01*
X74477Y-13735D01*
X74440Y-13735D01*
X74440Y-13230D01*
X74440Y-12810D01*
X74440Y-12690D01*
X74440Y-12270D01*
X74380Y-12210D01*
X74147Y-12210D01*
X74052Y-12210D01*
X73964Y-12246D01*
X73896Y-12314D01*
X73860Y-12402D01*
X73860Y-12630D01*
X73920Y-12690D01*
X74440Y-12690D01*
X74440Y-12810D01*
X73920Y-12810D01*
X73860Y-12870D01*
X73860Y-13097D01*
X73896Y-13185D01*
X73964Y-13253D01*
X74052Y-13290D01*
X74147Y-13290D01*
X74380Y-13290D01*
X74440Y-13230D01*
X74440Y-13735D01*
X74420Y-13735D01*
X74360Y-13795D01*
X74360Y-14040D01*
X74705Y-14040D01*
X74765Y-13980D01*
X74765Y-14220D01*
X74705Y-14160D01*
X74360Y-14160D01*
X74360Y-14167D01*
X74240Y-14167D01*
X74240Y-14160D01*
X74240Y-14040D01*
X74240Y-13795D01*
X74180Y-13735D01*
X74122Y-13735D01*
X74027Y-13735D01*
X73939Y-13771D01*
X73871Y-13839D01*
X73835Y-13927D01*
X73835Y-13980D01*
X73895Y-14040D01*
X74240Y-14040D01*
X74240Y-14160D01*
X73895Y-14160D01*
X73835Y-14220D01*
X73835Y-14272D01*
X73871Y-14360D01*
X73939Y-14428D01*
X73948Y-14432D01*
X73913Y-14467D01*
X73885Y-14537D01*
X73885Y-14612D01*
X73885Y-14862D01*
X73913Y-14932D01*
X73967Y-14986D01*
X74010Y-15003D01*
X74010Y-15276D01*
X73985Y-15337D01*
X73985Y-15412D01*
X73985Y-15862D01*
X74013Y-15932D01*
X74067Y-15986D01*
X74137Y-16015D01*
X74212Y-16015D01*
X74462Y-16015D01*
X74532Y-15986D01*
X74586Y-15932D01*
X74599Y-15899D01*
X74613Y-15932D01*
X74667Y-15986D01*
X74737Y-16015D01*
X74812Y-16015D01*
X75062Y-16015D01*
X75132Y-15986D01*
X75186Y-15932D01*
X75203Y-15890D01*
X75383Y-15890D01*
X75390Y-15906D01*
X75492Y-16009D01*
X75627Y-16064D01*
X75772Y-16065D01*
X75906Y-16009D01*
X76009Y-15907D01*
X76064Y-15772D01*
X76065Y-15627D01*
X76009Y-15493D01*
X75926Y-15410D01*
X75976Y-15376D01*
X76382Y-14971D01*
X76439Y-15028D01*
X76527Y-15065D01*
X76622Y-15065D01*
X76680Y-15065D01*
X76740Y-15005D01*
X76740Y-14760D01*
X76732Y-14760D01*
X76732Y-14640D01*
X76740Y-14640D01*
X76740Y-14632D01*
X76860Y-14632D01*
X76860Y-14640D01*
X76867Y-14640D01*
X76867Y-14760D01*
X76860Y-14760D01*
X76860Y-15005D01*
X76920Y-15065D01*
X76977Y-15065D01*
X77072Y-15065D01*
X77160Y-15028D01*
X77228Y-14960D01*
X77265Y-14872D01*
X77265Y-14820D01*
X77205Y-14760D01*
X77265Y-14760D01*
X77265Y-14718D01*
X77481Y-14935D01*
X77460Y-14987D01*
X77460Y-15062D01*
X77460Y-15612D01*
X77488Y-15682D01*
X77542Y-15736D01*
X77612Y-15765D01*
X77687Y-15765D01*
X78037Y-15765D01*
X78107Y-15736D01*
X78161Y-15682D01*
X78172Y-15653D01*
X78196Y-15710D01*
X78264Y-15778D01*
X78352Y-15815D01*
X78455Y-15815D01*
X78515Y-15755D01*
X78515Y-15360D01*
X78507Y-15360D01*
X78507Y-15240D01*
X78515Y-15240D01*
X78515Y-14845D01*
X78455Y-14785D01*
X78352Y-14785D01*
X78264Y-14821D01*
X78196Y-14889D01*
X78172Y-14946D01*
X78161Y-14917D01*
X78107Y-14863D01*
X78058Y-14843D01*
X78055Y-14829D01*
X78001Y-14748D01*
X77616Y-14362D01*
X77678Y-14362D01*
X77738Y-14302D01*
X77738Y-14081D01*
X77730Y-14081D01*
X77730Y-14056D01*
X77865Y-14056D01*
X77865Y-14081D01*
X77858Y-14081D01*
X77858Y-14302D01*
X77918Y-14362D01*
X78039Y-14362D01*
X78135Y-14362D01*
X78223Y-14325D01*
X78290Y-14258D01*
X78319Y-14190D01*
X78386Y-14190D01*
X79488Y-14190D01*
X79528Y-14173D01*
X79551Y-14230D01*
X79604Y-14283D01*
X79674Y-14312D01*
X79750Y-14312D01*
X79827Y-14312D01*
X79827Y-14842D01*
X79822Y-14842D01*
X79762Y-14902D01*
X79762Y-15141D01*
X79790Y-15141D01*
X79790Y-15259D01*
X79762Y-15259D01*
X79762Y-15498D01*
X79822Y-15558D01*
X79849Y-15558D01*
X79937Y-15521D01*
X79953Y-15505D01*
X79960Y-15508D01*
X80036Y-15508D01*
X80138Y-15508D01*
X79683Y-15962D01*
X79683Y-15498D01*
X79683Y-15259D01*
X79683Y-15141D01*
X79683Y-14902D01*
X79623Y-14842D01*
X79596Y-14842D01*
X79508Y-14878D01*
X79441Y-14946D01*
X79404Y-15034D01*
X79404Y-15081D01*
X79464Y-15141D01*
X79683Y-15141D01*
X79683Y-15259D01*
X79464Y-15259D01*
X79404Y-15319D01*
X79404Y-15365D01*
X79441Y-15453D01*
X79508Y-15521D01*
X79596Y-15558D01*
X79623Y-15558D01*
X79683Y-15498D01*
X79683Y-15962D01*
X79136Y-16510D01*
X78990Y-16510D01*
X78990Y-15622D01*
X78990Y-15527D01*
X78990Y-15420D01*
X78990Y-15180D01*
X78990Y-15072D01*
X78990Y-14977D01*
X78953Y-14889D01*
X78885Y-14821D01*
X78797Y-14785D01*
X78695Y-14785D01*
X78635Y-14845D01*
X78635Y-15240D01*
X78930Y-15240D01*
X78990Y-15180D01*
X78990Y-15420D01*
X78930Y-15360D01*
X78635Y-15360D01*
X78635Y-15755D01*
X78695Y-15815D01*
X78797Y-15815D01*
X78885Y-15778D01*
X78953Y-15710D01*
X78990Y-15622D01*
X78990Y-16510D01*
X78072Y-16510D01*
X78067Y-16489D01*
X78005Y-16394D01*
X77665Y-16054D01*
X77665Y-16027D01*
X77609Y-15893D01*
X77507Y-15790D01*
X77372Y-15735D01*
X77265Y-15734D01*
X77227Y-15734D01*
X77093Y-15790D01*
X76990Y-15892D01*
X76935Y-16027D01*
X76934Y-16172D01*
X76990Y-16306D01*
X77092Y-16409D01*
X77227Y-16464D01*
X77254Y-16464D01*
X77299Y-16510D01*
X77252Y-16510D01*
X77208Y-16492D01*
X77133Y-16492D01*
X76739Y-16492D01*
X76669Y-16520D01*
X76663Y-16527D01*
X76663Y-16483D01*
X76604Y-16483D01*
X76663Y-16425D01*
X76663Y-16378D01*
X76626Y-16290D01*
X76558Y-16222D01*
X76470Y-16186D01*
X76375Y-16186D01*
X76346Y-16186D01*
X76286Y-16246D01*
X76286Y-16485D01*
X76293Y-16485D01*
X76293Y-16603D01*
X76286Y-16603D01*
X76286Y-16611D01*
X76166Y-16611D01*
X76166Y-16603D01*
X76166Y-16485D01*
X76166Y-16246D01*
X76106Y-16186D01*
X76076Y-16186D01*
X75981Y-16186D01*
X75893Y-16222D01*
X75825Y-16290D01*
X75789Y-16378D01*
X75789Y-16425D01*
X75849Y-16485D01*
X76166Y-16485D01*
X76166Y-16603D01*
X75849Y-16603D01*
X75789Y-16663D01*
X75789Y-16709D01*
X75825Y-16797D01*
X75833Y-16806D01*
X75737Y-16806D01*
X75710Y-16788D01*
X75600Y-16766D01*
X75489Y-16788D01*
X75462Y-16806D01*
X75183Y-16806D01*
X75228Y-16760D01*
X75265Y-16672D01*
X75265Y-16620D01*
X75265Y-16380D01*
X75265Y-16327D01*
X75228Y-16239D01*
X75160Y-16171D01*
X75072Y-16135D01*
X74977Y-16135D01*
X74920Y-16135D01*
X74860Y-16195D01*
X74860Y-16440D01*
X75205Y-16440D01*
X75265Y-16380D01*
X75265Y-16620D01*
X75205Y-16560D01*
X74860Y-16560D01*
X74860Y-16567D01*
X74740Y-16567D01*
X74740Y-16560D01*
X74740Y-16440D01*
X74740Y-16195D01*
X74680Y-16135D01*
X74622Y-16135D01*
X74527Y-16135D01*
X74439Y-16171D01*
X74371Y-16239D01*
X74335Y-16327D01*
X74335Y-16380D01*
X74395Y-16440D01*
X74740Y-16440D01*
X74740Y-16560D01*
X74395Y-16560D01*
X74335Y-16620D01*
X74335Y-16672D01*
X74371Y-16760D01*
X74439Y-16828D01*
X74448Y-16832D01*
X74413Y-16867D01*
X74385Y-16937D01*
X74385Y-17012D01*
X74385Y-17262D01*
X74413Y-17332D01*
X74467Y-17386D01*
X74537Y-17415D01*
X74612Y-17415D01*
X75062Y-17415D01*
X75132Y-17386D01*
X75186Y-17332D01*
X75197Y-17306D01*
X75243Y-17306D01*
X75235Y-17327D01*
X75234Y-17472D01*
X75290Y-17606D01*
X75310Y-17626D01*
X75310Y-17800D01*
X75310Y-17900D01*
X75310Y-18400D01*
X75332Y-18510D01*
X75394Y-18605D01*
X75489Y-18667D01*
X75600Y-18690D01*
X75710Y-18667D01*
X75805Y-18605D01*
X75867Y-18510D01*
X75890Y-18400D01*
X75890Y-17900D01*
X75890Y-17800D01*
X75890Y-17626D01*
X75909Y-17607D01*
X75964Y-17472D01*
X75965Y-17353D01*
X75991Y-17364D01*
X76066Y-17364D01*
X76460Y-17364D01*
X76530Y-17335D01*
X76584Y-17281D01*
X76613Y-17211D01*
X76613Y-17136D01*
X76613Y-17018D01*
X76615Y-17025D01*
X76669Y-17079D01*
X76739Y-17108D01*
X76814Y-17108D01*
X77208Y-17108D01*
X77252Y-17090D01*
X77800Y-17090D01*
X79079Y-17090D01*
X80594Y-18605D01*
X80689Y-18667D01*
X80800Y-18690D01*
X81176Y-18690D01*
X81176Y-18811D01*
X81204Y-18881D01*
X81258Y-18935D01*
X81328Y-18964D01*
X81403Y-18964D01*
X81867Y-18964D01*
X81867Y-19016D01*
X81848Y-19035D01*
X80400Y-19035D01*
X80400Y-19034D01*
X80260Y-19062D01*
X80141Y-19141D01*
X79913Y-19370D01*
X79913Y-18821D01*
X79913Y-18726D01*
X79913Y-18520D01*
X79913Y-18280D01*
X79913Y-18073D01*
X79913Y-17978D01*
X79876Y-17890D01*
X79808Y-17822D01*
X79720Y-17786D01*
X78927Y-17786D01*
X78867Y-17846D01*
X78867Y-18340D01*
X79853Y-18340D01*
X79913Y-18280D01*
X79913Y-18520D01*
X79853Y-18460D01*
X78867Y-18460D01*
X78867Y-18954D01*
X78927Y-19014D01*
X79720Y-19014D01*
X79808Y-18977D01*
X79876Y-18909D01*
X79913Y-18821D01*
X79913Y-19370D01*
X78747Y-20536D01*
X78747Y-18954D01*
X78747Y-18460D01*
X78747Y-18340D01*
X78747Y-17846D01*
X78687Y-17786D01*
X77893Y-17786D01*
X77805Y-17822D01*
X77737Y-17890D01*
X77701Y-17978D01*
X77701Y-18073D01*
X77701Y-18280D01*
X77761Y-18340D01*
X78747Y-18340D01*
X78747Y-18460D01*
X77761Y-18460D01*
X77701Y-18520D01*
X77701Y-18726D01*
X77701Y-18821D01*
X77737Y-18909D01*
X77805Y-18977D01*
X77893Y-19014D01*
X78687Y-19014D01*
X78747Y-18954D01*
X78747Y-20536D01*
X75048Y-24235D01*
X74700Y-24235D01*
X74565Y-24235D01*
X74565Y-22827D01*
X74509Y-22693D01*
X74407Y-22590D01*
X74272Y-22535D01*
X74127Y-22534D01*
X73993Y-22590D01*
X73913Y-22670D01*
X73586Y-22670D01*
X73507Y-22590D01*
X73372Y-22535D01*
X73227Y-22534D01*
X73093Y-22590D01*
X72990Y-22692D01*
X72935Y-22827D01*
X72934Y-22972D01*
X72990Y-23106D01*
X73092Y-23209D01*
X73227Y-23264D01*
X73372Y-23265D01*
X73506Y-23209D01*
X73586Y-23130D01*
X73913Y-23130D01*
X73992Y-23209D01*
X74127Y-23264D01*
X74272Y-23265D01*
X74406Y-23209D01*
X74509Y-23107D01*
X74564Y-22972D01*
X74565Y-22827D01*
X74565Y-24235D01*
X74400Y-24235D01*
X74100Y-24235D01*
X73960Y-24262D01*
X73841Y-24341D01*
X73762Y-24460D01*
X73735Y-24600D01*
X73762Y-24739D01*
X73841Y-24858D01*
X73892Y-24891D01*
X73790Y-24992D01*
X73735Y-25127D01*
X73734Y-25272D01*
X73735Y-25272D01*
X73735Y-25800D01*
X73762Y-25939D01*
X73841Y-26058D01*
X73960Y-26137D01*
X74100Y-26165D01*
X74400Y-26165D01*
X74700Y-26165D01*
X74839Y-26137D01*
X74958Y-26058D01*
X75037Y-25939D01*
X75065Y-25800D01*
X75065Y-25200D01*
X75065Y-24981D01*
X75595Y-25511D01*
X75595Y-31670D01*
X75595Y-37730D01*
X75595Y-42940D01*
X75622Y-43079D01*
X75701Y-43198D01*
X76501Y-43998D01*
X76521Y-44018D01*
X76640Y-44097D01*
X76780Y-44125D01*
X76919Y-44097D01*
X77020Y-44030D01*
X82640Y-44030D01*
X82640Y-44441D01*
X82613Y-44467D01*
X82585Y-44537D01*
X82585Y-44612D01*
X82585Y-44862D01*
X82613Y-44932D01*
X82648Y-44967D01*
X82639Y-44971D01*
X82571Y-45039D01*
X82535Y-45127D01*
X82535Y-45180D01*
X82595Y-45240D01*
X82940Y-45240D01*
X82940Y-45232D01*
X83060Y-45232D01*
X83060Y-45240D01*
X83405Y-45240D01*
X83465Y-45180D01*
X83465Y-45127D01*
X83428Y-45039D01*
X83360Y-44971D01*
X83351Y-44967D01*
X83386Y-44932D01*
X83415Y-44862D01*
X83415Y-44787D01*
X83415Y-44537D01*
X83386Y-44467D01*
X83332Y-44413D01*
X83262Y-44385D01*
X83220Y-44385D01*
X83220Y-44030D01*
X84673Y-44030D01*
X84692Y-44049D01*
X84827Y-44104D01*
X84972Y-44105D01*
X85106Y-44049D01*
X85209Y-43947D01*
X85264Y-43812D01*
X85265Y-43667D01*
X85209Y-43533D01*
X85107Y-43430D01*
X84972Y-43375D01*
X84827Y-43374D01*
X84693Y-43430D01*
X84673Y-43450D01*
X82930Y-43450D01*
X80940Y-43450D01*
X80940Y-39813D01*
X80797Y-39468D01*
X80533Y-39203D01*
X80187Y-39060D01*
X79813Y-39059D01*
X79468Y-39202D01*
X79203Y-39466D01*
X79060Y-39812D01*
X79059Y-40186D01*
X79202Y-40531D01*
X79466Y-40796D01*
X79812Y-40939D01*
X80186Y-40940D01*
X80531Y-40797D01*
X80796Y-40533D01*
X80939Y-40187D01*
X80940Y-39813D01*
X80940Y-43450D01*
X78940Y-43450D01*
X78940Y-39813D01*
X78797Y-39468D01*
X78533Y-39203D01*
X78187Y-39060D01*
X77813Y-39059D01*
X77468Y-39202D01*
X77203Y-39466D01*
X77060Y-39812D01*
X77059Y-40186D01*
X77202Y-40531D01*
X77466Y-40796D01*
X77812Y-40939D01*
X78186Y-40940D01*
X78531Y-40797D01*
X78796Y-40533D01*
X78939Y-40187D01*
X78940Y-39813D01*
X78940Y-43450D01*
X76986Y-43450D01*
X76325Y-42788D01*
X76325Y-37960D01*
X82690Y-37960D01*
X82690Y-38404D01*
X82667Y-38413D01*
X82613Y-38467D01*
X82585Y-38537D01*
X82585Y-38612D01*
X82585Y-38862D01*
X82613Y-38932D01*
X82648Y-38967D01*
X82639Y-38971D01*
X82571Y-39039D01*
X82535Y-39127D01*
X82535Y-39180D01*
X82595Y-39240D01*
X82940Y-39240D01*
X82940Y-39232D01*
X83060Y-39232D01*
X83060Y-39240D01*
X83405Y-39240D01*
X83465Y-39180D01*
X83465Y-39127D01*
X83428Y-39039D01*
X83360Y-38971D01*
X83351Y-38967D01*
X83386Y-38932D01*
X83415Y-38862D01*
X83415Y-38787D01*
X83415Y-38537D01*
X83386Y-38467D01*
X83332Y-38413D01*
X83270Y-38387D01*
X83270Y-37960D01*
X84633Y-37960D01*
X84652Y-37979D01*
X84787Y-38034D01*
X84932Y-38035D01*
X85066Y-37979D01*
X85169Y-37877D01*
X85224Y-37742D01*
X85225Y-37597D01*
X85169Y-37463D01*
X85067Y-37360D01*
X84932Y-37305D01*
X84787Y-37304D01*
X84653Y-37360D01*
X84633Y-37380D01*
X82980Y-37380D01*
X80940Y-37380D01*
X80940Y-33813D01*
X80797Y-33468D01*
X80533Y-33203D01*
X80187Y-33060D01*
X79813Y-33059D01*
X79468Y-33202D01*
X79203Y-33466D01*
X79060Y-33812D01*
X79059Y-34186D01*
X79202Y-34531D01*
X79466Y-34796D01*
X79812Y-34939D01*
X80186Y-34940D01*
X80531Y-34797D01*
X80796Y-34533D01*
X80939Y-34187D01*
X80940Y-33813D01*
X80940Y-37380D01*
X78940Y-37380D01*
X78940Y-33813D01*
X78797Y-33468D01*
X78533Y-33203D01*
X78187Y-33060D01*
X77813Y-33059D01*
X77468Y-33202D01*
X77203Y-33466D01*
X77060Y-33812D01*
X77059Y-34186D01*
X77202Y-34531D01*
X77466Y-34796D01*
X77812Y-34939D01*
X78186Y-34940D01*
X78531Y-34797D01*
X78796Y-34533D01*
X78939Y-34187D01*
X78940Y-33813D01*
X78940Y-37380D01*
X76325Y-37380D01*
X76325Y-31940D01*
X82690Y-31940D01*
X82690Y-32404D01*
X82667Y-32413D01*
X82613Y-32467D01*
X82585Y-32537D01*
X82585Y-32612D01*
X82585Y-32862D01*
X82613Y-32932D01*
X82648Y-32967D01*
X82639Y-32971D01*
X82571Y-33039D01*
X82535Y-33127D01*
X82535Y-33180D01*
X82595Y-33240D01*
X82940Y-33240D01*
X82940Y-33232D01*
X83060Y-33232D01*
X83060Y-33240D01*
X83405Y-33240D01*
X83465Y-33180D01*
X83465Y-33127D01*
X83428Y-33039D01*
X83360Y-32971D01*
X83351Y-32967D01*
X83386Y-32932D01*
X83415Y-32862D01*
X83415Y-32787D01*
X83415Y-32537D01*
X83386Y-32467D01*
X83332Y-32413D01*
X83270Y-32387D01*
X83270Y-31940D01*
X84493Y-31940D01*
X84512Y-31959D01*
X84647Y-32014D01*
X84792Y-32015D01*
X84926Y-31959D01*
X85029Y-31857D01*
X85084Y-31722D01*
X85085Y-31577D01*
X85029Y-31443D01*
X84927Y-31340D01*
X84792Y-31285D01*
X84647Y-31284D01*
X84513Y-31340D01*
X84493Y-31360D01*
X82980Y-31360D01*
X80940Y-31360D01*
X80940Y-27813D01*
X80797Y-27468D01*
X80533Y-27203D01*
X80415Y-27154D01*
X80415Y-23238D01*
X80291Y-22938D01*
X80062Y-22709D01*
X79762Y-22585D01*
X79438Y-22584D01*
X79138Y-22708D01*
X78909Y-22937D01*
X78785Y-23237D01*
X78784Y-23561D01*
X78908Y-23861D01*
X79137Y-24090D01*
X79437Y-24214D01*
X79761Y-24215D01*
X80061Y-24091D01*
X80290Y-23862D01*
X80414Y-23562D01*
X80415Y-23238D01*
X80415Y-27154D01*
X80187Y-27060D01*
X79813Y-27059D01*
X79468Y-27202D01*
X79203Y-27466D01*
X79060Y-27812D01*
X79059Y-28186D01*
X79202Y-28531D01*
X79466Y-28796D01*
X79812Y-28939D01*
X80186Y-28940D01*
X80531Y-28797D01*
X80796Y-28533D01*
X80939Y-28187D01*
X80940Y-27813D01*
X80940Y-31360D01*
X78940Y-31360D01*
X78940Y-27813D01*
X78797Y-27468D01*
X78533Y-27203D01*
X78187Y-27060D01*
X77813Y-27059D01*
X77468Y-27202D01*
X77203Y-27466D01*
X77060Y-27812D01*
X77059Y-28186D01*
X77202Y-28531D01*
X77466Y-28796D01*
X77812Y-28939D01*
X78186Y-28940D01*
X78531Y-28797D01*
X78796Y-28533D01*
X78939Y-28187D01*
X78940Y-27813D01*
X78940Y-31360D01*
X76325Y-31360D01*
X76325Y-25360D01*
X76325Y-25360D01*
X76325Y-25360D01*
X76325Y-25359D01*
X76325Y-25300D01*
X76297Y-25160D01*
X76218Y-25041D01*
X76099Y-24962D01*
X76073Y-24957D01*
X75716Y-24600D01*
X80551Y-19765D01*
X82000Y-19765D01*
X82139Y-19737D01*
X82258Y-19658D01*
X82490Y-19426D01*
X82569Y-19307D01*
X82597Y-19168D01*
X82597Y-19168D01*
X82597Y-19167D01*
X82597Y-18964D01*
X83135Y-18964D01*
X83205Y-18935D01*
X83250Y-18890D01*
X83600Y-18890D01*
X83787Y-18852D01*
X83787Y-18852D01*
X83946Y-18746D01*
X84202Y-18490D01*
X86310Y-18490D01*
X86310Y-18537D01*
X86338Y-18607D01*
X86392Y-18661D01*
X86462Y-18690D01*
X86537Y-18690D01*
X87537Y-18690D01*
X87607Y-18661D01*
X87661Y-18607D01*
X87690Y-18537D01*
X87690Y-18490D01*
X88300Y-18490D01*
X88487Y-18452D01*
X88487Y-18452D01*
X88646Y-18346D01*
X89216Y-17776D01*
X89322Y-17617D01*
X89322Y-17617D01*
X89360Y-17429D01*
X89360Y-13772D01*
X89498Y-13772D01*
X89568Y-13743D01*
X89621Y-13690D01*
X89650Y-13620D01*
X89650Y-49735D01*
X89187Y-49735D01*
X89187Y-28223D01*
X89182Y-27751D01*
X89011Y-27339D01*
X88853Y-27231D01*
X88768Y-27316D01*
X88768Y-27146D01*
X88660Y-26988D01*
X88223Y-26812D01*
X87889Y-26816D01*
X88061Y-26643D01*
X88234Y-26226D01*
X88235Y-25775D01*
X88062Y-25357D01*
X87745Y-25039D01*
X87745Y-21117D01*
X87733Y-20823D01*
X87643Y-20606D01*
X87531Y-20553D01*
X87446Y-20638D01*
X87446Y-20468D01*
X87393Y-20356D01*
X87117Y-20254D01*
X86823Y-20266D01*
X86606Y-20356D01*
X86553Y-20468D01*
X87000Y-20915D01*
X87446Y-20468D01*
X87446Y-20638D01*
X87084Y-21000D01*
X87531Y-21446D01*
X87643Y-21393D01*
X87745Y-21117D01*
X87745Y-25039D01*
X87743Y-25038D01*
X87690Y-25016D01*
X87690Y-23537D01*
X87690Y-23462D01*
X87690Y-22462D01*
X87661Y-22392D01*
X87607Y-22338D01*
X87537Y-22310D01*
X87462Y-22310D01*
X87446Y-22310D01*
X87446Y-21531D01*
X87000Y-21084D01*
X86915Y-21169D01*
X86915Y-21000D01*
X86468Y-20553D01*
X86356Y-20606D01*
X86254Y-20882D01*
X86266Y-21176D01*
X86356Y-21393D01*
X86468Y-21446D01*
X86915Y-21000D01*
X86915Y-21169D01*
X86553Y-21531D01*
X86606Y-21643D01*
X86882Y-21745D01*
X87176Y-21733D01*
X87393Y-21643D01*
X87446Y-21531D01*
X87446Y-22310D01*
X86462Y-22310D01*
X86392Y-22338D01*
X86338Y-22392D01*
X86310Y-22462D01*
X86310Y-22537D01*
X86310Y-23537D01*
X86338Y-23607D01*
X86392Y-23661D01*
X86462Y-23690D01*
X86537Y-23690D01*
X87537Y-23690D01*
X87607Y-23661D01*
X87661Y-23607D01*
X87690Y-23537D01*
X87690Y-25016D01*
X87326Y-24865D01*
X86875Y-24864D01*
X86457Y-25037D01*
X86138Y-25356D01*
X85965Y-25773D01*
X85964Y-26224D01*
X86137Y-26642D01*
X86359Y-26865D01*
X84617Y-26865D01*
X84547Y-26893D01*
X84493Y-26947D01*
X84465Y-27017D01*
X84465Y-27092D01*
X84465Y-28982D01*
X84493Y-29052D01*
X84547Y-29106D01*
X84617Y-29135D01*
X84692Y-29135D01*
X86582Y-29135D01*
X86652Y-29106D01*
X86706Y-29052D01*
X86735Y-28982D01*
X86735Y-28907D01*
X86735Y-27077D01*
X86873Y-27134D01*
X87239Y-27135D01*
X87231Y-27146D01*
X88000Y-27915D01*
X88768Y-27146D01*
X88768Y-27316D01*
X88084Y-28000D01*
X88853Y-28768D01*
X89011Y-28660D01*
X89187Y-28223D01*
X89187Y-49735D01*
X88820Y-49735D01*
X88820Y-47837D01*
X88820Y-43837D01*
X88820Y-41837D01*
X88820Y-37837D01*
X88820Y-35837D01*
X88820Y-31837D01*
X88768Y-31712D01*
X88768Y-28853D01*
X88000Y-28084D01*
X87915Y-28169D01*
X87915Y-28000D01*
X87146Y-27231D01*
X86988Y-27339D01*
X86812Y-27776D01*
X86817Y-28248D01*
X86988Y-28660D01*
X87146Y-28768D01*
X87915Y-28000D01*
X87915Y-28169D01*
X87231Y-28853D01*
X87339Y-29011D01*
X87776Y-29187D01*
X88248Y-29182D01*
X88660Y-29011D01*
X88768Y-28853D01*
X88768Y-31712D01*
X88695Y-31536D01*
X88465Y-31305D01*
X88163Y-31180D01*
X87837Y-31179D01*
X87536Y-31304D01*
X87305Y-31534D01*
X87180Y-31836D01*
X87179Y-32162D01*
X87304Y-32463D01*
X87534Y-32694D01*
X87836Y-32819D01*
X88162Y-32820D01*
X88463Y-32695D01*
X88694Y-32465D01*
X88819Y-32163D01*
X88820Y-31837D01*
X88820Y-35837D01*
X88695Y-35536D01*
X88465Y-35305D01*
X88163Y-35180D01*
X87837Y-35179D01*
X87536Y-35304D01*
X87305Y-35534D01*
X87180Y-35836D01*
X87179Y-36162D01*
X87304Y-36463D01*
X87534Y-36694D01*
X87836Y-36819D01*
X88162Y-36820D01*
X88463Y-36695D01*
X88694Y-36465D01*
X88819Y-36163D01*
X88820Y-35837D01*
X88820Y-37837D01*
X88695Y-37536D01*
X88465Y-37305D01*
X88163Y-37180D01*
X87837Y-37179D01*
X87536Y-37304D01*
X87305Y-37534D01*
X87180Y-37836D01*
X87179Y-38162D01*
X87304Y-38463D01*
X87534Y-38694D01*
X87836Y-38819D01*
X88162Y-38820D01*
X88463Y-38695D01*
X88694Y-38465D01*
X88819Y-38163D01*
X88820Y-37837D01*
X88820Y-41837D01*
X88695Y-41536D01*
X88465Y-41305D01*
X88163Y-41180D01*
X87837Y-41179D01*
X87536Y-41304D01*
X87305Y-41534D01*
X87180Y-41836D01*
X87179Y-42162D01*
X87304Y-42463D01*
X87534Y-42694D01*
X87836Y-42819D01*
X88162Y-42820D01*
X88463Y-42695D01*
X88694Y-42465D01*
X88819Y-42163D01*
X88820Y-41837D01*
X88820Y-43837D01*
X88695Y-43536D01*
X88465Y-43305D01*
X88163Y-43180D01*
X87837Y-43179D01*
X87536Y-43304D01*
X87305Y-43534D01*
X87180Y-43836D01*
X87179Y-44162D01*
X87304Y-44463D01*
X87534Y-44694D01*
X87836Y-44819D01*
X88162Y-44820D01*
X88463Y-44695D01*
X88694Y-44465D01*
X88819Y-44163D01*
X88820Y-43837D01*
X88820Y-47837D01*
X88695Y-47536D01*
X88465Y-47305D01*
X88163Y-47180D01*
X87837Y-47179D01*
X87536Y-47304D01*
X87305Y-47534D01*
X87180Y-47836D01*
X87179Y-48162D01*
X87304Y-48463D01*
X87534Y-48694D01*
X87836Y-48819D01*
X88162Y-48820D01*
X88463Y-48695D01*
X88694Y-48465D01*
X88819Y-48163D01*
X88820Y-47837D01*
X88820Y-49735D01*
X86100Y-49735D01*
X86100Y-46832D01*
X86100Y-40832D01*
X86100Y-34832D01*
X86086Y-34596D01*
X86044Y-34495D01*
X86044Y-33642D01*
X85961Y-33442D01*
X85808Y-33288D01*
X85608Y-33205D01*
X85392Y-33205D01*
X85192Y-33288D01*
X85038Y-33441D01*
X84955Y-33641D01*
X84955Y-33857D01*
X85038Y-34057D01*
X85077Y-34097D01*
X85040Y-34133D01*
X84961Y-33942D01*
X84808Y-33788D01*
X84715Y-33750D01*
X84807Y-33711D01*
X84961Y-33558D01*
X85044Y-33358D01*
X85044Y-33142D01*
X84961Y-32942D01*
X84808Y-32788D01*
X84608Y-32705D01*
X84392Y-32705D01*
X84192Y-32788D01*
X84038Y-32941D01*
X83955Y-33141D01*
X83955Y-33357D01*
X84038Y-33557D01*
X84191Y-33711D01*
X84284Y-33749D01*
X84192Y-33788D01*
X84038Y-33941D01*
X84006Y-34020D01*
X83465Y-34020D01*
X83465Y-33472D01*
X83465Y-33420D01*
X83405Y-33360D01*
X83060Y-33360D01*
X83060Y-33605D01*
X83120Y-33665D01*
X83177Y-33665D01*
X83272Y-33665D01*
X83360Y-33628D01*
X83428Y-33560D01*
X83465Y-33472D01*
X83465Y-34020D01*
X83407Y-34020D01*
X83386Y-33967D01*
X83332Y-33913D01*
X83262Y-33885D01*
X83187Y-33885D01*
X82940Y-33885D01*
X82940Y-33605D01*
X82940Y-33360D01*
X82595Y-33360D01*
X82535Y-33420D01*
X82535Y-33472D01*
X82571Y-33560D01*
X82639Y-33628D01*
X82727Y-33665D01*
X82822Y-33665D01*
X82880Y-33665D01*
X82940Y-33605D01*
X82940Y-33885D01*
X82737Y-33885D01*
X82667Y-33913D01*
X82613Y-33967D01*
X82585Y-34037D01*
X82585Y-34112D01*
X82585Y-34362D01*
X82613Y-34432D01*
X82667Y-34486D01*
X82700Y-34499D01*
X82667Y-34513D01*
X82613Y-34567D01*
X82585Y-34637D01*
X82585Y-34712D01*
X82585Y-34962D01*
X82613Y-35032D01*
X82667Y-35086D01*
X82737Y-35115D01*
X82812Y-35115D01*
X83262Y-35115D01*
X83332Y-35086D01*
X83386Y-35032D01*
X83387Y-35030D01*
X84700Y-35030D01*
X84788Y-35012D01*
X84788Y-35012D01*
X84862Y-34962D01*
X84916Y-34909D01*
X84976Y-35055D01*
X85073Y-35091D01*
X85415Y-34750D01*
X85409Y-34744D01*
X85494Y-34659D01*
X85500Y-34665D01*
X85841Y-34323D01*
X85805Y-34226D01*
X85787Y-34220D01*
X85807Y-34211D01*
X85961Y-34058D01*
X86044Y-33858D01*
X86044Y-33642D01*
X86044Y-34495D01*
X86023Y-34444D01*
X85926Y-34408D01*
X85584Y-34750D01*
X85926Y-35091D01*
X86023Y-35055D01*
X86100Y-34832D01*
X86100Y-40832D01*
X86086Y-40596D01*
X86044Y-40495D01*
X86044Y-39642D01*
X85961Y-39442D01*
X85841Y-39321D01*
X85841Y-35176D01*
X85500Y-34834D01*
X85158Y-35176D01*
X85194Y-35273D01*
X85417Y-35350D01*
X85653Y-35336D01*
X85805Y-35273D01*
X85841Y-35176D01*
X85841Y-39321D01*
X85808Y-39288D01*
X85608Y-39205D01*
X85392Y-39205D01*
X85192Y-39288D01*
X85038Y-39441D01*
X84955Y-39641D01*
X84955Y-39857D01*
X85038Y-40057D01*
X85077Y-40097D01*
X85040Y-40133D01*
X84961Y-39942D01*
X84808Y-39788D01*
X84715Y-39750D01*
X84807Y-39711D01*
X84961Y-39558D01*
X85044Y-39358D01*
X85044Y-39142D01*
X84961Y-38942D01*
X84808Y-38788D01*
X84608Y-38705D01*
X84392Y-38705D01*
X84192Y-38788D01*
X84038Y-38941D01*
X83955Y-39141D01*
X83955Y-39357D01*
X84038Y-39557D01*
X84191Y-39711D01*
X84284Y-39749D01*
X84192Y-39788D01*
X84038Y-39941D01*
X84006Y-40020D01*
X83465Y-40020D01*
X83465Y-39472D01*
X83465Y-39420D01*
X83405Y-39360D01*
X83060Y-39360D01*
X83060Y-39605D01*
X83120Y-39665D01*
X83177Y-39665D01*
X83272Y-39665D01*
X83360Y-39628D01*
X83428Y-39560D01*
X83465Y-39472D01*
X83465Y-40020D01*
X83407Y-40020D01*
X83386Y-39967D01*
X83332Y-39913D01*
X83262Y-39885D01*
X83187Y-39885D01*
X82940Y-39885D01*
X82940Y-39605D01*
X82940Y-39360D01*
X82595Y-39360D01*
X82535Y-39420D01*
X82535Y-39472D01*
X82571Y-39560D01*
X82639Y-39628D01*
X82727Y-39665D01*
X82822Y-39665D01*
X82880Y-39665D01*
X82940Y-39605D01*
X82940Y-39885D01*
X82737Y-39885D01*
X82667Y-39913D01*
X82613Y-39967D01*
X82585Y-40037D01*
X82585Y-40112D01*
X82585Y-40362D01*
X82613Y-40432D01*
X82667Y-40486D01*
X82700Y-40499D01*
X82667Y-40513D01*
X82613Y-40567D01*
X82585Y-40637D01*
X82585Y-40712D01*
X82585Y-40962D01*
X82613Y-41032D01*
X82667Y-41086D01*
X82737Y-41115D01*
X82812Y-41115D01*
X83262Y-41115D01*
X83332Y-41086D01*
X83386Y-41032D01*
X83387Y-41030D01*
X84700Y-41030D01*
X84788Y-41012D01*
X84788Y-41012D01*
X84862Y-40962D01*
X84916Y-40909D01*
X84976Y-41055D01*
X85073Y-41091D01*
X85415Y-40750D01*
X85409Y-40744D01*
X85494Y-40659D01*
X85500Y-40665D01*
X85841Y-40323D01*
X85805Y-40226D01*
X85787Y-40220D01*
X85807Y-40211D01*
X85961Y-40058D01*
X86044Y-39858D01*
X86044Y-39642D01*
X86044Y-40495D01*
X86023Y-40444D01*
X85926Y-40408D01*
X85584Y-40750D01*
X85926Y-41091D01*
X86023Y-41055D01*
X86100Y-40832D01*
X86100Y-46832D01*
X86086Y-46596D01*
X86044Y-46495D01*
X86044Y-45642D01*
X85961Y-45442D01*
X85841Y-45321D01*
X85841Y-41176D01*
X85500Y-40834D01*
X85158Y-41176D01*
X85194Y-41273D01*
X85417Y-41350D01*
X85653Y-41336D01*
X85805Y-41273D01*
X85841Y-41176D01*
X85841Y-45321D01*
X85808Y-45288D01*
X85608Y-45205D01*
X85392Y-45205D01*
X85192Y-45288D01*
X85038Y-45441D01*
X84955Y-45641D01*
X84955Y-45857D01*
X85038Y-46057D01*
X85077Y-46097D01*
X85040Y-46133D01*
X84961Y-45942D01*
X84808Y-45788D01*
X84715Y-45750D01*
X84807Y-45711D01*
X84961Y-45558D01*
X85044Y-45358D01*
X85044Y-45142D01*
X84961Y-44942D01*
X84808Y-44788D01*
X84608Y-44705D01*
X84392Y-44705D01*
X84192Y-44788D01*
X84038Y-44941D01*
X83955Y-45141D01*
X83955Y-45357D01*
X84038Y-45557D01*
X84191Y-45711D01*
X84284Y-45749D01*
X84192Y-45788D01*
X84038Y-45941D01*
X84026Y-45970D01*
X83465Y-45970D01*
X83465Y-45472D01*
X83465Y-45420D01*
X83405Y-45360D01*
X83060Y-45360D01*
X83060Y-45605D01*
X83120Y-45665D01*
X83177Y-45665D01*
X83272Y-45665D01*
X83360Y-45628D01*
X83428Y-45560D01*
X83465Y-45472D01*
X83465Y-45970D01*
X83387Y-45970D01*
X83386Y-45967D01*
X83332Y-45913D01*
X83262Y-45885D01*
X83187Y-45885D01*
X82940Y-45885D01*
X82940Y-45605D01*
X82940Y-45360D01*
X82595Y-45360D01*
X82535Y-45420D01*
X82535Y-45472D01*
X82571Y-45560D01*
X82639Y-45628D01*
X82727Y-45665D01*
X82822Y-45665D01*
X82880Y-45665D01*
X82940Y-45605D01*
X82940Y-45885D01*
X82737Y-45885D01*
X82667Y-45913D01*
X82613Y-45967D01*
X82585Y-46037D01*
X82585Y-46112D01*
X82585Y-46362D01*
X82613Y-46432D01*
X82667Y-46486D01*
X82700Y-46499D01*
X82667Y-46513D01*
X82613Y-46567D01*
X82585Y-46637D01*
X82585Y-46712D01*
X82585Y-46962D01*
X82613Y-47032D01*
X82667Y-47086D01*
X82737Y-47115D01*
X82812Y-47115D01*
X83262Y-47115D01*
X83332Y-47086D01*
X83386Y-47032D01*
X83387Y-47030D01*
X84700Y-47030D01*
X84788Y-47012D01*
X84788Y-47012D01*
X84862Y-46962D01*
X84916Y-46909D01*
X84976Y-47055D01*
X85073Y-47091D01*
X85415Y-46750D01*
X85409Y-46744D01*
X85494Y-46659D01*
X85500Y-46665D01*
X85841Y-46323D01*
X85805Y-46226D01*
X85787Y-46220D01*
X85807Y-46211D01*
X85961Y-46058D01*
X86044Y-45858D01*
X86044Y-45642D01*
X86044Y-46495D01*
X86023Y-46444D01*
X85926Y-46408D01*
X85584Y-46750D01*
X85926Y-47091D01*
X86023Y-47055D01*
X86100Y-46832D01*
X86100Y-49735D01*
X85841Y-49735D01*
X85841Y-47176D01*
X85500Y-46834D01*
X85158Y-47176D01*
X85194Y-47273D01*
X85417Y-47350D01*
X85653Y-47336D01*
X85805Y-47273D01*
X85841Y-47176D01*
X85841Y-49735D01*
X80940Y-49735D01*
X80940Y-45813D01*
X80797Y-45468D01*
X80533Y-45203D01*
X80187Y-45060D01*
X79813Y-45059D01*
X79468Y-45202D01*
X79203Y-45466D01*
X79060Y-45812D01*
X79059Y-46186D01*
X79202Y-46531D01*
X79466Y-46796D01*
X79812Y-46939D01*
X80186Y-46940D01*
X80531Y-46797D01*
X80796Y-46533D01*
X80939Y-46187D01*
X80940Y-45813D01*
X80940Y-49735D01*
X78940Y-49735D01*
X78940Y-45813D01*
X78797Y-45468D01*
X78533Y-45203D01*
X78187Y-45060D01*
X77813Y-45059D01*
X77468Y-45202D01*
X77203Y-45466D01*
X77060Y-45812D01*
X77059Y-46186D01*
X77202Y-46531D01*
X77466Y-46796D01*
X77812Y-46939D01*
X78186Y-46940D01*
X78531Y-46797D01*
X78796Y-46533D01*
X78939Y-46187D01*
X78940Y-45813D01*
X78940Y-49735D01*
X75290Y-49735D01*
X52820Y-49735D01*
X52820Y-47837D01*
X52820Y-43837D01*
X52820Y-41837D01*
X52820Y-37837D01*
X52820Y-35837D01*
X52820Y-31837D01*
X52820Y-29837D01*
X52820Y-25837D01*
X52695Y-25536D01*
X52465Y-25305D01*
X52163Y-25180D01*
X51837Y-25179D01*
X51536Y-25304D01*
X51305Y-25534D01*
X51180Y-25836D01*
X51179Y-26162D01*
X51304Y-26463D01*
X51534Y-26694D01*
X51836Y-26819D01*
X52162Y-26820D01*
X52463Y-26695D01*
X52694Y-26465D01*
X52819Y-26163D01*
X52820Y-25837D01*
X52820Y-29837D01*
X52695Y-29536D01*
X52465Y-29305D01*
X52163Y-29180D01*
X51837Y-29179D01*
X51536Y-29304D01*
X51305Y-29534D01*
X51180Y-29836D01*
X51179Y-30162D01*
X51304Y-30463D01*
X51534Y-30694D01*
X51836Y-30819D01*
X52162Y-30820D01*
X52463Y-30695D01*
X52694Y-30465D01*
X52819Y-30163D01*
X52820Y-29837D01*
X52820Y-31837D01*
X52695Y-31536D01*
X52465Y-31305D01*
X52163Y-31180D01*
X51837Y-31179D01*
X51536Y-31304D01*
X51305Y-31534D01*
X51180Y-31836D01*
X51179Y-32162D01*
X51304Y-32463D01*
X51534Y-32694D01*
X51836Y-32819D01*
X52162Y-32820D01*
X52463Y-32695D01*
X52694Y-32465D01*
X52819Y-32163D01*
X52820Y-31837D01*
X52820Y-35837D01*
X52695Y-35536D01*
X52465Y-35305D01*
X52163Y-35180D01*
X51837Y-35179D01*
X51536Y-35304D01*
X51305Y-35534D01*
X51180Y-35836D01*
X51179Y-36162D01*
X51304Y-36463D01*
X51534Y-36694D01*
X51836Y-36819D01*
X52162Y-36820D01*
X52463Y-36695D01*
X52694Y-36465D01*
X52819Y-36163D01*
X52820Y-35837D01*
X52820Y-37837D01*
X52695Y-37536D01*
X52465Y-37305D01*
X52163Y-37180D01*
X51837Y-37179D01*
X51536Y-37304D01*
X51305Y-37534D01*
X51180Y-37836D01*
X51179Y-38162D01*
X51304Y-38463D01*
X51534Y-38694D01*
X51836Y-38819D01*
X52162Y-38820D01*
X52463Y-38695D01*
X52694Y-38465D01*
X52819Y-38163D01*
X52820Y-37837D01*
X52820Y-41837D01*
X52695Y-41536D01*
X52465Y-41305D01*
X52163Y-41180D01*
X51837Y-41179D01*
X51536Y-41304D01*
X51305Y-41534D01*
X51180Y-41836D01*
X51179Y-42162D01*
X51304Y-42463D01*
X51534Y-42694D01*
X51836Y-42819D01*
X52162Y-42820D01*
X52463Y-42695D01*
X52694Y-42465D01*
X52819Y-42163D01*
X52820Y-41837D01*
X52820Y-43837D01*
X52695Y-43536D01*
X52465Y-43305D01*
X52163Y-43180D01*
X51837Y-43179D01*
X51536Y-43304D01*
X51305Y-43534D01*
X51180Y-43836D01*
X51179Y-44162D01*
X51304Y-44463D01*
X51534Y-44694D01*
X51836Y-44819D01*
X52162Y-44820D01*
X52463Y-44695D01*
X52694Y-44465D01*
X52819Y-44163D01*
X52820Y-43837D01*
X52820Y-47837D01*
X52695Y-47536D01*
X52465Y-47305D01*
X52163Y-47180D01*
X51837Y-47179D01*
X51536Y-47304D01*
X51305Y-47534D01*
X51180Y-47836D01*
X51179Y-48162D01*
X51304Y-48463D01*
X51534Y-48694D01*
X51836Y-48819D01*
X52162Y-48820D01*
X52463Y-48695D01*
X52694Y-48465D01*
X52819Y-48163D01*
X52820Y-47837D01*
X52820Y-49735D01*
X50265Y-49735D01*
X50265Y-23761D01*
X50286Y-23814D01*
X50340Y-23868D01*
X50410Y-23897D01*
X50485Y-23897D01*
X50799Y-23897D01*
X50862Y-23870D01*
X50902Y-23910D01*
X50990Y-23947D01*
X51075Y-23947D01*
X51135Y-23887D01*
X51135Y-23610D01*
X51127Y-23610D01*
X51127Y-23490D01*
X51135Y-23490D01*
X51135Y-23482D01*
X51255Y-23482D01*
X51255Y-23490D01*
X51532Y-23490D01*
X51592Y-23430D01*
X51592Y-23345D01*
X51555Y-23257D01*
X51487Y-23189D01*
X51446Y-23172D01*
X51486Y-23132D01*
X51515Y-23062D01*
X51515Y-23030D01*
X54800Y-23030D01*
X54888Y-23012D01*
X54888Y-23012D01*
X54962Y-22962D01*
X55295Y-22630D01*
X55313Y-22630D01*
X55392Y-22709D01*
X55527Y-22764D01*
X55672Y-22765D01*
X55806Y-22709D01*
X55909Y-22607D01*
X55964Y-22472D01*
X55965Y-22327D01*
X55909Y-22193D01*
X55807Y-22090D01*
X55672Y-22035D01*
X55527Y-22034D01*
X55393Y-22090D01*
X55313Y-22170D01*
X55200Y-22170D01*
X55111Y-22187D01*
X55037Y-22237D01*
X54704Y-22570D01*
X51515Y-22570D01*
X51515Y-22537D01*
X51486Y-22467D01*
X51446Y-22427D01*
X51487Y-22410D01*
X51555Y-22342D01*
X51592Y-22254D01*
X51592Y-22170D01*
X51532Y-22110D01*
X51255Y-22110D01*
X51255Y-22117D01*
X51135Y-22117D01*
X51135Y-22110D01*
X51127Y-22110D01*
X51127Y-21990D01*
X51135Y-21990D01*
X51135Y-21982D01*
X51255Y-21982D01*
X51255Y-21990D01*
X51532Y-21990D01*
X51592Y-21930D01*
X51592Y-21845D01*
X51555Y-21757D01*
X51487Y-21689D01*
X51446Y-21672D01*
X51486Y-21632D01*
X51515Y-21562D01*
X51515Y-21530D01*
X54400Y-21530D01*
X54488Y-21512D01*
X54488Y-21512D01*
X54562Y-21462D01*
X56162Y-19862D01*
X56212Y-19788D01*
X56212Y-19788D01*
X56230Y-19700D01*
X56230Y-19486D01*
X56289Y-19426D01*
X56289Y-22114D01*
X56307Y-22202D01*
X56357Y-22277D01*
X59942Y-25862D01*
X60017Y-25912D01*
X60017Y-25912D01*
X60105Y-25930D01*
X63673Y-25930D01*
X63521Y-26081D01*
X63442Y-26200D01*
X63415Y-26340D01*
X63415Y-30070D01*
X62940Y-30070D01*
X62940Y-27813D01*
X62797Y-27468D01*
X62533Y-27203D01*
X62187Y-27060D01*
X61813Y-27059D01*
X61468Y-27202D01*
X61203Y-27466D01*
X61060Y-27812D01*
X61059Y-28186D01*
X61202Y-28531D01*
X61466Y-28796D01*
X61812Y-28939D01*
X62186Y-28940D01*
X62531Y-28797D01*
X62796Y-28533D01*
X62939Y-28187D01*
X62940Y-27813D01*
X62940Y-30070D01*
X60940Y-30070D01*
X60940Y-27813D01*
X60797Y-27468D01*
X60533Y-27203D01*
X60187Y-27060D01*
X59813Y-27059D01*
X59468Y-27202D01*
X59203Y-27466D01*
X59060Y-27812D01*
X59059Y-28186D01*
X59202Y-28531D01*
X59466Y-28796D01*
X59812Y-28939D01*
X60186Y-28940D01*
X60531Y-28797D01*
X60796Y-28533D01*
X60939Y-28187D01*
X60940Y-27813D01*
X60940Y-30070D01*
X58330Y-30070D01*
X58330Y-27100D01*
X58312Y-27011D01*
X58312Y-27011D01*
X58262Y-26937D01*
X55662Y-24337D01*
X55588Y-24287D01*
X55500Y-24270D01*
X51886Y-24270D01*
X51807Y-24190D01*
X51672Y-24135D01*
X51592Y-24134D01*
X51592Y-23754D01*
X51592Y-23670D01*
X51532Y-23610D01*
X51255Y-23610D01*
X51255Y-23887D01*
X51315Y-23947D01*
X51399Y-23947D01*
X51487Y-23910D01*
X51555Y-23842D01*
X51592Y-23754D01*
X51592Y-24134D01*
X51527Y-24134D01*
X51393Y-24190D01*
X51290Y-24292D01*
X51235Y-24427D01*
X51234Y-24572D01*
X51290Y-24706D01*
X51392Y-24809D01*
X51527Y-24864D01*
X51672Y-24865D01*
X51806Y-24809D01*
X51886Y-24730D01*
X55404Y-24730D01*
X57870Y-27195D01*
X57870Y-30070D01*
X57300Y-30070D01*
X57290Y-30059D01*
X57290Y-29603D01*
X57332Y-29586D01*
X57386Y-29532D01*
X57415Y-29462D01*
X57415Y-29387D01*
X57415Y-29137D01*
X57386Y-29067D01*
X57351Y-29032D01*
X57360Y-29028D01*
X57428Y-28960D01*
X57465Y-28872D01*
X57465Y-28820D01*
X57465Y-28580D01*
X57465Y-28527D01*
X57428Y-28439D01*
X57415Y-28425D01*
X57415Y-27962D01*
X57415Y-27887D01*
X57415Y-27637D01*
X57386Y-27567D01*
X57332Y-27513D01*
X57299Y-27500D01*
X57332Y-27486D01*
X57386Y-27432D01*
X57415Y-27362D01*
X57415Y-27287D01*
X57415Y-27037D01*
X57386Y-26967D01*
X57332Y-26913D01*
X57262Y-26885D01*
X57187Y-26885D01*
X56737Y-26885D01*
X56667Y-26913D01*
X56613Y-26967D01*
X56612Y-26970D01*
X55300Y-26970D01*
X55211Y-26987D01*
X55137Y-27037D01*
X55083Y-27090D01*
X55023Y-26944D01*
X54926Y-26908D01*
X54841Y-26993D01*
X54841Y-26823D01*
X54805Y-26726D01*
X54582Y-26649D01*
X54346Y-26663D01*
X54194Y-26726D01*
X54158Y-26823D01*
X54500Y-27165D01*
X54841Y-26823D01*
X54841Y-26993D01*
X54584Y-27250D01*
X54590Y-27255D01*
X54505Y-27340D01*
X54500Y-27334D01*
X54415Y-27419D01*
X54415Y-27250D01*
X54073Y-26908D01*
X53976Y-26944D01*
X53899Y-27167D01*
X53913Y-27403D01*
X53976Y-27555D01*
X54073Y-27591D01*
X54415Y-27250D01*
X54415Y-27419D01*
X54158Y-27676D01*
X54194Y-27773D01*
X54212Y-27779D01*
X54192Y-27788D01*
X54038Y-27941D01*
X53955Y-28141D01*
X53955Y-28357D01*
X54038Y-28557D01*
X54191Y-28711D01*
X54391Y-28794D01*
X54607Y-28794D01*
X54807Y-28711D01*
X54961Y-28558D01*
X55044Y-28358D01*
X55044Y-28142D01*
X54961Y-27942D01*
X54922Y-27902D01*
X54959Y-27866D01*
X55038Y-28057D01*
X55191Y-28211D01*
X55284Y-28249D01*
X55192Y-28288D01*
X55038Y-28441D01*
X54955Y-28641D01*
X54955Y-28857D01*
X55038Y-29057D01*
X55191Y-29211D01*
X55391Y-29294D01*
X55607Y-29294D01*
X55807Y-29211D01*
X55961Y-29058D01*
X56044Y-28858D01*
X56044Y-28642D01*
X55961Y-28442D01*
X55808Y-28288D01*
X55715Y-28250D01*
X55807Y-28211D01*
X55961Y-28058D01*
X55993Y-27980D01*
X56592Y-27980D01*
X56613Y-28032D01*
X56667Y-28086D01*
X56737Y-28115D01*
X56812Y-28115D01*
X57262Y-28115D01*
X57332Y-28086D01*
X57386Y-28032D01*
X57415Y-27962D01*
X57415Y-28425D01*
X57360Y-28371D01*
X57272Y-28335D01*
X57177Y-28335D01*
X57120Y-28335D01*
X57060Y-28395D01*
X57060Y-28640D01*
X57405Y-28640D01*
X57465Y-28580D01*
X57465Y-28820D01*
X57405Y-28760D01*
X57060Y-28760D01*
X57060Y-28767D01*
X56940Y-28767D01*
X56940Y-28760D01*
X56940Y-28640D01*
X56940Y-28395D01*
X56880Y-28335D01*
X56822Y-28335D01*
X56727Y-28335D01*
X56639Y-28371D01*
X56571Y-28439D01*
X56535Y-28527D01*
X56535Y-28580D01*
X56595Y-28640D01*
X56940Y-28640D01*
X56940Y-28760D01*
X56595Y-28760D01*
X56535Y-28820D01*
X56535Y-28872D01*
X56571Y-28960D01*
X56639Y-29028D01*
X56648Y-29032D01*
X56613Y-29067D01*
X56585Y-29137D01*
X56585Y-29212D01*
X56585Y-29462D01*
X56613Y-29532D01*
X56667Y-29586D01*
X56710Y-29603D01*
X56710Y-30070D01*
X55341Y-30070D01*
X55309Y-29993D01*
X55207Y-29890D01*
X55072Y-29835D01*
X54927Y-29834D01*
X54793Y-29890D01*
X54690Y-29992D01*
X54635Y-30127D01*
X54634Y-30272D01*
X54690Y-30406D01*
X54792Y-30509D01*
X54927Y-30564D01*
X54954Y-30564D01*
X54954Y-30565D01*
X55049Y-30627D01*
X55160Y-30650D01*
X57180Y-30650D01*
X58100Y-30650D01*
X63415Y-30650D01*
X63415Y-35910D01*
X62940Y-35910D01*
X62940Y-33813D01*
X62797Y-33468D01*
X62533Y-33203D01*
X62187Y-33060D01*
X61813Y-33059D01*
X61468Y-33202D01*
X61203Y-33466D01*
X61060Y-33812D01*
X61059Y-34186D01*
X61202Y-34531D01*
X61466Y-34796D01*
X61812Y-34939D01*
X62186Y-34940D01*
X62531Y-34797D01*
X62796Y-34533D01*
X62939Y-34187D01*
X62940Y-33813D01*
X62940Y-35910D01*
X60940Y-35910D01*
X60940Y-33813D01*
X60797Y-33468D01*
X60533Y-33203D01*
X60187Y-33060D01*
X59813Y-33059D01*
X59468Y-33202D01*
X59203Y-33466D01*
X59060Y-33812D01*
X59059Y-34186D01*
X59202Y-34531D01*
X59466Y-34796D01*
X59812Y-34939D01*
X60186Y-34940D01*
X60531Y-34797D01*
X60796Y-34533D01*
X60939Y-34187D01*
X60940Y-33813D01*
X60940Y-35910D01*
X57290Y-35910D01*
X57290Y-35603D01*
X57332Y-35586D01*
X57386Y-35532D01*
X57415Y-35462D01*
X57415Y-35387D01*
X57415Y-35137D01*
X57386Y-35067D01*
X57351Y-35032D01*
X57360Y-35028D01*
X57428Y-34960D01*
X57465Y-34872D01*
X57465Y-34820D01*
X57465Y-34580D01*
X57465Y-34527D01*
X57428Y-34439D01*
X57415Y-34425D01*
X57415Y-33962D01*
X57415Y-33887D01*
X57415Y-33637D01*
X57386Y-33567D01*
X57332Y-33513D01*
X57299Y-33500D01*
X57332Y-33486D01*
X57386Y-33432D01*
X57415Y-33362D01*
X57415Y-33287D01*
X57415Y-33037D01*
X57386Y-32967D01*
X57332Y-32913D01*
X57262Y-32885D01*
X57187Y-32885D01*
X56737Y-32885D01*
X56667Y-32913D01*
X56613Y-32967D01*
X56612Y-32970D01*
X55300Y-32970D01*
X55211Y-32987D01*
X55137Y-33037D01*
X55083Y-33090D01*
X55023Y-32944D01*
X54926Y-32908D01*
X54841Y-32993D01*
X54841Y-32823D01*
X54805Y-32726D01*
X54582Y-32649D01*
X54346Y-32663D01*
X54194Y-32726D01*
X54158Y-32823D01*
X54500Y-33165D01*
X54841Y-32823D01*
X54841Y-32993D01*
X54584Y-33250D01*
X54590Y-33255D01*
X54505Y-33340D01*
X54500Y-33334D01*
X54415Y-33419D01*
X54415Y-33250D01*
X54073Y-32908D01*
X53976Y-32944D01*
X53899Y-33167D01*
X53913Y-33403D01*
X53976Y-33555D01*
X54073Y-33591D01*
X54415Y-33250D01*
X54415Y-33419D01*
X54158Y-33676D01*
X54194Y-33773D01*
X54212Y-33779D01*
X54192Y-33788D01*
X54038Y-33941D01*
X53955Y-34141D01*
X53955Y-34357D01*
X54038Y-34557D01*
X54191Y-34711D01*
X54391Y-34794D01*
X54607Y-34794D01*
X54807Y-34711D01*
X54961Y-34558D01*
X55044Y-34358D01*
X55044Y-34142D01*
X54961Y-33942D01*
X54922Y-33902D01*
X54959Y-33866D01*
X55038Y-34057D01*
X55191Y-34211D01*
X55284Y-34249D01*
X55192Y-34288D01*
X55038Y-34441D01*
X54955Y-34641D01*
X54955Y-34857D01*
X55038Y-35057D01*
X55191Y-35211D01*
X55391Y-35294D01*
X55607Y-35294D01*
X55807Y-35211D01*
X55961Y-35058D01*
X56044Y-34858D01*
X56044Y-34642D01*
X55961Y-34442D01*
X55808Y-34288D01*
X55715Y-34250D01*
X55807Y-34211D01*
X55961Y-34058D01*
X55993Y-33980D01*
X56592Y-33980D01*
X56613Y-34032D01*
X56667Y-34086D01*
X56737Y-34115D01*
X56812Y-34115D01*
X57262Y-34115D01*
X57332Y-34086D01*
X57386Y-34032D01*
X57415Y-33962D01*
X57415Y-34425D01*
X57360Y-34371D01*
X57272Y-34335D01*
X57177Y-34335D01*
X57120Y-34335D01*
X57060Y-34395D01*
X57060Y-34640D01*
X57405Y-34640D01*
X57465Y-34580D01*
X57465Y-34820D01*
X57405Y-34760D01*
X57060Y-34760D01*
X57060Y-34767D01*
X56940Y-34767D01*
X56940Y-34760D01*
X56940Y-34640D01*
X56940Y-34395D01*
X56880Y-34335D01*
X56822Y-34335D01*
X56727Y-34335D01*
X56639Y-34371D01*
X56571Y-34439D01*
X56535Y-34527D01*
X56535Y-34580D01*
X56595Y-34640D01*
X56940Y-34640D01*
X56940Y-34760D01*
X56595Y-34760D01*
X56535Y-34820D01*
X56535Y-34872D01*
X56571Y-34960D01*
X56639Y-35028D01*
X56648Y-35032D01*
X56613Y-35067D01*
X56585Y-35137D01*
X56585Y-35212D01*
X56585Y-35462D01*
X56613Y-35532D01*
X56667Y-35586D01*
X56710Y-35603D01*
X56710Y-35910D01*
X55226Y-35910D01*
X55177Y-35860D01*
X55042Y-35805D01*
X54897Y-35804D01*
X54763Y-35860D01*
X54660Y-35962D01*
X54605Y-36097D01*
X54604Y-36242D01*
X54660Y-36376D01*
X54762Y-36479D01*
X54897Y-36534D01*
X55042Y-36535D01*
X55151Y-36490D01*
X56860Y-36490D01*
X63415Y-36490D01*
X63415Y-41910D01*
X62940Y-41910D01*
X62940Y-39813D01*
X62797Y-39468D01*
X62533Y-39203D01*
X62187Y-39060D01*
X61813Y-39059D01*
X61468Y-39202D01*
X61203Y-39466D01*
X61060Y-39812D01*
X61059Y-40186D01*
X61202Y-40531D01*
X61466Y-40796D01*
X61812Y-40939D01*
X62186Y-40940D01*
X62531Y-40797D01*
X62796Y-40533D01*
X62939Y-40187D01*
X62940Y-39813D01*
X62940Y-41910D01*
X60940Y-41910D01*
X60940Y-39813D01*
X60797Y-39468D01*
X60533Y-39203D01*
X60187Y-39060D01*
X59813Y-39059D01*
X59468Y-39202D01*
X59203Y-39466D01*
X59060Y-39812D01*
X59059Y-40186D01*
X59202Y-40531D01*
X59466Y-40796D01*
X59812Y-40939D01*
X60186Y-40940D01*
X60531Y-40797D01*
X60796Y-40533D01*
X60939Y-40187D01*
X60940Y-39813D01*
X60940Y-41910D01*
X57290Y-41910D01*
X57290Y-41603D01*
X57332Y-41586D01*
X57386Y-41532D01*
X57415Y-41462D01*
X57415Y-41387D01*
X57415Y-41137D01*
X57386Y-41067D01*
X57351Y-41032D01*
X57360Y-41028D01*
X57428Y-40960D01*
X57465Y-40872D01*
X57465Y-40820D01*
X57465Y-40580D01*
X57465Y-40527D01*
X57428Y-40439D01*
X57415Y-40425D01*
X57415Y-39962D01*
X57415Y-39887D01*
X57415Y-39637D01*
X57386Y-39567D01*
X57332Y-39513D01*
X57299Y-39500D01*
X57332Y-39486D01*
X57386Y-39432D01*
X57415Y-39362D01*
X57415Y-39287D01*
X57415Y-39037D01*
X57386Y-38967D01*
X57332Y-38913D01*
X57262Y-38885D01*
X57187Y-38885D01*
X56737Y-38885D01*
X56667Y-38913D01*
X56613Y-38967D01*
X56612Y-38970D01*
X55300Y-38970D01*
X55211Y-38987D01*
X55137Y-39037D01*
X55083Y-39090D01*
X55023Y-38944D01*
X54926Y-38908D01*
X54841Y-38993D01*
X54841Y-38823D01*
X54805Y-38726D01*
X54582Y-38649D01*
X54346Y-38663D01*
X54194Y-38726D01*
X54158Y-38823D01*
X54500Y-39165D01*
X54841Y-38823D01*
X54841Y-38993D01*
X54584Y-39250D01*
X54590Y-39255D01*
X54505Y-39340D01*
X54500Y-39334D01*
X54415Y-39419D01*
X54415Y-39250D01*
X54073Y-38908D01*
X53976Y-38944D01*
X53899Y-39167D01*
X53913Y-39403D01*
X53976Y-39555D01*
X54073Y-39591D01*
X54415Y-39250D01*
X54415Y-39419D01*
X54158Y-39676D01*
X54194Y-39773D01*
X54212Y-39779D01*
X54192Y-39788D01*
X54038Y-39941D01*
X53955Y-40141D01*
X53955Y-40357D01*
X54038Y-40557D01*
X54191Y-40711D01*
X54391Y-40794D01*
X54607Y-40794D01*
X54807Y-40711D01*
X54961Y-40558D01*
X55044Y-40358D01*
X55044Y-40142D01*
X54961Y-39942D01*
X54922Y-39902D01*
X54959Y-39866D01*
X55038Y-40057D01*
X55191Y-40211D01*
X55284Y-40249D01*
X55192Y-40288D01*
X55038Y-40441D01*
X54955Y-40641D01*
X54955Y-40857D01*
X55038Y-41057D01*
X55191Y-41211D01*
X55391Y-41294D01*
X55607Y-41294D01*
X55807Y-41211D01*
X55961Y-41058D01*
X56044Y-40858D01*
X56044Y-40642D01*
X55961Y-40442D01*
X55808Y-40288D01*
X55715Y-40250D01*
X55807Y-40211D01*
X55961Y-40058D01*
X55993Y-39980D01*
X56592Y-39980D01*
X56613Y-40032D01*
X56667Y-40086D01*
X56737Y-40115D01*
X56812Y-40115D01*
X57262Y-40115D01*
X57332Y-40086D01*
X57386Y-40032D01*
X57415Y-39962D01*
X57415Y-40425D01*
X57360Y-40371D01*
X57272Y-40335D01*
X57177Y-40335D01*
X57120Y-40335D01*
X57060Y-40395D01*
X57060Y-40640D01*
X57405Y-40640D01*
X57465Y-40580D01*
X57465Y-40820D01*
X57405Y-40760D01*
X57060Y-40760D01*
X57060Y-40767D01*
X56940Y-40767D01*
X56940Y-40760D01*
X56940Y-40640D01*
X56940Y-40395D01*
X56880Y-40335D01*
X56822Y-40335D01*
X56727Y-40335D01*
X56639Y-40371D01*
X56571Y-40439D01*
X56535Y-40527D01*
X56535Y-40580D01*
X56595Y-40640D01*
X56940Y-40640D01*
X56940Y-40760D01*
X56595Y-40760D01*
X56535Y-40820D01*
X56535Y-40872D01*
X56571Y-40960D01*
X56639Y-41028D01*
X56648Y-41032D01*
X56613Y-41067D01*
X56585Y-41137D01*
X56585Y-41212D01*
X56585Y-41462D01*
X56613Y-41532D01*
X56667Y-41586D01*
X56710Y-41603D01*
X56710Y-41910D01*
X55226Y-41910D01*
X55207Y-41890D01*
X55072Y-41835D01*
X54927Y-41834D01*
X54793Y-41890D01*
X54690Y-41992D01*
X54635Y-42127D01*
X54634Y-42272D01*
X54690Y-42406D01*
X54792Y-42509D01*
X54927Y-42564D01*
X55072Y-42565D01*
X55206Y-42509D01*
X55226Y-42490D01*
X57140Y-42490D01*
X63415Y-42490D01*
X63415Y-47088D01*
X62940Y-47563D01*
X62940Y-45813D01*
X62797Y-45468D01*
X62533Y-45203D01*
X62187Y-45060D01*
X61813Y-45059D01*
X61468Y-45202D01*
X61203Y-45466D01*
X61060Y-45812D01*
X61059Y-46186D01*
X61202Y-46531D01*
X61466Y-46796D01*
X61812Y-46939D01*
X62186Y-46940D01*
X62531Y-46797D01*
X62796Y-46533D01*
X62939Y-46187D01*
X62940Y-45813D01*
X62940Y-47563D01*
X62688Y-47815D01*
X60940Y-47815D01*
X60940Y-45813D01*
X60797Y-45468D01*
X60533Y-45203D01*
X60187Y-45060D01*
X59813Y-45059D01*
X59468Y-45202D01*
X59203Y-45466D01*
X59060Y-45812D01*
X59059Y-46186D01*
X59202Y-46531D01*
X59466Y-46796D01*
X59812Y-46939D01*
X60186Y-46940D01*
X60531Y-46797D01*
X60796Y-46533D01*
X60939Y-46187D01*
X60940Y-45813D01*
X60940Y-47815D01*
X57290Y-47815D01*
X57290Y-47603D01*
X57332Y-47586D01*
X57386Y-47532D01*
X57415Y-47462D01*
X57415Y-47387D01*
X57415Y-47137D01*
X57386Y-47067D01*
X57351Y-47032D01*
X57360Y-47028D01*
X57428Y-46960D01*
X57465Y-46872D01*
X57465Y-46820D01*
X57465Y-46580D01*
X57465Y-46527D01*
X57428Y-46439D01*
X57415Y-46425D01*
X57415Y-45962D01*
X57415Y-45887D01*
X57415Y-45637D01*
X57386Y-45567D01*
X57332Y-45513D01*
X57299Y-45500D01*
X57332Y-45486D01*
X57386Y-45432D01*
X57415Y-45362D01*
X57415Y-45287D01*
X57415Y-45037D01*
X57386Y-44967D01*
X57332Y-44913D01*
X57262Y-44885D01*
X57187Y-44885D01*
X56737Y-44885D01*
X56667Y-44913D01*
X56613Y-44967D01*
X56612Y-44970D01*
X55300Y-44970D01*
X55211Y-44987D01*
X55137Y-45037D01*
X55083Y-45090D01*
X55023Y-44944D01*
X54926Y-44908D01*
X54841Y-44993D01*
X54841Y-44823D01*
X54805Y-44726D01*
X54582Y-44649D01*
X54346Y-44663D01*
X54194Y-44726D01*
X54158Y-44823D01*
X54500Y-45165D01*
X54841Y-44823D01*
X54841Y-44993D01*
X54584Y-45250D01*
X54590Y-45255D01*
X54505Y-45340D01*
X54500Y-45334D01*
X54415Y-45419D01*
X54415Y-45250D01*
X54073Y-44908D01*
X53976Y-44944D01*
X53899Y-45167D01*
X53913Y-45403D01*
X53976Y-45555D01*
X54073Y-45591D01*
X54415Y-45250D01*
X54415Y-45419D01*
X54158Y-45676D01*
X54194Y-45773D01*
X54212Y-45779D01*
X54192Y-45788D01*
X54038Y-45941D01*
X53955Y-46141D01*
X53955Y-46357D01*
X54038Y-46557D01*
X54191Y-46711D01*
X54391Y-46794D01*
X54607Y-46794D01*
X54807Y-46711D01*
X54961Y-46558D01*
X55044Y-46358D01*
X55044Y-46142D01*
X54961Y-45942D01*
X54922Y-45902D01*
X54959Y-45866D01*
X55038Y-46057D01*
X55191Y-46211D01*
X55284Y-46249D01*
X55192Y-46288D01*
X55038Y-46441D01*
X54955Y-46641D01*
X54955Y-46857D01*
X55038Y-47057D01*
X55191Y-47211D01*
X55391Y-47294D01*
X55607Y-47294D01*
X55807Y-47211D01*
X55961Y-47058D01*
X56044Y-46858D01*
X56044Y-46642D01*
X55961Y-46442D01*
X55808Y-46288D01*
X55715Y-46250D01*
X55807Y-46211D01*
X55961Y-46058D01*
X55993Y-45980D01*
X56592Y-45980D01*
X56613Y-46032D01*
X56667Y-46086D01*
X56737Y-46115D01*
X56812Y-46115D01*
X57262Y-46115D01*
X57332Y-46086D01*
X57386Y-46032D01*
X57415Y-45962D01*
X57415Y-46425D01*
X57360Y-46371D01*
X57272Y-46335D01*
X57177Y-46335D01*
X57120Y-46335D01*
X57060Y-46395D01*
X57060Y-46640D01*
X57405Y-46640D01*
X57465Y-46580D01*
X57465Y-46820D01*
X57405Y-46760D01*
X57060Y-46760D01*
X57060Y-46767D01*
X56940Y-46767D01*
X56940Y-46760D01*
X56940Y-46640D01*
X56940Y-46395D01*
X56880Y-46335D01*
X56822Y-46335D01*
X56727Y-46335D01*
X56639Y-46371D01*
X56571Y-46439D01*
X56535Y-46527D01*
X56535Y-46580D01*
X56595Y-46640D01*
X56940Y-46640D01*
X56940Y-46760D01*
X56595Y-46760D01*
X56535Y-46820D01*
X56535Y-46872D01*
X56571Y-46960D01*
X56639Y-47028D01*
X56648Y-47032D01*
X56613Y-47067D01*
X56585Y-47137D01*
X56585Y-47212D01*
X56585Y-47462D01*
X56613Y-47532D01*
X56667Y-47586D01*
X56710Y-47603D01*
X56710Y-47890D01*
X55205Y-47890D01*
X55072Y-47835D01*
X54927Y-47834D01*
X54793Y-47890D01*
X54690Y-47992D01*
X54635Y-48127D01*
X54634Y-48272D01*
X54690Y-48406D01*
X54792Y-48509D01*
X54927Y-48564D01*
X55072Y-48565D01*
X55206Y-48509D01*
X55246Y-48470D01*
X56789Y-48470D01*
X56860Y-48517D01*
X57000Y-48545D01*
X62840Y-48545D01*
X62979Y-48517D01*
X63098Y-48438D01*
X64038Y-47498D01*
X64038Y-47498D01*
X64038Y-47498D01*
X64117Y-47379D01*
X64145Y-47240D01*
X64145Y-42200D01*
X64145Y-36200D01*
X64145Y-30360D01*
X64145Y-26491D01*
X65135Y-25501D01*
X65135Y-25799D01*
X65134Y-25872D01*
X65162Y-25939D01*
X65190Y-26006D01*
X65241Y-26058D01*
X65292Y-26109D01*
X65360Y-26137D01*
X65427Y-26164D01*
X65500Y-26165D01*
X65572Y-26165D01*
X65639Y-26137D01*
X65652Y-26131D01*
X65660Y-26137D01*
X65800Y-26165D01*
X65939Y-26137D01*
X65947Y-26131D01*
X65960Y-26137D01*
X66027Y-26164D01*
X66100Y-26165D01*
X66172Y-26165D01*
X66239Y-26137D01*
X66306Y-26109D01*
X66358Y-26058D01*
X66409Y-26007D01*
X66437Y-25939D01*
X66464Y-25872D01*
X66465Y-25800D01*
X66465Y-25727D01*
X66465Y-25727D01*
X66465Y-25200D01*
X66465Y-25200D01*
X66465Y-25127D01*
X66437Y-25060D01*
X66409Y-24993D01*
X66358Y-24941D01*
X66316Y-24899D01*
X66348Y-24868D01*
X66348Y-24868D01*
X66358Y-24858D01*
X66358Y-24858D01*
X66409Y-24807D01*
X66437Y-24739D01*
X66464Y-24672D01*
X66465Y-24600D01*
X66465Y-24527D01*
X66437Y-24460D01*
X66409Y-24393D01*
X66358Y-24341D01*
X66307Y-24290D01*
X66239Y-24262D01*
X66172Y-24235D01*
X66027Y-24234D01*
X66003Y-24245D01*
X65800Y-24245D01*
X65570Y-24245D01*
X65520Y-24235D01*
X65482Y-24242D01*
X66495Y-23230D01*
X69813Y-23230D01*
X69892Y-23309D01*
X70027Y-23364D01*
X70172Y-23365D01*
X70306Y-23309D01*
X70409Y-23207D01*
X70464Y-23072D01*
X70465Y-22927D01*
X70409Y-22793D01*
X70366Y-22750D01*
X70409Y-22707D01*
X70464Y-22572D01*
X70465Y-22427D01*
X70409Y-22293D01*
X70307Y-22190D01*
X70172Y-22135D01*
X70027Y-22134D01*
X69893Y-22190D01*
X69813Y-22270D01*
X68735Y-22270D01*
X65802Y-19337D01*
X65782Y-19317D01*
X64302Y-17837D01*
X64228Y-17787D01*
X64140Y-17770D01*
X63024Y-17770D01*
X63064Y-17672D01*
X63065Y-17527D01*
X63009Y-17393D01*
X62950Y-17334D01*
X62998Y-17315D01*
X64804Y-17315D01*
X67794Y-20305D01*
X67889Y-20367D01*
X68000Y-20390D01*
X69200Y-20390D01*
X69310Y-20367D01*
X69405Y-20305D01*
X69805Y-19905D01*
X69867Y-19810D01*
X69890Y-19700D01*
X69890Y-19640D01*
X69947Y-19640D01*
X70327Y-19640D01*
X70397Y-19611D01*
X70451Y-19557D01*
X70479Y-19490D01*
X70600Y-19490D01*
X71100Y-19490D01*
X71373Y-19490D01*
X71392Y-19509D01*
X71527Y-19564D01*
X71672Y-19565D01*
X71806Y-19509D01*
X71909Y-19407D01*
X71964Y-19272D01*
X71965Y-19127D01*
X71909Y-18993D01*
X71807Y-18890D01*
X71672Y-18835D01*
X71527Y-18834D01*
X71393Y-18890D01*
X71373Y-18910D01*
X71100Y-18910D01*
X70600Y-18910D01*
X70479Y-18910D01*
X70451Y-18842D01*
X70397Y-18788D01*
X70327Y-18760D01*
X70252Y-18760D01*
X69872Y-18760D01*
X69849Y-18769D01*
X69827Y-18760D01*
X69752Y-18760D01*
X69390Y-18760D01*
X69390Y-15220D01*
X71757Y-12852D01*
X71735Y-12907D01*
X71734Y-13092D01*
X71805Y-13263D01*
X71936Y-13393D01*
X72107Y-13464D01*
X72292Y-13465D01*
X72463Y-13394D01*
X72593Y-13263D01*
X72664Y-13092D01*
X72665Y-12907D01*
X72594Y-12736D01*
X72463Y-12606D01*
X72292Y-12535D01*
X72107Y-12534D01*
X72052Y-12557D01*
X72145Y-12464D01*
X72292Y-12465D01*
X72463Y-12394D01*
X72593Y-12263D01*
X72664Y-12092D01*
X72665Y-11907D01*
X72594Y-11736D01*
X72483Y-11626D01*
X72483Y-11368D01*
X72200Y-11084D01*
X72115Y-11169D01*
X72115Y-11000D01*
X71831Y-10716D01*
X71742Y-10741D01*
X71678Y-10936D01*
X71694Y-11140D01*
X71742Y-11258D01*
X71831Y-11283D01*
X72115Y-11000D01*
X72115Y-11169D01*
X71916Y-11368D01*
X71941Y-11457D01*
X72136Y-11521D01*
X72340Y-11505D01*
X72458Y-11457D01*
X72483Y-11368D01*
X72483Y-11626D01*
X72463Y-11606D01*
X72292Y-11535D01*
X72107Y-11534D01*
X71936Y-11605D01*
X71806Y-11736D01*
X71735Y-11907D01*
X71734Y-12054D01*
X68894Y-14894D01*
X68832Y-14989D01*
X68810Y-15100D01*
X68810Y-18785D01*
X68802Y-18788D01*
X68748Y-18842D01*
X68720Y-18912D01*
X68720Y-18987D01*
X68720Y-19487D01*
X68748Y-19557D01*
X68802Y-19611D01*
X68872Y-19640D01*
X68947Y-19640D01*
X69249Y-19640D01*
X69079Y-19810D01*
X68120Y-19810D01*
X67721Y-19411D01*
X67721Y-18063D01*
X67721Y-17063D01*
X67721Y-16063D01*
X67721Y-15063D01*
X67705Y-14859D01*
X67657Y-14741D01*
X67568Y-14716D01*
X67284Y-15000D01*
X67568Y-15283D01*
X67657Y-15258D01*
X67721Y-15063D01*
X67721Y-16063D01*
X67705Y-15859D01*
X67657Y-15741D01*
X67568Y-15716D01*
X67483Y-15801D01*
X67483Y-15631D01*
X67458Y-15542D01*
X67343Y-15504D01*
X67458Y-15457D01*
X67483Y-15368D01*
X67200Y-15084D01*
X66916Y-15368D01*
X66941Y-15457D01*
X67056Y-15495D01*
X66941Y-15542D01*
X66916Y-15631D01*
X67200Y-15915D01*
X67483Y-15631D01*
X67483Y-15801D01*
X67284Y-16000D01*
X67568Y-16283D01*
X67657Y-16258D01*
X67721Y-16063D01*
X67721Y-17063D01*
X67705Y-16859D01*
X67657Y-16741D01*
X67568Y-16716D01*
X67483Y-16801D01*
X67483Y-16631D01*
X67458Y-16542D01*
X67343Y-16504D01*
X67458Y-16457D01*
X67483Y-16368D01*
X67200Y-16084D01*
X67115Y-16169D01*
X67115Y-16000D01*
X66831Y-15716D01*
X66742Y-15741D01*
X66678Y-15936D01*
X66694Y-16140D01*
X66742Y-16258D01*
X66831Y-16283D01*
X67115Y-16000D01*
X67115Y-16169D01*
X66916Y-16368D01*
X66941Y-16457D01*
X67056Y-16495D01*
X66941Y-16542D01*
X66916Y-16631D01*
X67200Y-16915D01*
X67483Y-16631D01*
X67483Y-16801D01*
X67284Y-17000D01*
X67568Y-17283D01*
X67657Y-17258D01*
X67721Y-17063D01*
X67721Y-18063D01*
X67705Y-17859D01*
X67657Y-17741D01*
X67568Y-17716D01*
X67483Y-17801D01*
X67483Y-17631D01*
X67458Y-17542D01*
X67343Y-17504D01*
X67458Y-17457D01*
X67483Y-17368D01*
X67200Y-17084D01*
X67115Y-17169D01*
X67115Y-17000D01*
X66831Y-16716D01*
X66742Y-16741D01*
X66678Y-16936D01*
X66694Y-17140D01*
X66742Y-17258D01*
X66831Y-17283D01*
X67115Y-17000D01*
X67115Y-17169D01*
X66916Y-17368D01*
X66941Y-17457D01*
X67056Y-17495D01*
X66941Y-17542D01*
X66916Y-17631D01*
X67200Y-17915D01*
X67483Y-17631D01*
X67483Y-17801D01*
X67284Y-18000D01*
X67568Y-18283D01*
X67657Y-18258D01*
X67721Y-18063D01*
X67721Y-19411D01*
X67483Y-19173D01*
X67483Y-18368D01*
X67200Y-18084D01*
X67115Y-18169D01*
X67115Y-18000D01*
X66831Y-17716D01*
X66742Y-17741D01*
X66678Y-17936D01*
X66694Y-18140D01*
X66742Y-18258D01*
X66831Y-18283D01*
X67115Y-18000D01*
X67115Y-18169D01*
X66916Y-18368D01*
X66941Y-18457D01*
X67136Y-18521D01*
X67340Y-18505D01*
X67458Y-18457D01*
X67483Y-18368D01*
X67483Y-19173D01*
X65130Y-16819D01*
X65035Y-16757D01*
X64925Y-16735D01*
X63054Y-16735D01*
X63103Y-16685D01*
X63140Y-16597D01*
X63140Y-16545D01*
X63080Y-16485D01*
X62735Y-16485D01*
X62735Y-16492D01*
X62653Y-16492D01*
X62653Y-16492D01*
X62607Y-16483D01*
X62607Y-16365D01*
X62615Y-16365D01*
X62615Y-16357D01*
X62735Y-16357D01*
X62735Y-16365D01*
X63080Y-16365D01*
X63140Y-16305D01*
X63140Y-16252D01*
X63130Y-16230D01*
X65200Y-16230D01*
X65288Y-16212D01*
X65288Y-16212D01*
X65362Y-16162D01*
X66722Y-14802D01*
X66678Y-14936D01*
X66694Y-15140D01*
X66742Y-15258D01*
X66831Y-15283D01*
X67115Y-15000D01*
X67109Y-14994D01*
X67194Y-14909D01*
X67200Y-14915D01*
X67483Y-14631D01*
X67458Y-14542D01*
X67263Y-14478D01*
X67059Y-14494D01*
X67011Y-14513D01*
X67074Y-14451D01*
X67107Y-14464D01*
X67292Y-14465D01*
X67463Y-14394D01*
X67593Y-14263D01*
X67664Y-14092D01*
X67665Y-13907D01*
X67594Y-13736D01*
X67576Y-13718D01*
X67608Y-13712D01*
X67608Y-13712D01*
X67682Y-13662D01*
X68022Y-13322D01*
X68072Y-13248D01*
X68072Y-13248D01*
X68090Y-13160D01*
X68090Y-12660D01*
X68090Y-12660D01*
X68090Y-12660D01*
X68072Y-12571D01*
X68072Y-12571D01*
X68022Y-12497D01*
X67721Y-12195D01*
X67721Y-11063D01*
X67705Y-10859D01*
X67657Y-10741D01*
X67568Y-10716D01*
X67483Y-10801D01*
X67483Y-10631D01*
X67458Y-10542D01*
X67263Y-10478D01*
X67059Y-10494D01*
X66941Y-10542D01*
X66916Y-10631D01*
X67200Y-10915D01*
X67483Y-10631D01*
X67483Y-10801D01*
X67284Y-11000D01*
X67568Y-11283D01*
X67657Y-11258D01*
X67721Y-11063D01*
X67721Y-12195D01*
X67651Y-12125D01*
X67664Y-12092D01*
X67665Y-11907D01*
X67594Y-11736D01*
X67483Y-11626D01*
X67483Y-11368D01*
X67200Y-11084D01*
X67115Y-11169D01*
X67115Y-11000D01*
X66831Y-10716D01*
X66742Y-10741D01*
X66678Y-10936D01*
X66694Y-11140D01*
X66742Y-11258D01*
X66831Y-11283D01*
X67115Y-11000D01*
X67115Y-11169D01*
X66916Y-11368D01*
X66941Y-11457D01*
X67136Y-11521D01*
X67340Y-11505D01*
X67458Y-11457D01*
X67483Y-11368D01*
X67483Y-11626D01*
X67463Y-11606D01*
X67292Y-11535D01*
X67107Y-11534D01*
X66936Y-11605D01*
X66806Y-11736D01*
X66735Y-11907D01*
X66734Y-12092D01*
X66805Y-12263D01*
X66936Y-12393D01*
X67107Y-12464D01*
X67292Y-12465D01*
X67325Y-12451D01*
X67630Y-12755D01*
X67630Y-12823D01*
X67594Y-12736D01*
X67463Y-12606D01*
X67292Y-12535D01*
X67107Y-12534D01*
X66936Y-12605D01*
X66806Y-12736D01*
X66792Y-12770D01*
X65315Y-12770D01*
X65315Y-11338D01*
X65191Y-11038D01*
X64962Y-10809D01*
X64662Y-10685D01*
X64338Y-10684D01*
X64038Y-10808D01*
X63809Y-11037D01*
X63685Y-11337D01*
X63684Y-11661D01*
X63808Y-11961D01*
X64037Y-12190D01*
X64337Y-12314D01*
X64661Y-12315D01*
X64961Y-12191D01*
X65190Y-11962D01*
X65314Y-11662D01*
X65315Y-11338D01*
X65315Y-12770D01*
X62880Y-12770D01*
X62791Y-12787D01*
X62717Y-12837D01*
X60715Y-14839D01*
X60715Y-14362D01*
X60686Y-14292D01*
X60632Y-14238D01*
X60562Y-14210D01*
X60487Y-14210D01*
X60387Y-14210D01*
X60377Y-14214D01*
X60367Y-14210D01*
X60292Y-14210D01*
X60279Y-14210D01*
X60265Y-14196D01*
X60177Y-14160D01*
X60165Y-14160D01*
X60105Y-14220D01*
X60105Y-14256D01*
X60082Y-14278D01*
X60055Y-14251D01*
X60055Y-14220D01*
X59995Y-14160D01*
X59982Y-14160D01*
X59894Y-14196D01*
X59880Y-14210D01*
X59797Y-14210D01*
X59787Y-14214D01*
X59777Y-14210D01*
X59720Y-14210D01*
X59720Y-14155D01*
X59960Y-13914D01*
X60072Y-13915D01*
X60206Y-13859D01*
X60309Y-13757D01*
X60364Y-13622D01*
X60365Y-13477D01*
X60309Y-13343D01*
X60207Y-13240D01*
X60072Y-13185D01*
X59990Y-13184D01*
X60591Y-12583D01*
X61970Y-12583D01*
X62040Y-12554D01*
X62093Y-12501D01*
X62122Y-12431D01*
X62122Y-12355D01*
X62122Y-11568D01*
X62093Y-11498D01*
X62040Y-11445D01*
X61970Y-11416D01*
X61894Y-11416D01*
X61843Y-11416D01*
X61845Y-11415D01*
X61962Y-11415D01*
X62032Y-11386D01*
X62086Y-11332D01*
X62115Y-11262D01*
X62115Y-11187D01*
X62115Y-10937D01*
X62086Y-10867D01*
X62051Y-10832D01*
X62060Y-10828D01*
X62128Y-10760D01*
X62165Y-10672D01*
X62165Y-10620D01*
X62105Y-10560D01*
X61760Y-10560D01*
X61760Y-10567D01*
X61640Y-10567D01*
X61640Y-10560D01*
X61295Y-10560D01*
X61235Y-10620D01*
X61235Y-10672D01*
X61271Y-10760D01*
X61339Y-10828D01*
X61348Y-10832D01*
X61313Y-10867D01*
X61285Y-10937D01*
X61285Y-11012D01*
X61285Y-11154D01*
X61023Y-11416D01*
X59729Y-11416D01*
X59659Y-11445D01*
X59606Y-11498D01*
X59577Y-11568D01*
X59577Y-11644D01*
X59577Y-12431D01*
X59606Y-12501D01*
X59659Y-12554D01*
X59729Y-12583D01*
X59805Y-12583D01*
X59941Y-12583D01*
X59000Y-13524D01*
X58058Y-12583D01*
X58270Y-12583D01*
X58340Y-12554D01*
X58393Y-12501D01*
X58422Y-12431D01*
X58422Y-12355D01*
X58422Y-11568D01*
X58393Y-11498D01*
X58340Y-11445D01*
X58270Y-11416D01*
X58194Y-11416D01*
X56976Y-11416D01*
X56615Y-11054D01*
X56615Y-10937D01*
X56586Y-10867D01*
X56551Y-10832D01*
X56560Y-10828D01*
X56628Y-10760D01*
X56665Y-10672D01*
X56665Y-10620D01*
X56605Y-10560D01*
X56260Y-10560D01*
X56260Y-10567D01*
X56140Y-10567D01*
X56140Y-10560D01*
X55795Y-10560D01*
X55740Y-10615D01*
X55740Y-10602D01*
X55703Y-10514D01*
X55635Y-10446D01*
X55547Y-10410D01*
X55452Y-10410D01*
X55220Y-10410D01*
X55160Y-10470D01*
X55160Y-10890D01*
X55680Y-10890D01*
X55740Y-10830D01*
X55740Y-10684D01*
X55771Y-10760D01*
X55839Y-10828D01*
X55848Y-10832D01*
X55813Y-10867D01*
X55785Y-10937D01*
X55785Y-11012D01*
X55785Y-11262D01*
X55813Y-11332D01*
X55867Y-11386D01*
X55937Y-11415D01*
X56012Y-11415D01*
X56154Y-11415D01*
X56156Y-11416D01*
X56029Y-11416D01*
X55959Y-11445D01*
X55906Y-11498D01*
X55877Y-11568D01*
X55877Y-11644D01*
X55877Y-12352D01*
X55740Y-12214D01*
X55740Y-11297D01*
X55740Y-11070D01*
X55680Y-11010D01*
X55160Y-11010D01*
X55160Y-11430D01*
X55220Y-11490D01*
X55452Y-11490D01*
X55547Y-11490D01*
X55635Y-11453D01*
X55703Y-11385D01*
X55740Y-11297D01*
X55740Y-12214D01*
X55690Y-12164D01*
X55690Y-11912D01*
X55661Y-11842D01*
X55607Y-11788D01*
X55537Y-11760D01*
X55462Y-11760D01*
X55040Y-11760D01*
X55040Y-11430D01*
X55040Y-11010D01*
X55040Y-10890D01*
X55040Y-10470D01*
X54980Y-10410D01*
X54747Y-10410D01*
X54652Y-10410D01*
X54564Y-10446D01*
X54550Y-10460D01*
X54535Y-10446D01*
X54447Y-10410D01*
X54352Y-10410D01*
X54120Y-10410D01*
X54060Y-10470D01*
X54060Y-10890D01*
X54520Y-10890D01*
X54580Y-10890D01*
X55040Y-10890D01*
X55040Y-11010D01*
X54580Y-11010D01*
X54520Y-11010D01*
X54060Y-11010D01*
X54060Y-11430D01*
X54120Y-11490D01*
X54352Y-11490D01*
X54447Y-11490D01*
X54535Y-11453D01*
X54550Y-11439D01*
X54564Y-11453D01*
X54652Y-11490D01*
X54747Y-11490D01*
X54980Y-11490D01*
X55040Y-11430D01*
X55040Y-11760D01*
X54662Y-11760D01*
X54592Y-11788D01*
X54550Y-11831D01*
X54507Y-11788D01*
X54437Y-11760D01*
X54362Y-11760D01*
X53940Y-11760D01*
X53940Y-11430D01*
X53940Y-11010D01*
X53940Y-10890D01*
X53940Y-10470D01*
X53880Y-10410D01*
X53647Y-10410D01*
X53552Y-10410D01*
X53464Y-10446D01*
X53396Y-10514D01*
X53360Y-10602D01*
X53360Y-10830D01*
X53420Y-10890D01*
X53940Y-10890D01*
X53940Y-11010D01*
X53420Y-11010D01*
X53360Y-11070D01*
X53360Y-11297D01*
X53396Y-11385D01*
X53464Y-11453D01*
X53552Y-11490D01*
X53647Y-11490D01*
X53880Y-11490D01*
X53940Y-11430D01*
X53940Y-11760D01*
X53562Y-11760D01*
X53492Y-11788D01*
X53438Y-11842D01*
X53410Y-11912D01*
X53410Y-11987D01*
X53410Y-12208D01*
X53362Y-12137D01*
X52351Y-11125D01*
X52364Y-11092D01*
X52365Y-10907D01*
X52294Y-10736D01*
X52163Y-10606D01*
X51992Y-10535D01*
X51807Y-10534D01*
X51636Y-10605D01*
X51506Y-10736D01*
X51435Y-10907D01*
X51434Y-11092D01*
X51505Y-11263D01*
X51636Y-11393D01*
X51807Y-11464D01*
X51992Y-11465D01*
X52025Y-11451D01*
X52970Y-12395D01*
X52970Y-12699D01*
X52364Y-12093D01*
X52364Y-12092D01*
X52365Y-11907D01*
X52294Y-11736D01*
X52163Y-11606D01*
X51992Y-11535D01*
X51807Y-11534D01*
X51636Y-11605D01*
X51630Y-11612D01*
X51630Y-11500D01*
X51612Y-11411D01*
X51612Y-11411D01*
X51562Y-11337D01*
X51351Y-11125D01*
X51364Y-11092D01*
X51365Y-10907D01*
X51294Y-10736D01*
X51163Y-10606D01*
X50992Y-10535D01*
X50807Y-10534D01*
X50636Y-10605D01*
X50506Y-10736D01*
X50435Y-10907D01*
X50434Y-11092D01*
X50505Y-11263D01*
X50636Y-11393D01*
X50807Y-11464D01*
X50992Y-11465D01*
X51025Y-11451D01*
X51097Y-11522D01*
X50963Y-11478D01*
X50759Y-11494D01*
X50641Y-11542D01*
X50616Y-11631D01*
X50900Y-11915D01*
X50905Y-11909D01*
X50990Y-11994D01*
X50984Y-12000D01*
X50990Y-12005D01*
X50905Y-12090D01*
X50900Y-12084D01*
X50815Y-12169D01*
X50815Y-12000D01*
X50531Y-11716D01*
X50442Y-11741D01*
X50378Y-11936D01*
X50394Y-12140D01*
X50442Y-12258D01*
X50531Y-12283D01*
X50815Y-12000D01*
X50815Y-12169D01*
X50616Y-12368D01*
X50641Y-12457D01*
X50836Y-12521D01*
X51040Y-12505D01*
X51158Y-12457D01*
X51170Y-12415D01*
X51170Y-12500D01*
X51187Y-12588D01*
X51237Y-12662D01*
X51448Y-12874D01*
X51435Y-12907D01*
X51434Y-13092D01*
X51505Y-13263D01*
X51636Y-13393D01*
X51807Y-13464D01*
X51992Y-13465D01*
X52163Y-13394D01*
X52293Y-13263D01*
X52307Y-13230D01*
X52595Y-13230D01*
X53135Y-13770D01*
X52365Y-13770D01*
X52365Y-13687D01*
X52336Y-13617D01*
X52282Y-13563D01*
X52212Y-13535D01*
X52137Y-13535D01*
X51760Y-13535D01*
X51351Y-13125D01*
X51364Y-13092D01*
X51365Y-12907D01*
X51294Y-12736D01*
X51163Y-12606D01*
X50992Y-12535D01*
X50807Y-12534D01*
X50636Y-12605D01*
X50506Y-12736D01*
X50435Y-12907D01*
X50434Y-13092D01*
X50505Y-13263D01*
X50636Y-13393D01*
X50807Y-13464D01*
X50992Y-13465D01*
X51025Y-13451D01*
X51109Y-13535D01*
X50587Y-13535D01*
X50517Y-13563D01*
X50463Y-13617D01*
X50435Y-13687D01*
X50435Y-13762D01*
X50435Y-14312D01*
X50463Y-14382D01*
X50517Y-14436D01*
X50587Y-14465D01*
X50650Y-14465D01*
X50650Y-16200D01*
X50669Y-16295D01*
X50723Y-16376D01*
X51650Y-17303D01*
X51650Y-19670D01*
X51515Y-19670D01*
X51515Y-19637D01*
X51486Y-19567D01*
X51481Y-19563D01*
X51487Y-19560D01*
X51555Y-19492D01*
X51592Y-19404D01*
X51592Y-19320D01*
X51532Y-19260D01*
X51255Y-19260D01*
X51255Y-19267D01*
X51135Y-19267D01*
X51135Y-19260D01*
X51127Y-19260D01*
X51127Y-19140D01*
X51135Y-19140D01*
X51135Y-19132D01*
X51255Y-19132D01*
X51255Y-19140D01*
X51532Y-19140D01*
X51592Y-19080D01*
X51592Y-18995D01*
X51555Y-18907D01*
X51487Y-18839D01*
X51481Y-18836D01*
X51486Y-18832D01*
X51515Y-18762D01*
X51515Y-18687D01*
X51515Y-18237D01*
X51486Y-18167D01*
X51432Y-18113D01*
X51430Y-18112D01*
X51430Y-18086D01*
X51509Y-18007D01*
X51564Y-17872D01*
X51565Y-17727D01*
X51509Y-17593D01*
X51407Y-17490D01*
X51272Y-17435D01*
X51127Y-17434D01*
X50993Y-17490D01*
X50890Y-17592D01*
X50835Y-17727D01*
X50834Y-17872D01*
X50890Y-18006D01*
X50970Y-18086D01*
X50970Y-18112D01*
X50967Y-18113D01*
X50913Y-18167D01*
X50900Y-18200D01*
X50886Y-18167D01*
X50832Y-18113D01*
X50762Y-18085D01*
X50687Y-18085D01*
X50437Y-18085D01*
X50367Y-18113D01*
X50313Y-18167D01*
X50285Y-18237D01*
X50285Y-18312D01*
X50285Y-18762D01*
X50313Y-18832D01*
X50356Y-18875D01*
X50340Y-18881D01*
X50286Y-18935D01*
X50265Y-18988D01*
X50265Y-10265D01*
X55760Y-10265D01*
X55735Y-10327D01*
X55735Y-10380D01*
X55795Y-10440D01*
X56140Y-10440D01*
X56140Y-10432D01*
X56260Y-10432D01*
X56260Y-10440D01*
X56605Y-10440D01*
X56665Y-10380D01*
X56665Y-10327D01*
X56639Y-10265D01*
X61260Y-10265D01*
X61235Y-10327D01*
X61235Y-10380D01*
X61295Y-10440D01*
X61640Y-10440D01*
X61640Y-10432D01*
X61760Y-10432D01*
X61760Y-10440D01*
X62105Y-10440D01*
X62165Y-10380D01*
X62165Y-10327D01*
X62139Y-10265D01*
X89735Y-10265D01*
X89735Y-49735D01*
X89735Y-49735D01*
G37*
G54D37*
X89735Y-49735D02*
X89650Y-49735D01*
X89650Y-13620D01*
X89650Y-13544D01*
X89650Y-11379D01*
X89621Y-11309D01*
X89568Y-11256D01*
X89498Y-11227D01*
X89422Y-11227D01*
X88241Y-11227D01*
X88171Y-11256D01*
X88118Y-11309D01*
X88089Y-11379D01*
X88089Y-11455D01*
X88089Y-13620D01*
X88118Y-13690D01*
X88171Y-13743D01*
X88241Y-13772D01*
X88317Y-13772D01*
X88380Y-13772D01*
X88380Y-17226D01*
X88097Y-17510D01*
X87745Y-17510D01*
X87745Y-16117D01*
X87733Y-15823D01*
X87643Y-15606D01*
X87531Y-15553D01*
X87446Y-15638D01*
X87446Y-15468D01*
X87393Y-15356D01*
X87117Y-15254D01*
X86823Y-15266D01*
X86606Y-15356D01*
X86553Y-15468D01*
X87000Y-15915D01*
X87446Y-15468D01*
X87446Y-15638D01*
X87084Y-16000D01*
X87531Y-16446D01*
X87643Y-16393D01*
X87745Y-16117D01*
X87745Y-17510D01*
X87690Y-17510D01*
X87690Y-17462D01*
X87661Y-17392D01*
X87607Y-17338D01*
X87537Y-17310D01*
X87462Y-17310D01*
X87446Y-17310D01*
X87446Y-16531D01*
X87000Y-16084D01*
X86915Y-16169D01*
X86915Y-16000D01*
X86468Y-15553D01*
X86356Y-15606D01*
X86254Y-15882D01*
X86266Y-16176D01*
X86356Y-16393D01*
X86468Y-16446D01*
X86915Y-16000D01*
X86915Y-16169D01*
X86553Y-16531D01*
X86606Y-16643D01*
X86882Y-16745D01*
X87176Y-16733D01*
X87393Y-16643D01*
X87446Y-16531D01*
X87446Y-17310D01*
X86462Y-17310D01*
X86392Y-17338D01*
X86338Y-17392D01*
X86310Y-17462D01*
X86310Y-17510D01*
X84000Y-17510D01*
X83812Y-17547D01*
X83653Y-17653D01*
X83397Y-17910D01*
X83250Y-17910D01*
X83205Y-17864D01*
X83135Y-17836D01*
X83060Y-17836D01*
X81328Y-17836D01*
X81258Y-17864D01*
X81204Y-17918D01*
X81176Y-17988D01*
X81176Y-18063D01*
X81176Y-18110D01*
X80920Y-18110D01*
X79581Y-16771D01*
X81076Y-15276D01*
X81130Y-15195D01*
X81150Y-15100D01*
X81150Y-14100D01*
X81130Y-14004D01*
X81130Y-14004D01*
X81076Y-13923D01*
X80760Y-13607D01*
X80679Y-13553D01*
X80584Y-13534D01*
X80451Y-13534D01*
X80494Y-13490D01*
X80514Y-13444D01*
X80531Y-13426D01*
X80531Y-13402D01*
X80531Y-13397D01*
X80531Y-13373D01*
X80514Y-13355D01*
X80494Y-13309D01*
X80451Y-13266D01*
X80584Y-13266D01*
X80594Y-13263D01*
X80600Y-13265D01*
X80942Y-13265D01*
X80947Y-13287D01*
X81053Y-13446D01*
X81743Y-14136D01*
X81902Y-14242D01*
X81902Y-14242D01*
X82090Y-14280D01*
X82333Y-14280D01*
X82359Y-14305D01*
X82429Y-14334D01*
X82504Y-14334D01*
X83370Y-14334D01*
X83440Y-14305D01*
X83494Y-14252D01*
X83523Y-14182D01*
X83523Y-14106D01*
X83523Y-13397D01*
X83494Y-13327D01*
X83440Y-13274D01*
X83370Y-13245D01*
X83295Y-13245D01*
X82429Y-13245D01*
X82359Y-13274D01*
X82333Y-13300D01*
X82292Y-13300D01*
X81746Y-12753D01*
X81587Y-12647D01*
X81538Y-12637D01*
X81539Y-12637D01*
X81658Y-12558D01*
X81801Y-12415D01*
X82277Y-12415D01*
X82277Y-12602D01*
X82305Y-12672D01*
X82359Y-12725D01*
X82429Y-12754D01*
X82504Y-12754D01*
X83370Y-12754D01*
X83440Y-12725D01*
X83466Y-12700D01*
X84349Y-12700D01*
X84349Y-13620D01*
X84378Y-13690D01*
X84431Y-13743D01*
X84501Y-13772D01*
X84577Y-13772D01*
X85758Y-13772D01*
X85828Y-13743D01*
X85881Y-13690D01*
X85910Y-13620D01*
X85910Y-13544D01*
X85910Y-11379D01*
X85881Y-11309D01*
X85828Y-11256D01*
X85758Y-11227D01*
X85682Y-11227D01*
X84501Y-11227D01*
X84431Y-11256D01*
X84378Y-11309D01*
X84349Y-11379D01*
X84349Y-11455D01*
X84349Y-11720D01*
X83466Y-11720D01*
X83440Y-11694D01*
X83370Y-11665D01*
X83295Y-11665D01*
X82429Y-11665D01*
X82382Y-11685D01*
X82040Y-11685D01*
X82040Y-11612D01*
X82040Y-11537D01*
X82040Y-11300D01*
X82040Y-10987D01*
X82011Y-10917D01*
X81957Y-10863D01*
X81887Y-10835D01*
X81812Y-10835D01*
X81462Y-10835D01*
X81392Y-10863D01*
X81338Y-10917D01*
X81310Y-10987D01*
X81310Y-11062D01*
X81310Y-11300D01*
X81310Y-11612D01*
X81310Y-11873D01*
X81248Y-11935D01*
X80937Y-11935D01*
X80930Y-11904D01*
X80876Y-11823D01*
X80869Y-11816D01*
X80793Y-11765D01*
X81137Y-11765D01*
X81207Y-11736D01*
X81261Y-11682D01*
X81290Y-11612D01*
X81290Y-11537D01*
X81290Y-10987D01*
X81261Y-10917D01*
X81207Y-10863D01*
X81137Y-10835D01*
X81062Y-10835D01*
X80712Y-10835D01*
X80642Y-10863D01*
X80588Y-10917D01*
X80560Y-10987D01*
X80560Y-11010D01*
X80100Y-11010D01*
X79989Y-11032D01*
X79894Y-11094D01*
X79794Y-11194D01*
X79732Y-11289D01*
X79710Y-11400D01*
X79710Y-11464D01*
X79674Y-11464D01*
X79604Y-11493D01*
X79551Y-11546D01*
X79522Y-11616D01*
X79522Y-11623D01*
X79488Y-11610D01*
X79413Y-11610D01*
X78311Y-11610D01*
X78277Y-11623D01*
X78277Y-11616D01*
X78248Y-11546D01*
X78195Y-11493D01*
X78125Y-11464D01*
X78049Y-11464D01*
X77470Y-11464D01*
X77433Y-11479D01*
X77176Y-11223D01*
X77095Y-11169D01*
X77000Y-11150D01*
X76940Y-11150D01*
X76940Y-11087D01*
X76911Y-11017D01*
X76857Y-10963D01*
X76787Y-10935D01*
X76712Y-10935D01*
X76362Y-10935D01*
X76292Y-10963D01*
X76238Y-11017D01*
X76227Y-11046D01*
X76203Y-10989D01*
X76135Y-10921D01*
X76047Y-10885D01*
X75945Y-10885D01*
X75885Y-10945D01*
X75885Y-11340D01*
X75892Y-11340D01*
X75892Y-11460D01*
X75885Y-11460D01*
X75885Y-11467D01*
X75765Y-11467D01*
X75765Y-11460D01*
X75765Y-11340D01*
X75765Y-10945D01*
X75705Y-10885D01*
X75602Y-10885D01*
X75514Y-10921D01*
X75446Y-10989D01*
X75410Y-11077D01*
X75410Y-11172D01*
X75410Y-11280D01*
X75470Y-11340D01*
X75765Y-11340D01*
X75765Y-11460D01*
X75470Y-11460D01*
X75410Y-11520D01*
X75410Y-11627D01*
X75410Y-11722D01*
X75446Y-11810D01*
X75420Y-11810D01*
X75090Y-11479D01*
X75090Y-11112D01*
X75061Y-11042D01*
X75007Y-10988D01*
X74937Y-10960D01*
X74862Y-10960D01*
X74500Y-10960D01*
X74062Y-10960D01*
X73750Y-10960D01*
X73562Y-10997D01*
X73403Y-11103D01*
X72953Y-11553D01*
X72847Y-11712D01*
X72810Y-11900D01*
X72810Y-18797D01*
X72721Y-18885D01*
X72721Y-11063D01*
X72705Y-10859D01*
X72657Y-10741D01*
X72568Y-10716D01*
X72483Y-10801D01*
X72483Y-10631D01*
X72458Y-10542D01*
X72263Y-10478D01*
X72059Y-10494D01*
X71941Y-10542D01*
X71916Y-10631D01*
X72200Y-10915D01*
X72483Y-10631D01*
X72483Y-10801D01*
X72284Y-11000D01*
X72568Y-11283D01*
X72657Y-11258D01*
X72721Y-11063D01*
X72721Y-18885D01*
X72665Y-18941D01*
X72665Y-17907D01*
X72665Y-16907D01*
X72665Y-15907D01*
X72665Y-14907D01*
X72665Y-13907D01*
X72594Y-13736D01*
X72463Y-13606D01*
X72292Y-13535D01*
X72107Y-13534D01*
X71936Y-13605D01*
X71806Y-13736D01*
X71735Y-13907D01*
X71734Y-14092D01*
X71805Y-14263D01*
X71936Y-14393D01*
X72107Y-14464D01*
X72292Y-14465D01*
X72463Y-14394D01*
X72593Y-14263D01*
X72664Y-14092D01*
X72665Y-13907D01*
X72665Y-14907D01*
X72594Y-14736D01*
X72463Y-14606D01*
X72292Y-14535D01*
X72107Y-14534D01*
X71936Y-14605D01*
X71806Y-14736D01*
X71735Y-14907D01*
X71734Y-15092D01*
X71805Y-15263D01*
X71936Y-15393D01*
X72107Y-15464D01*
X72292Y-15465D01*
X72463Y-15394D01*
X72593Y-15263D01*
X72664Y-15092D01*
X72665Y-14907D01*
X72665Y-15907D01*
X72594Y-15736D01*
X72463Y-15606D01*
X72292Y-15535D01*
X72107Y-15534D01*
X71936Y-15605D01*
X71806Y-15736D01*
X71735Y-15907D01*
X71734Y-16092D01*
X71805Y-16263D01*
X71936Y-16393D01*
X72107Y-16464D01*
X72292Y-16465D01*
X72463Y-16394D01*
X72593Y-16263D01*
X72664Y-16092D01*
X72665Y-15907D01*
X72665Y-16907D01*
X72594Y-16736D01*
X72463Y-16606D01*
X72292Y-16535D01*
X72107Y-16534D01*
X71936Y-16605D01*
X71806Y-16736D01*
X71735Y-16907D01*
X71734Y-17092D01*
X71805Y-17263D01*
X71936Y-17393D01*
X72107Y-17464D01*
X72292Y-17465D01*
X72463Y-17394D01*
X72593Y-17263D01*
X72664Y-17092D01*
X72665Y-16907D01*
X72665Y-17907D01*
X72594Y-17736D01*
X72463Y-17606D01*
X72292Y-17535D01*
X72107Y-17534D01*
X71936Y-17605D01*
X71806Y-17736D01*
X71735Y-17907D01*
X71734Y-18092D01*
X71805Y-18263D01*
X71936Y-18393D01*
X72107Y-18464D01*
X72292Y-18465D01*
X72463Y-18394D01*
X72593Y-18263D01*
X72664Y-18092D01*
X72665Y-17907D01*
X72665Y-18941D01*
X70653Y-20953D01*
X70547Y-21112D01*
X70510Y-21300D01*
X70510Y-25750D01*
X70510Y-26210D01*
X69521Y-26210D01*
X69521Y-25813D01*
X69505Y-25609D01*
X69457Y-25491D01*
X69368Y-25466D01*
X69283Y-25551D01*
X69283Y-25381D01*
X69258Y-25292D01*
X69063Y-25228D01*
X68859Y-25244D01*
X68741Y-25292D01*
X68716Y-25381D01*
X69000Y-25665D01*
X69283Y-25381D01*
X69283Y-25551D01*
X69084Y-25750D01*
X69368Y-26033D01*
X69457Y-26008D01*
X69521Y-25813D01*
X69521Y-26210D01*
X69251Y-26210D01*
X69258Y-26207D01*
X69283Y-26118D01*
X69000Y-25834D01*
X68915Y-25919D01*
X68915Y-25750D01*
X68631Y-25466D01*
X68542Y-25491D01*
X68478Y-25686D01*
X68494Y-25890D01*
X68542Y-26008D01*
X68631Y-26033D01*
X68915Y-25750D01*
X68915Y-25919D01*
X68716Y-26118D01*
X68741Y-26207D01*
X68750Y-26210D01*
X64710Y-26210D01*
X64710Y-48040D01*
X69184Y-48040D01*
X69184Y-48161D01*
X69308Y-48461D01*
X69537Y-48690D01*
X69837Y-48814D01*
X70161Y-48815D01*
X70461Y-48691D01*
X70690Y-48462D01*
X70814Y-48162D01*
X70814Y-48040D01*
X75290Y-48040D01*
X75290Y-26210D01*
X71490Y-26210D01*
X71490Y-25750D01*
X71490Y-23205D01*
X71490Y-23206D01*
X71592Y-23309D01*
X71727Y-23364D01*
X71872Y-23365D01*
X72006Y-23309D01*
X72109Y-23207D01*
X72164Y-23072D01*
X72165Y-22927D01*
X72130Y-22842D01*
X72130Y-21995D01*
X72161Y-21964D01*
X72135Y-22027D01*
X72134Y-22172D01*
X72190Y-22306D01*
X72292Y-22409D01*
X72427Y-22464D01*
X72572Y-22465D01*
X72706Y-22409D01*
X72786Y-22330D01*
X73950Y-22330D01*
X73969Y-22326D01*
X74002Y-22339D01*
X74147Y-22340D01*
X74281Y-22284D01*
X74384Y-22182D01*
X74439Y-22047D01*
X74440Y-21902D01*
X74384Y-21768D01*
X74282Y-21665D01*
X74147Y-21610D01*
X74002Y-21609D01*
X73868Y-21665D01*
X73765Y-21767D01*
X73723Y-21870D01*
X72786Y-21870D01*
X72707Y-21790D01*
X72572Y-21735D01*
X72427Y-21734D01*
X72364Y-21761D01*
X72845Y-21280D01*
X73588Y-21280D01*
X73667Y-21359D01*
X73802Y-21414D01*
X73947Y-21415D01*
X74081Y-21359D01*
X74184Y-21257D01*
X74239Y-21122D01*
X74240Y-20977D01*
X74184Y-20843D01*
X74082Y-20740D01*
X73947Y-20685D01*
X73802Y-20684D01*
X73668Y-20740D01*
X73588Y-20820D01*
X72750Y-20820D01*
X72661Y-20837D01*
X72587Y-20887D01*
X71737Y-21737D01*
X71687Y-21811D01*
X71670Y-21900D01*
X71670Y-22658D01*
X71593Y-22690D01*
X71490Y-22792D01*
X71490Y-22794D01*
X71490Y-21502D01*
X73646Y-19346D01*
X73752Y-19187D01*
X73752Y-19187D01*
X73790Y-19000D01*
X73790Y-12102D01*
X73952Y-11940D01*
X74062Y-11940D01*
X74137Y-11940D01*
X74500Y-11940D01*
X74729Y-11940D01*
X75094Y-12305D01*
X75189Y-12367D01*
X75189Y-12367D01*
X75300Y-12390D01*
X75516Y-12390D01*
X75488Y-12417D01*
X75460Y-12487D01*
X75460Y-12562D01*
X75460Y-13112D01*
X75488Y-13182D01*
X75542Y-13236D01*
X75575Y-13249D01*
X75575Y-13425D01*
X75594Y-13520D01*
X75648Y-13601D01*
X75750Y-13703D01*
X75750Y-14139D01*
X75733Y-14179D01*
X75715Y-14161D01*
X75715Y-13937D01*
X75686Y-13867D01*
X75632Y-13813D01*
X75562Y-13785D01*
X75487Y-13785D01*
X75140Y-13785D01*
X75140Y-13097D01*
X75140Y-12870D01*
X75140Y-12630D01*
X75140Y-12402D01*
X75103Y-12314D01*
X75035Y-12246D01*
X74947Y-12210D01*
X74852Y-12210D01*
X74620Y-12210D01*
X74560Y-12270D01*
X74560Y-12690D01*
X75080Y-12690D01*
X75140Y-12630D01*
X75140Y-12870D01*
X75080Y-12810D01*
X74560Y-12810D01*
X74560Y-13230D01*
X74620Y-13290D01*
X74852Y-13290D01*
X74947Y-13290D01*
X75035Y-13253D01*
X75103Y-13185D01*
X75140Y-13097D01*
X75140Y-13785D01*
X75037Y-13785D01*
X74967Y-13813D01*
X74913Y-13867D01*
X74885Y-13937D01*
X74885Y-14012D01*
X74885Y-14262D01*
X74913Y-14332D01*
X74967Y-14386D01*
X75000Y-14399D01*
X74976Y-14410D01*
X74679Y-14410D01*
X74728Y-14360D01*
X74765Y-14272D01*
X74765Y-14220D01*
X74765Y-13980D01*
X74765Y-13927D01*
X74728Y-13839D01*
X74660Y-13771D01*
X74572Y-13735D01*
X74477Y-13735D01*
X74440Y-13735D01*
X74440Y-13230D01*
X74440Y-12810D01*
X74440Y-12690D01*
X74440Y-12270D01*
X74380Y-12210D01*
X74147Y-12210D01*
X74052Y-12210D01*
X73964Y-12246D01*
X73896Y-12314D01*
X73860Y-12402D01*
X73860Y-12630D01*
X73920Y-12690D01*
X74440Y-12690D01*
X74440Y-12810D01*
X73920Y-12810D01*
X73860Y-12870D01*
X73860Y-13097D01*
X73896Y-13185D01*
X73964Y-13253D01*
X74052Y-13290D01*
X74147Y-13290D01*
X74380Y-13290D01*
X74440Y-13230D01*
X74440Y-13735D01*
X74420Y-13735D01*
X74360Y-13795D01*
X74360Y-14040D01*
X74705Y-14040D01*
X74765Y-13980D01*
X74765Y-14220D01*
X74705Y-14160D01*
X74360Y-14160D01*
X74360Y-14167D01*
X74240Y-14167D01*
X74240Y-14160D01*
X74240Y-14040D01*
X74240Y-13795D01*
X74180Y-13735D01*
X74122Y-13735D01*
X74027Y-13735D01*
X73939Y-13771D01*
X73871Y-13839D01*
X73835Y-13927D01*
X73835Y-13980D01*
X73895Y-14040D01*
X74240Y-14040D01*
X74240Y-14160D01*
X73895Y-14160D01*
X73835Y-14220D01*
X73835Y-14272D01*
X73871Y-14360D01*
X73939Y-14428D01*
X73948Y-14432D01*
X73913Y-14467D01*
X73885Y-14537D01*
X73885Y-14612D01*
X73885Y-14862D01*
X73913Y-14932D01*
X73967Y-14986D01*
X74010Y-15003D01*
X74010Y-15276D01*
X73985Y-15337D01*
X73985Y-15412D01*
X73985Y-15862D01*
X74013Y-15932D01*
X74067Y-15986D01*
X74137Y-16015D01*
X74212Y-16015D01*
X74462Y-16015D01*
X74532Y-15986D01*
X74586Y-15932D01*
X74599Y-15899D01*
X74613Y-15932D01*
X74667Y-15986D01*
X74737Y-16015D01*
X74812Y-16015D01*
X75062Y-16015D01*
X75132Y-15986D01*
X75186Y-15932D01*
X75203Y-15890D01*
X75383Y-15890D01*
X75390Y-15906D01*
X75492Y-16009D01*
X75627Y-16064D01*
X75772Y-16065D01*
X75906Y-16009D01*
X76009Y-15907D01*
X76064Y-15772D01*
X76065Y-15627D01*
X76009Y-15493D01*
X75926Y-15410D01*
X75976Y-15376D01*
X76382Y-14971D01*
X76439Y-15028D01*
X76527Y-15065D01*
X76622Y-15065D01*
X76680Y-15065D01*
X76740Y-15005D01*
X76740Y-14760D01*
X76732Y-14760D01*
X76732Y-14640D01*
X76740Y-14640D01*
X76740Y-14632D01*
X76860Y-14632D01*
X76860Y-14640D01*
X76867Y-14640D01*
X76867Y-14760D01*
X76860Y-14760D01*
X76860Y-15005D01*
X76920Y-15065D01*
X76977Y-15065D01*
X77072Y-15065D01*
X77160Y-15028D01*
X77228Y-14960D01*
X77265Y-14872D01*
X77265Y-14820D01*
X77205Y-14760D01*
X77265Y-14760D01*
X77265Y-14718D01*
X77481Y-14935D01*
X77460Y-14987D01*
X77460Y-15062D01*
X77460Y-15612D01*
X77488Y-15682D01*
X77542Y-15736D01*
X77612Y-15765D01*
X77687Y-15765D01*
X78037Y-15765D01*
X78107Y-15736D01*
X78161Y-15682D01*
X78172Y-15653D01*
X78196Y-15710D01*
X78264Y-15778D01*
X78352Y-15815D01*
X78455Y-15815D01*
X78515Y-15755D01*
X78515Y-15360D01*
X78507Y-15360D01*
X78507Y-15240D01*
X78515Y-15240D01*
X78515Y-14845D01*
X78455Y-14785D01*
X78352Y-14785D01*
X78264Y-14821D01*
X78196Y-14889D01*
X78172Y-14946D01*
X78161Y-14917D01*
X78107Y-14863D01*
X78058Y-14843D01*
X78055Y-14829D01*
X78001Y-14748D01*
X77616Y-14362D01*
X77678Y-14362D01*
X77738Y-14302D01*
X77738Y-14081D01*
X77730Y-14081D01*
X77730Y-14056D01*
X77865Y-14056D01*
X77865Y-14081D01*
X77858Y-14081D01*
X77858Y-14302D01*
X77918Y-14362D01*
X78039Y-14362D01*
X78135Y-14362D01*
X78223Y-14325D01*
X78290Y-14258D01*
X78319Y-14190D01*
X78386Y-14190D01*
X79488Y-14190D01*
X79528Y-14173D01*
X79551Y-14230D01*
X79604Y-14283D01*
X79674Y-14312D01*
X79750Y-14312D01*
X79827Y-14312D01*
X79827Y-14842D01*
X79822Y-14842D01*
X79762Y-14902D01*
X79762Y-15141D01*
X79790Y-15141D01*
X79790Y-15259D01*
X79762Y-15259D01*
X79762Y-15498D01*
X79822Y-15558D01*
X79849Y-15558D01*
X79937Y-15521D01*
X79953Y-15505D01*
X79960Y-15508D01*
X80036Y-15508D01*
X80138Y-15508D01*
X79683Y-15962D01*
X79683Y-15498D01*
X79683Y-15259D01*
X79683Y-15141D01*
X79683Y-14902D01*
X79623Y-14842D01*
X79596Y-14842D01*
X79508Y-14878D01*
X79441Y-14946D01*
X79404Y-15034D01*
X79404Y-15081D01*
X79464Y-15141D01*
X79683Y-15141D01*
X79683Y-15259D01*
X79464Y-15259D01*
X79404Y-15319D01*
X79404Y-15365D01*
X79441Y-15453D01*
X79508Y-15521D01*
X79596Y-15558D01*
X79623Y-15558D01*
X79683Y-15498D01*
X79683Y-15962D01*
X79136Y-16510D01*
X78990Y-16510D01*
X78990Y-15622D01*
X78990Y-15527D01*
X78990Y-15420D01*
X78990Y-15180D01*
X78990Y-15072D01*
X78990Y-14977D01*
X78953Y-14889D01*
X78885Y-14821D01*
X78797Y-14785D01*
X78695Y-14785D01*
X78635Y-14845D01*
X78635Y-15240D01*
X78930Y-15240D01*
X78990Y-15180D01*
X78990Y-15420D01*
X78930Y-15360D01*
X78635Y-15360D01*
X78635Y-15755D01*
X78695Y-15815D01*
X78797Y-15815D01*
X78885Y-15778D01*
X78953Y-15710D01*
X78990Y-15622D01*
X78990Y-16510D01*
X78072Y-16510D01*
X78067Y-16489D01*
X78005Y-16394D01*
X77665Y-16054D01*
X77665Y-16027D01*
X77609Y-15893D01*
X77507Y-15790D01*
X77372Y-15735D01*
X77265Y-15734D01*
X77227Y-15734D01*
X77093Y-15790D01*
X76990Y-15892D01*
X76935Y-16027D01*
X76934Y-16172D01*
X76990Y-16306D01*
X77092Y-16409D01*
X77227Y-16464D01*
X77254Y-16464D01*
X77299Y-16510D01*
X77252Y-16510D01*
X77208Y-16492D01*
X77133Y-16492D01*
X76739Y-16492D01*
X76669Y-16520D01*
X76663Y-16527D01*
X76663Y-16483D01*
X76604Y-16483D01*
X76663Y-16425D01*
X76663Y-16378D01*
X76626Y-16290D01*
X76558Y-16222D01*
X76470Y-16186D01*
X76375Y-16186D01*
X76346Y-16186D01*
X76286Y-16246D01*
X76286Y-16485D01*
X76293Y-16485D01*
X76293Y-16603D01*
X76286Y-16603D01*
X76286Y-16611D01*
X76166Y-16611D01*
X76166Y-16603D01*
X76166Y-16485D01*
X76166Y-16246D01*
X76106Y-16186D01*
X76076Y-16186D01*
X75981Y-16186D01*
X75893Y-16222D01*
X75825Y-16290D01*
X75789Y-16378D01*
X75789Y-16425D01*
X75849Y-16485D01*
X76166Y-16485D01*
X76166Y-16603D01*
X75849Y-16603D01*
X75789Y-16663D01*
X75789Y-16709D01*
X75825Y-16797D01*
X75833Y-16806D01*
X75737Y-16806D01*
X75710Y-16788D01*
X75600Y-16766D01*
X75489Y-16788D01*
X75462Y-16806D01*
X75183Y-16806D01*
X75228Y-16760D01*
X75265Y-16672D01*
X75265Y-16620D01*
X75265Y-16380D01*
X75265Y-16327D01*
X75228Y-16239D01*
X75160Y-16171D01*
X75072Y-16135D01*
X74977Y-16135D01*
X74920Y-16135D01*
X74860Y-16195D01*
X74860Y-16440D01*
X75205Y-16440D01*
X75265Y-16380D01*
X75265Y-16620D01*
X75205Y-16560D01*
X74860Y-16560D01*
X74860Y-16567D01*
X74740Y-16567D01*
X74740Y-16560D01*
X74740Y-16440D01*
X74740Y-16195D01*
X74680Y-16135D01*
X74622Y-16135D01*
X74527Y-16135D01*
X74439Y-16171D01*
X74371Y-16239D01*
X74335Y-16327D01*
X74335Y-16380D01*
X74395Y-16440D01*
X74740Y-16440D01*
X74740Y-16560D01*
X74395Y-16560D01*
X74335Y-16620D01*
X74335Y-16672D01*
X74371Y-16760D01*
X74439Y-16828D01*
X74448Y-16832D01*
X74413Y-16867D01*
X74385Y-16937D01*
X74385Y-17012D01*
X74385Y-17262D01*
X74413Y-17332D01*
X74467Y-17386D01*
X74537Y-17415D01*
X74612Y-17415D01*
X75062Y-17415D01*
X75132Y-17386D01*
X75186Y-17332D01*
X75197Y-17306D01*
X75243Y-17306D01*
X75235Y-17327D01*
X75234Y-17472D01*
X75290Y-17606D01*
X75310Y-17626D01*
X75310Y-17800D01*
X75310Y-17900D01*
X75310Y-18400D01*
X75332Y-18510D01*
X75394Y-18605D01*
X75489Y-18667D01*
X75600Y-18690D01*
X75710Y-18667D01*
X75805Y-18605D01*
X75867Y-18510D01*
X75890Y-18400D01*
X75890Y-17900D01*
X75890Y-17800D01*
X75890Y-17626D01*
X75909Y-17607D01*
X75964Y-17472D01*
X75965Y-17353D01*
X75991Y-17364D01*
X76066Y-17364D01*
X76460Y-17364D01*
X76530Y-17335D01*
X76584Y-17281D01*
X76613Y-17211D01*
X76613Y-17136D01*
X76613Y-17018D01*
X76615Y-17025D01*
X76669Y-17079D01*
X76739Y-17108D01*
X76814Y-17108D01*
X77208Y-17108D01*
X77252Y-17090D01*
X77800Y-17090D01*
X79079Y-17090D01*
X80594Y-18605D01*
X80689Y-18667D01*
X80800Y-18690D01*
X81176Y-18690D01*
X81176Y-18811D01*
X81204Y-18881D01*
X81258Y-18935D01*
X81328Y-18964D01*
X81403Y-18964D01*
X81867Y-18964D01*
X81867Y-19016D01*
X81848Y-19035D01*
X80400Y-19035D01*
X80400Y-19034D01*
X80260Y-19062D01*
X80141Y-19141D01*
X79913Y-19370D01*
X79913Y-18821D01*
X79913Y-18726D01*
X79913Y-18520D01*
X79913Y-18280D01*
X79913Y-18073D01*
X79913Y-17978D01*
X79876Y-17890D01*
X79808Y-17822D01*
X79720Y-17786D01*
X78927Y-17786D01*
X78867Y-17846D01*
X78867Y-18340D01*
X79853Y-18340D01*
X79913Y-18280D01*
X79913Y-18520D01*
X79853Y-18460D01*
X78867Y-18460D01*
X78867Y-18954D01*
X78927Y-19014D01*
X79720Y-19014D01*
X79808Y-18977D01*
X79876Y-18909D01*
X79913Y-18821D01*
X79913Y-19370D01*
X78747Y-20536D01*
X78747Y-18954D01*
X78747Y-18460D01*
X78747Y-18340D01*
X78747Y-17846D01*
X78687Y-17786D01*
X77893Y-17786D01*
X77805Y-17822D01*
X77737Y-17890D01*
X77701Y-17978D01*
X77701Y-18073D01*
X77701Y-18280D01*
X77761Y-18340D01*
X78747Y-18340D01*
X78747Y-18460D01*
X77761Y-18460D01*
X77701Y-18520D01*
X77701Y-18726D01*
X77701Y-18821D01*
X77737Y-18909D01*
X77805Y-18977D01*
X77893Y-19014D01*
X78687Y-19014D01*
X78747Y-18954D01*
X78747Y-20536D01*
X75048Y-24235D01*
X74700Y-24235D01*
X74565Y-24235D01*
X74565Y-22827D01*
X74509Y-22693D01*
X74407Y-22590D01*
X74272Y-22535D01*
X74127Y-22534D01*
X73993Y-22590D01*
X73913Y-22670D01*
X73586Y-22670D01*
X73507Y-22590D01*
X73372Y-22535D01*
X73227Y-22534D01*
X73093Y-22590D01*
X72990Y-22692D01*
X72935Y-22827D01*
X72934Y-22972D01*
X72990Y-23106D01*
X73092Y-23209D01*
X73227Y-23264D01*
X73372Y-23265D01*
X73506Y-23209D01*
X73586Y-23130D01*
X73913Y-23130D01*
X73992Y-23209D01*
X74127Y-23264D01*
X74272Y-23265D01*
X74406Y-23209D01*
X74509Y-23107D01*
X74564Y-22972D01*
X74565Y-22827D01*
X74565Y-24235D01*
X74400Y-24235D01*
X74100Y-24235D01*
X73960Y-24262D01*
X73841Y-24341D01*
X73762Y-24460D01*
X73735Y-24600D01*
X73762Y-24739D01*
X73841Y-24858D01*
X73892Y-24891D01*
X73790Y-24992D01*
X73735Y-25127D01*
X73734Y-25272D01*
X73735Y-25272D01*
X73735Y-25800D01*
X73762Y-25939D01*
X73841Y-26058D01*
X73960Y-26137D01*
X74100Y-26165D01*
X74400Y-26165D01*
X74700Y-26165D01*
X74839Y-26137D01*
X74958Y-26058D01*
X75037Y-25939D01*
X75065Y-25800D01*
X75065Y-25200D01*
X75065Y-24981D01*
X75595Y-25511D01*
X75595Y-31670D01*
X75595Y-37730D01*
X75595Y-42940D01*
X75622Y-43079D01*
X75701Y-43198D01*
X76501Y-43998D01*
X76521Y-44018D01*
X76640Y-44097D01*
X76780Y-44125D01*
X76919Y-44097D01*
X77020Y-44030D01*
X82640Y-44030D01*
X82640Y-44441D01*
X82613Y-44467D01*
X82585Y-44537D01*
X82585Y-44612D01*
X82585Y-44862D01*
X82613Y-44932D01*
X82648Y-44967D01*
X82639Y-44971D01*
X82571Y-45039D01*
X82535Y-45127D01*
X82535Y-45180D01*
X82595Y-45240D01*
X82940Y-45240D01*
X82940Y-45232D01*
X83060Y-45232D01*
X83060Y-45240D01*
X83405Y-45240D01*
X83465Y-45180D01*
X83465Y-45127D01*
X83428Y-45039D01*
X83360Y-44971D01*
X83351Y-44967D01*
X83386Y-44932D01*
X83415Y-44862D01*
X83415Y-44787D01*
X83415Y-44537D01*
X83386Y-44467D01*
X83332Y-44413D01*
X83262Y-44385D01*
X83220Y-44385D01*
X83220Y-44030D01*
X84673Y-44030D01*
X84692Y-44049D01*
X84827Y-44104D01*
X84972Y-44105D01*
X85106Y-44049D01*
X85209Y-43947D01*
X85264Y-43812D01*
X85265Y-43667D01*
X85209Y-43533D01*
X85107Y-43430D01*
X84972Y-43375D01*
X84827Y-43374D01*
X84693Y-43430D01*
X84673Y-43450D01*
X82930Y-43450D01*
X80940Y-43450D01*
X80940Y-39813D01*
X80797Y-39468D01*
X80533Y-39203D01*
X80187Y-39060D01*
X79813Y-39059D01*
X79468Y-39202D01*
X79203Y-39466D01*
X79060Y-39812D01*
X79059Y-40186D01*
X79202Y-40531D01*
X79466Y-40796D01*
X79812Y-40939D01*
X80186Y-40940D01*
X80531Y-40797D01*
X80796Y-40533D01*
X80939Y-40187D01*
X80940Y-39813D01*
X80940Y-43450D01*
X78940Y-43450D01*
X78940Y-39813D01*
X78797Y-39468D01*
X78533Y-39203D01*
X78187Y-39060D01*
X77813Y-39059D01*
X77468Y-39202D01*
X77203Y-39466D01*
X77060Y-39812D01*
X77059Y-40186D01*
X77202Y-40531D01*
X77466Y-40796D01*
X77812Y-40939D01*
X78186Y-40940D01*
X78531Y-40797D01*
X78796Y-40533D01*
X78939Y-40187D01*
X78940Y-39813D01*
X78940Y-43450D01*
X76986Y-43450D01*
X76325Y-42788D01*
X76325Y-37960D01*
X82690Y-37960D01*
X82690Y-38404D01*
X82667Y-38413D01*
X82613Y-38467D01*
X82585Y-38537D01*
X82585Y-38612D01*
X82585Y-38862D01*
X82613Y-38932D01*
X82648Y-38967D01*
X82639Y-38971D01*
X82571Y-39039D01*
X82535Y-39127D01*
X82535Y-39180D01*
X82595Y-39240D01*
X82940Y-39240D01*
X82940Y-39232D01*
X83060Y-39232D01*
X83060Y-39240D01*
X83405Y-39240D01*
X83465Y-39180D01*
X83465Y-39127D01*
X83428Y-39039D01*
X83360Y-38971D01*
X83351Y-38967D01*
X83386Y-38932D01*
X83415Y-38862D01*
X83415Y-38787D01*
X83415Y-38537D01*
X83386Y-38467D01*
X83332Y-38413D01*
X83270Y-38387D01*
X83270Y-37960D01*
X84633Y-37960D01*
X84652Y-37979D01*
X84787Y-38034D01*
X84932Y-38035D01*
X85066Y-37979D01*
X85169Y-37877D01*
X85224Y-37742D01*
X85225Y-37597D01*
X85169Y-37463D01*
X85067Y-37360D01*
X84932Y-37305D01*
X84787Y-37304D01*
X84653Y-37360D01*
X84633Y-37380D01*
X82980Y-37380D01*
X80940Y-37380D01*
X80940Y-33813D01*
X80797Y-33468D01*
X80533Y-33203D01*
X80187Y-33060D01*
X79813Y-33059D01*
X79468Y-33202D01*
X79203Y-33466D01*
X79060Y-33812D01*
X79059Y-34186D01*
X79202Y-34531D01*
X79466Y-34796D01*
X79812Y-34939D01*
X80186Y-34940D01*
X80531Y-34797D01*
X80796Y-34533D01*
X80939Y-34187D01*
X80940Y-33813D01*
X80940Y-37380D01*
X78940Y-37380D01*
X78940Y-33813D01*
X78797Y-33468D01*
X78533Y-33203D01*
X78187Y-33060D01*
X77813Y-33059D01*
X77468Y-33202D01*
X77203Y-33466D01*
X77060Y-33812D01*
X77059Y-34186D01*
X77202Y-34531D01*
X77466Y-34796D01*
X77812Y-34939D01*
X78186Y-34940D01*
X78531Y-34797D01*
X78796Y-34533D01*
X78939Y-34187D01*
X78940Y-33813D01*
X78940Y-37380D01*
X76325Y-37380D01*
X76325Y-31940D01*
X82690Y-31940D01*
X82690Y-32404D01*
X82667Y-32413D01*
X82613Y-32467D01*
X82585Y-32537D01*
X82585Y-32612D01*
X82585Y-32862D01*
X82613Y-32932D01*
X82648Y-32967D01*
X82639Y-32971D01*
X82571Y-33039D01*
X82535Y-33127D01*
X82535Y-33180D01*
X82595Y-33240D01*
X82940Y-33240D01*
X82940Y-33232D01*
X83060Y-33232D01*
X83060Y-33240D01*
X83405Y-33240D01*
X83465Y-33180D01*
X83465Y-33127D01*
X83428Y-33039D01*
X83360Y-32971D01*
X83351Y-32967D01*
X83386Y-32932D01*
X83415Y-32862D01*
X83415Y-32787D01*
X83415Y-32537D01*
X83386Y-32467D01*
X83332Y-32413D01*
X83270Y-32387D01*
X83270Y-31940D01*
X84493Y-31940D01*
X84512Y-31959D01*
X84647Y-32014D01*
X84792Y-32015D01*
X84926Y-31959D01*
X85029Y-31857D01*
X85084Y-31722D01*
X85085Y-31577D01*
X85029Y-31443D01*
X84927Y-31340D01*
X84792Y-31285D01*
X84647Y-31284D01*
X84513Y-31340D01*
X84493Y-31360D01*
X82980Y-31360D01*
X80940Y-31360D01*
X80940Y-27813D01*
X80797Y-27468D01*
X80533Y-27203D01*
X80415Y-27154D01*
X80415Y-23238D01*
X80291Y-22938D01*
X80062Y-22709D01*
X79762Y-22585D01*
X79438Y-22584D01*
X79138Y-22708D01*
X78909Y-22937D01*
X78785Y-23237D01*
X78784Y-23561D01*
X78908Y-23861D01*
X79137Y-24090D01*
X79437Y-24214D01*
X79761Y-24215D01*
X80061Y-24091D01*
X80290Y-23862D01*
X80414Y-23562D01*
X80415Y-23238D01*
X80415Y-27154D01*
X80187Y-27060D01*
X79813Y-27059D01*
X79468Y-27202D01*
X79203Y-27466D01*
X79060Y-27812D01*
X79059Y-28186D01*
X79202Y-28531D01*
X79466Y-28796D01*
X79812Y-28939D01*
X80186Y-28940D01*
X80531Y-28797D01*
X80796Y-28533D01*
X80939Y-28187D01*
X80940Y-27813D01*
X80940Y-31360D01*
X78940Y-31360D01*
X78940Y-27813D01*
X78797Y-27468D01*
X78533Y-27203D01*
X78187Y-27060D01*
X77813Y-27059D01*
X77468Y-27202D01*
X77203Y-27466D01*
X77060Y-27812D01*
X77059Y-28186D01*
X77202Y-28531D01*
X77466Y-28796D01*
X77812Y-28939D01*
X78186Y-28940D01*
X78531Y-28797D01*
X78796Y-28533D01*
X78939Y-28187D01*
X78940Y-27813D01*
X78940Y-31360D01*
X76325Y-31360D01*
X76325Y-25360D01*
X76325Y-25360D01*
X76325Y-25360D01*
X76325Y-25359D01*
X76325Y-25300D01*
X76297Y-25160D01*
X76218Y-25041D01*
X76099Y-24962D01*
X76073Y-24957D01*
X75716Y-24600D01*
X80551Y-19765D01*
X82000Y-19765D01*
X82139Y-19737D01*
X82258Y-19658D01*
X82490Y-19426D01*
X82569Y-19307D01*
X82597Y-19168D01*
X82597Y-19168D01*
X82597Y-19167D01*
X82597Y-18964D01*
X83135Y-18964D01*
X83205Y-18935D01*
X83250Y-18890D01*
X83600Y-18890D01*
X83787Y-18852D01*
X83787Y-18852D01*
X83946Y-18746D01*
X84202Y-18490D01*
X86310Y-18490D01*
X86310Y-18537D01*
X86338Y-18607D01*
X86392Y-18661D01*
X86462Y-18690D01*
X86537Y-18690D01*
X87537Y-18690D01*
X87607Y-18661D01*
X87661Y-18607D01*
X87690Y-18537D01*
X87690Y-18490D01*
X88300Y-18490D01*
X88487Y-18452D01*
X88487Y-18452D01*
X88646Y-18346D01*
X89216Y-17776D01*
X89322Y-17617D01*
X89322Y-17617D01*
X89360Y-17429D01*
X89360Y-13772D01*
X89498Y-13772D01*
X89568Y-13743D01*
X89621Y-13690D01*
X89650Y-13620D01*
X89650Y-49735D01*
X89187Y-49735D01*
X89187Y-28223D01*
X89182Y-27751D01*
X89011Y-27339D01*
X88853Y-27231D01*
X88768Y-27316D01*
X88768Y-27146D01*
X88660Y-26988D01*
X88223Y-26812D01*
X87889Y-26816D01*
X88061Y-26643D01*
X88234Y-26226D01*
X88235Y-25775D01*
X88062Y-25357D01*
X87745Y-25039D01*
X87745Y-21117D01*
X87733Y-20823D01*
X87643Y-20606D01*
X87531Y-20553D01*
X87446Y-20638D01*
X87446Y-20468D01*
X87393Y-20356D01*
X87117Y-20254D01*
X86823Y-20266D01*
X86606Y-20356D01*
X86553Y-20468D01*
X87000Y-20915D01*
X87446Y-20468D01*
X87446Y-20638D01*
X87084Y-21000D01*
X87531Y-21446D01*
X87643Y-21393D01*
X87745Y-21117D01*
X87745Y-25039D01*
X87743Y-25038D01*
X87690Y-25016D01*
X87690Y-23537D01*
X87690Y-23462D01*
X87690Y-22462D01*
X87661Y-22392D01*
X87607Y-22338D01*
X87537Y-22310D01*
X87462Y-22310D01*
X87446Y-22310D01*
X87446Y-21531D01*
X87000Y-21084D01*
X86915Y-21169D01*
X86915Y-21000D01*
X86468Y-20553D01*
X86356Y-20606D01*
X86254Y-20882D01*
X86266Y-21176D01*
X86356Y-21393D01*
X86468Y-21446D01*
X86915Y-21000D01*
X86915Y-21169D01*
X86553Y-21531D01*
X86606Y-21643D01*
X86882Y-21745D01*
X87176Y-21733D01*
X87393Y-21643D01*
X87446Y-21531D01*
X87446Y-22310D01*
X86462Y-22310D01*
X86392Y-22338D01*
X86338Y-22392D01*
X86310Y-22462D01*
X86310Y-22537D01*
X86310Y-23537D01*
X86338Y-23607D01*
X86392Y-23661D01*
X86462Y-23690D01*
X86537Y-23690D01*
X87537Y-23690D01*
X87607Y-23661D01*
X87661Y-23607D01*
X87690Y-23537D01*
X87690Y-25016D01*
X87326Y-24865D01*
X86875Y-24864D01*
X86457Y-25037D01*
X86138Y-25356D01*
X85965Y-25773D01*
X85964Y-26224D01*
X86137Y-26642D01*
X86359Y-26865D01*
X84617Y-26865D01*
X84547Y-26893D01*
X84493Y-26947D01*
X84465Y-27017D01*
X84465Y-27092D01*
X84465Y-28982D01*
X84493Y-29052D01*
X84547Y-29106D01*
X84617Y-29135D01*
X84692Y-29135D01*
X86582Y-29135D01*
X86652Y-29106D01*
X86706Y-29052D01*
X86735Y-28982D01*
X86735Y-28907D01*
X86735Y-27077D01*
X86873Y-27134D01*
X87239Y-27135D01*
X87231Y-27146D01*
X88000Y-27915D01*
X88768Y-27146D01*
X88768Y-27316D01*
X88084Y-28000D01*
X88853Y-28768D01*
X89011Y-28660D01*
X89187Y-28223D01*
X89187Y-49735D01*
X88820Y-49735D01*
X88820Y-47837D01*
X88820Y-43837D01*
X88820Y-41837D01*
X88820Y-37837D01*
X88820Y-35837D01*
X88820Y-31837D01*
X88768Y-31712D01*
X88768Y-28853D01*
X88000Y-28084D01*
X87915Y-28169D01*
X87915Y-28000D01*
X87146Y-27231D01*
X86988Y-27339D01*
X86812Y-27776D01*
X86817Y-28248D01*
X86988Y-28660D01*
X87146Y-28768D01*
X87915Y-28000D01*
X87915Y-28169D01*
X87231Y-28853D01*
X87339Y-29011D01*
X87776Y-29187D01*
X88248Y-29182D01*
X88660Y-29011D01*
X88768Y-28853D01*
X88768Y-31712D01*
X88695Y-31536D01*
X88465Y-31305D01*
X88163Y-31180D01*
X87837Y-31179D01*
X87536Y-31304D01*
X87305Y-31534D01*
X87180Y-31836D01*
X87179Y-32162D01*
X87304Y-32463D01*
X87534Y-32694D01*
X87836Y-32819D01*
X88162Y-32820D01*
X88463Y-32695D01*
X88694Y-32465D01*
X88819Y-32163D01*
X88820Y-31837D01*
X88820Y-35837D01*
X88695Y-35536D01*
X88465Y-35305D01*
X88163Y-35180D01*
X87837Y-35179D01*
X87536Y-35304D01*
X87305Y-35534D01*
X87180Y-35836D01*
X87179Y-36162D01*
X87304Y-36463D01*
X87534Y-36694D01*
X87836Y-36819D01*
X88162Y-36820D01*
X88463Y-36695D01*
X88694Y-36465D01*
X88819Y-36163D01*
X88820Y-35837D01*
X88820Y-37837D01*
X88695Y-37536D01*
X88465Y-37305D01*
X88163Y-37180D01*
X87837Y-37179D01*
X87536Y-37304D01*
X87305Y-37534D01*
X87180Y-37836D01*
X87179Y-38162D01*
X87304Y-38463D01*
X87534Y-38694D01*
X87836Y-38819D01*
X88162Y-38820D01*
X88463Y-38695D01*
X88694Y-38465D01*
X88819Y-38163D01*
X88820Y-37837D01*
X88820Y-41837D01*
X88695Y-41536D01*
X88465Y-41305D01*
X88163Y-41180D01*
X87837Y-41179D01*
X87536Y-41304D01*
X87305Y-41534D01*
X87180Y-41836D01*
X87179Y-42162D01*
X87304Y-42463D01*
X87534Y-42694D01*
X87836Y-42819D01*
X88162Y-42820D01*
X88463Y-42695D01*
X88694Y-42465D01*
X88819Y-42163D01*
X88820Y-41837D01*
X88820Y-43837D01*
X88695Y-43536D01*
X88465Y-43305D01*
X88163Y-43180D01*
X87837Y-43179D01*
X87536Y-43304D01*
X87305Y-43534D01*
X87180Y-43836D01*
X87179Y-44162D01*
X87304Y-44463D01*
X87534Y-44694D01*
X87836Y-44819D01*
X88162Y-44820D01*
X88463Y-44695D01*
X88694Y-44465D01*
X88819Y-44163D01*
X88820Y-43837D01*
X88820Y-47837D01*
X88695Y-47536D01*
X88465Y-47305D01*
X88163Y-47180D01*
X87837Y-47179D01*
X87536Y-47304D01*
X87305Y-47534D01*
X87180Y-47836D01*
X87179Y-48162D01*
X87304Y-48463D01*
X87534Y-48694D01*
X87836Y-48819D01*
X88162Y-48820D01*
X88463Y-48695D01*
X88694Y-48465D01*
X88819Y-48163D01*
X88820Y-47837D01*
X88820Y-49735D01*
X86100Y-49735D01*
X86100Y-46832D01*
X86100Y-40832D01*
X86100Y-34832D01*
X86086Y-34596D01*
X86044Y-34495D01*
X86044Y-33642D01*
X85961Y-33442D01*
X85808Y-33288D01*
X85608Y-33205D01*
X85392Y-33205D01*
X85192Y-33288D01*
X85038Y-33441D01*
X84955Y-33641D01*
X84955Y-33857D01*
X85038Y-34057D01*
X85077Y-34097D01*
X85040Y-34133D01*
X84961Y-33942D01*
X84808Y-33788D01*
X84715Y-33750D01*
X84807Y-33711D01*
X84961Y-33558D01*
X85044Y-33358D01*
X85044Y-33142D01*
X84961Y-32942D01*
X84808Y-32788D01*
X84608Y-32705D01*
X84392Y-32705D01*
X84192Y-32788D01*
X84038Y-32941D01*
X83955Y-33141D01*
X83955Y-33357D01*
X84038Y-33557D01*
X84191Y-33711D01*
X84284Y-33749D01*
X84192Y-33788D01*
X84038Y-33941D01*
X84006Y-34020D01*
X83465Y-34020D01*
X83465Y-33472D01*
X83465Y-33420D01*
X83405Y-33360D01*
X83060Y-33360D01*
X83060Y-33605D01*
X83120Y-33665D01*
X83177Y-33665D01*
X83272Y-33665D01*
X83360Y-33628D01*
X83428Y-33560D01*
X83465Y-33472D01*
X83465Y-34020D01*
X83407Y-34020D01*
X83386Y-33967D01*
X83332Y-33913D01*
X83262Y-33885D01*
X83187Y-33885D01*
X82940Y-33885D01*
X82940Y-33605D01*
X82940Y-33360D01*
X82595Y-33360D01*
X82535Y-33420D01*
X82535Y-33472D01*
X82571Y-33560D01*
X82639Y-33628D01*
X82727Y-33665D01*
X82822Y-33665D01*
X82880Y-33665D01*
X82940Y-33605D01*
X82940Y-33885D01*
X82737Y-33885D01*
X82667Y-33913D01*
X82613Y-33967D01*
X82585Y-34037D01*
X82585Y-34112D01*
X82585Y-34362D01*
X82613Y-34432D01*
X82667Y-34486D01*
X82700Y-34499D01*
X82667Y-34513D01*
X82613Y-34567D01*
X82585Y-34637D01*
X82585Y-34712D01*
X82585Y-34962D01*
X82613Y-35032D01*
X82667Y-35086D01*
X82737Y-35115D01*
X82812Y-35115D01*
X83262Y-35115D01*
X83332Y-35086D01*
X83386Y-35032D01*
X83387Y-35030D01*
X84700Y-35030D01*
X84788Y-35012D01*
X84788Y-35012D01*
X84862Y-34962D01*
X84916Y-34909D01*
X84976Y-35055D01*
X85073Y-35091D01*
X85415Y-34750D01*
X85409Y-34744D01*
X85494Y-34659D01*
X85500Y-34665D01*
X85841Y-34323D01*
X85805Y-34226D01*
X85787Y-34220D01*
X85807Y-34211D01*
X85961Y-34058D01*
X86044Y-33858D01*
X86044Y-33642D01*
X86044Y-34495D01*
X86023Y-34444D01*
X85926Y-34408D01*
X85584Y-34750D01*
X85926Y-35091D01*
X86023Y-35055D01*
X86100Y-34832D01*
X86100Y-40832D01*
X86086Y-40596D01*
X86044Y-40495D01*
X86044Y-39642D01*
X85961Y-39442D01*
X85841Y-39321D01*
X85841Y-35176D01*
X85500Y-34834D01*
X85158Y-35176D01*
X85194Y-35273D01*
X85417Y-35350D01*
X85653Y-35336D01*
X85805Y-35273D01*
X85841Y-35176D01*
X85841Y-39321D01*
X85808Y-39288D01*
X85608Y-39205D01*
X85392Y-39205D01*
X85192Y-39288D01*
X85038Y-39441D01*
X84955Y-39641D01*
X84955Y-39857D01*
X85038Y-40057D01*
X85077Y-40097D01*
X85040Y-40133D01*
X84961Y-39942D01*
X84808Y-39788D01*
X84715Y-39750D01*
X84807Y-39711D01*
X84961Y-39558D01*
X85044Y-39358D01*
X85044Y-39142D01*
X84961Y-38942D01*
X84808Y-38788D01*
X84608Y-38705D01*
X84392Y-38705D01*
X84192Y-38788D01*
X84038Y-38941D01*
X83955Y-39141D01*
X83955Y-39357D01*
X84038Y-39557D01*
X84191Y-39711D01*
X84284Y-39749D01*
X84192Y-39788D01*
X84038Y-39941D01*
X84006Y-40020D01*
X83465Y-40020D01*
X83465Y-39472D01*
X83465Y-39420D01*
X83405Y-39360D01*
X83060Y-39360D01*
X83060Y-39605D01*
X83120Y-39665D01*
X83177Y-39665D01*
X83272Y-39665D01*
X83360Y-39628D01*
X83428Y-39560D01*
X83465Y-39472D01*
X83465Y-40020D01*
X83407Y-40020D01*
X83386Y-39967D01*
X83332Y-39913D01*
X83262Y-39885D01*
X83187Y-39885D01*
X82940Y-39885D01*
X82940Y-39605D01*
X82940Y-39360D01*
X82595Y-39360D01*
X82535Y-39420D01*
X82535Y-39472D01*
X82571Y-39560D01*
X82639Y-39628D01*
X82727Y-39665D01*
X82822Y-39665D01*
X82880Y-39665D01*
X82940Y-39605D01*
X82940Y-39885D01*
X82737Y-39885D01*
X82667Y-39913D01*
X82613Y-39967D01*
X82585Y-40037D01*
X82585Y-40112D01*
X82585Y-40362D01*
X82613Y-40432D01*
X82667Y-40486D01*
X82700Y-40499D01*
X82667Y-40513D01*
X82613Y-40567D01*
X82585Y-40637D01*
X82585Y-40712D01*
X82585Y-40962D01*
X82613Y-41032D01*
X82667Y-41086D01*
X82737Y-41115D01*
X82812Y-41115D01*
X83262Y-41115D01*
X83332Y-41086D01*
X83386Y-41032D01*
X83387Y-41030D01*
X84700Y-41030D01*
X84788Y-41012D01*
X84788Y-41012D01*
X84862Y-40962D01*
X84916Y-40909D01*
X84976Y-41055D01*
X85073Y-41091D01*
X85415Y-40750D01*
X85409Y-40744D01*
X85494Y-40659D01*
X85500Y-40665D01*
X85841Y-40323D01*
X85805Y-40226D01*
X85787Y-40220D01*
X85807Y-40211D01*
X85961Y-40058D01*
X86044Y-39858D01*
X86044Y-39642D01*
X86044Y-40495D01*
X86023Y-40444D01*
X85926Y-40408D01*
X85584Y-40750D01*
X85926Y-41091D01*
X86023Y-41055D01*
X86100Y-40832D01*
X86100Y-46832D01*
X86086Y-46596D01*
X86044Y-46495D01*
X86044Y-45642D01*
X85961Y-45442D01*
X85841Y-45321D01*
X85841Y-41176D01*
X85500Y-40834D01*
X85158Y-41176D01*
X85194Y-41273D01*
X85417Y-41350D01*
X85653Y-41336D01*
X85805Y-41273D01*
X85841Y-41176D01*
X85841Y-45321D01*
X85808Y-45288D01*
X85608Y-45205D01*
X85392Y-45205D01*
X85192Y-45288D01*
X85038Y-45441D01*
X84955Y-45641D01*
X84955Y-45857D01*
X85038Y-46057D01*
X85077Y-46097D01*
X85040Y-46133D01*
X84961Y-45942D01*
X84808Y-45788D01*
X84715Y-45750D01*
X84807Y-45711D01*
X84961Y-45558D01*
X85044Y-45358D01*
X85044Y-45142D01*
X84961Y-44942D01*
X84808Y-44788D01*
X84608Y-44705D01*
X84392Y-44705D01*
X84192Y-44788D01*
X84038Y-44941D01*
X83955Y-45141D01*
X83955Y-45357D01*
X84038Y-45557D01*
X84191Y-45711D01*
X84284Y-45749D01*
X84192Y-45788D01*
X84038Y-45941D01*
X84026Y-45970D01*
X83465Y-45970D01*
X83465Y-45472D01*
X83465Y-45420D01*
X83405Y-45360D01*
X83060Y-45360D01*
X83060Y-45605D01*
X83120Y-45665D01*
X83177Y-45665D01*
X83272Y-45665D01*
X83360Y-45628D01*
X83428Y-45560D01*
X83465Y-45472D01*
X83465Y-45970D01*
X83387Y-45970D01*
X83386Y-45967D01*
X83332Y-45913D01*
X83262Y-45885D01*
X83187Y-45885D01*
X82940Y-45885D01*
X82940Y-45605D01*
X82940Y-45360D01*
X82595Y-45360D01*
X82535Y-45420D01*
X82535Y-45472D01*
X82571Y-45560D01*
X82639Y-45628D01*
X82727Y-45665D01*
X82822Y-45665D01*
X82880Y-45665D01*
X82940Y-45605D01*
X82940Y-45885D01*
X82737Y-45885D01*
X82667Y-45913D01*
X82613Y-45967D01*
X82585Y-46037D01*
X82585Y-46112D01*
X82585Y-46362D01*
X82613Y-46432D01*
X82667Y-46486D01*
X82700Y-46499D01*
X82667Y-46513D01*
X82613Y-46567D01*
X82585Y-46637D01*
X82585Y-46712D01*
X82585Y-46962D01*
X82613Y-47032D01*
X82667Y-47086D01*
X82737Y-47115D01*
X82812Y-47115D01*
X83262Y-47115D01*
X83332Y-47086D01*
X83386Y-47032D01*
X83387Y-47030D01*
X84700Y-47030D01*
X84788Y-47012D01*
X84788Y-47012D01*
X84862Y-46962D01*
X84916Y-46909D01*
X84976Y-47055D01*
X85073Y-47091D01*
X85415Y-46750D01*
X85409Y-46744D01*
X85494Y-46659D01*
X85500Y-46665D01*
X85841Y-46323D01*
X85805Y-46226D01*
X85787Y-46220D01*
X85807Y-46211D01*
X85961Y-46058D01*
X86044Y-45858D01*
X86044Y-45642D01*
X86044Y-46495D01*
X86023Y-46444D01*
X85926Y-46408D01*
X85584Y-46750D01*
X85926Y-47091D01*
X86023Y-47055D01*
X86100Y-46832D01*
X86100Y-49735D01*
X85841Y-49735D01*
X85841Y-47176D01*
X85500Y-46834D01*
X85158Y-47176D01*
X85194Y-47273D01*
X85417Y-47350D01*
X85653Y-47336D01*
X85805Y-47273D01*
X85841Y-47176D01*
X85841Y-49735D01*
X80940Y-49735D01*
X80940Y-45813D01*
X80797Y-45468D01*
X80533Y-45203D01*
X80187Y-45060D01*
X79813Y-45059D01*
X79468Y-45202D01*
X79203Y-45466D01*
X79060Y-45812D01*
X79059Y-46186D01*
X79202Y-46531D01*
X79466Y-46796D01*
X79812Y-46939D01*
X80186Y-46940D01*
X80531Y-46797D01*
X80796Y-46533D01*
X80939Y-46187D01*
X80940Y-45813D01*
X80940Y-49735D01*
X78940Y-49735D01*
X78940Y-45813D01*
X78797Y-45468D01*
X78533Y-45203D01*
X78187Y-45060D01*
X77813Y-45059D01*
X77468Y-45202D01*
X77203Y-45466D01*
X77060Y-45812D01*
X77059Y-46186D01*
X77202Y-46531D01*
X77466Y-46796D01*
X77812Y-46939D01*
X78186Y-46940D01*
X78531Y-46797D01*
X78796Y-46533D01*
X78939Y-46187D01*
X78940Y-45813D01*
X78940Y-49735D01*
X75290Y-49735D01*
X52820Y-49735D01*
X52820Y-47837D01*
X52820Y-43837D01*
X52820Y-41837D01*
X52820Y-37837D01*
X52820Y-35837D01*
X52820Y-31837D01*
X52820Y-29837D01*
X52820Y-25837D01*
X52695Y-25536D01*
X52465Y-25305D01*
X52163Y-25180D01*
X51837Y-25179D01*
X51536Y-25304D01*
X51305Y-25534D01*
X51180Y-25836D01*
X51179Y-26162D01*
X51304Y-26463D01*
X51534Y-26694D01*
X51836Y-26819D01*
X52162Y-26820D01*
X52463Y-26695D01*
X52694Y-26465D01*
X52819Y-26163D01*
X52820Y-25837D01*
X52820Y-29837D01*
X52695Y-29536D01*
X52465Y-29305D01*
X52163Y-29180D01*
X51837Y-29179D01*
X51536Y-29304D01*
X51305Y-29534D01*
X51180Y-29836D01*
X51179Y-30162D01*
X51304Y-30463D01*
X51534Y-30694D01*
X51836Y-30819D01*
X52162Y-30820D01*
X52463Y-30695D01*
X52694Y-30465D01*
X52819Y-30163D01*
X52820Y-29837D01*
X52820Y-31837D01*
X52695Y-31536D01*
X52465Y-31305D01*
X52163Y-31180D01*
X51837Y-31179D01*
X51536Y-31304D01*
X51305Y-31534D01*
X51180Y-31836D01*
X51179Y-32162D01*
X51304Y-32463D01*
X51534Y-32694D01*
X51836Y-32819D01*
X52162Y-32820D01*
X52463Y-32695D01*
X52694Y-32465D01*
X52819Y-32163D01*
X52820Y-31837D01*
X52820Y-35837D01*
X52695Y-35536D01*
X52465Y-35305D01*
X52163Y-35180D01*
X51837Y-35179D01*
X51536Y-35304D01*
X51305Y-35534D01*
X51180Y-35836D01*
X51179Y-36162D01*
X51304Y-36463D01*
X51534Y-36694D01*
X51836Y-36819D01*
X52162Y-36820D01*
X52463Y-36695D01*
X52694Y-36465D01*
X52819Y-36163D01*
X52820Y-35837D01*
X52820Y-37837D01*
X52695Y-37536D01*
X52465Y-37305D01*
X52163Y-37180D01*
X51837Y-37179D01*
X51536Y-37304D01*
X51305Y-37534D01*
X51180Y-37836D01*
X51179Y-38162D01*
X51304Y-38463D01*
X51534Y-38694D01*
X51836Y-38819D01*
X52162Y-38820D01*
X52463Y-38695D01*
X52694Y-38465D01*
X52819Y-38163D01*
X52820Y-37837D01*
X52820Y-41837D01*
X52695Y-41536D01*
X52465Y-41305D01*
X52163Y-41180D01*
X51837Y-41179D01*
X51536Y-41304D01*
X51305Y-41534D01*
X51180Y-41836D01*
X51179Y-42162D01*
X51304Y-42463D01*
X51534Y-42694D01*
X51836Y-42819D01*
X52162Y-42820D01*
X52463Y-42695D01*
X52694Y-42465D01*
X52819Y-42163D01*
X52820Y-41837D01*
X52820Y-43837D01*
X52695Y-43536D01*
X52465Y-43305D01*
X52163Y-43180D01*
X51837Y-43179D01*
X51536Y-43304D01*
X51305Y-43534D01*
X51180Y-43836D01*
X51179Y-44162D01*
X51304Y-44463D01*
X51534Y-44694D01*
X51836Y-44819D01*
X52162Y-44820D01*
X52463Y-44695D01*
X52694Y-44465D01*
X52819Y-44163D01*
X52820Y-43837D01*
X52820Y-47837D01*
X52695Y-47536D01*
X52465Y-47305D01*
X52163Y-47180D01*
X51837Y-47179D01*
X51536Y-47304D01*
X51305Y-47534D01*
X51180Y-47836D01*
X51179Y-48162D01*
X51304Y-48463D01*
X51534Y-48694D01*
X51836Y-48819D01*
X52162Y-48820D01*
X52463Y-48695D01*
X52694Y-48465D01*
X52819Y-48163D01*
X52820Y-47837D01*
X52820Y-49735D01*
X50265Y-49735D01*
X50265Y-23761D01*
X50286Y-23814D01*
X50340Y-23868D01*
X50410Y-23897D01*
X50485Y-23897D01*
X50799Y-23897D01*
X50862Y-23870D01*
X50902Y-23910D01*
X50990Y-23947D01*
X51075Y-23947D01*
X51135Y-23887D01*
X51135Y-23610D01*
X51127Y-23610D01*
X51127Y-23490D01*
X51135Y-23490D01*
X51135Y-23482D01*
X51255Y-23482D01*
X51255Y-23490D01*
X51532Y-23490D01*
X51592Y-23430D01*
X51592Y-23345D01*
X51555Y-23257D01*
X51487Y-23189D01*
X51446Y-23172D01*
X51486Y-23132D01*
X51515Y-23062D01*
X51515Y-23030D01*
X54800Y-23030D01*
X54888Y-23012D01*
X54888Y-23012D01*
X54962Y-22962D01*
X55295Y-22630D01*
X55313Y-22630D01*
X55392Y-22709D01*
X55527Y-22764D01*
X55672Y-22765D01*
X55806Y-22709D01*
X55909Y-22607D01*
X55964Y-22472D01*
X55965Y-22327D01*
X55909Y-22193D01*
X55807Y-22090D01*
X55672Y-22035D01*
X55527Y-22034D01*
X55393Y-22090D01*
X55313Y-22170D01*
X55200Y-22170D01*
X55111Y-22187D01*
X55037Y-22237D01*
X54704Y-22570D01*
X51515Y-22570D01*
X51515Y-22537D01*
X51486Y-22467D01*
X51446Y-22427D01*
X51487Y-22410D01*
X51555Y-22342D01*
X51592Y-22254D01*
X51592Y-22170D01*
X51532Y-22110D01*
X51255Y-22110D01*
X51255Y-22117D01*
X51135Y-22117D01*
X51135Y-22110D01*
X51127Y-22110D01*
X51127Y-21990D01*
X51135Y-21990D01*
X51135Y-21982D01*
X51255Y-21982D01*
X51255Y-21990D01*
X51532Y-21990D01*
X51592Y-21930D01*
X51592Y-21845D01*
X51555Y-21757D01*
X51487Y-21689D01*
X51446Y-21672D01*
X51486Y-21632D01*
X51515Y-21562D01*
X51515Y-21530D01*
X54400Y-21530D01*
X54488Y-21512D01*
X54488Y-21512D01*
X54562Y-21462D01*
X56162Y-19862D01*
X56212Y-19788D01*
X56212Y-19788D01*
X56230Y-19700D01*
X56230Y-19486D01*
X56289Y-19426D01*
X56289Y-22114D01*
X56307Y-22202D01*
X56357Y-22277D01*
X59942Y-25862D01*
X60017Y-25912D01*
X60017Y-25912D01*
X60105Y-25930D01*
X63673Y-25930D01*
X63521Y-26081D01*
X63442Y-26200D01*
X63415Y-26340D01*
X63415Y-30070D01*
X62940Y-30070D01*
X62940Y-27813D01*
X62797Y-27468D01*
X62533Y-27203D01*
X62187Y-27060D01*
X61813Y-27059D01*
X61468Y-27202D01*
X61203Y-27466D01*
X61060Y-27812D01*
X61059Y-28186D01*
X61202Y-28531D01*
X61466Y-28796D01*
X61812Y-28939D01*
X62186Y-28940D01*
X62531Y-28797D01*
X62796Y-28533D01*
X62939Y-28187D01*
X62940Y-27813D01*
X62940Y-30070D01*
X60940Y-30070D01*
X60940Y-27813D01*
X60797Y-27468D01*
X60533Y-27203D01*
X60187Y-27060D01*
X59813Y-27059D01*
X59468Y-27202D01*
X59203Y-27466D01*
X59060Y-27812D01*
X59059Y-28186D01*
X59202Y-28531D01*
X59466Y-28796D01*
X59812Y-28939D01*
X60186Y-28940D01*
X60531Y-28797D01*
X60796Y-28533D01*
X60939Y-28187D01*
X60940Y-27813D01*
X60940Y-30070D01*
X58330Y-30070D01*
X58330Y-27100D01*
X58312Y-27011D01*
X58312Y-27011D01*
X58262Y-26937D01*
X55662Y-24337D01*
X55588Y-24287D01*
X55500Y-24270D01*
X51886Y-24270D01*
X51807Y-24190D01*
X51672Y-24135D01*
X51592Y-24134D01*
X51592Y-23754D01*
X51592Y-23670D01*
X51532Y-23610D01*
X51255Y-23610D01*
X51255Y-23887D01*
X51315Y-23947D01*
X51399Y-23947D01*
X51487Y-23910D01*
X51555Y-23842D01*
X51592Y-23754D01*
X51592Y-24134D01*
X51527Y-24134D01*
X51393Y-24190D01*
X51290Y-24292D01*
X51235Y-24427D01*
X51234Y-24572D01*
X51290Y-24706D01*
X51392Y-24809D01*
X51527Y-24864D01*
X51672Y-24865D01*
X51806Y-24809D01*
X51886Y-24730D01*
X55404Y-24730D01*
X57870Y-27195D01*
X57870Y-30070D01*
X57300Y-30070D01*
X57290Y-30059D01*
X57290Y-29603D01*
X57332Y-29586D01*
X57386Y-29532D01*
X57415Y-29462D01*
X57415Y-29387D01*
X57415Y-29137D01*
X57386Y-29067D01*
X57351Y-29032D01*
X57360Y-29028D01*
X57428Y-28960D01*
X57465Y-28872D01*
X57465Y-28820D01*
X57465Y-28580D01*
X57465Y-28527D01*
X57428Y-28439D01*
X57415Y-28425D01*
X57415Y-27962D01*
X57415Y-27887D01*
X57415Y-27637D01*
X57386Y-27567D01*
X57332Y-27513D01*
X57299Y-27500D01*
X57332Y-27486D01*
X57386Y-27432D01*
X57415Y-27362D01*
X57415Y-27287D01*
X57415Y-27037D01*
X57386Y-26967D01*
X57332Y-26913D01*
X57262Y-26885D01*
X57187Y-26885D01*
X56737Y-26885D01*
X56667Y-26913D01*
X56613Y-26967D01*
X56612Y-26970D01*
X55300Y-26970D01*
X55211Y-26987D01*
X55137Y-27037D01*
X55083Y-27090D01*
X55023Y-26944D01*
X54926Y-26908D01*
X54841Y-26993D01*
X54841Y-26823D01*
X54805Y-26726D01*
X54582Y-26649D01*
X54346Y-26663D01*
X54194Y-26726D01*
X54158Y-26823D01*
X54500Y-27165D01*
X54841Y-26823D01*
X54841Y-26993D01*
X54584Y-27250D01*
X54590Y-27255D01*
X54505Y-27340D01*
X54500Y-27334D01*
X54415Y-27419D01*
X54415Y-27250D01*
X54073Y-26908D01*
X53976Y-26944D01*
X53899Y-27167D01*
X53913Y-27403D01*
X53976Y-27555D01*
X54073Y-27591D01*
X54415Y-27250D01*
X54415Y-27419D01*
X54158Y-27676D01*
X54194Y-27773D01*
X54212Y-27779D01*
X54192Y-27788D01*
X54038Y-27941D01*
X53955Y-28141D01*
X53955Y-28357D01*
X54038Y-28557D01*
X54191Y-28711D01*
X54391Y-28794D01*
X54607Y-28794D01*
X54807Y-28711D01*
X54961Y-28558D01*
X55044Y-28358D01*
X55044Y-28142D01*
X54961Y-27942D01*
X54922Y-27902D01*
X54959Y-27866D01*
X55038Y-28057D01*
X55191Y-28211D01*
X55284Y-28249D01*
X55192Y-28288D01*
X55038Y-28441D01*
X54955Y-28641D01*
X54955Y-28857D01*
X55038Y-29057D01*
X55191Y-29211D01*
X55391Y-29294D01*
X55607Y-29294D01*
X55807Y-29211D01*
X55961Y-29058D01*
X56044Y-28858D01*
X56044Y-28642D01*
X55961Y-28442D01*
X55808Y-28288D01*
X55715Y-28250D01*
X55807Y-28211D01*
X55961Y-28058D01*
X55993Y-27980D01*
X56592Y-27980D01*
X56613Y-28032D01*
X56667Y-28086D01*
X56737Y-28115D01*
X56812Y-28115D01*
X57262Y-28115D01*
X57332Y-28086D01*
X57386Y-28032D01*
X57415Y-27962D01*
X57415Y-28425D01*
X57360Y-28371D01*
X57272Y-28335D01*
X57177Y-28335D01*
X57120Y-28335D01*
X57060Y-28395D01*
X57060Y-28640D01*
X57405Y-28640D01*
X57465Y-28580D01*
X57465Y-28820D01*
X57405Y-28760D01*
X57060Y-28760D01*
X57060Y-28767D01*
X56940Y-28767D01*
X56940Y-28760D01*
X56940Y-28640D01*
X56940Y-28395D01*
X56880Y-28335D01*
X56822Y-28335D01*
X56727Y-28335D01*
X56639Y-28371D01*
X56571Y-28439D01*
X56535Y-28527D01*
X56535Y-28580D01*
X56595Y-28640D01*
X56940Y-28640D01*
X56940Y-28760D01*
X56595Y-28760D01*
X56535Y-28820D01*
X56535Y-28872D01*
X56571Y-28960D01*
X56639Y-29028D01*
X56648Y-29032D01*
X56613Y-29067D01*
X56585Y-29137D01*
X56585Y-29212D01*
X56585Y-29462D01*
X56613Y-29532D01*
X56667Y-29586D01*
X56710Y-29603D01*
X56710Y-30070D01*
X55341Y-30070D01*
X55309Y-29993D01*
X55207Y-29890D01*
X55072Y-29835D01*
X54927Y-29834D01*
X54793Y-29890D01*
X54690Y-29992D01*
X54635Y-30127D01*
X54634Y-30272D01*
X54690Y-30406D01*
X54792Y-30509D01*
X54927Y-30564D01*
X54954Y-30564D01*
X54954Y-30565D01*
X55049Y-30627D01*
X55160Y-30650D01*
X57180Y-30650D01*
X58100Y-30650D01*
X63415Y-30650D01*
X63415Y-35910D01*
X62940Y-35910D01*
X62940Y-33813D01*
X62797Y-33468D01*
X62533Y-33203D01*
X62187Y-33060D01*
X61813Y-33059D01*
X61468Y-33202D01*
X61203Y-33466D01*
X61060Y-33812D01*
X61059Y-34186D01*
X61202Y-34531D01*
X61466Y-34796D01*
X61812Y-34939D01*
X62186Y-34940D01*
X62531Y-34797D01*
X62796Y-34533D01*
X62939Y-34187D01*
X62940Y-33813D01*
X62940Y-35910D01*
X60940Y-35910D01*
X60940Y-33813D01*
X60797Y-33468D01*
X60533Y-33203D01*
X60187Y-33060D01*
X59813Y-33059D01*
X59468Y-33202D01*
X59203Y-33466D01*
X59060Y-33812D01*
X59059Y-34186D01*
X59202Y-34531D01*
X59466Y-34796D01*
X59812Y-34939D01*
X60186Y-34940D01*
X60531Y-34797D01*
X60796Y-34533D01*
X60939Y-34187D01*
X60940Y-33813D01*
X60940Y-35910D01*
X57290Y-35910D01*
X57290Y-35603D01*
X57332Y-35586D01*
X57386Y-35532D01*
X57415Y-35462D01*
X57415Y-35387D01*
X57415Y-35137D01*
X57386Y-35067D01*
X57351Y-35032D01*
X57360Y-35028D01*
X57428Y-34960D01*
X57465Y-34872D01*
X57465Y-34820D01*
X57465Y-34580D01*
X57465Y-34527D01*
X57428Y-34439D01*
X57415Y-34425D01*
X57415Y-33962D01*
X57415Y-33887D01*
X57415Y-33637D01*
X57386Y-33567D01*
X57332Y-33513D01*
X57299Y-33500D01*
X57332Y-33486D01*
X57386Y-33432D01*
X57415Y-33362D01*
X57415Y-33287D01*
X57415Y-33037D01*
X57386Y-32967D01*
X57332Y-32913D01*
X57262Y-32885D01*
X57187Y-32885D01*
X56737Y-32885D01*
X56667Y-32913D01*
X56613Y-32967D01*
X56612Y-32970D01*
X55300Y-32970D01*
X55211Y-32987D01*
X55137Y-33037D01*
X55083Y-33090D01*
X55023Y-32944D01*
X54926Y-32908D01*
X54841Y-32993D01*
X54841Y-32823D01*
X54805Y-32726D01*
X54582Y-32649D01*
X54346Y-32663D01*
X54194Y-32726D01*
X54158Y-32823D01*
X54500Y-33165D01*
X54841Y-32823D01*
X54841Y-32993D01*
X54584Y-33250D01*
X54590Y-33255D01*
X54505Y-33340D01*
X54500Y-33334D01*
X54415Y-33419D01*
X54415Y-33250D01*
X54073Y-32908D01*
X53976Y-32944D01*
X53899Y-33167D01*
X53913Y-33403D01*
X53976Y-33555D01*
X54073Y-33591D01*
X54415Y-33250D01*
X54415Y-33419D01*
X54158Y-33676D01*
X54194Y-33773D01*
X54212Y-33779D01*
X54192Y-33788D01*
X54038Y-33941D01*
X53955Y-34141D01*
X53955Y-34357D01*
X54038Y-34557D01*
X54191Y-34711D01*
X54391Y-34794D01*
X54607Y-34794D01*
X54807Y-34711D01*
X54961Y-34558D01*
X55044Y-34358D01*
X55044Y-34142D01*
X54961Y-33942D01*
X54922Y-33902D01*
X54959Y-33866D01*
X55038Y-34057D01*
X55191Y-34211D01*
X55284Y-34249D01*
X55192Y-34288D01*
X55038Y-34441D01*
X54955Y-34641D01*
X54955Y-34857D01*
X55038Y-35057D01*
X55191Y-35211D01*
X55391Y-35294D01*
X55607Y-35294D01*
X55807Y-35211D01*
X55961Y-35058D01*
X56044Y-34858D01*
X56044Y-34642D01*
X55961Y-34442D01*
X55808Y-34288D01*
X55715Y-34250D01*
X55807Y-34211D01*
X55961Y-34058D01*
X55993Y-33980D01*
X56592Y-33980D01*
X56613Y-34032D01*
X56667Y-34086D01*
X56737Y-34115D01*
X56812Y-34115D01*
X57262Y-34115D01*
X57332Y-34086D01*
X57386Y-34032D01*
X57415Y-33962D01*
X57415Y-34425D01*
X57360Y-34371D01*
X57272Y-34335D01*
X57177Y-34335D01*
X57120Y-34335D01*
X57060Y-34395D01*
X57060Y-34640D01*
X57405Y-34640D01*
X57465Y-34580D01*
X57465Y-34820D01*
X57405Y-34760D01*
X57060Y-34760D01*
X57060Y-34767D01*
X56940Y-34767D01*
X56940Y-34760D01*
X56940Y-34640D01*
X56940Y-34395D01*
X56880Y-34335D01*
X56822Y-34335D01*
X56727Y-34335D01*
X56639Y-34371D01*
X56571Y-34439D01*
X56535Y-34527D01*
X56535Y-34580D01*
X56595Y-34640D01*
X56940Y-34640D01*
X56940Y-34760D01*
X56595Y-34760D01*
X56535Y-34820D01*
X56535Y-34872D01*
X56571Y-34960D01*
X56639Y-35028D01*
X56648Y-35032D01*
X56613Y-35067D01*
X56585Y-35137D01*
X56585Y-35212D01*
X56585Y-35462D01*
X56613Y-35532D01*
X56667Y-35586D01*
X56710Y-35603D01*
X56710Y-35910D01*
X55226Y-35910D01*
X55177Y-35860D01*
X55042Y-35805D01*
X54897Y-35804D01*
X54763Y-35860D01*
X54660Y-35962D01*
X54605Y-36097D01*
X54604Y-36242D01*
X54660Y-36376D01*
X54762Y-36479D01*
X54897Y-36534D01*
X55042Y-36535D01*
X55151Y-36490D01*
X56860Y-36490D01*
X63415Y-36490D01*
X63415Y-41910D01*
X62940Y-41910D01*
X62940Y-39813D01*
X62797Y-39468D01*
X62533Y-39203D01*
X62187Y-39060D01*
X61813Y-39059D01*
X61468Y-39202D01*
X61203Y-39466D01*
X61060Y-39812D01*
X61059Y-40186D01*
X61202Y-40531D01*
X61466Y-40796D01*
X61812Y-40939D01*
X62186Y-40940D01*
X62531Y-40797D01*
X62796Y-40533D01*
X62939Y-40187D01*
X62940Y-39813D01*
X62940Y-41910D01*
X60940Y-41910D01*
X60940Y-39813D01*
X60797Y-39468D01*
X60533Y-39203D01*
X60187Y-39060D01*
X59813Y-39059D01*
X59468Y-39202D01*
X59203Y-39466D01*
X59060Y-39812D01*
X59059Y-40186D01*
X59202Y-40531D01*
X59466Y-40796D01*
X59812Y-40939D01*
X60186Y-40940D01*
X60531Y-40797D01*
X60796Y-40533D01*
X60939Y-40187D01*
X60940Y-39813D01*
X60940Y-41910D01*
X57290Y-41910D01*
X57290Y-41603D01*
X57332Y-41586D01*
X57386Y-41532D01*
X57415Y-41462D01*
X57415Y-41387D01*
X57415Y-41137D01*
X57386Y-41067D01*
X57351Y-41032D01*
X57360Y-41028D01*
X57428Y-40960D01*
X57465Y-40872D01*
X57465Y-40820D01*
X57465Y-40580D01*
X57465Y-40527D01*
X57428Y-40439D01*
X57415Y-40425D01*
X57415Y-39962D01*
X57415Y-39887D01*
X57415Y-39637D01*
X57386Y-39567D01*
X57332Y-39513D01*
X57299Y-39500D01*
X57332Y-39486D01*
X57386Y-39432D01*
X57415Y-39362D01*
X57415Y-39287D01*
X57415Y-39037D01*
X57386Y-38967D01*
X57332Y-38913D01*
X57262Y-38885D01*
X57187Y-38885D01*
X56737Y-38885D01*
X56667Y-38913D01*
X56613Y-38967D01*
X56612Y-38970D01*
X55300Y-38970D01*
X55211Y-38987D01*
X55137Y-39037D01*
X55083Y-39090D01*
X55023Y-38944D01*
X54926Y-38908D01*
X54841Y-38993D01*
X54841Y-38823D01*
X54805Y-38726D01*
X54582Y-38649D01*
X54346Y-38663D01*
X54194Y-38726D01*
X54158Y-38823D01*
X54500Y-39165D01*
X54841Y-38823D01*
X54841Y-38993D01*
X54584Y-39250D01*
X54590Y-39255D01*
X54505Y-39340D01*
X54500Y-39334D01*
X54415Y-39419D01*
X54415Y-39250D01*
X54073Y-38908D01*
X53976Y-38944D01*
X53899Y-39167D01*
X53913Y-39403D01*
X53976Y-39555D01*
X54073Y-39591D01*
X54415Y-39250D01*
X54415Y-39419D01*
X54158Y-39676D01*
X54194Y-39773D01*
X54212Y-39779D01*
X54192Y-39788D01*
X54038Y-39941D01*
X53955Y-40141D01*
X53955Y-40357D01*
X54038Y-40557D01*
X54191Y-40711D01*
X54391Y-40794D01*
X54607Y-40794D01*
X54807Y-40711D01*
X54961Y-40558D01*
X55044Y-40358D01*
X55044Y-40142D01*
X54961Y-39942D01*
X54922Y-39902D01*
X54959Y-39866D01*
X55038Y-40057D01*
X55191Y-40211D01*
X55284Y-40249D01*
X55192Y-40288D01*
X55038Y-40441D01*
X54955Y-40641D01*
X54955Y-40857D01*
X55038Y-41057D01*
X55191Y-41211D01*
X55391Y-41294D01*
X55607Y-41294D01*
X55807Y-41211D01*
X55961Y-41058D01*
X56044Y-40858D01*
X56044Y-40642D01*
X55961Y-40442D01*
X55808Y-40288D01*
X55715Y-40250D01*
X55807Y-40211D01*
X55961Y-40058D01*
X55993Y-39980D01*
X56592Y-39980D01*
X56613Y-40032D01*
X56667Y-40086D01*
X56737Y-40115D01*
X56812Y-40115D01*
X57262Y-40115D01*
X57332Y-40086D01*
X57386Y-40032D01*
X57415Y-39962D01*
X57415Y-40425D01*
X57360Y-40371D01*
X57272Y-40335D01*
X57177Y-40335D01*
X57120Y-40335D01*
X57060Y-40395D01*
X57060Y-40640D01*
X57405Y-40640D01*
X57465Y-40580D01*
X57465Y-40820D01*
X57405Y-40760D01*
X57060Y-40760D01*
X57060Y-40767D01*
X56940Y-40767D01*
X56940Y-40760D01*
X56940Y-40640D01*
X56940Y-40395D01*
X56880Y-40335D01*
X56822Y-40335D01*
X56727Y-40335D01*
X56639Y-40371D01*
X56571Y-40439D01*
X56535Y-40527D01*
X56535Y-40580D01*
X56595Y-40640D01*
X56940Y-40640D01*
X56940Y-40760D01*
X56595Y-40760D01*
X56535Y-40820D01*
X56535Y-40872D01*
X56571Y-40960D01*
X56639Y-41028D01*
X56648Y-41032D01*
X56613Y-41067D01*
X56585Y-41137D01*
X56585Y-41212D01*
X56585Y-41462D01*
X56613Y-41532D01*
X56667Y-41586D01*
X56710Y-41603D01*
X56710Y-41910D01*
X55226Y-41910D01*
X55207Y-41890D01*
X55072Y-41835D01*
X54927Y-41834D01*
X54793Y-41890D01*
X54690Y-41992D01*
X54635Y-42127D01*
X54634Y-42272D01*
X54690Y-42406D01*
X54792Y-42509D01*
X54927Y-42564D01*
X55072Y-42565D01*
X55206Y-42509D01*
X55226Y-42490D01*
X57140Y-42490D01*
X63415Y-42490D01*
X63415Y-47088D01*
X62940Y-47563D01*
X62940Y-45813D01*
X62797Y-45468D01*
X62533Y-45203D01*
X62187Y-45060D01*
X61813Y-45059D01*
X61468Y-45202D01*
X61203Y-45466D01*
X61060Y-45812D01*
X61059Y-46186D01*
X61202Y-46531D01*
X61466Y-46796D01*
X61812Y-46939D01*
X62186Y-46940D01*
X62531Y-46797D01*
X62796Y-46533D01*
X62939Y-46187D01*
X62940Y-45813D01*
X62940Y-47563D01*
X62688Y-47815D01*
X60940Y-47815D01*
X60940Y-45813D01*
X60797Y-45468D01*
X60533Y-45203D01*
X60187Y-45060D01*
X59813Y-45059D01*
X59468Y-45202D01*
X59203Y-45466D01*
X59060Y-45812D01*
X59059Y-46186D01*
X59202Y-46531D01*
X59466Y-46796D01*
X59812Y-46939D01*
X60186Y-46940D01*
X60531Y-46797D01*
X60796Y-46533D01*
X60939Y-46187D01*
X60940Y-45813D01*
X60940Y-47815D01*
X57290Y-47815D01*
X57290Y-47603D01*
X57332Y-47586D01*
X57386Y-47532D01*
X57415Y-47462D01*
X57415Y-47387D01*
X57415Y-47137D01*
X57386Y-47067D01*
X57351Y-47032D01*
X57360Y-47028D01*
X57428Y-46960D01*
X57465Y-46872D01*
X57465Y-46820D01*
X57465Y-46580D01*
X57465Y-46527D01*
X57428Y-46439D01*
X57415Y-46425D01*
X57415Y-45962D01*
X57415Y-45887D01*
X57415Y-45637D01*
X57386Y-45567D01*
X57332Y-45513D01*
X57299Y-45500D01*
X57332Y-45486D01*
X57386Y-45432D01*
X57415Y-45362D01*
X57415Y-45287D01*
X57415Y-45037D01*
X57386Y-44967D01*
X57332Y-44913D01*
X57262Y-44885D01*
X57187Y-44885D01*
X56737Y-44885D01*
X56667Y-44913D01*
X56613Y-44967D01*
X56612Y-44970D01*
X55300Y-44970D01*
X55211Y-44987D01*
X55137Y-45037D01*
X55083Y-45090D01*
X55023Y-44944D01*
X54926Y-44908D01*
X54841Y-44993D01*
X54841Y-44823D01*
X54805Y-44726D01*
X54582Y-44649D01*
X54346Y-44663D01*
X54194Y-44726D01*
X54158Y-44823D01*
X54500Y-45165D01*
X54841Y-44823D01*
X54841Y-44993D01*
X54584Y-45250D01*
X54590Y-45255D01*
X54505Y-45340D01*
X54500Y-45334D01*
X54415Y-45419D01*
X54415Y-45250D01*
X54073Y-44908D01*
X53976Y-44944D01*
X53899Y-45167D01*
X53913Y-45403D01*
X53976Y-45555D01*
X54073Y-45591D01*
X54415Y-45250D01*
X54415Y-45419D01*
X54158Y-45676D01*
X54194Y-45773D01*
X54212Y-45779D01*
X54192Y-45788D01*
X54038Y-45941D01*
X53955Y-46141D01*
X53955Y-46357D01*
X54038Y-46557D01*
X54191Y-46711D01*
X54391Y-46794D01*
X54607Y-46794D01*
X54807Y-46711D01*
X54961Y-46558D01*
X55044Y-46358D01*
X55044Y-46142D01*
X54961Y-45942D01*
X54922Y-45902D01*
X54959Y-45866D01*
X55038Y-46057D01*
X55191Y-46211D01*
X55284Y-46249D01*
X55192Y-46288D01*
X55038Y-46441D01*
X54955Y-46641D01*
X54955Y-46857D01*
X55038Y-47057D01*
X55191Y-47211D01*
X55391Y-47294D01*
X55607Y-47294D01*
X55807Y-47211D01*
X55961Y-47058D01*
X56044Y-46858D01*
X56044Y-46642D01*
X55961Y-46442D01*
X55808Y-46288D01*
X55715Y-46250D01*
X55807Y-46211D01*
X55961Y-46058D01*
X55993Y-45980D01*
X56592Y-45980D01*
X56613Y-46032D01*
X56667Y-46086D01*
X56737Y-46115D01*
X56812Y-46115D01*
X57262Y-46115D01*
X57332Y-46086D01*
X57386Y-46032D01*
X57415Y-45962D01*
X57415Y-46425D01*
X57360Y-46371D01*
X57272Y-46335D01*
X57177Y-46335D01*
X57120Y-46335D01*
X57060Y-46395D01*
X57060Y-46640D01*
X57405Y-46640D01*
X57465Y-46580D01*
X57465Y-46820D01*
X57405Y-46760D01*
X57060Y-46760D01*
X57060Y-46767D01*
X56940Y-46767D01*
X56940Y-46760D01*
X56940Y-46640D01*
X56940Y-46395D01*
X56880Y-46335D01*
X56822Y-46335D01*
X56727Y-46335D01*
X56639Y-46371D01*
X56571Y-46439D01*
X56535Y-46527D01*
X56535Y-46580D01*
X56595Y-46640D01*
X56940Y-46640D01*
X56940Y-46760D01*
X56595Y-46760D01*
X56535Y-46820D01*
X56535Y-46872D01*
X56571Y-46960D01*
X56639Y-47028D01*
X56648Y-47032D01*
X56613Y-47067D01*
X56585Y-47137D01*
X56585Y-47212D01*
X56585Y-47462D01*
X56613Y-47532D01*
X56667Y-47586D01*
X56710Y-47603D01*
X56710Y-47890D01*
X55205Y-47890D01*
X55072Y-47835D01*
X54927Y-47834D01*
X54793Y-47890D01*
X54690Y-47992D01*
X54635Y-48127D01*
X54634Y-48272D01*
X54690Y-48406D01*
X54792Y-48509D01*
X54927Y-48564D01*
X55072Y-48565D01*
X55206Y-48509D01*
X55246Y-48470D01*
X56789Y-48470D01*
X56860Y-48517D01*
X57000Y-48545D01*
X62840Y-48545D01*
X62979Y-48517D01*
X63098Y-48438D01*
X64038Y-47498D01*
X64038Y-47498D01*
X64038Y-47498D01*
X64117Y-47379D01*
X64145Y-47240D01*
X64145Y-42200D01*
X64145Y-36200D01*
X64145Y-30360D01*
X64145Y-26491D01*
X65135Y-25501D01*
X65135Y-25799D01*
X65134Y-25872D01*
X65162Y-25939D01*
X65190Y-26006D01*
X65241Y-26058D01*
X65292Y-26109D01*
X65360Y-26137D01*
X65427Y-26164D01*
X65500Y-26165D01*
X65572Y-26165D01*
X65639Y-26137D01*
X65652Y-26131D01*
X65660Y-26137D01*
X65800Y-26165D01*
X65939Y-26137D01*
X65947Y-26131D01*
X65960Y-26137D01*
X66027Y-26164D01*
X66100Y-26165D01*
X66172Y-26165D01*
X66239Y-26137D01*
X66306Y-26109D01*
X66358Y-26058D01*
X66409Y-26007D01*
X66437Y-25939D01*
X66464Y-25872D01*
X66465Y-25800D01*
X66465Y-25727D01*
X66465Y-25727D01*
X66465Y-25200D01*
X66465Y-25200D01*
X66465Y-25127D01*
X66437Y-25060D01*
X66409Y-24993D01*
X66358Y-24941D01*
X66316Y-24899D01*
X66348Y-24868D01*
X66348Y-24868D01*
X66358Y-24858D01*
X66358Y-24858D01*
X66409Y-24807D01*
X66437Y-24739D01*
X66464Y-24672D01*
X66465Y-24600D01*
X66465Y-24527D01*
X66437Y-24460D01*
X66409Y-24393D01*
X66358Y-24341D01*
X66307Y-24290D01*
X66239Y-24262D01*
X66172Y-24235D01*
X66027Y-24234D01*
X66003Y-24245D01*
X65800Y-24245D01*
X65570Y-24245D01*
X65520Y-24235D01*
X65482Y-24242D01*
X66495Y-23230D01*
X69813Y-23230D01*
X69892Y-23309D01*
X70027Y-23364D01*
X70172Y-23365D01*
X70306Y-23309D01*
X70409Y-23207D01*
X70464Y-23072D01*
X70465Y-22927D01*
X70409Y-22793D01*
X70366Y-22750D01*
X70409Y-22707D01*
X70464Y-22572D01*
X70465Y-22427D01*
X70409Y-22293D01*
X70307Y-22190D01*
X70172Y-22135D01*
X70027Y-22134D01*
X69893Y-22190D01*
X69813Y-22270D01*
X68735Y-22270D01*
X65802Y-19337D01*
X65782Y-19317D01*
X64302Y-17837D01*
X64228Y-17787D01*
X64140Y-17770D01*
X63024Y-17770D01*
X63064Y-17672D01*
X63065Y-17527D01*
X63009Y-17393D01*
X62950Y-17334D01*
X62998Y-17315D01*
X64804Y-17315D01*
X67794Y-20305D01*
X67889Y-20367D01*
X68000Y-20390D01*
X69200Y-20390D01*
X69310Y-20367D01*
X69405Y-20305D01*
X69805Y-19905D01*
X69867Y-19810D01*
X69890Y-19700D01*
X69890Y-19640D01*
X69947Y-19640D01*
X70327Y-19640D01*
X70397Y-19611D01*
X70451Y-19557D01*
X70479Y-19490D01*
X70600Y-19490D01*
X71100Y-19490D01*
X71373Y-19490D01*
X71392Y-19509D01*
X71527Y-19564D01*
X71672Y-19565D01*
X71806Y-19509D01*
X71909Y-19407D01*
X71964Y-19272D01*
X71965Y-19127D01*
X71909Y-18993D01*
X71807Y-18890D01*
X71672Y-18835D01*
X71527Y-18834D01*
X71393Y-18890D01*
X71373Y-18910D01*
X71100Y-18910D01*
X70600Y-18910D01*
X70479Y-18910D01*
X70451Y-18842D01*
X70397Y-18788D01*
X70327Y-18760D01*
X70252Y-18760D01*
X69872Y-18760D01*
X69849Y-18769D01*
X69827Y-18760D01*
X69752Y-18760D01*
X69390Y-18760D01*
X69390Y-15220D01*
X71757Y-12852D01*
X71735Y-12907D01*
X71734Y-13092D01*
X71805Y-13263D01*
X71936Y-13393D01*
X72107Y-13464D01*
X72292Y-13465D01*
X72463Y-13394D01*
X72593Y-13263D01*
X72664Y-13092D01*
X72665Y-12907D01*
X72594Y-12736D01*
X72463Y-12606D01*
X72292Y-12535D01*
X72107Y-12534D01*
X72052Y-12557D01*
X72145Y-12464D01*
X72292Y-12465D01*
X72463Y-12394D01*
X72593Y-12263D01*
X72664Y-12092D01*
X72665Y-11907D01*
X72594Y-11736D01*
X72483Y-11626D01*
X72483Y-11368D01*
X72200Y-11084D01*
X72115Y-11169D01*
X72115Y-11000D01*
X71831Y-10716D01*
X71742Y-10741D01*
X71678Y-10936D01*
X71694Y-11140D01*
X71742Y-11258D01*
X71831Y-11283D01*
X72115Y-11000D01*
X72115Y-11169D01*
X71916Y-11368D01*
X71941Y-11457D01*
X72136Y-11521D01*
X72340Y-11505D01*
X72458Y-11457D01*
X72483Y-11368D01*
X72483Y-11626D01*
X72463Y-11606D01*
X72292Y-11535D01*
X72107Y-11534D01*
X71936Y-11605D01*
X71806Y-11736D01*
X71735Y-11907D01*
X71734Y-12054D01*
X68894Y-14894D01*
X68832Y-14989D01*
X68810Y-15100D01*
X68810Y-18785D01*
X68802Y-18788D01*
X68748Y-18842D01*
X68720Y-18912D01*
X68720Y-18987D01*
X68720Y-19487D01*
X68748Y-19557D01*
X68802Y-19611D01*
X68872Y-19640D01*
X68947Y-19640D01*
X69249Y-19640D01*
X69079Y-19810D01*
X68120Y-19810D01*
X67721Y-19411D01*
X67721Y-18063D01*
X67721Y-17063D01*
X67721Y-16063D01*
X67721Y-15063D01*
X67705Y-14859D01*
X67657Y-14741D01*
X67568Y-14716D01*
X67284Y-15000D01*
X67568Y-15283D01*
X67657Y-15258D01*
X67721Y-15063D01*
X67721Y-16063D01*
X67705Y-15859D01*
X67657Y-15741D01*
X67568Y-15716D01*
X67483Y-15801D01*
X67483Y-15631D01*
X67458Y-15542D01*
X67343Y-15504D01*
X67458Y-15457D01*
X67483Y-15368D01*
X67200Y-15084D01*
X66916Y-15368D01*
X66941Y-15457D01*
X67056Y-15495D01*
X66941Y-15542D01*
X66916Y-15631D01*
X67200Y-15915D01*
X67483Y-15631D01*
X67483Y-15801D01*
X67284Y-16000D01*
X67568Y-16283D01*
X67657Y-16258D01*
X67721Y-16063D01*
X67721Y-17063D01*
X67705Y-16859D01*
X67657Y-16741D01*
X67568Y-16716D01*
X67483Y-16801D01*
X67483Y-16631D01*
X67458Y-16542D01*
X67343Y-16504D01*
X67458Y-16457D01*
X67483Y-16368D01*
X67200Y-16084D01*
X67115Y-16169D01*
X67115Y-16000D01*
X66831Y-15716D01*
X66742Y-15741D01*
X66678Y-15936D01*
X66694Y-16140D01*
X66742Y-16258D01*
X66831Y-16283D01*
X67115Y-16000D01*
X67115Y-16169D01*
X66916Y-16368D01*
X66941Y-16457D01*
X67056Y-16495D01*
X66941Y-16542D01*
X66916Y-16631D01*
X67200Y-16915D01*
X67483Y-16631D01*
X67483Y-16801D01*
X67284Y-17000D01*
X67568Y-17283D01*
X67657Y-17258D01*
X67721Y-17063D01*
X67721Y-18063D01*
X67705Y-17859D01*
X67657Y-17741D01*
X67568Y-17716D01*
X67483Y-17801D01*
X67483Y-17631D01*
X67458Y-17542D01*
X67343Y-17504D01*
X67458Y-17457D01*
X67483Y-17368D01*
X67200Y-17084D01*
X67115Y-17169D01*
X67115Y-17000D01*
X66831Y-16716D01*
X66742Y-16741D01*
X66678Y-16936D01*
X66694Y-17140D01*
X66742Y-17258D01*
X66831Y-17283D01*
X67115Y-17000D01*
X67115Y-17169D01*
X66916Y-17368D01*
X66941Y-17457D01*
X67056Y-17495D01*
X66941Y-17542D01*
X66916Y-17631D01*
X67200Y-17915D01*
X67483Y-17631D01*
X67483Y-17801D01*
X67284Y-18000D01*
X67568Y-18283D01*
X67657Y-18258D01*
X67721Y-18063D01*
X67721Y-19411D01*
X67483Y-19173D01*
X67483Y-18368D01*
X67200Y-18084D01*
X67115Y-18169D01*
X67115Y-18000D01*
X66831Y-17716D01*
X66742Y-17741D01*
X66678Y-17936D01*
X66694Y-18140D01*
X66742Y-18258D01*
X66831Y-18283D01*
X67115Y-18000D01*
X67115Y-18169D01*
X66916Y-18368D01*
X66941Y-18457D01*
X67136Y-18521D01*
X67340Y-18505D01*
X67458Y-18457D01*
X67483Y-18368D01*
X67483Y-19173D01*
X65130Y-16819D01*
X65035Y-16757D01*
X64925Y-16735D01*
X63054Y-16735D01*
X63103Y-16685D01*
X63140Y-16597D01*
X63140Y-16545D01*
X63080Y-16485D01*
X62735Y-16485D01*
X62735Y-16492D01*
X62653Y-16492D01*
X62653Y-16492D01*
X62607Y-16483D01*
X62607Y-16365D01*
X62615Y-16365D01*
X62615Y-16357D01*
X62735Y-16357D01*
X62735Y-16365D01*
X63080Y-16365D01*
X63140Y-16305D01*
X63140Y-16252D01*
X63130Y-16230D01*
X65200Y-16230D01*
X65288Y-16212D01*
X65288Y-16212D01*
X65362Y-16162D01*
X66722Y-14802D01*
X66678Y-14936D01*
X66694Y-15140D01*
X66742Y-15258D01*
X66831Y-15283D01*
X67115Y-15000D01*
X67109Y-14994D01*
X67194Y-14909D01*
X67200Y-14915D01*
X67483Y-14631D01*
X67458Y-14542D01*
X67263Y-14478D01*
X67059Y-14494D01*
X67011Y-14513D01*
X67074Y-14451D01*
X67107Y-14464D01*
X67292Y-14465D01*
X67463Y-14394D01*
X67593Y-14263D01*
X67664Y-14092D01*
X67665Y-13907D01*
X67594Y-13736D01*
X67576Y-13718D01*
X67608Y-13712D01*
X67608Y-13712D01*
X67682Y-13662D01*
X68022Y-13322D01*
X68072Y-13248D01*
X68072Y-13248D01*
X68090Y-13160D01*
X68090Y-12660D01*
X68090Y-12660D01*
X68090Y-12660D01*
X68072Y-12571D01*
X68072Y-12571D01*
X68022Y-12497D01*
X67721Y-12195D01*
X67721Y-11063D01*
X67705Y-10859D01*
X67657Y-10741D01*
X67568Y-10716D01*
X67483Y-10801D01*
X67483Y-10631D01*
X67458Y-10542D01*
X67263Y-10478D01*
X67059Y-10494D01*
X66941Y-10542D01*
X66916Y-10631D01*
X67200Y-10915D01*
X67483Y-10631D01*
X67483Y-10801D01*
X67284Y-11000D01*
X67568Y-11283D01*
X67657Y-11258D01*
X67721Y-11063D01*
X67721Y-12195D01*
X67651Y-12125D01*
X67664Y-12092D01*
X67665Y-11907D01*
X67594Y-11736D01*
X67483Y-11626D01*
X67483Y-11368D01*
X67200Y-11084D01*
X67115Y-11169D01*
X67115Y-11000D01*
X66831Y-10716D01*
X66742Y-10741D01*
X66678Y-10936D01*
X66694Y-11140D01*
X66742Y-11258D01*
X66831Y-11283D01*
X67115Y-11000D01*
X67115Y-11169D01*
X66916Y-11368D01*
X66941Y-11457D01*
X67136Y-11521D01*
X67340Y-11505D01*
X67458Y-11457D01*
X67483Y-11368D01*
X67483Y-11626D01*
X67463Y-11606D01*
X67292Y-11535D01*
X67107Y-11534D01*
X66936Y-11605D01*
X66806Y-11736D01*
X66735Y-11907D01*
X66734Y-12092D01*
X66805Y-12263D01*
X66936Y-12393D01*
X67107Y-12464D01*
X67292Y-12465D01*
X67325Y-12451D01*
X67630Y-12755D01*
X67630Y-12823D01*
X67594Y-12736D01*
X67463Y-12606D01*
X67292Y-12535D01*
X67107Y-12534D01*
X66936Y-12605D01*
X66806Y-12736D01*
X66792Y-12770D01*
X65315Y-12770D01*
X65315Y-11338D01*
X65191Y-11038D01*
X64962Y-10809D01*
X64662Y-10685D01*
X64338Y-10684D01*
X64038Y-10808D01*
X63809Y-11037D01*
X63685Y-11337D01*
X63684Y-11661D01*
X63808Y-11961D01*
X64037Y-12190D01*
X64337Y-12314D01*
X64661Y-12315D01*
X64961Y-12191D01*
X65190Y-11962D01*
X65314Y-11662D01*
X65315Y-11338D01*
X65315Y-12770D01*
X62880Y-12770D01*
X62791Y-12787D01*
X62717Y-12837D01*
X60715Y-14839D01*
X60715Y-14362D01*
X60686Y-14292D01*
X60632Y-14238D01*
X60562Y-14210D01*
X60487Y-14210D01*
X60387Y-14210D01*
X60377Y-14214D01*
X60367Y-14210D01*
X60292Y-14210D01*
X60279Y-14210D01*
X60265Y-14196D01*
X60177Y-14160D01*
X60165Y-14160D01*
X60105Y-14220D01*
X60105Y-14256D01*
X60082Y-14278D01*
X60055Y-14251D01*
X60055Y-14220D01*
X59995Y-14160D01*
X59982Y-14160D01*
X59894Y-14196D01*
X59880Y-14210D01*
X59797Y-14210D01*
X59787Y-14214D01*
X59777Y-14210D01*
X59720Y-14210D01*
X59720Y-14155D01*
X59960Y-13914D01*
X60072Y-13915D01*
X60206Y-13859D01*
X60309Y-13757D01*
X60364Y-13622D01*
X60365Y-13477D01*
X60309Y-13343D01*
X60207Y-13240D01*
X60072Y-13185D01*
X59990Y-13184D01*
X60591Y-12583D01*
X61970Y-12583D01*
X62040Y-12554D01*
X62093Y-12501D01*
X62122Y-12431D01*
X62122Y-12355D01*
X62122Y-11568D01*
X62093Y-11498D01*
X62040Y-11445D01*
X61970Y-11416D01*
X61894Y-11416D01*
X61843Y-11416D01*
X61845Y-11415D01*
X61962Y-11415D01*
X62032Y-11386D01*
X62086Y-11332D01*
X62115Y-11262D01*
X62115Y-11187D01*
X62115Y-10937D01*
X62086Y-10867D01*
X62051Y-10832D01*
X62060Y-10828D01*
X62128Y-10760D01*
X62165Y-10672D01*
X62165Y-10620D01*
X62105Y-10560D01*
X61760Y-10560D01*
X61760Y-10567D01*
X61640Y-10567D01*
X61640Y-10560D01*
X61295Y-10560D01*
X61235Y-10620D01*
X61235Y-10672D01*
X61271Y-10760D01*
X61339Y-10828D01*
X61348Y-10832D01*
X61313Y-10867D01*
X61285Y-10937D01*
X61285Y-11012D01*
X61285Y-11154D01*
X61023Y-11416D01*
X59729Y-11416D01*
X59659Y-11445D01*
X59606Y-11498D01*
X59577Y-11568D01*
X59577Y-11644D01*
X59577Y-12431D01*
X59606Y-12501D01*
X59659Y-12554D01*
X59729Y-12583D01*
X59805Y-12583D01*
X59941Y-12583D01*
X59000Y-13524D01*
X58058Y-12583D01*
X58270Y-12583D01*
X58340Y-12554D01*
X58393Y-12501D01*
X58422Y-12431D01*
X58422Y-12355D01*
X58422Y-11568D01*
X58393Y-11498D01*
X58340Y-11445D01*
X58270Y-11416D01*
X58194Y-11416D01*
X56976Y-11416D01*
X56615Y-11054D01*
X56615Y-10937D01*
X56586Y-10867D01*
X56551Y-10832D01*
X56560Y-10828D01*
X56628Y-10760D01*
X56665Y-10672D01*
X56665Y-10620D01*
X56605Y-10560D01*
X56260Y-10560D01*
X56260Y-10567D01*
X56140Y-10567D01*
X56140Y-10560D01*
X55795Y-10560D01*
X55740Y-10615D01*
X55740Y-10602D01*
X55703Y-10514D01*
X55635Y-10446D01*
X55547Y-10410D01*
X55452Y-10410D01*
X55220Y-10410D01*
X55160Y-10470D01*
X55160Y-10890D01*
X55680Y-10890D01*
X55740Y-10830D01*
X55740Y-10684D01*
X55771Y-10760D01*
X55839Y-10828D01*
X55848Y-10832D01*
X55813Y-10867D01*
X55785Y-10937D01*
X55785Y-11012D01*
X55785Y-11262D01*
X55813Y-11332D01*
X55867Y-11386D01*
X55937Y-11415D01*
X56012Y-11415D01*
X56154Y-11415D01*
X56156Y-11416D01*
X56029Y-11416D01*
X55959Y-11445D01*
X55906Y-11498D01*
X55877Y-11568D01*
X55877Y-11644D01*
X55877Y-12352D01*
X55740Y-12214D01*
X55740Y-11297D01*
X55740Y-11070D01*
X55680Y-11010D01*
X55160Y-11010D01*
X55160Y-11430D01*
X55220Y-11490D01*
X55452Y-11490D01*
X55547Y-11490D01*
X55635Y-11453D01*
X55703Y-11385D01*
X55740Y-11297D01*
X55740Y-12214D01*
X55690Y-12164D01*
X55690Y-11912D01*
X55661Y-11842D01*
X55607Y-11788D01*
X55537Y-11760D01*
X55462Y-11760D01*
X55040Y-11760D01*
X55040Y-11430D01*
X55040Y-11010D01*
X55040Y-10890D01*
X55040Y-10470D01*
X54980Y-10410D01*
X54747Y-10410D01*
X54652Y-10410D01*
X54564Y-10446D01*
X54550Y-10460D01*
X54535Y-10446D01*
X54447Y-10410D01*
X54352Y-10410D01*
X54120Y-10410D01*
X54060Y-10470D01*
X54060Y-10890D01*
X54520Y-10890D01*
X54580Y-10890D01*
X55040Y-10890D01*
X55040Y-11010D01*
X54580Y-11010D01*
X54520Y-11010D01*
X54060Y-11010D01*
X54060Y-11430D01*
X54120Y-11490D01*
X54352Y-11490D01*
X54447Y-11490D01*
X54535Y-11453D01*
X54550Y-11439D01*
X54564Y-11453D01*
X54652Y-11490D01*
X54747Y-11490D01*
X54980Y-11490D01*
X55040Y-11430D01*
X55040Y-11760D01*
X54662Y-11760D01*
X54592Y-11788D01*
X54550Y-11831D01*
X54507Y-11788D01*
X54437Y-11760D01*
X54362Y-11760D01*
X53940Y-11760D01*
X53940Y-11430D01*
X53940Y-11010D01*
X53940Y-10890D01*
X53940Y-10470D01*
X53880Y-10410D01*
X53647Y-10410D01*
X53552Y-10410D01*
X53464Y-10446D01*
X53396Y-10514D01*
X53360Y-10602D01*
X53360Y-10830D01*
X53420Y-10890D01*
X53940Y-10890D01*
X53940Y-11010D01*
X53420Y-11010D01*
X53360Y-11070D01*
X53360Y-11297D01*
X53396Y-11385D01*
X53464Y-11453D01*
X53552Y-11490D01*
X53647Y-11490D01*
X53880Y-11490D01*
X53940Y-11430D01*
X53940Y-11760D01*
X53562Y-11760D01*
X53492Y-11788D01*
X53438Y-11842D01*
X53410Y-11912D01*
X53410Y-11987D01*
X53410Y-12208D01*
X53362Y-12137D01*
X52351Y-11125D01*
X52364Y-11092D01*
X52365Y-10907D01*
X52294Y-10736D01*
X52163Y-10606D01*
X51992Y-10535D01*
X51807Y-10534D01*
X51636Y-10605D01*
X51506Y-10736D01*
X51435Y-10907D01*
X51434Y-11092D01*
X51505Y-11263D01*
X51636Y-11393D01*
X51807Y-11464D01*
X51992Y-11465D01*
X52025Y-11451D01*
X52970Y-12395D01*
X52970Y-12699D01*
X52364Y-12093D01*
X52364Y-12092D01*
X52365Y-11907D01*
X52294Y-11736D01*
X52163Y-11606D01*
X51992Y-11535D01*
X51807Y-11534D01*
X51636Y-11605D01*
X51630Y-11612D01*
X51630Y-11500D01*
X51612Y-11411D01*
X51612Y-11411D01*
X51562Y-11337D01*
X51351Y-11125D01*
X51364Y-11092D01*
X51365Y-10907D01*
X51294Y-10736D01*
X51163Y-10606D01*
X50992Y-10535D01*
X50807Y-10534D01*
X50636Y-10605D01*
X50506Y-10736D01*
X50435Y-10907D01*
X50434Y-11092D01*
X50505Y-11263D01*
X50636Y-11393D01*
X50807Y-11464D01*
X50992Y-11465D01*
X51025Y-11451D01*
X51097Y-11522D01*
X50963Y-11478D01*
X50759Y-11494D01*
X50641Y-11542D01*
X50616Y-11631D01*
X50900Y-11915D01*
X50905Y-11909D01*
X50990Y-11994D01*
X50984Y-12000D01*
X50990Y-12005D01*
X50905Y-12090D01*
X50900Y-12084D01*
X50815Y-12169D01*
X50815Y-12000D01*
X50531Y-11716D01*
X50442Y-11741D01*
X50378Y-11936D01*
X50394Y-12140D01*
X50442Y-12258D01*
X50531Y-12283D01*
X50815Y-12000D01*
X50815Y-12169D01*
X50616Y-12368D01*
X50641Y-12457D01*
X50836Y-12521D01*
X51040Y-12505D01*
X51158Y-12457D01*
X51170Y-12415D01*
X51170Y-12500D01*
X51187Y-12588D01*
X51237Y-12662D01*
X51448Y-12874D01*
X51435Y-12907D01*
X51434Y-13092D01*
X51505Y-13263D01*
X51636Y-13393D01*
X51807Y-13464D01*
X51992Y-13465D01*
X52163Y-13394D01*
X52293Y-13263D01*
X52307Y-13230D01*
X52595Y-13230D01*
X53135Y-13770D01*
X52365Y-13770D01*
X52365Y-13687D01*
X52336Y-13617D01*
X52282Y-13563D01*
X52212Y-13535D01*
X52137Y-13535D01*
X51760Y-13535D01*
X51351Y-13125D01*
X51364Y-13092D01*
X51365Y-12907D01*
X51294Y-12736D01*
X51163Y-12606D01*
X50992Y-12535D01*
X50807Y-12534D01*
X50636Y-12605D01*
X50506Y-12736D01*
X50435Y-12907D01*
X50434Y-13092D01*
X50505Y-13263D01*
X50636Y-13393D01*
X50807Y-13464D01*
X50992Y-13465D01*
X51025Y-13451D01*
X51109Y-13535D01*
X50587Y-13535D01*
X50517Y-13563D01*
X50463Y-13617D01*
X50435Y-13687D01*
X50435Y-13762D01*
X50435Y-14312D01*
X50463Y-14382D01*
X50517Y-14436D01*
X50587Y-14465D01*
X50650Y-14465D01*
X50650Y-16200D01*
X50669Y-16295D01*
X50723Y-16376D01*
X51650Y-17303D01*
X51650Y-19670D01*
X51515Y-19670D01*
X51515Y-19637D01*
X51486Y-19567D01*
X51481Y-19563D01*
X51487Y-19560D01*
X51555Y-19492D01*
X51592Y-19404D01*
X51592Y-19320D01*
X51532Y-19260D01*
X51255Y-19260D01*
X51255Y-19267D01*
X51135Y-19267D01*
X51135Y-19260D01*
X51127Y-19260D01*
X51127Y-19140D01*
X51135Y-19140D01*
X51135Y-19132D01*
X51255Y-19132D01*
X51255Y-19140D01*
X51532Y-19140D01*
X51592Y-19080D01*
X51592Y-18995D01*
X51555Y-18907D01*
X51487Y-18839D01*
X51481Y-18836D01*
X51486Y-18832D01*
X51515Y-18762D01*
X51515Y-18687D01*
X51515Y-18237D01*
X51486Y-18167D01*
X51432Y-18113D01*
X51430Y-18112D01*
X51430Y-18086D01*
X51509Y-18007D01*
X51564Y-17872D01*
X51565Y-17727D01*
X51509Y-17593D01*
X51407Y-17490D01*
X51272Y-17435D01*
X51127Y-17434D01*
X50993Y-17490D01*
X50890Y-17592D01*
X50835Y-17727D01*
X50834Y-17872D01*
X50890Y-18006D01*
X50970Y-18086D01*
X50970Y-18112D01*
X50967Y-18113D01*
X50913Y-18167D01*
X50900Y-18200D01*
X50886Y-18167D01*
X50832Y-18113D01*
X50762Y-18085D01*
X50687Y-18085D01*
X50437Y-18085D01*
X50367Y-18113D01*
X50313Y-18167D01*
X50285Y-18237D01*
X50285Y-18312D01*
X50285Y-18762D01*
X50313Y-18832D01*
X50356Y-18875D01*
X50340Y-18881D01*
X50286Y-18935D01*
X50265Y-18988D01*
X50265Y-10265D01*
X55760Y-10265D01*
X55735Y-10327D01*
X55735Y-10380D01*
X55795Y-10440D01*
X56140Y-10440D01*
X56140Y-10432D01*
X56260Y-10432D01*
X56260Y-10440D01*
X56605Y-10440D01*
X56665Y-10380D01*
X56665Y-10327D01*
X56639Y-10265D01*
X61260Y-10265D01*
X61235Y-10327D01*
X61235Y-10380D01*
X61295Y-10440D01*
X61640Y-10440D01*
X61640Y-10432D01*
X61760Y-10432D01*
X61760Y-10440D01*
X62105Y-10440D01*
X62165Y-10380D01*
X62165Y-10327D01*
X62139Y-10265D01*
X89735Y-10265D01*
X89735Y-49735D01*
M02*
