G04 (created by PCBNEW (2013-mar-13)-testing) date Mon 20 Jan 2014 04:57:44 AM EST*
%MOIN*%
G04 Gerber Fmt 3.4, Leading zero omitted, Abs format*
%FSLAX34Y34*%
G01*
G70*
G90*
G04 APERTURE LIST*
%ADD10C,0.005906*%
%ADD11C,0.012000*%
%ADD12C,0.015000*%
%ADD13C,0.005000*%
%ADD14C,0.002600*%
%ADD15C,0.004000*%
%ADD16C,0.004700*%
%ADD17C,0.006000*%
%ADD18C,0.004500*%
G04 APERTURE END LIST*
G54D10*
G54D11*
X79749Y-48328D02*
X79435Y-48328D01*
X79749Y-48861D01*
X79435Y-48861D01*
X79207Y-48861D02*
X79207Y-48061D01*
X79207Y-48366D02*
X79149Y-48328D01*
X79035Y-48328D01*
X78978Y-48366D01*
X78949Y-48404D01*
X78921Y-48480D01*
X78921Y-48709D01*
X78949Y-48785D01*
X78978Y-48823D01*
X79035Y-48861D01*
X79149Y-48861D01*
X79207Y-48823D01*
X78407Y-48861D02*
X78407Y-48442D01*
X78435Y-48366D01*
X78492Y-48328D01*
X78607Y-48328D01*
X78664Y-48366D01*
X78407Y-48823D02*
X78464Y-48861D01*
X78607Y-48861D01*
X78664Y-48823D01*
X78692Y-48747D01*
X78692Y-48671D01*
X78664Y-48595D01*
X78607Y-48557D01*
X78464Y-48557D01*
X78407Y-48519D01*
X78121Y-48328D02*
X78121Y-48861D01*
X78121Y-48404D02*
X78092Y-48366D01*
X78035Y-48328D01*
X77949Y-48328D01*
X77892Y-48366D01*
X77864Y-48442D01*
X77864Y-48861D01*
X77578Y-48861D02*
X77578Y-48061D01*
X77521Y-48557D02*
X77349Y-48861D01*
X77349Y-48328D02*
X77578Y-48633D01*
X77121Y-48823D02*
X77064Y-48861D01*
X76950Y-48861D01*
X76892Y-48823D01*
X76864Y-48747D01*
X76864Y-48709D01*
X76892Y-48633D01*
X76950Y-48595D01*
X77035Y-48595D01*
X77092Y-48557D01*
X77121Y-48480D01*
X77121Y-48442D01*
X77092Y-48366D01*
X77035Y-48328D01*
X76950Y-48328D01*
X76892Y-48366D01*
X76235Y-48480D02*
X76264Y-48442D01*
X76321Y-48404D01*
X76378Y-48404D01*
X76435Y-48442D01*
X76464Y-48480D01*
X76492Y-48557D01*
X76492Y-48633D01*
X76464Y-48709D01*
X76435Y-48747D01*
X76378Y-48785D01*
X76321Y-48785D01*
X76264Y-48747D01*
X76235Y-48709D01*
X76235Y-48404D02*
X76235Y-48709D01*
X76207Y-48747D01*
X76178Y-48747D01*
X76121Y-48709D01*
X76092Y-48633D01*
X76092Y-48442D01*
X76150Y-48328D01*
X76235Y-48252D01*
X76350Y-48214D01*
X76464Y-48252D01*
X76550Y-48328D01*
X76607Y-48442D01*
X76635Y-48595D01*
X76607Y-48747D01*
X76550Y-48861D01*
X76464Y-48938D01*
X76350Y-48976D01*
X76235Y-48938D01*
X76150Y-48861D01*
X75835Y-48861D02*
X75835Y-48328D01*
X75835Y-48404D02*
X75807Y-48366D01*
X75750Y-48328D01*
X75664Y-48328D01*
X75607Y-48366D01*
X75578Y-48442D01*
X75578Y-48861D01*
X75578Y-48442D02*
X75550Y-48366D01*
X75492Y-48328D01*
X75407Y-48328D01*
X75350Y-48366D01*
X75321Y-48442D01*
X75321Y-48861D01*
X75035Y-48861D02*
X75035Y-48328D01*
X75035Y-48061D02*
X75064Y-48100D01*
X75035Y-48138D01*
X75007Y-48100D01*
X75035Y-48061D01*
X75035Y-48138D01*
X74835Y-48328D02*
X74607Y-48328D01*
X74750Y-48061D02*
X74750Y-48747D01*
X74721Y-48823D01*
X74664Y-48861D01*
X74607Y-48861D01*
X74407Y-48785D02*
X74378Y-48823D01*
X74407Y-48861D01*
X74435Y-48823D01*
X74407Y-48785D01*
X74407Y-48861D01*
X73892Y-48823D02*
X73950Y-48861D01*
X74064Y-48861D01*
X74121Y-48823D01*
X74150Y-48747D01*
X74150Y-48442D01*
X74121Y-48366D01*
X74064Y-48328D01*
X73950Y-48328D01*
X73892Y-48366D01*
X73864Y-48442D01*
X73864Y-48519D01*
X74150Y-48595D01*
X73350Y-48861D02*
X73350Y-48061D01*
X73350Y-48823D02*
X73407Y-48861D01*
X73521Y-48861D01*
X73578Y-48823D01*
X73607Y-48785D01*
X73635Y-48709D01*
X73635Y-48480D01*
X73607Y-48404D01*
X73578Y-48366D01*
X73521Y-48328D01*
X73407Y-48328D01*
X73350Y-48366D01*
X72807Y-48328D02*
X72807Y-48861D01*
X73064Y-48328D02*
X73064Y-48747D01*
X73035Y-48823D01*
X72978Y-48861D01*
X72892Y-48861D01*
X72835Y-48823D01*
X72807Y-48785D01*
X67278Y-48861D02*
X67278Y-48442D01*
X67307Y-48366D01*
X67364Y-48328D01*
X67478Y-48328D01*
X67535Y-48366D01*
X67278Y-48823D02*
X67335Y-48861D01*
X67478Y-48861D01*
X67535Y-48823D01*
X67564Y-48747D01*
X67564Y-48671D01*
X67535Y-48595D01*
X67478Y-48557D01*
X67335Y-48557D01*
X67278Y-48519D01*
X66735Y-48328D02*
X66735Y-48861D01*
X66992Y-48328D02*
X66992Y-48747D01*
X66964Y-48823D01*
X66907Y-48861D01*
X66821Y-48861D01*
X66764Y-48823D01*
X66735Y-48785D01*
X66450Y-48861D02*
X66450Y-48328D01*
X66450Y-48480D02*
X66421Y-48404D01*
X66392Y-48366D01*
X66335Y-48328D01*
X66278Y-48328D01*
X65992Y-48861D02*
X66050Y-48823D01*
X66078Y-48785D01*
X66107Y-48709D01*
X66107Y-48480D01*
X66078Y-48404D01*
X66050Y-48366D01*
X65992Y-48328D01*
X65907Y-48328D01*
X65850Y-48366D01*
X65821Y-48404D01*
X65792Y-48480D01*
X65792Y-48709D01*
X65821Y-48785D01*
X65850Y-48823D01*
X65907Y-48861D01*
X65992Y-48861D01*
X65535Y-48861D02*
X65535Y-48328D01*
X65535Y-48480D02*
X65507Y-48404D01*
X65478Y-48366D01*
X65421Y-48328D01*
X65364Y-48328D01*
X64907Y-48861D02*
X64907Y-48442D01*
X64935Y-48366D01*
X64992Y-48328D01*
X65107Y-48328D01*
X65164Y-48366D01*
X64907Y-48823D02*
X64964Y-48861D01*
X65107Y-48861D01*
X65164Y-48823D01*
X65192Y-48747D01*
X65192Y-48671D01*
X65164Y-48595D01*
X65107Y-48557D01*
X64964Y-48557D01*
X64907Y-48519D01*
X64078Y-48861D02*
X64135Y-48823D01*
X64164Y-48747D01*
X64164Y-48061D01*
X63592Y-48328D02*
X63592Y-48861D01*
X63850Y-48328D02*
X63850Y-48747D01*
X63821Y-48823D01*
X63764Y-48861D01*
X63678Y-48861D01*
X63621Y-48823D01*
X63592Y-48785D01*
X63364Y-48861D02*
X63050Y-48328D01*
X63364Y-48328D02*
X63050Y-48861D01*
X62364Y-48861D02*
X62364Y-48328D01*
X62364Y-48480D02*
X62335Y-48404D01*
X62307Y-48366D01*
X62250Y-48328D01*
X62192Y-48328D01*
X61907Y-48861D02*
X61964Y-48823D01*
X61992Y-48785D01*
X62021Y-48709D01*
X62021Y-48480D01*
X61992Y-48404D01*
X61964Y-48366D01*
X61907Y-48328D01*
X61821Y-48328D01*
X61764Y-48366D01*
X61735Y-48404D01*
X61707Y-48480D01*
X61707Y-48709D01*
X61735Y-48785D01*
X61764Y-48823D01*
X61821Y-48861D01*
X61907Y-48861D01*
X61192Y-48328D02*
X61192Y-48861D01*
X61450Y-48328D02*
X61450Y-48747D01*
X61421Y-48823D01*
X61364Y-48861D01*
X61278Y-48861D01*
X61221Y-48823D01*
X61192Y-48785D01*
X60992Y-48328D02*
X60764Y-48328D01*
X60907Y-48061D02*
X60907Y-48747D01*
X60878Y-48823D01*
X60821Y-48861D01*
X60764Y-48861D01*
X60335Y-48823D02*
X60392Y-48861D01*
X60507Y-48861D01*
X60564Y-48823D01*
X60592Y-48747D01*
X60592Y-48442D01*
X60564Y-48366D01*
X60507Y-48328D01*
X60392Y-48328D01*
X60335Y-48366D01*
X60307Y-48442D01*
X60307Y-48519D01*
X60592Y-48595D01*
X60050Y-48861D02*
X60050Y-48328D01*
X60050Y-48480D02*
X60021Y-48404D01*
X59992Y-48366D01*
X59935Y-48328D01*
X59878Y-48328D01*
X68900Y-17207D02*
X68938Y-17264D01*
X68938Y-17349D01*
X68900Y-17435D01*
X68823Y-17492D01*
X68747Y-17521D01*
X68595Y-17549D01*
X68480Y-17549D01*
X68328Y-17521D01*
X68252Y-17492D01*
X68176Y-17435D01*
X68138Y-17349D01*
X68138Y-17292D01*
X68176Y-17207D01*
X68214Y-17178D01*
X68480Y-17178D01*
X68480Y-17292D01*
X68138Y-16921D02*
X68938Y-16921D01*
X68138Y-16578D01*
X68938Y-16578D01*
X68138Y-16292D02*
X68938Y-16292D01*
X68938Y-16150D01*
X68900Y-16064D01*
X68823Y-16007D01*
X68747Y-15978D01*
X68595Y-15950D01*
X68480Y-15950D01*
X68328Y-15978D01*
X68252Y-16007D01*
X68176Y-16064D01*
X68138Y-16150D01*
X68138Y-16292D01*
X68828Y-14361D02*
X69028Y-13980D01*
X69171Y-14361D02*
X69171Y-13561D01*
X68942Y-13561D01*
X68885Y-13600D01*
X68857Y-13638D01*
X68828Y-13714D01*
X68828Y-13828D01*
X68857Y-13904D01*
X68885Y-13942D01*
X68942Y-13980D01*
X69171Y-13980D01*
X68657Y-13561D02*
X68314Y-13561D01*
X68485Y-14361D02*
X68485Y-13561D01*
X68142Y-14323D02*
X68057Y-14361D01*
X67914Y-14361D01*
X67857Y-14323D01*
X67828Y-14285D01*
X67800Y-14209D01*
X67800Y-14133D01*
X67828Y-14057D01*
X67857Y-14019D01*
X67914Y-13980D01*
X68028Y-13942D01*
X68085Y-13904D01*
X68114Y-13866D01*
X68142Y-13790D01*
X68142Y-13714D01*
X68114Y-13638D01*
X68085Y-13600D01*
X68028Y-13561D01*
X67885Y-13561D01*
X67800Y-13600D01*
X68707Y-12561D02*
X68364Y-12561D01*
X68535Y-13361D02*
X68535Y-12561D01*
X68221Y-12561D02*
X67821Y-13361D01*
X67821Y-12561D02*
X68221Y-13361D01*
X68350Y-12361D02*
X68550Y-11980D01*
X68692Y-12361D02*
X68692Y-11561D01*
X68464Y-11561D01*
X68407Y-11600D01*
X68378Y-11638D01*
X68350Y-11714D01*
X68350Y-11828D01*
X68378Y-11904D01*
X68407Y-11942D01*
X68464Y-11980D01*
X68692Y-11980D01*
X68150Y-11561D02*
X67750Y-12361D01*
X67750Y-11561D02*
X68150Y-12361D01*
X71557Y-12057D02*
X71100Y-12057D01*
X71328Y-12361D02*
X71328Y-11752D01*
X70871Y-11561D02*
X70500Y-11561D01*
X70700Y-11866D01*
X70614Y-11866D01*
X70557Y-11904D01*
X70528Y-11942D01*
X70500Y-12019D01*
X70500Y-12209D01*
X70528Y-12285D01*
X70557Y-12323D01*
X70614Y-12361D01*
X70785Y-12361D01*
X70842Y-12323D01*
X70871Y-12285D01*
X70328Y-11561D02*
X70128Y-12361D01*
X69928Y-11561D01*
X69785Y-11561D02*
X69414Y-11561D01*
X69614Y-11866D01*
X69528Y-11866D01*
X69471Y-11904D01*
X69442Y-11942D01*
X69414Y-12019D01*
X69414Y-12209D01*
X69442Y-12285D01*
X69471Y-12323D01*
X69528Y-12361D01*
X69699Y-12361D01*
X69757Y-12323D01*
X69785Y-12285D01*
X71021Y-13557D02*
X70564Y-13557D01*
X70792Y-13861D02*
X70792Y-13252D01*
X69992Y-13061D02*
X70278Y-13061D01*
X70307Y-13442D01*
X70278Y-13404D01*
X70221Y-13366D01*
X70078Y-13366D01*
X70021Y-13404D01*
X69992Y-13442D01*
X69964Y-13519D01*
X69964Y-13709D01*
X69992Y-13785D01*
X70021Y-13823D01*
X70078Y-13861D01*
X70221Y-13861D01*
X70278Y-13823D01*
X70307Y-13785D01*
X69792Y-13061D02*
X69592Y-13861D01*
X69392Y-13061D01*
G54D12*
X71250Y-13500D02*
X71750Y-14000D01*
X71750Y-13000D02*
X71250Y-13500D01*
G54D11*
X70807Y-15442D02*
X70807Y-15900D01*
X71111Y-15671D02*
X70502Y-15671D01*
X71111Y-16500D02*
X71111Y-16157D01*
X71111Y-16328D02*
X70311Y-16328D01*
X70426Y-16271D01*
X70502Y-16214D01*
X70540Y-16157D01*
X70388Y-16728D02*
X70350Y-16757D01*
X70311Y-16814D01*
X70311Y-16957D01*
X70350Y-17014D01*
X70388Y-17042D01*
X70464Y-17071D01*
X70540Y-17071D01*
X70654Y-17042D01*
X71111Y-16700D01*
X71111Y-17071D01*
X70311Y-17242D02*
X71111Y-17442D01*
X70311Y-17642D01*
G54D12*
X71500Y-16000D02*
X71500Y-15000D01*
X71500Y-17000D02*
X71500Y-16000D01*
X71500Y-18000D02*
X71500Y-17000D01*
X71500Y-18000D02*
X71750Y-18000D01*
X71500Y-17000D02*
X71750Y-17000D01*
X71500Y-16000D02*
X71750Y-16000D01*
X71750Y-15000D02*
X71500Y-15000D01*
X67750Y-10750D02*
X67750Y-11250D01*
X71500Y-10750D02*
X71500Y-11250D01*
X67750Y-14750D02*
X67750Y-18250D01*
G54D13*
X88200Y-32950D02*
X88250Y-32950D01*
X88250Y-32950D02*
X88250Y-35050D01*
X86750Y-35050D02*
X86750Y-32950D01*
X86750Y-32950D02*
X88200Y-32950D01*
X87300Y-32950D02*
X87300Y-33150D01*
X87300Y-33150D02*
X87700Y-33150D01*
X87700Y-33150D02*
X87700Y-32950D01*
X86750Y-35050D02*
X88250Y-35050D01*
X88200Y-38950D02*
X88250Y-38950D01*
X88250Y-38950D02*
X88250Y-41050D01*
X86750Y-41050D02*
X86750Y-38950D01*
X86750Y-38950D02*
X88200Y-38950D01*
X87300Y-38950D02*
X87300Y-39150D01*
X87300Y-39150D02*
X87700Y-39150D01*
X87700Y-39150D02*
X87700Y-38950D01*
X86750Y-41050D02*
X88250Y-41050D01*
X88200Y-44950D02*
X88250Y-44950D01*
X88250Y-44950D02*
X88250Y-47050D01*
X86750Y-47050D02*
X86750Y-44950D01*
X86750Y-44950D02*
X88200Y-44950D01*
X87300Y-44950D02*
X87300Y-45150D01*
X87300Y-45150D02*
X87700Y-45150D01*
X87700Y-45150D02*
X87700Y-44950D01*
X86750Y-47050D02*
X88250Y-47050D01*
X51800Y-47050D02*
X51750Y-47050D01*
X51750Y-47050D02*
X51750Y-44950D01*
X53250Y-44950D02*
X53250Y-47050D01*
X53250Y-47050D02*
X51800Y-47050D01*
X52700Y-47050D02*
X52700Y-46850D01*
X52700Y-46850D02*
X52300Y-46850D01*
X52300Y-46850D02*
X52300Y-47050D01*
X53250Y-44950D02*
X51750Y-44950D01*
X51800Y-41050D02*
X51750Y-41050D01*
X51750Y-41050D02*
X51750Y-38950D01*
X53250Y-38950D02*
X53250Y-41050D01*
X53250Y-41050D02*
X51800Y-41050D01*
X52700Y-41050D02*
X52700Y-40850D01*
X52700Y-40850D02*
X52300Y-40850D01*
X52300Y-40850D02*
X52300Y-41050D01*
X53250Y-38950D02*
X51750Y-38950D01*
X51800Y-35050D02*
X51750Y-35050D01*
X51750Y-35050D02*
X51750Y-32950D01*
X53250Y-32950D02*
X53250Y-35050D01*
X53250Y-35050D02*
X51800Y-35050D01*
X52700Y-35050D02*
X52700Y-34850D01*
X52700Y-34850D02*
X52300Y-34850D01*
X52300Y-34850D02*
X52300Y-35050D01*
X53250Y-32950D02*
X51750Y-32950D01*
X51800Y-29050D02*
X51750Y-29050D01*
X51750Y-29050D02*
X51750Y-26950D01*
X53250Y-26950D02*
X53250Y-29050D01*
X53250Y-29050D02*
X51800Y-29050D01*
X52700Y-29050D02*
X52700Y-28850D01*
X52700Y-28850D02*
X52300Y-28850D01*
X52300Y-28850D02*
X52300Y-29050D01*
X53250Y-26950D02*
X51750Y-26950D01*
X58550Y-14430D02*
X59450Y-14430D01*
X59450Y-14430D02*
X59450Y-13930D01*
X59450Y-13930D02*
X58550Y-13930D01*
X58550Y-13930D02*
X58550Y-14430D01*
X58550Y-13750D02*
X59450Y-13750D01*
X59450Y-13750D02*
X59450Y-13250D01*
X59450Y-13250D02*
X58550Y-13250D01*
X58550Y-13250D02*
X58550Y-13750D01*
X89450Y-34650D02*
X89450Y-33750D01*
X89450Y-33750D02*
X88950Y-33750D01*
X88950Y-33750D02*
X88950Y-34650D01*
X88950Y-34650D02*
X89450Y-34650D01*
X51050Y-28650D02*
X51050Y-27750D01*
X51050Y-27750D02*
X50550Y-27750D01*
X50550Y-27750D02*
X50550Y-28650D01*
X50550Y-28650D02*
X51050Y-28650D01*
X51050Y-34650D02*
X51050Y-33750D01*
X51050Y-33750D02*
X50550Y-33750D01*
X50550Y-33750D02*
X50550Y-34650D01*
X50550Y-34650D02*
X51050Y-34650D01*
X51000Y-40700D02*
X51000Y-39800D01*
X51000Y-39800D02*
X50500Y-39800D01*
X50500Y-39800D02*
X50500Y-40700D01*
X50500Y-40700D02*
X51000Y-40700D01*
X51000Y-46700D02*
X51000Y-45800D01*
X51000Y-45800D02*
X50500Y-45800D01*
X50500Y-45800D02*
X50500Y-46700D01*
X50500Y-46700D02*
X51000Y-46700D01*
X89450Y-46650D02*
X89450Y-45750D01*
X89450Y-45750D02*
X88950Y-45750D01*
X88950Y-45750D02*
X88950Y-46650D01*
X88950Y-46650D02*
X89450Y-46650D01*
X89450Y-40650D02*
X89450Y-39750D01*
X89450Y-39750D02*
X88950Y-39750D01*
X88950Y-39750D02*
X88950Y-40650D01*
X88950Y-40650D02*
X89450Y-40650D01*
G54D14*
X89377Y-44823D02*
X89023Y-44823D01*
X89023Y-44823D02*
X89023Y-44666D01*
X89377Y-44666D02*
X89023Y-44666D01*
X89377Y-44823D02*
X89377Y-44666D01*
X89377Y-45334D02*
X89023Y-45334D01*
X89023Y-45334D02*
X89023Y-45177D01*
X89377Y-45177D02*
X89023Y-45177D01*
X89377Y-45334D02*
X89377Y-45177D01*
X89377Y-45000D02*
X89318Y-45000D01*
X89318Y-45000D02*
X89318Y-44882D01*
X89377Y-44882D02*
X89318Y-44882D01*
X89377Y-45000D02*
X89377Y-44882D01*
X89082Y-45000D02*
X89023Y-45000D01*
X89023Y-45000D02*
X89023Y-44882D01*
X89082Y-44882D02*
X89023Y-44882D01*
X89082Y-45000D02*
X89082Y-44882D01*
X89259Y-45000D02*
X89141Y-45000D01*
X89141Y-45000D02*
X89141Y-44882D01*
X89259Y-44882D02*
X89141Y-44882D01*
X89259Y-45000D02*
X89259Y-44882D01*
G54D15*
X89357Y-44823D02*
X89357Y-45177D01*
X89043Y-44823D02*
X89043Y-45177D01*
G54D14*
X50977Y-26823D02*
X50623Y-26823D01*
X50623Y-26823D02*
X50623Y-26666D01*
X50977Y-26666D02*
X50623Y-26666D01*
X50977Y-26823D02*
X50977Y-26666D01*
X50977Y-27334D02*
X50623Y-27334D01*
X50623Y-27334D02*
X50623Y-27177D01*
X50977Y-27177D02*
X50623Y-27177D01*
X50977Y-27334D02*
X50977Y-27177D01*
X50977Y-27000D02*
X50918Y-27000D01*
X50918Y-27000D02*
X50918Y-26882D01*
X50977Y-26882D02*
X50918Y-26882D01*
X50977Y-27000D02*
X50977Y-26882D01*
X50682Y-27000D02*
X50623Y-27000D01*
X50623Y-27000D02*
X50623Y-26882D01*
X50682Y-26882D02*
X50623Y-26882D01*
X50682Y-27000D02*
X50682Y-26882D01*
X50859Y-27000D02*
X50741Y-27000D01*
X50741Y-27000D02*
X50741Y-26882D01*
X50859Y-26882D02*
X50741Y-26882D01*
X50859Y-27000D02*
X50859Y-26882D01*
G54D15*
X50957Y-26823D02*
X50957Y-27177D01*
X50643Y-26823D02*
X50643Y-27177D01*
G54D14*
X50977Y-32823D02*
X50623Y-32823D01*
X50623Y-32823D02*
X50623Y-32666D01*
X50977Y-32666D02*
X50623Y-32666D01*
X50977Y-32823D02*
X50977Y-32666D01*
X50977Y-33334D02*
X50623Y-33334D01*
X50623Y-33334D02*
X50623Y-33177D01*
X50977Y-33177D02*
X50623Y-33177D01*
X50977Y-33334D02*
X50977Y-33177D01*
X50977Y-33000D02*
X50918Y-33000D01*
X50918Y-33000D02*
X50918Y-32882D01*
X50977Y-32882D02*
X50918Y-32882D01*
X50977Y-33000D02*
X50977Y-32882D01*
X50682Y-33000D02*
X50623Y-33000D01*
X50623Y-33000D02*
X50623Y-32882D01*
X50682Y-32882D02*
X50623Y-32882D01*
X50682Y-33000D02*
X50682Y-32882D01*
X50859Y-33000D02*
X50741Y-33000D01*
X50741Y-33000D02*
X50741Y-32882D01*
X50859Y-32882D02*
X50741Y-32882D01*
X50859Y-33000D02*
X50859Y-32882D01*
G54D15*
X50957Y-32823D02*
X50957Y-33177D01*
X50643Y-32823D02*
X50643Y-33177D01*
G54D14*
X50927Y-38823D02*
X50573Y-38823D01*
X50573Y-38823D02*
X50573Y-38666D01*
X50927Y-38666D02*
X50573Y-38666D01*
X50927Y-38823D02*
X50927Y-38666D01*
X50927Y-39334D02*
X50573Y-39334D01*
X50573Y-39334D02*
X50573Y-39177D01*
X50927Y-39177D02*
X50573Y-39177D01*
X50927Y-39334D02*
X50927Y-39177D01*
X50927Y-39000D02*
X50868Y-39000D01*
X50868Y-39000D02*
X50868Y-38882D01*
X50927Y-38882D02*
X50868Y-38882D01*
X50927Y-39000D02*
X50927Y-38882D01*
X50632Y-39000D02*
X50573Y-39000D01*
X50573Y-39000D02*
X50573Y-38882D01*
X50632Y-38882D02*
X50573Y-38882D01*
X50632Y-39000D02*
X50632Y-38882D01*
X50809Y-39000D02*
X50691Y-39000D01*
X50691Y-39000D02*
X50691Y-38882D01*
X50809Y-38882D02*
X50691Y-38882D01*
X50809Y-39000D02*
X50809Y-38882D01*
G54D15*
X50907Y-38823D02*
X50907Y-39177D01*
X50593Y-38823D02*
X50593Y-39177D01*
G54D14*
X50927Y-44823D02*
X50573Y-44823D01*
X50573Y-44823D02*
X50573Y-44666D01*
X50927Y-44666D02*
X50573Y-44666D01*
X50927Y-44823D02*
X50927Y-44666D01*
X50927Y-45334D02*
X50573Y-45334D01*
X50573Y-45334D02*
X50573Y-45177D01*
X50927Y-45177D02*
X50573Y-45177D01*
X50927Y-45334D02*
X50927Y-45177D01*
X50927Y-45000D02*
X50868Y-45000D01*
X50868Y-45000D02*
X50868Y-44882D01*
X50927Y-44882D02*
X50868Y-44882D01*
X50927Y-45000D02*
X50927Y-44882D01*
X50632Y-45000D02*
X50573Y-45000D01*
X50573Y-45000D02*
X50573Y-44882D01*
X50632Y-44882D02*
X50573Y-44882D01*
X50632Y-45000D02*
X50632Y-44882D01*
X50809Y-45000D02*
X50691Y-45000D01*
X50691Y-45000D02*
X50691Y-44882D01*
X50809Y-44882D02*
X50691Y-44882D01*
X50809Y-45000D02*
X50809Y-44882D01*
G54D15*
X50907Y-44823D02*
X50907Y-45177D01*
X50593Y-44823D02*
X50593Y-45177D01*
G54D14*
X89377Y-38823D02*
X89023Y-38823D01*
X89023Y-38823D02*
X89023Y-38666D01*
X89377Y-38666D02*
X89023Y-38666D01*
X89377Y-38823D02*
X89377Y-38666D01*
X89377Y-39334D02*
X89023Y-39334D01*
X89023Y-39334D02*
X89023Y-39177D01*
X89377Y-39177D02*
X89023Y-39177D01*
X89377Y-39334D02*
X89377Y-39177D01*
X89377Y-39000D02*
X89318Y-39000D01*
X89318Y-39000D02*
X89318Y-38882D01*
X89377Y-38882D02*
X89318Y-38882D01*
X89377Y-39000D02*
X89377Y-38882D01*
X89082Y-39000D02*
X89023Y-39000D01*
X89023Y-39000D02*
X89023Y-38882D01*
X89082Y-38882D02*
X89023Y-38882D01*
X89082Y-39000D02*
X89082Y-38882D01*
X89259Y-39000D02*
X89141Y-39000D01*
X89141Y-39000D02*
X89141Y-38882D01*
X89259Y-38882D02*
X89141Y-38882D01*
X89259Y-39000D02*
X89259Y-38882D01*
G54D15*
X89357Y-38823D02*
X89357Y-39177D01*
X89043Y-38823D02*
X89043Y-39177D01*
G54D14*
X89377Y-32823D02*
X89023Y-32823D01*
X89023Y-32823D02*
X89023Y-32666D01*
X89377Y-32666D02*
X89023Y-32666D01*
X89377Y-32823D02*
X89377Y-32666D01*
X89377Y-33334D02*
X89023Y-33334D01*
X89023Y-33334D02*
X89023Y-33177D01*
X89377Y-33177D02*
X89023Y-33177D01*
X89377Y-33334D02*
X89377Y-33177D01*
X89377Y-33000D02*
X89318Y-33000D01*
X89318Y-33000D02*
X89318Y-32882D01*
X89377Y-32882D02*
X89318Y-32882D01*
X89377Y-33000D02*
X89377Y-32882D01*
X89082Y-33000D02*
X89023Y-33000D01*
X89023Y-33000D02*
X89023Y-32882D01*
X89082Y-32882D02*
X89023Y-32882D01*
X89082Y-33000D02*
X89082Y-32882D01*
X89259Y-33000D02*
X89141Y-33000D01*
X89141Y-33000D02*
X89141Y-32882D01*
X89259Y-32882D02*
X89141Y-32882D01*
X89259Y-33000D02*
X89259Y-32882D01*
G54D15*
X89357Y-32823D02*
X89357Y-33177D01*
X89043Y-32823D02*
X89043Y-33177D01*
G54D14*
X70877Y-11177D02*
X70877Y-10823D01*
X70877Y-10823D02*
X71034Y-10823D01*
X71034Y-11177D02*
X71034Y-10823D01*
X70877Y-11177D02*
X71034Y-11177D01*
X70366Y-11177D02*
X70366Y-10823D01*
X70366Y-10823D02*
X70523Y-10823D01*
X70523Y-11177D02*
X70523Y-10823D01*
X70366Y-11177D02*
X70523Y-11177D01*
X70700Y-11177D02*
X70700Y-11118D01*
X70700Y-11118D02*
X70818Y-11118D01*
X70818Y-11177D02*
X70818Y-11118D01*
X70700Y-11177D02*
X70818Y-11177D01*
X70700Y-10882D02*
X70700Y-10823D01*
X70700Y-10823D02*
X70818Y-10823D01*
X70818Y-10882D02*
X70818Y-10823D01*
X70700Y-10882D02*
X70818Y-10882D01*
X70700Y-11059D02*
X70700Y-10941D01*
X70700Y-10941D02*
X70818Y-10941D01*
X70818Y-11059D02*
X70818Y-10941D01*
X70700Y-11059D02*
X70818Y-11059D01*
G54D15*
X70877Y-11157D02*
X70523Y-11157D01*
X70877Y-10843D02*
X70523Y-10843D01*
G54D13*
X68750Y-11250D02*
X69650Y-11250D01*
X69650Y-11250D02*
X69650Y-10750D01*
X69650Y-10750D02*
X68750Y-10750D01*
X68750Y-10750D02*
X68750Y-11250D01*
G54D16*
X69803Y-26506D02*
X69528Y-26506D01*
X70197Y-26506D02*
X70472Y-26506D01*
X69803Y-25994D02*
X69528Y-25994D01*
X70472Y-25994D02*
X70197Y-25994D01*
X69528Y-26000D02*
X69528Y-26500D01*
X70472Y-26500D02*
X70472Y-26000D01*
G54D17*
X86903Y-33657D02*
X87267Y-33657D01*
X87310Y-33678D01*
X87332Y-33700D01*
X87353Y-33742D01*
X87353Y-33828D01*
X87332Y-33871D01*
X87310Y-33892D01*
X87267Y-33914D01*
X86903Y-33914D01*
X87096Y-34192D02*
X87075Y-34150D01*
X87053Y-34128D01*
X87010Y-34107D01*
X86989Y-34107D01*
X86946Y-34128D01*
X86925Y-34150D01*
X86903Y-34192D01*
X86903Y-34278D01*
X86925Y-34321D01*
X86946Y-34342D01*
X86989Y-34364D01*
X87010Y-34364D01*
X87053Y-34342D01*
X87075Y-34321D01*
X87096Y-34278D01*
X87096Y-34192D01*
X87117Y-34150D01*
X87139Y-34128D01*
X87182Y-34107D01*
X87267Y-34107D01*
X87310Y-34128D01*
X87332Y-34150D01*
X87353Y-34192D01*
X87353Y-34278D01*
X87332Y-34321D01*
X87310Y-34342D01*
X87267Y-34364D01*
X87182Y-34364D01*
X87139Y-34342D01*
X87117Y-34321D01*
X87096Y-34278D01*
X88041Y-33108D02*
X88058Y-33158D01*
X88058Y-33241D01*
X88041Y-33275D01*
X88025Y-33291D01*
X87991Y-33308D01*
X87958Y-33308D01*
X87925Y-33291D01*
X87908Y-33275D01*
X87891Y-33241D01*
X87875Y-33175D01*
X87858Y-33141D01*
X87841Y-33125D01*
X87808Y-33108D01*
X87775Y-33108D01*
X87741Y-33125D01*
X87725Y-33141D01*
X87708Y-33175D01*
X87708Y-33258D01*
X87725Y-33308D01*
X87708Y-33408D02*
X87708Y-33608D01*
X88058Y-33508D02*
X87708Y-33508D01*
X87825Y-33875D02*
X88058Y-33875D01*
X87691Y-33791D02*
X87941Y-33708D01*
X87941Y-33925D01*
X87858Y-34108D02*
X87841Y-34075D01*
X87825Y-34058D01*
X87791Y-34041D01*
X87775Y-34041D01*
X87741Y-34058D01*
X87725Y-34075D01*
X87708Y-34108D01*
X87708Y-34175D01*
X87725Y-34208D01*
X87741Y-34225D01*
X87775Y-34241D01*
X87791Y-34241D01*
X87825Y-34225D01*
X87841Y-34208D01*
X87858Y-34175D01*
X87858Y-34108D01*
X87875Y-34075D01*
X87891Y-34058D01*
X87925Y-34041D01*
X87991Y-34041D01*
X88025Y-34058D01*
X88041Y-34075D01*
X88058Y-34108D01*
X88058Y-34175D01*
X88041Y-34208D01*
X88025Y-34225D01*
X87991Y-34241D01*
X87925Y-34241D01*
X87891Y-34225D01*
X87875Y-34208D01*
X87858Y-34175D01*
X87708Y-34558D02*
X87708Y-34391D01*
X87875Y-34375D01*
X87858Y-34391D01*
X87841Y-34425D01*
X87841Y-34508D01*
X87858Y-34541D01*
X87875Y-34558D01*
X87908Y-34575D01*
X87991Y-34575D01*
X88025Y-34558D01*
X88041Y-34541D01*
X88058Y-34508D01*
X88058Y-34425D01*
X88041Y-34391D01*
X88025Y-34375D01*
X87875Y-34725D02*
X87875Y-34841D01*
X88058Y-34891D02*
X88058Y-34725D01*
X87708Y-34725D01*
X87708Y-34891D01*
X86903Y-39657D02*
X87267Y-39657D01*
X87310Y-39678D01*
X87332Y-39700D01*
X87353Y-39742D01*
X87353Y-39828D01*
X87332Y-39871D01*
X87310Y-39892D01*
X87267Y-39914D01*
X86903Y-39914D01*
X86903Y-40085D02*
X86903Y-40385D01*
X87353Y-40192D01*
X88041Y-39108D02*
X88058Y-39158D01*
X88058Y-39241D01*
X88041Y-39275D01*
X88025Y-39291D01*
X87991Y-39308D01*
X87958Y-39308D01*
X87925Y-39291D01*
X87908Y-39275D01*
X87891Y-39241D01*
X87875Y-39175D01*
X87858Y-39141D01*
X87841Y-39125D01*
X87808Y-39108D01*
X87775Y-39108D01*
X87741Y-39125D01*
X87725Y-39141D01*
X87708Y-39175D01*
X87708Y-39258D01*
X87725Y-39308D01*
X87708Y-39408D02*
X87708Y-39608D01*
X88058Y-39508D02*
X87708Y-39508D01*
X87825Y-39875D02*
X88058Y-39875D01*
X87691Y-39791D02*
X87941Y-39708D01*
X87941Y-39925D01*
X87858Y-40108D02*
X87841Y-40075D01*
X87825Y-40058D01*
X87791Y-40041D01*
X87775Y-40041D01*
X87741Y-40058D01*
X87725Y-40075D01*
X87708Y-40108D01*
X87708Y-40175D01*
X87725Y-40208D01*
X87741Y-40225D01*
X87775Y-40241D01*
X87791Y-40241D01*
X87825Y-40225D01*
X87841Y-40208D01*
X87858Y-40175D01*
X87858Y-40108D01*
X87875Y-40075D01*
X87891Y-40058D01*
X87925Y-40041D01*
X87991Y-40041D01*
X88025Y-40058D01*
X88041Y-40075D01*
X88058Y-40108D01*
X88058Y-40175D01*
X88041Y-40208D01*
X88025Y-40225D01*
X87991Y-40241D01*
X87925Y-40241D01*
X87891Y-40225D01*
X87875Y-40208D01*
X87858Y-40175D01*
X87708Y-40558D02*
X87708Y-40391D01*
X87875Y-40375D01*
X87858Y-40391D01*
X87841Y-40425D01*
X87841Y-40508D01*
X87858Y-40541D01*
X87875Y-40558D01*
X87908Y-40575D01*
X87991Y-40575D01*
X88025Y-40558D01*
X88041Y-40541D01*
X88058Y-40508D01*
X88058Y-40425D01*
X88041Y-40391D01*
X88025Y-40375D01*
X87875Y-40725D02*
X87875Y-40841D01*
X88058Y-40891D02*
X88058Y-40725D01*
X87708Y-40725D01*
X87708Y-40891D01*
X86903Y-45657D02*
X87267Y-45657D01*
X87310Y-45678D01*
X87332Y-45700D01*
X87353Y-45742D01*
X87353Y-45828D01*
X87332Y-45871D01*
X87310Y-45892D01*
X87267Y-45914D01*
X86903Y-45914D01*
X86903Y-46321D02*
X86903Y-46235D01*
X86925Y-46192D01*
X86946Y-46171D01*
X87010Y-46128D01*
X87096Y-46107D01*
X87267Y-46107D01*
X87310Y-46128D01*
X87332Y-46150D01*
X87353Y-46192D01*
X87353Y-46278D01*
X87332Y-46321D01*
X87310Y-46342D01*
X87267Y-46364D01*
X87160Y-46364D01*
X87117Y-46342D01*
X87096Y-46321D01*
X87075Y-46278D01*
X87075Y-46192D01*
X87096Y-46150D01*
X87117Y-46128D01*
X87160Y-46107D01*
X88041Y-45108D02*
X88058Y-45158D01*
X88058Y-45241D01*
X88041Y-45275D01*
X88025Y-45291D01*
X87991Y-45308D01*
X87958Y-45308D01*
X87925Y-45291D01*
X87908Y-45275D01*
X87891Y-45241D01*
X87875Y-45175D01*
X87858Y-45141D01*
X87841Y-45125D01*
X87808Y-45108D01*
X87775Y-45108D01*
X87741Y-45125D01*
X87725Y-45141D01*
X87708Y-45175D01*
X87708Y-45258D01*
X87725Y-45308D01*
X87708Y-45408D02*
X87708Y-45608D01*
X88058Y-45508D02*
X87708Y-45508D01*
X87825Y-45875D02*
X88058Y-45875D01*
X87691Y-45791D02*
X87941Y-45708D01*
X87941Y-45925D01*
X87858Y-46108D02*
X87841Y-46075D01*
X87825Y-46058D01*
X87791Y-46041D01*
X87775Y-46041D01*
X87741Y-46058D01*
X87725Y-46075D01*
X87708Y-46108D01*
X87708Y-46175D01*
X87725Y-46208D01*
X87741Y-46225D01*
X87775Y-46241D01*
X87791Y-46241D01*
X87825Y-46225D01*
X87841Y-46208D01*
X87858Y-46175D01*
X87858Y-46108D01*
X87875Y-46075D01*
X87891Y-46058D01*
X87925Y-46041D01*
X87991Y-46041D01*
X88025Y-46058D01*
X88041Y-46075D01*
X88058Y-46108D01*
X88058Y-46175D01*
X88041Y-46208D01*
X88025Y-46225D01*
X87991Y-46241D01*
X87925Y-46241D01*
X87891Y-46225D01*
X87875Y-46208D01*
X87858Y-46175D01*
X87708Y-46558D02*
X87708Y-46391D01*
X87875Y-46375D01*
X87858Y-46391D01*
X87841Y-46425D01*
X87841Y-46508D01*
X87858Y-46541D01*
X87875Y-46558D01*
X87908Y-46575D01*
X87991Y-46575D01*
X88025Y-46558D01*
X88041Y-46541D01*
X88058Y-46508D01*
X88058Y-46425D01*
X88041Y-46391D01*
X88025Y-46375D01*
X87875Y-46725D02*
X87875Y-46841D01*
X88058Y-46891D02*
X88058Y-46725D01*
X87708Y-46725D01*
X87708Y-46891D01*
X52603Y-45657D02*
X52967Y-45657D01*
X53010Y-45678D01*
X53032Y-45700D01*
X53053Y-45742D01*
X53053Y-45828D01*
X53032Y-45871D01*
X53010Y-45892D01*
X52967Y-45914D01*
X52603Y-45914D01*
X52603Y-46342D02*
X52603Y-46128D01*
X52817Y-46107D01*
X52796Y-46128D01*
X52775Y-46171D01*
X52775Y-46278D01*
X52796Y-46321D01*
X52817Y-46342D01*
X52860Y-46364D01*
X52967Y-46364D01*
X53010Y-46342D01*
X53032Y-46321D01*
X53053Y-46278D01*
X53053Y-46171D01*
X53032Y-46128D01*
X53010Y-46107D01*
X52241Y-45108D02*
X52258Y-45158D01*
X52258Y-45241D01*
X52241Y-45275D01*
X52225Y-45291D01*
X52191Y-45308D01*
X52158Y-45308D01*
X52125Y-45291D01*
X52108Y-45275D01*
X52091Y-45241D01*
X52075Y-45175D01*
X52058Y-45141D01*
X52041Y-45125D01*
X52008Y-45108D01*
X51975Y-45108D01*
X51941Y-45125D01*
X51925Y-45141D01*
X51908Y-45175D01*
X51908Y-45258D01*
X51925Y-45308D01*
X51908Y-45408D02*
X51908Y-45608D01*
X52258Y-45508D02*
X51908Y-45508D01*
X52025Y-45875D02*
X52258Y-45875D01*
X51891Y-45791D02*
X52141Y-45708D01*
X52141Y-45925D01*
X52058Y-46108D02*
X52041Y-46075D01*
X52025Y-46058D01*
X51991Y-46041D01*
X51975Y-46041D01*
X51941Y-46058D01*
X51925Y-46075D01*
X51908Y-46108D01*
X51908Y-46175D01*
X51925Y-46208D01*
X51941Y-46225D01*
X51975Y-46241D01*
X51991Y-46241D01*
X52025Y-46225D01*
X52041Y-46208D01*
X52058Y-46175D01*
X52058Y-46108D01*
X52075Y-46075D01*
X52091Y-46058D01*
X52125Y-46041D01*
X52191Y-46041D01*
X52225Y-46058D01*
X52241Y-46075D01*
X52258Y-46108D01*
X52258Y-46175D01*
X52241Y-46208D01*
X52225Y-46225D01*
X52191Y-46241D01*
X52125Y-46241D01*
X52091Y-46225D01*
X52075Y-46208D01*
X52058Y-46175D01*
X51908Y-46558D02*
X51908Y-46391D01*
X52075Y-46375D01*
X52058Y-46391D01*
X52041Y-46425D01*
X52041Y-46508D01*
X52058Y-46541D01*
X52075Y-46558D01*
X52108Y-46575D01*
X52191Y-46575D01*
X52225Y-46558D01*
X52241Y-46541D01*
X52258Y-46508D01*
X52258Y-46425D01*
X52241Y-46391D01*
X52225Y-46375D01*
X52075Y-46725D02*
X52075Y-46841D01*
X52258Y-46891D02*
X52258Y-46725D01*
X51908Y-46725D01*
X51908Y-46891D01*
X52603Y-39657D02*
X52967Y-39657D01*
X53010Y-39678D01*
X53032Y-39700D01*
X53053Y-39742D01*
X53053Y-39828D01*
X53032Y-39871D01*
X53010Y-39892D01*
X52967Y-39914D01*
X52603Y-39914D01*
X52753Y-40321D02*
X53053Y-40321D01*
X52582Y-40214D02*
X52903Y-40107D01*
X52903Y-40385D01*
X52241Y-39108D02*
X52258Y-39158D01*
X52258Y-39241D01*
X52241Y-39275D01*
X52225Y-39291D01*
X52191Y-39308D01*
X52158Y-39308D01*
X52125Y-39291D01*
X52108Y-39275D01*
X52091Y-39241D01*
X52075Y-39175D01*
X52058Y-39141D01*
X52041Y-39125D01*
X52008Y-39108D01*
X51975Y-39108D01*
X51941Y-39125D01*
X51925Y-39141D01*
X51908Y-39175D01*
X51908Y-39258D01*
X51925Y-39308D01*
X51908Y-39408D02*
X51908Y-39608D01*
X52258Y-39508D02*
X51908Y-39508D01*
X52025Y-39875D02*
X52258Y-39875D01*
X51891Y-39791D02*
X52141Y-39708D01*
X52141Y-39925D01*
X52058Y-40108D02*
X52041Y-40075D01*
X52025Y-40058D01*
X51991Y-40041D01*
X51975Y-40041D01*
X51941Y-40058D01*
X51925Y-40075D01*
X51908Y-40108D01*
X51908Y-40175D01*
X51925Y-40208D01*
X51941Y-40225D01*
X51975Y-40241D01*
X51991Y-40241D01*
X52025Y-40225D01*
X52041Y-40208D01*
X52058Y-40175D01*
X52058Y-40108D01*
X52075Y-40075D01*
X52091Y-40058D01*
X52125Y-40041D01*
X52191Y-40041D01*
X52225Y-40058D01*
X52241Y-40075D01*
X52258Y-40108D01*
X52258Y-40175D01*
X52241Y-40208D01*
X52225Y-40225D01*
X52191Y-40241D01*
X52125Y-40241D01*
X52091Y-40225D01*
X52075Y-40208D01*
X52058Y-40175D01*
X51908Y-40558D02*
X51908Y-40391D01*
X52075Y-40375D01*
X52058Y-40391D01*
X52041Y-40425D01*
X52041Y-40508D01*
X52058Y-40541D01*
X52075Y-40558D01*
X52108Y-40575D01*
X52191Y-40575D01*
X52225Y-40558D01*
X52241Y-40541D01*
X52258Y-40508D01*
X52258Y-40425D01*
X52241Y-40391D01*
X52225Y-40375D01*
X52075Y-40725D02*
X52075Y-40841D01*
X52258Y-40891D02*
X52258Y-40725D01*
X51908Y-40725D01*
X51908Y-40891D01*
X52603Y-33657D02*
X52967Y-33657D01*
X53010Y-33678D01*
X53032Y-33700D01*
X53053Y-33742D01*
X53053Y-33828D01*
X53032Y-33871D01*
X53010Y-33892D01*
X52967Y-33914D01*
X52603Y-33914D01*
X52603Y-34085D02*
X52603Y-34364D01*
X52775Y-34214D01*
X52775Y-34278D01*
X52796Y-34321D01*
X52817Y-34342D01*
X52860Y-34364D01*
X52967Y-34364D01*
X53010Y-34342D01*
X53032Y-34321D01*
X53053Y-34278D01*
X53053Y-34150D01*
X53032Y-34107D01*
X53010Y-34085D01*
X52241Y-33108D02*
X52258Y-33158D01*
X52258Y-33241D01*
X52241Y-33275D01*
X52225Y-33291D01*
X52191Y-33308D01*
X52158Y-33308D01*
X52125Y-33291D01*
X52108Y-33275D01*
X52091Y-33241D01*
X52075Y-33175D01*
X52058Y-33141D01*
X52041Y-33125D01*
X52008Y-33108D01*
X51975Y-33108D01*
X51941Y-33125D01*
X51925Y-33141D01*
X51908Y-33175D01*
X51908Y-33258D01*
X51925Y-33308D01*
X51908Y-33408D02*
X51908Y-33608D01*
X52258Y-33508D02*
X51908Y-33508D01*
X52025Y-33875D02*
X52258Y-33875D01*
X51891Y-33791D02*
X52141Y-33708D01*
X52141Y-33925D01*
X52058Y-34108D02*
X52041Y-34075D01*
X52025Y-34058D01*
X51991Y-34041D01*
X51975Y-34041D01*
X51941Y-34058D01*
X51925Y-34075D01*
X51908Y-34108D01*
X51908Y-34175D01*
X51925Y-34208D01*
X51941Y-34225D01*
X51975Y-34241D01*
X51991Y-34241D01*
X52025Y-34225D01*
X52041Y-34208D01*
X52058Y-34175D01*
X52058Y-34108D01*
X52075Y-34075D01*
X52091Y-34058D01*
X52125Y-34041D01*
X52191Y-34041D01*
X52225Y-34058D01*
X52241Y-34075D01*
X52258Y-34108D01*
X52258Y-34175D01*
X52241Y-34208D01*
X52225Y-34225D01*
X52191Y-34241D01*
X52125Y-34241D01*
X52091Y-34225D01*
X52075Y-34208D01*
X52058Y-34175D01*
X51908Y-34558D02*
X51908Y-34391D01*
X52075Y-34375D01*
X52058Y-34391D01*
X52041Y-34425D01*
X52041Y-34508D01*
X52058Y-34541D01*
X52075Y-34558D01*
X52108Y-34575D01*
X52191Y-34575D01*
X52225Y-34558D01*
X52241Y-34541D01*
X52258Y-34508D01*
X52258Y-34425D01*
X52241Y-34391D01*
X52225Y-34375D01*
X52075Y-34725D02*
X52075Y-34841D01*
X52258Y-34891D02*
X52258Y-34725D01*
X51908Y-34725D01*
X51908Y-34891D01*
X52603Y-27657D02*
X52967Y-27657D01*
X53010Y-27678D01*
X53032Y-27700D01*
X53053Y-27742D01*
X53053Y-27828D01*
X53032Y-27871D01*
X53010Y-27892D01*
X52967Y-27914D01*
X52603Y-27914D01*
X52646Y-28107D02*
X52625Y-28128D01*
X52603Y-28171D01*
X52603Y-28278D01*
X52625Y-28321D01*
X52646Y-28342D01*
X52689Y-28364D01*
X52732Y-28364D01*
X52796Y-28342D01*
X53053Y-28085D01*
X53053Y-28364D01*
X52241Y-27108D02*
X52258Y-27158D01*
X52258Y-27241D01*
X52241Y-27275D01*
X52225Y-27291D01*
X52191Y-27308D01*
X52158Y-27308D01*
X52125Y-27291D01*
X52108Y-27275D01*
X52091Y-27241D01*
X52075Y-27175D01*
X52058Y-27141D01*
X52041Y-27125D01*
X52008Y-27108D01*
X51975Y-27108D01*
X51941Y-27125D01*
X51925Y-27141D01*
X51908Y-27175D01*
X51908Y-27258D01*
X51925Y-27308D01*
X51908Y-27408D02*
X51908Y-27608D01*
X52258Y-27508D02*
X51908Y-27508D01*
X52025Y-27875D02*
X52258Y-27875D01*
X51891Y-27791D02*
X52141Y-27708D01*
X52141Y-27925D01*
X52058Y-28108D02*
X52041Y-28075D01*
X52025Y-28058D01*
X51991Y-28041D01*
X51975Y-28041D01*
X51941Y-28058D01*
X51925Y-28075D01*
X51908Y-28108D01*
X51908Y-28175D01*
X51925Y-28208D01*
X51941Y-28225D01*
X51975Y-28241D01*
X51991Y-28241D01*
X52025Y-28225D01*
X52041Y-28208D01*
X52058Y-28175D01*
X52058Y-28108D01*
X52075Y-28075D01*
X52091Y-28058D01*
X52125Y-28041D01*
X52191Y-28041D01*
X52225Y-28058D01*
X52241Y-28075D01*
X52258Y-28108D01*
X52258Y-28175D01*
X52241Y-28208D01*
X52225Y-28225D01*
X52191Y-28241D01*
X52125Y-28241D01*
X52091Y-28225D01*
X52075Y-28208D01*
X52058Y-28175D01*
X51908Y-28558D02*
X51908Y-28391D01*
X52075Y-28375D01*
X52058Y-28391D01*
X52041Y-28425D01*
X52041Y-28508D01*
X52058Y-28541D01*
X52075Y-28558D01*
X52108Y-28575D01*
X52191Y-28575D01*
X52225Y-28558D01*
X52241Y-28541D01*
X52258Y-28508D01*
X52258Y-28425D01*
X52241Y-28391D01*
X52225Y-28375D01*
X52075Y-28725D02*
X52075Y-28841D01*
X52258Y-28891D02*
X52258Y-28725D01*
X51908Y-28725D01*
X51908Y-28891D01*
G54D18*
X58330Y-14071D02*
X58338Y-14080D01*
X58364Y-14090D01*
X58381Y-14090D01*
X58407Y-14080D01*
X58424Y-14061D01*
X58432Y-14042D01*
X58441Y-14004D01*
X58441Y-13976D01*
X58432Y-13938D01*
X58424Y-13919D01*
X58407Y-13900D01*
X58381Y-13890D01*
X58364Y-13890D01*
X58338Y-13900D01*
X58330Y-13909D01*
X58244Y-14090D02*
X58210Y-14090D01*
X58192Y-14080D01*
X58184Y-14071D01*
X58167Y-14042D01*
X58158Y-14004D01*
X58158Y-13928D01*
X58167Y-13909D01*
X58175Y-13900D01*
X58192Y-13890D01*
X58227Y-13890D01*
X58244Y-13900D01*
X58252Y-13909D01*
X58261Y-13928D01*
X58261Y-13976D01*
X58252Y-13995D01*
X58244Y-14004D01*
X58227Y-14014D01*
X58192Y-14014D01*
X58175Y-14004D01*
X58167Y-13995D01*
X58158Y-13976D01*
X58330Y-13290D02*
X58390Y-13195D01*
X58432Y-13290D02*
X58432Y-13090D01*
X58364Y-13090D01*
X58347Y-13100D01*
X58338Y-13109D01*
X58330Y-13128D01*
X58330Y-13157D01*
X58338Y-13176D01*
X58347Y-13185D01*
X58364Y-13195D01*
X58432Y-13195D01*
X58158Y-13290D02*
X58261Y-13290D01*
X58210Y-13290D02*
X58210Y-13090D01*
X58227Y-13119D01*
X58244Y-13138D01*
X58261Y-13147D01*
X89290Y-34934D02*
X89195Y-34874D01*
X89290Y-34831D02*
X89090Y-34831D01*
X89090Y-34900D01*
X89100Y-34917D01*
X89109Y-34925D01*
X89128Y-34934D01*
X89157Y-34934D01*
X89176Y-34925D01*
X89185Y-34917D01*
X89195Y-34900D01*
X89195Y-34831D01*
X89109Y-35002D02*
X89100Y-35011D01*
X89090Y-35028D01*
X89090Y-35071D01*
X89100Y-35088D01*
X89109Y-35097D01*
X89128Y-35105D01*
X89147Y-35105D01*
X89176Y-35097D01*
X89290Y-34994D01*
X89290Y-35105D01*
X89090Y-35217D02*
X89090Y-35234D01*
X89100Y-35251D01*
X89109Y-35260D01*
X89128Y-35268D01*
X89166Y-35277D01*
X89214Y-35277D01*
X89252Y-35268D01*
X89271Y-35260D01*
X89280Y-35251D01*
X89290Y-35234D01*
X89290Y-35217D01*
X89280Y-35200D01*
X89271Y-35191D01*
X89252Y-35182D01*
X89214Y-35174D01*
X89166Y-35174D01*
X89128Y-35182D01*
X89109Y-35191D01*
X89100Y-35200D01*
X89090Y-35217D01*
X50890Y-28920D02*
X50795Y-28860D01*
X50890Y-28817D02*
X50690Y-28817D01*
X50690Y-28885D01*
X50700Y-28902D01*
X50709Y-28911D01*
X50728Y-28920D01*
X50757Y-28920D01*
X50776Y-28911D01*
X50785Y-28902D01*
X50795Y-28885D01*
X50795Y-28817D01*
X50776Y-29022D02*
X50766Y-29005D01*
X50757Y-28997D01*
X50738Y-28988D01*
X50728Y-28988D01*
X50709Y-28997D01*
X50700Y-29005D01*
X50690Y-29022D01*
X50690Y-29057D01*
X50700Y-29074D01*
X50709Y-29082D01*
X50728Y-29091D01*
X50738Y-29091D01*
X50757Y-29082D01*
X50766Y-29074D01*
X50776Y-29057D01*
X50776Y-29022D01*
X50785Y-29005D01*
X50795Y-28997D01*
X50814Y-28988D01*
X50852Y-28988D01*
X50871Y-28997D01*
X50880Y-29005D01*
X50890Y-29022D01*
X50890Y-29057D01*
X50880Y-29074D01*
X50871Y-29082D01*
X50852Y-29091D01*
X50814Y-29091D01*
X50795Y-29082D01*
X50785Y-29074D01*
X50776Y-29057D01*
X50890Y-34934D02*
X50795Y-34874D01*
X50890Y-34831D02*
X50690Y-34831D01*
X50690Y-34900D01*
X50700Y-34917D01*
X50709Y-34925D01*
X50728Y-34934D01*
X50757Y-34934D01*
X50776Y-34925D01*
X50785Y-34917D01*
X50795Y-34900D01*
X50795Y-34831D01*
X50890Y-35105D02*
X50890Y-35002D01*
X50890Y-35054D02*
X50690Y-35054D01*
X50719Y-35037D01*
X50738Y-35020D01*
X50747Y-35002D01*
X50690Y-35217D02*
X50690Y-35234D01*
X50700Y-35251D01*
X50709Y-35260D01*
X50728Y-35268D01*
X50766Y-35277D01*
X50814Y-35277D01*
X50852Y-35268D01*
X50871Y-35260D01*
X50880Y-35251D01*
X50890Y-35234D01*
X50890Y-35217D01*
X50880Y-35200D01*
X50871Y-35191D01*
X50852Y-35182D01*
X50814Y-35174D01*
X50766Y-35174D01*
X50728Y-35182D01*
X50709Y-35191D01*
X50700Y-35200D01*
X50690Y-35217D01*
X50840Y-40984D02*
X50745Y-40924D01*
X50840Y-40881D02*
X50640Y-40881D01*
X50640Y-40950D01*
X50650Y-40967D01*
X50659Y-40975D01*
X50678Y-40984D01*
X50707Y-40984D01*
X50726Y-40975D01*
X50735Y-40967D01*
X50745Y-40950D01*
X50745Y-40881D01*
X50840Y-41155D02*
X50840Y-41052D01*
X50840Y-41104D02*
X50640Y-41104D01*
X50669Y-41087D01*
X50688Y-41070D01*
X50697Y-41052D01*
X50659Y-41224D02*
X50650Y-41232D01*
X50640Y-41250D01*
X50640Y-41292D01*
X50650Y-41310D01*
X50659Y-41318D01*
X50678Y-41327D01*
X50697Y-41327D01*
X50726Y-41318D01*
X50840Y-41215D01*
X50840Y-41327D01*
X50840Y-46984D02*
X50745Y-46924D01*
X50840Y-46881D02*
X50640Y-46881D01*
X50640Y-46950D01*
X50650Y-46967D01*
X50659Y-46975D01*
X50678Y-46984D01*
X50707Y-46984D01*
X50726Y-46975D01*
X50735Y-46967D01*
X50745Y-46950D01*
X50745Y-46881D01*
X50840Y-47155D02*
X50840Y-47052D01*
X50840Y-47104D02*
X50640Y-47104D01*
X50669Y-47087D01*
X50688Y-47070D01*
X50697Y-47052D01*
X50707Y-47310D02*
X50840Y-47310D01*
X50630Y-47267D02*
X50773Y-47224D01*
X50773Y-47335D01*
X89290Y-46934D02*
X89195Y-46874D01*
X89290Y-46831D02*
X89090Y-46831D01*
X89090Y-46900D01*
X89100Y-46917D01*
X89109Y-46925D01*
X89128Y-46934D01*
X89157Y-46934D01*
X89176Y-46925D01*
X89185Y-46917D01*
X89195Y-46900D01*
X89195Y-46831D01*
X89290Y-47105D02*
X89290Y-47002D01*
X89290Y-47054D02*
X89090Y-47054D01*
X89119Y-47037D01*
X89138Y-47020D01*
X89147Y-47002D01*
X89090Y-47260D02*
X89090Y-47225D01*
X89100Y-47208D01*
X89109Y-47200D01*
X89138Y-47182D01*
X89176Y-47174D01*
X89252Y-47174D01*
X89271Y-47182D01*
X89280Y-47191D01*
X89290Y-47208D01*
X89290Y-47242D01*
X89280Y-47260D01*
X89271Y-47268D01*
X89252Y-47277D01*
X89204Y-47277D01*
X89185Y-47268D01*
X89176Y-47260D01*
X89166Y-47242D01*
X89166Y-47208D01*
X89176Y-47191D01*
X89185Y-47182D01*
X89204Y-47174D01*
X89290Y-40934D02*
X89195Y-40874D01*
X89290Y-40831D02*
X89090Y-40831D01*
X89090Y-40900D01*
X89100Y-40917D01*
X89109Y-40925D01*
X89128Y-40934D01*
X89157Y-40934D01*
X89176Y-40925D01*
X89185Y-40917D01*
X89195Y-40900D01*
X89195Y-40831D01*
X89290Y-41105D02*
X89290Y-41002D01*
X89290Y-41054D02*
X89090Y-41054D01*
X89119Y-41037D01*
X89138Y-41020D01*
X89147Y-41002D01*
X89176Y-41208D02*
X89166Y-41191D01*
X89157Y-41182D01*
X89138Y-41174D01*
X89128Y-41174D01*
X89109Y-41182D01*
X89100Y-41191D01*
X89090Y-41208D01*
X89090Y-41242D01*
X89100Y-41260D01*
X89109Y-41268D01*
X89128Y-41277D01*
X89138Y-41277D01*
X89157Y-41268D01*
X89166Y-41260D01*
X89176Y-41242D01*
X89176Y-41208D01*
X89185Y-41191D01*
X89195Y-41182D01*
X89214Y-41174D01*
X89252Y-41174D01*
X89271Y-41182D01*
X89280Y-41191D01*
X89290Y-41208D01*
X89290Y-41242D01*
X89280Y-41260D01*
X89271Y-41268D01*
X89252Y-41277D01*
X89214Y-41277D01*
X89195Y-41268D01*
X89185Y-41260D01*
X89176Y-41242D01*
G54D13*
X89290Y-43857D02*
X89090Y-43857D01*
X89090Y-43904D01*
X89100Y-43933D01*
X89119Y-43952D01*
X89138Y-43961D01*
X89176Y-43971D01*
X89204Y-43971D01*
X89242Y-43961D01*
X89261Y-43952D01*
X89280Y-43933D01*
X89290Y-43904D01*
X89290Y-43857D01*
X89290Y-44161D02*
X89290Y-44047D01*
X89290Y-44104D02*
X89090Y-44104D01*
X89119Y-44085D01*
X89138Y-44066D01*
X89147Y-44047D01*
X89290Y-44352D02*
X89290Y-44238D01*
X89290Y-44295D02*
X89090Y-44295D01*
X89119Y-44276D01*
X89138Y-44257D01*
X89147Y-44238D01*
X50890Y-26052D02*
X50690Y-26052D01*
X50690Y-26100D01*
X50700Y-26128D01*
X50719Y-26147D01*
X50738Y-26157D01*
X50776Y-26166D01*
X50804Y-26166D01*
X50842Y-26157D01*
X50861Y-26147D01*
X50880Y-26128D01*
X50890Y-26100D01*
X50890Y-26052D01*
X50690Y-26233D02*
X50690Y-26366D01*
X50890Y-26280D01*
X50890Y-32052D02*
X50690Y-32052D01*
X50690Y-32100D01*
X50700Y-32128D01*
X50719Y-32147D01*
X50738Y-32157D01*
X50776Y-32166D01*
X50804Y-32166D01*
X50842Y-32157D01*
X50861Y-32147D01*
X50880Y-32128D01*
X50890Y-32100D01*
X50890Y-32052D01*
X50776Y-32280D02*
X50766Y-32261D01*
X50757Y-32252D01*
X50738Y-32242D01*
X50728Y-32242D01*
X50709Y-32252D01*
X50700Y-32261D01*
X50690Y-32280D01*
X50690Y-32319D01*
X50700Y-32338D01*
X50709Y-32347D01*
X50728Y-32357D01*
X50738Y-32357D01*
X50757Y-32347D01*
X50766Y-32338D01*
X50776Y-32319D01*
X50776Y-32280D01*
X50785Y-32261D01*
X50795Y-32252D01*
X50814Y-32242D01*
X50852Y-32242D01*
X50871Y-32252D01*
X50880Y-32261D01*
X50890Y-32280D01*
X50890Y-32319D01*
X50880Y-32338D01*
X50871Y-32347D01*
X50852Y-32357D01*
X50814Y-32357D01*
X50795Y-32347D01*
X50785Y-32338D01*
X50776Y-32319D01*
X50840Y-38052D02*
X50640Y-38052D01*
X50640Y-38100D01*
X50650Y-38128D01*
X50669Y-38147D01*
X50688Y-38157D01*
X50726Y-38166D01*
X50754Y-38166D01*
X50792Y-38157D01*
X50811Y-38147D01*
X50830Y-38128D01*
X50840Y-38100D01*
X50840Y-38052D01*
X50840Y-38261D02*
X50840Y-38300D01*
X50830Y-38319D01*
X50821Y-38328D01*
X50792Y-38347D01*
X50754Y-38357D01*
X50678Y-38357D01*
X50659Y-38347D01*
X50650Y-38338D01*
X50640Y-38319D01*
X50640Y-38280D01*
X50650Y-38261D01*
X50659Y-38252D01*
X50678Y-38242D01*
X50726Y-38242D01*
X50745Y-38252D01*
X50754Y-38261D01*
X50764Y-38280D01*
X50764Y-38319D01*
X50754Y-38338D01*
X50745Y-38347D01*
X50726Y-38357D01*
X50840Y-43857D02*
X50640Y-43857D01*
X50640Y-43904D01*
X50650Y-43933D01*
X50669Y-43952D01*
X50688Y-43961D01*
X50726Y-43971D01*
X50754Y-43971D01*
X50792Y-43961D01*
X50811Y-43952D01*
X50830Y-43933D01*
X50840Y-43904D01*
X50840Y-43857D01*
X50840Y-44161D02*
X50840Y-44047D01*
X50840Y-44104D02*
X50640Y-44104D01*
X50669Y-44085D01*
X50688Y-44066D01*
X50697Y-44047D01*
X50640Y-44285D02*
X50640Y-44304D01*
X50650Y-44323D01*
X50659Y-44333D01*
X50678Y-44342D01*
X50716Y-44352D01*
X50764Y-44352D01*
X50802Y-44342D01*
X50821Y-44333D01*
X50830Y-44323D01*
X50840Y-44304D01*
X50840Y-44285D01*
X50830Y-44266D01*
X50821Y-44257D01*
X50802Y-44247D01*
X50764Y-44238D01*
X50716Y-44238D01*
X50678Y-44247D01*
X50659Y-44257D01*
X50650Y-44266D01*
X50640Y-44285D01*
X89290Y-37857D02*
X89090Y-37857D01*
X89090Y-37904D01*
X89100Y-37933D01*
X89119Y-37952D01*
X89138Y-37961D01*
X89176Y-37971D01*
X89204Y-37971D01*
X89242Y-37961D01*
X89261Y-37952D01*
X89280Y-37933D01*
X89290Y-37904D01*
X89290Y-37857D01*
X89290Y-38161D02*
X89290Y-38047D01*
X89290Y-38104D02*
X89090Y-38104D01*
X89119Y-38085D01*
X89138Y-38066D01*
X89147Y-38047D01*
X89109Y-38238D02*
X89100Y-38247D01*
X89090Y-38266D01*
X89090Y-38314D01*
X89100Y-38333D01*
X89109Y-38342D01*
X89128Y-38352D01*
X89147Y-38352D01*
X89176Y-38342D01*
X89290Y-38228D01*
X89290Y-38352D01*
X89290Y-31857D02*
X89090Y-31857D01*
X89090Y-31904D01*
X89100Y-31933D01*
X89119Y-31952D01*
X89138Y-31961D01*
X89176Y-31971D01*
X89204Y-31971D01*
X89242Y-31961D01*
X89261Y-31952D01*
X89280Y-31933D01*
X89290Y-31904D01*
X89290Y-31857D01*
X89290Y-32161D02*
X89290Y-32047D01*
X89290Y-32104D02*
X89090Y-32104D01*
X89119Y-32085D01*
X89138Y-32066D01*
X89147Y-32047D01*
X89090Y-32228D02*
X89090Y-32352D01*
X89166Y-32285D01*
X89166Y-32314D01*
X89176Y-32333D01*
X89185Y-32342D01*
X89204Y-32352D01*
X89252Y-32352D01*
X89271Y-32342D01*
X89280Y-32333D01*
X89290Y-32314D01*
X89290Y-32257D01*
X89280Y-32238D01*
X89271Y-32228D01*
G54D18*
X68430Y-11090D02*
X68490Y-10995D01*
X68532Y-11090D02*
X68532Y-10890D01*
X68464Y-10890D01*
X68447Y-10900D01*
X68438Y-10909D01*
X68430Y-10928D01*
X68430Y-10957D01*
X68438Y-10976D01*
X68447Y-10985D01*
X68464Y-10995D01*
X68532Y-10995D01*
X68370Y-10890D02*
X68250Y-10890D01*
X68327Y-11090D01*
X70030Y-26871D02*
X70038Y-26880D01*
X70064Y-26890D01*
X70081Y-26890D01*
X70107Y-26880D01*
X70124Y-26861D01*
X70132Y-26842D01*
X70141Y-26804D01*
X70141Y-26776D01*
X70132Y-26738D01*
X70124Y-26719D01*
X70107Y-26700D01*
X70081Y-26690D01*
X70064Y-26690D01*
X70038Y-26700D01*
X70030Y-26709D01*
X69875Y-26757D02*
X69875Y-26890D01*
X69918Y-26680D02*
X69961Y-26823D01*
X69850Y-26823D01*
X70107Y-27190D02*
X70210Y-27190D01*
X70158Y-27190D02*
X70158Y-26990D01*
X70175Y-27019D01*
X70192Y-27038D01*
X70210Y-27047D01*
X69952Y-27057D02*
X69952Y-27190D01*
X70030Y-27057D02*
X70030Y-27161D01*
X70021Y-27180D01*
X70004Y-27190D01*
X69978Y-27190D01*
X69961Y-27180D01*
X69952Y-27171D01*
X69807Y-27085D02*
X69867Y-27085D01*
X69867Y-27190D02*
X69867Y-26990D01*
X69781Y-26990D01*
M02*
