G04 (created by PCBNEW (2013-mar-13)-testing) date Mon 20 Jan 2014 04:57:44 AM EST*
%MOIN*%
G04 Gerber Fmt 3.4, Leading zero omitted, Abs format*
%FSLAX34Y34*%
G01*
G70*
G90*
G04 APERTURE LIST*
%ADD10C,0.005906*%
%ADD11C,0.209000*%
%ADD12R,0.209000X0.209000*%
%ADD13C,0.145984*%
%ADD14C,0.090866*%
%ADD15R,0.130200X0.240000*%
%ADD16R,0.077900X0.036500*%
%ADD17R,0.080000X0.030000*%
%ADD18R,0.030000X0.080000*%
%ADD19R,0.065000X0.045000*%
%ADD20R,0.045000X0.065000*%
%ADD21R,0.051400X0.051400*%
%ADD22R,0.120000X0.120000*%
%ADD23C,0.120000*%
%ADD24C,0.075000*%
%ADD25C,0.170000*%
%ADD26R,0.236500X0.098700*%
%ADD27R,0.075000X0.075000*%
%ADD28R,0.100000X0.080000*%
%ADD29R,0.055000X0.075000*%
%ADD30R,0.035748X0.031811*%
%ADD31R,0.193200X0.094800*%
%ADD32R,0.035700X0.043600*%
%ADD33R,0.106600X0.090900*%
%ADD34R,0.138110X0.236535*%
%ADD35R,0.059400X0.043600*%
%ADD36R,0.058000X0.070000*%
%ADD37C,0.145000*%
G04 APERTURE END LIST*
G54D10*
G54D11*
X88000Y-28000D03*
G54D12*
X85600Y-28000D03*
G54D11*
X87100Y-26000D03*
G54D13*
X88000Y-48000D03*
X88000Y-44000D03*
G54D14*
X85500Y-46750D03*
X84500Y-46250D03*
X85500Y-45750D03*
X84500Y-45250D03*
G54D15*
X78900Y-12900D03*
G54D16*
X77798Y-13272D03*
X77798Y-13528D03*
X77798Y-13784D03*
X77798Y-14040D03*
X80000Y-12508D03*
X77798Y-12504D03*
X77798Y-12760D03*
X77798Y-13016D03*
X80002Y-14040D03*
X80002Y-13784D03*
X80002Y-13528D03*
X80002Y-13272D03*
X80002Y-13016D03*
X80000Y-12760D03*
X77798Y-12248D03*
X80002Y-12248D03*
X77798Y-11993D03*
X80002Y-11993D03*
X77798Y-11737D03*
X80002Y-11737D03*
G54D17*
X56700Y-16510D03*
X56700Y-16705D03*
X56700Y-16900D03*
X56700Y-17100D03*
X56700Y-17295D03*
X56700Y-17490D03*
X56700Y-17690D03*
X56700Y-17885D03*
X56700Y-18080D03*
X56700Y-18280D03*
X56700Y-18475D03*
X61300Y-16510D03*
X61300Y-16705D03*
X61300Y-16900D03*
X61300Y-17100D03*
X61300Y-17295D03*
X61300Y-17490D03*
X61300Y-17690D03*
X61300Y-17885D03*
X61300Y-18080D03*
X61300Y-18280D03*
X61300Y-18475D03*
G54D18*
X57525Y-14700D03*
X57720Y-14700D03*
X57920Y-14700D03*
X58115Y-14700D03*
X58310Y-14700D03*
X58510Y-14700D03*
X58705Y-14700D03*
X58900Y-14700D03*
X59100Y-14700D03*
X59295Y-14700D03*
X59490Y-14700D03*
X59490Y-19300D03*
X59295Y-19300D03*
X59100Y-19300D03*
X58900Y-19300D03*
X58705Y-19300D03*
X58510Y-19300D03*
X58310Y-19300D03*
X58115Y-19300D03*
X57920Y-19300D03*
X57720Y-19300D03*
X57525Y-19300D03*
X59690Y-19300D03*
X59885Y-19300D03*
X60080Y-19300D03*
X60280Y-19300D03*
X60475Y-19300D03*
X60475Y-14700D03*
X60280Y-14700D03*
X60080Y-14700D03*
X59885Y-14700D03*
X59690Y-14700D03*
G54D17*
X61300Y-16310D03*
X61300Y-16115D03*
X61300Y-15920D03*
X61300Y-15720D03*
X61300Y-15525D03*
X56700Y-16310D03*
X56700Y-16115D03*
X56700Y-15920D03*
X56700Y-15720D03*
X56700Y-15525D03*
G54D19*
X83000Y-44700D03*
X83000Y-45300D03*
X83000Y-32700D03*
X83000Y-33300D03*
X83000Y-38700D03*
X83000Y-39300D03*
X55700Y-17200D03*
X55700Y-16600D03*
G54D20*
X57200Y-20250D03*
X57800Y-20250D03*
G54D19*
X62675Y-17025D03*
X62675Y-16425D03*
G54D20*
X59550Y-20450D03*
X60150Y-20450D03*
G54D19*
X57000Y-41300D03*
X57000Y-40700D03*
X57000Y-35300D03*
X57000Y-34700D03*
X57000Y-29300D03*
X57000Y-28700D03*
X57000Y-47300D03*
X57000Y-46700D03*
G54D20*
X56000Y-14000D03*
X55400Y-14000D03*
X56000Y-13100D03*
X55400Y-13100D03*
X51200Y-22800D03*
X50600Y-22800D03*
X51200Y-18500D03*
X50600Y-18500D03*
X51200Y-21300D03*
X50600Y-21300D03*
G54D19*
X57000Y-27200D03*
X57000Y-27800D03*
X57000Y-33200D03*
X57000Y-33800D03*
X57000Y-39200D03*
X57000Y-39800D03*
X57000Y-45200D03*
X57000Y-45800D03*
X83000Y-46800D03*
X83000Y-46200D03*
X83000Y-40800D03*
X83000Y-40200D03*
X83000Y-34800D03*
X83000Y-34200D03*
G54D21*
X50605Y-19200D03*
X51195Y-19200D03*
G54D22*
X87000Y-23000D03*
G54D23*
X87000Y-21000D03*
G54D24*
X67200Y-11000D03*
X67200Y-12000D03*
X67200Y-13000D03*
X67200Y-14000D03*
X67200Y-15000D03*
X67200Y-16000D03*
X67200Y-17000D03*
X67200Y-18000D03*
X72200Y-18000D03*
X72200Y-17000D03*
X72200Y-16000D03*
X72200Y-15000D03*
X72200Y-14000D03*
X72200Y-13000D03*
X72200Y-12000D03*
X72200Y-11000D03*
G54D25*
X60000Y-28000D03*
X62000Y-28000D03*
X66000Y-28000D03*
X68000Y-28000D03*
X60000Y-34000D03*
X62000Y-34000D03*
X66000Y-34000D03*
X68000Y-34000D03*
X60000Y-40000D03*
X62000Y-40000D03*
X66000Y-40000D03*
X68000Y-40000D03*
X60000Y-46000D03*
X62000Y-46000D03*
X66000Y-46000D03*
X68000Y-46000D03*
X80000Y-46000D03*
X78000Y-46000D03*
X74000Y-46000D03*
X72000Y-46000D03*
X80000Y-40000D03*
X78000Y-40000D03*
X74000Y-40000D03*
X72000Y-40000D03*
X80000Y-34000D03*
X78000Y-34000D03*
X74000Y-34000D03*
X72000Y-34000D03*
G54D13*
X52000Y-26000D03*
X52000Y-30000D03*
G54D14*
X54500Y-27250D03*
X55500Y-27750D03*
X54500Y-28250D03*
X55500Y-28750D03*
G54D13*
X52000Y-32000D03*
X52000Y-36000D03*
G54D14*
X54500Y-33250D03*
X55500Y-33750D03*
X54500Y-34250D03*
X55500Y-34750D03*
G54D13*
X52000Y-38000D03*
X52000Y-42000D03*
G54D14*
X54500Y-39250D03*
X55500Y-39750D03*
X54500Y-40250D03*
X55500Y-40750D03*
G54D13*
X52000Y-44000D03*
X52000Y-48000D03*
G54D14*
X54500Y-45250D03*
X55500Y-45750D03*
X54500Y-46250D03*
X55500Y-46750D03*
G54D13*
X88000Y-42000D03*
X88000Y-38000D03*
G54D14*
X85500Y-40750D03*
X84500Y-40250D03*
X85500Y-39750D03*
X84500Y-39250D03*
G54D13*
X88000Y-36000D03*
X88000Y-32000D03*
G54D14*
X85500Y-34750D03*
X84500Y-34250D03*
X85500Y-33750D03*
X84500Y-33250D03*
G54D26*
X60850Y-12000D03*
X57150Y-12000D03*
G54D19*
X56200Y-11100D03*
X56200Y-10500D03*
G54D27*
X51900Y-14000D03*
G54D24*
X51900Y-13000D03*
X51900Y-12000D03*
X51900Y-11000D03*
G54D27*
X50900Y-14000D03*
G54D24*
X50900Y-13000D03*
X50900Y-12000D03*
X50900Y-11000D03*
G54D25*
X72000Y-28000D03*
X74000Y-28000D03*
X78000Y-28000D03*
X80000Y-28000D03*
G54D28*
X54000Y-10950D03*
X54000Y-12250D03*
X55100Y-10950D03*
X55100Y-12250D03*
G54D21*
X50605Y-22050D03*
X51195Y-22050D03*
X50605Y-23550D03*
X51195Y-23550D03*
G54D19*
X61700Y-11100D03*
X61700Y-10500D03*
G54D24*
X71000Y-25750D03*
X69000Y-25750D03*
G54D19*
X74800Y-17100D03*
X74800Y-16500D03*
G54D29*
X80925Y-11300D03*
X81675Y-11300D03*
X76575Y-11400D03*
X75825Y-11400D03*
G54D30*
X76000Y-14281D03*
X76000Y-14518D03*
G54D29*
X75825Y-12800D03*
X76575Y-12800D03*
G54D28*
X74500Y-11450D03*
X74500Y-12750D03*
G54D31*
X82232Y-18400D03*
X78807Y-18400D03*
G54D29*
X77825Y-15300D03*
X78575Y-15300D03*
G54D32*
X80077Y-15200D03*
X79723Y-15200D03*
G54D33*
X82900Y-13790D03*
X82900Y-12210D03*
G54D21*
X50605Y-20600D03*
X51195Y-20600D03*
G54D34*
X85129Y-12500D03*
X88870Y-12500D03*
G54D22*
X87000Y-18000D03*
G54D23*
X87000Y-16000D03*
G54D20*
X51200Y-19900D03*
X50600Y-19900D03*
G54D19*
X75300Y-14100D03*
X75300Y-14700D03*
X74300Y-14100D03*
X74300Y-14700D03*
G54D20*
X74300Y-15600D03*
X74900Y-15600D03*
G54D19*
X76800Y-14100D03*
X76800Y-14700D03*
G54D35*
X76226Y-17056D03*
X76226Y-16544D03*
X76974Y-16800D03*
G54D36*
X70100Y-19200D03*
X69600Y-19200D03*
X69100Y-19200D03*
G54D37*
X79600Y-23400D03*
X70000Y-48000D03*
X64500Y-11500D03*
X70000Y-31000D03*
M02*
